<?xml version="1.0" encoding="utf-8" standalone="no"?>
<!DOCTYPE svg PUBLIC "-//W3C//DTD SVG 1.1//EN"
  "http://www.w3.org/Graphics/SVG/1.1/DTD/svg11.dtd">
<svg xmlns:xlink="http://www.w3.org/1999/xlink" width="720pt" height="504pt" viewBox="0 0 720 504" xmlns="http://www.w3.org/2000/svg" version="1.1">
 <metadata>
  <rdf:RDF xmlns:dc="http://purl.org/dc/elements/1.1/" xmlns:cc="http://creativecommons.org/ns#" xmlns:rdf="http://www.w3.org/1999/02/22-rdf-syntax-ns#">
   <cc:Work>
    <dc:type rdf:resource="http://purl.org/dc/dcmitype/StillImage"/>
    <dc:date>2024-09-29T05:38:27.515261</dc:date>
    <dc:format>image/svg+xml</dc:format>
    <dc:creator>
     <cc:Agent>
      <dc:title>Matplotlib v3.9.2, https://matplotlib.org/</dc:title>
     </cc:Agent>
    </dc:creator>
   </cc:Work>
  </rdf:RDF>
 </metadata>
 <defs>
  <style type="text/css">*{stroke-linejoin: round; stroke-linecap: butt}</style>
 </defs>
 <g id="figure_1">
  <g id="patch_1">
   <path d="M 0 504 
L 720 504 
L 720 0 
L 0 0 
z
" style="fill: #ffffff"/>
  </g>
  <g id="axes_1">
   <g id="patch_2">
    <path d="M 90 448.56 
L 648 448.56 
L 648 60.48 
L 90 60.48 
z
" style="fill: #ffffff"/>
   </g>
   <g id="matplotlib.axis_1">
    <g id="xtick_1">
     <g id="line2d_1">
      <path d="M 90 448.56 
L 90 60.48 
" clip-path="url(#p610d5b5394)" style="fill: none; stroke: #cccccc; stroke-width: 0.8; stroke-linecap: round"/>
     </g>
     <g id="text_1">
      <text style="fill: #262626; font: 20px 'Arial', 'DejaVu Sans', 'Liberation Sans', 'Bitstream Vera Sans', sans-serif; text-anchor: middle" x="90" y="469.875625" transform="rotate(-0 90 469.875625)">0</text>
     </g>
    </g>
    <g id="xtick_2">
     <g id="line2d_2">
      <path d="M 183 448.56 
L 183 60.48 
" clip-path="url(#p610d5b5394)" style="fill: none; stroke: #cccccc; stroke-width: 0.8; stroke-linecap: round"/>
     </g>
     <g id="text_2">
      <text style="fill: #262626; font: 20px 'Arial', 'DejaVu Sans', 'Liberation Sans', 'Bitstream Vera Sans', sans-serif; text-anchor: middle" x="183" y="469.875625" transform="rotate(-0 183 469.875625)">5</text>
     </g>
    </g>
    <g id="xtick_3">
     <g id="line2d_3">
      <path d="M 276 448.56 
L 276 60.48 
" clip-path="url(#p610d5b5394)" style="fill: none; stroke: #cccccc; stroke-width: 0.8; stroke-linecap: round"/>
     </g>
     <g id="text_3">
      <text style="fill: #262626; font: 20px 'Arial', 'DejaVu Sans', 'Liberation Sans', 'Bitstream Vera Sans', sans-serif; text-anchor: middle" x="276" y="469.875625" transform="rotate(-0 276 469.875625)">10</text>
     </g>
    </g>
    <g id="xtick_4">
     <g id="line2d_4">
      <path d="M 369 448.56 
L 369 60.48 
" clip-path="url(#p610d5b5394)" style="fill: none; stroke: #cccccc; stroke-width: 0.8; stroke-linecap: round"/>
     </g>
     <g id="text_4">
      <text style="fill: #262626; font: 20px 'Arial', 'DejaVu Sans', 'Liberation Sans', 'Bitstream Vera Sans', sans-serif; text-anchor: middle" x="369" y="469.875625" transform="rotate(-0 369 469.875625)">15</text>
     </g>
    </g>
    <g id="xtick_5">
     <g id="line2d_5">
      <path d="M 462 448.56 
L 462 60.48 
" clip-path="url(#p610d5b5394)" style="fill: none; stroke: #cccccc; stroke-width: 0.8; stroke-linecap: round"/>
     </g>
     <g id="text_5">
      <text style="fill: #262626; font: 20px 'Arial', 'DejaVu Sans', 'Liberation Sans', 'Bitstream Vera Sans', sans-serif; text-anchor: middle" x="462" y="469.875625" transform="rotate(-0 462 469.875625)">20</text>
     </g>
    </g>
    <g id="xtick_6">
     <g id="line2d_6">
      <path d="M 555 448.56 
L 555 60.48 
" clip-path="url(#p610d5b5394)" style="fill: none; stroke: #cccccc; stroke-width: 0.8; stroke-linecap: round"/>
     </g>
     <g id="text_6">
      <text style="fill: #262626; font: 20px 'Arial', 'DejaVu Sans', 'Liberation Sans', 'Bitstream Vera Sans', sans-serif; text-anchor: middle" x="555" y="469.875625" transform="rotate(-0 555 469.875625)">25</text>
     </g>
    </g>
    <g id="xtick_7">
     <g id="line2d_7">
      <path d="M 648 448.56 
L 648 60.48 
" clip-path="url(#p610d5b5394)" style="fill: none; stroke: #cccccc; stroke-width: 0.8; stroke-linecap: round"/>
     </g>
     <g id="text_7">
      <text style="fill: #262626; font: 20px 'Arial', 'DejaVu Sans', 'Liberation Sans', 'Bitstream Vera Sans', sans-serif; text-anchor: middle" x="648" y="469.875625" transform="rotate(-0 648 469.875625)">30</text>
     </g>
    </g>
    <g id="text_8">
     <!-- $x_{1}$ -->
     <g style="fill: #262626" transform="translate(358.3 492.16625)">
      <text>
       <tspan style="font: oblique 20px 'DejaVu Sans'" x="0" y="-0.0625">x</tspan>
       <tspan style="font: 14px 'DejaVu Sans'" x="11.835938" y="3.21875">1</tspan>
      </text>
     </g>
    </g>
   </g>
   <g id="matplotlib.axis_2">
    <g id="ytick_1">
     <g id="line2d_8">
      <path d="M 90 448.56 
L 648 448.56 
" clip-path="url(#p610d5b5394)" style="fill: none; stroke: #cccccc; stroke-width: 0.8; stroke-linecap: round"/>
     </g>
     <g id="text_9">
      <text style="fill: #262626; font: 20px 'Arial', 'DejaVu Sans', 'Liberation Sans', 'Bitstream Vera Sans', sans-serif; text-anchor: end" x="83" y="455.717813" transform="rotate(-0 83 455.717813)">0.0</text>
     </g>
    </g>
    <g id="ytick_2">
     <g id="line2d_9">
      <path d="M 90 400.05 
L 648 400.05 
" clip-path="url(#p610d5b5394)" style="fill: none; stroke: #cccccc; stroke-width: 0.8; stroke-linecap: round"/>
     </g>
     <g id="text_10">
      <text style="fill: #262626; font: 20px 'Arial', 'DejaVu Sans', 'Liberation Sans', 'Bitstream Vera Sans', sans-serif; text-anchor: end" x="83" y="407.207813" transform="rotate(-0 83 407.207813)">2.5</text>
     </g>
    </g>
    <g id="ytick_3">
     <g id="line2d_10">
      <path d="M 90 351.54 
L 648 351.54 
" clip-path="url(#p610d5b5394)" style="fill: none; stroke: #cccccc; stroke-width: 0.8; stroke-linecap: round"/>
     </g>
     <g id="text_11">
      <text style="fill: #262626; font: 20px 'Arial', 'DejaVu Sans', 'Liberation Sans', 'Bitstream Vera Sans', sans-serif; text-anchor: end" x="83" y="358.697813" transform="rotate(-0 83 358.697813)">5.0</text>
     </g>
    </g>
    <g id="ytick_4">
     <g id="line2d_11">
      <path d="M 90 303.03 
L 648 303.03 
" clip-path="url(#p610d5b5394)" style="fill: none; stroke: #cccccc; stroke-width: 0.8; stroke-linecap: round"/>
     </g>
     <g id="text_12">
      <text style="fill: #262626; font: 20px 'Arial', 'DejaVu Sans', 'Liberation Sans', 'Bitstream Vera Sans', sans-serif; text-anchor: end" x="83" y="310.187813" transform="rotate(-0 83 310.187813)">7.5</text>
     </g>
    </g>
    <g id="ytick_5">
     <g id="line2d_12">
      <path d="M 90 254.52 
L 648 254.52 
" clip-path="url(#p610d5b5394)" style="fill: none; stroke: #cccccc; stroke-width: 0.8; stroke-linecap: round"/>
     </g>
     <g id="text_13">
      <text style="fill: #262626; font: 20px 'Arial', 'DejaVu Sans', 'Liberation Sans', 'Bitstream Vera Sans', sans-serif; text-anchor: end" x="83" y="261.677813" transform="rotate(-0 83 261.677813)">10.0</text>
     </g>
    </g>
    <g id="ytick_6">
     <g id="line2d_13">
      <path d="M 90 206.01 
L 648 206.01 
" clip-path="url(#p610d5b5394)" style="fill: none; stroke: #cccccc; stroke-width: 0.8; stroke-linecap: round"/>
     </g>
     <g id="text_14">
      <text style="fill: #262626; font: 20px 'Arial', 'DejaVu Sans', 'Liberation Sans', 'Bitstream Vera Sans', sans-serif; text-anchor: end" x="83" y="213.167812" transform="rotate(-0 83 213.167812)">12.5</text>
     </g>
    </g>
    <g id="ytick_7">
     <g id="line2d_14">
      <path d="M 90 157.5 
L 648 157.5 
" clip-path="url(#p610d5b5394)" style="fill: none; stroke: #cccccc; stroke-width: 0.8; stroke-linecap: round"/>
     </g>
     <g id="text_15">
      <text style="fill: #262626; font: 20px 'Arial', 'DejaVu Sans', 'Liberation Sans', 'Bitstream Vera Sans', sans-serif; text-anchor: end" x="83" y="164.657812" transform="rotate(-0 83 164.657812)">15.0</text>
     </g>
    </g>
    <g id="ytick_8">
     <g id="line2d_15">
      <path d="M 90 108.99 
L 648 108.99 
" clip-path="url(#p610d5b5394)" style="fill: none; stroke: #cccccc; stroke-width: 0.8; stroke-linecap: round"/>
     </g>
     <g id="text_16">
      <text style="fill: #262626; font: 20px 'Arial', 'DejaVu Sans', 'Liberation Sans', 'Bitstream Vera Sans', sans-serif; text-anchor: end" x="83" y="116.147812" transform="rotate(-0 83 116.147812)">17.5</text>
     </g>
    </g>
    <g id="ytick_9">
     <g id="line2d_16">
      <path d="M 90 60.48 
L 648 60.48 
" clip-path="url(#p610d5b5394)" style="fill: none; stroke: #cccccc; stroke-width: 0.8; stroke-linecap: round"/>
     </g>
     <g id="text_17">
      <text style="fill: #262626; font: 20px 'Arial', 'DejaVu Sans', 'Liberation Sans', 'Bitstream Vera Sans', sans-serif; text-anchor: end" x="83" y="67.637812" transform="rotate(-0 83 67.637812)">20.0</text>
     </g>
    </g>
    <g id="text_18">
     <!-- $x_{2}$ -->
     <g style="fill: #262626" transform="translate(36.103125 265.22) rotate(-90)">
      <text>
       <tspan style="font: oblique 20px 'DejaVu Sans'" x="0" y="-0.0625">x</tspan>
       <tspan style="font: 14px 'DejaVu Sans'" x="11.835938" y="3.21875">2</tspan>
      </text>
     </g>
    </g>
   </g>
   <g id="line2d_17">
    <path d="M 183 254.52 
L 182.080695 254.713652 
L 214.592158 265.706403 
L 233.99749 271.947745 
L 253.558834 278.005652 
L 273.341529 283.901418 
L 293.623471 289.71259 
L 314.113817 295.350198 
L 334.686303 300.779773 
L 355.426799 306.022642 
L 375.946683 310.980044 
L 395.775583 315.544258 
L 414.293287 319.582262 
L 430.149659 322.820249 
L 442.172994 325.061971 
L 450.210459 326.351173 
L 455.125709 326.933185 
L 458.020592 327.071556 
L 459.707029 326.948084 
L 460.6861 326.670591 
L 461.265865 326.287361 
L 461.619953 325.78829 
L 461.838381 325.073018 
L 461.95381 323.829961 
L 461.985541 320.14307 
L 461.999927 299.240688 
L 461.999927 299.240688 
" clip-path="url(#p610d5b5394)" style="fill: none; stroke: #ff0000; stroke-width: 3; stroke-linecap: round"/>
   </g>
   <g id="LineCollection_1">
    <path d="M 198.004394 505 
L 211.497541 503.837884 
L 233.025476 502.064685 
L 254.566677 500.37143 
L 276.121288 498.759277 
L 297.689479 497.230865 
L 319.271538 495.791162 
L 340.868491 494.449006 
L 362.481742 493.220418 
L 384.109641 492.136411 
L 405.752731 491.264275 
L 427.422696 490.792361 
L 427.422696 490.792361 
L 436.20791 490.811002 
L 443.473334 491.033711 
L 448.235299 491.363671 
L 452.349544 491.891169 
L 455.610605 492.645559 
L 458.071912 493.697945 
L 459.740522 495.074974 
L 460.697207 496.554597 
L 461.247679 498.120761 
L 461.565112 499.765162 
L 461.74842 501.483953 
L 461.854376 503.275912 
L 461.911019 505 
" clip-path="url(#p610d5b5394)" style="fill: none; stroke: #1f77b4; stroke-width: 1.5"/>
    <path d="M 380.208202 505 
L 390.622437 504.380144 
L 412.246926 503.427154 
L 432.759384 503.175877 
L 432.759384 503.175877 
L 440.147833 503.373461 
L 445.408584 503.726029 
L 450.001675 504.308486 
L 453.0527 505 
" clip-path="url(#p610d5b5394)" style="fill: none; stroke: #1f77b4; stroke-width: 1.5"/>
    <path clip-path="url(#p610d5b5394)" style="fill: none; stroke: #1f77b4; stroke-width: 1.5"/>
    <path d="M 648 501.502092 
L 643.947325 501.9461 
L 622.573964 504.364736 
L 617.331757 505 
" clip-path="url(#p610d5b5394)" style="fill: none; stroke: #1f77b4; stroke-width: 1.5"/>
    <path clip-path="url(#p610d5b5394)" style="fill: none; stroke: #1f77b4; stroke-width: 1.5"/>
    <path d="M 648 478.000552 
L 648 478.000552 
L 626.396623 479.314798 
L 604.81063 480.716994 
L 583.245949 482.223892 
L 561.709803 483.861042 
L 540.215666 485.67146 
L 518.789514 487.739161 
L 498.791817 490.10096 
L 498.791817 490.10096 
L 489.607053 491.430861 
L 482.444945 492.684841 
" clip-path="url(#p610d5b5394)" style="fill: none; stroke: #1f77b4; stroke-width: 1.5"/>
    <path d="M 648 461.942069 
L 648 461.942069 
L 626.355923 462.546027 
L 604.713885 463.189215 
L 583.074573 463.878729 
L 561.439398 464.625373 
L 539.810997 465.447357 
L 518.194277 466.380493 
L 498.138218 467.426287 
L 498.138218 467.426287 
L 489.04907 467.998658 
L 481.994693 468.528426 
L 476.237639 469.063654 
L 471.694104 469.61602 
L 468.233672 470.207517 
L 465.729769 470.870384 
L 464.156671 471.563975 
L 463.244757 472.251508 
L 462.717663 472.941833 
L 462.413513 473.640475 
L 462.238178 474.350914 
L 462.137169 475.080455 
L 462.078999 475.836931 
L 462.045501 476.622778 
L 462.026211 477.439566 
L 462.015101 478.288755 
L 462.008702 479.171763 
L 462.005015 480.089996 
L 462.002891 481.044883 
L 462.001667 482.037882 
L 462.000961 483.070493 
L 462.000554 484.144266 
L 462.00032 485.260801 
" clip-path="url(#p610d5b5394)" style="fill: none; stroke: #1f77b4; stroke-width: 1.5"/>
    <path d="M 648 445.883586 
L 648 445.883586 
L 626.354574 445.788976 
L 604.710896 445.691404 
L 583.069546 445.590965 
L 561.431704 445.487887 
L 539.799554 445.382669 
L 518.177165 445.276457 
L 498.11923 445.179755 
L 498.11923 445.179755 
L 489.031393 445.137955 
L 481.979768 445.107942 
L 476.225023 445.086736 
L 471.683695 445.074427 
L 468.22543 445.071077 
L 465.72367 445.077078 
L 464.152917 445.090846 
L 463.242465 445.109152 
L 462.716271 445.130339 
L 462.41267 445.153439 
L 462.23767 445.177901 
L 462.136853 445.203409 
L 462.078793 445.229792 
L 462.045361 445.256954 
L 462.026114 445.284851 
L 462.015033 445.313461 
L 462.008654 445.34278 
L 462.004982 445.372814 
L 462.002868 445.403572 
L 462.001651 445.435067 
L 462.00095 445.467315 
L 462.000547 445.500332 
L 462.000315 445.534136 
L 462.000181 445.568745 
L 462.000104 445.604178 
L 462.00006 445.640455 
L 462.000035 445.677595 
L 462.00002 445.715619 
L 462.000011 445.754548 
L 462.000007 445.794404 
L 462.000004 445.835208 
L 462.000002 445.876983 
L 462.000001 445.919753 
L 462.000001 445.963541 
L 462 446.008371 
L 462 446.054268 
L 462 446.101257 
L 462 446.149364 
L 462 446.198617 
L 462 446.249042 
L 462 446.300667 
L 462 446.35352 
L 462 446.407632 
L 462 446.463031 
L 462 446.519749 
L 462 446.577817 
L 462 446.637267 
L 462 446.698131 
L 462 446.760445 
L 462 446.824241 
L 462 446.889556 
L 462 446.956425 
L 462 447.024886 
L 462 447.094976 
" clip-path="url(#p610d5b5394)" style="fill: none; stroke: #1f77b4; stroke-width: 1.5"/>
    <path d="M 648 429.825103 
L 648 429.825103 
L 626.353225 429.031836 
L 604.707905 428.193382 
L 583.064518 427.302821 
L 561.424007 426.349772 
L 539.788107 425.316948 
L 518.160042 424.170649 
L 498.100235 422.930764 
L 498.100235 422.930764 
L 489.02335 422.277196 
L 481.980541 421.694157 
L 476.231755 421.129516 
L 471.693019 420.573444 
L 468.235087 420.006987 
L 465.732095 419.403546 
L 464.158635 418.799675 
L 463.246338 418.22231 
L 462.718882 417.659184 
L 462.414419 417.102915 
L 462.238834 416.549099 
L 462.137624 415.995122 
L 462.079299 415.439433 
L 462.045692 414.88111 
L 462.026329 414.319598 
L 462.015172 413.754562 
L 462.008743 413.185795 
L 462.005039 412.613163 
L 462.002904 412.036576 
L 462.001674 411.455972 
L 462.000965 410.871301 
L 462.000556 410.282524 
L 462.000321 409.689605 
L 462.000185 409.092512 
L 462.000107 408.491216 
L 462.000061 407.885685 
L 462.000035 407.275892 
L 462.00002 406.661807 
L 462.000012 406.043401 
L 462.000007 405.420645 
L 462.000004 404.793511 
L 462.000002 404.161968 
L 462.000001 403.525988 
L 462.000001 402.885542 
L 462 402.240599 
L 462 401.59113 
L 462 400.937104 
L 462 400.278492 
L 462 399.615264 
L 462 398.947388 
L 462 398.274834 
L 462 397.597571 
L 462 396.915569 
L 462 396.228795 
L 462 395.537219 
L 462 394.840809 
L 462 394.139533 
L 462 393.43336 
L 462 392.722256 
L 462 392.006191 
L 462 391.28513 
L 462 390.559043 
L 462 389.827895 
L 462 389.091654 
" clip-path="url(#p610d5b5394)" style="fill: none; stroke: #1f77b4; stroke-width: 1.5"/>
    <path d="M 648 413.766621 
L 648 413.766621 
L 626.423159 412.312138 
L 604.859804 410.783517 
L 583.311749 409.171631 
L 561.781927 407.463212 
L 540.275333 405.636831 
L 518.801238 403.652054 
L 498.722882 401.560493 
L 498.722882 401.560493 
L 489.568382 400.485322 
L 482.427948 399.546156 
" clip-path="url(#p610d5b5394)" style="fill: none; stroke: #1f77b4; stroke-width: 1.5"/>
    <path d="M 648 397.708138 
L 648 397.708138 
L 626.541842 395.624222 
L 605.103424 393.439249 
L 583.687451 391.141956 
L 562.298272 388.71622 
L 540.943281 386.136448 
L 519.636139 383.355275 
L 499.501496 380.429597 
L 499.501496 380.429597 
L 490.239116 378.930747 
L 482.984 377.631815 
" clip-path="url(#p610d5b5394)" style="fill: none; stroke: #1f77b4; stroke-width: 1.5"/>
    <path d="M 648 381.649655 
L 648 381.649655 
L 626.659194 378.943337 
L 605.344159 376.11005 
L 584.058431 373.136589 
L 562.809535 370.006967 
L 541.613256 366.705755 
L 520.488058 363.200744 
L 500.312674 359.566146 
L 500.312674 359.566146 
L 490.964126 357.742248 
L 483.609377 356.19961 
L 477.576933 354.815084 
L 472.773148 353.571786 
L 469.068145 352.438184 
L 466.337703 351.374898 
L 464.538391 350.40042 
L 463.482437 349.555352 
L 462.864776 348.789905 
L 462.504163 348.074038 
L 462.293842 347.389825 
L 462.171242 346.726634 
L 462.099795 346.078173 
L 462.058161 345.440719 
L 462.0339 344.812061 
L 462.019761 344.19088 
L 462.011521 343.576377 
L 462.006717 342.968064 
L 462.003917 342.36563 
L 462.002285 341.768873 
L 462.001333 341.17765 
L 462.000777 340.591859 
L 462.000454 340.011417 
L 462.000265 339.436254 
L 462.000155 338.86631 
L 462.00009 338.301528 
L 462.000053 337.741854 
L 462.000031 337.187237 
L 462.000018 336.637628 
L 462.00001 336.092977 
L 462.000006 335.553237 
L 462.000004 335.018359 
L 462.000002 334.488297 
L 462.000001 333.963004 
L 462.000001 333.442436 
L 462 332.926546 
L 462 332.415291 
L 462 331.908625 
L 462 331.406505 
L 462 330.908888 
L 462 330.415731 
L 462 329.926991 
L 462 329.442627 
L 462 328.962597 
L 462 328.486859 
L 462 328.015374 
L 462 327.548101 
L 462 327.085001 
L 462 326.626033 
L 462 326.17116 
L 462 325.720341 
L 462 325.27354 
L 462 324.830719 
L 462 324.391839 
" clip-path="url(#p610d5b5394)" style="fill: none; stroke: #1f77b4; stroke-width: 1.5"/>
    <path d="M 648 365.591172 
L 648 365.591172 
L 626.810648 362.298181 
L 605.668106 358.873049 
L 584.575471 355.307339 
L 563.537104 351.590042 
L 542.559558 347.705251 
L 521.653563 343.626129 
L 501.385302 339.412095 
L 501.385302 339.412095 
L 491.919549 337.324764 
L 484.432923 335.588367 
" clip-path="url(#p610d5b5394)" style="fill: none; stroke: #1f77b4; stroke-width: 1.5"/>
    <path d="M 648 349.53269 
L 648 349.53269 
L 627.006829 345.700569 
L 606.065405 341.725195 
L 585.178558 337.599788 
L 564.350044 333.316104 
L 543.585218 328.863151 
L 522.892536 324.223921 
L 502.519803 319.420778 
L 502.519803 319.420778 
L 492.952 317.073527 
L 485.336389 315.158045 
" clip-path="url(#p610d5b5394)" style="fill: none; stroke: #1f77b4; stroke-width: 1.5"/>
    <path d="M 648 333.474207 
L 648 333.474207 
L 627.19936 329.112968 
L 606.455108 324.598066 
L 585.76982 319.924281 
L 565.149879 315.097397 
L 544.599429 310.130869 
L 524.113254 305.03577 
L 503.675163 299.837725 
L 503.675163 299.837725 
L 493.972526 297.348014 
L 486.160669 295.352394 
L 479.804995 293.754753 
L 474.645681 292.501268 
L 470.576326 291.575691 
L 467.484241 290.960097 
L 465.270372 290.638911 
L 463.945501 290.567459 
L 463.155632 290.643984 
L 462.685809 290.806381 
L 462.40675 291.017257 
L 462.241145 291.254295 
L 462.142925 291.504262 
L 462.084694 291.759354 
L 462.050179 292.015002 
L 462.029726 292.268553 
L 462.017608 292.518494 
L 462.010428 292.763981 
L 462.006176 293.004568 
L 462.003657 293.240045 
L 462.002165 293.470335 
L 462.001282 293.695443 
L 462.000759 293.915422 
L 462.000449 294.130348 
L 462.000266 294.340314 
L 462.000157 294.545419 
L 462.000093 294.745766 
L 462.000055 294.94146 
L 462.000033 295.132604 
L 462.000019 295.3193 
L 462.000011 295.501651 
L 462.000007 295.679755 
L 462.000004 295.853709 
L 462.000002 296.023609 
L 462.000001 296.189548 
L 462.000001 296.351616 
L 462 296.509904 
L 462 296.664498 
L 462 296.815483 
L 462 296.962943 
L 462 297.106959 
L 462 297.24761 
L 462 297.384975 
L 462 297.519129 
L 462 297.650147 
L 462 297.778102 
L 462 297.903063 
L 462 298.025101 
L 462 298.144283 
L 462 298.260676 
L 462 298.374344 
L 462 298.485351 
L 462 298.593758 
L 462 298.699626 
L 462 298.803013 
" clip-path="url(#p610d5b5394)" style="fill: none; stroke: #1f77b4; stroke-width: 1.5"/>
    <path d="M 648 317.415724 
L 648 317.415724 
L 627.400725 312.551719 
L 606.874081 307.547564 
L 586.418262 302.405911 
L 566.029622 297.13277 
L 545.701138 291.740472 
L 525.41811 286.254792 
L 505.145267 280.737337 
L 505.145267 280.737337 
L 495.019397 278.01384 
L 486.572109 275.810413 
L 480.259374 274.250989 
L 475.057729 273.083843 
L 470.931859 272.314545 
L 467.770568 271.933101 
L 465.468716 271.9371 
L 464.077566 272.224277 
L 463.24238 272.67693 
L 462.742158 273.222915 
L 462.443018 273.818633 
L 462.264309 274.437992 
L 462.157624 275.065498 
L 462.093969 275.692029 
L 462.056004 276.312274 
L 462.033368 276.923193 
" clip-path="url(#p610d5b5394)" style="fill: none; stroke: #1f77b4; stroke-width: 1.5"/>
    <path d="M 648 301.357241 
L 648 301.357241 
L 627.634285 296.047661 
L 607.340758 290.598366 
L 587.115846 285.015251 
L 566.953304 279.309187 
L 546.842032 273.50033 
L 526.760032 267.628345 
L 506.642185 261.814164 
L 506.642185 261.814164 
L 496.081703 258.883841 
L 486.934336 256.524084 
L 480.715364 255.096675 
L 475.499131 254.120855 
L 471.330403 253.624465 
L 468.101299 253.607154 
L 465.718595 254.081651 
L 464.246768 254.869978 
L 463.355082 255.828242 
L 462.816181 256.872554 
L 462.491064 257.952284 
L 462.295187 259.037293 
L 462.177302 260.109927 
L 462.10642 261.160081 
" clip-path="url(#p610d5b5394)" style="fill: none; stroke: #1f77b4; stroke-width: 1.5"/>
    <path d="M 648 285.298759 
L 648 285.298759 
L 627.862594 279.553624 
L 607.796946 273.66921 
L 587.797899 267.654311 
L 567.85623 261.538623 
L 547.951475 255.370595 
L 528.040919 249.219321 
L 508.029565 243.236441 
L 508.029565 243.236441 
L 497.053445 240.168532 
L 497.053445 240.168532 
L 488.70157 238.059122 
L 482.241748 236.672467 
L 476.83025 235.814761 
L 472.438629 235.502752 
L 468.97912 235.749576 
L 466.369717 236.583317 
L 464.664959 237.837664 
L 463.622166 239.297047 
L 462.985879 240.858294 
L 462.598381 242.458618 
L 462.362765 244.06033 
" clip-path="url(#p610d5b5394)" style="fill: none; stroke: #1f77b4; stroke-width: 1.5"/>
    <path d="M 648 269.240276 
L 648 269.240276 
L 628.088605 263.077034 
L 608.253177 256.796139 
L 588.482705 250.41753 
L 568.758442 243.968307 
L 549.051705 237.494817 
L 529.309504 231.082578 
L 509.414044 224.9173 
L 509.414044 224.9173 
L 497.973418 221.677952 
L 497.973418 221.677952 
L 489.631567 219.610001 
L 483.142974 218.310159 
L 477.656047 217.59003 
L 473.15758 217.475669 
L 469.571112 217.991923 
L 466.825537 219.181616 
L 464.96873 220.89296 
L 463.822896 222.836954 
L 463.117449 224.895281 
L 462.683981 226.9954 
L 462.418086 229.093404 
" clip-path="url(#p610d5b5394)" style="fill: none; stroke: #1f77b4; stroke-width: 1.5"/>
    <path d="M 648 253.181793 
L 648 253.181793 
L 628.328068 246.655803 
L 608.727257 240.022399 
L 589.182372 233.302011 
L 569.670954 226.526899 
L 550.159721 219.751904 
L 530.583205 213.085899 
L 510.786797 206.776837 
L 510.786797 206.776837 
L 498.904261 203.434121 
L 498.904261 203.434121 
L 490.613762 201.489672 
L 484.136893 200.358914 
L 478.597092 199.860532 
L 473.996868 200.028308 
L 470.273887 200.897933 
L 467.372856 202.524154 
L 465.339669 204.77585 
L 464.071216 207.260744 
L 463.281674 209.844268 
L 462.791374 212.443772 
" clip-path="url(#p610d5b5394)" style="fill: none; stroke: #1f77b4; stroke-width: 1.5"/>
    <path d="M 648 221.064828 
L 648 221.064828 
L 628.792975 213.847623 
L 609.644752 206.551474 
L 590.530298 199.215158 
L 571.412033 191.886495 
L 552.240485 184.647635 
L 532.926653 177.646001 
L 513.269811 171.190872 
L 513.269811 171.190872 
L 500.479602 167.698826 
L 500.479602 167.698826 
L 492.293923 166.007196 
L 485.893156 165.189246 
L 480.290058 165.077926 
L 475.535911 165.732324 
L 471.594368 167.217045 
L 468.435727 169.619959 
L 466.081299 172.92774 
L 464.583699 176.51866 
L 463.632061 180.230708 
L 463.028442 183.96267 
L 462.646438 187.651859 
L 462.405291 191.260085 
L 462.253459 194.76474 
" clip-path="url(#p610d5b5394)" style="fill: none; stroke: #1f77b4; stroke-width: 1.5"/>
    <path d="M 648 188.947862 
L 648 188.947862 
L 629.244231 181.157482 
L 610.527464 173.316622 
L 591.817202 165.462455 
L 573.060508 157.663704 
L 554.19185 150.041321 
L 535.102641 142.794003 
L 515.543116 136.3265 
L 515.543116 136.3265 
L 501.984329 132.894717 
L 501.984329 132.894717 
L 493.932378 131.577911 
L 487.687318 131.168811 
L 482.072802 131.527289 
L 477.197082 132.735633 
L 473.049719 134.887272 
L 469.630337 138.099496 
L 466.940575 142.499171 
L 465.194221 147.186992 
L 464.059738 151.979252 
L 463.323827 156.759685 
L 462.847748 161.454842 
" clip-path="url(#p610d5b5394)" style="fill: none; stroke: #1f77b4; stroke-width: 1.5"/>
    <path d="M 648 172.889379 
L 648 172.889379 
L 629.462668 164.826117 
L 610.95157 156.732001 
L 592.42412 148.66109 
L 573.820384 140.681722 
L 555.077086 132.916355 
L 536.082984 125.582589 
L 516.567768 119.123874 
L 516.567768 119.123874 
L 502.644507 115.730588 
L 502.644507 115.730588 
L 494.660501 114.583136 
L 488.498109 114.348826 
L 482.889409 114.908052 
L 477.970878 116.354942 
" clip-path="url(#p610d5b5394)" style="fill: none; stroke: #1f77b4; stroke-width: 1.5"/>
    <path d="M 648 140.772414 
L 648 140.772414 
L 629.871989 132.252069 
L 611.741561 123.736019 
L 593.560252 115.274344 
L 575.249556 106.951495 
L 556.735808 98.93352 
L 537.903743 91.502324 
L 518.456328 85.210541 
L 518.456328 85.210541 
L 504.60597 82.216053 
L 504.60597 82.216053 
L 496.473094 81.436237 
L 490.015054 81.640005 
L 484.500103 82.685571 
L 479.506544 84.700955 
L 475.123605 87.81398 
L 471.380389 92.192036 
L 468.30488 98.040605 
" clip-path="url(#p610d5b5394)" style="fill: none; stroke: #1f77b4; stroke-width: 1.5"/>
    <path d="M 648 108.655448 
L 648 108.655448 
L 630.254415 99.727435 
L 612.469484 90.847446 
L 594.583747 82.075524 
L 576.504355 73.502609 
L 558.165966 65.316307 
L 546.890237 60.48 
" clip-path="url(#p610d5b5394)" style="fill: none; stroke: #1f77b4; stroke-width: 1.5"/>
    <path d="M 586.961776 88.684464 
L 568.729379 80.309386 
L 550.218288 72.403741 
L 533.06206 65.964449 
L 513.310345 60.48 
L 513.310345 60.48 
" clip-path="url(#p610d5b5394)" style="fill: none; stroke: #1f77b4; stroke-width: 1.5"/>
    <path d="M 490.862069 60.48 
L 490.862069 60.48 
L 490.862069 60.48 
L 484.337112 62.239638 
L 479.552126 64.73859 
L 475.189015 68.509783 
L 471.455296 73.663165 
L 468.385919 80.406828 
" clip-path="url(#p610d5b5394)" style="fill: none; stroke: #1f77b4; stroke-width: 1.5"/>
    <path d="M 423.517241 60.48 
L 423.517241 60.48 
L 433.370141 73.900046 
L 441.560617 86.385333 
L 447.219576 96.300871 
L 451.6396 105.508469 
L 455.00857 114.258406 
" clip-path="url(#p610d5b5394)" style="fill: none; stroke: #1f77b4; stroke-width: 1.5"/>
    <path d="M 378.62069 60.48 
L 378.62069 60.48 
L 391.481451 72.911029 
L 404.2324 85.363203 
L 416.767543 97.91672 
L 428.90842 110.712023 
L 428.90842 110.712023 
L 437.485743 120.519415 
L 444.422709 129.422664 
L 449.261733 136.587133 
L 453.140684 143.470538 
L 456.12405 150.171676 
" clip-path="url(#p610d5b5394)" style="fill: none; stroke: #1f77b4; stroke-width: 1.5"/>
    <path d="M 333.724138 60.48 
L 333.724138 60.48 
L 347.618186 72.389819 
L 361.623086 84.221148 
L 375.704607 95.984964 
L 389.818502 107.705795 
L 403.881342 119.436575 
L 417.737598 131.269783 
L 431.081704 143.325735 
L 431.081704 143.325735 
" clip-path="url(#p610d5b5394)" style="fill: none; stroke: #1f77b4; stroke-width: 1.5"/>
    <path d="M 288.827586 60.48 
L 288.827586 60.48 
L 303.221 72.087218 
L 317.788072 83.569427 
L 332.527812 94.93355 
L 347.438032 106.189943 
L 362.495174 117.350493 
L 377.635264 128.426656 
L 392.791632 139.448497 
L 407.896901 150.483019 
L 422.826255 161.658104 
L 436.028107 172.245349 
L 436.028107 172.245349 
L 442.671791 178.077422 
L 447.696154 182.986711 
L 451.836813 187.654606 
L 455.115737 192.143842 
" clip-path="url(#p610d5b5394)" style="fill: none; stroke: #1f77b4; stroke-width: 1.5"/>
    <path d="M 266.37931 60.48 
L 266.37931 60.48 
L 280.938338 71.982583 
L 295.687991 83.349346 
L 310.628538 94.582293 
L 325.761239 105.686218 
L 341.075397 116.668019 
" clip-path="url(#p610d5b5394)" style="fill: none; stroke: #1f77b4; stroke-width: 1.5"/>
    <path d="M 243.931034 60.48 
L 243.931034 60.48 
L 258.621113 71.896764 
L 273.512139 83.16956 
L 288.607643 94.299477 
L 303.909979 105.287576 
L 319.412168 116.13554 
L 335.088565 126.847068 
L 350.917181 137.431402 
L 366.882176 147.902013 
L 382.954497 158.278422 
L 399.073669 168.603149 
L 415.10896 178.964505 
L 430.821269 189.546302 
L 430.821269 189.546302 
" clip-path="url(#p610d5b5394)" style="fill: none; stroke: #1f77b4; stroke-width: 1.5"/>
    <path d="M 221.482759 60.48 
L 221.482759 60.48 
L 236.280505 71.826278 
L 251.285332 83.022157 
L 266.501812 94.06758 
L 281.935046 104.963076 
L 297.581445 115.708133 
L 313.418527 126.301607 
L 329.428896 136.746898 
" clip-path="url(#p610d5b5394)" style="fill: none; stroke: #1f77b4; stroke-width: 1.5"/>
    <path d="M 199.034483 60.48 
L 199.034483 60.48 
L 213.921732 71.766967 
L 229.02073 82.899236 
L 244.33593 93.875519 
L 259.872861 104.695236 
L 275.630847 115.35723 
L 291.59152 125.858863 
L 307.739241 136.199615 
" clip-path="url(#p610d5b5394)" style="fill: none; stroke: #1f77b4; stroke-width: 1.5"/>
    <path d="M 176.586207 60.48 
L 176.586207 60.48 
L 191.548455 71.715959 
L 206.72571 82.794092 
L 222.122854 93.712729 
L 237.745084 104.470229 
L 253.592597 115.064413 
L 269.649407 125.491565 
L 285.902929 135.750138 
" clip-path="url(#p610d5b5394)" style="fill: none; stroke: #1f77b4; stroke-width: 1.5"/>
    <path d="M 154.137931 60.48 
L 154.137931 60.48 
L 169.164603 71.672151 
L 184.408149 82.703844 
L 199.873715 93.573221 
L 215.566912 104.278473 
L 231.488416 114.816721 
L 247.623158 125.183083 
L 263.959482 135.37478 
" clip-path="url(#p610d5b5394)" style="fill: none; stroke: #1f77b4; stroke-width: 1.5"/>
    <path d="M 131.689655 60.48 
L 131.689655 60.48 
L 146.772132 71.634023 
L 162.072856 82.625677 
L 177.59679 93.45277 
L 193.349486 104.113233 
L 209.332495 114.604152 
L 225.531788 124.920097 
L 241.935883 135.057203 
" clip-path="url(#p610d5b5394)" style="fill: none; stroke: #1f77b4; stroke-width: 1.5"/>
    <path d="M 109.241379 60.48 
L 109.241379 60.48 
L 124.372394 71.600347 
L 139.722698 82.556964 
L 155.297128 93.347468 
L 171.100906 103.969472 
L 187.135854 114.419866 
L 203.388912 124.692993 
L 219.849224 134.784584 
" clip-path="url(#p610d5b5394)" style="fill: none; stroke: #1f77b4; stroke-width: 1.5"/>
    <path d="M 86.793103 60.48 
L 86.793103 60.48 
L 101.966945 71.570556 
L 117.360546 82.496184 
L 132.978782 93.254512 
L 148.826814 103.843097 
L 164.906507 114.25862 
L 181.205238 124.49509 
L 197.712519 134.547933 
" clip-path="url(#p610d5b5394)" style="fill: none; stroke: #1f77b4; stroke-width: 1.5"/>
    <path d="M 64.344828 60.48 
L 64.344828 60.48 
L 79.556751 71.544025 
L 94.988707 82.44221 
L 110.645415 93.172101 
L 126.531942 103.731236 
L 142.650428 114.116347 
L 158.988603 124.321199 
L 175.535999 134.340853 
" clip-path="url(#p610d5b5394)" style="fill: none; stroke: #1f77b4; stroke-width: 1.5"/>
    <path d="M 41.896552 60.48 
L 41.896552 60.48 
L 57.142411 71.520142 
L 72.608507 82.393808 
L 88.299373 93.098462 
L 104.219841 103.631559 
L 120.372142 113.989831 
L 136.744488 124.166999 
L 153.326567 134.157941 
" clip-path="url(#p610d5b5394)" style="fill: none; stroke: #1f77b4; stroke-width: 1.5"/>
    <path d="M 19.448276 60.48 
L 19.448276 60.48 
L 34.72465 71.498591 
L 50.221231 82.35015 
L 65.942508 93.03218 
L 81.893155 103.542115 
" clip-path="url(#p610d5b5394)" style="fill: none; stroke: #1f77b4; stroke-width: 1.5"/>
    <path d="M -1 61.917412 
L 12.304005 71.479079 
L 27.828081 82.31068 
L 43.576597 92.972304 
L 59.554134 103.461425 
" clip-path="url(#p610d5b5394)" style="fill: none; stroke: #1f77b4; stroke-width: 1.5"/>
    <path d="M -1 77.909952 
L 12.653402 87.272563 
L 28.532977 97.835151 
L 44.64326 108.223715 
L 60.979296 118.433141 
L 77.529493 128.45716 
L 94.290711 138.292412 
L 111.26592 147.937251 
L 128.458346 157.390043 
L 145.8656 166.648091 
L 163.471237 175.706786 
L 181.263075 184.563244 
L 199.242484 193.217272 
L 217.411089 201.668651 
L 235.770834 209.917061 
L 254.317137 217.96183 
L 273.027846 225.802432 
L 291.885463 233.439765 
L 310.88923 240.875803 
L 330.038911 248.112649 
L 349.335231 255.152519 
L 368.779594 261.997356 
L 388.368472 268.650959 
L 408.062955 275.131276 
L 427.808699 281.475057 
L 427.808699 281.475057 
L 436.283126 284.170581 
L 443.320153 286.417546 
L 448.047826 287.945693 
L 452.123112 289.2963 
L 455.377368 290.425323 
" clip-path="url(#p610d5b5394)" style="fill: none; stroke: #1f77b4; stroke-width: 1.5"/>
    <path d="M -1 93.902511 
L 13.019027 103.053753 
L 29.26869 113.334488 
L 45.738118 123.432626 
L 62.416959 133.342554 
" clip-path="url(#p610d5b5394)" style="fill: none; stroke: #1f77b4; stroke-width: 1.5"/>
    <path d="M -1 125.889785 
L 13.750085 134.561762 
L 30.711703 144.219239 
L 47.887476 153.684803 
L 65.280157 162.956898 
L 82.876279 172.030737 
L 100.659775 180.901897 
L 118.629611 189.569716 
L 136.786818 198.033976 
L 155.132556 206.294434 
L 173.668227 214.350795 
L 192.377384 222.201294 
L 211.239456 229.844752 
L 230.250317 237.28216 
L 249.409657 244.514767 
L 268.717579 251.54364 
L 288.174721 258.369488 
L 307.782498 264.992406 
L 327.52667 271.414034 
L 347.382473 277.638164 
L 367.338492 283.667444 
L 387.392762 289.501815 
L 407.544053 295.137466 
L 427.793246 300.558609 
L 427.793246 300.558609 
L 436.30126 302.757461 
L 443.341136 304.530405 
L 448.073481 305.690381 
L 452.155599 306.658775 
L 455.413248 307.394277 
" clip-path="url(#p610d5b5394)" style="fill: none; stroke: #1f77b4; stroke-width: 1.5"/>
    <path d="M -1 157.878956 
L 14.49907 166.000929 
L 32.195196 174.971324 
L 50.076216 183.738622 
L 68.142813 192.302679 
L 86.395703 200.663378 
L 104.835696 208.820619 
L 123.46085 216.773931 
L 142.252261 224.521183 
L 161.192511 232.061356 
L 180.280941 239.395874 
L 199.517059 246.526098 
L 218.900573 253.453242 
L 238.431492 260.178276 
L 258.110328 266.701808 
L 277.917616 273.02555 
L 297.830956 279.152101 
L 317.846594 285.083314 
L 337.963839 290.81996 
L 358.182777 296.361094 
L 378.504516 301.702319 
" clip-path="url(#p610d5b5394)" style="fill: none; stroke: #1f77b4; stroke-width: 1.5"/>
    <path d="M -1 189.871454 
L 15.209144 197.356775 
L 33.603266 205.563038 
L 52.182872 213.566748 
L 70.93459 221.366026 
L 89.839762 228.95901 
L 108.892468 236.346468 
L 128.091876 243.52999 
L 147.437227 250.511129 
L 166.927881 257.291354 
L 186.563398 263.871997 
L 206.334325 270.254225 
L 226.22017 276.439747 
L 246.208428 282.430945 
L 266.297846 288.230079 
L 286.487438 293.838885 
L 306.776581 299.258274 
L 327.165307 304.487847 
L 347.654787 309.524965 
L 368.248123 314.362812 
L 388.952522 318.985905 
L 409.756883 323.374273 
L 430.664206 327.458614 
L 430.664206 327.458614 
L 438.296943 328.836566 
L 443.880043 329.77635 
L 448.667651 330.506244 
L 452.642395 331.01757 
L 455.808788 331.301494 
" clip-path="url(#p610d5b5394)" style="fill: none; stroke: #1f77b4; stroke-width: 1.5"/>
    <path d="M -1 221.865575 
L 15.920253 228.639996 
L 34.986986 236.010597 
L 54.199141 243.178411 
L 73.555674 250.145234 
L 93.055581 256.912854 
L 112.697932 263.483019 
L 132.474504 269.857066 
L 152.365822 276.036291 
L 172.358821 282.022972 
L 192.451958 287.820002 
L 212.643802 293.430063 
L 232.933072 298.855532 
L 253.31871 304.098349 
L 273.799995 309.15982 
L 294.376692 314.040296 
L 315.049325 318.738635 
L 335.80201 323.256592 
L 356.617838 327.594867 
L 377.496544 331.745955 
L 398.442543 335.690292 
" clip-path="url(#p610d5b5394)" style="fill: none; stroke: #1f77b4; stroke-width: 1.5"/>
    <path d="M -1 253.862449 
L 16.575751 259.843967 
L 36.291283 266.311659 
L 56.130636 272.585741 
L 76.074955 278.667502 
L 96.119341 284.559931 
L 116.262088 290.266253 
L 136.501545 295.789592 
L 156.836135 301.13293 
L 177.26438 306.299058 
L 197.784942 311.290506 
L 218.396672 316.109449 
L 239.092855 320.758327 
L 259.856717 325.240946 
L 280.676618 329.560669 
L 301.551765 333.71889 
L 322.481709 337.715603 
L 343.46661 341.548501 
L 364.507527 345.211079 
L 385.606899 348.688256 
L 406.771697 351.944396 
L 428.024512 354.876523 
L 428.024512 354.876523 
L 436.542191 355.908159 
L 443.449461 356.626998 
L 448.215659 357.019191 
L 452.307384 357.226033 
L 455.56192 357.218627 
" clip-path="url(#p610d5b5394)" style="fill: none; stroke: #1f77b4; stroke-width: 1.5"/>
    <path d="M -1 285.8619 
L 17.159761 290.975153 
L 37.414878 296.471203 
L 57.763578 301.790275 
L 78.204125 306.935659 
L 98.734841 311.910538 
L 119.35412 316.717963 
L 140.053129 321.361124 
L 160.815696 325.843781 
L 181.632489 330.169774 
L 202.502197 334.342503 
L 223.423593 338.365041 
L 244.39555 342.240031 
L 265.417089 345.969541 
L 286.487433 349.554821 
L 307.606041 352.995896 
" clip-path="url(#p610d5b5394)" style="fill: none; stroke: #1f77b4; stroke-width: 1.5"/>
    <path d="M -1 301.862297 
L 17.43332 306.517226 
L 37.956221 311.507833 
L 58.566967 316.332361 
L 79.257944 320.994046 
L 100.013245 325.496427 
L 120.822488 329.843365 
L 141.684268 334.038644 
" clip-path="url(#p610d5b5394)" style="fill: none; stroke: #1f77b4; stroke-width: 1.5"/>
    <path d="M -1 317.862899 
L 17.705228 322.045158 
L 38.470728 326.517239 
L 59.289568 330.835872 
L 80.160305 335.005016 
" clip-path="url(#p610d5b5394)" style="fill: none; stroke: #1f77b4; stroke-width: 1.5"/>
    <path d="M -1 349.86742 
L 18.092708 353.062873 
L 39.228986 356.467224 
L 60.407576 359.749153 
L 81.627262 362.911924 
L 102.886868 365.958642 
L 124.18527 368.892231 
L 145.518656 371.715793 
L 166.877117 374.433309 
L 188.253393 377.04847 
L 209.647024 379.563894 
L 231.057592 381.981873 
L 252.484743 384.304293 
L 273.928228 386.532502 
L 295.387904 388.667078 
L 316.863776 390.707445 
L 338.356175 392.651163 
L 359.865972 394.492481 
L 381.394196 396.218978 
L 402.943867 397.802681 
L 424.525246 399.167278 
L 424.525246 399.167278 
L 434.450919 399.674586 
L 434.450919 399.674586 
L 441.527367 399.946133 
L 446.635149 400.060387 
L 451.036561 400.055185 
L 454.585354 399.912645 
" clip-path="url(#p610d5b5394)" style="fill: none; stroke: #1f77b4; stroke-width: 1.5"/>
    <path d="M -1 365.869758 
L 18.288959 368.556566 
L 39.613656 371.413539 
L 60.964164 374.165888 
L 82.332181 376.817376 
L 103.717148 379.371139 
L 125.118528 381.830158 
L 146.535816 384.197247 
" clip-path="url(#p610d5b5394)" style="fill: none; stroke: #1f77b4; stroke-width: 1.5"/>
    <path d="M -1 397.877716 
L 18.508903 399.53186 
L 40.029447 401.287729 
L 61.561227 402.977943 
L 83.103852 404.604593 
L 104.656946 406.169662 
L 126.220147 407.675015 
L 147.793111 409.122392 
L 169.375504 410.513391 
L 190.967014 411.84945 
L 212.567345 413.13181 
L 234.176219 414.361477 
L 255.793377 415.539142 
L 277.418603 416.665072 
L 299.051703 417.738913 
L 320.692527 418.759361 
L 342.341043 419.723531 
L 363.997307 420.625653 
L 385.661297 421.454017 
L 407.333655 422.182269 
L 429.017405 422.735825 
L 429.017405 422.735825 
L 437.295989 422.867472 
L 443.723445 422.905079 
L 448.543766 422.866327 
L 452.605895 422.745746 
L 455.819643 422.530483 
L 458.229337 422.201471 
" clip-path="url(#p610d5b5394)" style="fill: none; stroke: #1f77b4; stroke-width: 1.5"/>
    <path d="M -1 413.881931 
L 18.607823 415.01242 
L 40.223612 416.211059 
L 61.847073 417.364055 
L 83.477922 418.472842 
" clip-path="url(#p610d5b5394)" style="fill: none; stroke: #1f77b4; stroke-width: 1.5"/>
    <path d="M -1 429.887022 
L 18.660388 430.495691 
L 40.320969 431.141373 
L 61.981764 431.763023 
L 83.642794 432.361479 
L 105.304086 432.937536 
L 126.965671 433.491952 
L 148.627586 434.025441 
L 170.289875 434.538676 
L 191.952593 435.032281 
L 213.61581 435.506825 
L 235.279609 435.962818 
L 256.944096 436.400688 
L 278.609424 436.820764 
L 300.27578 437.22323 
L 321.943419 437.608054 
L 343.612759 437.974854 
L 365.284336 438.322603 
L 386.958658 438.648942 
L 408.637164 438.948187 
L 430.324723 439.203006 
L 430.324723 439.203006 
L 438.204344 439.27716 
L 444.011152 439.318816 
L 448.842094 439.338328 
L 452.84306 439.334569 
L 456.004545 439.304371 
" clip-path="url(#p610d5b5394)" style="fill: none; stroke: #1f77b4; stroke-width: 1.5"/>
    <path d="M -1 445.893072 
L 18.660807 445.986317 
L 40.321813 446.085594 
L 61.983037 446.181576 
L 83.644504 446.274422 
L 105.30624 446.364293 
L 126.968279 446.451351 
L 148.630659 446.535764 
L 170.293427 446.617708 
L 191.95664 446.697371 
L 213.620372 446.774959 
L 235.284708 446.850703 
L 256.94976 446.924877 
L 278.615689 446.997811 
L 300.282688 447.069931 
L 321.951019 447.141818 
" clip-path="url(#p610d5b5394)" style="fill: none; stroke: #1f77b4; stroke-width: 1.5"/>
    <path d="M -1 461.899122 
L 18.661227 461.476922 
L 40.322657 461.029774 
L 61.984311 460.600068 
L 83.646214 460.187287 
L 105.308395 459.790954 
L 126.970887 459.410639 
L 148.633733 459.045962 
L 170.29698 458.696602 
L 191.960687 458.36231 
L 213.624934 458.042929 
L 235.289808 457.738414 
L 256.955425 457.448879 
L 278.621954 457.174662 
L 300.289595 456.916428 
L 321.958619 456.675369 
L 343.62948 456.453562 
L 365.302732 456.254727 
L 386.978807 456.086034 
L 408.659093 455.963341 
L 430.348554 455.933071 
L 430.348554 455.933071 
L 438.221016 455.964484 
L 444.016648 456.019529 
L 448.847434 456.103734 
L 452.847167 456.224657 
L 456.007676 456.390824 
" clip-path="url(#p610d5b5394)" style="fill: none; stroke: #1f77b4; stroke-width: 1.5"/>
    <path d="M -1 477.905519 
L 18.644359 476.972089 
L 40.294739 475.98149 
L 61.950873 475.027503 
L 83.611557 474.109239 
L 105.274182 473.226359 
L 126.937128 472.378341 
L 148.600438 471.564255 
L 170.264163 470.783285 
L 191.928365 470.034745 
" clip-path="url(#p610d5b5394)" style="fill: none; stroke: #1f77b4; stroke-width: 1.5"/>
    <path d="M -1 493.913377 
L 18.555645 492.489159 
L 40.120926 490.977292 
L 61.695497 489.521627 
L 83.279017 488.120456 
L 104.871153 486.772174 
" clip-path="url(#p610d5b5394)" style="fill: none; stroke: #1f77b4; stroke-width: 1.5"/>
    <path clip-path="url(#p610d5b5394)" style="fill: none; stroke: #1f77b4; stroke-width: 1.5"/>
    <path d="M 648 88.239681 
L 643.087161 85.670787 
L 625.551724 76.538483 
L 607.941622 67.485521 
L 594.189959 60.48 
" clip-path="url(#p610d5b5394)" style="fill: none; stroke: #1f77b4; stroke-width: 1.5"/>
    <path d="M 314.319607 60.48 
L 319.525461 64.819181 
L 333.724138 76.538483 
L 348.067316 88.159631 
L 362.541795 99.696112 
" clip-path="url(#p610d5b5394)" style="fill: none; stroke: #1f77b4; stroke-width: 1.5"/>
    <path d="M 131.689655 494.059034 
L 153.254202 492.535755 
L 174.82857 491.072749 
L 196.412482 489.668889 
L 218.005696 488.32334 
" clip-path="url(#p610d5b5394)" style="fill: none; stroke: #1f77b4; stroke-width: 1.5"/>
    <path d="M 621.584324 486.152053 
L 600.068923 487.886039 
L 578.583396 489.754461 
L 557.13949 491.792148 
L 535.758621 494.059034 
" clip-path="url(#p610d5b5394)" style="fill: none; stroke: #1f77b4; stroke-width: 1.5"/>
    <path d="M 221.482759 478.000552 
L 243.133965 477.034638 
L 264.79094 476.111298 
L 286.453429 475.230943 
L 308.120991 474.394882 
L 329.791901 473.607302 
L 351.46502 472.874951 
L 373.140757 472.20797 
L 394.819651 471.627056 
L 416.503964 471.182156 
L 416.503964 471.182156 
L 431.64767 471.019103 
L 431.64767 471.019103 
L 439.235414 471.02506 
L 444.670842 471.099288 
L 449.417979 471.253452 
L 453.3029 471.49957 
L 456.356099 471.858876 
" clip-path="url(#p610d5b5394)" style="fill: none; stroke: #1f77b4; stroke-width: 1.5"/>
    <path d="M -1 265.383354 
L 4.468236 267.134758 
L 24.325975 273.37991 
L 44.285637 279.433475 
L 64.344828 285.298759 
" clip-path="url(#p610d5b5394)" style="fill: none; stroke: #1f77b4; stroke-width: 1.5"/>
    <path d="M 558.206897 205.006345 
L 538.812452 198.08471 
L 519.214609 191.496054 
L 500.134867 186.02639 
L 500.134867 186.02639 
L 491.845414 184.17811 
L 485.347474 183.174499 
L 479.721114 182.840313 
" clip-path="url(#p610d5b5394)" style="fill: none; stroke: #1f77b4; stroke-width: 1.5"/>
    <path d="M 109.241379 124.713931 
L 125.876703 134.659488 
L 142.725307 144.416131 
L 159.790516 153.982193 
L 177.076044 163.356004 
L 194.566179 172.533175 
L 212.242896 181.51001 
L 230.106106 190.286215 
" clip-path="url(#p610d5b5394)" style="fill: none; stroke: #1f77b4; stroke-width: 1.5"/>
    <path d="M 67.183394 342.107825 
L 88.18912 345.887579 
L 109.241379 349.53269 
L 130.338919 353.046477 
L 151.480503 356.432153 
L 172.664974 359.692641 
L 193.891243 362.830577 
L 215.158315 365.848231 
L 236.465284 368.747407 
L 257.809163 371.529892 
" clip-path="url(#p610d5b5394)" style="fill: none; stroke: #1f77b4; stroke-width: 1.5"/>
    <path d="M 109.241379 397.708138 
L 130.753411 399.51517 
L 152.277184 401.253258 
L 173.812318 402.924317 
L 195.358459 404.530078 
" clip-path="url(#p610d5b5394)" style="fill: none; stroke: #1f77b4; stroke-width: 1.5"/>
    <path d="M 552.163235 170.395987 
L 532.943567 163.279636 
L 513.310345 156.830897 
L 513.310345 156.830897 
L 500.809076 153.543913 
L 500.809076 153.543913 
L 492.722634 152.034199 
L 486.415291 151.41548 
L 480.836371 151.532357 
" clip-path="url(#p610d5b5394)" style="fill: none; stroke: #1f77b4; stroke-width: 1.5"/>
    <path d="M 333.724138 156.830897 
L 350.495802 166.664275 
L 367.407292 176.362093 
L 384.404358 185.944531 
L 401.444517 195.455681 
L 418.454204 204.988208 
L 434.139777 214.103264 
L 434.139777 214.103264 
L 441.047261 218.351195 
L 446.225163 221.775932 
L 450.60331 224.988126 
L 454.145768 228.002979 
L 456.902935 230.902615 
" clip-path="url(#p610d5b5394)" style="fill: none; stroke: #1f77b4; stroke-width: 1.5"/>
    <path d="M 288.827586 156.830897 
L 305.867064 166.429295 
L 323.088203 175.852682 
L 340.468507 185.106328 
L 358.003495 194.200788 
L 375.678942 203.149018 
L 393.47539 211.975687 
L 411.331123 220.740009 
L 429.080787 229.585901 
L 429.080787 229.585901 
" clip-path="url(#p610d5b5394)" style="fill: none; stroke: #1f77b4; stroke-width: 1.5"/>
    <path d="M 243.931034 156.830897 
L 261.124135 166.289656 
L 278.512094 175.55912 
L 296.077606 184.638796 
L 313.82046 193.531032 
L 331.741226 202.239598 
L 349.841403 210.770231 
L 368.104054 219.132011 
L 386.478683 227.343662 
L 404.913009 235.442566 
" clip-path="url(#p610d5b5394)" style="fill: none; stroke: #1f77b4; stroke-width: 1.5"/>
    <path d="M 199.034483 156.830897 
L 216.327416 166.197309 
L 233.818894 175.368107 
L 251.494038 184.341074 
L 269.354363 193.116811 
L 287.401804 201.696109 
L 305.63851 210.079771 
L 324.057888 218.269354 
L 342.631483 226.269473 
L 361.334587 234.088051 
L 380.156562 241.735777 
L 399.082677 249.23203 
L 418.090017 256.618658 
L 418.090017 256.618658 
L 432.607759 262.238287 
L 432.607759 262.238287 
L 439.795097 265.0529 
L 445.090835 267.173572 
L 449.661644 269.081944 
L 453.404774 270.761983 
L 456.36086 272.252996 
" clip-path="url(#p610d5b5394)" style="fill: none; stroke: #1f77b4; stroke-width: 1.5"/>
    <path d="M 401.068966 413.766621 
L 422.714307 414.64613 
L 422.714307 414.64613 
L 433.500667 414.981627 
L 433.500667 414.981627 
L 440.758944 415.132714 
L 445.985405 415.175459 
L 450.508012 415.128749 
L 454.172062 414.979352 
L 457.012819 414.710026 
" clip-path="url(#p610d5b5394)" style="fill: none; stroke: #1f77b4; stroke-width: 1.5"/>
    <path d="M 473.207508 367.071104 
L 468.413793 365.591172 
L 465.750584 364.411175 
L 464.186536 363.391756 
L 463.272526 362.471817 
L 462.739898 361.613983 
L 462.430005 360.795775 
L 462.249856 360.003807 
L 462.145173 359.230137 
L 462.084354 358.470062 
L 462.049019 357.720788 
" clip-path="url(#p610d5b5394)" style="fill: none; stroke: #1f77b4; stroke-width: 1.5"/>
    <path d="M 312.295936 379.306595 
L 333.724138 381.649655 
L 355.173091 383.876264 
L 376.644093 385.975251 
L 398.140323 387.921688 
L 419.671895 389.651317 
L 419.671895 389.651317 
" clip-path="url(#p610d5b5394)" style="fill: none; stroke: #1f77b4; stroke-width: 1.5"/>
    <path d="M 393.879888 359.765696 
L 415.197809 362.521423 
L 426.91711 363.881981 
L 438.333243 365.019322 
L 445.965517 365.591172 
L 445.965517 365.591172 
L 445.965517 365.591172 
L 451.139586 365.79014 
L 454.574451 365.751113 
" clip-path="url(#p610d5b5394)" style="fill: none; stroke: #1f77b4; stroke-width: 1.5"/>
    <path d="M 415.921385 310.895501 
L 427.269188 313.488254 
L 438.45441 315.908378 
L 445.965517 317.415724 
L 445.965517 317.415724 
L 445.965517 317.415724 
L 451.081282 318.33701 
L 454.500093 318.861681 
" clip-path="url(#p610d5b5394)" style="fill: none; stroke: #1f77b4; stroke-width: 1.5"/>
    <path d="M 291.192448 359.585646 
L 312.435883 362.657831 
L 333.724138 365.591172 
L 355.058354 368.378257 
L 376.439739 371.004178 
" clip-path="url(#p610d5b5394)" style="fill: none; stroke: #1f77b4; stroke-width: 1.5"/>
   </g>
   <g id="patch_3">
    <path d="M 235.021298 501.907802 
Q 238.412527 501.641233 240.131863 501.506084 
" clip-path="url(#p610d5b5394)" style="fill: none; stroke: #1f77b4; stroke-width: 1.5; stroke-linecap: round"/>
    <path d="M 235.987436 499.825689 
L 240.131863 501.506084 
L 236.300891 503.813389 
z
" clip-path="url(#p610d5b5394)" style="fill: #1f77b4; stroke: #1f77b4; stroke-width: 1.5; stroke-linecap: round"/>
   </g>
   <g id="patch_4">
    <path d="M 306.350396 510.444113 
Q 309.740457 510.162371 311.459229 510.019527 
" clip-path="url(#p610d5b5394)" style="fill: none; stroke: #1f77b4; stroke-width: 1.5; stroke-linecap: round"/>
    <path d="M 307.307327 508.357689 
L 311.459229 510.019527 
L 307.638618 512.343946 
z
" clip-path="url(#p610d5b5394)" style="fill: #1f77b4; stroke: #1f77b4; stroke-width: 1.5; stroke-linecap: round"/>
   </g>
   <g id="patch_5">
    <path d="M 356.259809 521.824654 
Q 359.653209 521.543705 361.375276 521.40113 
" clip-path="url(#p610d5b5394)" style="fill: none; stroke: #1f77b4; stroke-width: 1.5; stroke-linecap: round"/>
    <path d="M 357.223894 519.737991 
L 361.375276 521.40113 
L 357.553935 523.724352 
z
" clip-path="url(#p610d5b5394)" style="fill: #1f77b4; stroke: #1f77b4; stroke-width: 1.5; stroke-linecap: round"/>
   </g>
   <g id="patch_6">
    <path d="M 577.974354 510.018264 
Q 574.653019 510.493301 572.991841 510.730893 
" clip-path="url(#p610d5b5394)" style="fill: none; stroke: #1f77b4; stroke-width: 1.5; stroke-linecap: round"/>
    <path d="M 577.234716 512.144405 
L 572.991841 510.730893 
L 576.668375 508.1847 
z
" clip-path="url(#p610d5b5394)" style="fill: #1f77b4; stroke: #1f77b4; stroke-width: 1.5; stroke-linecap: round"/>
   </g>
   <g id="patch_7">
    <path d="M 620.985823 519.680203 
Q 617.664797 520.19368 616.00113 520.450906 
" clip-path="url(#p610d5b5394)" style="fill: none; stroke: #1f77b4; stroke-width: 1.5; stroke-linecap: round"/>
    <path d="M 620.259756 521.816228 
L 616.00113 520.450906 
L 619.648563 517.863198 
z
" clip-path="url(#p610d5b5394)" style="fill: #1f77b4; stroke: #1f77b4; stroke-width: 1.5; stroke-linecap: round"/>
   </g>
   <g id="patch_8">
    <path d="M 581.250595 482.375576 
Q 577.860162 482.633312 576.141955 482.763928 
" clip-path="url(#p610d5b5394)" style="fill: none; stroke: #1f77b4; stroke-width: 1.5; stroke-linecap: round"/>
    <path d="M 580.282047 484.454974 
L 576.141955 482.763928 
L 579.978847 480.466482 
z
" clip-path="url(#p610d5b5394)" style="fill: #1f77b4; stroke: #1f77b4; stroke-width: 1.5; stroke-linecap: round"/>
   </g>
   <g id="patch_9">
    <path d="M 559.440777 464.70133 
Q 556.033779 464.830813 554.302623 464.896605 
" clip-path="url(#p610d5b5394)" style="fill: none; stroke: #1f77b4; stroke-width: 1.5; stroke-linecap: round"/>
    <path d="M 558.375692 466.743252 
L 554.302623 464.896605 
L 558.223782 462.746138 
z
" clip-path="url(#p610d5b5394)" style="fill: #1f77b4; stroke: #1f77b4; stroke-width: 1.5; stroke-linecap: round"/>
   </g>
   <g id="patch_10">
    <path d="M 559.432737 445.478164 
Q 556.025149 445.46159 554.294591 445.453173 
" clip-path="url(#p610d5b5394)" style="fill: none; stroke: #1f77b4; stroke-width: 1.5; stroke-linecap: round"/>
    <path d="M 558.284816 447.472605 
L 554.294591 445.453173 
L 558.304272 443.472652 
z
" clip-path="url(#p610d5b5394)" style="fill: #1f77b4; stroke: #1f77b4; stroke-width: 1.5; stroke-linecap: round"/>
   </g>
   <g id="patch_11">
    <path d="M 559.424694 426.254332 
Q 556.012209 426.091431 554.274867 426.008497 
" clip-path="url(#p610d5b5394)" style="fill: none; stroke: #1f77b4; stroke-width: 1.5; stroke-linecap: round"/>
    <path d="M 558.174953 428.196951 
L 554.274867 426.008497 
L 558.365682 424.201501 
z
" clip-path="url(#p610d5b5394)" style="fill: #1f77b4; stroke: #1f77b4; stroke-width: 1.5; stroke-linecap: round"/>
   </g>
   <g id="patch_12">
    <path d="M 581.316982 409.013344 
Q 577.927544 408.744388 576.209902 408.60809 
" clip-path="url(#p610d5b5394)" style="fill: none; stroke: #1f77b4; stroke-width: 1.5; stroke-linecap: round"/>
    <path d="M 580.039163 410.918234 
L 576.209902 408.60809 
L 580.355573 406.930768 
z
" clip-path="url(#p610d5b5394)" style="fill: #1f77b4; stroke: #1f77b4; stroke-width: 1.5; stroke-linecap: round"/>
   </g>
   <g id="patch_13">
    <path d="M 581.700492 390.916616 
Q 578.339466 390.535444 576.644808 390.343254 
" clip-path="url(#p610d5b5394)" style="fill: none; stroke: #1f77b4; stroke-width: 1.5; stroke-linecap: round"/>
    <path d="M 580.393956 392.781263 
L 576.644808 390.343254 
L 580.844705 388.806741 
z
" clip-path="url(#p610d5b5394)" style="fill: #1f77b4; stroke: #1f77b4; stroke-width: 1.5; stroke-linecap: round"/>
   </g>
   <g id="patch_14">
    <path d="M 560.835321 369.699493 
Q 557.510814 369.181719 555.843382 368.922025 
" clip-path="url(#p610d5b5394)" style="fill: none; stroke: #1f77b4; stroke-width: 1.5; stroke-linecap: round"/>
    <path d="M 559.487955 371.513759 
L 555.843382 368.922025 
L 560.103514 367.561407 
z
" clip-path="url(#p610d5b5394)" style="fill: #1f77b4; stroke: #1f77b4; stroke-width: 1.5; stroke-linecap: round"/>
   </g>
   <g id="patch_15">
    <path d="M 582.605693 354.959296 
Q 579.314088 354.377698 577.673954 354.087901 
" clip-path="url(#p610d5b5394)" style="fill: none; stroke: #1f77b4; stroke-width: 1.5; stroke-linecap: round"/>
    <path d="M 581.264947 356.753378 
L 577.673954 354.087901 
L 581.960931 352.814393 
z
" clip-path="url(#p610d5b5394)" style="fill: #1f77b4; stroke: #1f77b4; stroke-width: 1.5; stroke-linecap: round"/>
   </g>
   <g id="patch_16">
    <path d="M 583.218258 337.196624 
Q 579.971658 336.528914 578.367728 336.199043 
" clip-path="url(#p610d5b5394)" style="fill: none; stroke: #1f77b4; stroke-width: 1.5; stroke-linecap: round"/>
    <path d="M 581.882828 338.963834 
L 578.367728 336.199043 
L 582.688621 335.045837 
z
" clip-path="url(#p610d5b5394)" style="fill: #1f77b4; stroke: #1f77b4; stroke-width: 1.5; stroke-linecap: round"/>
   </g>
   <g id="patch_17">
    <path d="M 563.205714 314.627541 
Q 560.010379 313.855309 558.445164 313.477036 
" clip-path="url(#p610d5b5394)" style="fill: none; stroke: #1f77b4; stroke-width: 1.5; stroke-linecap: round"/>
    <path d="M 561.863407 316.360717 
L 558.445164 313.477036 
L 562.803055 312.47265 
z
" clip-path="url(#p610d5b5394)" style="fill: #1f77b4; stroke: #1f77b4; stroke-width: 1.5; stroke-linecap: round"/>
   </g>
   <g id="patch_18">
    <path d="M 564.09653 296.620002 
Q 560.947553 295.78471 559.419567 295.379399 
" clip-path="url(#p610d5b5394)" style="fill: none; stroke: #1f77b4; stroke-width: 1.5; stroke-linecap: round"/>
    <path d="M 562.773077 298.338111 
L 559.419567 295.379399 
L 563.798642 294.471819 
z
" clip-path="url(#p610d5b5394)" style="fill: #1f77b4; stroke: #1f77b4; stroke-width: 1.5; stroke-linecap: round"/>
   </g>
   <g id="patch_19">
    <path d="M 565.031047 278.753971 
Q 561.923445 277.856384 560.427032 277.424166 
" clip-path="url(#p610d5b5394)" style="fill: none; stroke: #1f77b4; stroke-width: 1.5; stroke-linecap: round"/>
    <path d="M 563.714958 280.455592 
L 560.427032 277.424166 
L 564.824928 276.612681 
z
" clip-path="url(#p610d5b5394)" style="fill: #1f77b4; stroke: #1f77b4; stroke-width: 1.5; stroke-linecap: round"/>
   </g>
   <g id="patch_20">
    <path d="M 565.943993 260.946065 
Q 562.879867 259.996562 561.417644 259.543453 
" clip-path="url(#p610d5b5394)" style="fill: none; stroke: #1f77b4; stroke-width: 1.5; stroke-linecap: round"/>
    <path d="M 564.646423 262.637801 
L 561.417644 259.543453 
L 565.83039 258.817039 
z
" clip-path="url(#p610d5b5394)" style="fill: #1f77b4; stroke: #1f77b4; stroke-width: 1.5; stroke-linecap: round"/>
   </g>
   <g id="patch_21">
    <path d="M 566.860418 243.344822 
Q 563.832492 242.350176 562.397857 241.878911 
" clip-path="url(#p610d5b5394)" style="fill: none; stroke: #1f77b4; stroke-width: 1.5; stroke-linecap: round"/>
    <path d="M 565.573905 245.027357 
L 562.397857 241.878911 
L 566.822243 241.22714 
z
" clip-path="url(#p610d5b5394)" style="fill: #1f77b4; stroke: #1f77b4; stroke-width: 1.5; stroke-linecap: round"/>
   </g>
   <g id="patch_22">
    <path d="M 567.782233 225.871068 
Q 564.791814 224.832688 563.385654 224.344419 
" clip-path="url(#p610d5b5394)" style="fill: none; stroke: #1f77b4; stroke-width: 1.5; stroke-linecap: round"/>
    <path d="M 566.508287 227.545851 
L 563.385654 224.344419 
L 567.820379 223.767172 
z
" clip-path="url(#p610d5b5394)" style="fill: #1f77b4; stroke: #1f77b4; stroke-width: 1.5; stroke-linecap: round"/>
   </g>
   <g id="patch_23">
    <path d="M 550.361441 183.966445 
Q 547.412458 182.897383 546.040121 182.399884 
" clip-path="url(#p610d5b5394)" style="fill: none; stroke: #1f77b4; stroke-width: 1.5; stroke-linecap: round"/>
    <path d="M 549.119012 185.643406 
L 546.040121 182.399884 
L 550.482273 181.882884 
z
" clip-path="url(#p610d5b5394)" style="fill: #1f77b4; stroke: #1f77b4; stroke-width: 1.5; stroke-linecap: round"/>
   </g>
   <g id="patch_24">
    <path d="M 552.323009 149.331806 
Q 549.420236 148.229753 548.085322 147.722946 
" clip-path="url(#p610d5b5394)" style="fill: none; stroke: #1f77b4; stroke-width: 1.5; stroke-linecap: round"/>
    <path d="M 551.115012 151.012471 
L 548.085322 147.722946 
L 552.534757 147.272909 
z
" clip-path="url(#p610d5b5394)" style="fill: #1f77b4; stroke: #1f77b4; stroke-width: 1.5; stroke-linecap: round"/>
   </g>
   <g id="patch_25">
    <path d="M 571.976256 139.917698 
Q 569.136896 138.741348 567.846881 138.206893 
" clip-path="url(#p610d5b5394)" style="fill: none; stroke: #1f77b4; stroke-width: 1.5; stroke-linecap: round"/>
    <path d="M 570.77678 141.585605 
L 567.846881 138.206893 
L 572.307789 137.890201 
z
" clip-path="url(#p610d5b5394)" style="fill: #1f77b4; stroke: #1f77b4; stroke-width: 1.5; stroke-linecap: round"/>
   </g>
   <g id="patch_26">
    <path d="M 573.409933 106.154787 
Q 570.619409 104.946261 569.367815 104.404218 
" clip-path="url(#p610d5b5394)" style="fill: none; stroke: #1f77b4; stroke-width: 1.5; stroke-linecap: round"/>
    <path d="M 572.243546 107.829151 
L 569.367815 104.404218 
L 573.8332 104.158592 
z
" clip-path="url(#p610d5b5394)" style="fill: #1f77b4; stroke: #1f77b4; stroke-width: 1.5; stroke-linecap: round"/>
   </g>
   <g id="patch_27">
    <path d="M 610.674797 89.967256 
Q 607.999464 88.65516 606.829844 88.081528 
" clip-path="url(#p610d5b5394)" style="fill: none; stroke: #1f77b4; stroke-width: 1.5; stroke-linecap: round"/>
    <path d="M 609.540507 91.638537 
L 606.829844 88.081528 
L 611.301848 88.047203 
z
" clip-path="url(#p610d5b5394)" style="fill: #1f77b4; stroke: #1f77b4; stroke-width: 1.5; stroke-linecap: round"/>
   </g>
   <g id="patch_28">
    <path d="M 566.89002 79.52384 
Q 564.099897 78.332245 562.852061 77.799324 
" clip-path="url(#p610d5b5394)" style="fill: none; stroke: #1f77b4; stroke-width: 1.5; stroke-linecap: round"/>
    <path d="M 565.745115 81.209637 
L 562.852061 77.799324 
L 567.316144 77.531068 
z
" clip-path="url(#p610d5b5394)" style="fill: #1f77b4; stroke: #1f77b4; stroke-width: 1.5; stroke-linecap: round"/>
   </g>
   <g id="patch_29">
    <path d="M 478.037394 66.047828 
Q 477.703982 66.336007 478.639363 65.527525 
" clip-path="url(#p610d5b5394)" style="fill: none; stroke: #1f77b4; stroke-width: 1.5; stroke-linecap: round"/>
    <path d="M 482.973453 64.424956 
L 478.639363 65.527525 
L 480.357762 61.398711 
z
" clip-path="url(#p610d5b5394)" style="fill: #1f77b4; stroke: #1f77b4; stroke-width: 1.5; stroke-linecap: round"/>
   </g>
   <g id="patch_30">
    <path d="M 434.467937 75.573489 
Q 435.418541 77.022559 435.449256 77.06938 
" clip-path="url(#p610d5b5394)" style="fill: none; stroke: #1f77b4; stroke-width: 1.5; stroke-linecap: round"/>
    <path d="M 434.927471 72.627788 
L 435.449256 77.06938 
L 431.582912 74.821853 
z
" clip-path="url(#p610d5b5394)" style="fill: #1f77b4; stroke: #1f77b4; stroke-width: 1.5; stroke-linecap: round"/>
   </g>
   <g id="patch_31">
    <path d="M 418.14584 99.369312 
Q 419.80344 101.116261 420.306704 101.646652 
" clip-path="url(#p610d5b5394)" style="fill: none; stroke: #1f77b4; stroke-width: 1.5; stroke-linecap: round"/>
    <path d="M 419.004283 97.36837 
L 420.306704 101.646652 
L 416.102626 100.12162 
z
" clip-path="url(#p610d5b5394)" style="fill: #1f77b4; stroke: #1f77b4; stroke-width: 1.5; stroke-linecap: round"/>
   </g>
   <g id="patch_32">
    <path d="M 377.244868 97.264068 
Q 379.234162 98.916069 379.933279 99.496648 
" clip-path="url(#p610d5b5394)" style="fill: none; stroke: #1f77b4; stroke-width: 1.5; stroke-linecap: round"/>
    <path d="M 378.133774 95.402533 
L 379.933279 99.496648 
L 375.578283 98.479783 
z
" clip-path="url(#p610d5b5394)" style="fill: #1f77b4; stroke: #1f77b4; stroke-width: 1.5; stroke-linecap: round"/>
   </g>
   <g id="patch_33">
    <path d="M 364.110462 118.532203 
Q 366.280983 120.120109 367.097989 120.717813 
" clip-path="url(#p610d5b5394)" style="fill: none; stroke: #1f77b4; stroke-width: 1.5; stroke-linecap: round"/>
    <path d="M 365.050554 116.741884 
L 367.097989 120.717813 
L 362.688785 119.970204 
z
" clip-path="url(#p610d5b5394)" style="fill: #1f77b4; stroke: #1f77b4; stroke-width: 1.5; stroke-linecap: round"/>
   </g>
   <g id="patch_34">
    <path d="M 297.289285 84.553268 
Q 299.425674 86.159497 300.221609 86.757915 
" clip-path="url(#p610d5b5394)" style="fill: none; stroke: #1f77b4; stroke-width: 1.5; stroke-linecap: round"/>
    <path d="M 298.226324 82.755561 
L 300.221609 86.757915 
L 295.822555 85.95273 
z
" clip-path="url(#p610d5b5394)" style="fill: #1f77b4; stroke: #1f77b4; stroke-width: 1.5; stroke-linecap: round"/>
   </g>
   <g id="patch_35">
    <path d="M 336.754125 127.9608 
Q 339.047061 129.494049 339.945906 130.095092 
" clip-path="url(#p610d5b5394)" style="fill: none; stroke: #1f77b4; stroke-width: 1.5; stroke-linecap: round"/>
    <path d="M 337.732524 126.209099 
L 339.945906 130.095092 
L 335.509083 129.534202 
z
" clip-path="url(#p610d5b5394)" style="fill: #1f77b4; stroke: #1f77b4; stroke-width: 1.5; stroke-linecap: round"/>
   </g>
   <g id="patch_36">
    <path d="M 268.133304 95.219375 
Q 270.360258 96.791551 271.217176 97.396514 
" clip-path="url(#p610d5b5394)" style="fill: none; stroke: #1f77b4; stroke-width: 1.5; stroke-linecap: round"/>
    <path d="M 269.102917 93.455713 
L 271.217176 97.396514 
L 266.79598 96.723441 
z
" clip-path="url(#p610d5b5394)" style="fill: #1f77b4; stroke: #1f77b4; stroke-width: 1.5; stroke-linecap: round"/>
   </g>
   <g id="patch_37">
    <path d="M 245.978384 95.019302 
Q 248.220301 96.580544 249.085992 97.1834 
" clip-path="url(#p610d5b5394)" style="fill: none; stroke: #1f77b4; stroke-width: 1.5; stroke-linecap: round"/>
    <path d="M 246.946444 93.256272 
L 249.085992 97.1834 
L 244.660561 96.538762 
z
" clip-path="url(#p610d5b5394)" style="fill: #1f77b4; stroke: #1f77b4; stroke-width: 1.5; stroke-linecap: round"/>
   </g>
   <g id="patch_38">
    <path d="M 223.766697 94.844683 
Q 226.026725 96.400943 226.905504 97.006072 
" clip-path="url(#p610d5b5394)" style="fill: none; stroke: #1f77b4; stroke-width: 1.5; stroke-linecap: round"/>
    <path d="M 224.745322 93.090256 
L 226.905504 97.006072 
L 222.476742 96.384727 
z
" clip-path="url(#p610d5b5394)" style="fill: #1f77b4; stroke: #1f77b4; stroke-width: 1.5; stroke-linecap: round"/>
   </g>
   <g id="patch_39">
    <path d="M 201.525025 94.699677 
Q 203.79532 96.248378 204.680209 96.852013 
" clip-path="url(#p610d5b5394)" style="fill: none; stroke: #1f77b4; stroke-width: 1.5; stroke-linecap: round"/>
    <path d="M 202.502881 92.945705 
L 204.680209 96.852013 
L 200.248766 96.25009 
z
" clip-path="url(#p610d5b5394)" style="fill: #1f77b4; stroke: #1f77b4; stroke-width: 1.5; stroke-linecap: round"/>
   </g>
   <g id="patch_40">
    <path d="M 179.254361 94.574513 
Q 181.5363 96.11879 182.429338 96.723144 
" clip-path="url(#p610d5b5394)" style="fill: none; stroke: #1f77b4; stroke-width: 1.5; stroke-linecap: round"/>
    <path d="M 180.237541 92.824936 
L 182.429338 96.723144 
L 177.995694 96.137657 
z
" clip-path="url(#p610d5b5394)" style="fill: #1f77b4; stroke: #1f77b4; stroke-width: 1.5; stroke-linecap: round"/>
   </g>
   <g id="patch_41">
    <path d="M 156.960075 94.465164 
Q 159.249413 96.00387 160.146873 96.607069 
" clip-path="url(#p610d5b5394)" style="fill: none; stroke: #1f77b4; stroke-width: 1.5; stroke-linecap: round"/>
    <path d="M 157.942705 92.715842 
L 160.146873 96.607069 
L 155.711391 96.035667 
z
" clip-path="url(#p610d5b5394)" style="fill: #1f77b4; stroke: #1f77b4; stroke-width: 1.5; stroke-linecap: round"/>
   </g>
   <g id="patch_42">
    <path d="M 134.638647 94.363522 
Q 136.940294 95.901327 137.847495 96.507457 
" clip-path="url(#p610d5b5394)" style="fill: none; stroke: #1f77b4; stroke-width: 1.5; stroke-linecap: round"/>
    <path d="M 135.632633 92.622308 
L 137.847495 96.507457 
L 133.410458 95.948257 
z
" clip-path="url(#p610d5b5394)" style="fill: #1f77b4; stroke: #1f77b4; stroke-width: 1.5; stroke-linecap: round"/>
   </g>
   <g id="patch_43">
    <path d="M 112.309311 94.278026 
Q 114.61655 95.811554 115.527105 96.416764 
" clip-path="url(#p610d5b5394)" style="fill: none; stroke: #1f77b4; stroke-width: 1.5; stroke-linecap: round"/>
    <path d="M 113.302906 92.536952 
L 115.527105 96.416764 
L 111.088736 95.868235 
z
" clip-path="url(#p610d5b5394)" style="fill: #1f77b4; stroke: #1f77b4; stroke-width: 1.5; stroke-linecap: round"/>
   </g>
   <g id="patch_44">
    <path d="M 89.966824 94.20166 
Q 92.278992 95.731407 93.192511 96.335798 
" clip-path="url(#p610d5b5394)" style="fill: none; stroke: #1f77b4; stroke-width: 1.5; stroke-linecap: round"/>
    <path d="M 90.960092 92.46071 
L 93.192511 96.335798 
L 88.752989 95.796681 
z
" clip-path="url(#p610d5b5394)" style="fill: #1f77b4; stroke: #1f77b4; stroke-width: 1.5; stroke-linecap: round"/>
   </g>
   <g id="patch_45">
    <path d="M 51.875496 83.474162 
Q 54.152884 85.021563 55.043127 85.626451 
" clip-path="url(#p610d5b5394)" style="fill: none; stroke: #1f77b4; stroke-width: 1.5; stroke-linecap: round"/>
    <path d="M 52.858609 81.724159 
L 55.043127 85.626451 
L 50.610583 85.032691 
z
" clip-path="url(#p610d5b5394)" style="fill: #1f77b4; stroke: #1f77b4; stroke-width: 1.5; stroke-linecap: round"/>
   </g>
   <g id="patch_46">
    <path d="M 29.485213 83.432545 
Q 31.766546 84.97699 32.659142 85.581271 
" clip-path="url(#p610d5b5394)" style="fill: none; stroke: #1f77b4; stroke-width: 1.5; stroke-linecap: round"/>
    <path d="M 30.468022 81.682682 
L 32.659142 85.581271 
L 28.225599 84.995014 
z
" clip-path="url(#p610d5b5394)" style="fill: #1f77b4; stroke: #1f77b4; stroke-width: 1.5; stroke-linecap: round"/>
   </g>
   <g id="patch_47">
    <path d="M 219.235409 202.488257 
Q 222.00272 203.731515 223.240273 204.287506 
" clip-path="url(#p610d5b5394)" style="fill: none; stroke: #1f77b4; stroke-width: 1.5; stroke-linecap: round"/>
    <path d="M 220.411201 200.823931 
L 223.240273 204.287506 
L 218.771969 204.472618 
z
" clip-path="url(#p610d5b5394)" style="fill: #1f77b4; stroke: #1f77b4; stroke-width: 1.5; stroke-linecap: round"/>
   </g>
   <g id="patch_48">
    <path d="M 30.977554 114.382269 
Q 33.388103 115.860284 34.368951 116.461685 
" clip-path="url(#p610d5b5394)" style="fill: none; stroke: #1f77b4; stroke-width: 1.5; stroke-linecap: round"/>
    <path d="M 32.004336 112.66582 
L 34.368951 116.461685 
L 29.913489 116.075858 
z
" clip-path="url(#p610d5b5394)" style="fill: #1f77b4; stroke: #1f77b4; stroke-width: 1.5; stroke-linecap: round"/>
   </g>
   <g id="patch_49">
    <path d="M 213.100627 230.572877 
Q 215.991486 231.703836 217.320558 232.223794 
" clip-path="url(#p610d5b5394)" style="fill: none; stroke: #1f77b4; stroke-width: 1.5; stroke-linecap: round"/>
    <path d="M 214.32414 228.903933 
L 217.320558 232.223794 
L 212.866818 232.629012 
z
" clip-path="url(#p610d5b5394)" style="fill: #1f77b4; stroke: #1f77b4; stroke-width: 1.5; stroke-linecap: round"/>
   </g>
   <g id="patch_50">
    <path d="M 182.15712 240.091315 
Q 185.088677 241.177951 186.447733 241.68171 
" clip-path="url(#p610d5b5394)" style="fill: none; stroke: #1f77b4; stroke-width: 1.5; stroke-linecap: round"/>
    <path d="M 183.392223 238.416154 
L 186.447733 241.68171 
L 182.001982 242.166785 
z
" clip-path="url(#p610d5b5394)" style="fill: #1f77b4; stroke: #1f77b4; stroke-width: 1.5; stroke-linecap: round"/>
   </g>
   <g id="patch_51">
    <path d="M 208.244745 270.848464 
Q 211.30596 271.80066 212.765805 272.254746 
" clip-path="url(#p610d5b5394)" style="fill: none; stroke: #1f77b4; stroke-width: 1.5; stroke-linecap: round"/>
    <path d="M 209.540342 269.156942 
L 212.765805 272.254746 
L 208.352284 272.976434 
z
" clip-path="url(#p610d5b5394)" style="fill: #1f77b4; stroke: #1f77b4; stroke-width: 1.5; stroke-linecap: round"/>
   </g>
   <g id="patch_52">
    <path d="M 194.376986 288.354848 
Q 197.498922 289.22224 199.005014 289.64069 
" clip-path="url(#p610d5b5394)" style="fill: none; stroke: #1f77b4; stroke-width: 1.5; stroke-linecap: round"/>
    <path d="M 195.686398 286.642893 
L 199.005014 289.64069 
L 194.615607 290.496905 
z
" clip-path="url(#p610d5b5394)" style="fill: #1f77b4; stroke: #1f77b4; stroke-width: 1.5; stroke-linecap: round"/>
   </g>
   <g id="patch_53">
    <path d="M 220.349571 316.548119 
Q 223.569504 317.271396 225.153159 317.627124 
" clip-path="url(#p610d5b5394)" style="fill: none; stroke: #1f77b4; stroke-width: 1.5; stroke-linecap: round"/>
    <path d="M 221.688734 314.799093 
L 225.153159 317.627124 
L 220.812079 318.701845 
z
" clip-path="url(#p610d5b5394)" style="fill: #1f77b4; stroke: #1f77b4; stroke-width: 1.5; stroke-linecap: round"/>
   </g>
   <g id="patch_54">
    <path d="M 142.007223 321.783014 
Q 145.243544 322.481739 146.840584 322.826541 
" clip-path="url(#p610d5b5394)" style="fill: none; stroke: #1f77b4; stroke-width: 1.5; stroke-linecap: round"/>
    <path d="M 143.35275 320.027432 
L 146.840584 322.826541 
L 142.508597 323.937344 
z
" clip-path="url(#p610d5b5394)" style="fill: #1f77b4; stroke: #1f77b4; stroke-width: 1.5; stroke-linecap: round"/>
   </g>
   <g id="patch_55">
    <path d="M 60.519375 316.772239 
Q 63.738498 317.497509 65.32158 317.854178 
" clip-path="url(#p610d5b5394)" style="fill: none; stroke: #1f77b4; stroke-width: 1.5; stroke-linecap: round"/>
    <path d="M 61.858974 315.023919 
L 65.32158 317.854178 
L 60.97981 318.926107 
z
" clip-path="url(#p610d5b5394)" style="fill: #1f77b4; stroke: #1f77b4; stroke-width: 1.5; stroke-linecap: round"/>
   </g>
   <g id="patch_56">
    <path d="M 40.430118 326.923693 
Q 43.67521 327.59685 45.27821 327.929374 
" clip-path="url(#p610d5b5394)" style="fill: none; stroke: #1f77b4; stroke-width: 1.5; stroke-linecap: round"/>
    <path d="M 41.767819 325.158606 
L 45.27821 327.929374 
L 40.95536 329.075226 
z
" clip-path="url(#p610d5b5394)" style="fill: #1f77b4; stroke: #1f77b4; stroke-width: 1.5; stroke-linecap: round"/>
   </g>
   <g id="patch_57">
    <path d="M 211.63597 379.788513 
Q 215.000357 380.168467 216.698287 380.360221 
" clip-path="url(#p610d5b5394)" style="fill: none; stroke: #1f77b4; stroke-width: 1.5; stroke-linecap: round"/>
    <path d="M 212.947995 377.923972 
L 216.698287 380.360221 
L 212.499113 381.898705 
z
" clip-path="url(#p610d5b5394)" style="fill: #1f77b4; stroke: #1f77b4; stroke-width: 1.5; stroke-linecap: round"/>
   </g>
   <g id="patch_58">
    <path d="M 62.949157 374.4122 
Q 66.306858 374.828846 68.000272 375.038976 
" clip-path="url(#p610d5b5394)" style="fill: none; stroke: #1f77b4; stroke-width: 1.5; stroke-linecap: round"/>
    <path d="M 64.277001 372.561629 
L 68.000272 375.038976 
L 63.784432 376.531185 
z
" clip-path="url(#p610d5b5394)" style="fill: #1f77b4; stroke: #1f77b4; stroke-width: 1.5; stroke-linecap: round"/>
   </g>
   <g id="patch_59">
    <path d="M 214.564162 413.24544 
Q 217.968083 413.439143 219.697663 413.537566 
" clip-path="url(#p610d5b5394)" style="fill: none; stroke: #1f77b4; stroke-width: 1.5; stroke-linecap: round"/>
    <path d="M 215.817751 411.313541 
L 219.697663 413.537566 
L 215.590496 415.30708 
z
" clip-path="url(#p610d5b5394)" style="fill: #1f77b4; stroke: #1f77b4; stroke-width: 1.5; stroke-linecap: round"/>
   </g>
   <g id="patch_60">
    <path d="M 42.221776 416.317604 
Q 45.627996 416.499229 47.359543 416.591558 
" clip-path="url(#p610d5b5394)" style="fill: none; stroke: #1f77b4; stroke-width: 1.5; stroke-linecap: round"/>
    <path d="M 43.471709 414.381411 
L 47.359543 416.591558 
L 43.258726 418.375737 
z
" clip-path="url(#p610d5b5394)" style="fill: #1f77b4; stroke: #1f77b4; stroke-width: 1.5; stroke-linecap: round"/>
   </g>
   <g id="patch_61">
    <path d="M 215.617702 435.548962 
Q 219.034587 435.620883 220.774793 435.657512 
" clip-path="url(#p610d5b5394)" style="fill: none; stroke: #1f77b4; stroke-width: 1.5; stroke-linecap: round"/>
    <path d="M 216.817767 433.573779 
L 220.774793 435.657512 
L 216.733591 437.572893 
z
" clip-path="url(#p610d5b5394)" style="fill: #1f77b4; stroke: #1f77b4; stroke-width: 1.5; stroke-linecap: round"/>
   </g>
   <g id="patch_62">
    <path d="M 150.632456 446.543336 
Q 154.049179 446.556261 155.788862 446.562841 
" clip-path="url(#p610d5b5394)" style="fill: none; stroke: #1f77b4; stroke-width: 1.5; stroke-linecap: round"/>
    <path d="M 151.796456 444.547725 
L 155.788862 446.562841 
L 151.781326 448.547696 
z
" clip-path="url(#p610d5b5394)" style="fill: #1f77b4; stroke: #1f77b4; stroke-width: 1.5; stroke-linecap: round"/>
   </g>
   <g id="patch_63">
    <path d="M 215.626925 458.014789 
Q 219.04398 457.96676 220.784149 457.942301 
" clip-path="url(#p610d5b5394)" style="fill: none; stroke: #1f77b4; stroke-width: 1.5; stroke-linecap: round"/>
    <path d="M 216.756436 455.998716 
L 220.784149 457.942301 
L 216.812653 459.998321 
z
" clip-path="url(#p610d5b5394)" style="fill: #1f77b4; stroke: #1f77b4; stroke-width: 1.5; stroke-linecap: round"/>
   </g>
   <g id="patch_64">
    <path d="M 85.608052 474.02787 
Q 89.026798 473.888536 90.769885 473.817495 
" clip-path="url(#p610d5b5394)" style="fill: none; stroke: #1f77b4; stroke-width: 1.5; stroke-linecap: round"/>
    <path d="M 86.691759 471.982042 
L 90.769885 473.817495 
L 86.854647 475.978724 
z
" clip-path="url(#p610d5b5394)" style="fill: #1f77b4; stroke: #1f77b4; stroke-width: 1.5; stroke-linecap: round"/>
   </g>
   <g id="patch_65">
    <path d="M 42.114573 490.842778 
Q 45.513091 490.613476 47.238363 490.497069 
" clip-path="url(#p610d5b5394)" style="fill: none; stroke: #1f77b4; stroke-width: 1.5; stroke-linecap: round"/>
    <path d="M 43.1128 488.770879 
L 47.238363 490.497069 
L 43.382073 492.761806 
z
" clip-path="url(#p610d5b5394)" style="fill: #1f77b4; stroke: #1f77b4; stroke-width: 1.5; stroke-linecap: round"/>
   </g>
   <g id="patch_66">
    <path d="M 21.437452 509.923056 
Q 24.813119 509.593051 26.519691 509.426217 
" clip-path="url(#p610d5b5394)" style="fill: none; stroke: #1f77b4; stroke-width: 1.5; stroke-linecap: round"/>
    <path d="M 22.344077 507.82489 
L 26.519691 509.426217 
L 22.733261 511.805912 
z
" clip-path="url(#p610d5b5394)" style="fill: #1f77b4; stroke: #1f77b4; stroke-width: 1.5; stroke-linecap: round"/>
   </g>
   <g id="patch_67">
    <path d="M 623.776096 75.625672 
Q 621.152076 74.276721 620.019562 73.694522 
" clip-path="url(#p610d5b5394)" style="fill: none; stroke: #1f77b4; stroke-width: 1.5; stroke-linecap: round"/>
    <path d="M 622.662611 77.302055 
L 620.019562 73.694522 
L 624.491418 73.744602 
z
" clip-path="url(#p610d5b5394)" style="fill: #1f77b4; stroke: #1f77b4; stroke-width: 1.5; stroke-linecap: round"/>
   </g>
   <g id="patch_68">
    <path d="M 335.275414 77.79536 
Q 337.307563 79.44185 338.036678 80.032594 
" clip-path="url(#p610d5b5394)" style="fill: none; stroke: #1f77b4; stroke-width: 1.5; stroke-linecap: round"/>
    <path d="M 336.18781 75.960533 
L 338.036678 80.032594 
L 333.669708 79.068452 
z
" clip-path="url(#p610d5b5394)" style="fill: #1f77b4; stroke: #1f77b4; stroke-width: 1.5; stroke-linecap: round"/>
   </g>
   <g id="patch_69">
    <path d="M 176.823079 490.943023 
Q 180.223069 490.721881 181.949544 490.609587 
" clip-path="url(#p610d5b5394)" style="fill: none; stroke: #1f77b4; stroke-width: 1.5; stroke-linecap: round"/>
    <path d="M 177.828169 488.873424 
L 181.949544 490.609587 
L 178.087788 492.864989 
z
" clip-path="url(#p610d5b5394)" style="fill: #1f77b4; stroke: #1f77b4; stroke-width: 1.5; stroke-linecap: round"/>
   </g>
   <g id="patch_70">
    <path d="M 598.07826 488.059151 
Q 594.700069 488.352925 592.992623 488.501407 
" clip-path="url(#p610d5b5394)" style="fill: none; stroke: #1f77b4; stroke-width: 1.5; stroke-linecap: round"/>
    <path d="M 597.150854 490.147348 
L 592.992623 488.501407 
L 596.804314 486.162387 
z
" clip-path="url(#p610d5b5394)" style="fill: #1f77b4; stroke: #1f77b4; stroke-width: 1.5; stroke-linecap: round"/>
   </g>
   <g id="patch_71">
    <path d="M 331.789363 473.539806 
Q 335.209766 473.424228 336.954074 473.365287 
" clip-path="url(#p610d5b5394)" style="fill: none; stroke: #1f77b4; stroke-width: 1.5; stroke-linecap: round"/>
    <path d="M 332.888813 471.501514 
L 336.954074 473.365287 
L 333.023899 475.499232 
z
" clip-path="url(#p610d5b5394)" style="fill: #1f77b4; stroke: #1f77b4; stroke-width: 1.5; stroke-linecap: round"/>
   </g>
   <g id="patch_72">
    <path d="M 26.238613 273.959994 
Q 29.316988 274.893634 30.790499 275.340536 
" clip-path="url(#p610d5b5394)" style="fill: none; stroke: #1f77b4; stroke-width: 1.5; stroke-linecap: round"/>
    <path d="M 27.543147 272.265685 
L 30.790499 275.340536 
L 26.382208 276.093507 
z
" clip-path="url(#p610d5b5394)" style="fill: #1f77b4; stroke: #1f77b4; stroke-width: 1.5; stroke-linecap: round"/>
   </g>
   <g id="patch_73">
    <path d="M 536.915346 197.446917 
Q 533.911653 196.437096 532.497581 195.961695 
" clip-path="url(#p610d5b5394)" style="fill: none; stroke: #1f77b4; stroke-width: 1.5; stroke-linecap: round"/>
    <path d="M 535.651717 199.132094 
L 532.497581 195.961695 
L 536.926382 195.340626 
z
" clip-path="url(#p610d5b5394)" style="fill: #1f77b4; stroke: #1f77b4; stroke-width: 1.5; stroke-linecap: round"/>
   </g>
   <g id="patch_74">
    <path d="M 161.550298 154.936509 
Q 164.112931 156.326206 165.201334 156.916439 
" clip-path="url(#p610d5b5394)" style="fill: none; stroke: #1f77b4; stroke-width: 1.5; stroke-linecap: round"/>
    <path d="M 162.638505 153.251482 
L 165.201334 156.916439 
L 160.731671 156.767728 
z
" clip-path="url(#p610d5b5394)" style="fill: #1f77b4; stroke: #1f77b4; stroke-width: 1.5; stroke-linecap: round"/>
   </g>
   <g id="patch_75">
    <path d="M 153.458789 356.736629 
Q 156.77945 357.24771 158.442576 357.503681 
" clip-path="url(#p610d5b5394)" style="fill: none; stroke: #1f77b4; stroke-width: 1.5; stroke-linecap: round"/>
    <path d="M 154.793364 354.918483 
L 158.442576 357.503681 
L 154.184891 358.871933 
z
" clip-path="url(#p610d5b5394)" style="fill: #1f77b4; stroke: #1f77b4; stroke-width: 1.5; stroke-linecap: round"/>
   </g>
   <g id="patch_76">
    <path d="M 154.272444 401.408084 
Q 157.662718 401.671159 159.380967 401.804489 
" clip-path="url(#p610d5b5394)" style="fill: none; stroke: #1f77b4; stroke-width: 1.5; stroke-linecap: round"/>
    <path d="M 155.547684 399.501026 
L 159.380967 401.804489 
L 155.238227 403.489038 
z
" clip-path="url(#p610d5b5394)" style="fill: #1f77b4; stroke: #1f77b4; stroke-width: 1.5; stroke-linecap: round"/>
   </g>
   <g id="patch_77">
    <path d="M 531.043037 162.655387 
Q 528.033921 161.667011 526.61811 161.201973 
" clip-path="url(#p610d5b5394)" style="fill: none; stroke: #1f77b4; stroke-width: 1.5; stroke-linecap: round"/>
    <path d="M 529.794245 164.350331 
L 526.61811 161.201973 
L 531.042478 160.550079 
z
" clip-path="url(#p610d5b5394)" style="fill: #1f77b4; stroke: #1f77b4; stroke-width: 1.5; stroke-linecap: round"/>
   </g>
   <g id="patch_78">
    <path d="M 386.147479 186.917474 
Q 388.664021 188.322109 389.716178 188.909382 
" clip-path="url(#p610d5b5394)" style="fill: none; stroke: #1f77b4; stroke-width: 1.5; stroke-linecap: round"/>
    <path d="M 387.19818 185.213481 
L 389.716178 188.909382 
L 385.248658 188.70624 
z
" clip-path="url(#p610d5b5394)" style="fill: #1f77b4; stroke: #1f77b4; stroke-width: 1.5; stroke-linecap: round"/>
   </g>
   <g id="patch_79">
    <path d="M 359.785712 195.103039 
Q 362.422914 196.438128 363.563877 197.015742 
" clip-path="url(#p610d5b5394)" style="fill: none; stroke: #1f77b4; stroke-width: 1.5; stroke-linecap: round"/>
    <path d="M 360.898478 193.424691 
L 363.563877 197.015742 
L 359.091797 196.99343 
z
" clip-path="url(#p610d5b5394)" style="fill: #1f77b4; stroke: #1f77b4; stroke-width: 1.5; stroke-linecap: round"/>
   </g>
   <g id="patch_80">
    <path d="M 315.618661 194.404866 
Q 318.299234 195.707485 319.471424 196.277109 
" clip-path="url(#p610d5b5394)" style="fill: none; stroke: #1f77b4; stroke-width: 1.5; stroke-linecap: round"/>
    <path d="M 316.747871 192.729961 
L 319.471424 196.277109 
L 314.999573 196.327663 
z
" clip-path="url(#p610d5b5394)" style="fill: #1f77b4; stroke: #1f77b4; stroke-width: 1.5; stroke-linecap: round"/>
   </g>
   <g id="patch_81">
    <path d="M 325.894389 219.060381 
Q 328.700982 220.269252 329.967327 220.814699 
" clip-path="url(#p610d5b5394)" style="fill: none; stroke: #1f77b4; stroke-width: 1.5; stroke-linecap: round"/>
    <path d="M 327.084798 217.395485 
L 329.967327 220.814699 
L 325.502438 221.069194 
z
" clip-path="url(#p610d5b5394)" style="fill: #1f77b4; stroke: #1f77b4; stroke-width: 1.5; stroke-linecap: round"/>
   </g>
   <g id="patch_82">
    <path d="M 424.713049 414.708299 
Q 425.410831 414.730002 424.432373 414.699569 
" clip-path="url(#p610d5b5394)" style="fill: none; stroke: #1f77b4; stroke-width: 1.5; stroke-linecap: round"/>
    <path d="M 420.496484 412.57618 
L 424.432373 414.699569 
L 420.372129 416.574247 
z
" clip-path="url(#p610d5b5394)" style="fill: #1f77b4; stroke: #1f77b4; stroke-width: 1.5; stroke-linecap: round"/>
   </g>
   <g id="patch_83">
    <path d="M 465.750584 364.411175 
Q 465.359572 364.15632 466.373528 364.817198 
" clip-path="url(#p610d5b5394)" style="fill: none; stroke: #1f77b4; stroke-width: 1.5; stroke-linecap: round"/>
    <path d="M 468.632495 368.67687 
L 466.373528 364.817198 
L 470.816645 365.325827 
z
" clip-path="url(#p610d5b5394)" style="fill: #1f77b4; stroke: #1f77b4; stroke-width: 1.5; stroke-linecap: round"/>
   </g>
   <g id="patch_84">
    <path d="M 357.162409 384.070738 
Q 360.538316 384.400764 362.245129 384.56762 
" clip-path="url(#p610d5b5394)" style="fill: none; stroke: #1f77b4; stroke-width: 1.5; stroke-linecap: round"/>
    <path d="M 358.458697 382.187928 
L 362.245129 384.56762 
L 358.069516 386.16895 
z
" clip-path="url(#p610d5b5394)" style="fill: #1f77b4; stroke: #1f77b4; stroke-width: 1.5; stroke-linecap: round"/>
   </g>
   <g id="patch_85">
    <path d="M 417.186314 362.75228 
Q 418.129528 362.861782 417.406879 362.777886 
" clip-path="url(#p610d5b5394)" style="fill: none; stroke: #1f77b4; stroke-width: 1.5; stroke-linecap: round"/>
    <path d="M 413.664208 360.329946 
L 417.406879 362.777886 
L 413.202924 364.303259 
z
" clip-path="url(#p610d5b5394)" style="fill: #1f77b4; stroke: #1f77b4; stroke-width: 1.5; stroke-linecap: round"/>
   </g>
   <g id="patch_86">
    <path d="M 429.221686 313.910712 
Q 430.065951 314.093384 429.271093 313.921402 
" clip-path="url(#p610d5b5394)" style="fill: none; stroke: #1f77b4; stroke-width: 1.5; stroke-linecap: round"/>
    <path d="M 425.784508 311.120737 
L 429.271093 313.921402 
L 424.93861 315.030271 
z
" clip-path="url(#p610d5b5394)" style="fill: #1f77b4; stroke: #1f77b4; stroke-width: 1.5; stroke-linecap: round"/>
   </g>
   <g id="patch_87">
    <path d="M 335.705991 365.85008 
Q 339.05838 366.288034 340.747849 366.508744 
" clip-path="url(#p610d5b5394)" style="fill: none; stroke: #1f77b4; stroke-width: 1.5; stroke-linecap: round"/>
    <path d="M 337.040629 364.007442 
L 340.747849 366.508744 
L 336.522475 367.973739 
z
" clip-path="url(#p610d5b5394)" style="fill: #1f77b4; stroke: #1f77b4; stroke-width: 1.5; stroke-linecap: round"/>
   </g>
   <g id="line2d_18">
    <defs>
     <path id="m73445e10b3" d="M 0 3 
C 0.795609 3 1.55874 2.683901 2.12132 2.12132 
C 2.683901 1.55874 3 0.795609 3 0 
C 3 -0.795609 2.683901 -1.55874 2.12132 -2.12132 
C 1.55874 -2.683901 0.795609 -3 0 -3 
C -0.795609 -3 -1.55874 -2.683901 -2.12132 -2.12132 
C -2.683901 -1.55874 -3 -0.795609 -3 0 
C -3 0.795609 -2.683901 1.55874 -2.12132 2.12132 
C -1.55874 2.683901 -0.795609 3 0 3 
z
" style="stroke: #ff0000"/>
    </defs>
    <g clip-path="url(#p610d5b5394)">
     <use xlink:href="#m73445e10b3" x="461.999927" y="299.240688" style="fill: #ff0000; stroke: #ff0000"/>
    </g>
   </g>
   <g id="patch_88">
    <path d="M 90 448.56 
L 90 60.48 
" style="fill: none; stroke: #cccccc; stroke-width: 0.8; stroke-linejoin: miter; stroke-linecap: square"/>
   </g>
   <g id="patch_89">
    <path d="M 648 448.56 
L 648 60.48 
" style="fill: none; stroke: #cccccc; stroke-width: 0.8; stroke-linejoin: miter; stroke-linecap: square"/>
   </g>
   <g id="patch_90">
    <path d="M 90 448.56 
L 648 448.56 
" style="fill: none; stroke: #cccccc; stroke-width: 0.8; stroke-linejoin: miter; stroke-linecap: square"/>
   </g>
   <g id="patch_91">
    <path d="M 90 60.48 
L 648 60.48 
" style="fill: none; stroke: #cccccc; stroke-width: 0.8; stroke-linejoin: miter; stroke-linecap: square"/>
   </g>
   <g id="line2d_19">
    <defs>
     <path id="m25da3490b7" d="M 0 3 
C 0.795609 3 1.55874 2.683901 2.12132 2.12132 
C 2.683901 1.55874 3 0.795609 3 0 
C 3 -0.795609 2.683901 -1.55874 2.12132 -2.12132 
C 1.55874 -2.683901 0.795609 -3 0 -3 
C -0.795609 -3 -1.55874 -2.683901 -2.12132 -2.12132 
C -2.683901 -1.55874 -3 -0.795609 -3 0 
C -3 0.795609 -2.683901 1.55874 -2.12132 2.12132 
C -1.55874 2.683901 -0.795609 3 0 3 
z
" style="stroke: #0000ff"/>
    </defs>
    <g clip-path="url(#p610d5b5394)">
     <use xlink:href="#m25da3490b7" x="183" y="254.52" style="fill: #0000ff; stroke: #0000ff"/>
    </g>
   </g>
   <g id="legend_1">
    <g id="patch_92">
     <path d="M 366.840625 438.56 
L 634 438.56 
Q 638 438.56 638 434.56 
L 638 379.97875 
Q 638 375.97875 634 375.97875 
L 366.840625 375.97875 
Q 362.840625 375.97875 362.840625 379.97875 
L 362.840625 434.56 
Q 362.840625 438.56 366.840625 438.56 
z
" style="fill: #ffffff; opacity: 0.8; stroke: #cccccc; stroke-linejoin: miter"/>
    </g>
    <g id="line2d_20">
     <g>
      <use xlink:href="#m25da3490b7" x="390.840625" y="391.294375" style="fill: #0000ff; stroke: #0000ff"/>
     </g>
    </g>
    <g id="text_19">
     <text style="fill: #262626; font: 20px 'Arial', 'DejaVu Sans', 'Liberation Sans', 'Bitstream Vera Sans', sans-serif; text-anchor: start" x="426.840625" y="398.294375" transform="rotate(-0 426.840625 398.294375)"> </text>
    </g>
    <g id="line2d_21">
     <g>
      <use xlink:href="#m73445e10b3" x="390.840625" y="419.585" style="fill: #ff0000; stroke: #ff0000"/>
     </g>
    </g>
    <g id="text_20">
     <text style="fill: #262626; font: 20px 'Arial', 'DejaVu Sans', 'Liberation Sans', 'Bitstream Vera Sans', sans-serif; text-anchor: start" x="426.840625" y="426.585" transform="rotate(-0 426.840625 426.585)"> </text>
    </g>
   </g>
  </g>
 </g>
 <defs>
  <clipPath id="p610d5b5394">
   <rect x="90" y="60.48" width="558" height="388.08"/>
  </clipPath>
 </defs>
</svg>
