<?xml version="1.0" encoding="utf-8" standalone="no"?>
<!DOCTYPE svg PUBLIC "-//W3C//DTD SVG 1.1//EN"
  "http://www.w3.org/Graphics/SVG/1.1/DTD/svg11.dtd">
<svg xmlns:xlink="http://www.w3.org/1999/xlink" width="720pt" height="504pt" viewBox="0 0 720 504" xmlns="http://www.w3.org/2000/svg" version="1.1">
 <metadata>
  <rdf:RDF xmlns:dc="http://purl.org/dc/elements/1.1/" xmlns:cc="http://creativecommons.org/ns#" xmlns:rdf="http://www.w3.org/1999/02/22-rdf-syntax-ns#">
   <cc:Work>
    <dc:type rdf:resource="http://purl.org/dc/dcmitype/StillImage"/>
    <dc:date>2024-09-29T05:38:37.623283</dc:date>
    <dc:format>image/svg+xml</dc:format>
    <dc:creator>
     <cc:Agent>
      <dc:title>Matplotlib v3.9.2, https://matplotlib.org/</dc:title>
     </cc:Agent>
    </dc:creator>
   </cc:Work>
  </rdf:RDF>
 </metadata>
 <defs>
  <style type="text/css">*{stroke-linejoin: round; stroke-linecap: butt}</style>
 </defs>
 <g id="figure_1">
  <g id="patch_1">
   <path d="M 0 504 
L 720 504 
L 720 0 
L 0 0 
z
" style="fill: #ffffff"/>
  </g>
  <g id="axes_1">
   <g id="patch_2">
    <path d="M 90 448.56 
L 648 448.56 
L 648 60.48 
L 90 60.48 
z
" style="fill: #ffffff"/>
   </g>
   <g id="matplotlib.axis_1">
    <g id="xtick_1">
     <g id="line2d_1">
      <path d="M 90 448.56 
L 90 60.48 
" clip-path="url(#p36b26eef4b)" style="fill: none; stroke: #cccccc; stroke-width: 0.8; stroke-linecap: round"/>
     </g>
     <g id="text_1">
      <text style="fill: #262626; font: 20px 'Arial', 'DejaVu Sans', 'Liberation Sans', 'Bitstream Vera Sans', sans-serif; text-anchor: middle" x="90" y="469.875625" transform="rotate(-0 90 469.875625)">0</text>
     </g>
    </g>
    <g id="xtick_2">
     <g id="line2d_2">
      <path d="M 177.1875 448.56 
L 177.1875 60.48 
" clip-path="url(#p36b26eef4b)" style="fill: none; stroke: #cccccc; stroke-width: 0.8; stroke-linecap: round"/>
     </g>
     <g id="text_2">
      <text style="fill: #262626; font: 20px 'Arial', 'DejaVu Sans', 'Liberation Sans', 'Bitstream Vera Sans', sans-serif; text-anchor: middle" x="177.1875" y="469.875625" transform="rotate(-0 177.1875 469.875625)">5</text>
     </g>
    </g>
    <g id="xtick_3">
     <g id="line2d_3">
      <path d="M 264.375 448.56 
L 264.375 60.48 
" clip-path="url(#p36b26eef4b)" style="fill: none; stroke: #cccccc; stroke-width: 0.8; stroke-linecap: round"/>
     </g>
     <g id="text_3">
      <text style="fill: #262626; font: 20px 'Arial', 'DejaVu Sans', 'Liberation Sans', 'Bitstream Vera Sans', sans-serif; text-anchor: middle" x="264.375" y="469.875625" transform="rotate(-0 264.375 469.875625)">10</text>
     </g>
    </g>
    <g id="xtick_4">
     <g id="line2d_4">
      <path d="M 351.5625 448.56 
L 351.5625 60.48 
" clip-path="url(#p36b26eef4b)" style="fill: none; stroke: #cccccc; stroke-width: 0.8; stroke-linecap: round"/>
     </g>
     <g id="text_4">
      <text style="fill: #262626; font: 20px 'Arial', 'DejaVu Sans', 'Liberation Sans', 'Bitstream Vera Sans', sans-serif; text-anchor: middle" x="351.5625" y="469.875625" transform="rotate(-0 351.5625 469.875625)">15</text>
     </g>
    </g>
    <g id="xtick_5">
     <g id="line2d_5">
      <path d="M 438.75 448.56 
L 438.75 60.48 
" clip-path="url(#p36b26eef4b)" style="fill: none; stroke: #cccccc; stroke-width: 0.8; stroke-linecap: round"/>
     </g>
     <g id="text_5">
      <text style="fill: #262626; font: 20px 'Arial', 'DejaVu Sans', 'Liberation Sans', 'Bitstream Vera Sans', sans-serif; text-anchor: middle" x="438.75" y="469.875625" transform="rotate(-0 438.75 469.875625)">20</text>
     </g>
    </g>
    <g id="xtick_6">
     <g id="line2d_6">
      <path d="M 525.9375 448.56 
L 525.9375 60.48 
" clip-path="url(#p36b26eef4b)" style="fill: none; stroke: #cccccc; stroke-width: 0.8; stroke-linecap: round"/>
     </g>
     <g id="text_6">
      <text style="fill: #262626; font: 20px 'Arial', 'DejaVu Sans', 'Liberation Sans', 'Bitstream Vera Sans', sans-serif; text-anchor: middle" x="525.9375" y="469.875625" transform="rotate(-0 525.9375 469.875625)">25</text>
     </g>
    </g>
    <g id="xtick_7">
     <g id="line2d_7">
      <path d="M 613.125 448.56 
L 613.125 60.48 
" clip-path="url(#p36b26eef4b)" style="fill: none; stroke: #cccccc; stroke-width: 0.8; stroke-linecap: round"/>
     </g>
     <g id="text_7">
      <text style="fill: #262626; font: 20px 'Arial', 'DejaVu Sans', 'Liberation Sans', 'Bitstream Vera Sans', sans-serif; text-anchor: middle" x="613.125" y="469.875625" transform="rotate(-0 613.125 469.875625)">30</text>
     </g>
    </g>
    <g id="text_8">
     <!-- $x_{1}$ -->
     <g style="fill: #262626" transform="translate(358.3 492.16625)">
      <text>
       <tspan style="font: oblique 20px 'DejaVu Sans'" x="0" y="-0.0625">x</tspan>
       <tspan style="font: 14px 'DejaVu Sans'" x="11.835938" y="3.21875">1</tspan>
      </text>
     </g>
    </g>
   </g>
   <g id="matplotlib.axis_2">
    <g id="ytick_1">
     <g id="line2d_8">
      <path d="M 90 448.56 
L 648 448.56 
" clip-path="url(#p36b26eef4b)" style="fill: none; stroke: #cccccc; stroke-width: 0.8; stroke-linecap: round"/>
     </g>
     <g id="text_9">
      <text style="fill: #262626; font: 20px 'Arial', 'DejaVu Sans', 'Liberation Sans', 'Bitstream Vera Sans', sans-serif; text-anchor: end" x="83" y="455.717813" transform="rotate(-0 83 455.717813)">0.0</text>
     </g>
    </g>
    <g id="ytick_2">
     <g id="line2d_9">
      <path d="M 90 400.05 
L 648 400.05 
" clip-path="url(#p36b26eef4b)" style="fill: none; stroke: #cccccc; stroke-width: 0.8; stroke-linecap: round"/>
     </g>
     <g id="text_10">
      <text style="fill: #262626; font: 20px 'Arial', 'DejaVu Sans', 'Liberation Sans', 'Bitstream Vera Sans', sans-serif; text-anchor: end" x="83" y="407.207813" transform="rotate(-0 83 407.207813)">2.5</text>
     </g>
    </g>
    <g id="ytick_3">
     <g id="line2d_10">
      <path d="M 90 351.54 
L 648 351.54 
" clip-path="url(#p36b26eef4b)" style="fill: none; stroke: #cccccc; stroke-width: 0.8; stroke-linecap: round"/>
     </g>
     <g id="text_11">
      <text style="fill: #262626; font: 20px 'Arial', 'DejaVu Sans', 'Liberation Sans', 'Bitstream Vera Sans', sans-serif; text-anchor: end" x="83" y="358.697813" transform="rotate(-0 83 358.697813)">5.0</text>
     </g>
    </g>
    <g id="ytick_4">
     <g id="line2d_11">
      <path d="M 90 303.03 
L 648 303.03 
" clip-path="url(#p36b26eef4b)" style="fill: none; stroke: #cccccc; stroke-width: 0.8; stroke-linecap: round"/>
     </g>
     <g id="text_12">
      <text style="fill: #262626; font: 20px 'Arial', 'DejaVu Sans', 'Liberation Sans', 'Bitstream Vera Sans', sans-serif; text-anchor: end" x="83" y="310.187813" transform="rotate(-0 83 310.187813)">7.5</text>
     </g>
    </g>
    <g id="ytick_5">
     <g id="line2d_12">
      <path d="M 90 254.52 
L 648 254.52 
" clip-path="url(#p36b26eef4b)" style="fill: none; stroke: #cccccc; stroke-width: 0.8; stroke-linecap: round"/>
     </g>
     <g id="text_13">
      <text style="fill: #262626; font: 20px 'Arial', 'DejaVu Sans', 'Liberation Sans', 'Bitstream Vera Sans', sans-serif; text-anchor: end" x="83" y="261.677813" transform="rotate(-0 83 261.677813)">10.0</text>
     </g>
    </g>
    <g id="ytick_6">
     <g id="line2d_13">
      <path d="M 90 206.01 
L 648 206.01 
" clip-path="url(#p36b26eef4b)" style="fill: none; stroke: #cccccc; stroke-width: 0.8; stroke-linecap: round"/>
     </g>
     <g id="text_14">
      <text style="fill: #262626; font: 20px 'Arial', 'DejaVu Sans', 'Liberation Sans', 'Bitstream Vera Sans', sans-serif; text-anchor: end" x="83" y="213.167812" transform="rotate(-0 83 213.167812)">12.5</text>
     </g>
    </g>
    <g id="ytick_7">
     <g id="line2d_14">
      <path d="M 90 157.5 
L 648 157.5 
" clip-path="url(#p36b26eef4b)" style="fill: none; stroke: #cccccc; stroke-width: 0.8; stroke-linecap: round"/>
     </g>
     <g id="text_15">
      <text style="fill: #262626; font: 20px 'Arial', 'DejaVu Sans', 'Liberation Sans', 'Bitstream Vera Sans', sans-serif; text-anchor: end" x="83" y="164.657812" transform="rotate(-0 83 164.657812)">15.0</text>
     </g>
    </g>
    <g id="ytick_8">
     <g id="line2d_15">
      <path d="M 90 108.99 
L 648 108.99 
" clip-path="url(#p36b26eef4b)" style="fill: none; stroke: #cccccc; stroke-width: 0.8; stroke-linecap: round"/>
     </g>
     <g id="text_16">
      <text style="fill: #262626; font: 20px 'Arial', 'DejaVu Sans', 'Liberation Sans', 'Bitstream Vera Sans', sans-serif; text-anchor: end" x="83" y="116.147812" transform="rotate(-0 83 116.147812)">17.5</text>
     </g>
    </g>
    <g id="ytick_9">
     <g id="line2d_16">
      <path d="M 90 60.48 
L 648 60.48 
" clip-path="url(#p36b26eef4b)" style="fill: none; stroke: #cccccc; stroke-width: 0.8; stroke-linecap: round"/>
     </g>
     <g id="text_17">
      <text style="fill: #262626; font: 20px 'Arial', 'DejaVu Sans', 'Liberation Sans', 'Bitstream Vera Sans', sans-serif; text-anchor: end" x="83" y="67.637812" transform="rotate(-0 83 67.637812)">20.0</text>
     </g>
    </g>
    <g id="text_18">
     <!-- $x_{2}$ -->
     <g style="fill: #262626" transform="translate(36.103125 265.22) rotate(-90)">
      <text>
       <tspan style="font: oblique 20px 'DejaVu Sans'" x="0" y="-0.0625">x</tspan>
       <tspan style="font: 14px 'DejaVu Sans'" x="11.835938" y="3.21875">2</tspan>
      </text>
     </g>
    </g>
   </g>
   <g id="line2d_17">
    <path d="M 177.1875 254.52 
L 176.325652 254.713652 
L 219.053335 260.515305 
L 251.685296 264.710735 
L 282.259093 268.422262 
L 310.609277 271.63895 
L 335.934273 274.291461 
L 358.463412 276.435791 
L 378.916839 278.162375 
L 396.823085 279.453306 
L 412.386802 280.355213 
L 425.491688 280.900792 
L 436.728292 281.153356 
L 446.037374 281.148869 
L 453.682897 280.933012 
L 459.893006 280.544461 
L 464.865987 280.016152 
L 468.688877 279.3934 
L 471.575041 278.70598 
L 473.650714 277.997725 
L 475.138109 277.268763 
L 476.125565 276.554601 
L 476.749654 275.844679 
L 477.082536 275.146519 
L 477.183655 274.420372 
L 477.059838 273.647999 
L 476.68448 272.789631 
L 476.013683 271.831521 
L 474.955061 270.722332 
L 473.392716 269.425594 
L 471.22305 267.928663 
L 468.310889 266.201 
L 464.499593 264.208307 
L 459.608024 261.911655 
L 453.462814 259.281427 
L 445.881631 256.286722 
L 444.736008 255.852215 
L 444.736008 255.852215 
" clip-path="url(#p36b26eef4b)" style="fill: none; stroke: #ff0000; stroke-width: 3; stroke-linecap: round"/>
   </g>
   <g id="LineCollection_1">
    <path d="M 2.8125 467.964 
L 2.8125 467.964 
L 24.315463 467.728535 
L 45.818663 467.505244 
L 67.32211 467.294018 
L 88.8258 467.094774 
L 110.329722 466.907453 
L 131.833879 466.732021 
L 153.33827 466.56847 
L 174.842881 466.41682 
L 196.347703 466.277121 
L 217.852745 466.14945 
L 239.357983 466.033918 
L 260.863394 465.930671 
L 282.368985 465.839889 
L 303.874737 465.761791 
L 325.380616 465.696638 
L 346.886615 465.644736 
L 368.39272 465.606438 
L 389.898885 465.582152 
L 411.405079 465.572342 
L 432.911302 465.577533 
L 454.41749 465.59832 
L 475.923575 465.635372 
L 497.429553 465.689443 
L 518.935363 465.761373 
L 540.440911 465.852107 
L 561.94616 465.962697 
L 583.451061 466.094319 
L 604.955488 466.248283 
L 626.45935 466.426048 
L 647.962632 466.62924 
L 648 466.629616 
" clip-path="url(#p36b26eef4b)" style="fill: none; stroke: #1f77b4; stroke-width: 1.5"/>
    <path d="M 2.8125 454.226957 
L 2.863873 454.22679 
L 24.365895 454.158751 
L 45.868215 454.094197 
L 67.370843 454.033111 
L 88.873775 453.975482 
L 110.376999 453.921307 
L 131.880518 453.870589 
L 153.384333 453.823339 
L 174.888426 453.779578 
L 196.392788 453.739334 
L 217.89743 453.702646 
L 239.402324 453.669564 
L 260.907443 453.640145 
L 282.412797 453.614464 
L 303.918362 453.592604 
L 325.424096 453.574666 
L 346.929992 453.560766 
L 368.436033 453.551035 
L 389.942158 453.545628 
L 411.448328 453.544718 
L 432.954542 453.548503 
L 454.460711 453.557209 
L 475.966738 453.57109 
L 497.472618 453.590437 
L 518.978253 453.615577 
L 540.483498 453.646882 
L 561.988286 453.684775 
L 583.492528 453.729733 
L 604.995991 453.782301 
L 626.498499 453.843097 
L 648 453.912828 
L 648 453.912828 
" clip-path="url(#p36b26eef4b)" style="fill: none; stroke: #1f77b4; stroke-width: 1.5"/>
    <path d="M 2.8125 439.127896 
L 2.881228 439.12829 
L 24.382191 439.248685 
L 45.883516 439.363459 
L 67.385215 439.472627 
L 88.887284 439.576198 
L 110.38971 439.674165 
L 131.892497 439.766513 
L 153.395647 439.853212 
L 174.89914 439.93422 
L 196.402968 440.009477 
L 217.907142 440.078911 
L 239.411633 440.142427 
L 260.916409 440.199915 
L 282.421481 440.251239 
L 303.926823 440.296243 
L 325.432385 440.334739 
L 346.938156 440.366513 
L 368.444119 440.391316 
L 389.950196 440.408858 
L 411.456335 440.418807 
L 432.962539 440.420783 
L 454.468684 440.414345 
L 475.974639 440.398988 
L 497.480394 440.37413 
L 518.985805 440.339099 
L 540.490655 440.29312 
L 561.994837 440.235291 
L 583.4982 440.164565 
L 605.000358 440.079719 
L 626.501 439.979315 
L 648 439.861655 
L 648 439.861655 
" clip-path="url(#p36b26eef4b)" style="fill: none; stroke: #1f77b4; stroke-width: 1.5"/>
    <path d="M 2.8125 424.17695 
L 2.90118 424.178265 
L 24.401067 424.489989 
L 45.901377 424.787575 
L 67.402126 425.071008 
L 88.903307 425.340249 
L 110.40491 425.595229 
L 131.906938 425.835848 
L 153.409397 426.061971 
L 174.912264 426.273426 
L 196.41553 426.469999 
L 217.919211 426.651427 
L 239.423274 426.817397 
L 260.927683 426.967537 
L 282.432454 427.101409 
L 303.937556 427.218499 
L 325.44293 427.318209 
L 346.948567 427.399847 
L 368.454444 427.462604 
L 389.960468 427.505548 
L 411.466573 427.527593 
L 432.972764 427.52748 
L 454.478882 427.503745 
L 475.984754 427.454678 
L 497.490363 427.378276 
L 518.995509 427.272184 
L 540.499885 427.133618 
L 562.003329 426.959262 
L 583.505601 426.745142 
L 605.006106 426.486453 
L 626.504328 426.177322 
L 648 425.810483 
L 648 425.810483 
" clip-path="url(#p36b26eef4b)" style="fill: none; stroke: #1f77b4; stroke-width: 1.5"/>
    <path d="M 2.8125 409.287249 
L 3.142103 409.295263 
L 24.628388 409.806546 
L 46.116257 410.295691 
L 67.605685 410.762596 
L 89.096616 411.20712 
L 110.588974 411.629073 
L 132.082727 412.028217 
L 153.577838 412.404257 
L 175.074222 412.756831 
L 196.571823 413.085508 
L 218.070641 413.389773 
L 239.57057 413.66902 
L 261.071507 413.922537 
L 282.573463 414.14949 
L 304.076346 414.348908 
L 325.580006 414.519657 
L 347.084411 414.660416 
L 368.589497 414.769644 
L 390.095018 414.845541 
L 411.600812 414.886 
L 433.106894 414.888541 
L 454.612773 414.850242 
L 476.117923 414.767633 
L 497.622266 414.63657 
L 519.124951 414.452071 
L 540.6246 414.208093 
L 562.120352 413.897215 
L 583.610398 413.510227 
L 605.090041 413.035574 
L 626.554513 412.458435 
L 648 411.75931 
L 648 411.75931 
" clip-path="url(#p36b26eef4b)" style="fill: none; stroke: #1f77b4; stroke-width: 1.5"/>
    <path d="M 2.8125 394.716099 
L 3.51782 394.739941 
L 24.988991 395.451018 
L 46.462656 396.132891 
L 67.938812 396.785316 
L 89.417395 397.407994 
L 110.898318 398.000561 
L 132.381563 398.562585 
L 153.867098 399.09355 
L 175.354813 399.592846 
L 196.844649 400.059758 
L 218.336635 400.493449 
L 239.830616 400.892941 
L 261.326446 401.257089 
L 282.824175 401.584566 
L 304.323655 401.873817 
L 325.824636 402.123024 
L 347.327088 402.330065 
L 368.830896 402.492442 
L 390.335592 402.60721 
L 411.840874 402.670883 
L 433.346766 402.679303 
L 454.852226 402.627484 
L 476.356126 402.509393 
L 497.858282 402.317651 
L 519.356673 402.043146 
L 540.848056 401.674475 
L 562.330357 401.197071 
L 583.798894 400.592015 
L 605.241583 399.834301 
L 626.645745 398.889534 
L 648 397.708138 
L 648 397.708138 
" clip-path="url(#p36b26eef4b)" style="fill: none; stroke: #1f77b4; stroke-width: 1.5"/>
    <path d="M 519.698991 390.336762 
L 541.180201 389.816086 
L 562.645518 389.129474 
L 584.085705 388.239775 
L 605.477193 387.094026 
L 626.792567 385.611389 
L 648 383.656966 
L 648 383.656966 
" clip-path="url(#p36b26eef4b)" style="fill: none; stroke: #1f77b4; stroke-width: 1.5"/>
    <path d="M 2.8125 358.378844 
L 14.624982 359.059465 
L 36.038905 360.271088 
L 57.459208 361.438559 
L 78.885863 362.561024 
L 100.318721 363.637517 
L 121.757668 364.66695 
L 143.202727 365.648101 
L 164.653718 366.579565 
L 186.11043 367.459742 
L 207.572882 368.286802 
L 229.040933 369.05863 
L 250.514255 369.772772 
L 271.992746 370.426376 
L 293.476406 371.016106 
L 314.964651 371.538011 
L 336.457036 371.987406 
L 357.953755 372.358695 
L 379.453804 372.645084 
L 400.955905 372.83828 
L 422.459987 372.928022 
L 443.964374 372.901395 
L 465.465223 372.741885 
L 486.959882 372.427887 
L 508.443729 371.930345 
L 529.892774 371.209491 
L 551.275218 370.208286 
L 572.557855 368.839055 
L 593.341847 366.992887 
L 612.564461 364.591292 
L 627.460082 361.954797 
L 638.840442 359.079147 
L 648 355.554621 
L 648 355.554621 
L 648 355.554621 
" clip-path="url(#p36b26eef4b)" style="fill: none; stroke: #1f77b4; stroke-width: 1.5"/>
    <path d="M 648 341.503448 
L 648 341.503448 
L 648 341.503448 
L 645.747389 337.220178 
L 640.611118 332.123091 
L 634.300487 327.581979 
L 625.647237 322.493302 
L 613.314417 316.314402 
L 600.575239 310.632769 
L 587.599754 305.29226 
L 574.214262 300.102873 
L 560.39805 294.991079 
L 545.608748 289.723364 
L 529.065667 284.014525 
L 512.011297 278.268144 
L 512.011297 278.268144 
L 501.328611 274.714129 
L 501.328611 274.714129 
L 493.227313 272.036026 
L 486.949059 269.967485 
L 480.050994 267.697814 
L 473.57418 265.565611 
L 468.278591 263.818088 
L 463.902946 262.368467 
L 460.280157 261.162108 
L 457.289144 260.16009 
L 454.833498 259.331861 
L 452.831464 258.651731 
L 451.211388 258.097214 
L 449.909877 257.648336 
L 448.871174 257.28739 
L 448.046933 256.998862 
L 447.395955 256.76938 
L 446.883744 256.587615 
L 446.481871 256.44412 
L 446.167228 256.331128 
L 445.921241 256.242329 
L 445.729114 256.172643 
L 445.579138 256.118012 
L 445.462098 256.075215 
L 445.370766 256.041704 
L 445.299489 256.015471 
L 445.243853 255.99494 
L 445.200414 255.978872 
L 445.166489 255.966297 
L 445.139986 255.956456 
L 445.119275 255.948752 
L 445.103085 255.942722 
L 445.090426 255.938001 
L 445.080525 255.934305 
L 445.07278 255.931411 
L 445.066719 255.929145 
L 445.061976 255.92737 
L 445.058263 255.92598 
L 445.055356 255.924891 
L 445.053079 255.924037 
L 445.051297 255.923369 
L 445.049901 255.922845 
L 445.048807 255.922435 
L 445.047951 255.922114 
L 445.04728 255.921862 
L 445.046754 255.921664 
L 445.046342 255.92151 
L 445.046019 255.921389 
L 445.045766 255.921294 
L 445.045568 255.921219 
L 445.045413 255.921161 
" clip-path="url(#p36b26eef4b)" style="fill: none; stroke: #1f77b4; stroke-width: 1.5"/>
    <path d="M 648 299.349931 
L 648 299.349931 
L 628.109318 295.05171 
L 608.393653 290.791376 
L 588.353763 286.461893 
L 568.115686 282.091786 
L 548.190499 277.792969 
L 528.713769 273.596505 
" clip-path="url(#p36b26eef4b)" style="fill: none; stroke: #1f77b4; stroke-width: 1.5"/>
    <path d="M 648 271.247586 
L 648 271.247586 
L 627.124979 268.043692 
L 606.243059 264.886365 
L 585.349916 261.7873 
L 564.472223 258.767028 
L 543.655293 255.855006 
L 522.904411 253.085867 
L 502.306659 250.525273 
L 482.670255 248.353225 
L 464.633747 246.756788 
L 448.71387 246.043362 
L 448.71387 246.043362 
L 441.189848 246.214937 
L 441.189848 246.214937 
L 436.6859 246.847138 
L 434.447024 247.839905 
L 433.925173 248.87944 
L 434.49308 250.055184 
L 436.030125 251.383308 
" clip-path="url(#p36b26eef4b)" style="fill: none; stroke: #1f77b4; stroke-width: 1.5"/>
    <path d="M 648 257.196414 
L 648 257.196414 
L 626.997981 254.316236 
L 605.976957 251.500314 
L 584.930916 248.763132 
L 563.859834 246.125176 
L 542.756809 243.614201 
L 521.592059 241.269457 
" clip-path="url(#p36b26eef4b)" style="fill: none; stroke: #1f77b4; stroke-width: 1.5"/>
    <path d="M 648 243.145241 
L 648 243.145241 
L 626.906203 240.501675 
L 605.788664 237.93647 
L 584.644293 235.46654 
L 563.468855 233.113915 
L 542.257611 230.90899 
L 521.002664 228.895482 
L 499.698933 227.141255 
L 478.370841 225.76232 
L 457.045304 224.978758 
L 435.733116 225.342854 
L 435.733116 225.342854 
L 427.340741 226.074681 
L 420.714872 227.206713 
L 416.436228 228.483283 
L 413.352232 230.13946 
L 411.686433 232.172179 
L 411.568337 234.628632 
L 413.198609 237.568395 
" clip-path="url(#p36b26eef4b)" style="fill: none; stroke: #1f77b4; stroke-width: 1.5"/>
    <path d="M 648 229.094069 
L 648 229.094069 
L 626.852299 226.636887 
L 605.680638 224.268495 
L 584.480935 222.00616 
L 563.249606 219.872633 
L 541.983175 217.898734 
L 520.674817 216.127608 
L 499.320463 214.623795 
L 477.940779 213.491567 
L 456.555891 212.913195 
L 435.166242 213.276601 
L 435.166242 213.276601 
L 423.922528 214.115259 
L 414.509329 215.516389 
L 408.143334 217.175356 
L 403.626498 219.196558 
L 400.841311 221.563467 
" clip-path="url(#p36b26eef4b)" style="fill: none; stroke: #1f77b4; stroke-width: 1.5"/>
    <path d="M 648 200.991724 
L 648 200.991724 
L 626.776837 198.800659 
L 605.528506 196.711151 
L 584.251352 194.741093 
L 562.943452 192.913602 
L 541.603633 191.258629 
L 520.22707 189.816228 
L 498.811602 188.643027 
L 477.374532 187.823437 
L 455.930932 187.489458 
L 434.478509 187.873186 
L 414.054055 189.35404 
L 414.054055 189.35404 
L 399.97315 191.509227 
L 399.97315 191.509227 
L 389.789076 194.281961 
L 389.789076 194.281961 
L 382.974416 197.495561 
L 378.713567 201.343527 
L 377.063429 204.954556 
L 377.091743 208.84212 
L 378.728077 213.118014 
L 382.102495 217.909316 
L 386.901975 222.834615 
" clip-path="url(#p36b26eef4b)" style="fill: none; stroke: #1f77b4; stroke-width: 1.5"/>
    <path d="M 648 186.940552 
L 648 186.940552 
L 626.751464 184.850983 
L 605.478522 182.868166 
L 584.177543 181.009648 
L 562.846831 179.29785 
L 541.48592 177.761843 
L 520.090767 176.439986 
L 498.660033 175.385391 
L 477.21045 174.674991 
L 455.756425 174.424627 
L 434.296656 174.826454 
L 413.489827 176.186526 
L 394.451369 178.932789 
L 394.451369 178.932789 
L 382.833834 181.972956 
L 382.833834 181.972956 
L 374.719636 185.546652 
L 374.719636 185.546652 
L 369.515525 189.583302 
L 366.650868 194.726591 
L 366.45349 199.605976 
L 367.862392 204.11337 
" clip-path="url(#p36b26eef4b)" style="fill: none; stroke: #1f77b4; stroke-width: 1.5"/>
    <path d="M 648 172.889379 
L 648 172.889379 
L 626.730875 170.886182 
L 605.437649 168.99322 
L 584.11685 167.227844 
L 562.76722 165.61205 
L 541.388948 164.174039 
L 519.978652 162.950512 
L 498.535644 161.991381 
L 477.076182 161.367248 
L 455.614147 161.181194 
L 434.148968 161.596617 
L 413.071577 162.871357 
L 393.073905 165.397328 
L 393.073905 165.397328 
L 379.033225 168.550897 
L 379.033225 168.550897 
L 368.988455 172.268683 
L 368.988455 172.268683 
L 362.105438 176.510357 
" clip-path="url(#p36b26eef4b)" style="fill: none; stroke: #1f77b4; stroke-width: 1.5"/>
    <path d="M 648 144.787034 
L 648 144.787034 
L 626.698612 142.922939 
L 605.373957 141.174714 
L 584.022878 139.559311 
L 562.644845 138.097915 
L 541.24106 136.817202 
L 519.809144 135.75111 
L 498.34934 134.944503 
L 476.877151 134.458534 
L 455.405638 134.378413 
L 433.935167 134.830633 
L 412.637353 136.006466 
L 391.778207 138.205268 
L 371.6411 141.991923 
L 371.6411 141.991923 
L 358.956509 145.885835 
L 358.956509 145.885835 
L 350.433831 149.827056 
L 344.167019 154.199218 
L 339.991116 158.893367 
L 337.59421 164.059773 
L 336.945273 169.855942 
L 338.190568 176.408169 
L 341.60883 183.884074 
L 347.615738 192.457059 
" clip-path="url(#p36b26eef4b)" style="fill: none; stroke: #1f77b4; stroke-width: 1.5"/>
    <path d="M 648 130.735862 
L 648 130.735862 
L 626.686148 128.930608 
L 605.349453 127.243268 
L 583.98689 125.690568 
L 562.598203 124.293287 
L 541.184969 123.077397 
L 519.745195 122.075647 
L 498.27947 121.330852 
L 476.802996 120.900541 
L 455.328525 120.863488 
L 433.856752 121.333909 
L 412.52794 122.479901 
L 391.552999 124.556619 
L 371.135688 128.018812 
L 371.135688 128.018812 
L 356.844576 131.873597 
L 356.844576 131.873597 
L 346.756711 135.910806 
L 338.901754 140.561993 
L 333.317401 145.696421 
L 329.776883 151.362734 
" clip-path="url(#p36b26eef4b)" style="fill: none; stroke: #1f77b4; stroke-width: 1.5"/>
    <path d="M 648 116.68469 
L 648 116.68469 
L 626.675167 114.931275 
L 605.327889 113.297455 
L 583.955261 111.79972 
L 562.55727 110.458448 
L 541.135822 109.298942 
L 519.689255 108.352852 
L 498.218449 107.661155 
L 476.73833 107.278221 
L 455.261374 107.277391 
L 433.78853 107.762894 
L 412.43476 108.884857 
L 391.368914 110.865917 
L 370.742171 114.085869 
L 370.742171 114.085869 
L 354.684907 118.021447 
L 354.684907 118.021447 
L 343.098109 122.224866 
" clip-path="url(#p36b26eef4b)" style="fill: none; stroke: #1f77b4; stroke-width: 1.5"/>
    <path d="M 648 102.633517 
L 648 102.633517 
L 626.665474 100.927054 
L 605.308921 99.342092 
L 583.927557 97.894957 
L 562.521591 96.605724 
L 541.093218 95.499167 
L 519.641063 94.606057 
L 498.166258 93.965878 
L 476.683542 93.630432 
L 455.205189 93.668654 
L 433.732367 94.176805 
L 412.365964 95.290524 
L 391.248047 97.206065 
L 370.489338 100.246311 
L 350.966126 104.811975 
L 350.966126 104.811975 
L 338.250262 109.293264 
" clip-path="url(#p36b26eef4b)" style="fill: none; stroke: #1f77b4; stroke-width: 1.5"/>
    <path d="M 648 88.582345 
L 648 88.582345 
L 626.656924 86.920083 
L 605.292221 85.380757 
L 583.903207 83.980509 
L 562.490282 82.739102 
" clip-path="url(#p36b26eef4b)" style="fill: none; stroke: #1f77b4; stroke-width: 1.5"/>
    <path d="M 648 74.531172 
L 648 74.531172 
L 626.649223 72.90872 
L 605.277192 71.410428 
L 583.881314 70.052255 
L 562.462162 68.853663 
L 541.022393 67.838434 
L 519.5611 67.035768 
L 498.079825 66.4826 
L 476.59298 66.226534 
L 455.112517 66.329619 
L 433.639958 66.876225 
L 412.257309 67.981464 
L 391.076098 69.805797 
L 370.173555 72.598524 
L 350.112347 76.673925 
L 332.020122 82.302434 
L 318.885553 88.491372 
L 309.407267 95.238318 
L 302.914842 102.503391 
L 299.00245 110.179197 
L 297.322701 118.110184 
L 297.561249 126.507215 
L 299.6925 135.667607 
L 303.846363 145.719501 
L 309.541728 155.709815 
L 316.036185 164.940814 
L 323.116314 173.58572 
" clip-path="url(#p36b26eef4b)" style="fill: none; stroke: #1f77b4; stroke-width: 1.5"/>
    <path d="M 648 65.033849 
L 645.39698 64.83352 
L 624.038974 63.250278 
L 602.659667 61.793708 
L 581.256466 60.48 
L 581.256466 60.48 
" clip-path="url(#p36b26eef4b)" style="fill: none; stroke: #1f77b4; stroke-width: 1.5"/>
    <path d="M 403.273707 60.48 
L 403.273707 60.48 
L 382.176873 62.640705 
L 361.382717 65.871764 
L 341.741919 70.467349 
L 325.061837 76.350013 
" clip-path="url(#p36b26eef4b)" style="fill: none; stroke: #1f77b4; stroke-width: 1.5"/>
    <path d="M 292.034483 60.48 
L 292.034483 60.48 
L 292.034483 60.48 
L 285.541731 67.898599 
L 281.216571 75.666734 
L 278.713794 83.964611 
L 277.932642 93.382002 
L 279.116665 104.058822 
" clip-path="url(#p36b26eef4b)" style="fill: none; stroke: #1f77b4; stroke-width: 1.5"/>
    <path d="M 203.043103 60.48 
L 203.043103 60.48 
L 215.712111 71.253208 
L 227.623449 82.053951 
L 238.677463 92.655543 
L 249.184021 103.207675 
L 259.376167 113.779548 
L 269.395623 124.349516 
L 279.493765 135.037922 
L 290.043406 146.091446 
L 300.354677 156.618629 
" clip-path="url(#p36b26eef4b)" style="fill: none; stroke: #1f77b4; stroke-width: 1.5"/>
    <path d="M 158.547414 60.48 
L 158.547414 60.48 
L 174.631836 69.28683 
L 190.220197 78.336793 
L 205.3555 87.682654 
L 220.037895 97.347772 
L 234.028035 107.164385 
L 247.171829 116.94416 
" clip-path="url(#p36b26eef4b)" style="fill: none; stroke: #1f77b4; stroke-width: 1.5"/>
    <path d="M 114.051724 60.48 
L 114.051724 60.48 
L 131.796584 68.095639 
L 149.294253 75.925472 
L 166.459719 83.964175 
L 183.243586 92.221047 
L 199.686818 100.751655 
" clip-path="url(#p36b26eef4b)" style="fill: none; stroke: #1f77b4; stroke-width: 1.5"/>
    <path d="M 69.556034 60.48 
L 69.556034 60.48 
L 88.138037 67.295955 
L 106.558228 74.252664 
L 124.806481 81.368072 
L 142.880027 88.666428 
L 160.72616 96.154906 
L 178.300121 103.845316 
L 195.592874 111.763789 
L 212.583976 119.931152 
L 229.091627 128.286005 
L 244.970553 136.764445 
L 260.385065 145.455302 
L 275.567947 154.48712 
" clip-path="url(#p36b26eef4b)" style="fill: none; stroke: #1f77b4; stroke-width: 1.5"/>
    <path d="M 25.060345 60.48 
L 25.060345 60.48 
L 44.128543 66.743578 
L 63.107511 73.108557 
L 81.986251 79.584797 
L 100.743953 86.180559 
L 119.36898 92.909327 
L 137.862798 99.792152 
" clip-path="url(#p36b26eef4b)" style="fill: none; stroke: #1f77b4; stroke-width: 1.5"/>
    <path d="M 2.8125 74.531172 
L 2.8125 74.531172 
L 22.218146 80.369402 
L 41.562917 86.278456 
L 60.845864 92.266733 
L 80.062659 98.342889 
L 99.201556 104.51468 
L 118.247882 110.789666 
L 137.191233 117.17817 
L 156.008155 123.688663 
L 174.664837 130.328033 
L 193.154626 137.11506 
L 211.497403 144.082093 
L 229.648066 151.240568 
L 247.46767 158.55875 
L 264.896335 166.030511 
L 281.989953 173.699495 
L 298.3852 181.405654 
L 313.820758 188.994177 
L 328.947006 196.74776 
L 343.807683 204.625114 
L 358.043076 212.335902 
L 358.043076 212.335902 
L 368.005892 217.776779 
" clip-path="url(#p36b26eef4b)" style="fill: none; stroke: #1f77b4; stroke-width: 1.5"/>
    <path d="M 2.8125 102.633517 
L 2.8125 102.633517 
L 22.538359 108.038469 
L 42.22782 113.488539 
L 61.878178 118.987856 
L 81.486022 124.541189 
L 101.043414 130.152809 
L 120.54663 135.829121 
L 139.998614 141.57968 
L 159.391375 147.412279 
L 178.709761 153.333743 
L 197.936055 159.350979 
L 217.058592 165.474909 
L 236.007173 171.699961 
L 254.72929 178.027091 
L 273.273416 184.494068 
" clip-path="url(#p36b26eef4b)" style="fill: none; stroke: #1f77b4; stroke-width: 1.5"/>
    <path d="M 2.8125 130.735862 
L 2.8125 130.735862 
L 22.827643 135.688198 
L 42.82819 140.661779 
L 62.815966 145.659221 
L 82.791653 150.683158 
L 102.747604 155.734263 
L 122.676228 160.813528 
L 142.577678 165.924509 
L 162.444741 171.069438 
L 182.27026 176.251197 
L 202.058168 181.476406 
L 221.81008 186.752206 
L 241.514277 192.083536 
L 261.181791 197.483088 
L 280.793303 202.956637 
L 300.176896 208.468653 
L 319.112762 213.96938 
L 337.53916 219.454006 
L 355.529942 224.961465 
" clip-path="url(#p36b26eef4b)" style="fill: none; stroke: #1f77b4; stroke-width: 1.5"/>
    <path d="M 2.8125 158.838207 
L 2.8125 158.838207 
L 23.101916 163.328731 
L 43.388557 167.817516 
L 63.673596 172.304731 
L 83.957417 176.790361 
L 104.239778 181.274241 
L 124.522331 185.756606 
L 144.808764 190.238123 
L 165.100633 194.718962 
L 185.393598 199.197974 
L 205.680274 203.67331 
L 225.953576 208.143141 
L 246.204972 212.605261 
L 266.431499 217.058618 
" clip-path="url(#p36b26eef4b)" style="fill: none; stroke: #1f77b4; stroke-width: 1.5"/>
    <path d="M 2.8125 172.889379 
L 2.8125 172.889379 
L 23.225627 177.145049 
L 43.643542 181.3894 
L 64.068055 185.621879 
L 84.500662 189.841749 
L 104.942927 194.048151 
L 125.394886 198.239793 
L 145.852822 202.414504 
" clip-path="url(#p36b26eef4b)" style="fill: none; stroke: #1f77b4; stroke-width: 1.5"/>
    <path d="M 2.8125 186.940552 
L 2.8125 186.940552 
L 23.349402 190.961267 
L 43.898216 194.961967 
L 64.45846 198.941037 
L 85.027396 202.896309 
" clip-path="url(#p36b26eef4b)" style="fill: none; stroke: #1f77b4; stroke-width: 1.5"/>
    <path d="M 2.8125 200.991724 
L 2.8125 200.991724 
L 23.462288 204.775912 
L 44.122425 208.531189 
L 64.793996 212.255706 
L 85.477961 215.947357 
L 106.175273 219.603759 
L 126.887459 223.2223 
L 147.61653 226.80005 
L 168.364173 230.333526 
L 189.132922 233.818773 
L 209.926999 237.251326 
L 230.751254 240.625785 
L 251.604184 243.934739 
L 272.480157 247.168632 
L 293.378342 250.316067 
L 314.299728 253.362308 
L 335.24598 256.287334 
L 356.221075 259.062617 
L 376.888997 261.603903 
L 396.749709 263.799688 
L 415.483141 265.541128 
L 432.468132 266.643167 
L 432.468132 266.643167 
L 440.499144 266.906047 
L 446.419259 266.891142 
L 451.228605 266.631777 
L 454.829367 266.121809 
L 457.168878 265.362787 
L 458.22965 264.386667 
" clip-path="url(#p36b26eef4b)" style="fill: none; stroke: #1f77b4; stroke-width: 1.5"/>
    <path d="M 2.8125 215.042897 
L 2.8125 215.042897 
L 23.563012 218.589727 
L 44.327721 222.100754 
L 65.107929 225.573803 
L 85.904965 229.006435 
L 106.720308 232.39592 
" clip-path="url(#p36b26eef4b)" style="fill: none; stroke: #1f77b4; stroke-width: 1.5"/>
    <path d="M 2.8125 243.145241 
L 2.8125 243.145241 
L 23.758011 246.220308 
L 44.718353 249.248627 
L 65.694254 252.227698 
L 86.686484 255.154757 
L 107.695872 258.026735 
L 128.723359 260.840201 
L 149.770002 263.591286 
L 170.836889 266.275568 
L 191.925277 268.887963 
L 213.036727 271.422555 
L 234.17278 273.872324 
L 255.335178 276.228829 
L 276.526334 278.481784 
L 297.748799 280.618282 
L 319.004887 282.621679 
L 340.29834 284.470022 
L 361.635147 286.133127 
L 383.011379 287.566905 
L 404.422073 288.703789 
L 425.876009 289.428494 
L 446.834606 289.515151 
L 466.066658 288.577948 
L 466.066658 288.577948 
L 477.143455 287.087357 
L 477.143455 287.087357 
L 483.444163 285.37626 
L 487.219724 283.223619 
L 488.506819 281.185543 
L 488.242513 278.973624 
" clip-path="url(#p36b26eef4b)" style="fill: none; stroke: #1f77b4; stroke-width: 1.5"/>
    <path d="M 2.8125 257.196414 
L 2.8125 257.196414 
L 23.834855 260.036824 
L 44.873132 262.826883 
L 65.928049 265.564104 
L 87.000359 268.245747 
L 108.090863 270.868774 
L 129.200483 273.429796 
L 150.330248 275.925001 
L 171.4812 278.350042 
L 192.654554 280.69993 
L 213.851833 282.968884 
L 235.074493 285.150058 
L 256.323513 287.235309 
" clip-path="url(#p36b26eef4b)" style="fill: none; stroke: #1f77b4; stroke-width: 1.5"/>
    <path d="M 2.8125 271.247586 
L 2.8125 271.247586 
L 23.910989 273.85551 
L 45.026136 276.410562 
L 66.158624 278.910351 
L 87.309162 281.352241 
L 108.478499 283.733316 
L 129.667502 286.050331 
L 150.875572 288.299708 
" clip-path="url(#p36b26eef4b)" style="fill: none; stroke: #1f77b4; stroke-width: 1.5"/>
    <path d="M 2.8125 299.349931 
L 2.8125 299.349931 
L 24.0407 301.500394 
L 45.281751 303.596484 
L 66.535938 305.636241 
L 87.803496 307.61751 
L 109.084628 309.53791 
L 130.379631 311.394803 
L 151.68883 313.185237 
L 173.012381 314.905858 
L 194.350535 316.552858 
L 215.703808 318.121872 
L 237.072254 319.607786 
L 258.455903 321.004592 
L 279.855411 322.305178 
L 301.270844 323.500915 
L 322.701636 324.581191 
L 344.148135 325.532816 
L 365.610772 326.338952 
L 387.086225 326.977441 
L 408.571921 327.418523 
L 430.069487 327.620492 
L 451.527475 327.522079 
L 472.858803 327.030983 
L 493.966037 325.993413 
L 514.14088 324.174676 
L 514.14088 324.174676 
L 528.125169 322.074425 
L 539.475822 319.279059 
L 546.282282 316.44667 
L 550.135125 313.52054 
L 551.750137 310.382124 
L 551.31536 306.927343 
" clip-path="url(#p36b26eef4b)" style="fill: none; stroke: #1f77b4; stroke-width: 1.5"/>
    <path d="M 2.8125 313.401103 
L 2.8125 313.401103 
L 24.09375 315.327541 
L 45.387095 317.200453 
L 66.692739 319.018131 
L 88.010802 320.778694 
L 109.341354 322.480059 
L 130.684577 324.119925 
L 152.040656 325.695709 
L 173.409569 327.20448 
L 194.791389 328.642915 
L 216.186462 330.007212 
" clip-path="url(#p36b26eef4b)" style="fill: none; stroke: #1f77b4; stroke-width: 1.5"/>
    <path d="M 2.8125 341.503448 
L 2.8125 341.503448 
L 24.184134 342.992814 
L 45.56359 344.433717 
L 66.95094 345.82504 
L 88.346156 347.165538 
L 109.749157 348.453824 
L 131.159984 349.688353 
L 152.578676 350.867381 
L 174.005085 351.988925 
L 195.439163 353.050728 
L 216.881096 354.050214 
L 238.330619 354.98438 
L 259.787459 355.849739 
L 281.251872 356.642225 
L 302.723592 357.357005 
L 324.201991 357.988307 
L 345.687073 358.529194 
L 367.178716 358.971193 
L 388.67513 359.303797 
L 410.175049 359.513832 
L 431.678905 359.584433 
L 453.180075 359.493484 
L 474.67016 359.211342 
L 496.146006 358.69657 
L 517.568984 357.889849 
L 538.857182 356.702877 
L 559.918976 354.989727 
L 580.354416 352.512357 
L 580.354416 352.512357 
L 595.488739 349.760192 
L 608.040363 346.202778 
L 615.992124 342.345244 
L 620.111856 338.192022 
" clip-path="url(#p36b26eef4b)" style="fill: none; stroke: #1f77b4; stroke-width: 1.5"/>
    <path d="M 2.8125 383.656966 
L 2.8125 383.656966 
L 24.271853 384.524014 
L 45.734363 385.356965 
L 67.200046 386.155436 
L 88.668845 386.918979 
L 110.140667 387.647065 
L 131.615502 388.33908 
L 153.093336 388.994309 
L 174.574043 389.611915 
L 196.05756 390.190929 
" clip-path="url(#p36b26eef4b)" style="fill: none; stroke: #1f77b4; stroke-width: 1.5"/>
    <path d="M 648 160.862855 
L 647.037483 160.772929 
L 625.752155 158.838207 
L 604.442862 157.016801 
L 583.106221 155.326018 
" clip-path="url(#p36b26eef4b)" style="fill: none; stroke: #1f77b4; stroke-width: 1.5"/>
    <path d="M 514.512931 74.531172 
L 493.030775 74.021705 
L 471.546245 73.824816 
L 450.067892 74.008882 
L 428.613209 74.667945 
" clip-path="url(#p36b26eef4b)" style="fill: none; stroke: #1f77b4; stroke-width: 1.5"/>
    <path d="M 2.8125 325.644926 
L 3.732971 325.720792 
L 25.060345 327.452276 
L 46.398979 329.131709 
L 67.749003 330.757613 
" clip-path="url(#p36b26eef4b)" style="fill: none; stroke: #1f77b4; stroke-width: 1.5"/>
    <path d="M 2.8125 368.479165 
L 3.626896 368.521149 
L 25.060345 369.605793 
L 46.499232 370.650102 
L 67.943519 371.653447 
" clip-path="url(#p36b26eef4b)" style="fill: none; stroke: #1f77b4; stroke-width: 1.5"/>
    <path d="M 199.658791 335.375977 
L 221.072075 336.621965 
L 242.495501 337.791908 
L 263.929007 338.880971 
L 285.373158 339.883457 
L 306.827541 340.792496 
L 328.291523 341.59976 
L 349.765638 342.295056 
L 371.249286 342.865584 
L 392.739946 343.294996 
L 414.236552 343.56202 
L 435.738417 343.638061 
L 457.232434 343.483356 
L 478.703812 343.04029 
L 500.145033 342.219067 
L 521.433815 340.874486 
L 542.092765 338.773892 
L 556.97394 336.424888 
L 567.678247 333.889322 
L 575.333519 331.13843 
L 581.256466 327.452276 
L 581.256466 327.452276 
L 581.256466 327.452276 
L 583.680095 324.009443 
L 583.96454 320.891522 
L 582.476862 317.245129 
L 578.876974 313.07394 
L 572.784133 308.28903 
" clip-path="url(#p36b26eef4b)" style="fill: none; stroke: #1f77b4; stroke-width: 1.5"/>
    <path d="M 2.8125 112.916983 
L 10.179093 114.861208 
L 30.000772 120.1143 
L 49.792956 125.404452 
L 69.556034 130.735862 
" clip-path="url(#p36b26eef4b)" style="fill: none; stroke: #1f77b4; stroke-width: 1.5"/>
    <path d="M 2.8125 143.038739 
L 9.158692 144.535292 
L 29.298913 149.291177 
L 49.432355 154.058704 
L 69.556034 158.838207 
" clip-path="url(#p36b26eef4b)" style="fill: none; stroke: #1f77b4; stroke-width: 1.5"/>
    <path d="M 559.008621 200.991724 
L 537.679673 199.287514 
L 516.310012 197.802519 
L 494.901389 196.600252 
L 473.472672 195.778453 
L 452.035521 195.497211 
L 430.715906 196.054273 
L 430.715906 196.054273 
L 414.336529 197.445282 
L 414.336529 197.445282 
L 402.577699 199.417595 
L 393.29884 202.256771 
" clip-path="url(#p36b26eef4b)" style="fill: none; stroke: #1f77b4; stroke-width: 1.5"/>
    <path d="M 536.760776 144.787034 
L 515.327344 143.728006 
L 493.867799 142.941708 
L 472.3985 142.496225 
L 450.929025 142.488686 
L 429.487752 143.067073 
L 408.29419 144.459962 
" clip-path="url(#p36b26eef4b)" style="fill: none; stroke: #1f77b4; stroke-width: 1.5"/>
    <path d="M 72.254595 236.747008 
L 93.142961 239.970808 
L 114.051724 243.145241 
L 134.978738 246.266595 
L 155.923258 249.330838 
L 176.886407 252.333477 
L 197.869505 255.269309 
L 218.874131 258.132228 
L 239.901818 260.914903 
L 260.954409 263.608439 
L 282.034504 266.201852 
L 303.144351 268.681047 
L 324.286278 271.0275 
L 345.464607 273.216125 
L 366.644339 275.207339 
L 387.669089 276.935351 
" clip-path="url(#p36b26eef4b)" style="fill: none; stroke: #1f77b4; stroke-width: 1.5"/>
    <path d="M 92.809219 297.258101 
L 114.051724 299.349931 
L 135.309037 301.376691 
L 156.581551 303.335052 
L 177.869587 305.221221 
" clip-path="url(#p36b26eef4b)" style="fill: none; stroke: #1f77b4; stroke-width: 1.5"/>
    <path d="M 225.290948 383.656966 
L 246.777304 384.214817 
L 268.266703 384.723963 
L 289.759272 385.182118 
L 311.254636 385.586596 
L 332.752419 385.934236 
L 354.252772 386.221305 
L 375.755231 386.443348 
L 397.258987 386.595015 
L 418.763827 386.66984 
L 440.269191 386.659904 
L 461.773082 386.555408 
L 483.273916 386.344049 
" clip-path="url(#p36b26eef4b)" style="fill: none; stroke: #1f77b4; stroke-width: 1.5"/>
    <path d="M 271.79634 311.375287 
L 293.172926 312.796502 
L 314.568112 314.099347 
L 335.982126 315.269666 
L 357.416822 316.289346 
L 378.869984 317.134226 
L 400.338301 317.771328 
L 421.823294 318.153676 
L 443.250668 318.210291 
L 464.41667 317.834533 
L 485.082894 316.853193 
L 500.225989 315.527394 
L 514.512931 313.401103 
L 514.512931 313.401103 
L 514.512931 313.401103 
L 522.971176 311.350336 
" clip-path="url(#p36b26eef4b)" style="fill: none; stroke: #1f77b4; stroke-width: 1.5"/>
    <path d="M 489.062404 305.899756 
L 499.990715 304.274454 
L 508.688451 302.079847 
L 514.512931 299.349931 
L 514.512931 299.349931 
L 514.512931 299.349931 
L 517.085796 296.602316 
L 517.415048 293.483169 
L 515.240515 289.696712 
L 510.251859 285.315482 
L 504.204055 281.385427 
L 504.204055 281.385427 
" clip-path="url(#p36b26eef4b)" style="fill: none; stroke: #1f77b4; stroke-width: 1.5"/>
    <path d="M 137.966731 211.144918 
L 158.547414 215.042897 
L 179.137834 218.908043 
L 199.740141 222.737285 
L 220.357334 226.527019 
L 240.990114 230.272348 
L 261.642656 233.967837 
L 282.326433 237.607686 
L 303.054406 241.183872 
L 323.81855 244.681822 
L 344.601654 248.08033 
" clip-path="url(#p36b26eef4b)" style="fill: none; stroke: #1f77b4; stroke-width: 1.5"/>
    <path d="M 300.454169 293.262083 
L 321.787868 294.932199 
L 343.148471 296.448581 
L 364.538751 297.784228 
L 385.955922 298.900814 
L 407.398712 299.74167 
L 428.874564 300.215895 
L 449.991896 300.167251 
L 470.017241 299.349931 
" clip-path="url(#p36b26eef4b)" style="fill: none; stroke: #1f77b4; stroke-width: 1.5"/>
    <path d="M 301.877109 226.305189 
L 321.928708 230.601438 
L 341.895289 234.862637 
L 361.900059 239.110525 
L 381.025862 243.145241 
" clip-path="url(#p36b26eef4b)" style="fill: none; stroke: #1f77b4; stroke-width: 1.5"/>
   </g>
   <g id="patch_3">
    <path d="M 327.378427 465.691817 
Q 330.75781 465.683661 332.460147 465.679552 
" clip-path="url(#p36b26eef4b)" style="fill: none; stroke: #1f77b4; stroke-width: 1.5; stroke-linecap: round"/>
    <path d="M 328.455332 463.689212 
L 332.460147 465.679552 
L 328.464985 467.6892 
z
" clip-path="url(#p36b26eef4b)" style="fill: #1f77b4; stroke: #1f77b4; stroke-width: 1.5; stroke-linecap: round"/>
   </g>
   <g id="patch_4">
    <path d="M 305.916148 453.590938 
Q 309.295489 453.588119 310.997781 453.586699 
" clip-path="url(#p36b26eef4b)" style="fill: none; stroke: #1f77b4; stroke-width: 1.5; stroke-linecap: round"/>
    <path d="M 306.996114 451.590036 
L 310.997781 453.586699 
L 306.99945 455.590035 
z
" clip-path="url(#p36b26eef4b)" style="fill: #1f77b4; stroke: #1f77b4; stroke-width: 1.5; stroke-linecap: round"/>
   </g>
   <g id="patch_5">
    <path d="M 305.924593 440.299819 
Q 309.303907 440.305868 311.006174 440.308915 
" clip-path="url(#p36b26eef4b)" style="fill: none; stroke: #1f77b4; stroke-width: 1.5; stroke-linecap: round"/>
    <path d="M 307.00976 438.301758 
L 311.006174 440.308915 
L 307.0026 442.301752 
z
" clip-path="url(#p36b26eef4b)" style="fill: #1f77b4; stroke: #1f77b4; stroke-width: 1.5; stroke-linecap: round"/>
   </g>
   <g id="patch_6">
    <path d="M 305.935308 427.227761 
Q 309.314594 427.24343 311.016846 427.251322 
" clip-path="url(#p36b26eef4b)" style="fill: none; stroke: #1f77b4; stroke-width: 1.5; stroke-linecap: round"/>
    <path d="M 307.026162 425.232798 
L 311.016846 427.251322 
L 307.007616 429.232755 
z
" clip-path="url(#p36b26eef4b)" style="fill: #1f77b4; stroke: #1f77b4; stroke-width: 1.5; stroke-linecap: round"/>
   </g>
   <g id="patch_7">
    <path d="M 306.073939 414.36477 
Q 309.452955 414.391601 311.154972 414.405116 
" clip-path="url(#p36b26eef4b)" style="fill: none; stroke: #1f77b4; stroke-width: 1.5; stroke-linecap: round"/>
    <path d="M 307.170979 412.373418 
L 311.154972 414.405116 
L 307.139218 416.373292 
z
" clip-path="url(#p36b26eef4b)" style="fill: #1f77b4; stroke: #1f77b4; stroke-width: 1.5; stroke-linecap: round"/>
   </g>
   <g id="patch_8">
    <path d="M 306.320999 401.896967 
Q 309.699594 401.936127 311.40125 401.95585 
" clip-path="url(#p36b26eef4b)" style="fill: none; stroke: #1f77b4; stroke-width: 1.5; stroke-linecap: round"/>
    <path d="M 307.424699 399.909625 
L 311.40125 401.95585 
L 307.37834 403.909356 
z
" clip-path="url(#p36b26eef4b)" style="fill: #1f77b4; stroke: #1f77b4; stroke-width: 1.5; stroke-linecap: round"/>
   </g>
   <g id="patch_9">
    <path d="M 564.64245 389.046607 
Q 568.005212 388.907063 569.692365 388.837052 
" clip-path="url(#p36b26eef4b)" style="fill: none; stroke: #1f77b4; stroke-width: 1.5; stroke-linecap: round"/>
    <path d="M 565.612882 387.004616 
L 569.692365 388.837052 
L 565.778726 391.001177 
z
" clip-path="url(#p36b26eef4b)" style="fill: #1f77b4; stroke: #1f77b4; stroke-width: 1.5; stroke-linecap: round"/>
   </g>
   <g id="patch_10">
    <path d="M 316.966444 371.579867 
Q 320.337393 371.650352 322.031657 371.685778 
" clip-path="url(#p36b26eef4b)" style="fill: none; stroke: #1f77b4; stroke-width: 1.5; stroke-linecap: round"/>
    <path d="M 318.074341 369.602596 
L 322.031657 371.685778 
L 317.990721 373.601722 
z
" clip-path="url(#p36b26eef4b)" style="fill: #1f77b4; stroke: #1f77b4; stroke-width: 1.5; stroke-linecap: round"/>
   </g>
   <g id="patch_11">
    <path d="M 558.516891 294.32104 
Q 556.701046 293.674265 556.46503 293.5902 
" clip-path="url(#p36b26eef4b)" style="fill: none; stroke: #1f77b4; stroke-width: 1.5; stroke-linecap: round"/>
    <path d="M 559.562069 296.816396 
L 556.46503 293.5902 
L 560.904211 293.048286 
z
" clip-path="url(#p36b26eef4b)" style="fill: #1f77b4; stroke: #1f77b4; stroke-width: 1.5; stroke-linecap: round"/>
   </g>
   <g id="patch_12">
    <path d="M 606.439078 290.369103 
Q 603.385028 289.709296 601.97021 289.403634 
" clip-path="url(#p36b26eef4b)" style="fill: none; stroke: #1f77b4; stroke-width: 1.5; stroke-linecap: round"/>
    <path d="M 605.457664 292.203218 
L 601.97021 289.403634 
L 606.302349 288.293421 
z
" clip-path="url(#p36b26eef4b)" style="fill: #1f77b4; stroke: #1f77b4; stroke-width: 1.5; stroke-linecap: round"/>
   </g>
   <g id="patch_13">
    <path d="M 541.671902 255.590329 
Q 538.465467 255.16244 536.921347 254.956382 
" clip-path="url(#p36b26eef4b)" style="fill: none; stroke: #1f77b4; stroke-width: 1.5; stroke-linecap: round"/>
    <path d="M 540.621651 257.467906 
L 536.921347 254.956382 
L 541.150748 253.503053 
z
" clip-path="url(#p36b26eef4b)" style="fill: #1f77b4; stroke: #1f77b4; stroke-width: 1.5; stroke-linecap: round"/>
   </g>
   <g id="patch_14">
    <path d="M 582.947786 248.514857 
Q 579.663376 248.103672 578.043028 247.900815 
" clip-path="url(#p36b26eef4b)" style="fill: none; stroke: #1f77b4; stroke-width: 1.5; stroke-linecap: round"/>
    <path d="M 581.763598 250.382217 
L 578.043028 247.900815 
L 582.260492 246.4132 
z
" clip-path="url(#p36b26eef4b)" style="fill: #1f77b4; stroke: #1f77b4; stroke-width: 1.5; stroke-linecap: round"/>
   </g>
   <g id="patch_15">
    <path d="M 540.267554 230.72047 
Q 536.946282 230.405841 535.294586 230.249374 
" clip-path="url(#p36b26eef4b)" style="fill: none; stroke: #1f77b4; stroke-width: 1.5; stroke-linecap: round"/>
    <path d="M 539.08814 232.617696 
L 535.294586 230.249374 
L 539.465376 228.635524 
z
" clip-path="url(#p36b26eef4b)" style="fill: #1f77b4; stroke: #1f77b4; stroke-width: 1.5; stroke-linecap: round"/>
   </g>
   <g id="patch_16">
    <path d="M 539.988118 217.732908 
Q 536.654271 217.455802 534.991713 217.317612 
" clip-path="url(#p36b26eef4b)" style="fill: none; stroke: #1f77b4; stroke-width: 1.5; stroke-linecap: round"/>
    <path d="M 538.8123 219.642072 
L 534.991713 217.317612 
L 539.143633 215.655818 
z
" clip-path="url(#p36b26eef4b)" style="fill: #1f77b4; stroke: #1f77b4; stroke-width: 1.5; stroke-linecap: round"/>
   </g>
   <g id="patch_17">
    <path d="M 518.232441 189.706956 
Q 514.873556 189.522947 513.189211 189.430674 
" clip-path="url(#p36b26eef4b)" style="fill: none; stroke: #1f77b4; stroke-width: 1.5; stroke-linecap: round"/>
    <path d="M 517.073821 191.646483 
L 513.189211 189.430674 
L 517.292624 187.652472 
z
" clip-path="url(#p36b26eef4b)" style="fill: #1f77b4; stroke: #1f77b4; stroke-width: 1.5; stroke-linecap: round"/>
   </g>
   <g id="patch_18">
    <path d="M 518.094716 176.341762 
Q 514.733437 176.176355 513.047182 176.093375 
" clip-path="url(#p36b26eef4b)" style="fill: none; stroke: #1f77b4; stroke-width: 1.5; stroke-linecap: round"/>
    <path d="M 516.944047 178.287558 
L 513.047182 176.093375 
L 517.140648 174.292392 
z
" clip-path="url(#p36b26eef4b)" style="fill: #1f77b4; stroke: #1f77b4; stroke-width: 1.5; stroke-linecap: round"/>
   </g>
   <g id="patch_19">
    <path d="M 517.981458 162.861179 
Q 514.618254 162.710745 512.930425 162.63525 
" clip-path="url(#p36b26eef4b)" style="fill: none; stroke: #1f77b4; stroke-width: 1.5; stroke-linecap: round"/>
    <path d="M 516.83706 164.811991 
L 512.930425 162.63525 
L 517.015799 160.815986 
z
" clip-path="url(#p36b26eef4b)" style="fill: #1f77b4; stroke: #1f77b4; stroke-width: 1.5; stroke-linecap: round"/>
   </g>
   <g id="patch_20">
    <path d="M 474.877301 134.451072 
Q 471.509626 134.438505 469.818991 134.432197 
" clip-path="url(#p36b26eef4b)" style="fill: none; stroke: #1f77b4; stroke-width: 1.5; stroke-linecap: round"/>
    <path d="M 473.8115 136.447109 
L 469.818991 134.432197 
L 473.826426 132.447137 
z
" clip-path="url(#p36b26eef4b)" style="fill: #1f77b4; stroke: #1f77b4; stroke-width: 1.5; stroke-linecap: round"/>
   </g>
   <g id="patch_21">
    <path d="M 496.279159 121.290773 
Q 492.910706 121.223281 491.218967 121.189385 
" clip-path="url(#p36b26eef4b)" style="fill: none; stroke: #1f77b4; stroke-width: 1.5; stroke-linecap: round"/>
    <path d="M 495.178099 123.269113 
L 491.218967 121.189385 
L 495.258229 119.269916 
z
" clip-path="url(#p36b26eef4b)" style="fill: #1f77b4; stroke: #1f77b4; stroke-width: 1.5; stroke-linecap: round"/>
   </g>
   <g id="patch_22">
    <path d="M 496.217798 107.625488 
Q 492.848773 107.565428 491.156533 107.535259 
" clip-path="url(#p36b26eef4b)" style="fill: none; stroke: #1f77b4; stroke-width: 1.5; stroke-linecap: round"/>
    <path d="M 495.120248 109.60624 
L 491.156533 107.535259 
L 495.191546 105.606875 
z
" clip-path="url(#p36b26eef4b)" style="fill: #1f77b4; stroke: #1f77b4; stroke-width: 1.5; stroke-linecap: round"/>
   </g>
   <g id="patch_23">
    <path d="M 496.165366 93.934635 
Q 492.795933 93.882022 491.103347 93.855593 
" clip-path="url(#p36b26eef4b)" style="fill: none; stroke: #1f77b4; stroke-width: 1.5; stroke-linecap: round"/>
    <path d="M 495.071634 95.9178 
L 491.103347 93.855593 
L 495.134085 91.918288 
z
" clip-path="url(#p36b26eef4b)" style="fill: #1f77b4; stroke: #1f77b4; stroke-width: 1.5; stroke-linecap: round"/>
   </g>
   <g id="patch_24">
    <path d="M 603.294833 85.249997 
Q 599.942111 85.030508 598.262857 84.920574 
" clip-path="url(#p36b26eef4b)" style="fill: none; stroke: #1f77b4; stroke-width: 1.5; stroke-linecap: round"/>
    <path d="M 602.123661 87.177606 
L 598.262857 84.920574 
L 602.384965 83.18615 
z
" clip-path="url(#p36b26eef4b)" style="fill: #1f77b4; stroke: #1f77b4; stroke-width: 1.5; stroke-linecap: round"/>
   </g>
   <g id="patch_25">
    <path d="M 453.112571 66.380529 
Q 449.744731 66.466261 448.0534 66.509316 
" clip-path="url(#p36b26eef4b)" style="fill: none; stroke: #1f77b4; stroke-width: 1.5; stroke-linecap: round"/>
    <path d="M 452.103 68.406877 
L 448.0534 66.509316 
L 452.001209 64.408172 
z
" clip-path="url(#p36b26eef4b)" style="fill: #1f77b4; stroke: #1f77b4; stroke-width: 1.5; stroke-linecap: round"/>
   </g>
   <g id="patch_26">
    <path d="M 622.042493 63.114258 
Q 618.695537 62.88623 617.021753 62.772195 
" clip-path="url(#p36b26eef4b)" style="fill: none; stroke: #1f77b4; stroke-width: 1.5; stroke-linecap: round"/>
    <path d="M 620.876557 65.039459 
L 617.021753 62.772195 
L 621.148446 61.04871 
z
" clip-path="url(#p36b26eef4b)" style="fill: #1f77b4; stroke: #1f77b4; stroke-width: 1.5; stroke-linecap: round"/>
   </g>
   <g id="patch_27">
    <path d="M 380.199499 62.947955 
Q 376.978387 63.448461 375.414439 63.691472 
" clip-path="url(#p36b26eef4b)" style="fill: none; stroke: #1f77b4; stroke-width: 1.5; stroke-linecap: round"/>
    <path d="M 379.67409 65.053595 
L 375.414439 63.691472 
L 379.059928 61.101025 
z
" clip-path="url(#p36b26eef4b)" style="fill: #1f77b4; stroke: #1f77b4; stroke-width: 1.5; stroke-linecap: round"/>
   </g>
   <g id="patch_28">
    <path d="M 280.638537 77.583187 
Q 280.590534 77.742339 281.026809 76.295883 
" clip-path="url(#p36b26eef4b)" style="fill: none; stroke: #1f77b4; stroke-width: 1.5; stroke-linecap: round"/>
    <path d="M 284.096678 73.043822 
L 281.026809 76.295883 
L 280.267081 71.888751 
z
" clip-path="url(#p36b26eef4b)" style="fill: #1f77b4; stroke: #1f77b4; stroke-width: 1.5; stroke-linecap: round"/>
   </g>
   <g id="patch_29">
    <path d="M 250.570014 104.645305 
Q 251.73032 105.848841 251.726653 105.845037 
" clip-path="url(#p36b26eef4b)" style="fill: none; stroke: #1f77b4; stroke-width: 1.5; stroke-linecap: round"/>
    <path d="M 250.390251 101.577247 
L 251.726653 105.845037 
L 247.51058 104.353484 
z
" clip-path="url(#p36b26eef4b)" style="fill: #1f77b4; stroke: #1f77b4; stroke-width: 1.5; stroke-linecap: round"/>
   </g>
   <g id="patch_30">
    <path d="M 191.923657 79.388659 
Q 194.003899 80.673182 194.657207 81.076592 
" clip-path="url(#p36b26eef4b)" style="fill: none; stroke: #1f77b4; stroke-width: 1.5; stroke-linecap: round"/>
    <path d="M 192.304562 77.273296 
L 194.657207 81.076592 
L 190.202983 80.67673 
z
" clip-path="url(#p36b26eef4b)" style="fill: #1f77b4; stroke: #1f77b4; stroke-width: 1.5; stroke-linecap: round"/>
   </g>
   <g id="patch_31">
    <path d="M 151.108864 76.775266 
Q 153.585772 77.935219 154.54392 78.383926 
" clip-path="url(#p36b26eef4b)" style="fill: none; stroke: #1f77b4; stroke-width: 1.5; stroke-linecap: round"/>
    <path d="M 151.769677 74.876281 
L 154.54392 78.383926 
L 150.073258 78.498733 
z
" clip-path="url(#p36b26eef4b)" style="fill: #1f77b4; stroke: #1f77b4; stroke-width: 1.5; stroke-linecap: round"/>
   </g>
   <g id="patch_32">
    <path d="M 162.558211 96.956617 
Q 165.120464 98.077865 166.146332 98.526787 
" clip-path="url(#p36b26eef4b)" style="fill: none; stroke: #1f77b4; stroke-width: 1.5; stroke-linecap: round"/>
    <path d="M 163.283636 95.090951 
L 166.146332 98.526787 
L 161.680046 98.755442 
z
" clip-path="url(#p36b26eef4b)" style="fill: #1f77b4; stroke: #1f77b4; stroke-width: 1.5; stroke-linecap: round"/>
   </g>
   <g id="patch_33">
    <path d="M 65.001837 73.758394 
Q 67.829387 74.728368 69.070627 75.154169 
" clip-path="url(#p36b26eef4b)" style="fill: none; stroke: #1f77b4; stroke-width: 1.5; stroke-linecap: round"/>
    <path d="M 65.936026 71.964455 
L 69.070627 75.154169 
L 64.638096 75.748022 
z
" clip-path="url(#p36b26eef4b)" style="fill: #1f77b4; stroke: #1f77b4; stroke-width: 1.5; stroke-linecap: round"/>
   </g>
   <g id="patch_34">
    <path d="M 176.538192 131.015683 
Q 179.286322 132.024436 180.460114 132.455299 
" clip-path="url(#p36b26eef4b)" style="fill: none; stroke: #1f77b4; stroke-width: 1.5; stroke-linecap: round"/>
    <path d="M 177.394272 129.19944 
L 180.460114 132.455299 
L 176.015922 132.954457 
z
" clip-path="url(#p36b26eef4b)" style="fill: #1f77b4; stroke: #1f77b4; stroke-width: 1.5; stroke-linecap: round"/>
   </g>
   <g id="patch_35">
    <path d="M 122.460485 136.394911 
Q 125.407202 137.266044 126.745673 137.661734 
" clip-path="url(#p36b26eef4b)" style="fill: none; stroke: #1f77b4; stroke-width: 1.5; stroke-linecap: round"/>
    <path d="M 123.476782 134.609791 
L 126.745673 137.661734 
L 122.342784 138.445681 
z
" clip-path="url(#p36b26eef4b)" style="fill: #1f77b4; stroke: #1f77b4; stroke-width: 1.5; stroke-linecap: round"/>
   </g>
   <g id="patch_36">
    <path d="M 164.378406 171.574836 
Q 167.399787 172.364529 168.798622 172.73014 
" clip-path="url(#p36b26eef4b)" style="fill: none; stroke: #1f77b4; stroke-width: 1.5; stroke-linecap: round"/>
    <path d="M 165.434371 169.783647 
L 168.798622 172.73014 
L 164.422877 173.653644 
z
" clip-path="url(#p36b26eef4b)" style="fill: #1f77b4; stroke: #1f77b4; stroke-width: 1.5; stroke-linecap: round"/>
   </g>
   <g id="patch_37">
    <path d="M 126.476188 186.188236 
Q 129.593183 186.876818 131.07261 187.203641 
" clip-path="url(#p36b26eef4b)" style="fill: none; stroke: #1f77b4; stroke-width: 1.5; stroke-linecap: round"/>
    <path d="M 127.598203 184.387882 
L 131.07261 187.203641 
L 126.735358 188.293711 
z
" clip-path="url(#p36b26eef4b)" style="fill: #1f77b4; stroke: #1f77b4; stroke-width: 1.5; stroke-linecap: round"/>
   </g>
   <g id="patch_38">
    <path d="M 66.026014 186.026249 
Q 69.17733 186.677078 70.686257 186.988711 
" clip-path="url(#p36b26eef4b)" style="fill: none; stroke: #1f77b4; stroke-width: 1.5; stroke-linecap: round"/>
    <path d="M 67.173443 184.221015 
L 70.686257 186.988711 
L 66.364412 188.138344 
z
" clip-path="url(#p36b26eef4b)" style="fill: #1f77b4; stroke: #1f77b4; stroke-width: 1.5; stroke-linecap: round"/>
   </g>
   <g id="patch_39">
    <path d="M 45.863386 195.342291 
Q 49.040363 195.957139 50.570841 196.253335 
" clip-path="url(#p36b26eef4b)" style="fill: none; stroke: #1f77b4; stroke-width: 1.5; stroke-linecap: round"/>
    <path d="M 47.023723 193.529743 
L 50.570841 196.253335 
L 46.263697 197.456875 
z
" clip-path="url(#p36b26eef4b)" style="fill: #1f77b4; stroke: #1f77b4; stroke-width: 1.5; stroke-linecap: round"/>
   </g>
   <g id="patch_40">
    <path d="M 211.902151 237.571389 
Q 215.13399 238.095091 216.710373 238.350535 
" clip-path="url(#p36b26eef4b)" style="fill: none; stroke: #1f77b4; stroke-width: 1.5; stroke-linecap: round"/>
    <path d="M 213.081794 235.736455 
L 216.710373 238.350535 
L 212.441961 239.684951 
z
" clip-path="url(#p36b26eef4b)" style="fill: #1f77b4; stroke: #1f77b4; stroke-width: 1.5; stroke-linecap: round"/>
   </g>
   <g id="patch_41">
    <path d="M 46.298695 222.430168 
Q 49.523699 222.969171 51.094595 223.231719 
" clip-path="url(#p36b26eef4b)" style="fill: none; stroke: #1f77b4; stroke-width: 1.5; stroke-linecap: round"/>
    <path d="M 47.479009 220.599696 
L 51.094595 223.231719 
L 46.819625 224.544973 
z
" clip-path="url(#p36b26eef4b)" style="fill: #1f77b4; stroke: #1f77b4; stroke-width: 1.5; stroke-linecap: round"/>
   </g>
   <g id="patch_42">
    <path d="M 236.159338 274.093534 
Q 239.464162 274.461537 241.102237 274.643942 
" clip-path="url(#p36b26eef4b)" style="fill: none; stroke: #1f77b4; stroke-width: 1.5; stroke-linecap: round"/>
    <path d="M 237.348147 272.21355 
L 241.102237 274.643942 
L 236.905469 276.188979 
z
" clip-path="url(#p36b26eef4b)" style="fill: #1f77b4; stroke: #1f77b4; stroke-width: 1.5; stroke-linecap: round"/>
   </g>
   <g id="patch_43">
    <path d="M 131.189137 273.664636 
Q 134.482693 274.05357 136.110771 274.245829 
" clip-path="url(#p36b26eef4b)" style="fill: none; stroke: #1f77b4; stroke-width: 1.5; stroke-linecap: round"/>
    <path d="M 132.372923 271.790532 
L 136.110771 274.245829 
L 131.903824 275.76293 
z
" clip-path="url(#p36b26eef4b)" style="fill: #1f77b4; stroke: #1f77b4; stroke-width: 1.5; stroke-linecap: round"/>
   </g>
   <g id="patch_44">
    <path d="M 68.144069 279.139576 
Q 71.447041 279.520914 73.084028 279.709908 
" clip-path="url(#p36b26eef4b)" style="fill: none; stroke: #1f77b4; stroke-width: 1.5; stroke-linecap: round"/>
    <path d="M 69.339806 277.264342 
L 73.084028 279.709908 
L 68.881042 281.237947 
z
" clip-path="url(#p36b26eef4b)" style="fill: #1f77b4; stroke: #1f77b4; stroke-width: 1.5; stroke-linecap: round"/>
   </g>
   <g id="patch_45">
    <path d="M 281.850037 322.416549 
Q 285.208916 322.604093 286.893353 322.698144 
" clip-path="url(#p36b26eef4b)" style="fill: none; stroke: #1f77b4; stroke-width: 1.5; stroke-linecap: round"/>
    <path d="M 283.01107 320.47826 
L 286.893353 322.698144 
L 282.788077 324.47204 
z
" clip-path="url(#p36b26eef4b)" style="fill: #1f77b4; stroke: #1f77b4; stroke-width: 1.5; stroke-linecap: round"/>
   </g>
   <g id="patch_46">
    <path d="M 111.334465 322.633196 
Q 114.675773 322.889919 116.344957 323.018168 
" clip-path="url(#p36b26eef4b)" style="fill: none; stroke: #1f77b4; stroke-width: 1.5; stroke-linecap: round"/>
    <path d="M 112.509927 320.717616 
L 116.344957 323.018168 
L 112.203497 324.705861 
z
" clip-path="url(#p36b26eef4b)" style="fill: #1f77b4; stroke: #1f77b4; stroke-width: 1.5; stroke-linecap: round"/>
   </g>
   <g id="patch_47">
    <path d="M 304.724083 357.415804 
Q 308.092838 357.51482 309.785266 357.564565 
" clip-path="url(#p36b26eef4b)" style="fill: none; stroke: #1f77b4; stroke-width: 1.5; stroke-linecap: round"/>
    <path d="M 305.845752 355.447909 
L 309.785266 357.564565 
L 305.728233 359.446183 
z
" clip-path="url(#p36b26eef4b)" style="fill: #1f77b4; stroke: #1f77b4; stroke-width: 1.5; stroke-linecap: round"/>
   </g>
   <g id="patch_48">
    <path d="M 90.668723 386.986792 
Q 94.036447 387.100988 95.728083 387.15835 
" clip-path="url(#p36b26eef4b)" style="fill: none; stroke: #1f77b4; stroke-width: 1.5; stroke-linecap: round"/>
    <path d="M 91.798159 385.023941 
L 95.728083 387.15835 
L 91.662601 389.021643 
z
" clip-path="url(#p36b26eef4b)" style="fill: #1f77b4; stroke: #1f77b4; stroke-width: 1.5; stroke-linecap: round"/>
   </g>
   <g id="patch_49">
    <path d="M 623.75701 158.667672 
Q 620.423018 158.3827 618.759983 158.240553 
" clip-path="url(#p36b26eef4b)" style="fill: none; stroke: #1f77b4; stroke-width: 1.5; stroke-linecap: round"/>
    <path d="M 622.575122 160.573943 
L 618.759983 158.240553 
L 622.915779 156.588476 
z
" clip-path="url(#p36b26eef4b)" style="fill: #1f77b4; stroke: #1f77b4; stroke-width: 1.5; stroke-linecap: round"/>
   </g>
   <g id="patch_50">
    <path d="M 491.029713 74.003367 
Q 487.659997 73.972486 485.96726 73.956974 
" clip-path="url(#p36b26eef4b)" style="fill: none; stroke: #1f77b4; stroke-width: 1.5; stroke-linecap: round"/>
    <path d="M 489.948765 75.993545 
L 485.96726 73.956974 
L 489.98542 71.993713 
z
" clip-path="url(#p36b26eef4b)" style="fill: #1f77b4; stroke: #1f77b4; stroke-width: 1.5; stroke-linecap: round"/>
   </g>
   <g id="patch_51">
    <path d="M 27.053027 327.609108 
Q 30.393616 327.872025 32.062324 328.003359 
" clip-path="url(#p36b26eef4b)" style="fill: none; stroke: #1f77b4; stroke-width: 1.5; stroke-linecap: round"/>
    <path d="M 28.231578 325.695679 
L 32.062324 328.003359 
L 27.917733 329.683348 
z
" clip-path="url(#p36b26eef4b)" style="fill: #1f77b4; stroke: #1f77b4; stroke-width: 1.5; stroke-linecap: round"/>
   </g>
   <g id="patch_52">
    <path d="M 27.057155 369.70306 
Q 30.419713 369.866853 32.107206 369.949053 
" clip-path="url(#p36b26eef4b)" style="fill: none; stroke: #1f77b4; stroke-width: 1.5; stroke-linecap: round"/>
    <path d="M 28.20925 367.756808 
L 32.107206 369.949053 
L 28.014637 371.752071 
z
" clip-path="url(#p36b26eef4b)" style="fill: #1f77b4; stroke: #1f77b4; stroke-width: 1.5; stroke-linecap: round"/>
   </g>
   <g id="patch_53">
    <path d="M 394.742132 343.319866 
Q 398.113743 343.361747 399.808433 343.382798 
" clip-path="url(#p36b26eef4b)" style="fill: none; stroke: #1f77b4; stroke-width: 1.5; stroke-linecap: round"/>
    <path d="M 395.833583 341.33327 
L 399.808433 343.382798 
L 395.7839 345.332961 
z
" clip-path="url(#p36b26eef4b)" style="fill: #1f77b4; stroke: #1f77b4; stroke-width: 1.5; stroke-linecap: round"/>
   </g>
   <g id="patch_54">
    <path d="M 31.931187 120.630271 
Q 34.947487 121.436482 36.343612 121.809645 
" clip-path="url(#p36b26eef4b)" style="fill: none; stroke: #1f77b4; stroke-width: 1.5; stroke-linecap: round"/>
    <path d="M 32.995708 118.844592 
L 36.343612 121.809645 
L 31.962827 122.708937 
z
" clip-path="url(#p36b26eef4b)" style="fill: #1f77b4; stroke: #1f77b4; stroke-width: 1.5; stroke-linecap: round"/>
   </g>
   <g id="patch_55">
    <path d="M 31.24295 149.751518 
Q 34.330601 150.482663 35.78633 150.827374 
" clip-path="url(#p36b26eef4b)" style="fill: none; stroke: #1f77b4; stroke-width: 1.5; stroke-linecap: round"/>
    <path d="M 32.354818 147.959497 
L 35.78633 150.827374 
L 31.433121 151.851858 
z
" clip-path="url(#p36b26eef4b)" style="fill: #1f77b4; stroke: #1f77b4; stroke-width: 1.5; stroke-linecap: round"/>
   </g>
   <g id="patch_56">
    <path d="M 492.900294 196.52351 
Q 489.541348 196.394693 487.858221 196.330144 
" clip-path="url(#p36b26eef4b)" style="fill: none; stroke: #1f77b4; stroke-width: 1.5; stroke-linecap: round"/>
    <path d="M 491.778638 198.481964 
L 487.858221 196.330144 
L 491.931927 194.484902 
z
" clip-path="url(#p36b26eef4b)" style="fill: #1f77b4; stroke: #1f77b4; stroke-width: 1.5; stroke-linecap: round"/>
   </g>
   <g id="patch_57">
    <path d="M 491.868156 142.900216 
Q 488.500828 142.830345 486.81019 142.795265 
" clip-path="url(#p36b26eef4b)" style="fill: none; stroke: #1f77b4; stroke-width: 1.5; stroke-linecap: round"/>
    <path d="M 490.767839 144.877815 
L 486.81019 142.795265 
L 490.85082 140.878676 
z
" clip-path="url(#p36b26eef4b)" style="fill: #1f77b4; stroke: #1f77b4; stroke-width: 1.5; stroke-linecap: round"/>
   </g>
   <g id="patch_58">
    <path d="M 220.858311 258.394802 
Q 224.12982 258.827733 225.738773 259.040652 
" clip-path="url(#p36b26eef4b)" style="fill: none; stroke: #1f77b4; stroke-width: 1.5; stroke-linecap: round"/>
    <path d="M 222.035724 256.533177 
L 225.738773 259.040652 
L 221.510964 260.498606 
z
" clip-path="url(#p36b26eef4b)" style="fill: #1f77b4; stroke: #1f77b4; stroke-width: 1.5; stroke-linecap: round"/>
   </g>
   <g id="patch_59">
    <path d="M 137.300738 301.560049 
Q 140.628977 301.866448 142.287226 302.019108 
" clip-path="url(#p36b26eef4b)" style="fill: none; stroke: #1f77b4; stroke-width: 1.5; stroke-linecap: round"/>
    <path d="M 138.487415 299.660837 
L 142.287226 302.019108 
L 138.120723 303.643994 
z
" clip-path="url(#p36b26eef4b)" style="fill: #1f77b4; stroke: #1f77b4; stroke-width: 1.5; stroke-linecap: round"/>
   </g>
   <g id="patch_60">
    <path d="M 356.250254 386.241932 
Q 359.629081 386.276823 361.330946 386.294397 
" clip-path="url(#p36b26eef4b)" style="fill: none; stroke: #1f77b4; stroke-width: 1.5; stroke-linecap: round"/>
    <path d="M 357.351811 384.2532 
L 361.330946 386.294397 
L 357.310507 388.252987 
z
" clip-path="url(#p36b26eef4b)" style="fill: #1f77b4; stroke: #1f77b4; stroke-width: 1.5; stroke-linecap: round"/>
   </g>
   <g id="patch_61">
    <path d="M 380.869536 317.193565 
Q 384.23671 317.293491 385.92757 317.34367 
" clip-path="url(#p36b26eef4b)" style="fill: none; stroke: #1f77b4; stroke-width: 1.5; stroke-linecap: round"/>
    <path d="M 381.988657 315.225896 
L 385.92757 317.34367 
L 381.870004 319.224136 
z
" clip-path="url(#p36b26eef4b)" style="fill: #1f77b4; stroke: #1f77b4; stroke-width: 1.5; stroke-linecap: round"/>
   </g>
   <g id="patch_62">
    <path d="M 510.500069 301.230747 
Q 511.05038 300.972818 510.082159 301.42662 
" clip-path="url(#p36b26eef4b)" style="fill: none; stroke: #1f77b4; stroke-width: 1.5; stroke-linecap: round"/>
    <path d="M 505.611461 301.313244 
L 510.082159 301.42662 
L 507.309039 304.935153 
z
" clip-path="url(#p36b26eef4b)" style="fill: #1f77b4; stroke: #1f77b4; stroke-width: 1.5; stroke-linecap: round"/>
   </g>
   <g id="patch_63">
    <path d="M 242.959064 230.624664 
Q 246.15223 231.196038 247.694565 231.472017 
" clip-path="url(#p36b26eef4b)" style="fill: none; stroke: #1f77b4; stroke-width: 1.5; stroke-linecap: round"/>
    <path d="M 244.109381 228.798732 
L 247.694565 231.472017 
L 243.404826 232.736193 
z
" clip-path="url(#p36b26eef4b)" style="fill: #1f77b4; stroke: #1f77b4; stroke-width: 1.5; stroke-linecap: round"/>
   </g>
   <g id="patch_64">
    <path d="M 366.533539 297.888227 
Q 369.892691 298.063356 371.577066 298.151171 
" clip-path="url(#p36b26eef4b)" style="fill: none; stroke: #1f77b4; stroke-width: 1.5; stroke-linecap: round"/>
    <path d="M 367.68662 295.945627 
L 371.577066 298.151171 
L 367.478363 299.940201 
z
" clip-path="url(#p36b26eef4b)" style="fill: #1f77b4; stroke: #1f77b4; stroke-width: 1.5; stroke-linecap: round"/>
   </g>
   <g id="patch_65">
    <path d="M 323.883444 231.018611 
Q 326.919633 231.666584 328.315706 231.964529 
" clip-path="url(#p36b26eef4b)" style="fill: none; stroke: #1f77b4; stroke-width: 1.5; stroke-linecap: round"/>
    <path d="M 324.821234 229.173712 
L 328.315706 231.964529 
L 323.986369 233.085617 
z
" clip-path="url(#p36b26eef4b)" style="fill: #1f77b4; stroke: #1f77b4; stroke-width: 1.5; stroke-linecap: round"/>
   </g>
   <g id="line2d_18">
    <defs>
     <path id="m2295037466" d="M 0 3 
C 0.795609 3 1.55874 2.683901 2.12132 2.12132 
C 2.683901 1.55874 3 0.795609 3 0 
C 3 -0.795609 2.683901 -1.55874 2.12132 -2.12132 
C 1.55874 -2.683901 0.795609 -3 0 -3 
C -0.795609 -3 -1.55874 -2.683901 -2.12132 -2.12132 
C -2.683901 -1.55874 -3 -0.795609 -3 0 
C -3 0.795609 -2.683901 1.55874 -2.12132 2.12132 
C -1.55874 2.683901 -0.795609 3 0 3 
z
" style="stroke: #ff0000"/>
    </defs>
    <g clip-path="url(#p36b26eef4b)">
     <use xlink:href="#m2295037466" x="444.736008" y="255.852215" style="fill: #ff0000; stroke: #ff0000"/>
    </g>
   </g>
   <g id="patch_66">
    <path d="M 90 448.56 
L 90 60.48 
" style="fill: none; stroke: #cccccc; stroke-width: 0.8; stroke-linejoin: miter; stroke-linecap: square"/>
   </g>
   <g id="patch_67">
    <path d="M 648 448.56 
L 648 60.48 
" style="fill: none; stroke: #cccccc; stroke-width: 0.8; stroke-linejoin: miter; stroke-linecap: square"/>
   </g>
   <g id="patch_68">
    <path d="M 90 448.56 
L 648 448.56 
" style="fill: none; stroke: #cccccc; stroke-width: 0.8; stroke-linejoin: miter; stroke-linecap: square"/>
   </g>
   <g id="patch_69">
    <path d="M 90 60.48 
L 648 60.48 
" style="fill: none; stroke: #cccccc; stroke-width: 0.8; stroke-linejoin: miter; stroke-linecap: square"/>
   </g>
   <g id="line2d_19">
    <defs>
     <path id="m5d653d9884" d="M 0 3 
C 0.795609 3 1.55874 2.683901 2.12132 2.12132 
C 2.683901 1.55874 3 0.795609 3 0 
C 3 -0.795609 2.683901 -1.55874 2.12132 -2.12132 
C 1.55874 -2.683901 0.795609 -3 0 -3 
C -0.795609 -3 -1.55874 -2.683901 -2.12132 -2.12132 
C -2.683901 -1.55874 -3 -0.795609 -3 0 
C -3 0.795609 -2.683901 1.55874 -2.12132 2.12132 
C -1.55874 2.683901 -0.795609 3 0 3 
z
" style="stroke: #0000ff"/>
    </defs>
    <g clip-path="url(#p36b26eef4b)">
     <use xlink:href="#m5d653d9884" x="177.1875" y="254.52" style="fill: #0000ff; stroke: #0000ff"/>
    </g>
   </g>
   <g id="legend_1">
    <g id="patch_70">
     <path d="M 366.840625 438.56 
L 634 438.56 
Q 638 438.56 638 434.56 
L 638 379.97875 
Q 638 375.97875 634 375.97875 
L 366.840625 375.97875 
Q 362.840625 375.97875 362.840625 379.97875 
L 362.840625 434.56 
Q 362.840625 438.56 366.840625 438.56 
z
" style="fill: #ffffff; opacity: 0.8; stroke: #cccccc; stroke-linejoin: miter"/>
    </g>
    <g id="line2d_20">
     <g>
      <use xlink:href="#m5d653d9884" x="390.840625" y="391.294375" style="fill: #0000ff; stroke: #0000ff"/>
     </g>
    </g>
    <g id="text_19">
     <text style="fill: #262626; font: 20px 'Arial', 'DejaVu Sans', 'Liberation Sans', 'Bitstream Vera Sans', sans-serif; text-anchor: start" x="426.840625" y="398.294375" transform="rotate(-0 426.840625 398.294375)"> </text>
    </g>
    <g id="line2d_21">
     <g>
      <use xlink:href="#m2295037466" x="390.840625" y="419.585" style="fill: #ff0000; stroke: #ff0000"/>
     </g>
    </g>
    <g id="text_20">
     <text style="fill: #262626; font: 20px 'Arial', 'DejaVu Sans', 'Liberation Sans', 'Bitstream Vera Sans', sans-serif; text-anchor: start" x="426.840625" y="426.585" transform="rotate(-0 426.840625 426.585)"> </text>
    </g>
   </g>
  </g>
 </g>
 <defs>
  <clipPath id="p36b26eef4b">
   <rect x="90" y="60.48" width="558" height="388.08"/>
  </clipPath>
 </defs>
</svg>
