<?xml version="1.0" encoding="utf-8" standalone="no"?>
<!DOCTYPE svg PUBLIC "-//W3C//DTD SVG 1.1//EN"
  "http://www.w3.org/Graphics/SVG/1.1/DTD/svg11.dtd">
<svg xmlns:xlink="http://www.w3.org/1999/xlink" width="720pt" height="504pt" viewBox="0 0 720 504" xmlns="http://www.w3.org/2000/svg" version="1.1">
 <metadata>
  <rdf:RDF xmlns:dc="http://purl.org/dc/elements/1.1/" xmlns:cc="http://creativecommons.org/ns#" xmlns:rdf="http://www.w3.org/1999/02/22-rdf-syntax-ns#">
   <cc:Work>
    <dc:type rdf:resource="http://purl.org/dc/dcmitype/StillImage"/>
    <dc:date>2024-10-02T01:20:21.040371</dc:date>
    <dc:format>image/svg+xml</dc:format>
    <dc:creator>
     <cc:Agent>
      <dc:title>Matplotlib v3.7.2, https://matplotlib.org/</dc:title>
     </cc:Agent>
    </dc:creator>
   </cc:Work>
  </rdf:RDF>
 </metadata>
 <defs>
  <style type="text/css">*{stroke-linejoin: round; stroke-linecap: butt}</style>
 </defs>
 <g id="figure_1">
  <g id="patch_1">
   <path d="M 0 504 
L 720 504 
L 720 0 
L 0 0 
z
" style="fill: #ffffff"/>
  </g>
  <g id="axes_1">
   <g id="patch_2">
    <path d="M 90 448.56 
L 648 448.56 
L 648 60.48 
L 90 60.48 
z
" style="fill: #ffffff"/>
   </g>
   <g id="matplotlib.axis_1">
    <g id="xtick_1">
     <g id="line2d_1">
      <path d="M 90 448.56 
L 90 60.48 
" clip-path="url(#p5515de251c)" style="fill: none; stroke: #cccccc; stroke-width: 0.8; stroke-linecap: round"/>
     </g>
     <g id="text_1">
      <text style="fill: #262626; font: 20px 'Arial', 'DejaVu Sans', 'Liberation Sans', 'Bitstream Vera Sans', sans-serif; text-anchor: middle" x="90" y="469.875625" transform="rotate(-0 90 469.875625)">0</text>
     </g>
    </g>
    <g id="xtick_2">
     <g id="line2d_2">
      <path d="M 201.6 448.56 
L 201.6 60.48 
" clip-path="url(#p5515de251c)" style="fill: none; stroke: #cccccc; stroke-width: 0.8; stroke-linecap: round"/>
     </g>
     <g id="text_2">
      <text style="fill: #262626; font: 20px 'Arial', 'DejaVu Sans', 'Liberation Sans', 'Bitstream Vera Sans', sans-serif; text-anchor: middle" x="201.6" y="469.875625" transform="rotate(-0 201.6 469.875625)">20</text>
     </g>
    </g>
    <g id="xtick_3">
     <g id="line2d_3">
      <path d="M 313.2 448.56 
L 313.2 60.48 
" clip-path="url(#p5515de251c)" style="fill: none; stroke: #cccccc; stroke-width: 0.8; stroke-linecap: round"/>
     </g>
     <g id="text_3">
      <text style="fill: #262626; font: 20px 'Arial', 'DejaVu Sans', 'Liberation Sans', 'Bitstream Vera Sans', sans-serif; text-anchor: middle" x="313.2" y="469.875625" transform="rotate(-0 313.2 469.875625)">40</text>
     </g>
    </g>
    <g id="xtick_4">
     <g id="line2d_4">
      <path d="M 424.8 448.56 
L 424.8 60.48 
" clip-path="url(#p5515de251c)" style="fill: none; stroke: #cccccc; stroke-width: 0.8; stroke-linecap: round"/>
     </g>
     <g id="text_4">
      <text style="fill: #262626; font: 20px 'Arial', 'DejaVu Sans', 'Liberation Sans', 'Bitstream Vera Sans', sans-serif; text-anchor: middle" x="424.8" y="469.875625" transform="rotate(-0 424.8 469.875625)">60</text>
     </g>
    </g>
    <g id="xtick_5">
     <g id="line2d_5">
      <path d="M 536.4 448.56 
L 536.4 60.48 
" clip-path="url(#p5515de251c)" style="fill: none; stroke: #cccccc; stroke-width: 0.8; stroke-linecap: round"/>
     </g>
     <g id="text_5">
      <text style="fill: #262626; font: 20px 'Arial', 'DejaVu Sans', 'Liberation Sans', 'Bitstream Vera Sans', sans-serif; text-anchor: middle" x="536.4" y="469.875625" transform="rotate(-0 536.4 469.875625)">80</text>
     </g>
    </g>
    <g id="xtick_6">
     <g id="line2d_6">
      <path d="M 648 448.56 
L 648 60.48 
" clip-path="url(#p5515de251c)" style="fill: none; stroke: #cccccc; stroke-width: 0.8; stroke-linecap: round"/>
     </g>
     <g id="text_6">
      <text style="fill: #262626; font: 20px 'Arial', 'DejaVu Sans', 'Liberation Sans', 'Bitstream Vera Sans', sans-serif; text-anchor: middle" x="648" y="469.875625" transform="rotate(-0 648 469.875625)">100</text>
     </g>
    </g>
    <g id="text_7">
     <text style="fill: #262626; font: 20px 'Arial', 'DejaVu Sans', 'Liberation Sans', 'Bitstream Vera Sans', sans-serif; text-anchor: middle" x="369" y="492.16625" transform="rotate(-0 369 492.16625)">Время, дни</text>
    </g>
   </g>
   <g id="matplotlib.axis_2">
    <g id="ytick_1">
     <g id="line2d_7">
      <path d="M 90 444.657158 
L 648 444.657158 
" clip-path="url(#p5515de251c)" style="fill: none; stroke: #cccccc; stroke-width: 0.8; stroke-linecap: round"/>
     </g>
     <g id="text_8">
      <text style="fill: #262626; font: 20px 'Arial', 'DejaVu Sans', 'Liberation Sans', 'Bitstream Vera Sans', sans-serif; text-anchor: end" x="83" y="451.81497" transform="rotate(-0 83 451.81497)">−10</text>
     </g>
    </g>
    <g id="ytick_2">
     <g id="line2d_8">
      <path d="M 90 395.194074 
L 648 395.194074 
" clip-path="url(#p5515de251c)" style="fill: none; stroke: #cccccc; stroke-width: 0.8; stroke-linecap: round"/>
     </g>
     <g id="text_9">
      <text style="fill: #262626; font: 20px 'Arial', 'DejaVu Sans', 'Liberation Sans', 'Bitstream Vera Sans', sans-serif; text-anchor: end" x="83" y="402.351886" transform="rotate(-0 83 402.351886)">0</text>
     </g>
    </g>
    <g id="ytick_3">
     <g id="line2d_9">
      <path d="M 90 345.730989 
L 648 345.730989 
" clip-path="url(#p5515de251c)" style="fill: none; stroke: #cccccc; stroke-width: 0.8; stroke-linecap: round"/>
     </g>
     <g id="text_10">
      <text style="fill: #262626; font: 20px 'Arial', 'DejaVu Sans', 'Liberation Sans', 'Bitstream Vera Sans', sans-serif; text-anchor: end" x="83" y="352.888802" transform="rotate(-0 83 352.888802)">10</text>
     </g>
    </g>
    <g id="ytick_4">
     <g id="line2d_10">
      <path d="M 90 296.267905 
L 648 296.267905 
" clip-path="url(#p5515de251c)" style="fill: none; stroke: #cccccc; stroke-width: 0.8; stroke-linecap: round"/>
     </g>
     <g id="text_11">
      <text style="fill: #262626; font: 20px 'Arial', 'DejaVu Sans', 'Liberation Sans', 'Bitstream Vera Sans', sans-serif; text-anchor: end" x="83" y="303.425718" transform="rotate(-0 83 303.425718)">20</text>
     </g>
    </g>
    <g id="ytick_5">
     <g id="line2d_11">
      <path d="M 90 246.804821 
L 648 246.804821 
" clip-path="url(#p5515de251c)" style="fill: none; stroke: #cccccc; stroke-width: 0.8; stroke-linecap: round"/>
     </g>
     <g id="text_12">
      <text style="fill: #262626; font: 20px 'Arial', 'DejaVu Sans', 'Liberation Sans', 'Bitstream Vera Sans', sans-serif; text-anchor: end" x="83" y="253.962634" transform="rotate(-0 83 253.962634)">30</text>
     </g>
    </g>
    <g id="ytick_6">
     <g id="line2d_12">
      <path d="M 90 197.341737 
L 648 197.341737 
" clip-path="url(#p5515de251c)" style="fill: none; stroke: #cccccc; stroke-width: 0.8; stroke-linecap: round"/>
     </g>
     <g id="text_13">
      <text style="fill: #262626; font: 20px 'Arial', 'DejaVu Sans', 'Liberation Sans', 'Bitstream Vera Sans', sans-serif; text-anchor: end" x="83" y="204.499549" transform="rotate(-0 83 204.499549)">40</text>
     </g>
    </g>
    <g id="ytick_7">
     <g id="line2d_13">
      <path d="M 90 147.878653 
L 648 147.878653 
" clip-path="url(#p5515de251c)" style="fill: none; stroke: #cccccc; stroke-width: 0.8; stroke-linecap: round"/>
     </g>
     <g id="text_14">
      <text style="fill: #262626; font: 20px 'Arial', 'DejaVu Sans', 'Liberation Sans', 'Bitstream Vera Sans', sans-serif; text-anchor: end" x="83" y="155.036465" transform="rotate(-0 83 155.036465)">50</text>
     </g>
    </g>
    <g id="ytick_8">
     <g id="line2d_14">
      <path d="M 90 98.415568 
L 648 98.415568 
" clip-path="url(#p5515de251c)" style="fill: none; stroke: #cccccc; stroke-width: 0.8; stroke-linecap: round"/>
     </g>
     <g id="text_15">
      <text style="fill: #262626; font: 20px 'Arial', 'DejaVu Sans', 'Liberation Sans', 'Bitstream Vera Sans', sans-serif; text-anchor: end" x="83" y="105.573381" transform="rotate(-0 83 105.573381)">60</text>
     </g>
    </g>
    <g id="text_16">
     <text style="fill: #262626; font: 20px 'Arial', 'DejaVu Sans', 'Liberation Sans', 'Bitstream Vera Sans', sans-serif; text-anchor: middle" x="41.1" y="254.52" transform="rotate(-90 41.1 254.52)">Управление</text>
    </g>
   </g>
   <g id="line2d_15">
    <path d="M 90 395.194074 
L 90.558 78.12 
L 91.116 430.92 
L 91.674 163.486414 
L 92.232 428.813922 
L 92.79 221.829609 
L 93.348 426.020758 
L 93.906 266.329219 
L 94.464 423.557881 
L 95.022 291.456321 
L 95.58 421.474722 
L 96.138 310.278337 
L 96.696 418.837088 
L 97.254 325.68549 
L 97.812 416.657965 
L 98.37 335.394422 
L 98.928 414.53245 
L 99.486 344.840707 
L 100.044 412.675723 
L 100.602 351.43303 
L 101.16 410.67979 
L 101.718 356.771762 
L 102.276 409.007016 
L 102.834 361.132825 
L 103.392 407.58231 
L 103.95 363.775748 
L 104.508 406.689045 
L 105.066 366.964027 
L 105.624 405.207544 
L 106.182 369.709529 
L 106.74 403.510768 
L 107.298 372.081973 
L 107.856 402.444998 
L 108.414 375.790176 
L 108.972 400.78594 
L 109.53 376.395716 
L 110.088 400.06346 
L 110.646 377.247009 
L 111.204 400.485052 
L 111.762 379.075824 
L 112.32 398.645209 
L 112.878 380.139028 
L 113.436 398.177609 
L 113.994 381.658736 
L 114.552 396.954341 
L 115.11 382.668912 
L 115.668 395.876663 
L 116.226 384.155568 
L 116.784 395.232587 
L 117.342 383.648431 
L 117.9 395.475463 
L 118.458 384.374094 
L 119.016 395.906278 
L 119.574 384.536312 
L 120.132 395.104642 
L 120.69 384.522287 
L 121.248 395.214651 
L 121.806 385.074349 
L 122.364 394.667491 
L 122.922 384.386254 
L 123.48 394.717555 
L 124.038 385.33164 
L 124.596 394.560729 
L 125.154 385.060585 
L 125.712 394.39661 
L 126.27 385.804171 
L 126.828 394.059116 
L 127.386 386.531698 
L 127.944 393.076378 
L 128.502 386.788309 
L 129.06 393.194847 
L 129.618 387.949242 
L 130.176 392.717819 
L 130.734 388.568731 
L 131.292 392.017442 
L 131.85 388.243908 
L 132.408 392.048848 
L 132.966 387.383372 
L 133.524 391.623164 
L 134.082 388.633753 
L 134.64 390.748619 
L 135.198 389.894831 
L 135.756 390.111175 
L 136.314 390.088082 
L 136.872 391.709345 
L 137.43 389.285734 
L 137.988 390.487857 
L 138.546 388.939132 
L 139.104 391.084984 
L 139.662 388.312954 
L 140.22 392.331318 
L 140.778 389.181157 
L 141.336 391.499096 
L 141.894 388.978053 
L 142.452 390.21182 
L 143.01 389.969653 
L 143.568 390.280334 
L 144.126 389.950246 
L 144.684 389.942276 
L 145.242 390.59981 
L 145.8 389.197193 
L 146.358 390.357723 
L 146.916 389.076554 
L 147.474 390.888628 
L 148.032 388.309472 
L 148.59 391.475884 
L 149.148 389.320775 
L 149.706 390.969629 
L 150.264 387.235657 
L 150.822 392.508116 
L 151.38 387.471802 
L 151.938 393.414994 
L 152.496 387.786145 
L 153.054 391.90472 
L 153.612 388.603222 
L 154.17 390.950751 
L 154.728 389.165785 
L 155.286 390.537707 
L 155.844 388.789304 
L 156.402 390.599195 
L 156.96 389.170771 
L 157.518 390.211763 
L 158.076 389.215684 
L 158.634 390.131361 
L 159.192 390.393892 
L 159.75 390.982388 
L 160.308 389.328541 
L 160.866 389.770692 
L 161.424 390.500732 
L 162.54 390.169638 
L 163.098 390.361515 
L 163.656 389.44371 
L 164.214 390.916523 
L 164.772 389.700688 
L 165.33 390.961667 
L 165.888 389.236536 
L 166.446 390.84788 
L 167.004 389.055851 
L 167.562 391.224966 
L 168.12 389.925317 
L 168.678 389.654683 
L 169.236 391.11874 
L 169.794 389.340189 
L 170.352 390.757003 
L 170.91 388.957048 
L 171.468 391.471656 
L 172.026 389.31344 
L 172.584 390.638039 
L 173.142 389.077238 
L 173.7 390.288563 
L 174.258 389.754595 
L 174.816 391.360654 
L 175.374 389.2515 
L 175.932 389.927988 
L 176.49 389.733801 
L 177.048 390.461282 
L 177.606 389.624874 
L 178.164 390.575141 
L 178.722 389.15134 
L 179.28 390.988368 
L 179.838 389.084461 
L 180.396 391.782796 
L 180.954 388.439323 
L 181.512 390.88598 
L 182.07 389.044814 
L 182.628 390.290949 
L 183.186 390.140297 
L 183.744 390.136832 
L 184.86 389.744807 
L 185.418 389.711299 
L 185.976 389.873541 
L 186.534 390.792707 
L 187.092 388.388493 
L 187.65 391.312818 
L 188.208 388.710978 
L 188.766 390.881911 
L 189.324 389.920434 
L 189.882 390.507633 
L 190.44 390.562082 
L 190.998 389.607087 
L 191.556 389.485802 
L 192.114 391.025323 
L 192.672 388.799864 
L 193.23 391.143736 
L 193.788 389.178821 
L 194.346 392.195775 
L 194.904 386.757287 
L 195.462 392.8286 
L 196.02 387.604259 
L 196.578 391.74515 
L 197.136 388.574327 
L 197.694 391.597264 
L 198.252 389.159258 
L 198.81 390.265559 
L 199.368 389.406925 
L 199.926 390.704824 
L 200.484 390.137316 
L 201.042 390.405641 
L 201.6 391.125645 
L 202.158 388.596636 
L 202.716 391.66579 
L 203.274 388.150861 
L 203.832 392.682132 
L 204.39 387.989332 
L 204.948 392.09604 
L 205.506 388.540976 
L 206.064 391.788871 
L 206.622 388.452181 
L 207.18 391.302504 
L 207.738 389.389797 
L 208.296 391.400763 
L 208.854 389.266186 
L 209.412 390.791871 
L 209.97 389.536221 
L 210.528 390.747123 
L 211.644 389.517926 
L 212.202 390.785786 
L 212.76 389.312745 
L 213.318 390.989738 
L 213.876 389.375106 
L 214.434 391.013194 
L 214.992 389.668805 
L 215.55 390.228978 
L 216.108 389.681413 
L 216.666 390.555326 
L 217.224 388.57675 
L 217.782 391.289284 
L 218.34 388.274445 
L 218.898 391.685458 
L 219.456 389.359568 
L 220.014 391.35583 
L 220.572 389.295781 
L 221.13 391.366298 
L 221.688 389.627253 
L 222.246 390.639124 
L 222.804 390.01154 
L 223.362 390.397663 
L 223.92 390.314712 
L 224.478 389.036426 
L 225.036 391.246124 
L 225.594 388.704447 
L 226.152 391.179474 
L 226.71 388.784046 
L 227.268 391.793533 
L 227.826 388.75639 
L 228.384 391.97624 
L 228.942 389.239329 
L 229.5 390.46187 
L 230.058 389.328113 
L 230.616 390.245542 
L 231.174 388.620107 
L 231.732 392.164411 
L 232.29 388.012618 
L 232.848 391.384218 
L 233.406 389.445371 
L 233.964 391.179645 
L 234.522 389.859007 
L 235.08 390.759873 
L 235.638 389.529179 
L 236.196 390.073607 
L 236.754 389.604638 
L 237.312 391.079347 
L 237.87 389.032793 
L 238.428 391.610054 
L 238.986 388.128574 
L 239.544 391.931405 
L 240.102 388.000076 
L 240.66 392.234049 
L 241.218 387.827074 
L 241.776 391.86838 
L 242.334 388.385417 
L 242.892 391.45949 
L 243.45 389.261797 
L 244.008 390.852317 
L 244.566 388.711568 
L 245.124 391.903778 
L 245.682 388.365521 
L 246.24 391.229653 
L 246.798 388.832827 
L 247.356 391.154671 
L 247.914 389.687152 
L 248.472 390.693857 
L 249.03 388.266615 
L 249.588 391.421017 
L 250.146 389.068856 
L 250.704 390.97355 
L 251.262 389.057361 
L 251.82 392.46631 
L 252.378 388.033991 
L 252.936 391.847533 
L 253.494 387.882744 
L 254.052 392.314328 
L 254.61 388.124617 
L 255.168 392.076728 
L 255.726 388.446491 
L 256.284 391.843779 
L 256.842 388.680195 
L 257.4 390.786751 
L 257.958 388.88814 
L 258.516 392.062857 
L 259.074 388.670952 
L 259.632 392.016226 
L 260.19 388.356038 
L 260.748 391.134141 
L 261.306 389.203452 
L 261.864 391.571338 
L 262.422 388.459102 
L 262.98 391.999583 
L 263.538 388.384911 
L 264.096 390.997886 
L 264.654 388.931553 
L 265.212 390.931538 
L 265.77 388.850634 
L 266.328 391.05361 
L 266.886 389.391403 
L 267.444 389.684711 
L 268.002 389.066032 
L 268.56 391.453191 
L 269.118 388.991311 
L 269.676 390.676248 
L 270.234 388.855771 
L 270.792 390.819533 
L 271.35 389.814854 
L 271.908 390.929867 
L 272.466 390.089378 
L 273.024 389.934462 
L 273.582 389.462158 
L 274.14 390.445973 
L 274.698 388.854463 
L 275.256 390.464542 
L 275.814 389.653481 
L 276.372 389.946264 
L 276.93 388.985665 
L 277.488 391.268774 
L 278.046 389.880096 
L 278.604 390.930444 
L 279.162 389.223486 
L 279.72 390.537198 
L 280.278 389.567403 
L 280.836 390.64322 
L 281.394 389.867816 
L 281.952 390.794039 
L 282.51 389.457602 
L 283.068 390.216959 
L 283.626 389.174214 
L 284.184 390.109086 
L 284.742 390.704067 
L 285.3 388.75444 
L 285.858 391.40711 
L 286.416 389.169195 
L 286.974 391.511496 
L 287.532 388.589033 
L 288.09 390.652945 
L 288.648 389.419228 
L 289.206 389.863979 
L 289.764 390.681486 
L 290.322 389.38274 
L 290.88 390.959374 
L 291.438 388.736331 
L 291.996 391.810648 
L 292.554 388.717667 
L 293.112 391.271362 
L 293.67 389.368264 
L 294.228 390.594964 
L 294.786 390.028705 
L 295.344 390.668862 
L 295.902 389.474434 
L 296.46 390.734695 
L 297.018 390.620071 
L 297.576 389.899989 
L 298.134 390.554255 
L 298.692 389.631995 
L 299.25 390.674893 
L 299.808 389.937925 
L 300.366 390.3536 
L 300.924 390.198225 
L 301.482 389.786392 
L 302.04 390.050225 
L 302.598 390.530757 
L 303.156 389.134456 
L 303.714 390.934868 
L 304.272 389.757106 
L 304.83 391.19798 
L 305.388 389.025787 
L 305.946 392.192622 
L 306.504 387.837035 
L 307.062 392.291516 
L 307.62 387.290736 
L 308.178 392.722746 
L 308.736 387.478906 
L 309.294 393.057425 
L 309.852 387.196812 
L 310.41 392.832373 
L 310.968 387.568724 
L 311.526 392.538328 
L 312.084 387.331284 
L 312.642 392.678508 
L 313.2 387.545116 
L 313.758 392.856128 
L 314.316 387.352812 
L 314.874 391.811134 
L 315.432 387.867875 
L 315.99 392.811904 
L 316.548 386.789678 
L 317.106 393.05959 
L 317.664 386.920912 
L 318.222 395.189316 
L 318.78 384.192464 
L 319.338 395.34943 
L 319.896 383.94297 
L 320.454 395.819615 
L 321.012 384.630741 
L 321.57 394.566728 
L 322.128 385.412258 
L 322.686 394.45493 
L 323.244 385.35487 
L 323.802 394.294939 
L 324.36 385.293308 
L 324.918 394.649189 
L 325.476 384.898117 
L 326.034 393.690833 
L 326.592 386.423273 
L 327.15 393.511374 
L 327.708 386.787725 
L 328.266 393.335115 
L 328.824 386.730243 
L 329.382 393.424831 
L 329.94 387.059198 
L 330.498 392.662283 
L 331.056 387.088471 
L 331.614 392.984004 
L 332.172 387.66801 
L 332.73 392.499369 
L 333.288 388.28291 
L 333.846 391.177406 
L 334.404 387.532051 
L 334.962 392.034849 
L 335.52 388.460875 
L 336.078 391.087929 
L 336.636 388.629881 
L 337.194 391.44888 
L 337.752 388.568777 
L 338.31 392.350644 
L 338.868 388.180475 
L 339.426 392.597285 
L 339.984 388.060123 
L 340.542 392.48645 
L 341.1 387.411805 
L 341.658 392.823974 
L 342.216 386.598951 
L 342.774 392.680377 
L 343.332 387.301908 
L 343.89 392.891805 
L 344.448 387.534332 
L 345.006 393.132592 
L 345.564 387.170968 
L 346.122 392.426909 
L 346.68 387.432857 
L 347.238 392.366361 
L 347.796 387.798241 
L 348.354 392.774529 
L 348.912 387.227293 
L 349.47 392.308812 
L 350.028 389.07923 
L 350.586 391.937777 
L 351.144 388.236644 
L 351.702 390.845681 
L 352.26 389.228938 
L 352.818 390.965319 
L 353.376 389.325142 
L 353.934 390.687021 
L 354.492 388.154908 
L 355.05 391.71016 
L 355.608 388.506233 
L 356.166 391.472502 
L 356.724 388.738173 
L 357.282 392.068268 
L 357.84 388.159639 
L 358.398 391.115302 
L 358.956 389.160059 
L 359.514 390.978914 
L 360.072 389.133704 
L 360.63 391.361322 
L 361.188 389.132089 
L 361.746 391.0937 
L 362.304 388.474748 
L 362.862 391.745622 
L 363.42 387.908165 
L 363.978 391.885785 
L 364.536 388.350401 
L 365.094 392.012687 
L 365.652 388.784324 
L 366.21 391.145165 
L 366.768 387.874955 
L 367.326 391.221862 
L 367.884 388.957292 
L 368.442 391.565176 
L 369 388.609994 
L 369.558 390.973801 
L 370.116 389.8101 
L 370.674 389.675958 
L 371.232 390.75215 
L 371.79 389.917029 
L 372.348 390.285934 
L 372.906 389.472806 
L 373.464 390.340845 
L 374.022 390.076257 
L 374.58 390.416036 
L 375.138 389.765954 
L 375.696 389.948204 
L 376.254 389.50308 
L 376.812 391.713404 
L 377.37 387.885917 
L 377.928 392.068148 
L 378.486 388.743832 
L 379.044 391.178845 
L 379.602 389.783517 
L 380.16 390.862139 
L 380.718 389.589858 
L 381.276 390.82749 
L 381.834 389.148036 
L 382.392 391.923142 
L 382.95 387.316682 
L 383.508 392.084509 
L 384.066 388.003048 
L 384.624 391.752818 
L 385.182 388.88226 
L 385.74 391.136998 
L 386.298 389.852452 
L 386.856 390.755257 
L 387.414 389.061992 
L 387.972 392.047614 
L 388.53 388.343296 
L 389.088 391.125074 
L 389.646 387.917464 
L 390.204 392.699025 
L 390.762 387.693442 
L 391.32 392.66749 
L 391.878 388.03832 
L 392.436 392.32733 
L 392.994 388.088951 
L 393.552 391.506828 
L 394.11 388.48875 
L 394.668 392.186729 
L 395.226 387.123512 
L 395.784 393.142826 
L 396.342 387.045622 
L 396.9 392.500127 
L 397.458 387.499961 
L 398.016 392.484082 
L 398.574 386.785795 
L 399.132 393.281875 
L 399.69 386.972735 
L 400.248 393.227067 
L 400.806 387.156686 
L 401.364 392.59735 
L 401.922 387.24068 
L 402.48 392.854412 
L 403.038 388.370684 
L 403.596 391.260224 
L 404.154 388.894583 
L 404.712 390.382013 
L 405.27 388.907527 
L 405.828 391.257589 
L 406.386 390.124154 
L 406.944 389.51563 
L 407.502 391.309173 
L 408.06 389.430591 
L 408.618 391.332729 
L 409.176 388.81059 
L 409.734 391.254651 
L 410.292 388.974154 
L 410.85 391.187922 
L 411.408 389.072853 
L 411.966 391.125979 
L 412.524 389.800001 
L 413.64 390.562625 
L 414.198 389.214865 
L 414.756 391.170104 
L 415.314 388.919763 
L 415.872 391.425665 
L 416.43 388.690753 
L 416.988 390.816978 
L 417.546 389.381474 
L 418.104 390.242427 
L 418.662 389.937312 
L 419.22 390.543031 
L 419.778 389.92177 
L 420.336 390.979505 
L 420.894 389.565398 
L 421.452 391.024222 
L 422.01 389.271104 
L 422.568 390.335443 
L 423.126 389.177178 
L 423.684 391.007683 
L 424.242 389.152656 
L 424.8 390.733269 
L 425.358 389.687796 
L 425.916 389.772085 
L 426.474 391.089869 
L 427.032 389.065994 
L 427.59 391.191079 
L 428.148 389.259959 
L 428.706 390.344517 
L 429.264 390.112038 
L 429.822 390.554882 
L 430.38 389.580078 
L 430.938 390.465646 
L 431.496 390.053331 
L 432.054 389.88093 
L 432.612 390.932411 
L 433.17 390.19257 
L 433.728 390.750609 
L 434.286 388.40022 
L 434.844 391.028019 
L 435.402 388.999294 
L 435.96 390.897037 
L 436.518 389.709369 
L 437.076 390.195198 
L 437.634 389.984017 
L 438.192 389.896579 
L 438.75 390.46113 
L 439.308 389.835689 
L 439.866 390.362566 
L 440.424 389.15519 
L 440.982 390.568008 
L 441.54 389.965866 
L 442.098 389.790231 
L 442.656 391.012322 
L 443.214 389.019003 
L 443.772 391.025728 
L 444.33 388.663948 
L 444.888 390.668406 
L 445.446 389.690572 
L 446.004 389.828162 
L 446.562 390.201975 
L 447.678 389.742181 
L 448.236 390.514022 
L 448.794 389.588156 
L 449.352 390.307988 
L 449.91 390.372746 
L 450.468 389.12835 
L 451.026 391.289207 
L 451.584 389.156431 
L 452.142 390.925233 
L 452.7 389.517756 
L 453.258 390.691928 
L 453.816 388.728697 
L 454.374 391.881435 
L 454.932 387.688301 
L 455.49 392.629587 
L 456.048 386.428207 
L 456.606 393.10488 
L 457.164 386.029563 
L 457.722 393.286909 
L 458.28 387.130012 
L 458.838 393.621768 
L 459.396 386.647563 
L 459.954 393.195609 
L 460.512 387.238852 
L 461.07 393.10472 
L 461.628 387.640153 
L 462.186 391.798572 
L 462.744 388.757584 
L 463.302 390.779933 
L 463.86 390.258555 
L 464.418 390.643828 
L 464.976 389.358911 
L 465.534 390.807719 
L 466.092 389.644538 
L 466.65 390.422133 
L 467.208 389.74447 
L 467.766 390.80994 
L 468.324 390.077441 
L 468.882 390.16332 
L 469.44 389.015977 
L 469.998 390.939629 
L 470.556 389.344729 
L 471.114 390.930354 
L 471.672 389.845855 
L 472.23 389.565918 
L 472.788 390.094495 
L 473.904 390.520585 
L 474.462 389.182142 
L 475.02 391.171902 
L 475.578 387.738737 
L 476.136 392.155676 
L 476.694 387.961652 
L 477.252 391.464634 
L 477.81 388.375446 
L 478.368 391.032548 
L 478.926 389.415669 
L 479.484 390.719289 
L 480.042 388.778294 
L 480.6 390.528808 
L 481.158 389.990167 
L 481.716 391.203344 
L 482.274 389.87193 
L 482.832 390.028572 
L 483.39 390.721709 
L 483.948 389.034759 
L 484.506 391.43081 
L 485.064 388.187349 
L 485.622 391.590459 
L 486.18 389.215887 
L 486.738 390.564006 
L 487.296 389.761932 
L 487.854 390.371762 
L 488.412 390.417558 
L 488.97 389.242252 
L 490.086 390.925959 
L 490.644 390.555936 
L 491.202 389.715815 
L 491.76 390.051142 
L 492.318 390.04786 
L 492.876 389.665723 
L 493.434 390.043395 
L 493.992 389.707383 
L 494.55 390.822924 
L 495.108 388.024483 
L 495.666 391.585226 
L 496.224 387.692019 
L 496.782 392.958843 
L 497.34 387.348007 
L 497.898 392.924643 
L 498.456 388.529266 
L 499.014 390.232097 
L 499.572 390.00719 
L 500.13 389.902341 
L 500.688 390.229791 
L 501.246 389.677076 
L 501.804 390.522571 
L 502.362 388.810743 
L 502.92 391.301059 
L 503.478 388.378205 
L 504.036 392.389643 
L 504.594 388.88521 
L 505.152 391.300867 
L 505.71 388.940343 
L 506.268 390.870461 
L 506.826 389.235525 
L 507.384 391.104967 
L 507.942 389.356858 
L 508.5 390.990187 
L 509.058 389.531218 
L 509.616 391.105609 
L 510.174 388.205154 
L 510.732 392.442405 
L 511.29 388.141521 
L 511.848 392.610196 
L 512.406 387.557062 
L 512.964 392.812074 
L 513.522 388.105978 
L 514.08 391.390008 
L 514.638 389.058599 
L 515.196 391.141084 
L 515.754 389.13259 
L 516.312 390.800934 
L 516.87 389.009597 
L 517.428 390.479753 
L 517.986 390.201359 
L 518.544 390.696771 
L 519.102 389.038283 
L 519.66 392.395354 
L 520.218 387.748783 
L 520.776 392.099471 
L 521.334 388.408564 
L 521.892 390.933342 
L 522.45 388.904901 
L 523.008 390.540832 
L 523.566 389.38718 
L 524.124 390.553192 
L 524.682 389.758122 
L 525.24 390.010563 
L 525.798 389.88755 
L 526.356 391.557986 
L 526.914 389.011497 
L 527.472 390.2633 
L 528.588 389.594948 
L 529.146 390.510744 
L 529.704 389.683864 
L 530.262 390.891168 
L 530.82 389.432775 
L 531.378 390.617276 
L 531.936 389.60619 
L 532.494 390.450799 
L 533.052 389.660331 
L 533.61 390.809759 
L 534.168 389.359792 
L 534.726 390.278534 
L 535.842 389.885576 
L 536.4 390.070205 
L 536.958 389.999872 
L 537.516 390.692491 
L 538.074 389.679169 
L 538.632 390.380269 
L 539.19 389.284873 
L 539.748 391.030512 
L 540.306 388.746277 
L 540.864 392.235835 
L 541.422 387.776681 
L 541.98 392.38201 
L 542.538 386.764258 
L 543.096 392.970837 
L 543.654 387.485817 
L 544.212 392.013352 
L 544.77 388.165403 
L 545.328 391.877861 
L 545.886 388.244575 
L 546.444 391.712731 
L 547.002 389.423005 
L 547.56 390.755335 
L 548.118 389.031287 
L 548.676 390.75656 
L 549.234 390.938763 
L 549.792 389.43334 
L 550.35 391.032587 
L 550.908 389.232726 
L 551.466 391.155822 
L 552.024 389.019644 
L 552.582 391.497874 
L 553.14 388.833979 
L 553.698 391.588509 
L 554.256 388.286504 
L 554.814 391.263794 
L 555.372 389.869323 
L 555.93 390.341261 
L 556.488 388.925248 
L 557.046 391.850666 
L 557.604 387.475881 
L 558.162 392.31992 
L 558.72 388.396605 
L 559.278 391.623685 
L 559.836 387.954013 
L 560.394 391.776009 
L 560.952 388.520761 
L 561.51 391.896031 
L 562.068 388.277378 
L 562.626 391.027797 
L 563.184 388.560505 
L 563.742 392.802983 
L 564.3 388.292001 
L 564.858 391.620054 
L 565.416 388.356566 
L 565.974 392.148492 
L 566.532 388.06792 
L 567.09 391.843659 
L 567.648 388.366858 
L 568.206 391.364636 
L 568.764 387.492316 
L 569.322 391.645038 
L 569.88 388.465524 
L 570.438 391.64735 
L 570.996 388.891626 
L 571.554 390.985688 
L 572.112 389.409912 
L 572.67 390.162653 
L 573.228 389.473693 
L 573.786 390.723222 
L 574.344 390.673925 
L 574.902 388.739982 
L 575.46 391.981424 
L 576.018 389.478211 
L 576.576 390.576522 
L 577.134 389.613347 
L 577.692 390.334877 
L 578.25 389.585968 
L 578.808 390.237551 
L 579.366 389.3989 
L 579.924 390.259626 
L 580.482 389.366317 
L 581.04 390.873128 
L 581.598 388.044245 
L 582.156 391.510012 
L 582.714 389.685216 
L 583.272 391.241661 
L 583.83 389.481929 
L 584.388 390.183628 
L 584.946 390.462683 
L 585.504 388.79721 
L 586.062 391.421301 
L 586.62 388.790899 
L 587.178 391.457704 
L 587.736 388.972643 
L 588.294 391.716204 
L 588.852 387.982385 
L 589.41 391.640943 
L 589.968 388.474909 
L 590.526 391.990262 
L 591.084 387.862773 
L 591.642 391.873326 
L 592.2 388.861821 
L 592.758 390.625607 
L 593.316 389.735897 
L 593.874 390.078181 
L 594.432 390.187433 
L 594.99 390.806306 
L 595.548 389.616902 
L 596.106 390.496722 
L 596.664 389.730534 
L 597.222 390.667654 
L 597.78 389.077565 
L 598.338 391.633132 
L 598.896 388.958976 
L 599.454 391.148303 
L 600.012 388.880311 
L 600.57 391.013918 
L 601.128 389.85116 
L 601.686 389.896956 
L 602.244 390.063605 
L 602.802 390.675967 
L 603.36 389.427562 
L 603.918 389.876646 
L 604.476 390.524786 
L 605.034 389.728787 
L 605.592 391.554033 
L 606.15 388.826235 
L 606.708 390.976135 
L 607.266 387.995376 
L 607.824 391.56305 
L 608.382 388.616828 
L 608.94 392.720343 
L 609.498 387.109807 
L 610.056 392.480319 
L 610.614 387.614794 
L 611.172 393.439875 
L 611.73 386.462829 
L 612.288 394.05231 
L 612.846 386.603711 
L 613.404 393.668355 
L 613.962 386.446699 
L 614.52 393.249268 
L 615.078 386.226886 
L 615.636 393.731543 
L 616.194 386.7373 
L 616.752 393.357284 
L 617.31 387.267837 
L 617.868 393.101265 
L 618.426 386.355874 
L 618.984 392.920111 
L 619.542 386.865478 
L 620.1 393.282676 
L 620.658 386.066568 
L 621.216 393.135964 
L 621.774 387.606945 
L 622.332 391.971164 
L 622.89 388.139 
L 623.448 391.670724 
L 624.006 389.253862 
L 624.564 391.618777 
L 625.122 388.397267 
L 625.68 391.762997 
L 626.238 388.120699 
L 626.796 391.55279 
L 627.354 388.297734 
L 627.912 391.600309 
L 628.47 387.79124 
L 629.028 392.134529 
L 629.586 386.551349 
L 630.144 393.355055 
L 630.702 386.885843 
L 631.26 393.093405 
L 631.818 386.208137 
L 632.376 394.370625 
L 632.934 385.171546 
L 633.492 394.331956 
L 634.05 385.022136 
L 634.608 394.912946 
L 635.166 384.926396 
L 635.724 394.753439 
L 636.282 384.658846 
L 636.84 395.269219 
L 637.398 384.636613 
L 637.956 394.860437 
L 638.514 385.199517 
L 639.072 393.995708 
L 639.63 385.639135 
L 640.188 393.413062 
L 640.746 386.433864 
L 641.304 393.41889 
L 641.862 386.713806 
L 642.42 394.243322 
L 642.978 385.281939 
L 643.536 394.471805 
L 644.094 385.274396 
L 644.652 394.003769 
L 645.21 384.896284 
L 645.768 395.025859 
L 646.326 384.868203 
L 646.884 394.507164 
L 646.884 394.507164 
" clip-path="url(#p5515de251c)" style="fill: none; stroke: #000000; stroke-width: 1.5; stroke-linecap: round"/>
   </g>
   <g id="patch_3">
    <path d="M 90 448.56 
L 90 60.48 
" style="fill: none; stroke: #cccccc; stroke-width: 0.8; stroke-linejoin: miter; stroke-linecap: square"/>
   </g>
   <g id="patch_4">
    <path d="M 648 448.56 
L 648 60.48 
" style="fill: none; stroke: #cccccc; stroke-width: 0.8; stroke-linejoin: miter; stroke-linecap: square"/>
   </g>
   <g id="patch_5">
    <path d="M 90 448.56 
L 648 448.56 
" style="fill: none; stroke: #cccccc; stroke-width: 0.8; stroke-linejoin: miter; stroke-linecap: square"/>
   </g>
   <g id="patch_6">
    <path d="M 90 60.48 
L 648 60.48 
" style="fill: none; stroke: #cccccc; stroke-width: 0.8; stroke-linejoin: miter; stroke-linecap: square"/>
   </g>
   <g id="legend_1">
    <g id="patch_7">
     <path d="M 533.8 104.770625 
L 634 104.770625 
Q 638 104.770625 638 100.770625 
L 638 74.48 
Q 638 70.48 634 70.48 
L 533.8 70.48 
Q 529.8 70.48 529.8 74.48 
L 529.8 100.770625 
Q 529.8 104.770625 533.8 104.770625 
z
" style="fill: #ffffff; opacity: 0.8; stroke: #cccccc; stroke-linejoin: miter"/>
    </g>
    <g id="line2d_16">
     <path d="M 537.8 85.795625 
L 557.8 85.795625 
L 577.8 85.795625 
" style="fill: none; stroke: #000000; stroke-width: 1.5; stroke-linecap: round"/>
    </g>
    <g id="text_17">
     <!-- $u(t)$ -->
     <g style="fill: #262626" transform="translate(593.8 92.795625)">
      <text>
       <tspan style="font: oblique 20px 'DejaVu Sans'" x="0 20.478516" y="-0.828125">ut</tspan>
       <tspan style="font: 20px 'DejaVu Sans'" x="12.675781 28.320312" y="-0.828125">()</tspan>
      </text>
     </g>
    </g>
   </g>
  </g>
 </g>
 <defs>
  <clipPath id="p5515de251c">
   <rect x="90" y="60.48" width="558" height="388.08"/>
  </clipPath>
 </defs>
</svg>
