<?xml version="1.0" encoding="utf-8" standalone="no"?>
<!DOCTYPE svg PUBLIC "-//W3C//DTD SVG 1.1//EN"
  "http://www.w3.org/Graphics/SVG/1.1/DTD/svg11.dtd">
<svg xmlns:xlink="http://www.w3.org/1999/xlink" width="720pt" height="504pt" viewBox="0 0 720 504" xmlns="http://www.w3.org/2000/svg" version="1.1">
 <metadata>
  <rdf:RDF xmlns:dc="http://purl.org/dc/elements/1.1/" xmlns:cc="http://creativecommons.org/ns#" xmlns:rdf="http://www.w3.org/1999/02/22-rdf-syntax-ns#">
   <cc:Work>
    <dc:type rdf:resource="http://purl.org/dc/dcmitype/StillImage"/>
    <dc:date>2024-10-02T01:20:20.319798</dc:date>
    <dc:format>image/svg+xml</dc:format>
    <dc:creator>
     <cc:Agent>
      <dc:title>Matplotlib v3.7.2, https://matplotlib.org/</dc:title>
     </cc:Agent>
    </dc:creator>
   </cc:Work>
  </rdf:RDF>
 </metadata>
 <defs>
  <style type="text/css">*{stroke-linejoin: round; stroke-linecap: butt}</style>
 </defs>
 <g id="figure_1">
  <g id="patch_1">
   <path d="M 0 504 
L 720 504 
L 720 0 
L 0 0 
z
" style="fill: #ffffff"/>
  </g>
  <g id="axes_1">
   <g id="patch_2">
    <path d="M 90 448.56 
L 648 448.56 
L 648 60.48 
L 90 60.48 
z
" style="fill: #ffffff"/>
   </g>
   <g id="matplotlib.axis_1">
    <g id="xtick_1">
     <g id="line2d_1">
      <path d="M 90 448.56 
L 90 60.48 
" clip-path="url(#p425dab2168)" style="fill: none; stroke: #cccccc; stroke-width: 0.8; stroke-linecap: round"/>
     </g>
     <g id="text_1">
      <text style="fill: #262626; font: 20px 'Arial', 'DejaVu Sans', 'Liberation Sans', 'Bitstream Vera Sans', sans-serif; text-anchor: middle" x="90" y="469.875625" transform="rotate(-0 90 469.875625)">0</text>
     </g>
    </g>
    <g id="xtick_2">
     <g id="line2d_2">
      <path d="M 201.6 448.56 
L 201.6 60.48 
" clip-path="url(#p425dab2168)" style="fill: none; stroke: #cccccc; stroke-width: 0.8; stroke-linecap: round"/>
     </g>
     <g id="text_2">
      <text style="fill: #262626; font: 20px 'Arial', 'DejaVu Sans', 'Liberation Sans', 'Bitstream Vera Sans', sans-serif; text-anchor: middle" x="201.6" y="469.875625" transform="rotate(-0 201.6 469.875625)">20</text>
     </g>
    </g>
    <g id="xtick_3">
     <g id="line2d_3">
      <path d="M 313.2 448.56 
L 313.2 60.48 
" clip-path="url(#p425dab2168)" style="fill: none; stroke: #cccccc; stroke-width: 0.8; stroke-linecap: round"/>
     </g>
     <g id="text_3">
      <text style="fill: #262626; font: 20px 'Arial', 'DejaVu Sans', 'Liberation Sans', 'Bitstream Vera Sans', sans-serif; text-anchor: middle" x="313.2" y="469.875625" transform="rotate(-0 313.2 469.875625)">40</text>
     </g>
    </g>
    <g id="xtick_4">
     <g id="line2d_4">
      <path d="M 424.8 448.56 
L 424.8 60.48 
" clip-path="url(#p425dab2168)" style="fill: none; stroke: #cccccc; stroke-width: 0.8; stroke-linecap: round"/>
     </g>
     <g id="text_4">
      <text style="fill: #262626; font: 20px 'Arial', 'DejaVu Sans', 'Liberation Sans', 'Bitstream Vera Sans', sans-serif; text-anchor: middle" x="424.8" y="469.875625" transform="rotate(-0 424.8 469.875625)">60</text>
     </g>
    </g>
    <g id="xtick_5">
     <g id="line2d_5">
      <path d="M 536.4 448.56 
L 536.4 60.48 
" clip-path="url(#p425dab2168)" style="fill: none; stroke: #cccccc; stroke-width: 0.8; stroke-linecap: round"/>
     </g>
     <g id="text_5">
      <text style="fill: #262626; font: 20px 'Arial', 'DejaVu Sans', 'Liberation Sans', 'Bitstream Vera Sans', sans-serif; text-anchor: middle" x="536.4" y="469.875625" transform="rotate(-0 536.4 469.875625)">80</text>
     </g>
    </g>
    <g id="xtick_6">
     <g id="line2d_6">
      <path d="M 648 448.56 
L 648 60.48 
" clip-path="url(#p425dab2168)" style="fill: none; stroke: #cccccc; stroke-width: 0.8; stroke-linecap: round"/>
     </g>
     <g id="text_6">
      <text style="fill: #262626; font: 20px 'Arial', 'DejaVu Sans', 'Liberation Sans', 'Bitstream Vera Sans', sans-serif; text-anchor: middle" x="648" y="469.875625" transform="rotate(-0 648 469.875625)">100</text>
     </g>
    </g>
    <g id="text_7">
     <text style="fill: #262626; font: 20px 'Arial', 'DejaVu Sans', 'Liberation Sans', 'Bitstream Vera Sans', sans-serif; text-anchor: middle" x="369" y="492.16625" transform="rotate(-0 369 492.16625)">Время, дни</text>
    </g>
   </g>
   <g id="matplotlib.axis_2">
    <g id="ytick_1">
     <g id="line2d_7">
      <path d="M 90 448.56 
L 648 448.56 
" clip-path="url(#p425dab2168)" style="fill: none; stroke: #cccccc; stroke-width: 0.8; stroke-linecap: round"/>
     </g>
     <g id="text_8">
      <text style="fill: #262626; font: 20px 'Arial', 'DejaVu Sans', 'Liberation Sans', 'Bitstream Vera Sans', sans-serif; text-anchor: end" x="83" y="455.717813" transform="rotate(-0 83 455.717813)">0</text>
     </g>
    </g>
    <g id="ytick_2">
     <g id="line2d_8">
      <path d="M 90 391.523644 
L 648 391.523644 
" clip-path="url(#p425dab2168)" style="fill: none; stroke: #cccccc; stroke-width: 0.8; stroke-linecap: round"/>
     </g>
     <g id="text_9">
      <text style="fill: #262626; font: 20px 'Arial', 'DejaVu Sans', 'Liberation Sans', 'Bitstream Vera Sans', sans-serif; text-anchor: end" x="83" y="398.681457" transform="rotate(-0 83 398.681457)">5</text>
     </g>
    </g>
    <g id="ytick_3">
     <g id="line2d_9">
      <path d="M 90 334.487288 
L 648 334.487288 
" clip-path="url(#p425dab2168)" style="fill: none; stroke: #cccccc; stroke-width: 0.8; stroke-linecap: round"/>
     </g>
     <g id="text_10">
      <text style="fill: #262626; font: 20px 'Arial', 'DejaVu Sans', 'Liberation Sans', 'Bitstream Vera Sans', sans-serif; text-anchor: end" x="83" y="341.645101" transform="rotate(-0 83 341.645101)">10</text>
     </g>
    </g>
    <g id="ytick_4">
     <g id="line2d_10">
      <path d="M 90 277.450932 
L 648 277.450932 
" clip-path="url(#p425dab2168)" style="fill: none; stroke: #cccccc; stroke-width: 0.8; stroke-linecap: round"/>
     </g>
     <g id="text_11">
      <text style="fill: #262626; font: 20px 'Arial', 'DejaVu Sans', 'Liberation Sans', 'Bitstream Vera Sans', sans-serif; text-anchor: end" x="83" y="284.608745" transform="rotate(-0 83 284.608745)">15</text>
     </g>
    </g>
    <g id="ytick_5">
     <g id="line2d_11">
      <path d="M 90 220.414576 
L 648 220.414576 
" clip-path="url(#p425dab2168)" style="fill: none; stroke: #cccccc; stroke-width: 0.8; stroke-linecap: round"/>
     </g>
     <g id="text_12">
      <text style="fill: #262626; font: 20px 'Arial', 'DejaVu Sans', 'Liberation Sans', 'Bitstream Vera Sans', sans-serif; text-anchor: end" x="83" y="227.572389" transform="rotate(-0 83 227.572389)">20</text>
     </g>
    </g>
    <g id="ytick_6">
     <g id="line2d_12">
      <path d="M 90 163.37822 
L 648 163.37822 
" clip-path="url(#p425dab2168)" style="fill: none; stroke: #cccccc; stroke-width: 0.8; stroke-linecap: round"/>
     </g>
     <g id="text_13">
      <text style="fill: #262626; font: 20px 'Arial', 'DejaVu Sans', 'Liberation Sans', 'Bitstream Vera Sans', sans-serif; text-anchor: end" x="83" y="170.536033" transform="rotate(-0 83 170.536033)">25</text>
     </g>
    </g>
    <g id="ytick_7">
     <g id="line2d_13">
      <path d="M 90 106.341864 
L 648 106.341864 
" clip-path="url(#p425dab2168)" style="fill: none; stroke: #cccccc; stroke-width: 0.8; stroke-linecap: round"/>
     </g>
     <g id="text_14">
      <text style="fill: #262626; font: 20px 'Arial', 'DejaVu Sans', 'Liberation Sans', 'Bitstream Vera Sans', sans-serif; text-anchor: end" x="83" y="113.499677" transform="rotate(-0 83 113.499677)">30</text>
     </g>
    </g>
    <g id="text_15">
     <text style="fill: #262626; font: 20px 'Arial', 'DejaVu Sans', 'Liberation Sans', 'Bitstream Vera Sans', sans-serif; text-anchor: middle" x="52.546875" y="254.52" transform="rotate(-90 52.546875 254.52)">Популяция, ед/л</text>
    </g>
   </g>
   <g id="line2d_14">
    <path d="M 90 391.523644 
L 90.558 397.489647 
L 91.116 76.528078 
L 91.674 384.471932 
L 92.232 90.0759 
L 92.79 370.348486 
L 93.348 106.579759 
L 93.906 354.543785 
L 94.464 119.952594 
L 95.022 342.432931 
L 95.58 130.47131 
L 96.138 331.104075 
L 96.696 142.841494 
L 97.254 319.852822 
L 97.812 152.375049 
L 98.37 311.583279 
L 98.928 161.106096 
L 99.486 302.455614 
L 100.044 168.335855 
L 100.602 295.328229 
L 101.16 175.699657 
L 101.718 289.022393 
L 102.276 181.583589 
L 102.834 283.475081 
L 103.392 186.400613 
L 103.95 279.917641 
L 104.508 189.334419 
L 105.066 275.428571 
L 105.624 194.050388 
L 106.182 271.35885 
L 106.74 199.241121 
L 107.298 267.681624 
L 107.856 202.401818 
L 108.414 261.639826 
L 108.972 207.166371 
L 109.53 260.597016 
L 110.088 209.177132 
L 110.646 259.131892 
L 111.204 208.019492 
L 111.762 255.92762 
L 112.32 213.040125 
L 112.878 253.990153 
L 113.436 214.289096 
L 113.994 251.17873 
L 114.552 217.483199 
L 115.11 249.254279 
L 115.668 220.224032 
L 116.226 246.362579 
L 116.784 221.839867 
L 117.342 247.34728 
L 117.9 221.234386 
L 118.458 245.928174 
L 119.016 220.16654 
L 119.574 245.611364 
L 120.132 222.158228 
L 120.69 245.629954 
L 121.248 221.886845 
L 121.806 244.532238 
L 122.364 223.234141 
L 122.922 245.893726 
L 123.48 223.105927 
L 124.038 244.011068 
L 124.596 223.497313 
L 125.154 244.552778 
L 125.712 223.893424 
L 126.27 243.052743 
L 126.828 224.715879 
L 127.386 241.561195 
L 127.944 227.063473 
L 128.502 241.020773 
L 129.06 226.786712 
L 129.618 238.590404 
L 130.176 227.918787 
L 130.734 237.263145 
L 131.292 229.549909 
L 131.85 237.949492 
L 132.408 229.473861 
L 132.966 239.768338 
L 133.524 230.443299 
L 134.082 237.112019 
L 134.64 232.437173 
L 135.198 234.358395 
L 135.756 233.871234 
L 136.314 233.924698 
L 136.872 230.273964 
L 137.43 235.701463 
L 137.988 233.025814 
L 138.546 236.440935 
L 139.104 231.681895 
L 139.662 237.792957 
L 140.22 228.822063 
L 140.778 235.935858 
L 141.336 230.743308 
L 141.894 236.366325 
L 142.452 233.636675 
L 143.01 234.18592 
L 143.568 233.495049 
L 144.126 234.229347 
L 144.684 234.24358 
L 145.242 232.782399 
L 145.8 235.882157 
L 146.358 233.315289 
L 146.916 236.142372 
L 147.474 232.126505 
L 148.032 237.798762 
L 148.59 230.789634 
L 149.148 235.624333 
L 149.706 231.946957 
L 150.264 240.067647 
L 150.822 228.402146 
L 151.38 239.590244 
L 151.938 226.272027 
L 152.496 238.937245 
L 153.054 229.802471 
L 153.612 237.180849 
L 154.17 231.982416 
L 154.728 235.956163 
L 155.286 232.91547 
L 155.844 236.76705 
L 156.402 232.775211 
L 156.96 235.943233 
L 157.518 233.643215 
L 158.076 235.842538 
L 158.634 233.823072 
L 159.192 233.249483 
L 159.75 231.93269 
L 160.308 235.604515 
L 160.866 234.619783 
L 161.424 233.007113 
L 161.982 233.268163 
L 162.54 233.749422 
L 163.098 233.320614 
L 163.656 235.346522 
L 164.214 232.070506 
L 164.772 234.789361 
L 165.33 231.970852 
L 165.888 235.803704 
L 166.446 232.222063 
L 167.004 236.194954 
L 167.562 231.369061 
L 168.12 234.297491 
L 168.678 234.879066 
L 169.236 231.615226 
L 169.794 235.578976 
L 170.352 232.426486 
L 170.91 236.407199 
L 171.468 230.806744 
L 172.026 235.64085 
L 172.584 232.692637 
L 173.142 236.145513 
L 173.7 233.470599 
L 174.258 234.663844 
L 174.816 231.067849 
L 175.374 235.774542 
L 175.932 234.270588 
L 176.49 234.705736 
L 177.048 233.093176 
L 177.606 234.950517 
L 178.164 232.837774 
L 178.722 235.985086 
L 179.28 231.905234 
L 179.838 236.134725 
L 180.396 230.097671 
L 180.954 237.532287 
L 181.512 232.128358 
L 182.07 236.219718 
L 182.628 233.466224 
L 183.186 233.813707 
L 183.744 233.819628 
L 184.302 234.371861 
L 184.86 234.682427 
L 185.418 234.755046 
L 185.976 234.398212 
L 186.534 232.35492 
L 187.092 237.63297 
L 187.65 231.165703 
L 188.208 236.947447 
L 188.766 232.14345 
L 189.324 234.308129 
L 189.882 232.994511 
L 190.44 232.878641 
L 190.998 234.992628 
L 191.556 235.248654 
L 192.114 231.827847 
L 192.672 236.752757 
L 193.23 231.553323 
L 193.788 235.934125 
L 194.346 229.149948 
L 194.904 241.078216 
L 195.462 227.652063 
L 196.02 239.318461 
L 196.578 230.171824 
L 197.136 237.245949 
L 197.694 230.520136 
L 198.252 235.981364 
L 198.81 233.525925 
L 199.368 235.428674 
L 199.926 232.5488 
L 200.484 233.826982 
L 201.042 233.224428 
L 201.6 231.61039 
L 202.158 237.190295 
L 202.716 230.362751 
L 203.274 238.148898 
L 203.832 228.008101 
L 204.39 238.502171 
L 204.948 229.366972 
L 205.506 237.319207 
L 206.064 230.078918 
L 206.622 237.505797 
L 207.18 231.1878 
L 207.738 235.474388 
L 208.296 230.973657 
L 208.854 235.743934 
L 209.412 232.348172 
L 209.97 235.148037 
L 210.528 232.451325 
L 211.644 235.180349 
L 212.202 232.364205 
L 212.76 235.635635 
L 213.318 231.902978 
L 213.876 235.50169 
L 214.434 231.850414 
L 214.992 234.858942 
L 215.55 233.608338 
L 216.108 234.823172 
L 216.666 232.881797 
L 217.224 237.224601 
L 217.782 231.218169 
L 218.34 237.879781 
L 218.898 230.312726 
L 219.456 235.543793 
L 220.014 231.074762 
L 220.572 235.678365 
L 221.13 231.049575 
L 221.688 234.953342 
L 222.246 232.69272 
L 222.804 234.099194 
L 223.362 233.23556 
L 223.92 233.42398 
L 224.478 236.229011 
L 225.036 231.31856 
L 225.594 236.955752 
L 226.152 231.466327 
L 226.71 236.783965 
L 227.268 230.067744 
L 227.826 236.849618 
L 228.384 229.646838 
L 228.942 235.805285 
L 229.5 233.083175 
L 230.058 235.596086 
L 230.616 233.566329 
L 231.174 237.126704 
L 231.732 229.212105 
L 232.29 238.443563 
L 232.848 230.99466 
L 233.406 235.351127 
L 233.964 231.473152 
L 234.522 234.440603 
L 235.08 232.422864 
L 235.638 235.159695 
L 236.196 233.948983 
L 236.754 234.987855 
L 237.312 231.7011 
L 237.87 236.244116 
L 238.428 230.488894 
L 238.986 238.190241 
L 239.544 229.742969 
L 240.102 238.466791 
L 240.66 229.043277 
L 241.218 238.836269 
L 241.776 229.884947 
L 242.334 237.645765 
L 242.892 230.826127 
L 243.45 235.751086 
L 244.008 232.20905 
L 244.566 236.935466 
L 245.124 229.81276 
L 245.682 237.688398 
L 246.24 231.34804 
L 246.798 236.678317 
L 247.356 231.522974 
L 247.914 234.818187 
L 248.472 232.569188 
L 249.03 237.887112 
L 249.588 230.91316 
L 250.146 236.170429 
L 250.704 231.934885 
L 251.262 236.190604 
L 251.82 228.515527 
L 252.378 238.400177 
L 252.936 229.934426 
L 253.494 238.714333 
L 254.052 228.855978 
L 254.61 238.206118 
L 255.168 229.4077 
L 255.726 237.516554 
L 256.284 229.946789 
L 256.842 237.012254 
L 257.4 232.349576 
L 257.958 236.553478 
L 258.516 229.447362 
L 259.074 237.034301 
L 259.632 229.551594 
L 260.19 237.708076 
L 260.748 231.56235 
L 261.306 235.872865 
L 261.864 230.577297 
L 262.422 237.482733 
L 262.98 229.587189 
L 263.538 237.64571 
L 264.096 231.869982 
L 264.654 236.460547 
L 265.212 232.02569 
L 265.77 236.635005 
L 266.328 231.749966 
L 266.886 235.462958 
L 267.444 234.803957 
L 268.002 236.157578 
L 268.56 230.847552 
L 269.118 236.337884 
L 269.676 232.601677 
L 270.234 236.623155 
L 270.792 232.279568 
L 271.35 234.534579 
L 271.908 232.040793 
L 272.466 233.928841 
L 273.024 234.262137 
L 273.582 235.298077 
L 274.14 233.121695 
L 274.698 236.623909 
L 275.256 233.075047 
L 275.814 234.886345 
L 276.372 234.23383 
L 276.93 236.336938 
L 277.488 231.268692 
L 278.046 234.397333 
L 278.604 232.041699 
L 279.162 235.830408 
L 279.72 232.917085 
L 280.278 235.076126 
L 280.836 232.683664 
L 281.394 234.417157 
L 281.952 232.348088 
L 282.51 235.31834 
L 283.068 233.632323 
L 283.626 235.930384 
L 284.184 233.869658 
L 284.742 232.553653 
L 285.3 236.844086 
L 285.858 230.952005 
L 286.416 235.954482 
L 286.974 230.717957 
L 287.532 237.207795 
L 288.09 232.652382 
L 288.648 235.402249 
L 289.206 234.414272 
L 289.764 232.6025 
L 290.322 235.482539 
L 290.88 231.972793 
L 291.438 236.886492 
L 291.996 230.030325 
L 292.554 236.93537 
L 293.112 231.260123 
L 293.67 235.519946 
L 294.228 232.790383 
L 294.786 234.062395 
L 295.344 232.631374 
L 295.902 235.28105 
L 296.46 232.477851 
L 297.018 232.747462 
L 297.576 234.345275 
L 298.134 232.885092 
L 298.692 234.933605 
L 299.25 232.612183 
L 299.808 234.261633 
L 300.366 233.33246 
L 300.924 233.681922 
L 301.482 234.590063 
L 302.04 234.004008 
L 302.598 232.93854 
L 303.156 236.018356 
L 303.714 232.02269 
L 304.272 234.662454 
L 304.83 231.434078 
L 305.388 236.260239 
L 305.946 229.148953 
L 306.504 238.813732 
L 307.062 228.907337 
L 307.62 239.963599 
L 308.178 227.897955 
L 308.736 239.574091 
L 309.294 227.113796 
L 309.852 240.167582 
L 310.41 227.639491 
L 310.968 239.385851 
L 311.526 228.330264 
L 312.084 239.880666 
L 312.642 228.000855 
L 313.2 239.433713 
L 313.758 227.586821 
L 314.316 239.838611 
L 314.874 230.009552 
L 315.432 238.744247 
L 315.99 227.694297 
L 316.548 241.011001 
L 317.106 227.101415 
L 317.664 240.741867 
L 318.222 221.96752 
L 318.78 246.276034 
L 319.338 221.543731 
L 319.896 246.76752 
L 320.454 220.371331 
L 321.012 245.417146 
L 321.57 223.468577 
L 322.128 243.841112 
L 322.686 223.748016 
L 323.244 243.955217 
L 323.802 224.135177 
L 324.36 244.077376 
L 324.918 223.274247 
L 325.476 244.872274 
L 326.034 225.58348 
L 326.592 241.775238 
L 327.15 226.026569 
L 327.708 241.021329 
L 328.266 226.44841 
L 328.824 241.138062 
L 329.382 226.234763 
L 329.94 240.456257 
L 330.498 228.033831 
L 331.056 240.387232 
L 331.614 227.280191 
L 332.172 239.176506 
L 332.73 228.419674 
L 333.288 237.867101 
L 333.846 231.461073 
L 334.404 239.443613 
L 334.962 229.49579 
L 335.52 237.483166 
L 336.078 231.666849 
L 336.636 237.111081 
L 337.194 230.850242 
L 337.752 237.246267 
L 338.31 228.776244 
L 338.868 238.085057 
L 339.426 228.197379 
L 339.984 238.342776 
L 340.542 228.453534 
L 341.1 239.709009 
L 341.658 227.658348 
L 342.216 241.402791 
L 342.774 227.986929 
L 343.332 239.941992 
L 343.89 227.498895 
L 344.448 239.456714 
L 345.006 226.933844 
L 345.564 240.219354 
L 346.122 228.582736 
L 346.68 239.664329 
L 347.238 228.726455 
L 347.796 238.894806 
L 348.354 227.778179 
L 348.912 240.097986 
L 349.47 228.85772 
L 350.028 236.152173 
L 350.586 229.732534 
L 351.144 237.958351 
L 351.702 232.208174 
L 352.26 235.811154 
L 352.818 231.949346 
L 353.376 235.602861 
L 353.934 232.575859 
L 354.492 238.120507 
L 355.05 230.247059 
L 355.608 237.381538 
L 356.166 230.793489 
L 356.724 236.880813 
L 357.282 229.429666 
L 357.84 238.124949 
L 358.398 231.600505 
L 358.956 235.964677 
L 359.514 231.918949 
L 360.072 236.020399 
L 360.63 231.052787 
L 361.188 236.027568 
L 361.746 231.658984 
L 362.304 237.442097 
L 362.862 230.168863 
L 363.42 238.655754 
L 363.978 229.841799 
L 364.536 237.717029 
L 365.094 229.554137 
L 365.652 236.786816 
L 366.21 231.539114 
L 366.768 238.719888 
L 367.326 231.357492 
L 367.884 236.406379 
L 368.442 230.587729 
L 369 237.158134 
L 369.558 231.925902 
L 370.116 234.542903 
L 370.674 234.825546 
L 371.232 232.435689 
L 371.79 234.304805 
L 372.348 233.478987 
L 372.906 235.275316 
L 373.464 233.352709 
L 374.022 233.948944 
L 374.58 233.191316 
L 375.138 234.633929 
L 375.696 234.225808 
L 376.254 235.206188 
L 376.812 230.254802 
L 377.37 238.703519 
L 377.928 229.42275 
L 378.486 236.875912 
L 379.044 231.463766 
L 379.602 234.603235 
L 380.16 232.188635 
L 380.718 235.024285 
L 381.276 232.264088 
L 381.834 235.987413 
L 382.392 229.767865 
L 382.95 239.901992 
L 383.508 229.377866 
L 384.066 238.458505 
L 384.624 230.147997 
L 385.182 236.573213 
L 385.74 231.559083 
L 386.298 234.450183 
L 386.856 232.428654 
L 387.414 236.172926 
L 387.972 229.479937 
L 388.53 237.73231 
L 389.088 231.579235 
L 389.646 238.629062 
L 390.204 227.95602 
L 390.762 239.118848 
L 391.32 228.026773 
L 391.878 238.388407 
L 392.436 228.821536 
L 392.994 238.276683 
L 393.552 230.709007 
L 394.11 237.415232 
L 394.668 229.151776 
L 395.226 240.307087 
L 395.784 226.904105 
L 396.342 240.479495 
L 396.9 228.409914 
L 397.458 239.523165 
L 398.016 228.452082 
L 398.574 241.01227 
L 399.132 226.572656 
L 399.69 240.633168 
L 400.248 226.70381 
L 400.806 240.249269 
L 401.364 228.184506 
L 401.922 240.067312 
L 402.48 227.584161 
L 403.038 237.682058 
L 403.596 231.272451 
L 404.154 236.539313 
L 404.712 233.25238 
L 405.27 236.503082 
L 405.828 231.285441 
L 406.386 233.850288 
L 406.944 235.177729 
L 407.502 231.173888 
L 408.06 235.375577 
L 408.618 231.118543 
L 409.176 236.720686 
L 409.734 231.289193 
L 410.292 236.366603 
L 410.85 231.44207 
L 411.408 236.15204 
L 411.966 231.583182 
L 412.524 234.562762 
L 413.64 232.861343 
L 414.198 235.83629 
L 414.756 231.484071 
L 415.314 236.482393 
L 415.872 230.900705 
L 416.43 236.978767 
L 416.988 232.2753 
L 417.546 235.476408 
L 418.104 233.566429 
L 418.662 234.251058 
L 419.22 232.902566 
L 419.778 234.28812 
L 420.336 231.921959 
L 420.894 235.075263 
L 421.452 231.81664 
L 422.01 235.717836 
L 422.568 233.357224 
L 423.126 235.915513 
L 423.684 231.850579 
L 424.242 235.975965 
L 424.8 232.467814 
L 425.358 234.804676 
L 425.916 234.608696 
L 426.474 231.671384 
L 427.032 236.164815 
L 427.59 231.434699 
L 428.148 235.74442 
L 428.706 233.337409 
L 429.264 233.864956 
L 429.822 232.876845 
L 430.38 235.038446 
L 430.938 233.070488 
L 431.496 233.995667 
L 432.054 234.372003 
L 432.612 232.026844 
L 433.17 233.691318 
L 433.728 232.437644 
L 434.286 237.593012 
L 434.844 231.79546 
L 435.402 236.307805 
L 435.96 232.097249 
L 436.518 234.758045 
L 437.076 233.673 
L 437.634 234.145705 
L 438.192 234.336571 
L 438.75 233.083534 
L 439.308 234.475633 
L 439.866 233.30237 
L 440.424 235.963016 
L 440.982 232.837592 
L 441.54 234.190264 
L 442.098 234.571092 
L 442.656 231.846047 
L 443.214 236.265258 
L 443.772 231.807661 
L 444.33 237.031867 
L 444.888 232.608311 
L 445.446 234.798178 
L 446.004 234.485568 
L 446.562 233.660995 
L 447.678 234.678121 
L 448.236 232.965742 
L 448.794 235.02189 
L 449.352 233.423408 
L 449.91 233.286715 
L 450.468 236.02322 
L 451.026 231.214265 
L 451.584 235.9718 
L 452.142 232.037216 
L 452.7 235.180201 
L 453.258 232.565015 
L 453.816 236.890394 
L 454.374 229.85738 
L 454.932 239.119311 
L 455.49 228.113785 
L 456.048 241.750448 
L 456.606 226.986487 
L 457.164 242.572489 
L 457.722 226.553304 
L 458.28 240.306243 
L 458.838 225.768165 
L 459.396 241.309734 
L 459.954 226.774416 
L 460.512 240.077124 
L 461.07 226.994505 
L 461.628 239.233822 
L 462.186 230.036412 
L 462.744 236.839961 
L 463.302 232.360121 
L 463.86 233.545673 
L 464.418 232.680197 
L 464.976 235.523577 
L 465.534 232.30307 
L 466.092 234.900552 
L 466.65 233.168807 
L 467.208 234.677035 
L 467.766 232.301778 
L 468.324 233.94612 
L 468.882 233.747883 
L 469.44 236.263295 
L 469.998 232.002509 
L 470.556 235.557482 
L 471.114 232.026665 
L 471.672 234.458851 
L 472.23 235.062409 
L 472.788 233.896038 
L 473.346 233.295709 
L 473.904 232.956468 
L 474.462 235.906682 
L 475.02 231.479395 
L 475.578 239.004748 
L 476.136 229.214871 
L 476.694 238.54419 
L 477.252 230.80316 
L 477.81 237.656668 
L 478.368 231.788017 
L 478.926 235.40546 
L 479.484 232.503628 
L 480.042 236.784829 
L 480.6 232.924307 
L 481.158 234.139269 
L 481.716 231.418894 
L 482.274 234.406013 
L 482.832 234.046028 
L 483.39 232.504002 
L 483.948 236.229789 
L 484.506 230.891281 
L 485.064 238.057371 
L 485.622 230.518902 
L 486.18 235.846134 
L 486.738 232.848755 
L 487.296 234.641285 
L 487.854 233.283399 
L 488.412 233.18754 
L 488.97 235.776068 
L 490.086 232.045169 
L 490.644 232.884243 
L 491.202 234.741461 
L 491.76 233.99366 
L 492.318 234.004587 
L 492.876 234.846671 
L 493.434 234.010973 
L 493.992 234.7558 
L 494.55 232.273616 
L 495.108 238.397764 
L 495.666 230.530131 
L 496.224 239.110037 
L 496.782 227.344207 
L 497.34 239.847028 
L 497.898 227.420465 
L 498.456 237.343339 
L 499.014 233.581743 
L 499.572 234.098072 
L 500.13 234.327191 
L 500.688 233.601651 
L 501.246 234.825342 
L 501.804 232.947475 
L 502.362 236.713622 
L 502.92 231.186018 
L 503.478 237.65087 
L 504.036 228.681772 
L 504.594 236.57238 
L 505.152 231.186077 
L 505.71 236.441172 
L 506.268 232.15951 
L 506.826 235.796714 
L 507.384 231.633711 
L 507.942 235.534673 
L 508.5 231.893794 
L 509.058 235.152191 
L 509.616 231.634431 
L 510.174 238.01632 
L 510.732 228.555666 
L 511.29 238.165635 
L 511.848 228.163194 
L 512.406 239.402741 
L 512.964 227.684597 
L 513.522 238.243948 
L 514.08 230.973162 
L 514.638 236.184019 
L 515.196 231.547639 
L 515.754 236.020669 
L 516.312 232.315342 
L 516.87 236.283982 
L 517.428 233.033896 
L 517.986 233.668749 
L 518.544 232.560366 
L 519.102 236.220561 
L 519.66 228.671383 
L 520.218 238.995094 
L 520.776 229.342876 
L 521.334 237.590182 
L 521.892 232.009324 
L 522.45 236.511373 
L 523.008 232.89592 
L 523.566 235.460732 
L 524.124 232.873734 
L 524.682 234.648501 
L 525.24 234.08378 
L 525.798 234.358206 
L 526.356 230.609351 
L 526.914 236.287491 
L 527.472 233.515409 
L 528.03 234.158223 
L 528.588 235.00065 
L 529.146 232.970951 
L 529.704 234.811389 
L 530.262 232.118739 
L 530.82 235.364816 
L 531.378 232.730669 
L 531.936 234.982528 
L 532.494 233.104469 
L 533.052 234.862116 
L 533.61 232.301352 
L 534.168 235.523105 
L 534.726 233.485511 
L 535.284 234.055302 
L 535.842 234.362402 
L 536.4 233.953324 
L 536.958 234.11088 
L 537.516 232.568452 
L 538.074 234.823269 
L 538.632 233.262436 
L 539.19 235.682276 
L 539.748 231.800653 
L 540.306 236.855603 
L 540.864 229.039265 
L 541.422 238.93559 
L 541.98 228.689993 
L 542.538 241.053765 
L 543.096 227.304294 
L 543.654 239.556469 
L 544.212 229.540599 
L 544.77 238.10993 
L 545.328 229.859473 
L 545.886 237.93982 
L 546.444 230.239152 
L 547.002 235.395332 
L 547.56 232.421171 
L 548.118 236.236902 
L 548.676 232.414838 
L 549.234 232.022694 
L 549.792 235.363441 
L 550.35 231.796318 
L 550.908 235.801426 
L 551.466 231.515379 
L 552.024 236.264988 
L 552.582 230.735921 
L 553.14 236.669583 
L 553.698 230.526776 
L 554.256 237.84499 
L 554.814 231.260637 
L 555.372 234.409499 
L 555.93 233.34923 
L 556.488 236.460248 
L 557.046 229.927461 
L 557.604 239.563402 
L 558.162 228.829923 
L 558.72 237.617998 
L 559.278 230.442059 
L 559.836 238.552808 
L 560.394 230.08941 
L 560.952 237.346746 
L 561.51 229.819464 
L 562.068 237.868157 
L 562.626 231.795065 
L 563.184 237.254055 
L 563.742 227.715213 
L 564.3 237.846299 
L 564.858 230.448875 
L 565.416 237.695677 
L 565.974 229.235054 
L 566.532 238.31591 
L 567.09 229.934175 
L 567.648 237.675803 
L 568.206 231.031879 
L 568.764 239.524003 
L 569.322 230.385106 
L 569.88 237.464362 
L 570.438 230.389962 
L 570.996 236.547788 
L 571.554 231.896838 
L 572.112 235.415286 
L 572.67 233.742857 
L 573.228 235.267871 
L 573.786 232.493955 
L 574.344 232.617089 
L 574.902 236.864547 
L 575.46 229.626037 
L 576.018 235.27606 
L 576.576 232.82074 
L 577.134 234.964936 
L 577.692 233.36135 
L 578.25 235.022643 
L 578.808 233.577798 
L 579.366 235.43123 
L 579.924 233.527519 
L 580.482 235.503278 
L 581.04 232.155984 
L 581.598 238.355293 
L 582.156 230.70084 
L 582.714 234.819597 
L 583.272 231.326967 
L 583.83 235.26092 
L 584.388 233.697234 
L 584.946 233.083797 
L 585.504 236.739455 
L 586.062 230.909683 
L 586.62 236.763332 
L 587.178 230.826544 
L 587.736 236.37101 
L 588.294 230.237531 
L 588.852 238.494464 
L 589.41 230.399907 
L 589.968 237.44454 
L 590.526 229.603249 
L 591.084 238.750987 
L 591.642 229.866201 
L 592.2 236.61499 
L 592.758 232.706148 
L 593.316 234.698123 
L 593.874 233.933934 
L 594.432 233.69552 
L 594.99 232.314611 
L 595.548 234.960571 
L 596.106 233.001577 
L 596.664 234.707866 
L 597.222 232.620347 
L 597.78 236.134944 
L 598.338 230.428468 
L 598.896 236.401501 
L 599.454 231.529473 
L 600.012 236.56632 
L 600.57 231.832581 
L 601.128 234.447298 
L 601.686 234.334033 
L 602.244 233.966668 
L 602.802 232.60467 
L 603.36 235.372617 
L 603.918 234.374706 
L 604.476 232.94136 
L 605.034 234.711579 
L 605.592 230.615158 
L 606.15 236.686525 
L 606.708 231.916378 
L 607.266 238.458363 
L 607.824 230.57744 
L 608.382 237.138751 
L 608.94 227.909022 
L 609.498 240.33832 
L 610.056 228.453531 
L 610.614 239.27863 
L 611.172 226.202082 
L 611.73 241.685006 
L 612.288 224.725302 
L 612.846 241.400833 
L 613.404 225.646061 
L 613.962 241.719435 
L 614.52 226.640287 
L 615.078 242.166154 
L 615.636 225.491559 
L 616.194 241.121005 
L 616.752 226.38719 
L 617.31 240.013386 
L 617.868 226.997306 
L 618.426 241.899214 
L 618.984 227.415097 
L 619.542 240.846688 
L 620.1 226.565381 
L 620.658 242.494024 
L 621.216 226.90484 
L 621.774 239.300679 
L 622.332 229.635562 
L 622.89 238.16249 
L 623.448 230.330881 
L 624.006 235.76052 
L 624.564 230.460352 
L 625.122 237.607011 
L 625.68 230.121213 
L 626.238 238.198418 
L 626.796 230.599542 
L 627.354 237.819526 
L 627.912 230.493249 
L 628.47 238.895904 
L 629.028 229.261323 
L 629.586 241.489111 
L 630.144 226.392987 
L 630.702 240.810935 
L 631.26 227.014752 
L 631.818 242.204491 
L 632.376 223.954879 
L 632.934 244.317686 
L 633.492 224.038159 
L 634.05 244.616755 
L 634.608 222.621147 
L 635.166 244.814156 
L 635.724 223.010393 
L 636.282 245.344862 
L 636.84 221.740261 
L 637.398 245.394375 
L 637.956 222.745455 
L 638.514 244.266813 
L 639.072 224.849426 
L 639.63 243.372001 
L 640.188 226.246474 
L 640.746 241.745478 
L 641.304 226.240895 
L 641.862 241.168442 
L 642.42 224.268166 
L 642.978 244.094727 
L 643.536 223.700006 
L 644.094 244.112477 
L 644.652 224.831201 
L 645.21 244.864812 
L 645.768 222.343265 
L 646.326 244.931876 
L 646.884 223.610699 
L 647.442 245.241525 
L 647.442 245.241525 
" clip-path="url(#p425dab2168)" style="fill: none; stroke: #008000; stroke-width: 1.5; stroke-linecap: round"/>
   </g>
   <g id="line2d_15">
    <path d="M 90 334.487288 
L 91.116 336.463313 
L 91.674 335.457937 
L 92.232 336.428148 
L 92.79 335.509019 
L 93.348 336.387811 
L 93.906 335.57384 
L 94.464 336.350376 
L 95.022 335.621637 
L 95.58 336.319907 
L 96.138 335.658243 
L 96.696 336.283405 
L 97.254 335.700666 
L 97.812 336.253238 
L 98.37 335.731352 
L 98.928 336.230607 
L 99.486 335.7645 
L 100.044 336.204944 
L 100.602 335.785016 
L 101.16 336.179578 
L 101.718 335.80671 
L 102.276 336.160683 
L 102.834 335.825436 
L 103.392 336.143716 
L 103.95 335.839275 
L 104.508 336.134666 
L 105.066 335.848995 
L 105.624 336.11553 
L 106.182 335.860026 
L 106.74 336.1004 
L 107.298 335.878125 
L 107.856 336.09485 
L 108.414 335.892819 
L 108.972 336.070727 
L 109.53 335.899193 
L 110.088 336.070397 
L 110.646 335.91175 
L 111.204 336.073531 
L 111.762 335.907469 
L 112.32 336.048687 
L 112.878 335.914776 
L 113.436 336.043549 
L 113.994 335.917639 
L 114.552 336.028364 
L 115.11 335.922918 
L 115.668 336.021286 
L 116.226 335.93341 
L 116.784 336.013211 
L 117.342 335.935691 
L 117.9 336.02181 
L 118.458 335.940412 
L 119.016 336.017421 
L 119.574 335.929173 
L 120.132 336.004156 
L 120.69 335.928671 
L 121.248 336.003774 
L 121.806 335.926548 
L 122.364 335.994607 
L 122.922 335.926017 
L 123.48 336.002814 
L 124.038 335.933407 
L 124.596 335.998117 
L 125.154 335.931217 
L 125.712 335.999405 
L 126.27 335.935046 
L 126.828 335.993605 
L 127.944 335.983506 
L 129.618 335.939183 
L 131.292 335.951958 
L 132.966 335.921099 
L 134.64 335.956663 
L 142.452 335.933494 
L 160.866 335.980188 
L 171.468 335.969344 
L 174.258 335.963684 
L 190.44 335.991384 
L 198.81 336.000331 
L 231.174 335.939077 
L 233.964 335.948644 
L 237.87 335.927083 
L 241.776 335.94968 
L 244.566 335.92837 
L 247.356 335.946503 
L 251.262 335.935738 
L 255.168 335.94425 
L 257.4 335.93253 
L 264.654 335.908045 
L 268.56 335.945282 
L 271.35 335.939196 
L 290.88 335.973759 
L 295.902 335.952845 
L 302.04 335.939646 
L 350.586 335.891253 
L 352.818 335.891254 
L 356.724 335.885975 
L 359.514 335.901147 
L 363.42 335.88058 
L 365.094 335.909037 
L 366.768 335.883985 
L 368.442 335.914165 
L 371.232 335.910327 
L 377.37 335.891731 
L 379.044 335.912403 
L 382.95 335.872636 
L 384.624 335.91088 
L 387.414 335.882126 
L 391.32 335.902525 
L 392.994 335.860506 
L 394.668 335.890162 
L 396.342 335.855378 
L 398.016 335.897962 
L 399.69 335.861091 
L 401.364 335.898374 
L 403.038 335.860207 
L 405.828 335.896236 
L 410.292 335.861372 
L 413.64 335.862337 
L 423.126 335.852198 
L 427.59 335.865285 
L 431.496 335.851625 
L 552.582 335.85557 
L 555.93 335.841968 
L 568.764 335.832242 
L 570.438 335.868153 
L 573.228 335.857586 
L 579.924 335.858818 
L 605.034 335.847791 
L 613.404 335.855452 
L 615.078 335.805526 
L 616.194 335.80428 
L 617.868 335.841169 
L 619.542 335.806047 
L 621.216 335.858254 
L 622.89 335.820104 
L 624.564 335.83598 
L 627.354 335.818954 
L 630.144 335.872414 
L 631.818 335.823858 
L 632.376 335.877026 
L 632.934 335.812992 
L 633.492 335.879741 
L 634.05 335.816243 
L 634.608 335.884912 
L 635.166 335.812319 
L 635.724 335.882258 
L 636.282 335.812163 
L 636.84 335.885512 
L 637.398 335.807264 
L 637.956 335.880934 
L 638.514 335.809137 
L 639.072 335.875561 
L 639.63 335.81727 
L 640.746 335.828622 
L 642.42 335.875994 
L 642.978 335.813971 
L 643.536 335.879287 
L 644.094 335.813618 
L 644.652 335.879048 
L 645.21 335.820642 
L 645.768 335.890901 
L 646.326 335.816528 
L 646.884 335.887221 
L 647.442 335.820983 
L 647.442 335.820983 
" clip-path="url(#p425dab2168)" style="fill: none; stroke: #0000ff; stroke-width: 1.5; stroke-linecap: round"/>
   </g>
   <g id="line2d_16">
    <path d="M 90 233.927805 
L 647.442 233.927805 
L 647.442 233.927805 
" clip-path="url(#p425dab2168)" style="fill: none; stroke-dasharray: 5.55,2.4; stroke-dashoffset: 0; stroke: #000000; stroke-width: 1.5"/>
   </g>
   <g id="patch_3">
    <path d="M 90 448.56 
L 90 60.48 
" style="fill: none; stroke: #cccccc; stroke-width: 0.8; stroke-linejoin: miter; stroke-linecap: square"/>
   </g>
   <g id="patch_4">
    <path d="M 648 448.56 
L 648 60.48 
" style="fill: none; stroke: #cccccc; stroke-width: 0.8; stroke-linejoin: miter; stroke-linecap: square"/>
   </g>
   <g id="patch_5">
    <path d="M 90 448.56 
L 648 448.56 
" style="fill: none; stroke: #cccccc; stroke-width: 0.8; stroke-linejoin: miter; stroke-linecap: square"/>
   </g>
   <g id="patch_6">
    <path d="M 90 60.48 
L 648 60.48 
" style="fill: none; stroke: #cccccc; stroke-width: 0.8; stroke-linejoin: miter; stroke-linecap: square"/>
   </g>
   <g id="legend_1">
    <g id="patch_7">
     <path d="M 548.6 166.86125 
L 634 166.86125 
Q 638 166.86125 638 162.86125 
L 638 74.48 
Q 638 70.48 634 70.48 
L 548.6 70.48 
Q 544.6 70.48 544.6 74.48 
L 544.6 162.86125 
Q 544.6 166.86125 548.6 166.86125 
z
" style="fill: #ffffff; opacity: 0.8; stroke: #cccccc; stroke-linejoin: miter"/>
    </g>
    <g id="line2d_17">
     <path d="M 552.6 85.795625 
L 572.6 85.795625 
L 592.6 85.795625 
" style="fill: none; stroke: #008000; stroke-width: 1.5; stroke-linecap: round"/>
    </g>
    <g id="text_16">
     <!-- $x_{1}$ -->
     <g style="fill: #262626" transform="translate(608.6 92.795625)">
      <text>
       <tspan style="font: oblique 20px 'DejaVu Sans'" x="0" y="-0.0625">x</tspan>
       <tspan style="font: 14px 'DejaVu Sans'" x="11.835938" y="3.21875">1</tspan>
      </text>
     </g>
    </g>
    <g id="line2d_18">
     <path d="M 552.6 114.08625 
L 572.6 114.08625 
L 592.6 114.08625 
" style="fill: none; stroke: #0000ff; stroke-width: 1.5; stroke-linecap: round"/>
    </g>
    <g id="text_17">
     <!-- $x_{2}$ -->
     <g style="fill: #262626" transform="translate(608.6 121.08625)">
      <text>
       <tspan style="font: oblique 20px 'DejaVu Sans'" x="0" y="-0.0625">x</tspan>
       <tspan style="font: 14px 'DejaVu Sans'" x="11.835938" y="3.21875">2</tspan>
      </text>
     </g>
    </g>
    <g id="line2d_19">
     <path d="M 552.6 146.26125 
L 572.6 146.26125 
L 592.6 146.26125 
" style="fill: none; stroke-dasharray: 5.55,2.4; stroke-dashoffset: 0; stroke: #000000; stroke-width: 1.5"/>
    </g>
    <g id="text_18">
     <!-- $x_{1}^{*}$ -->
     <g style="fill: #262626" transform="translate(608.6 153.26125)">
      <text>
       <tspan style="font: oblique 20px 'DejaVu Sans'" x="0" y="-0.953125">x</tspan>
       <tspan style="font: 14px 'DejaVu Sans'" x="11.835938 12.729167" y="4.515625 -8.609375">1*</tspan>
      </text>
     </g>
    </g>
   </g>
  </g>
 </g>
 <defs>
  <clipPath id="p425dab2168">
   <rect x="90" y="60.48" width="558" height="388.08"/>
  </clipPath>
 </defs>
</svg>
