<?xml version="1.0" encoding="utf-8" standalone="no"?>
<!DOCTYPE svg PUBLIC "-//W3C//DTD SVG 1.1//EN"
  "http://www.w3.org/Graphics/SVG/1.1/DTD/svg11.dtd">
<svg xmlns:xlink="http://www.w3.org/1999/xlink" width="720pt" height="504pt" viewBox="0 0 720 504" xmlns="http://www.w3.org/2000/svg" version="1.1">
 <metadata>
  <rdf:RDF xmlns:dc="http://purl.org/dc/elements/1.1/" xmlns:cc="http://creativecommons.org/ns#" xmlns:rdf="http://www.w3.org/1999/02/22-rdf-syntax-ns#">
   <cc:Work>
    <dc:type rdf:resource="http://purl.org/dc/dcmitype/StillImage"/>
    <dc:date>2024-10-02T01:20:21.748287</dc:date>
    <dc:format>image/svg+xml</dc:format>
    <dc:creator>
     <cc:Agent>
      <dc:title>Matplotlib v3.7.2, https://matplotlib.org/</dc:title>
     </cc:Agent>
    </dc:creator>
   </cc:Work>
  </rdf:RDF>
 </metadata>
 <defs>
  <style type="text/css">*{stroke-linejoin: round; stroke-linecap: butt}</style>
 </defs>
 <g id="figure_1">
  <g id="patch_1">
   <path d="M 0 504 
L 720 504 
L 720 0 
L 0 0 
z
" style="fill: #ffffff"/>
  </g>
  <g id="axes_1">
   <g id="patch_2">
    <path d="M 90 448.56 
L 648 448.56 
L 648 60.48 
L 90 60.48 
z
" style="fill: #ffffff"/>
   </g>
   <g id="matplotlib.axis_1">
    <g id="xtick_1">
     <g id="line2d_1">
      <path d="M 124.792773 448.56 
L 124.792773 60.48 
" clip-path="url(#p5673c92476)" style="fill: none; stroke: #cccccc; stroke-width: 0.8; stroke-linecap: round"/>
     </g>
     <g id="text_1">
      <text style="fill: #262626; font: 20px 'Arial', 'DejaVu Sans', 'Liberation Sans', 'Bitstream Vera Sans', sans-serif; text-anchor: middle" x="124.792773" y="469.875625" transform="rotate(-0 124.792773 469.875625)">5</text>
     </g>
    </g>
    <g id="xtick_2">
     <g id="line2d_2">
      <path d="M 214.937484 448.56 
L 214.937484 60.48 
" clip-path="url(#p5673c92476)" style="fill: none; stroke: #cccccc; stroke-width: 0.8; stroke-linecap: round"/>
     </g>
     <g id="text_2">
      <text style="fill: #262626; font: 20px 'Arial', 'DejaVu Sans', 'Liberation Sans', 'Bitstream Vera Sans', sans-serif; text-anchor: middle" x="214.937484" y="469.875625" transform="rotate(-0 214.937484 469.875625)">10</text>
     </g>
    </g>
    <g id="xtick_3">
     <g id="line2d_3">
      <path d="M 305.082195 448.56 
L 305.082195 60.48 
" clip-path="url(#p5673c92476)" style="fill: none; stroke: #cccccc; stroke-width: 0.8; stroke-linecap: round"/>
     </g>
     <g id="text_3">
      <text style="fill: #262626; font: 20px 'Arial', 'DejaVu Sans', 'Liberation Sans', 'Bitstream Vera Sans', sans-serif; text-anchor: middle" x="305.082195" y="469.875625" transform="rotate(-0 305.082195 469.875625)">15</text>
     </g>
    </g>
    <g id="xtick_4">
     <g id="line2d_4">
      <path d="M 395.226906 448.56 
L 395.226906 60.48 
" clip-path="url(#p5673c92476)" style="fill: none; stroke: #cccccc; stroke-width: 0.8; stroke-linecap: round"/>
     </g>
     <g id="text_4">
      <text style="fill: #262626; font: 20px 'Arial', 'DejaVu Sans', 'Liberation Sans', 'Bitstream Vera Sans', sans-serif; text-anchor: middle" x="395.226906" y="469.875625" transform="rotate(-0 395.226906 469.875625)">20</text>
     </g>
    </g>
    <g id="xtick_5">
     <g id="line2d_5">
      <path d="M 485.371617 448.56 
L 485.371617 60.48 
" clip-path="url(#p5673c92476)" style="fill: none; stroke: #cccccc; stroke-width: 0.8; stroke-linecap: round"/>
     </g>
     <g id="text_5">
      <text style="fill: #262626; font: 20px 'Arial', 'DejaVu Sans', 'Liberation Sans', 'Bitstream Vera Sans', sans-serif; text-anchor: middle" x="485.371617" y="469.875625" transform="rotate(-0 485.371617 469.875625)">25</text>
     </g>
    </g>
    <g id="xtick_6">
     <g id="line2d_6">
      <path d="M 575.516328 448.56 
L 575.516328 60.48 
" clip-path="url(#p5673c92476)" style="fill: none; stroke: #cccccc; stroke-width: 0.8; stroke-linecap: round"/>
     </g>
     <g id="text_6">
      <text style="fill: #262626; font: 20px 'Arial', 'DejaVu Sans', 'Liberation Sans', 'Bitstream Vera Sans', sans-serif; text-anchor: middle" x="575.516328" y="469.875625" transform="rotate(-0 575.516328 469.875625)">30</text>
     </g>
    </g>
    <g id="text_7">
     <!-- $x_{1}$ -->
     <g style="fill: #262626" transform="translate(358.3 492.16625)">
      <text>
       <tspan style="font: oblique 20px 'DejaVu Sans'" x="0" y="-0.0625">x</tspan>
       <tspan style="font: 14px 'DejaVu Sans'" x="11.835938" y="3.21875">1</tspan>
      </text>
     </g>
    </g>
   </g>
   <g id="matplotlib.axis_2">
    <g id="ytick_1">
     <g id="line2d_7">
      <path d="M 90 434.53501 
L 648 434.53501 
" clip-path="url(#p5673c92476)" style="fill: none; stroke: #cccccc; stroke-width: 0.8; stroke-linecap: round"/>
     </g>
     <g id="text_8">
      <text style="fill: #262626; font: 20px 'Arial', 'DejaVu Sans', 'Liberation Sans', 'Bitstream Vera Sans', sans-serif; text-anchor: end" x="83" y="441.692822" transform="rotate(-0 83 441.692822)">9.825</text>
     </g>
    </g>
    <g id="ytick_2">
     <g id="line2d_8">
      <path d="M 90 383.61858 
L 648 383.61858 
" clip-path="url(#p5673c92476)" style="fill: none; stroke: #cccccc; stroke-width: 0.8; stroke-linecap: round"/>
     </g>
     <g id="text_9">
      <text style="fill: #262626; font: 20px 'Arial', 'DejaVu Sans', 'Liberation Sans', 'Bitstream Vera Sans', sans-serif; text-anchor: end" x="83" y="390.776392" transform="rotate(-0 83 390.776392)">9.850</text>
     </g>
    </g>
    <g id="ytick_3">
     <g id="line2d_9">
      <path d="M 90 332.70215 
L 648 332.70215 
" clip-path="url(#p5673c92476)" style="fill: none; stroke: #cccccc; stroke-width: 0.8; stroke-linecap: round"/>
     </g>
     <g id="text_10">
      <text style="fill: #262626; font: 20px 'Arial', 'DejaVu Sans', 'Liberation Sans', 'Bitstream Vera Sans', sans-serif; text-anchor: end" x="83" y="339.859962" transform="rotate(-0 83 339.859962)">9.875</text>
     </g>
    </g>
    <g id="ytick_4">
     <g id="line2d_10">
      <path d="M 90 281.78572 
L 648 281.78572 
" clip-path="url(#p5673c92476)" style="fill: none; stroke: #cccccc; stroke-width: 0.8; stroke-linecap: round"/>
     </g>
     <g id="text_11">
      <text style="fill: #262626; font: 20px 'Arial', 'DejaVu Sans', 'Liberation Sans', 'Bitstream Vera Sans', sans-serif; text-anchor: end" x="83" y="288.943532" transform="rotate(-0 83 288.943532)">9.900</text>
     </g>
    </g>
    <g id="ytick_5">
     <g id="line2d_11">
      <path d="M 90 230.86929 
L 648 230.86929 
" clip-path="url(#p5673c92476)" style="fill: none; stroke: #cccccc; stroke-width: 0.8; stroke-linecap: round"/>
     </g>
     <g id="text_12">
      <text style="fill: #262626; font: 20px 'Arial', 'DejaVu Sans', 'Liberation Sans', 'Bitstream Vera Sans', sans-serif; text-anchor: end" x="83" y="238.027102" transform="rotate(-0 83 238.027102)">9.925</text>
     </g>
    </g>
    <g id="ytick_6">
     <g id="line2d_12">
      <path d="M 90 179.95286 
L 648 179.95286 
" clip-path="url(#p5673c92476)" style="fill: none; stroke: #cccccc; stroke-width: 0.8; stroke-linecap: round"/>
     </g>
     <g id="text_13">
      <text style="fill: #262626; font: 20px 'Arial', 'DejaVu Sans', 'Liberation Sans', 'Bitstream Vera Sans', sans-serif; text-anchor: end" x="83" y="187.110672" transform="rotate(-0 83 187.110672)">9.950</text>
     </g>
    </g>
    <g id="ytick_7">
     <g id="line2d_13">
      <path d="M 90 129.03643 
L 648 129.03643 
" clip-path="url(#p5673c92476)" style="fill: none; stroke: #cccccc; stroke-width: 0.8; stroke-linecap: round"/>
     </g>
     <g id="text_14">
      <text style="fill: #262626; font: 20px 'Arial', 'DejaVu Sans', 'Liberation Sans', 'Bitstream Vera Sans', sans-serif; text-anchor: end" x="83" y="136.194242" transform="rotate(-0 83 136.194242)">9.975</text>
     </g>
    </g>
    <g id="ytick_8">
     <g id="line2d_14">
      <path d="M 90 78.12 
L 648 78.12 
" clip-path="url(#p5673c92476)" style="fill: none; stroke: #cccccc; stroke-width: 0.8; stroke-linecap: round"/>
     </g>
     <g id="text_15">
      <text style="fill: #262626; font: 20px 'Arial', 'DejaVu Sans', 'Liberation Sans', 'Bitstream Vera Sans', sans-serif; text-anchor: end" x="83" y="85.277812" transform="rotate(-0 83 85.277812)">10.000</text>
     </g>
    </g>
    <g id="text_16">
     <!-- $x_{2}$ -->
     <g style="fill: #262626" transform="translate(13.859375 265.22) rotate(-90)">
      <text>
       <tspan style="font: oblique 20px 'DejaVu Sans'" x="0" y="-0.0625">x</tspan>
       <tspan style="font: 14px 'DejaVu Sans'" x="11.835938" y="3.21875">2</tspan>
      </text>
     </g>
    </g>
   </g>
   <g id="line2d_15">
    <path d="M 124.792773 78.12 
L 115.363636 242.637866 
L 622.636364 430.92 
L 135.93785 251.419975 
L 601.224328 424.641598 
L 158.259646 260.540164 
L 575.140341 417.439935 
L 183.238631 272.113292 
L 554.004868 410.756263 
L 202.37957 280.646983 
L 537.380267 405.316278 
L 220.284578 287.182651 
L 517.829463 398.799224 
L 238.066937 294.756885 
L 502.761888 393.413195 
L 251.136769 300.235426 
L 488.96266 389.372674 
L 265.562843 306.153761 
L 477.536184 384.79066 
L 276.827519 309.816617 
L 465.897856 380.261898 
L 286.793755 313.68993 
L 448.98523 373.859025 
L 301.183615 319.504069 
L 444.348414 372.243252 
L 308.278493 321.239468 
L 436.894928 368.826672 
L 314.710598 323.209025 
L 428.691088 366.125448 
L 320.522373 326.440384 
L 423.695675 365.134484 
L 330.071303 329.063796 
L 416.165404 360.827664 
L 331.719441 330.201807 
L 412.987441 360.768663 
L 334.035037 332.443843 
L 414.817066 361.328231 
L 339.099319 331.679426 
L 406.882065 356.892613 
L 342.161442 332.984011 
L 404.908094 355.975246 
L 346.604835 333.495225 
L 399.859883 353.264097 
L 349.646388 334.437758 
L 395.528057 352.000463 
L 354.216656 336.310935 
L 392.974265 350.558695 
L 352.660358 336.718153 
L 393.931215 352.093872 
L 354.903224 337.561171 
L 395.618922 351.310335 
L 355.403935 335.554443 
L 392.471103 348.941965 
L 355.374554 335.464858 
L 392.900018 348.87374 
L 357.10947 335.085831 
L 390.770646 347.237127 
L 354.957669 334.990988 
L 390.973285 348.702436 
L 357.933168 336.310372 
L 390.354708 347.863771 
L 357.077007 335.919383 
L 389.728664 348.093711 
L 359.447779 336.603057 
L 388.428791 347.058256 
L 361.805139 336.508876 
L 384.71847 345.255125 
L 362.659264 337.393474 
L 385.155885 345.520156 
L 366.500409 337.341641 
L 383.366665 342.683772 
L 368.598113 335.800823 
L 380.788713 339.62255 
L 367.513356 334.607185 
L 380.908905 339.215622 
L 364.638709 334.113032 
L 379.37673 340.805844 
L 368.836964 336.81419 
L 376.225456 340.46257 
L 373.189006 338.754956 
L 373.874454 339.183456 
L 379.64436 339.179896 
L 371.066317 334.993923 
L 375.295122 337.026312 
L 369.897597 335.992847 
L 377.419155 338.872436 
L 367.760755 336.299402 
L 381.939058 340.728094 
L 370.69586 334.879221 
L 378.902571 337.180212 
L 370.015517 333.531574 
L 374.329669 336.326015 
L 373.461599 335.992439 
L 374.553506 336.288191 
L 373.392964 335.792338 
L 373.370468 336.137853 
L 375.679834 336.499671 
L 370.780733 335.187277 
L 374.837613 337.426698 
L 370.369469 336.724916 
L 376.71646 339.262314 
L 367.751581 337.198687 
L 378.829354 341.633833 
L 371.188218 338.039069 
L 377.000231 339.982784 
L 364.165658 337.713542 
L 382.602727 344.74808 
L 364.920183 338.419438 
L 385.969333 344.906779 
L 365.952233 336.138541 
L 380.389545 341.878405 
L 368.728179 337.152907 
L 376.944188 340.880087 
L 370.663769 338.651568 
L 375.469517 340.975389 
L 369.382179 339.815724 
L 375.691193 343.068363 
L 370.684204 341.748165 
L 374.319332 344.056817 
L 370.843351 343.73086 
L 374.035072 345.92395 
L 374.941617 345.804005 
L 377.02278 345.027151 
L 371.219541 342.742139 
L 372.775888 344.662698 
L 375.324678 345.455237 
L 374.912094 344.400788 
L 374.151475 343.645274 
L 374.829196 343.440957 
L 371.627292 342.745484 
L 376.804965 344.370529 
L 372.507874 342.243289 
L 376.962466 343.230168 
L 370.904726 340.988663 
L 376.565432 343.137568 
L 370.286365 341.183793 
L 377.913583 343.780862 
L 373.285264 340.850142 
L 372.366096 341.273632 
L 377.524524 342.363318 
L 371.259905 339.714363 
L 376.242346 341.605954 
L 369.950917 339.886196 
L 378.802313 342.726578 
L 371.162113 339.151608 
L 375.8217 341.114138 
L 370.364505 339.69922 
L 374.592148 342.239841 
L 372.706251 341.716129 
L 378.389641 342.559256 
L 370.950817 339.283337 
L 373.327783 341.399015 
L 372.640042 341.791676 
L 372.253171 341.72677 
L 375.592314 342.898277 
L 370.618056 341.64973 
L 377.066174 344.006336 
L 370.381555 341.689761 
L 379.922986 344.217773 
L 368.17274 339.830932 
L 376.71353 343.960223 
L 370.247226 341.899202 
L 374.599063 344.524545 
L 374.040516 343.865197 
L 373.167723 343.741295 
L 372.67688 344.249906 
L 372.562108 345.11421 
L 373.126077 346.061647 
L 376.355455 346.600377 
L 368.013612 344.799087 
L 378.234986 349.042672 
L 369.097067 345.87986 
L 376.689678 349.338118 
L 373.26845 347.294928 
L 375.344595 347.730466 
L 375.527726 346.661705 
L 372.186615 345.460191 
L 371.781971 346.679709 
L 377.188482 348.192357 
L 369.404769 345.787648 
L 377.622361 349.022951 
L 370.6986 346.30399 
L 381.420842 348.601688 
L 362.568476 343.130567 
L 383.788217 351.320727 
L 365.34973 344.135351 
L 379.80579 350.30956 
L 368.62529 346.008953 
L 379.255291 349.809048 
L 370.623939 345.907162 
L 374.504707 348.259007 
L 371.497453 347.798805 
L 376.049031 349.517518 
L 374.028893 347.938492 
L 374.981216 347.823036 
L 377.532168 347.017567 
L 368.71325 344.363688 
L 379.504035 348.100351 
L 367.198199 344.017907 
L 383.225507 348.85258 
L 366.639859 342.074015 
L 381.077841 347.31382 
L 368.509507 342.090878 
L 379.952626 345.975629 
L 368.214606 341.567694 
L 378.200061 345.666285 
L 371.425203 342.528249 
L 378.53851 344.299775 
L 370.999193 340.916257 
L 376.366119 342.9967 
L 371.940994 341.187359 
L 376.203089 342.585161 
L 373.88823 340.893937 
L 371.889925 340.880394 
L 376.34078 342.315232 
L 371.170356 340.524194 
L 377.069738 342.480615 
L 371.382054 340.161281 
L 377.152816 341.964292 
L 372.397902 339.584686 
L 374.374455 340.651409 
L 372.454437 340.285443 
L 375.522736 341.311151 
L 368.65903 340.112933 
L 378.152064 343.889687 
L 367.623533 340.786157 
L 379.583097 345.313322 
L 371.31551 341.17302 
L 378.378715 343.024171 
L 371.102822 339.756246 
L 378.418524 341.761694 
L 372.248705 338.464712 
L 375.82157 339.639646 
L 373.598668 338.22472 
L 374.963622 338.421078 
L 374.665829 337.627987 
L 370.232538 337.050741 
L 377.993399 339.687365 
L 369.08394 336.698195 
L 377.759857 340.167549 
L 369.355446 337.347728 
L 379.970287 340.620147 
L 369.251683 336.198237 
L 380.635519 339.546068 
L 370.902228 334.641726 
L 375.204463 336.793121 
L 371.232863 335.825367 
L 374.44085 337.736929 
L 368.813755 337.322779 
L 381.322604 340.987891 
L 366.732488 335.5859 
L 378.505315 340.76024 
L 371.620014 337.400187 
L 377.749069 339.03094 
L 373.059078 336.21878 
L 376.248071 336.806346 
L 371.922569 335.082027 
L 373.836073 336.493612 
L 372.194158 336.517877 
L 377.388803 337.73247 
L 370.208666 335.181291 
L 379.304668 337.835468 
L 367.132857 333.895464 
L 380.483585 338.779948 
L 366.695777 333.985553 
L 381.589434 339.186922 
L 366.111825 333.591032 
L 380.259192 339.215908 
L 367.993389 334.584272 
L 378.771678 338.844675 
L 370.987888 335.291221 
L 376.585998 337.380442 
L 369.116002 335.411198 
L 380.373283 338.857529 
L 367.926009 334.143108 
L 377.946806 338.452459 
L 369.52242 335.49688 
L 377.670327 338.648544 
L 372.462314 335.893409 
L 376.016809 336.91363 
L 367.611946 335.356973 
L 378.634125 339.893761 
L 370.325127 336.440196 
L 377.019311 339.009777 
L 370.293239 336.726595 
L 382.423532 339.319256 
L 366.801058 333.118797 
L 380.180993 338.244052 
L 366.304542 333.668879 
L 381.885455 339.154001 
L 367.107765 333.343525 
L 381.013471 338.246337 
L 368.197605 333.067701 
L 380.161453 337.180351 
L 368.994641 332.619101 
L 376.363901 336.15391 
L 369.719726 334.345561 
L 380.950785 337.354349 
L 368.959794 332.220926 
L 380.78605 335.781072 
L 367.894908 330.766679 
L 377.608094 335.099306 
L 370.795419 332.388805 
L 379.164949 334.617889 
L 368.251058 330.778555 
L 380.729793 334.852911 
L 367.993476 329.879073 
L 377.121888 334.14041 
L 369.866601 331.782303 
L 376.875795 334.684972 
L 369.590873 332.505352 
L 377.311571 335.607849 
L 371.443268 333.112394 
L 372.484804 334.871651 
L 370.345436 335.875618 
L 378.737816 338.430547 
L 370.060467 334.901566 
L 375.965461 337.663227 
L 369.609602 336.143851 
L 376.474547 339.232208 
L 372.910551 337.343932 
L 376.851926 338.039138 
L 373.867906 335.877186 
L 373.341139 335.878373 
L 371.70386 336.261459 
L 375.143583 337.831519 
L 369.60841 336.907948 
L 375.21731 339.997052 
L 372.354593 339.020141 
L 373.385878 340.118287 
L 370.061963 340.468864 
L 378.072214 343.228676 
L 373.127465 340.182914 
L 376.850493 340.720795 
L 370.862522 338.56017 
L 375.466964 340.739928 
L 372.054648 339.5821 
L 375.835881 340.897632 
L 373.096134 339.47242 
L 376.366251 340.033032 
L 371.671834 338.223328 
L 374.336548 339.81645 
L 370.704512 339.477946 
L 373.961444 341.772138 
L 376.041362 341.705532 
L 369.260426 340.131451 
L 378.572731 343.47229 
L 370.666426 340.063833 
L 378.942639 342.385565 
L 368.685592 338.708833 
L 375.885322 342.466596 
L 371.539218 341.005664 
L 373.100694 342.694687 
L 375.96416 343.251903 
L 371.412322 341.733893 
L 376.959397 343.514825 
L 369.193403 341.275576 
L 380.029427 344.664802 
L 369.116153 340.200925 
L 378.085757 343.646325 
L 371.353201 340.590811 
L 375.667215 342.414696 
L 373.656828 341.111834 
L 375.918525 341.266009 
L 371.73077 339.780925 
L 376.161165 341.331205 
L 375.73505 339.670262 
L 373.209742 338.318051 
L 375.517528 338.79634 
L 372.279899 337.601748 
L 375.948857 338.754119 
L 373.341936 337.246862 
L 374.810474 337.629344 
L 374.258157 336.947242 
L 372.82286 336.665518 
L 373.749108 337.42432 
L 375.433055 337.511627 
L 370.565474 336.378196 
L 376.880537 338.77354 
L 372.708447 336.590926 
L 377.810826 337.432675 
L 370.183183 334.575522 
L 381.422414 337.248255 
L 366.147443 331.772903 
L 381.804284 337.37246 
L 364.330104 331.620312 
L 383.399591 338.537736 
L 364.945712 331.6295 
L 384.638936 338.10052 
L 364.007713 330.293725 
L 383.808086 337.445399 
L 365.243222 330.240658 
L 382.716335 336.496373 
L 364.461178 330.082771 
L 383.236959 336.90567 
L 365.167577 330.114773 
L 383.891331 336.425384 
L 364.527645 329.159928 
L 380.062258 335.934935 
L 366.257262 331.445318 
L 383.721467 336.965331 
L 362.674709 329.823211 
L 384.658504 337.941753 
L 363.100068 330.120712 
L 392.772512 337.930665 
L 354.353439 324.227679 
L 393.442301 338.384777 
L 353.576657 324.196572 
L 395.295254 338.917176 
L 355.710892 323.386185 
L 390.400125 336.55913 
L 358.201779 324.575097 
L 389.958477 335.94039 
L 358.02144 324.276176 
L 389.346578 335.772457 
L 357.828369 324.551766 
L 390.707259 336.187942 
L 356.572051 323.981024 
L 387.057567 336.528882 
L 361.466849 326.96806 
L 386.357275 335.963824 
L 362.658384 326.910433 
L 385.690564 335.04199 
L 362.473891 326.471561 
L 386.028228 334.737113 
L 363.551468 325.921738 
L 383.18484 333.405901 
L 363.660561 326.651612 
L 384.375952 334.056376 
L 365.574088 326.438688 
L 382.575025 332.4556 
L 367.643573 326.143175 
L 377.76816 330.659101 
L 365.15193 327.831926 
L 380.874246 334.154602 
L 368.250375 329.075856 
L 377.442936 333.151053 
L 368.838445 330.560042 
L 378.733565 334.208482 
L 368.624787 330.681843 
L 382.011473 334.4852 
L 367.299098 328.582007 
L 382.926356 333.347216 
L 366.891779 326.780328 
L 382.521509 331.841398 
L 364.732477 325.567586 
L 383.778284 332.195227 
L 362.055493 325.010214 
L 383.258969 333.579863 
L 364.364253 326.771885 
L 384.030295 333.666207 
L 365.131225 326.298995 
L 384.923346 332.637171 
L 363.925889 324.622028 
L 382.317309 331.835073 
L 364.803093 325.709331 
L 382.090165 332.285704 
L 366.019308 326.324805 
L 383.588893 332.018819 
L 364.117708 324.971076 
L 381.882702 332.044854 
L 370.353979 326.234319 
L 380.500078 328.784276 
L 367.499355 323.975537 
L 376.587383 328.596568 
L 370.892952 326.625459 
L 376.996455 328.784439 
L 371.222155 326.516673 
L 376.006265 328.436886 
L 367.243071 326.88722 
L 379.686883 331.693468 
L 368.410995 327.475102 
L 369.202379 327.841957 
L 380.978754 331.226938 
L 367.236049 326.071668 
L 377.547791 330.883203 
L 370.650313 328.215863 
L 377.044496 330.55065 
L 370.562245 328.248244 
L 378.413446 330.646899 
L 370.550915 327.351776 
L 377.455366 329.758756 
L 368.315282 327.158294 
L 379.810469 331.186802 
L 366.397125 326.87871 
L 380.327387 332.298533 
L 367.880759 327.615854 
L 380.78203 331.959422 
L 369.35094 326.94699 
L 377.644818 330.224369 
L 366.295761 327.486579 
L 377.931868 332.979756 
L 369.952212 330.034204 
L 379.148461 332.87504 
L 368.76408 329.047328 
L 377.033508 332.749974 
L 372.897396 330.455788 
L 372.450684 331.160771 
L 376.2278 332.189666 
L 373.273705 330.47965 
L 374.578892 330.911741 
L 371.739833 330.397346 
L 374.778471 331.941778 
L 373.836135 331.282689 
L 375.033549 331.306916 
L 372.753531 330.462836 
L 373.398556 331.272148 
L 371.849088 331.613685 
L 379.674644 333.078797 
L 366.321633 328.869595 
L 380.989684 334.343632 
L 369.210126 329.181236 
L 377.763905 332.560373 
L 372.802042 329.736551 
L 376.618264 330.510711 
L 372.136581 328.517396 
L 376.499013 329.774229 
L 370.614379 327.867322 
L 380.444239 330.228211 
L 364.427473 325.46031 
L 381.060623 332.309225 
L 366.708872 327.094868 
L 379.843447 332.288522 
L 369.688536 327.956753 
L 377.613257 330.98912 
L 373.043937 328.27432 
L 376.23892 328.8731 
L 370.321179 327.154737 
L 380.899301 329.728368 
L 367.856607 324.630334 
L 377.581407 328.992067 
L 366.439311 326.300097 
L 383.307819 331.689477 
L 365.665214 324.845435 
L 383.195997 330.796722 
L 366.819661 324.033466 
L 381.93989 329.147542 
L 366.996238 323.294697 
L 378.956784 328.280865 
L 368.357742 324.591294 
L 381.417954 328.589515 
L 363.787228 323.115041 
L 384.970348 330.429217 
L 363.514742 322.379109 
L 382.59045 329.891234 
L 365.0262 323.566818 
L 382.523805 329.982043 
L 362.672703 323.705986 
L 385.494196 331.828451 
L 363.271865 323.399045 
L 385.286911 331.086981 
L 363.878609 322.807578 
L 382.946702 330.055573 
L 364.166187 323.472856 
L 383.895534 330.511992 
L 367.936029 323.241351 
L 378.066272 327.545769 
L 369.742113 324.501939 
L 374.937039 327.495961 
L 369.799375 326.721719 
L 378.045743 329.673878 
L 373.992059 326.645258 
L 371.894066 326.556396 
L 378.22205 327.989253 
L 371.581373 324.832509 
L 378.309521 326.492312 
L 369.455457 323.271889 
L 377.798194 326.245407 
L 370.354189 323.395826 
L 377.57517 325.945991 
L 372.866008 323.258137 
L 374.372105 323.986143 
L 375.555064 323.621578 
L 370.853225 322.398854 
L 377.731813 324.587109 
L 369.832073 321.785446 
L 378.653809 324.714607 
L 369.047566 321.244156 
L 376.481292 324.742566 
L 371.422011 322.848037 
L 374.440691 324.623613 
L 373.35865 324.209308 
L 375.489912 324.579913 
L 373.300075 323.404509 
L 377.039739 323.817623 
L 372.056011 321.517897 
L 377.206195 322.833621 
L 371.040439 320.413027 
L 374.771336 322.465666 
L 370.728016 321.811443 
L 377.152555 324.0906 
L 370.632472 321.709068 
L 376.177028 324.057553 
L 372.483668 322.383676 
L 372.793411 323.389091 
L 377.435768 324.169756 
L 370.333999 321.582788 
L 377.809843 324.14783 
L 370.998423 321.289502 
L 374.802651 323.372534 
L 373.968876 322.695623 
L 375.530563 322.623562 
L 372.114201 321.418552 
L 375.224515 322.692066 
L 373.76229 321.709087 
L 373.167499 321.786899 
L 376.873972 322.296228 
L 374.243306 320.116589 
L 376.224711 319.845404 
L 368.076764 318.136579 
L 377.239669 322.339968 
L 370.108006 319.89503 
L 376.762698 322.624259 
L 372.557368 320.525381 
L 374.272258 321.477416 
L 373.525158 321.185245 
L 373.223499 321.435102 
L 375.203896 321.903812 
L 373.003713 320.935753 
L 374.858031 321.563935 
L 370.652938 320.846785 
L 375.592602 323.180522 
L 373.454733 321.93054 
L 372.852843 322.231481 
L 377.159718 322.969075 
L 370.175251 320.582214 
L 377.220385 323.262562 
L 368.963643 320.831725 
L 375.954976 324.391095 
L 372.493939 322.878322 
L 372.988012 323.876261 
L 374.291231 324.51574 
L 373.480827 324.20985 
L 372.683686 324.491828 
L 375.390063 325.352045 
L 372.140366 324.249113 
L 374.666733 325.503467 
L 374.882773 324.925218 
L 370.557787 324.190241 
L 378.158234 326.592613 
L 370.639055 323.481937 
L 376.857579 325.82544 
L 371.890159 323.658074 
L 376.023404 325.093971 
L 369.187237 323.531616 
L 380.302762 326.928306 
L 365.664482 322.262238 
L 383.058475 328.214819 
L 361.506029 321.550435 
L 384.840144 330.520196 
L 360.20681 322.564546 
L 385.524782 332.476393 
L 363.788563 324.02508 
L 386.765676 331.337957 
L 362.202566 321.986332 
L 385.175319 330.45057 
L 364.150681 322.251829 
L 384.827473 329.302643 
L 365.4835 321.355701 
L 369.266946 322.979131 
L 376.347235 326.31809 
L 374.473496 324.520945 
L 375.841361 324.082841 
L 371.347462 322.652463 
L 376.437402 324.48214 
L 372.332139 322.619424 
L 375.069123 323.734755 
L 372.685402 322.864551 
L 376.439444 323.723593 
L 373.840598 321.859325 
L 374.153906 321.880325 
L 370.178353 321.674022 
L 376.912433 324.351974 
L 371.293875 322.144657 
L 376.874254 324.013257 
L 373.030238 321.833599 
L 372.076327 322.442509 
L 373.919751 323.743434 
L 374.868558 323.707013 
L 375.404721 322.982303 
L 370.741973 321.868608 
L 377.739202 324.137632 
L 365.845546 321.330547 
L 381.318233 327.15204 
L 366.573449 321.749502 
L 378.807978 327.042784 
L 367.976158 323.460916 
L 377.251432 327.736176 
L 371.534142 325.283362 
L 376.120424 326.977387 
L 369.35408 325.344808 
L 375.45555 328.620171 
L 373.53533 327.469924 
L 377.834823 327.712325 
L 373.113747 324.836386 
L 373.682695 325.384629 
L 376.119834 325.520163 
L 370.231309 323.887894 
L 378.668704 326.527135 
L 367.342855 323.046194 
L 379.25724 327.780971 
L 370.837667 323.873394 
L 374.888014 325.653741 
L 375.039517 324.914989 
L 370.948405 324.066313 
L 373.641759 326.185341 
L 376.845008 326.350561 
L 375.518871 324.192369 
L 372.583578 322.995936 
L 373.748193 324.004343 
L 372.417297 324.092373 
L 373.738099 325.145848 
L 372.560917 325.241195 
L 376.483954 326.190433 
L 366.804873 324.294109 
L 379.239493 329.418846 
L 365.67914 325.524458 
L 384.274777 331.465442 
L 364.514342 323.920139 
L 384.154253 330.706562 
L 368.471367 323.248375 
L 374.416488 327.164435 
L 373.600441 326.767737 
L 373.238324 326.96292 
L 374.385023 327.420749 
L 372.451007 327.046876 
L 375.418934 328.075747 
L 369.466621 326.952025 
L 378.202878 330.145499 
L 367.985322 327.002997 
L 382.160784 331.270858 
L 369.689851 325.258448 
L 378.202785 328.290267 
L 369.897222 325.147543 
L 376.664296 328.028957 
L 370.915774 326.00201 
L 377.495309 328.144504 
L 371.329925 325.514864 
L 377.084254 327.357001 
L 371.934429 325.025394 
L 377.494172 326.429082 
L 367.407735 323.800043 
L 382.360092 328.487577 
L 367.171747 322.329787 
L 382.980385 327.188867 
L 365.216528 320.580781 
L 383.736798 326.858868 
L 367.047974 319.702039 
L 378.539293 324.651559 
L 370.303647 321.264166 
L 377.631344 323.85127 
L 370.561818 321.122386 
L 376.418007 323.5222 
L 370.145658 321.673465 
L 375.282348 324.375137 
L 374.278976 323.350288 
L 376.030751 323.053271 
L 370.245894 321.485427 
L 382.177204 324.114402 
L 365.860804 318.087942 
L 381.115923 323.899302 
L 368.081237 318.642649 
L 376.901661 322.842687 
L 369.786272 320.64302 
L 375.500416 323.605577 
L 371.446786 322.422496 
L 375.535481 324.180137 
L 372.7305 322.971654 
L 373.623029 323.797974 
L 373.189305 323.976802 
L 379.114288 324.470257 
L 370.140113 320.665735 
L 374.521327 323.371565 
L 373.505373 322.898738 
L 372.173936 323.162926 
L 375.381831 324.392995 
L 372.473059 323.295982 
L 376.728733 324.309048 
L 371.598381 322.234983 
L 375.170809 323.719466 
L 372.392887 322.775497 
L 376.440117 323.84675 
L 371.348207 321.982006 
L 374.568581 323.811202 
L 373.668038 323.304106 
L 373.182673 323.450287 
L 373.829212 323.948566 
L 373.580198 323.977824 
L 376.017971 324.187719 
L 372.454283 322.629234 
L 374.921145 323.655954 
L 371.096642 322.893095 
L 377.231461 324.904708 
L 369.242224 322.466035 
L 381.595774 325.823015 
L 365.954849 320.218805 
L 382.147792 325.961316 
L 362.607121 319.956743 
L 384.337858 328.128306 
L 364.973565 320.536001 
L 380.803427 326.990381 
L 367.259786 321.961192 
L 379.69938 326.692996 
L 371.55015 322.464517 
L 376.250746 324.147166 
L 370.220066 322.419821 
L 376.260756 325.067411 
L 376.88053 323.332884 
L 371.600552 321.1486 
L 377.238312 322.794792 
L 370.908327 320.350893 
L 377.68233 322.499391 
L 370.175678 319.733335 
L 378.914247 322.413486 
L 369.536224 318.753698 
L 379.244797 321.89797 
L 367.678519 317.998278 
L 378.084944 322.490674 
L 373.108238 319.432534 
L 374.78397 319.984921 
L 369.867073 319.321451 
L 380.192 322.225575 
L 364.962607 317.638771 
L 381.926635 324.102032 
L 368.037275 318.257334 
L 379.378689 322.489352 
L 366.559828 318.49264 
L 379.936044 323.796663 
L 368.465982 319.395893 
L 380.362687 323.31661 
L 367.641904 318.606232 
L 377.240293 323.125061 
L 368.612478 320.679766 
L 383.688409 324.493945 
L 367.67645 317.371376 
L 379.367917 321.865414 
L 367.914505 317.876393 
L 381.286334 322.197577 
L 366.934241 316.81685 
L 367.945916 317.270422 
L 378.446491 321.568943 
L 365.024875 318.24836 
L 379.468702 324.666241 
L 368.280093 320.604667 
L 379.461027 324.660018 
L 369.728719 320.60401 
L 371.518613 321.279778 
L 374.16185 322.985407 
L 371.7516 322.773353 
L 376.135712 324.309833 
L 375.941102 322.665948 
L 369.228088 321.163111 
L 380.668394 324.530563 
L 371.738657 319.598711 
L 375.619236 321.144825 
L 372.230381 319.875393 
L 374.764814 321.064709 
L 372.139177 320.415172 
L 374.422723 321.670629 
L 371.493413 321.269299 
L 374.502187 322.993211 
L 371.379543 322.534259 
L 376.669868 324.340673 
L 366.871997 322.309312 
L 378.969691 327.385858 
L 372.460086 323.686762 
L 377.980111 324.709218 
L 371.762585 321.727459 
L 374.233957 323.256049 
L 375.203481 322.991689 
L 369.425793 322.023984 
L 378.639619 325.24786 
L 369.388055 321.787794 
L 378.77102 325.039087 
L 370.008112 321.48367 
L 379.701941 324.285158 
L 366.65204 320.054315 
L 379.445309 325.291021 
L 368.311421 321.246541 
L 380.70441 325.279033 
L 366.246611 320.32124 
L 380.28882 325.852034 
L 369.622507 321.195829 
L 375.800346 324.277119 
L 372.652074 322.876507 
L 373.859857 323.759726 
L 374.236665 323.766753 
L 376.419162 323.500435 
L 372.237279 321.65086 
L 375.333428 322.835066 
L 372.636675 321.773082 
L 370.381209 321.16842 
L 379.400169 323.699264 
L 369.959922 319.68721 
L 377.660055 322.523913 
L 369.699429 319.774021 
L 377.180999 322.799716 
L 373.048497 320.397396 
L 373.22751 320.993102 
L 373.808122 321.458912 
L 375.96073 321.503474 
L 371.586051 319.98631 
L 373.163227 321.643118 
L 375.428598 322.15555 
L 372.630806 321.024486 
L 379.10511 321.923217 
L 369.509448 318.124871 
L 377.04856 321.28867 
L 366.709096 318.982256 
L 379.164723 324.177842 
L 368.794715 320.336678 
L 383.382099 324.018701 
L 363.737865 317.118165 
L 382.521514 324.470342 
L 365.412683 318.194227 
L 386.079881 324.330724 
L 361.609457 315.473318 
L 388.413898 324.370727 
L 362.058588 313.820241 
L 386.958659 322.39241 
L 361.555044 312.896623 
L 385.387307 321.834665 
L 360.849015 313.478617 
L 387.202847 322.928832 
L 362.500849 313.256151 
L 385.787321 321.507566 
L 364.251417 312.861171 
L 384.823045 319.842159 
L 361.270907 311.894692 
L 384.162737 321.03942 
L 362.934402 313.571493 
L 385.505695 321.508111 
L 360.330822 313.066037 
L 384.969186 322.892554 
L 365.377834 314.840273 
L 380.653339 321.003084 
L 367.176718 316.081289 
L 379.554403 320.938271 
L 370.972979 316.813766 
L 379.349777 318.915726 
L 368.05464 314.939282 
L 379.885779 319.159395 
L 367.119934 314.794083 
L 379.12979 319.692585 
L 367.718765 315.875911 
L 379.297784 320.339575 
L 366.017573 316.401136 
L 381.244817 322.099218 
L 361.919065 316.748585 
L 385.778159 325.420756 
L 362.990909 316.782688 
L 384.795473 324.677034 
L 360.788423 316.751477 
L 389.631536 326.244126 
L 357.448565 314.811429 
L 389.499913 326.728879 
L 356.975893 315.391926 
L 391.73947 327.652063 
L 356.663905 314.691318 
L 391.124275 327.178306 
L 355.825135 314.663458 
L 393.131691 327.759201 
L 355.746881 313.788777 
L 391.543003 326.941885 
L 357.528968 314.123182 
L 388.217723 325.982685 
L 358.9432 315.575338 
L 386.00972 326.407653 
L 361.513884 317.602051 
L 386.018537 326.567872 
L 362.425876 317.755945 
L 389.136391 326.05992 
L 357.800947 314.986267 
L 390.034356 326.647876 
L 357.772893 314.923236 
L 388.246527 326.605242 
L 356.583844 316.177325 
L 392.178656 328.721492 
L 356.477852 315.44292 
L 390.175504 328.064465 
L 355.988458 316.23828 
L 355.988458 316.23828 
" clip-path="url(#p5673c92476)" style="fill: none; stroke: #ff0000; stroke-width: 3; stroke-linecap: round"/>
   </g>
   <g id="line2d_16">
    <defs>
     <path id="m3d905f3d44" d="M 0 3 
C 0.795609 3 1.55874 2.683901 2.12132 2.12132 
C 2.683901 1.55874 3 0.795609 3 0 
C 3 -0.795609 2.683901 -1.55874 2.12132 -2.12132 
C 1.55874 -2.683901 0.795609 -3 0 -3 
C -0.795609 -3 -1.55874 -2.683901 -2.12132 -2.12132 
C -2.683901 -1.55874 -3 -0.795609 -3 0 
C -3 0.795609 -2.683901 1.55874 -2.12132 2.12132 
C -1.55874 2.683901 -0.795609 3 0 3 
z
" style="stroke: #ff0000"/>
    </defs>
    <g clip-path="url(#p5673c92476)">
     <use xlink:href="#m3d905f3d44" x="355.988458" y="316.23828" style="fill: #ff0000; stroke: #ff0000"/>
    </g>
   </g>
   <g id="patch_3">
    <path d="M 90 448.56 
L 90 60.48 
" style="fill: none; stroke: #cccccc; stroke-width: 0.8; stroke-linejoin: miter; stroke-linecap: square"/>
   </g>
   <g id="patch_4">
    <path d="M 648 448.56 
L 648 60.48 
" style="fill: none; stroke: #cccccc; stroke-width: 0.8; stroke-linejoin: miter; stroke-linecap: square"/>
   </g>
   <g id="patch_5">
    <path d="M 90 448.56 
L 648 448.56 
" style="fill: none; stroke: #cccccc; stroke-width: 0.8; stroke-linejoin: miter; stroke-linecap: square"/>
   </g>
   <g id="patch_6">
    <path d="M 90 60.48 
L 648 60.48 
" style="fill: none; stroke: #cccccc; stroke-width: 0.8; stroke-linejoin: miter; stroke-linecap: square"/>
   </g>
   <g id="line2d_17">
    <defs>
     <path id="m0d5d7cd0ba" d="M 0 3 
C 0.795609 3 1.55874 2.683901 2.12132 2.12132 
C 2.683901 1.55874 3 0.795609 3 0 
C 3 -0.795609 2.683901 -1.55874 2.12132 -2.12132 
C 1.55874 -2.683901 0.795609 -3 0 -3 
C -0.795609 -3 -1.55874 -2.683901 -2.12132 -2.12132 
C -2.683901 -1.55874 -3 -0.795609 -3 0 
C -3 0.795609 -2.683901 1.55874 -2.12132 2.12132 
C -1.55874 2.683901 -0.795609 3 0 3 
z
" style="stroke: #0000ff"/>
    </defs>
    <g clip-path="url(#p5673c92476)">
     <use xlink:href="#m0d5d7cd0ba" x="124.792773" y="78.12" style="fill: #0000ff; stroke: #0000ff"/>
    </g>
   </g>
   <g id="legend_1">
    <g id="patch_7">
     <path d="M 366.840625 133.06125 
L 634 133.06125 
Q 638 133.06125 638 129.06125 
L 638 74.48 
Q 638 70.48 634 70.48 
L 366.840625 70.48 
Q 362.840625 70.48 362.840625 74.48 
L 362.840625 129.06125 
Q 362.840625 133.06125 366.840625 133.06125 
z
" style="fill: #ffffff; opacity: 0.8; stroke: #cccccc; stroke-linejoin: miter"/>
    </g>
    <g id="line2d_18">
     <g>
      <use xlink:href="#m0d5d7cd0ba" x="390.840625" y="85.795625" style="fill: #0000ff; stroke: #0000ff"/>
     </g>
    </g>
    <g id="text_17">
     <text style="fill: #262626; font: 20px 'Arial', 'DejaVu Sans', 'Liberation Sans', 'Bitstream Vera Sans', sans-serif; text-anchor: start" x="426.840625" y="92.795625" transform="rotate(-0 426.840625 92.795625)">Начальное состояние</text>
    </g>
    <g id="line2d_19">
     <g>
      <use xlink:href="#m3d905f3d44" x="390.840625" y="114.08625" style="fill: #ff0000; stroke: #ff0000"/>
     </g>
    </g>
    <g id="text_18">
     <text style="fill: #262626; font: 20px 'Arial', 'DejaVu Sans', 'Liberation Sans', 'Bitstream Vera Sans', sans-serif; text-anchor: start" x="426.840625" y="121.08625" transform="rotate(-0 426.840625 121.08625)">Конечное состояние</text>
    </g>
   </g>
  </g>
 </g>
 <defs>
  <clipPath id="p5673c92476">
   <rect x="90" y="60.48" width="558" height="388.08"/>
  </clipPath>
 </defs>
</svg>
