<?xml version="1.0" encoding="utf-8" standalone="no"?>
<!DOCTYPE svg PUBLIC "-//W3C//DTD SVG 1.1//EN"
  "http://www.w3.org/Graphics/SVG/1.1/DTD/svg11.dtd">
<svg xmlns:xlink="http://www.w3.org/1999/xlink" width="720pt" height="504pt" viewBox="0 0 720 504" xmlns="http://www.w3.org/2000/svg" version="1.1">
 <metadata>
  <rdf:RDF xmlns:dc="http://purl.org/dc/elements/1.1/" xmlns:cc="http://creativecommons.org/ns#" xmlns:rdf="http://www.w3.org/1999/02/22-rdf-syntax-ns#">
   <cc:Work>
    <dc:type rdf:resource="http://purl.org/dc/dcmitype/StillImage"/>
    <dc:date>2024-09-29T05:40:59.960976</dc:date>
    <dc:format>image/svg+xml</dc:format>
    <dc:creator>
     <cc:Agent>
      <dc:title>Matplotlib v3.9.2, https://matplotlib.org/</dc:title>
     </cc:Agent>
    </dc:creator>
   </cc:Work>
  </rdf:RDF>
 </metadata>
 <defs>
  <style type="text/css">*{stroke-linejoin: round; stroke-linecap: butt}</style>
 </defs>
 <g id="figure_1">
  <g id="patch_1">
   <path d="M 0 504 
L 720 504 
L 720 0 
L 0 0 
z
" style="fill: #ffffff"/>
  </g>
  <g id="axes_1">
   <g id="patch_2">
    <path d="M 90 448.56 
L 648 448.56 
L 648 60.48 
L 90 60.48 
z
" style="fill: #ffffff"/>
   </g>
   <g id="matplotlib.axis_1">
    <g id="xtick_1">
     <g id="line2d_1">
      <path d="M 90 448.56 
L 90 60.48 
" clip-path="url(#pb9bdc7fa4d)" style="fill: none; stroke: #cccccc; stroke-width: 0.8; stroke-linecap: round"/>
     </g>
     <g id="text_1">
      <text style="fill: #262626; font: 20px 'Arial', 'DejaVu Sans', 'Liberation Sans', 'Bitstream Vera Sans', sans-serif; text-anchor: middle" x="90" y="469.875625" transform="rotate(-0 90 469.875625)">0</text>
     </g>
    </g>
    <g id="xtick_2">
     <g id="line2d_2">
      <path d="M 178.571429 448.56 
L 178.571429 60.48 
" clip-path="url(#pb9bdc7fa4d)" style="fill: none; stroke: #cccccc; stroke-width: 0.8; stroke-linecap: round"/>
     </g>
     <g id="text_2">
      <text style="fill: #262626; font: 20px 'Arial', 'DejaVu Sans', 'Liberation Sans', 'Bitstream Vera Sans', sans-serif; text-anchor: middle" x="178.571429" y="469.875625" transform="rotate(-0 178.571429 469.875625)">10</text>
     </g>
    </g>
    <g id="xtick_3">
     <g id="line2d_3">
      <path d="M 267.142857 448.56 
L 267.142857 60.48 
" clip-path="url(#pb9bdc7fa4d)" style="fill: none; stroke: #cccccc; stroke-width: 0.8; stroke-linecap: round"/>
     </g>
     <g id="text_3">
      <text style="fill: #262626; font: 20px 'Arial', 'DejaVu Sans', 'Liberation Sans', 'Bitstream Vera Sans', sans-serif; text-anchor: middle" x="267.142857" y="469.875625" transform="rotate(-0 267.142857 469.875625)">20</text>
     </g>
    </g>
    <g id="xtick_4">
     <g id="line2d_4">
      <path d="M 355.714286 448.56 
L 355.714286 60.48 
" clip-path="url(#pb9bdc7fa4d)" style="fill: none; stroke: #cccccc; stroke-width: 0.8; stroke-linecap: round"/>
     </g>
     <g id="text_4">
      <text style="fill: #262626; font: 20px 'Arial', 'DejaVu Sans', 'Liberation Sans', 'Bitstream Vera Sans', sans-serif; text-anchor: middle" x="355.714286" y="469.875625" transform="rotate(-0 355.714286 469.875625)">30</text>
     </g>
    </g>
    <g id="xtick_5">
     <g id="line2d_5">
      <path d="M 444.285714 448.56 
L 444.285714 60.48 
" clip-path="url(#pb9bdc7fa4d)" style="fill: none; stroke: #cccccc; stroke-width: 0.8; stroke-linecap: round"/>
     </g>
     <g id="text_5">
      <text style="fill: #262626; font: 20px 'Arial', 'DejaVu Sans', 'Liberation Sans', 'Bitstream Vera Sans', sans-serif; text-anchor: middle" x="444.285714" y="469.875625" transform="rotate(-0 444.285714 469.875625)">40</text>
     </g>
    </g>
    <g id="xtick_6">
     <g id="line2d_6">
      <path d="M 532.857143 448.56 
L 532.857143 60.48 
" clip-path="url(#pb9bdc7fa4d)" style="fill: none; stroke: #cccccc; stroke-width: 0.8; stroke-linecap: round"/>
     </g>
     <g id="text_6">
      <text style="fill: #262626; font: 20px 'Arial', 'DejaVu Sans', 'Liberation Sans', 'Bitstream Vera Sans', sans-serif; text-anchor: middle" x="532.857143" y="469.875625" transform="rotate(-0 532.857143 469.875625)">50</text>
     </g>
    </g>
    <g id="xtick_7">
     <g id="line2d_7">
      <path d="M 621.428571 448.56 
L 621.428571 60.48 
" clip-path="url(#pb9bdc7fa4d)" style="fill: none; stroke: #cccccc; stroke-width: 0.8; stroke-linecap: round"/>
     </g>
     <g id="text_7">
      <text style="fill: #262626; font: 20px 'Arial', 'DejaVu Sans', 'Liberation Sans', 'Bitstream Vera Sans', sans-serif; text-anchor: middle" x="621.428571" y="469.875625" transform="rotate(-0 621.428571 469.875625)">60</text>
     </g>
    </g>
    <g id="text_8">
     <!-- $x_{1}$ -->
     <g style="fill: #262626" transform="translate(358.3 492.16625)">
      <text>
       <tspan style="font: oblique 20px 'DejaVu Sans'" x="0" y="-0.0625">x</tspan>
       <tspan style="font: 14px 'DejaVu Sans'" x="11.835938" y="3.21875">1</tspan>
      </text>
     </g>
    </g>
   </g>
   <g id="matplotlib.axis_2">
    <g id="ytick_1">
     <g id="line2d_8">
      <path d="M 90 448.56 
L 648 448.56 
" clip-path="url(#pb9bdc7fa4d)" style="fill: none; stroke: #cccccc; stroke-width: 0.8; stroke-linecap: round"/>
     </g>
     <g id="text_9">
      <text style="fill: #262626; font: 20px 'Arial', 'DejaVu Sans', 'Liberation Sans', 'Bitstream Vera Sans', sans-serif; text-anchor: end" x="83" y="455.717813" transform="rotate(-0 83 455.717813)">0.0</text>
     </g>
    </g>
    <g id="ytick_2">
     <g id="line2d_9">
      <path d="M 90 400.05 
L 648 400.05 
" clip-path="url(#pb9bdc7fa4d)" style="fill: none; stroke: #cccccc; stroke-width: 0.8; stroke-linecap: round"/>
     </g>
     <g id="text_10">
      <text style="fill: #262626; font: 20px 'Arial', 'DejaVu Sans', 'Liberation Sans', 'Bitstream Vera Sans', sans-serif; text-anchor: end" x="83" y="407.207813" transform="rotate(-0 83 407.207813)">2.5</text>
     </g>
    </g>
    <g id="ytick_3">
     <g id="line2d_10">
      <path d="M 90 351.54 
L 648 351.54 
" clip-path="url(#pb9bdc7fa4d)" style="fill: none; stroke: #cccccc; stroke-width: 0.8; stroke-linecap: round"/>
     </g>
     <g id="text_11">
      <text style="fill: #262626; font: 20px 'Arial', 'DejaVu Sans', 'Liberation Sans', 'Bitstream Vera Sans', sans-serif; text-anchor: end" x="83" y="358.697813" transform="rotate(-0 83 358.697813)">5.0</text>
     </g>
    </g>
    <g id="ytick_4">
     <g id="line2d_11">
      <path d="M 90 303.03 
L 648 303.03 
" clip-path="url(#pb9bdc7fa4d)" style="fill: none; stroke: #cccccc; stroke-width: 0.8; stroke-linecap: round"/>
     </g>
     <g id="text_12">
      <text style="fill: #262626; font: 20px 'Arial', 'DejaVu Sans', 'Liberation Sans', 'Bitstream Vera Sans', sans-serif; text-anchor: end" x="83" y="310.187813" transform="rotate(-0 83 310.187813)">7.5</text>
     </g>
    </g>
    <g id="ytick_5">
     <g id="line2d_12">
      <path d="M 90 254.52 
L 648 254.52 
" clip-path="url(#pb9bdc7fa4d)" style="fill: none; stroke: #cccccc; stroke-width: 0.8; stroke-linecap: round"/>
     </g>
     <g id="text_13">
      <text style="fill: #262626; font: 20px 'Arial', 'DejaVu Sans', 'Liberation Sans', 'Bitstream Vera Sans', sans-serif; text-anchor: end" x="83" y="261.677813" transform="rotate(-0 83 261.677813)">10.0</text>
     </g>
    </g>
    <g id="ytick_6">
     <g id="line2d_13">
      <path d="M 90 206.01 
L 648 206.01 
" clip-path="url(#pb9bdc7fa4d)" style="fill: none; stroke: #cccccc; stroke-width: 0.8; stroke-linecap: round"/>
     </g>
     <g id="text_14">
      <text style="fill: #262626; font: 20px 'Arial', 'DejaVu Sans', 'Liberation Sans', 'Bitstream Vera Sans', sans-serif; text-anchor: end" x="83" y="213.167812" transform="rotate(-0 83 213.167812)">12.5</text>
     </g>
    </g>
    <g id="ytick_7">
     <g id="line2d_14">
      <path d="M 90 157.5 
L 648 157.5 
" clip-path="url(#pb9bdc7fa4d)" style="fill: none; stroke: #cccccc; stroke-width: 0.8; stroke-linecap: round"/>
     </g>
     <g id="text_15">
      <text style="fill: #262626; font: 20px 'Arial', 'DejaVu Sans', 'Liberation Sans', 'Bitstream Vera Sans', sans-serif; text-anchor: end" x="83" y="164.657812" transform="rotate(-0 83 164.657812)">15.0</text>
     </g>
    </g>
    <g id="ytick_8">
     <g id="line2d_15">
      <path d="M 90 108.99 
L 648 108.99 
" clip-path="url(#pb9bdc7fa4d)" style="fill: none; stroke: #cccccc; stroke-width: 0.8; stroke-linecap: round"/>
     </g>
     <g id="text_16">
      <text style="fill: #262626; font: 20px 'Arial', 'DejaVu Sans', 'Liberation Sans', 'Bitstream Vera Sans', sans-serif; text-anchor: end" x="83" y="116.147812" transform="rotate(-0 83 116.147812)">17.5</text>
     </g>
    </g>
    <g id="ytick_9">
     <g id="line2d_16">
      <path d="M 90 60.48 
L 648 60.48 
" clip-path="url(#pb9bdc7fa4d)" style="fill: none; stroke: #cccccc; stroke-width: 0.8; stroke-linecap: round"/>
     </g>
     <g id="text_17">
      <text style="fill: #262626; font: 20px 'Arial', 'DejaVu Sans', 'Liberation Sans', 'Bitstream Vera Sans', sans-serif; text-anchor: end" x="83" y="67.637812" transform="rotate(-0 83 67.637812)">20.0</text>
     </g>
    </g>
    <g id="text_18">
     <!-- $x_{2}$ -->
     <g style="fill: #262626" transform="translate(36.103125 265.22) rotate(-90)">
      <text>
       <tspan style="font: oblique 20px 'DejaVu Sans'" x="0" y="-0.0625">x</tspan>
       <tspan style="font: 14px 'DejaVu Sans'" x="11.835938" y="3.21875">2</tspan>
      </text>
     </g>
    </g>
   </g>
   <g id="line2d_17">
    <path d="M 134.285714 254.52 
L 134.820423 254.840942 
L 146.317826 258.370072 
L 162.065973 262.988527 
L 178.415334 267.545255 
L 195.613311 272.1019 
L 213.704548 276.663699 
L 233.448041 281.409482 
L 255.362382 286.44391 
L 281.326567 292.172209 
L 323.551038 301.217496 
L 355.392684 308.139394 
L 374.516479 312.519792 
L 389.511585 316.177234 
L 402.046364 319.457908 
L 413.001461 322.549918 
L 422.946817 325.585697 
L 432.214617 328.645931 
L 441.233509 331.858501 
L 450.499574 335.398283 
L 460.825615 339.58863 
L 474.153248 345.253961 
L 500.03116 356.551474 
L 557.669982 381.815865 
L 557.669982 381.815865 
" clip-path="url(#pb9bdc7fa4d)" style="fill: none; stroke: #ff0000; stroke-width: 3; stroke-linecap: round"/>
   </g>
   <g id="LineCollection_1">
    <path clip-path="url(#pb9bdc7fa4d)" style="fill: none; stroke: #1f77b4; stroke-width: 1.5"/>
    <path clip-path="url(#pb9bdc7fa4d)" style="fill: none; stroke: #1f77b4; stroke-width: 1.5"/>
    <path clip-path="url(#pb9bdc7fa4d)" style="fill: none; stroke: #1f77b4; stroke-width: 1.5"/>
    <path clip-path="url(#pb9bdc7fa4d)" style="fill: none; stroke: #1f77b4; stroke-width: 1.5"/>
    <path clip-path="url(#pb9bdc7fa4d)" style="fill: none; stroke: #1f77b4; stroke-width: 1.5"/>
    <path clip-path="url(#pb9bdc7fa4d)" style="fill: none; stroke: #1f77b4; stroke-width: 1.5"/>
    <path clip-path="url(#pb9bdc7fa4d)" style="fill: none; stroke: #1f77b4; stroke-width: 1.5"/>
    <path clip-path="url(#pb9bdc7fa4d)" style="fill: none; stroke: #1f77b4; stroke-width: 1.5"/>
    <path clip-path="url(#pb9bdc7fa4d)" style="fill: none; stroke: #1f77b4; stroke-width: 1.5"/>
    <path clip-path="url(#pb9bdc7fa4d)" style="fill: none; stroke: #1f77b4; stroke-width: 1.5"/>
    <path d="M 87.871064 505 
L 90.683363 503.882481 
L 110.405926 499.026416 
L 131.118102 496.120523 
L 152.421607 494.507995 
L 173.933535 493.4677 
L 195.457531 492.615593 
L 216.993047 491.948035 
L 238.53527 491.405062 
L 260.079658 490.929644 
L 281.626243 490.523906 
L 303.174534 490.177296 
L 324.723772 489.872612 
L 346.273722 489.605498 
L 367.824337 489.375209 
L 389.375393 489.174468 
L 410.92674 488.998972 
L 432.478404 488.85107 
L 454.030292 488.727326 
L 475.582303 488.624192 
L 497.134454 488.544222 
L 518.686713 488.487572 
L 540.239017 488.45311 
L 561.791347 488.442881 
L 583.343683 488.460082 
L 604.895947 488.506344 
L 626.448065 488.585553 
L 648 488.706207 
L 648 488.706207 
" clip-path="url(#pb9bdc7fa4d)" style="fill: none; stroke: #1f77b4; stroke-width: 1.5"/>
    <path d="M 1.428571 478.588636 
L 5.397327 478.839214 
L 26.789448 479.666348 
L 48.016779 479.203665 
L 69.110528 477.023762 
L 90.338897 474.208908 
L 111.727638 472.135939 
L 133.190469 470.867559 
L 154.710132 470.136569 
L 176.251539 469.638067 
L 197.795708 469.227524 
L 219.342747 468.901718 
L 240.891523 468.632753 
L 262.44095 468.396546 
L 283.991096 468.194465 
L 305.541801 468.020412 
L 327.092814 467.865951 
L 348.6441 467.730123 
L 370.195643 467.612152 
L 391.747358 467.508414 
L 413.299203 467.41735 
L 434.851191 467.340002 
L 456.403282 467.274685 
L 477.955442 467.220007 
L 499.507681 467.177569 
L 521.059978 467.147451 
L 542.612299 467.129358 
L 564.164637 467.125209 
L 585.64724 467.137297 
L 606.875702 467.167136 
L 627.693926 467.21774 
L 648 467.294897 
L 648 467.294897 
" clip-path="url(#pb9bdc7fa4d)" style="fill: none; stroke: #1f77b4; stroke-width: 1.5"/>
    <path d="M 1.428571 444.428636 
L 18.153639 444.32775 
L 39.479879 444.301881 
L 60.783203 444.483405 
L 82.081544 444.796687 
L 103.420826 445.091115 
L 124.832892 445.29606 
L 146.32294 445.41982 
L 167.854979 445.499225 
L 189.391418 445.566202 
L 210.932634 445.620573 
L 232.477458 445.665094 
L 254.023975 445.703696 
L 275.571699 445.737324 
L 297.120555 445.766278 
L 318.670133 445.791808 
L 340.220179 445.814625 
L 361.770741 445.834533 
L 383.321679 445.852075 
L 404.872846 445.867781 
L 426.424277 445.881424 
L 447.975937 445.893112 
L 469.527755 445.9031 
L 491.079727 445.911258 
L 512.63185 445.917384 
L 534.184053 445.921478 
L 555.736288 445.923297 
L 577.247214 445.922151 
L 597.822203 445.917723 
L 616.574958 445.910024 
L 633.342605 445.898734 
L 648 445.883586 
L 648 445.883586 
" clip-path="url(#pb9bdc7fa4d)" style="fill: none; stroke: #1f77b4; stroke-width: 1.5"/>
    <path d="M 1.428571 413.269543 
L 19.868883 412.230322 
L 41.028326 412.032302 
L 62.25274 413.576576 
L 83.527883 415.943825 
L 104.856768 418.154494 
L 126.255056 419.793529 
L 147.733767 420.850448 
L 169.257358 421.569878 
L 190.787061 422.182568 
L 212.32347 422.684513 
L 233.864804 423.101115 
L 255.408393 423.466861 
L 276.953758 423.787379 
L 298.50075 424.065934 
L 320.048767 424.314006 
L 341.597487 424.537213 
L 363.146971 424.733887 
L 384.697007 424.909181 
L 406.247394 425.067649 
L 427.798193 425.206808 
L 449.349344 425.327884 
L 470.900737 425.433282 
L 492.452389 425.520889 
L 514.004288 425.58822 
L 535.556312 425.634315 
L 557.108384 425.654188 
L 575.473174 425.641257 
L 593.2116 425.592717 
L 608.693946 425.507191 
L 621.016472 425.388239 
L 630.339189 425.242042 
L 637.217674 425.073273 
L 642.168649 424.886298 
L 645.640113 424.68492 
L 648 424.472276 
L 648 424.472276 
" clip-path="url(#pb9bdc7fa4d)" style="fill: none; stroke: #1f77b4; stroke-width: 1.5"/>
    <path d="M 648 403.060966 
L 648 403.060966 
L 648 403.060966 
L 637.906034 402.773102 
L 629.943299 402.510481 
L 623.023085 402.240163 
L 617.169913 401.959972 
L 612.296986 401.662614 
L 608.309004 401.338319 
L 605.294313 401.003549 
L 603.153043 400.684145 
L 601.562606 400.376259 
L 600.321238 400.07742 
L 599.302835 399.786025 
L 598.428495 399.501019 
L 597.64873 399.22169 
L 596.932396 398.947548 
L 596.259806 398.678239 
L 595.618453 398.413502 
L 595.000336 398.153132 
L 594.400298 397.896964 
L 593.814979 397.644861 
L 593.242163 397.396701 
L 592.680362 397.152377 
L 592.128555 396.911793 
L 591.586023 396.674858 
L 591.052243 396.441489 
L 590.526821 396.211606 
L 590.009447 395.985134 
L 589.499868 395.762003 
L 588.997869 395.542145 
L 588.503264 395.325494 
L 588.015885 395.111988 
L 587.535579 394.901567 
L 587.062203 394.694173 
L 586.595623 394.489751 
L 586.135711 394.288246 
L 585.682347 394.089608 
L 585.235413 393.893785 
L 584.794798 393.70073 
L 584.360394 393.510395 
L 583.932095 393.322735 
L 583.509801 393.137706 
L 583.093413 392.955264 
L 582.682837 392.775368 
L 582.27798 392.597978 
L 581.878752 392.423055 
L 581.485065 392.250559 
L 581.096835 392.080454 
L 580.713978 391.912704 
L 580.336413 391.747272 
L 579.964061 391.584124 
L 579.596846 391.423227 
L 579.234692 391.264547 
L 578.877525 391.108053 
L 578.525273 390.953712 
L 578.177867 390.801495 
L 577.835237 390.65137 
L 577.497316 390.503308 
L 577.164038 390.357281 
L 576.835338 390.213259 
L 576.511153 390.071216 
L 576.191421 389.931124 
L 575.877409 389.793538 
" clip-path="url(#pb9bdc7fa4d)" style="fill: none; stroke: #1f77b4; stroke-width: 1.5"/>
    <path d="M 648 360.238345 
L 648 360.238345 
L 627.039405 359.921075 
L 607.312693 359.654019 
L 589.01089 359.445964 
L 572.512151 359.312119 
L 558.424195 359.274354 
L 547.376059 359.334175 
L 538.302534 359.484825 
L 531.291584 359.712932 
L 526.075061 360.002088 
L 522.322411 360.337001 
L 519.727745 360.704021 
L 518.026198 361.091795 
L 516.999765 361.4914 
L 516.475608 361.89612 
L 516.320324 362.301081 
L 516.432864 362.702855 
L 516.737667 363.099105 
L 517.178724 363.488294 
L 517.71477 363.869462 
L 518.315528 364.242054 
L 518.958862 364.605803 
L 519.628637 364.960636 
L 520.31313 365.306613 
L 521.003863 365.64388 
L 521.694739 365.972642 
L 522.381408 366.293136 
L 523.060802 366.605619 
L 523.730793 366.910355 
L 524.389943 367.207611 
L 525.037317 367.49765 
" clip-path="url(#pb9bdc7fa4d)" style="fill: none; stroke: #1f77b4; stroke-width: 1.5"/>
    <path d="M 648 338.827034 
L 648 338.827034 
L 626.48879 338.533036 
L 605.055294 338.286217 
L 583.704875 338.101443 
L 562.493686 338.01547 
L 541.570811 338.096537 
L 521.279899 338.450129 
L 503.125642 339.245492 
L 503.125642 339.245492 
L 495.399005 339.856887 
L 489.836919 340.546365 
L 485.591932 341.377394 
L 482.656063 342.355353 
L 480.992114 343.500872 
L 480.605598 344.844092 
" clip-path="url(#pb9bdc7fa4d)" style="fill: none; stroke: #1f77b4; stroke-width: 1.5"/>
    <path d="M 648 317.415724 
L 648 317.415724 
L 626.44965 317.139011 
L 604.898796 316.912415 
L 583.34731 316.748481 
L 561.796079 316.676623 
L 540.246919 316.746832 
L 518.701384 317.026248 
L 497.828283 317.624163 
L 497.828283 317.624163 
L 483.299774 318.376519 
L 471.15863 319.40932 
L 461.894319 320.664917 
L 455.150983 322.131928 
L 450.641205 323.809499 
L 448.151651 325.710038 
L 447.550958 327.860912 
L 448.792565 330.307993 
L 451.662544 332.946323 
L 455.641951 335.613174 
" clip-path="url(#pb9bdc7fa4d)" style="fill: none; stroke: #1f77b4; stroke-width: 1.5"/>
    <path d="M 648 296.004414 
L 648 296.004414 
L 626.449497 295.73918 
L 604.898499 295.525753 
L 583.346906 295.3745 
L 561.795343 295.309385 
L 540.24502 295.36847 
L 518.696757 295.594837 
L 497.399801 296.055004 
L 477.24323 296.845392 
L 459.099316 298.048142 
L 443.545942 299.728947 
L 431.855375 301.792666 
L 424.624396 303.883039 
L 420.476491 305.871532 
L 417.936508 308.163995 
L 417.085345 310.760028 
L 417.934123 313.626291 
L 420.138628 316.483626 
L 423.376074 319.339208 
L 427.461488 322.221886 
L 432.339815 325.188897 
" clip-path="url(#pb9bdc7fa4d)" style="fill: none; stroke: #1f77b4; stroke-width: 1.5"/>
    <path d="M 648 274.593103 
L 648 274.593103 
L 626.44939 274.335896 
L 604.898294 274.131415 
L 583.346631 273.988488 
L 561.794864 273.927679 
L 540.243863 273.980435 
L 518.694134 274.178546 
L 497.19332 274.570938 
L 475.932201 275.248416 
L 455.179477 276.325677 
L 435.305649 277.946056 
L 417.621999 280.328979 
L 417.621999 280.328979 
L 406.795963 282.662606 
L 398.602797 285.454418 
L 393.571364 288.292035 
L 390.763087 291.256017 
L 389.785905 294.432312 
L 390.540615 297.908886 
" clip-path="url(#pb9bdc7fa4d)" style="fill: none; stroke: #1f77b4; stroke-width: 1.5"/>
    <path d="M 648 253.181793 
L 648 253.181793 
L 626.449315 252.930514 
L 604.898152 252.732508 
L 583.346442 252.595468 
L 561.794583 252.537647 
L 540.243304 252.58632 
L 518.692983 252.766854 
L 497.14579 253.117313 
L 475.609019 253.712088 
L 454.090578 254.647904 
L 432.597725 256.053439 
L 411.351123 258.255273 
L 390.776876 261.911789 
L 390.776876 261.911789 
L 377.086929 266.162012 
L 377.086929 266.162012 
L 370.079799 269.881919 
L 370.079799 269.881919 
L 366.158638 273.599352 
L 364.500175 277.1777 
L 364.474202 280.789857 
L 365.955313 284.697534 
L 369.131883 289.0712 
" clip-path="url(#pb9bdc7fa4d)" style="fill: none; stroke: #1f77b4; stroke-width: 1.5"/>
    <path d="M 648 231.770483 
L 648 231.770483 
L 626.449259 231.523762 
L 604.898046 231.330659 
L 583.346303 231.198003 
L 561.794395 231.142377 
L 540.242979 231.188198 
L 518.692376 231.356739 
L 497.144235 231.679003 
L 475.603957 232.215115 
L 454.076957 233.036753 
L 432.567255 234.225888 
L 411.185961 235.989415 
L 390.114833 238.667502 
" clip-path="url(#pb9bdc7fa4d)" style="fill: none; stroke: #1f77b4; stroke-width: 1.5"/>
    <path d="M 648 210.359172 
L 648 210.359172 
L 626.449214 210.116066 
L 604.897963 209.926805 
L 583.346193 209.79754 
L 561.794249 209.743594 
L 540.242731 209.787312 
L 518.691923 209.947147 
L 497.143114 210.249486 
L 475.600455 210.745588 
L 454.06789 211.49291 
L 432.547919 212.550168 
L 411.093787 214.071076 
L 389.788005 216.285107 
L 368.722653 219.502673 
L 349.336186 224.213407 
L 349.336186 224.213407 
L 338.771118 228.207498 
L 330.602567 232.978694 
L 325.489176 237.934608 
L 322.762108 243.169303 
L 322.157075 248.806372 
L 323.684246 254.984266 
L 327.56787 261.859847 
L 333.907597 269.29365 
L 341.749892 276.4343 
" clip-path="url(#pb9bdc7fa4d)" style="fill: none; stroke: #1f77b4; stroke-width: 1.5"/>
    <path d="M 648 188.947862 
L 648 188.947862 
L 626.449178 188.707692 
L 604.897896 188.521523 
L 583.346107 188.394959 
L 561.794135 188.34234 
L 540.242546 188.384442 
L 518.691594 188.537669 
L 497.142348 188.825177 
L 475.5982 189.292222 
L 454.062219 189.987232 
L 432.536069 190.955423 
L 411.044075 192.320766 
L 389.619132 194.258064 
L 368.286696 196.969745 
" clip-path="url(#pb9bdc7fa4d)" style="fill: none; stroke: #1f77b4; stroke-width: 1.5"/>
    <path d="M 648 167.536552 
L 648 167.536552 
L 626.449149 167.298814 
L 604.897843 167.115187 
L 583.346037 166.990826 
L 561.794045 166.939282 
L 540.242406 166.980104 
L 518.691354 167.128144 
L 497.141835 167.404179 
L 475.596823 167.849155 
L 454.05893 168.505308 
L 432.529424 169.409193 
L 411.027343 170.665287 
L 389.577366 172.413695 
L 368.195638 174.795506 
L 347.085761 178.134904 
L 326.703498 183.023247 
L 307.737049 190.46129 
L 307.737049 190.46129 
L 297.622056 196.868664 
L 297.622056 196.868664 
L 291.30481 203.275775 
L 287.694375 210.264822 
L 286.600006 216.051947 
L 287.028597 222.334791 
L 289.228592 229.642387 
L 293.535619 237.726492 
L 299.940343 246.167163 
" clip-path="url(#pb9bdc7fa4d)" style="fill: none; stroke: #1f77b4; stroke-width: 1.5"/>
    <path d="M 648 146.125241 
L 648 146.125241 
L 626.449125 145.889551 
L 604.897797 145.708052 
L 583.345978 145.585521 
L 561.79397 145.534866 
L 540.24229 145.574649 
L 518.691157 145.718508 
L 497.14142 145.985405 
L 475.595732 146.413051 
L 454.056365 147.03921 
L 432.524322 147.894495 
L 411.014859 149.070293 
L 389.547174 150.684879 
L 368.132316 152.844861 
L 346.898332 155.802327 
L 326.119203 159.998466 
L 306.15884 166.069153 
L 306.15884 166.069153 
L 291.827171 172.64557 
L 291.827171 172.64557 
" clip-path="url(#pb9bdc7fa4d)" style="fill: none; stroke: #1f77b4; stroke-width: 1.5"/>
    <path d="M 648 124.713931 
L 648 124.713931 
L 626.449104 124.479989 
L 604.897759 124.300295 
L 583.345928 124.17931 
L 561.793907 124.129402 
L 540.242194 124.168325 
L 518.690996 124.308743 
L 497.141087 124.568189 
L 475.59487 124.981864 
L 454.054364 125.584163 
L 432.520381 126.401408 
L 411.005404 127.515643 
L 389.524666 129.030295 
L 368.085984 131.030411 
L 346.766974 133.725232 
" clip-path="url(#pb9bdc7fa4d)" style="fill: none; stroke: #1f77b4; stroke-width: 1.5"/>
    <path d="M 648 103.302621 
L 648 103.302621 
L 626.449086 103.070189 
L 604.897727 102.892047 
L 583.345886 102.772383 
L 561.793855 102.723112 
L 540.242115 102.761311 
L 518.690867 102.898848 
L 497.14083 103.152101 
L 475.594236 103.554272 
L 454.052928 104.137133 
L 432.517593 104.923776 
L 410.999214 105.989235 
L 389.510949 107.426134 
L 368.058782 109.304844 
L 346.700839 111.803961 
" clip-path="url(#pb9bdc7fa4d)" style="fill: none; stroke: #1f77b4; stroke-width: 1.5"/>
    <path d="M 648 81.89131 
L 648 81.89131 
L 626.449071 81.660195 
L 604.897698 81.483402 
L 583.34585 81.364882 
L 561.793809 81.31616 
L 540.242047 81.353741 
L 518.690756 81.48883 
L 497.140612 81.736855 
L 475.593702 82.12939 
L 454.051727 82.696109 
L 432.515283 83.457606 
L 410.994148 84.483497 
L 389.499877 85.858308 
L 368.037311 87.641958 
L 346.653735 89.991265 
" clip-path="url(#pb9bdc7fa4d)" style="fill: none; stroke: #1f77b4; stroke-width: 1.5"/>
    <path d="M 648 61.011613 
L 645.767624 60.985615 
L 624.216638 60.761098 
L 602.665207 60.591297 
L 581.1133 60.48 
L 581.1133 60.48 
" clip-path="url(#pb9bdc7fa4d)" style="fill: none; stroke: #1f77b4; stroke-width: 1.5"/>
    <path d="M 558.817734 60.48 
L 558.817734 60.48 
L 537.266014 60.529861 
L 515.714753 60.676773 
L 494.164844 60.938271 
L 472.618286 61.345138 
L 451.076445 61.923293 
L 429.540909 62.697312 
L 408.020692 63.734262 
L 386.525283 65.109149 
L 365.058845 66.876024 
L 343.668574 69.196053 
L 322.428266 72.309599 
L 301.397103 76.458834 
L 281.016012 82.088852 
L 281.016012 82.088852 
L 265.35466 88.429588 
L 251.688608 96.798921 
L 241.888869 106.043318 
L 235.307874 115.976559 
L 231.420241 126.574708 
L 229.918622 137.511375 
L 230.430645 148.60731 
L 232.814204 160.35087 
L 237.253068 173.144946 
L 243.867094 186.823451 
L 251.972677 200.12732 
L 261.046718 212.642138 
L 270.506875 224.020783 
" clip-path="url(#pb9bdc7fa4d)" style="fill: none; stroke: #1f77b4; stroke-width: 1.5"/>
    <path d="M 313.566502 60.48 
L 313.566502 60.48 
L 292.578022 64.951634 
L 272.53528 71.112922 
L 272.53528 71.112922 
L 257.464675 78.01469 
L 244.328423 87.051673 
L 235.028612 96.917289 
L 228.899674 107.425681 
" clip-path="url(#pb9bdc7fa4d)" style="fill: none; stroke: #1f77b4; stroke-width: 1.5"/>
    <path d="M 202.08867 60.48 
L 202.08867 60.48 
L 202.848898 76.547816 
L 205.032671 92.792768 
L 208.381961 109.524663 
L 212.945206 127.356794 
" clip-path="url(#pb9bdc7fa4d)" style="fill: none; stroke: #1f77b4; stroke-width: 1.5"/>
    <path d="M 135.20197 60.48 
L 135.20197 60.48 
L 151.55525 73.176585 
L 164.966945 85.806486 
L 178.046378 99.626137 
L 189.844872 113.868515 
" clip-path="url(#pb9bdc7fa4d)" style="fill: none; stroke: #1f77b4; stroke-width: 1.5"/>
    <path d="M 90.610837 60.48 
L 90.610837 60.48 
L 109.577343 70.175862 
L 128.15225 80.423084 
L 145.636251 92.180222 
L 161.365649 104.791289 
L 176.250084 117.930472 
L 190.116773 131.67905 
L 202.881553 146.180309 
" clip-path="url(#pb9bdc7fa4d)" style="fill: none; stroke: #1f77b4; stroke-width: 1.5"/>
    <path d="M 46.019704 60.48 
L 46.019704 60.48 
L 53.641656 64.630611 
L 53.641656 64.630611 
L 62.134777 68.927862 
L 74.034169 74.704641 
L 86.043853 80.494892 
L 105.165222 89.953911 
L 124.023731 99.797786 
L 142.219673 110.669981 
L 159.401333 122.580534 
" clip-path="url(#pb9bdc7fa4d)" style="fill: none; stroke: #1f77b4; stroke-width: 1.5"/>
    <path d="M 34.061382 60.48 
L 34.036776 60.528576 
L 33.642895 61.149988 
L 32.998742 61.657067 
L 31.934635 61.975808 
L 30.163424 61.980961 
L 27.668655 61.54819 
L 23.724138 60.48 
L 23.724138 60.48 
L 23.724138 60.48 
" clip-path="url(#pb9bdc7fa4d)" style="fill: none; stroke: #1f77b4; stroke-width: 1.5"/>
    <path d="M 34.296171 71.289825 
L 34.275492 72.002758 
L 34.25488 72.710739 
L 34.234335 73.413782 
L 34.213859 74.111903 
L 34.19345 74.805117 
L 34.173112 75.493439 
L 34.152843 76.176887 
L 34.132644 76.855475 
L 34.112516 77.529221 
L 34.09246 78.198139 
L 34.072475 78.862246 
L 34.05256 79.521559 
L 34.032715 80.176093 
L 34.012937 80.825864 
L 33.99322 81.470887 
L 33.973557 82.111175 
L 33.953932 82.746739 
L 33.934321 83.377585 
L 33.914681 84.003713 
L 33.894942 84.625109 
L 33.874983 85.241738 
L 33.854605 85.853532 
L 33.833473 86.460363 
L 33.811025 87.062004 
L 33.786322 87.658063 
L 33.757792 88.247873 
L 33.722803 88.830305 
L 33.676949 89.403456 
L 33.612853 89.964126 
L 33.51816 90.506945 
L 33.372164 91.022899 
L 33.140133 91.496855 
L 32.763733 91.903384 
L 32.14475 92.199656 
L 31.117184 92.313263 
L 29.398654 92.121013 
L 26.895206 91.510468 
L 23.623965 90.479497 
L 19.549979 89.034119 
L 14.640032 87.175077 
L 9.011773 84.958551 
L 1.428571 81.89131 
L 1.428571 81.89131 
L 1.428571 81.89131 
" clip-path="url(#pb9bdc7fa4d)" style="fill: none; stroke: #1f77b4; stroke-width: 1.5"/>
    <path d="M 32.389999 114.013267 
L 32.033193 114.238607 
L 31.442378 114.358374 
L 30.456087 114.302081 
L 28.798443 113.949273 
L 26.361623 113.206547 
L 23.167735 112.075041 
L 19.18439 110.555187 
L 14.380819 108.643981 
L 8.88418 106.400148 
L 1.428571 103.302621 
L 1.428571 103.302621 
L 1.428571 103.302621 
" clip-path="url(#pb9bdc7fa4d)" style="fill: none; stroke: #1f77b4; stroke-width: 1.5"/>
    <path d="M 30.573611 167.435448 
L 30.583894 167.236471 
L 30.594028 167.04009 
L 30.604017 166.846268 
L 30.613863 166.654967 
L 30.623568 166.466152 
L 30.633135 166.279785 
L 30.642565 166.095832 
L 30.651862 165.914257 
L 30.661028 165.735028 
L 30.670064 165.558109 
L 30.678973 165.383467 
L 30.687757 165.211072 
L 30.696418 165.04089 
L 30.704958 164.87289 
L 30.713379 164.707041 
L 30.721683 164.543313 
L 30.729872 164.381677 
L 30.737947 164.222102 
L 30.745911 164.064559 
L 30.753765 163.909022 
L 30.761511 163.75546 
L 30.76915 163.603848 
L 30.776685 163.454157 
L 30.784117 163.306362 
L 30.791448 163.160436 
L 30.798678 163.016353 
L 30.80581 162.874088 
L 30.812846 162.733616 
L 30.819785 162.594913 
L 30.826631 162.457953 
L 30.833382 162.322713 
L 30.840041 162.18917 
L 30.846607 162.057299 
L 30.85308 161.927077 
L 30.859456 161.798479 
L 30.86573 161.671482 
L 30.871893 161.546057 
L 30.877926 161.422177 
L 30.883799 161.299804 
L 30.889458 161.178896 
L 30.894812 161.059391 
L 30.899707 160.941199 
L 30.903879 160.824187 
L 30.906882 160.708137 
L 30.90796 160.592699 
L 30.905831 160.47729 
L 30.898327 160.360941 
L 30.881775 160.24202 
L 30.849955 160.117781 
L 30.792332 159.983582 
L 30.691047 159.831569 
L 30.515803 159.648433 
L 30.215103 159.411562 
L 29.701166 159.082427 
L 28.823597 158.595029 
L 27.322532 157.835348 
L 25.057602 156.753578 
L 22.059255 155.366821 
L 18.300811 153.659086 
L 13.756772 151.616132 
L 8.576116 149.302456 
L 1.428571 146.125241 
L 1.428571 146.125241 
L 1.428571 146.125241 
" clip-path="url(#pb9bdc7fa4d)" style="fill: none; stroke: #1f77b4; stroke-width: 1.5"/>
    <path d="M 18.98691 294.161982 
L 19.575921 290.407532 
L 20.10707 286.877074 
L 20.589667 283.542648 
L 21.030964 280.381751 
L 21.436726 277.375933 
L 21.811606 274.509837 
L 22.15942 271.770509 
L 22.483331 269.146896 
L 22.785919 266.630072 
L 23.069247 264.213355 
L 23.33518 261.890096 
L 23.585446 259.653355 
L 23.821535 257.497007 
L 24.044739 255.415619 
L 24.256187 253.404339 
L 24.45687 251.458812 
L 24.647662 249.575114 
L 24.82934 247.74969 
L 25.002593 245.979308 
L 25.16804 244.261021 
L 25.326237 242.59213 
L 25.477684 240.970155 
L 25.622832 239.392813 
L 25.762092 237.857996 
L 25.895836 236.363751 
L 26.024405 234.908265 
L 26.148109 233.489853 
L 26.267235 232.106943 
L 26.382042 230.758067 
L 26.492773 229.441851 
L 26.599648 228.157007 
L 26.702875 226.902326 
L 26.802641 225.67667 
L 26.899121 224.478967 
L 26.992479 223.308205 
L 27.082861 222.163428 
L 27.170404 221.043729 
L 27.255226 219.948247 
L 27.33743 218.876163 
L 27.417095 217.826689 
L 27.494262 216.799064 
L 27.56892 215.792543 
L 27.640968 214.806375 
L 27.71016 213.839779 
L 27.775995 212.891891 
L 27.837551 211.961689 
L 27.893176 211.047856 
L 27.939967 210.148539 
L 27.972877 209.260961 
L 27.98317 208.380722 
L 27.955761 207.500625 
L 27.864622 206.608625 
L 27.664802 205.684291 
L 27.278469 204.692609 
L 26.570154 203.572989 
L 25.301847 202.21936 
L 23.293517 200.63446 
L 20.576389 198.875991 
L 17.13043 196.897658 
L 12.93615 194.664435 
L 8.168222 192.247075 
L 1.428571 188.947862 
L 1.428571 188.947862 
L 1.428571 188.947862 
" clip-path="url(#pb9bdc7fa4d)" style="fill: none; stroke: #1f77b4; stroke-width: 1.5"/>
    <path d="M 1.428571 360.699371 
L 2.745717 356.598313 
L 5.948626 346.345149 
L 7.484993 338.232961 
L 7.633795 331.76806 
L 6.624534 326.58417 
L 4.837719 322.448229 
L 1.428571 317.415724 
L 1.428571 317.415724 
L 1.428571 317.415724 
" clip-path="url(#pb9bdc7fa4d)" style="fill: none; stroke: #1f77b4; stroke-width: 1.5"/>
    <path d="M 1.428571 381.649655 
L 1.428571 381.649655 
L 1.428571 381.649655 
L 11.923788 376.380668 
L 23.46693 373.829548 
L 36.708451 373.505465 
L 52.510825 375.119856 
L 71.978158 378.71849 
L 92.965959 382.990086 
L 114.109947 386.610977 
L 135.402537 389.35163 
L 156.823433 391.269633 
L 178.301522 392.75333 
L 199.797872 394.020337 
L 221.311319 395.070563 
L 242.835193 395.971879 
L 264.364099 396.780893 
L 285.898152 397.489907 
L 307.435965 398.118776 
L 328.975885 398.69333 
L 350.517767 399.2123 
L 372.061267 399.678593 
L 393.605602 400.10452 
L 415.15041 400.49326 
L 436.673663 400.839927 
L 458.054862 401.149004 
L 479.178021 401.423142 
L 499.991514 401.652808 
L 520.31242 401.8339 
L 539.838242 401.961552 
L 558.141854 402.013429 
" clip-path="url(#pb9bdc7fa4d)" style="fill: none; stroke: #1f77b4; stroke-width: 1.5"/>
    <path clip-path="url(#pb9bdc7fa4d)" style="fill: none; stroke: #1f77b4; stroke-width: 1.5"/>
    <path clip-path="url(#pb9bdc7fa4d)" style="fill: none; stroke: #1f77b4; stroke-width: 1.5"/>
    <path clip-path="url(#pb9bdc7fa4d)" style="fill: none; stroke: #1f77b4; stroke-width: 1.5"/>
    <path clip-path="url(#pb9bdc7fa4d)" style="fill: none; stroke: #1f77b4; stroke-width: 1.5"/>
    <path clip-path="url(#pb9bdc7fa4d)" style="fill: none; stroke: #1f77b4; stroke-width: 1.5"/>
    <path clip-path="url(#pb9bdc7fa4d)" style="fill: none; stroke: #1f77b4; stroke-width: 1.5"/>
    <path d="M 648 382.061243 
L 645.14707 382.008686 
L 625.704433 381.649655 
L 609.40911 381.347491 
L 597.109581 381.118727 
" clip-path="url(#pb9bdc7fa4d)" style="fill: none; stroke: #1f77b4; stroke-width: 1.5"/>
    <path d="M 35.225288 73.785413 
L 35.865884 74.772274 
L 36.94596 75.945862 
L 38.753123 77.431609 
L 41.341435 79.16282 
L 46.019704 81.89131 
L 54.012472 86.059868 
L 54.012472 86.059868 
" clip-path="url(#pb9bdc7fa4d)" style="fill: none; stroke: #1f77b4; stroke-width: 1.5"/>
    <path d="M 13.400378 329.520195 
L 16.239622 323.774976 
L 19.422648 319.981498 
L 23.724138 317.415724 
L 23.724138 317.415724 
L 32.132933 316.178872 
L 42.852483 317.264163 
L 55.428207 320.010103 
L 70.431867 324.225585 
L 88.267164 329.532399 
L 108.960242 335.205498 
L 129.858964 340.059287 
L 151.010585 343.815367 
L 172.316943 346.818759 
L 193.667487 349.485723 
L 215.067226 351.771145 
L 236.501718 353.76545 
L 257.952325 355.588461 
L 279.418407 357.236401 
L 300.897741 358.725784 
L 322.384671 360.106487 
L 343.876767 361.396116 
L 365.373553 362.589506 
L 386.87011 363.716423 
L 408.361463 364.801545 
L 429.845371 365.835579 
L 449.821491 366.773598 
L 466.387847 367.56078 
L 479.908668 368.218867 
L 491.609742 368.807836 
L 501.404611 369.324182 
" clip-path="url(#pb9bdc7fa4d)" style="fill: none; stroke: #1f77b4; stroke-width: 1.5"/>
    <path d="M 15.507392 362.35667 
L 23.724138 360.238345 
L 23.724138 360.238345 
L 23.724138 360.238345 
L 36.256 359.804471 
L 50.370317 361.385702 
L 67.790252 364.841185 
L 88.490735 369.551889 
" clip-path="url(#pb9bdc7fa4d)" style="fill: none; stroke: #1f77b4; stroke-width: 1.5"/>
    <path d="M 1.428571 425.77349 
L 2.51343 425.678258 
L 23.724138 424.472276 
L 44.959114 424.623388 
L 66.21784 425.861255 
" clip-path="url(#pb9bdc7fa4d)" style="fill: none; stroke: #1f77b4; stroke-width: 1.5"/>
    <path d="M 313.566502 103.302621 
L 292.838311 108.575407 
L 292.838311 108.575407 
L 276.878473 114.454343 
L 276.878473 114.454343 
L 264.900716 120.981421 
L 255.138502 129.061964 
L 248.571507 137.722491 
L 244.729506 146.506388 
L 242.958592 155.846327 
" clip-path="url(#pb9bdc7fa4d)" style="fill: none; stroke: #1f77b4; stroke-width: 1.5"/>
    <path d="M 47.920429 93.348694 
L 53.328027 96.087854 
L 59.893637 99.293911 
L 68.315271 103.302621 
L 68.315271 103.302621 
L 86.596722 111.918522 
L 105.863547 121.140257 
L 124.960895 130.646512 
L 143.615841 140.904705 
L 161.622824 151.836192 
L 178.978775 163.067005 
L 195.720339 174.680491 
L 211.926122 186.99398 
L 227.512032 199.62464 
" clip-path="url(#pb9bdc7fa4d)" style="fill: none; stroke: #1f77b4; stroke-width: 1.5"/>
    <path d="M 36.122679 119.477732 
L 38.36182 120.80208 
L 41.403204 122.41556 
L 46.019704 124.713931 
L 46.019704 124.713931 
L 54.881568 128.921475 
L 54.881568 128.921475 
L 64.196193 133.223321 
L 76.477092 138.819703 
L 89.807224 144.895295 
L 109.2208 153.844632 
L 128.531447 162.961171 
L 147.596561 172.466514 
L 166.358341 182.293529 
L 184.910822 192.299418 
L 203.331471 202.630016 
L 221.308062 213.184489 
L 238.224019 223.369282 
L 253.998727 232.91338 
" clip-path="url(#pb9bdc7fa4d)" style="fill: none; stroke: #1f77b4; stroke-width: 1.5"/>
    <path d="M 35.573221 141.219654 
L 37.970517 142.395331 
L 41.19336 143.910161 
L 46.019704 146.125241 
L 46.019704 146.125241 
L 46.019704 146.125241 
L 53.611108 149.552646 
" clip-path="url(#pb9bdc7fa4d)" style="fill: none; stroke: #1f77b4; stroke-width: 1.5"/>
    <path d="M 34.9535 162.983512 
L 37.523532 163.997136 
L 40.9554 165.407928 
L 46.019704 167.536552 
L 46.019704 167.536552 
L 46.019704 167.536552 
L 53.904353 170.899982 
L 65.199463 175.761801 
L 78.066498 181.32537 
L 93.146936 187.842319 
L 112.81166 196.304173 
L 132.502833 204.702325 
L 152.223083 212.976062 
L 171.93675 221.130891 
L 191.614188 229.195983 
L 211.259134 237.147328 
L 230.633058 244.900269 
L 249.562953 252.42761 
L 268.355022 259.868426 
L 287.730638 267.508524 
L 306.579446 274.953789 
L 323.534285 281.698207 
L 338.892842 287.857946 
" clip-path="url(#pb9bdc7fa4d)" style="fill: none; stroke: #1f77b4; stroke-width: 1.5"/>
    <path d="M 36.394284 207.232175 
L 40.362174 208.413696 
L 46.019704 210.359172 
L 46.019704 210.359172 
L 46.019704 210.359172 
L 54.671115 213.606816 
L 66.519632 218.289848 
L 79.829742 223.672069 
L 97.691335 230.840161 
L 117.647202 238.61285 
L 137.754674 245.976286 
L 158.055911 252.796678 
L 178.492275 259.228157 
L 199.039568 265.372531 
L 219.710312 271.15742 
L 240.435193 276.671156 
L 261.151623 282.02023 
L 281.853658 287.183817 
L 302.109548 292.117514 
L 321.328422 296.792876 
" clip-path="url(#pb9bdc7fa4d)" style="fill: none; stroke: #1f77b4; stroke-width: 1.5"/>
    <path d="M 35.659543 228.871106 
L 39.982119 229.922602 
L 46.019704 231.770483 
L 46.019704 231.770483 
L 46.019704 231.770483 
L 55.189442 234.971657 
L 67.421859 239.577126 
L 81.105832 244.888092 
L 101.123169 252.531873 
L 121.265985 259.845525 
L 141.647631 266.514397 
L 162.264189 272.500606 
L 182.994208 278.077791 
" clip-path="url(#pb9bdc7fa4d)" style="fill: none; stroke: #1f77b4; stroke-width: 1.5"/>
    <path d="M 39.516969 251.435894 
L 46.019704 253.181793 
L 46.019704 253.181793 
L 46.019704 253.181793 
L 55.855507 256.352699 
L 68.589861 260.898882 
L 82.830453 266.167732 
L 103.00125 273.43028 
L 123.324065 280.238085 
L 143.920408 286.179447 
L 164.748382 291.338441 
L 185.66629 296.111266 
L 206.671183 300.470221 
L 227.753972 304.421603 
L 248.87748 308.096626 
L 270.021906 311.562571 
L 291.162956 314.795604 
L 312.071227 317.847537 
L 332.566605 320.780947 
L 352.684957 323.603548 
L 372.132974 326.325004 
L 390.616049 328.992506 
L 408.427844 331.716095 
L 426.513244 334.73349 
L 426.513244 334.73349 
" clip-path="url(#pb9bdc7fa4d)" style="fill: none; stroke: #1f77b4; stroke-width: 1.5"/>
    <path d="M 38.923358 272.95363 
L 46.019704 274.593103 
L 46.019704 274.593103 
L 46.019704 274.593103 
L 56.746396 277.760663 
L 70.170467 282.282467 
L 85.262734 287.558295 
L 105.589365 294.354374 
" clip-path="url(#pb9bdc7fa4d)" style="fill: none; stroke: #1f77b4; stroke-width: 1.5"/>
    <path d="M 38.149142 294.480269 
L 46.019704 296.004414 
L 46.019704 296.004414 
L 46.019704 296.004414 
L 57.961252 299.203499 
L 72.350615 303.751928 
L 88.793779 309.11574 
L 109.307144 315.336289 
L 130.030055 320.809011 
L 151.03649 325.212452 
" clip-path="url(#pb9bdc7fa4d)" style="fill: none; stroke: #1f77b4; stroke-width: 1.5"/>
    <path clip-path="url(#pb9bdc7fa4d)" style="fill: none; stroke: #1f77b4; stroke-width: 1.5"/>
    <path clip-path="url(#pb9bdc7fa4d)" style="fill: none; stroke: #1f77b4; stroke-width: 1.5"/>
    <path d="M 567.008974 381.74085 
L 564.370326 381.695776 
L 562.463045 381.667965 
L 561.079476 381.652453 
L 560.074582 381.645762 
L 559.345349 381.645422 
L 558.817734 381.649655 
L 558.44065 381.657237 
L 558.171 381.667132 
L 557.980638 381.678668 
L 557.848825 381.691348 
L 557.760249 381.704807 
L 557.703583 381.718776 
L 557.670443 381.733058 
L 557.654615 381.747506 
L 557.651492 381.762014 
L 557.657658 381.776504 
L 557.67058 381.790918 
L 557.688379 381.805214 
L 557.709664 381.819364 
L 557.733403 381.833346 
L 557.75883 381.847146 
L 557.785383 381.860753 
L 557.812642 381.874161 
L 557.8403 381.887367 
L 557.868131 381.900367 
L 557.895968 381.913163 
L 557.92369 381.925754 
L 557.95121 381.938141 
L 557.978462 381.950326 
L 558.005404 381.962312 
L 558.032001 381.9741 
L 558.058234 381.985694 
L 558.084088 381.997096 
L 558.109554 382.008309 
L 558.134628 382.019336 
L 558.159307 382.030179 
L 558.183592 382.040842 
L 558.207485 382.051327 
L 558.230989 382.061638 
L 558.254108 382.071777 
L 558.276847 382.081747 
L 558.29921 382.091551 
L 558.321203 382.101191 
L 558.342831 382.11067 
L 558.3641 382.119991 
L 558.385015 382.129156 
L 558.405582 382.138169 
L 558.425805 382.147031 
L 558.445692 382.155745 
L 558.465247 382.164313 
L 558.484476 382.172739 
L 558.503383 382.181024 
L 558.521976 382.18917 
L 558.540257 382.19718 
L 558.558233 382.205057 
L 558.575909 382.212802 
L 558.59329 382.220417 
L 558.61038 382.227905 
L 558.627185 382.235269 
L 558.643709 382.242509 
L 558.659956 382.249628 
L 558.675932 382.256628 
L 558.691641 382.263511 
L 558.707088 382.270278 
L 558.722276 382.276933 
" clip-path="url(#pb9bdc7fa4d)" style="fill: none; stroke: #1f77b4; stroke-width: 1.5"/>
    <path d="M 311.318251 139.423219 
L 291.270936 146.125241 
L 291.270936 146.125241 
L 280.292714 151.539775 
L 271.260666 158.272987 
L 265.45041 165.094167 
L 261.737871 172.596905 
L 260.020487 180.855686 
L 260.334312 190.022559 
" clip-path="url(#pb9bdc7fa4d)" style="fill: none; stroke: #1f77b4; stroke-width: 1.5"/>
    <path clip-path="url(#pb9bdc7fa4d)" style="fill: none; stroke: #1f77b4; stroke-width: 1.5"/>
    <path d="M 271.638709 372.051333 
L 293.14049 373.213061 
L 314.649429 374.267451 
L 336.16227 375.246195 
L 357.6794 376.138758 
L 379.198442 376.961107 
L 400.716137 377.73571 
L 422.23141 378.458054 
L 443.288107 379.115508 
L 462.925077 379.698701 
L 480.65163 380.204331 
L 496.358706 380.629595 
L 509.826514 380.975352 
L 520.844285 381.252662 
L 529.619862 381.47427 
L 536.522167 381.649655 
L 541.864972 381.786764 
L 545.982291 381.893888 
" clip-path="url(#pb9bdc7fa4d)" style="fill: none; stroke: #1f77b4; stroke-width: 1.5"/>
    <path d="M 112.906404 360.238345 
L 134.007942 364.039544 
L 155.303657 366.846715 
L 176.699369 369.0666 
L 198.127791 370.996512 
L 219.589626 372.619677 
L 241.072776 374.026611 
" clip-path="url(#pb9bdc7fa4d)" style="fill: none; stroke: #1f77b4; stroke-width: 1.5"/>
    <path d="M 335.862069 210.359172 
L 335.862069 210.359172 
L 324.759142 215.088071 
L 316.050197 220.94835 
L 311.097164 226.670396 
L 308.697605 232.455912 
L 308.377505 238.532261 
" clip-path="url(#pb9bdc7fa4d)" style="fill: none; stroke: #1f77b4; stroke-width: 1.5"/>
    <path d="M 224.384236 338.827034 
L 245.79249 341.168187 
L 267.218658 343.325312 
L 288.664863 345.274642 
L 310.124355 347.071701 
L 331.589456 348.7788 
" clip-path="url(#pb9bdc7fa4d)" style="fill: none; stroke: #1f77b4; stroke-width: 1.5"/>
   </g>
   <g id="patch_3">
    <path d="M 310.512825 517.211607 
Q 313.898578 517.142434 315.607629 517.107516 
" clip-path="url(#pb9bdc7fa4d)" style="fill: none; stroke: #1f77b4; stroke-width: 1.5; stroke-linecap: round"/>
    <path d="M 311.567611 515.18964 
L 315.607629 517.107516 
L 311.649317 519.188805 
z
" clip-path="url(#pb9bdc7fa4d)" style="fill: #1f77b4; stroke: #1f77b4; stroke-width: 1.5; stroke-linecap: round"/>
   </g>
   <g id="patch_4">
    <path d="M 363.123045 638.846381 
Q 366.508423 638.75806 368.21732 638.713477 
" clip-path="url(#pb9bdc7fa4d)" style="fill: none; stroke: #1f77b4; stroke-width: 1.5; stroke-linecap: round"/>
    <path d="M 364.166521 636.818477 
L 368.21732 638.713477 
L 364.27084 640.817117 
z
" clip-path="url(#pb9bdc7fa4d)" style="fill: #1f77b4; stroke: #1f77b4; stroke-width: 1.5; stroke-linecap: round"/>
   </g>
   <g id="patch_5">
    <path d="M 374.296681 658.46893 
Q 377.682105 658.383283 379.391015 658.340051 
" clip-path="url(#pb9bdc7fa4d)" style="fill: none; stroke: #1f77b4; stroke-width: 1.5; stroke-linecap: round"/>
    <path d="M 375.341713 656.441852 
L 379.391015 658.340051 
L 375.442875 660.440573 
z
" clip-path="url(#pb9bdc7fa4d)" style="fill: #1f77b4; stroke: #1f77b4; stroke-width: 1.5; stroke-linecap: round"/>
   </g>
   <g id="patch_6">
    <path d="M 289.95619 674.457153 
Q 293.338368 674.292168 295.045486 674.208894 
" clip-path="url(#pb9bdc7fa4d)" style="fill: none; stroke: #1f77b4; stroke-width: 1.5; stroke-linecap: round"/>
    <path d="M 290.952791 672.40616 
L 295.045486 674.208894 
L 291.147682 676.40141 
z
" clip-path="url(#pb9bdc7fa4d)" style="fill: #1f77b4; stroke: #1f77b4; stroke-width: 1.5; stroke-linecap: round"/>
   </g>
   <g id="patch_7">
    <path d="M 512.499221 679.929871 
Q 515.885832 679.914504 517.595409 679.906746 
" clip-path="url(#pb9bdc7fa4d)" style="fill: none; stroke: #1f77b4; stroke-width: 1.5; stroke-linecap: round"/>
    <path d="M 513.586375 677.924917 
L 517.595409 679.906746 
L 513.604525 681.924876 
z
" clip-path="url(#pb9bdc7fa4d)" style="fill: #1f77b4; stroke: #1f77b4; stroke-width: 1.5; stroke-linecap: round"/>
   </g>
   <g id="patch_8">
    <path d="M 434.485762 617.644125 
Q 437.872081 617.598414 439.581502 617.575339 
" clip-path="url(#pb9bdc7fa4d)" style="fill: none; stroke: #1f77b4; stroke-width: 1.5; stroke-linecap: round"/>
    <path d="M 435.554871 615.629511 
L 439.581502 617.575339 
L 435.608861 619.629147 
z
" clip-path="url(#pb9bdc7fa4d)" style="fill: #1f77b4; stroke: #1f77b4; stroke-width: 1.5; stroke-linecap: round"/>
   </g>
   <g id="patch_9">
    <path d="M 348.297016 597.950271 
Q 351.682378 597.862464 353.391254 597.81814 
" clip-path="url(#pb9bdc7fa4d)" style="fill: none; stroke: #1f77b4; stroke-width: 1.5; stroke-linecap: round"/>
    <path d="M 349.340741 595.922527 
L 353.391254 597.81814 
L 349.444456 599.921182 
z
" clip-path="url(#pb9bdc7fa4d)" style="fill: #1f77b4; stroke: #1f77b4; stroke-width: 1.5; stroke-linecap: round"/>
   </g>
   <g id="patch_10">
    <path d="M 369.838633 575.851532 
Q 373.224494 575.782623 374.933652 575.747839 
" clip-path="url(#pb9bdc7fa4d)" style="fill: none; stroke: #1f77b4; stroke-width: 1.5; stroke-linecap: round"/>
    <path d="M 370.893784 573.829644 
L 374.933652 575.747839 
L 370.975175 577.828815 
z
" clip-path="url(#pb9bdc7fa4d)" style="fill: #1f77b4; stroke: #1f77b4; stroke-width: 1.5; stroke-linecap: round"/>
   </g>
   <g id="patch_11">
    <path d="M 369.835505 554.280741 
Q 373.221529 554.218882 374.930781 554.187656 
" clip-path="url(#pb9bdc7fa4d)" style="fill: none; stroke: #1f77b4; stroke-width: 1.5; stroke-linecap: round"/>
    <path d="M 370.894916 552.261053 
L 374.930781 554.187656 
L 370.96798 556.260386 
z
" clip-path="url(#pb9bdc7fa4d)" style="fill: #1f77b4; stroke: #1f77b4; stroke-width: 1.5; stroke-linecap: round"/>
   </g>
   <g id="patch_12">
    <path d="M 412.931852 532.053745 
Q 416.31826 532.015175 418.027726 531.995705 
" clip-path="url(#pb9bdc7fa4d)" style="fill: none; stroke: #1f77b4; stroke-width: 1.5; stroke-linecap: round"/>
    <path d="M 414.005207 530.04139 
L 418.027726 531.995705 
L 414.050764 534.041131 
z
" clip-path="url(#pb9bdc7fa4d)" style="fill: #1f77b4; stroke: #1f77b4; stroke-width: 1.5; stroke-linecap: round"/>
   </g>
   <g id="patch_13">
    <path d="M 305.176361 490.148992 
Q 308.562539 490.101115 310.271833 490.076947 
" clip-path="url(#pb9bdc7fa4d)" style="fill: none; stroke: #1f77b4; stroke-width: 1.5; stroke-linecap: round"/>
    <path d="M 306.243958 488.133697 
L 310.271833 490.076947 
L 306.300508 492.133298 
z
" clip-path="url(#pb9bdc7fa4d)" style="fill: #1f77b4; stroke: #1f77b4; stroke-width: 1.5; stroke-linecap: round"/>
   </g>
   <g id="patch_14">
    <path d="M 307.543793 468.006064 
Q 310.93025 467.981792 312.639698 467.96954 
" clip-path="url(#pb9bdc7fa4d)" style="fill: none; stroke: #1f77b4; stroke-width: 1.5; stroke-linecap: round"/>
    <path d="M 308.625467 465.99826 
L 312.639698 467.96954 
L 308.654135 469.998157 
z
" clip-path="url(#pb9bdc7fa4d)" style="fill: #1f77b4; stroke: #1f77b4; stroke-width: 1.5; stroke-linecap: round"/>
   </g>
   <g id="patch_15">
    <path d="M 320.672035 445.793928 
Q 324.05834 445.797513 325.767594 445.799323 
" clip-path="url(#pb9bdc7fa4d)" style="fill: none; stroke: #1f77b4; stroke-width: 1.5; stroke-linecap: round"/>
    <path d="M 321.769714 443.795089 
L 325.767594 445.799323 
L 321.765479 447.795086 
z
" clip-path="url(#pb9bdc7fa4d)" style="fill: #1f77b4; stroke: #1f77b4; stroke-width: 1.5; stroke-linecap: round"/>
   </g>
   <g id="patch_16">
    <path d="M 322.050546 424.334741 
Q 325.436642 424.369815 327.145777 424.387519 
" clip-path="url(#pb9bdc7fa4d)" style="fill: none; stroke: #1f77b4; stroke-width: 1.5; stroke-linecap: round"/>
    <path d="M 323.166707 422.346195 
L 327.145777 424.387519 
L 323.125277 426.345981 
z
" clip-path="url(#pb9bdc7fa4d)" style="fill: #1f77b4; stroke: #1f77b4; stroke-width: 1.5; stroke-linecap: round"/>
   </g>
   <g id="patch_17">
    <path d="M 610.306889 401.500783 
Q 610.304942 401.500625 611.974528 401.636393 
" clip-path="url(#pb9bdc7fa4d)" style="fill: none; stroke: #1f77b4; stroke-width: 1.5; stroke-linecap: round"/>
    <path d="M 615.799267 403.954015 
L 611.974528 401.636393 
L 616.12347 399.967175 
z
" clip-path="url(#pb9bdc7fa4d)" style="fill: #1f77b4; stroke: #1f77b4; stroke-width: 1.5; stroke-linecap: round"/>
   </g>
   <g id="patch_18">
    <path d="M 587.008967 359.429724 
Q 584.884286 359.412487 584.436601 359.408855 
" clip-path="url(#pb9bdc7fa4d)" style="fill: none; stroke: #1f77b4; stroke-width: 1.5; stroke-linecap: round"/>
    <path d="M 588.420245 361.441238 
L 584.436601 359.408855 
L 588.452694 357.44137 
z
" clip-path="url(#pb9bdc7fa4d)" style="fill: #1f77b4; stroke: #1f77b4; stroke-width: 1.5; stroke-linecap: round"/>
   </g>
   <g id="patch_19">
    <path d="M 581.70338 338.093331 
Q 578.403321 338.079955 576.7803 338.073376 
" clip-path="url(#pb9bdc7fa4d)" style="fill: none; stroke: #1f77b4; stroke-width: 1.5; stroke-linecap: round"/>
    <path d="M 580.77216 340.089573 
L 576.7803 338.073376 
L 580.788373 336.089605 
z
" clip-path="url(#pb9bdc7fa4d)" style="fill: #1f77b4; stroke: #1f77b4; stroke-width: 1.5; stroke-linecap: round"/>
   </g>
   <g id="patch_20">
    <path d="M 559.794259 316.683145 
Q 556.408093 316.694177 554.69897 316.699746 
" clip-path="url(#pb9bdc7fa4d)" style="fill: none; stroke: #1f77b4; stroke-width: 1.5; stroke-linecap: round"/>
    <path d="M 558.705465 318.686703 
L 554.69897 316.699746 
L 558.692432 314.686724 
z
" clip-path="url(#pb9bdc7fa4d)" style="fill: #1f77b4; stroke: #1f77b4; stroke-width: 1.5; stroke-linecap: round"/>
   </g>
   <g id="patch_21">
    <path d="M 538.243283 295.389498 
Q 534.857258 295.425069 533.148192 295.443023 
" clip-path="url(#pb9bdc7fa4d)" style="fill: none; stroke: #1f77b4; stroke-width: 1.5; stroke-linecap: round"/>
    <path d="M 537.168981 297.400894 
L 533.148192 295.443023 
L 537.126963 293.401115 
z
" clip-path="url(#pb9bdc7fa4d)" style="fill: #1f77b4; stroke: #1f77b4; stroke-width: 1.5; stroke-linecap: round"/>
   </g>
   <g id="patch_22">
    <path d="M 516.696805 274.214998 
Q 513.318237 274.276657 511.61644 274.307715 
" clip-path="url(#pb9bdc7fa4d)" style="fill: none; stroke: #1f77b4; stroke-width: 1.5; stroke-linecap: round"/>
    <path d="M 515.652268 276.234394 
L 511.61644 274.307715 
L 515.57928 272.235059 
z
" clip-path="url(#pb9bdc7fa4d)" style="fill: #1f77b4; stroke: #1f77b4; stroke-width: 1.5; stroke-linecap: round"/>
   </g>
   <g id="patch_23">
    <path d="M 516.691346 252.79941 
Q 513.305489 252.85448 511.596462 252.882277 
" clip-path="url(#pb9bdc7fa4d)" style="fill: none; stroke: #1f77b4; stroke-width: 1.5; stroke-linecap: round"/>
    <path d="M 515.628458 254.816962 
L 511.596462 252.882277 
L 515.563408 250.817491 
z
" clip-path="url(#pb9bdc7fa4d)" style="fill: #1f77b4; stroke: #1f77b4; stroke-width: 1.5; stroke-linecap: round"/>
   </g>
   <g id="patch_24">
    <path d="M 538.241025 231.203855 
Q 534.854633 231.230339 533.145241 231.243707 
" clip-path="url(#pb9bdc7fa4d)" style="fill: none; stroke: #1f77b4; stroke-width: 1.5; stroke-linecap: round"/>
    <path d="M 537.160759 233.212364 
L 533.145241 231.243707 
L 537.129477 229.212487 
z
" clip-path="url(#pb9bdc7fa4d)" style="fill: #1f77b4; stroke: #1f77b4; stroke-width: 1.5; stroke-linecap: round"/>
   </g>
   <g id="patch_25">
    <path d="M 473.600177 210.815011 
Q 470.216619 210.932443 468.509103 210.991705 
" clip-path="url(#pb9bdc7fa4d)" style="fill: none; stroke: #1f77b4; stroke-width: 1.5; stroke-linecap: round"/>
    <path d="M 472.576067 212.851758 
L 468.509103 210.991705 
L 472.437325 208.854165 
z
" clip-path="url(#pb9bdc7fa4d)" style="fill: #1f77b4; stroke: #1f77b4; stroke-width: 1.5; stroke-linecap: round"/>
   </g>
   <g id="patch_26">
    <path d="M 516.689766 188.564377 
Q 513.303587 188.609555 511.59431 188.63236 
" clip-path="url(#pb9bdc7fa4d)" style="fill: none; stroke: #1f77b4; stroke-width: 1.5; stroke-linecap: round"/>
    <path d="M 515.620636 190.57882 
L 511.59431 188.63236 
L 515.567273 186.579176 
z
" clip-path="url(#pb9bdc7fa4d)" style="fill: #1f77b4; stroke: #1f77b4; stroke-width: 1.5; stroke-linecap: round"/>
   </g>
   <g id="patch_27">
    <path d="M 473.596049 167.910108 
Q 470.211655 168.013214 468.503533 168.065252 
" clip-path="url(#pb9bdc7fa4d)" style="fill: none; stroke: #1f77b4; stroke-width: 1.5; stroke-linecap: round"/>
    <path d="M 472.56258 169.942521 
L 468.503533 168.065252 
L 472.440776 165.944376 
z
" clip-path="url(#pb9bdc7fa4d)" style="fill: #1f77b4; stroke: #1f77b4; stroke-width: 1.5; stroke-linecap: round"/>
   </g>
   <g id="patch_28">
    <path d="M 473.594821 146.471219 
Q 470.210195 146.569611 468.501911 146.619272 
" clip-path="url(#pb9bdc7fa4d)" style="fill: none; stroke: #1f77b4; stroke-width: 1.5; stroke-linecap: round"/>
    <path d="M 472.558338 148.502195 
L 468.501911 146.619272 
L 472.442106 144.503884 
z
" clip-path="url(#pb9bdc7fa4d)" style="fill: #1f77b4; stroke: #1f77b4; stroke-width: 1.5; stroke-linecap: round"/>
   </g>
   <g id="patch_29">
    <path d="M 516.689106 124.332845 
Q 513.302823 124.373613 511.59347 124.394192 
" clip-path="url(#pb9bdc7fa4d)" style="fill: none; stroke: #1f77b4; stroke-width: 1.5; stroke-linecap: round"/>
    <path d="M 515.617256 126.345894 
L 511.59347 124.394192 
L 515.569103 122.346184 
z
" clip-path="url(#pb9bdc7fa4d)" style="fill: #1f77b4; stroke: #1f77b4; stroke-width: 1.5; stroke-linecap: round"/>
   </g>
   <g id="patch_30">
    <path d="M 516.688965 102.922374 
Q 513.302662 102.962169 511.593294 102.982258 
" clip-path="url(#pb9bdc7fa4d)" style="fill: none; stroke: #1f77b4; stroke-width: 1.5; stroke-linecap: round"/>
    <path d="M 515.61652 104.935115 
L 511.593294 102.982258 
L 515.569516 100.935392 
z
" clip-path="url(#pb9bdc7fa4d)" style="fill: #1f77b4; stroke: #1f77b4; stroke-width: 1.5; stroke-linecap: round"/>
   </g>
   <g id="patch_31">
    <path d="M 516.688845 81.51187 
Q 513.302525 81.550844 511.593145 81.570518 
" clip-path="url(#pb9bdc7fa4d)" style="fill: none; stroke: #1f77b4; stroke-width: 1.5; stroke-linecap: round"/>
    <path d="M 515.615897 83.524352 
L 511.593145 81.570518 
L 515.569863 79.524617 
z
" clip-path="url(#pb9bdc7fa4d)" style="fill: #1f77b4; stroke: #1f77b4; stroke-width: 1.5; stroke-linecap: round"/>
   </g>
   <g id="patch_32">
    <path d="M 622.214607 60.745324 
Q 618.828084 60.718642 617.118561 60.705173 
" clip-path="url(#pb9bdc7fa4d)" style="fill: none; stroke: #1f77b4; stroke-width: 1.5; stroke-linecap: round"/>
    <path d="M 621.10268 62.736625 
L 617.118561 60.705173 
L 621.134194 58.73675 
z
" clip-path="url(#pb9bdc7fa4d)" style="fill: #1f77b4; stroke: #1f77b4; stroke-width: 1.5; stroke-linecap: round"/>
   </g>
   <g id="patch_33">
    <path d="M 363.071785 67.091544 
Q 359.710587 67.456106 358.016661 67.639833 
" clip-path="url(#pb9bdc7fa4d)" style="fill: none; stroke: #1f77b4; stroke-width: 1.5; stroke-linecap: round"/>
    <path d="M 362.208998 69.196854 
L 358.016661 67.639833 
L 361.77768 65.220176 
z
" clip-path="url(#pb9bdc7fa4d)" style="fill: #1f77b4; stroke: #1f77b4; stroke-width: 1.5; stroke-linecap: round"/>
   </g>
   <g id="patch_34">
    <path d="M 270.714003 71.946998 
Q 268.765152 72.839498 268.341063 73.033715 
" clip-path="url(#pb9bdc7fa4d)" style="fill: none; stroke: #1f77b4; stroke-width: 1.5; stroke-linecap: round"/>
    <path d="M 272.810585 73.186597 
L 268.341063 73.033715 
L 271.145082 69.549827 
z
" clip-path="url(#pb9bdc7fa4d)" style="fill: #1f77b4; stroke: #1f77b4; stroke-width: 1.5; stroke-linecap: round"/>
   </g>
   <g id="patch_35">
    <path d="M 205.425983 94.757622 
Q 205.870508 96.978314 205.985861 97.554577 
" clip-path="url(#pb9bdc7fa4d)" style="fill: none; stroke: #1f77b4; stroke-width: 1.5; stroke-linecap: round"/>
    <path d="M 207.161836 93.239825 
L 205.985861 97.554577 
L 203.239644 94.024946 
z
" clip-path="url(#pb9bdc7fa4d)" style="fill: #1f77b4; stroke: #1f77b4; stroke-width: 1.5; stroke-linecap: round"/>
   </g>
   <g id="patch_36">
    <path d="M 153.012331 74.54873 
Q 154.907577 76.333498 155.581918 76.96853 
" clip-path="url(#pb9bdc7fa4d)" style="fill: none; stroke: #1f77b4; stroke-width: 1.5; stroke-linecap: round"/>
    <path d="M 154.04103 72.770237 
L 155.581918 76.96853 
L 151.29875 75.682264 
z
" clip-path="url(#pb9bdc7fa4d)" style="fill: #1f77b4; stroke: #1f77b4; stroke-width: 1.5; stroke-linecap: round"/>
   </g>
   <g id="patch_37">
    <path d="M 147.199206 93.433323 
Q 149.570053 95.334153 150.632461 96.18594 
" clip-path="url(#pb9bdc7fa4d)" style="fill: none; stroke: #1f77b4; stroke-width: 1.5; stroke-linecap: round"/>
    <path d="M 148.762709 92.123425 
L 150.632461 96.18594 
L 146.260598 95.244232 
z
" clip-path="url(#pb9bdc7fa4d)" style="fill: #1f77b4; stroke: #1f77b4; stroke-width: 1.5; stroke-linecap: round"/>
   </g>
   <g id="patch_38">
    <path d="M 87.838816 81.38283 
Q 90.824903 82.859996 92.307806 83.593564 
" clip-path="url(#pb9bdc7fa4d)" style="fill: none; stroke: #1f77b4; stroke-width: 1.5; stroke-linecap: round"/>
    <path d="M 89.609299 80.027325 
L 92.307806 83.593564 
L 87.835711 83.612626 
z
" clip-path="url(#pb9bdc7fa4d)" style="fill: #1f77b4; stroke: #1f77b4; stroke-width: 1.5; stroke-linecap: round"/>
   </g>
   <g id="patch_39">
    <path d="M 30.163424 61.980961 
Q 29.539732 61.872768 30.568413 62.051215 
" clip-path="url(#pb9bdc7fa4d)" style="fill: none; stroke: #1f77b4; stroke-width: 1.5; stroke-linecap: round"/>
    <path d="M 34.167716 64.705459 
L 30.568413 62.051215 
L 34.851391 60.764319 
z
" clip-path="url(#pb9bdc7fa4d)" style="fill: #1f77b4; stroke: #1f77b4; stroke-width: 1.5; stroke-linecap: round"/>
   </g>
   <g id="patch_40">
    <path d="M 21.742134 89.811856 
Q 21.664553 89.784332 23.1675 90.317551 
" clip-path="url(#pb9bdc7fa4d)" style="fill: none; stroke: #1f77b4; stroke-width: 1.5; stroke-linecap: round"/>
    <path d="M 26.268553 93.53989 
L 23.1675 90.317551 
L 27.606003 89.770112 
z
" clip-path="url(#pb9bdc7fa4d)" style="fill: #1f77b4; stroke: #1f77b4; stroke-width: 1.5; stroke-linecap: round"/>
   </g>
   <g id="patch_41">
    <path d="M 17.324414 109.815154 
Q 17.053509 109.707369 18.340848 110.219565 
" clip-path="url(#pb9bdc7fa4d)" style="fill: none; stroke: #1f77b4; stroke-width: 1.5; stroke-linecap: round"/>
    <path d="M 21.318105 113.556621 
L 18.340848 110.219565 
L 22.796847 109.839993 
z
" clip-path="url(#pb9bdc7fa4d)" style="fill: #1f77b4; stroke: #1f77b4; stroke-width: 1.5; stroke-linecap: round"/>
   </g>
   <g id="patch_42">
    <path d="M 16.476983 152.839111 
Q 16.252887 152.73836 17.558365 153.32529 
" clip-path="url(#pb9bdc7fa4d)" style="fill: none; stroke: #1f77b4; stroke-width: 1.5; stroke-linecap: round"/>
    <path d="M 20.386503 156.789627 
L 17.558365 153.32529 
L 22.026718 153.141382 
z
" clip-path="url(#pb9bdc7fa4d)" style="fill: #1f77b4; stroke: #1f77b4; stroke-width: 1.5; stroke-linecap: round"/>
   </g>
   <g id="patch_43">
    <path d="M 27.170404 221.043729 
Q 27.191609 220.769858 27.08335 222.168034 
" clip-path="url(#pb9bdc7fa4d)" style="fill: none; stroke: #1f77b4; stroke-width: 1.5; stroke-linecap: round"/>
    <path d="M 24.780525 226.001701 
L 27.08335 222.168034 
L 28.768589 226.310494 
z
" clip-path="url(#pb9bdc7fa4d)" style="fill: #1f77b4; stroke: #1f77b4; stroke-width: 1.5; stroke-linecap: round"/>
   </g>
   <g id="patch_44">
    <path d="M 7.530985 336.234776 
Q 7.54519 335.617643 7.520804 336.677117 
" clip-path="url(#pb9bdc7fa4d)" style="fill: none; stroke: #1f77b4; stroke-width: 1.5; stroke-linecap: round"/>
    <path d="M 5.42929 340.630037 
L 7.520804 336.677117 
L 9.428231 340.72208 
z
" clip-path="url(#pb9bdc7fa4d)" style="fill: #1f77b4; stroke: #1f77b4; stroke-width: 1.5; stroke-linecap: round"/>
   </g>
   <g id="patch_45">
    <path d="M 266.364516 396.846757 
Q 269.748307 396.958169 271.455956 397.014394 
" clip-path="url(#pb9bdc7fa4d)" style="fill: none; stroke: #1f77b4; stroke-width: 1.5; stroke-linecap: round"/>
    <path d="M 267.523937 394.883848 
L 271.455956 397.014394 
L 267.392308 398.881681 
z
" clip-path="url(#pb9bdc7fa4d)" style="fill: #1f77b4; stroke: #1f77b4; stroke-width: 1.5; stroke-linecap: round"/>
   </g>
   <g id="patch_46">
    <path d="M 24.330157 533.502051 
Q 27.287177 533.440377 28.56751 533.413673 
" clip-path="url(#pb9bdc7fa4d)" style="fill: none; stroke: #1f77b4; stroke-width: 1.5; stroke-linecap: round"/>
    <path d="M 24.526675 531.497517 
L 28.56751 533.413673 
L 24.610084 535.496648 
z
" clip-path="url(#pb9bdc7fa4d)" style="fill: #1f77b4; stroke: #1f77b4; stroke-width: 1.5; stroke-linecap: round"/>
   </g>
   <g id="patch_47">
    <path d="M 23.369918 598.433464 
Q 24.688956 598.462571 24.331351 598.45468 
" clip-path="url(#pb9bdc7fa4d)" style="fill: none; stroke: #1f77b4; stroke-width: 1.5; stroke-linecap: round"/>
    <path d="M 20.376448 596.36692 
L 24.331351 598.45468 
L 20.288202 600.365946 
z
" clip-path="url(#pb9bdc7fa4d)" style="fill: #1f77b4; stroke: #1f77b4; stroke-width: 1.5; stroke-linecap: round"/>
   </g>
   <g id="patch_48">
    <path d="M 20.259662 619.789548 
Q 21.992763 619.86319 22.050326 619.865636 
" clip-path="url(#pb9bdc7fa4d)" style="fill: none; stroke: #1f77b4; stroke-width: 1.5; stroke-linecap: round"/>
    <path d="M 18.138839 617.697626 
L 22.050326 619.865636 
L 17.969026 621.69402 
z
" clip-path="url(#pb9bdc7fa4d)" style="fill: #1f77b4; stroke: #1f77b4; stroke-width: 1.5; stroke-linecap: round"/>
   </g>
   <g id="patch_49">
    <path d="M 19.260456 641.252846 
Q 20.759655 641.344389 20.584921 641.33372 
" clip-path="url(#pb9bdc7fa4d)" style="fill: none; stroke: #1f77b4; stroke-width: 1.5; stroke-linecap: round"/>
    <path d="M 16.714253 639.093646 
L 20.584921 641.33372 
L 16.470461 643.08621 
z
" clip-path="url(#pb9bdc7fa4d)" style="fill: #1f77b4; stroke: #1f77b4; stroke-width: 1.5; stroke-linecap: round"/>
   </g>
   <g id="patch_50">
    <path d="M 18.516842 662.705906 
Q 19.837801 662.805907 19.486495 662.779312 
" clip-path="url(#pb9bdc7fa4d)" style="fill: none; stroke: #1f77b4; stroke-width: 1.5; stroke-linecap: round"/>
    <path d="M 15.648884 660.483067 
L 19.486495 662.779312 
L 15.346932 664.471654 
z
" clip-path="url(#pb9bdc7fa4d)" style="fill: #1f77b4; stroke: #1f77b4; stroke-width: 1.5; stroke-linecap: round"/>
   </g>
   <g id="patch_51">
    <path d="M 132.132736 643.626755 
Q 133.369269 643.192104 133.02365 643.313592 
" clip-path="url(#pb9bdc7fa4d)" style="fill: none; stroke: #1f77b4; stroke-width: 1.5; stroke-linecap: round"/>
    <path d="M 128.586759 642.753231 
L 133.02365 643.313592 
L 129.913227 646.526888 
z
" clip-path="url(#pb9bdc7fa4d)" style="fill: #1f77b4; stroke: #1f77b4; stroke-width: 1.5; stroke-linecap: round"/>
   </g>
   <g id="patch_52">
    <path d="M 623.703323 381.612549 
Q 621.630963 381.574121 621.235365 381.566785 
" clip-path="url(#pb9bdc7fa4d)" style="fill: none; stroke: #1f77b4; stroke-width: 1.5; stroke-linecap: round"/>
    <path d="M 625.197598 383.640601 
L 621.235365 381.566785 
L 625.271758 379.641288 
z
" clip-path="url(#pb9bdc7fa4d)" style="fill: #1f77b4; stroke: #1f77b4; stroke-width: 1.5; stroke-linecap: round"/>
   </g>
   <g id="patch_53">
    <path d="M 43.070658 80.171349 
Q 43.375614 80.349207 42.231901 79.682163 
" clip-path="url(#pb9bdc7fa4d)" style="fill: none; stroke: #1f77b4; stroke-width: 1.5; stroke-linecap: round"/>
    <path d="M 39.784229 75.939316 
L 42.231901 79.682163 
L 37.76902 79.394593 
z
" clip-path="url(#pb9bdc7fa4d)" style="fill: #1f77b4; stroke: #1f77b4; stroke-width: 1.5; stroke-linecap: round"/>
   </g>
   <g id="patch_54">
    <path d="M 238.494383 353.934799 
Q 241.865062 354.221261 243.564714 354.365709 
" clip-path="url(#pb9bdc7fa4d)" style="fill: none; stroke: #1f77b4; stroke-width: 1.5; stroke-linecap: round"/>
    <path d="M 239.748444 352.034168 
L 243.564714 354.365709 
L 239.409719 356.0198 
z
" clip-path="url(#pb9bdc7fa4d)" style="fill: #1f77b4; stroke: #1f77b4; stroke-width: 1.5; stroke-linecap: round"/>
   </g>
   <g id="patch_55">
    <path d="M 52.33091 361.774613 
Q 54.725158 362.249545 55.474407 362.398169 
" clip-path="url(#pb9bdc7fa4d)" style="fill: none; stroke: #1f77b4; stroke-width: 1.5; stroke-linecap: round"/>
    <path d="M 51.94 359.658102 
L 55.474407 362.398169 
L 51.16171 363.581655 
z
" clip-path="url(#pb9bdc7fa4d)" style="fill: #1f77b4; stroke: #1f77b4; stroke-width: 1.5; stroke-linecap: round"/>
   </g>
   <g id="patch_56">
    <path d="M 25.722693 424.486498 
Q 29.03265 424.510052 30.665597 424.521673 
" clip-path="url(#pb9bdc7fa4d)" style="fill: none; stroke: #1f77b4; stroke-width: 1.5; stroke-linecap: round"/>
    <path d="M 26.679931 422.493259 
L 30.665597 424.521673 
L 26.651467 426.493158 
z
" clip-path="url(#pb9bdc7fa4d)" style="fill: #1f77b4; stroke: #1f77b4; stroke-width: 1.5; stroke-linecap: round"/>
   </g>
   <g id="patch_57">
    <path d="M 275.120994 115.412051 
Q 273.883392 116.086462 274.118389 115.958404 
" clip-path="url(#pb9bdc7fa4d)" style="fill: none; stroke: #1f77b4; stroke-width: 1.5; stroke-linecap: round"/>
    <path d="M 278.587739 115.800583 
L 274.118389 115.958404 
L 276.673742 112.288231 
z
" clip-path="url(#pb9bdc7fa4d)" style="fill: #1f77b4; stroke: #1f77b4; stroke-width: 1.5; stroke-linecap: round"/>
   </g>
   <g id="patch_58">
    <path d="M 126.712073 131.60947 
Q 129.625321 133.21144 131.069043 134.00533 
" clip-path="url(#pb9bdc7fa4d)" style="fill: none; stroke: #1f77b4; stroke-width: 1.5; stroke-linecap: round"/>
    <path d="M 128.52771 130.325435 
L 131.069043 134.00533 
L 126.600328 133.830459 
z
" clip-path="url(#pb9bdc7fa4d)" style="fill: #1f77b4; stroke: #1f77b4; stroke-width: 1.5; stroke-linecap: round"/>
   </g>
   <g id="patch_59">
    <path d="M 130.321128 163.853458 
Q 133.29843 165.337859 134.774876 166.073974 
" clip-path="url(#pb9bdc7fa4d)" style="fill: none; stroke: #1f77b4; stroke-width: 1.5; stroke-linecap: round"/>
    <path d="M 132.087509 162.499334 
L 134.774876 166.073974 
L 130.302743 166.079084 
z
" clip-path="url(#pb9bdc7fa4d)" style="fill: #1f77b4; stroke: #1f77b4; stroke-width: 1.5; stroke-linecap: round"/>
   </g>
   <g id="patch_60">
    <path d="M 43.010309 144.744061 
Q 43.308421 144.880881 42.082344 144.318166 
" clip-path="url(#pb9bdc7fa4d)" style="fill: none; stroke: #1f77b4; stroke-width: 1.5; stroke-linecap: round"/>
    <path d="M 39.281188 140.831975 
L 42.082344 144.318166 
L 37.612698 144.467377 
z
" clip-path="url(#pb9bdc7fa4d)" style="fill: #1f77b4; stroke: #1f77b4; stroke-width: 1.5; stroke-linecap: round"/>
   </g>
   <g id="patch_61">
    <path d="M 173.788716 221.889946 
Q 176.855895 223.147075 178.371305 223.768189 
" clip-path="url(#pb9bdc7fa4d)" style="fill: none; stroke: #1f77b4; stroke-width: 1.5; stroke-linecap: round"/>
    <path d="M 175.428614 220.400612 
L 178.371305 223.768189 
L 173.911629 224.101795 
z
" clip-path="url(#pb9bdc7fa4d)" style="fill: #1f77b4; stroke: #1f77b4; stroke-width: 1.5; stroke-linecap: round"/>
   </g>
   <g id="patch_62">
    <path d="M 159.964336 253.397274 
Q 163.163673 254.40413 164.763308 254.907547 
" clip-path="url(#pb9bdc7fa4d)" style="fill: none; stroke: #1f77b4; stroke-width: 1.5; stroke-linecap: round"/>
    <path d="M 161.54818 251.799019 
L 164.763308 254.907547 
L 160.347408 255.614533 
z
" clip-path="url(#pb9bdc7fa4d)" style="fill: #1f77b4; stroke: #1f77b4; stroke-width: 1.5; stroke-linecap: round"/>
   </g>
   <g id="patch_63">
    <path d="M 103.004182 253.214849 
Q 106.157564 254.35981 107.734588 254.932412 
" clip-path="url(#pb9bdc7fa4d)" style="fill: none; stroke: #1f77b4; stroke-width: 1.5; stroke-linecap: round"/>
    <path d="M 104.657334 251.687338 
L 107.734588 254.932412 
L 103.292176 255.447171 
z
" clip-path="url(#pb9bdc7fa4d)" style="fill: #1f77b4; stroke: #1f77b4; stroke-width: 1.5; stroke-linecap: round"/>
   </g>
   <g id="patch_64">
    <path d="M 229.726565 304.76479 
Q 233.037669 305.340849 234.696542 305.629456 
" clip-path="url(#pb9bdc7fa4d)" style="fill: none; stroke: #1f77b4; stroke-width: 1.5; stroke-linecap: round"/>
    <path d="M 231.098544 302.973442 
L 234.696542 305.629456 
L 230.412932 306.914245 
z
" clip-path="url(#pb9bdc7fa4d)" style="fill: #1f77b4; stroke: #1f77b4; stroke-width: 1.5; stroke-linecap: round"/>
   </g>
   <g id="patch_65">
    <path d="M 72.060685 282.943233 
Q 73.94553 283.602122 74.247265 283.7076 
" clip-path="url(#pb9bdc7fa4d)" style="fill: none; stroke: #1f77b4; stroke-width: 1.5; stroke-linecap: round"/>
    <path d="M 71.131308 280.49967 
L 74.247265 283.7076 
L 69.811347 284.275608 
z
" clip-path="url(#pb9bdc7fa4d)" style="fill: #1f77b4; stroke: #1f77b4; stroke-width: 1.5; stroke-linecap: round"/>
   </g>
   <g id="patch_66">
    <path d="M 90.709395 309.696639 
Q 93.92486 310.671708 95.535441 311.160107 
" clip-path="url(#pb9bdc7fa4d)" style="fill: none; stroke: #1f77b4; stroke-width: 1.5; stroke-linecap: round"/>
    <path d="M 92.287959 308.085394 
L 95.535441 311.160107 
L 91.127182 311.913264 
z
" clip-path="url(#pb9bdc7fa4d)" style="fill: #1f77b4; stroke: #1f77b4; stroke-width: 1.5; stroke-linecap: round"/>
   </g>
   <g id="patch_67">
    <path d="M 20.066682 575.258462 
Q 21.740552 575.329462 21.738878 575.329391 
" clip-path="url(#pb9bdc7fa4d)" style="fill: none; stroke: #1f77b4; stroke-width: 1.5; stroke-linecap: round"/>
    <path d="M 17.827229 573.161674 
L 21.738878 575.329391 
L 17.657715 577.15808 
z
" clip-path="url(#pb9bdc7fa4d)" style="fill: #1f77b4; stroke: #1f77b4; stroke-width: 1.5; stroke-linecap: round"/>
   </g>
   <g id="patch_68">
    <path d="M 91.038173 615.217939 
Q 91.425968 613.442806 91.455836 613.306084 
" clip-path="url(#pb9bdc7fa4d)" style="fill: none; stroke: #1f77b4; stroke-width: 1.5; stroke-linecap: round"/>
    <path d="M 88.648213 616.787068 
L 91.455836 613.306084 
L 92.55605 617.640773 
z
" clip-path="url(#pb9bdc7fa4d)" style="fill: #1f77b4; stroke: #1f77b4; stroke-width: 1.5; stroke-linecap: round"/>
   </g>
   <g id="patch_69">
    <path d="M 562.463045 381.667965 
Q 562.117153 381.664087 563.448206 381.679011 
" clip-path="url(#pb9bdc7fa4d)" style="fill: none; stroke: #1f77b4; stroke-width: 1.5; stroke-linecap: round"/>
    <path d="M 567.425531 383.723731 
L 563.448206 381.679011 
L 567.470377 379.723983 
z
" clip-path="url(#pb9bdc7fa4d)" style="fill: #1f77b4; stroke: #1f77b4; stroke-width: 1.5; stroke-linecap: round"/>
   </g>
   <g id="patch_70">
    <path d="M 289.477862 147.009598 
Q 288.526782 147.478677 289.079767 147.205941 
" clip-path="url(#pb9bdc7fa4d)" style="fill: none; stroke: #1f77b4; stroke-width: 1.5; stroke-linecap: round"/>
    <path d="M 293.551837 147.230311 
L 289.079767 147.205941 
L 291.782505 143.642907 
z
" clip-path="url(#pb9bdc7fa4d)" style="fill: #1f77b4; stroke: #1f77b4; stroke-width: 1.5; stroke-linecap: round"/>
   </g>
   <g id="patch_71">
    <path d="M 109.301338 557.386099 
Q 110.412851 556.874426 110.000976 557.064028 
" clip-path="url(#pb9bdc7fa4d)" style="fill: none; stroke: #1f77b4; stroke-width: 1.5; stroke-linecap: round"/>
    <path d="M 105.531162 556.919921 
L 110.000976 557.064028 
L 107.203802 560.553415 
z
" clip-path="url(#pb9bdc7fa4d)" style="fill: #1f77b4; stroke: #1f77b4; stroke-width: 1.5; stroke-linecap: round"/>
   </g>
   <g id="patch_72">
    <path d="M 402.714809 377.802812 
Q 406.09565 377.916319 407.800383 377.973553 
" clip-path="url(#pb9bdc7fa4d)" style="fill: none; stroke: #1f77b4; stroke-width: 1.5; stroke-linecap: round"/>
    <path d="M 403.869745 375.840461 
L 407.800383 377.973553 
L 403.735527 379.838208 
z
" clip-path="url(#pb9bdc7fa4d)" style="fill: #1f77b4; stroke: #1f77b4; stroke-width: 1.5; stroke-linecap: round"/>
   </g>
   <g id="patch_73">
    <path d="M 178.689973 369.24588 
Q 182.057166 369.549141 183.754068 369.701969 
" clip-path="url(#pb9bdc7fa4d)" style="fill: none; stroke: #1f77b4; stroke-width: 1.5; stroke-linecap: round"/>
    <path d="M 179.949593 367.351231 
L 183.754068 369.701969 
L 179.590793 371.335106 
z
" clip-path="url(#pb9bdc7fa4d)" style="fill: #1f77b4; stroke: #1f77b4; stroke-width: 1.5; stroke-linecap: round"/>
   </g>
   <g id="patch_74">
    <path d="M 323.098574 216.205473 
Q 322.581628 216.553327 323.456056 215.964922 
" clip-path="url(#pb9bdc7fa4d)" style="fill: none; stroke: #1f77b4; stroke-width: 1.5; stroke-linecap: round"/>
    <path d="M 327.891228 215.391122 
L 323.456056 215.964922 
L 325.658119 212.072504 
z
" clip-path="url(#pb9bdc7fa4d)" style="fill: #1f77b4; stroke: #1f77b4; stroke-width: 1.5; stroke-linecap: round"/>
   </g>
   <g id="patch_75">
    <path d="M 269.210914 343.506396 
Q 272.580902 343.812708 274.280723 343.967211 
" clip-path="url(#pb9bdc7fa4d)" style="fill: none; stroke: #1f77b4; stroke-width: 1.5; stroke-linecap: round"/>
    <path d="M 270.478186 341.613339 
L 274.280723 343.967211 
L 270.116103 345.596917 
z
" clip-path="url(#pb9bdc7fa4d)" style="fill: #1f77b4; stroke: #1f77b4; stroke-width: 1.5; stroke-linecap: round"/>
   </g>
   <g id="line2d_18">
    <defs>
     <path id="m7b1a4b9723" d="M 0 3 
C 0.795609 3 1.55874 2.683901 2.12132 2.12132 
C 2.683901 1.55874 3 0.795609 3 0 
C 3 -0.795609 2.683901 -1.55874 2.12132 -2.12132 
C 1.55874 -2.683901 0.795609 -3 0 -3 
C -0.795609 -3 -1.55874 -2.683901 -2.12132 -2.12132 
C -2.683901 -1.55874 -3 -0.795609 -3 0 
C -3 0.795609 -2.683901 1.55874 -2.12132 2.12132 
C -1.55874 2.683901 -0.795609 3 0 3 
z
" style="stroke: #ff0000"/>
    </defs>
    <g clip-path="url(#pb9bdc7fa4d)">
     <use xlink:href="#m7b1a4b9723" x="557.669982" y="381.815865" style="fill: #ff0000; stroke: #ff0000"/>
    </g>
   </g>
   <g id="patch_76">
    <path d="M 90 448.56 
L 90 60.48 
" style="fill: none; stroke: #cccccc; stroke-width: 0.8; stroke-linejoin: miter; stroke-linecap: square"/>
   </g>
   <g id="patch_77">
    <path d="M 648 448.56 
L 648 60.48 
" style="fill: none; stroke: #cccccc; stroke-width: 0.8; stroke-linejoin: miter; stroke-linecap: square"/>
   </g>
   <g id="patch_78">
    <path d="M 90 448.56 
L 648 448.56 
" style="fill: none; stroke: #cccccc; stroke-width: 0.8; stroke-linejoin: miter; stroke-linecap: square"/>
   </g>
   <g id="patch_79">
    <path d="M 90 60.48 
L 648 60.48 
" style="fill: none; stroke: #cccccc; stroke-width: 0.8; stroke-linejoin: miter; stroke-linecap: square"/>
   </g>
   <g id="line2d_19">
    <defs>
     <path id="mc21edd7b99" d="M 0 3 
C 0.795609 3 1.55874 2.683901 2.12132 2.12132 
C 2.683901 1.55874 3 0.795609 3 0 
C 3 -0.795609 2.683901 -1.55874 2.12132 -2.12132 
C 1.55874 -2.683901 0.795609 -3 0 -3 
C -0.795609 -3 -1.55874 -2.683901 -2.12132 -2.12132 
C -2.683901 -1.55874 -3 -0.795609 -3 0 
C -3 0.795609 -2.683901 1.55874 -2.12132 2.12132 
C -1.55874 2.683901 -0.795609 3 0 3 
z
" style="stroke: #0000ff"/>
    </defs>
    <g clip-path="url(#pb9bdc7fa4d)">
     <use xlink:href="#mc21edd7b99" x="134.285714" y="254.52" style="fill: #0000ff; stroke: #0000ff"/>
    </g>
   </g>
   <g id="legend_1">
    <g id="patch_80">
     <path d="M 366.840625 133.06125 
L 634 133.06125 
Q 638 133.06125 638 129.06125 
L 638 74.48 
Q 638 70.48 634 70.48 
L 366.840625 70.48 
Q 362.840625 70.48 362.840625 74.48 
L 362.840625 129.06125 
Q 362.840625 133.06125 366.840625 133.06125 
z
" style="fill: #ffffff; opacity: 0.8; stroke: #cccccc; stroke-linejoin: miter"/>
    </g>
    <g id="line2d_20">
     <g>
      <use xlink:href="#mc21edd7b99" x="390.840625" y="85.795625" style="fill: #0000ff; stroke: #0000ff"/>
     </g>
    </g>
    <g id="text_19">
     <text style="fill: #262626; font: 20px 'Arial', 'DejaVu Sans', 'Liberation Sans', 'Bitstream Vera Sans', sans-serif; text-anchor: start" x="426.840625" y="92.795625" transform="rotate(-0 426.840625 92.795625)"> </text>
    </g>
    <g id="line2d_21">
     <g>
      <use xlink:href="#m7b1a4b9723" x="390.840625" y="114.08625" style="fill: #ff0000; stroke: #ff0000"/>
     </g>
    </g>
    <g id="text_20">
     <text style="fill: #262626; font: 20px 'Arial', 'DejaVu Sans', 'Liberation Sans', 'Bitstream Vera Sans', sans-serif; text-anchor: start" x="426.840625" y="121.08625" transform="rotate(-0 426.840625 121.08625)"> </text>
    </g>
   </g>
  </g>
 </g>
 <defs>
  <clipPath id="pb9bdc7fa4d">
   <rect x="90" y="60.48" width="558" height="388.08"/>
  </clipPath>
 </defs>
</svg>
