<?xml version="1.0" encoding="utf-8" standalone="no"?>
<!DOCTYPE svg PUBLIC "-//W3C//DTD SVG 1.1//EN"
  "http://www.w3.org/Graphics/SVG/1.1/DTD/svg11.dtd">
<svg xmlns:xlink="http://www.w3.org/1999/xlink" width="720pt" height="504pt" viewBox="0 0 720 504" xmlns="http://www.w3.org/2000/svg" version="1.1">
 <metadata>
  <rdf:RDF xmlns:dc="http://purl.org/dc/elements/1.1/" xmlns:cc="http://creativecommons.org/ns#" xmlns:rdf="http://www.w3.org/1999/02/22-rdf-syntax-ns#">
   <cc:Work>
    <dc:type rdf:resource="http://purl.org/dc/dcmitype/StillImage"/>
    <dc:date>2024-10-02T01:56:00.147052</dc:date>
    <dc:format>image/svg+xml</dc:format>
    <dc:creator>
     <cc:Agent>
      <dc:title>Matplotlib v3.7.2, https://matplotlib.org/</dc:title>
     </cc:Agent>
    </dc:creator>
   </cc:Work>
  </rdf:RDF>
 </metadata>
 <defs>
  <style type="text/css">*{stroke-linejoin: round; stroke-linecap: butt}</style>
 </defs>
 <g id="figure_1">
  <g id="patch_1">
   <path d="M 0 504 
L 720 504 
L 720 0 
L 0 0 
z
" style="fill: #ffffff"/>
  </g>
  <g id="axes_1">
   <g id="patch_2">
    <path d="M 90 448.56 
L 648 448.56 
L 648 60.48 
L 90 60.48 
z
" style="fill: #ffffff"/>
   </g>
   <g id="matplotlib.axis_1">
    <g id="xtick_1">
     <g id="line2d_1">
      <path d="M 95.853963 448.56 
L 95.853963 60.48 
" clip-path="url(#p1057e8005b)" style="fill: none; stroke: #cccccc; stroke-width: 0.8; stroke-linecap: round"/>
     </g>
     <g id="text_1">
      <text style="fill: #262626; font: 20px 'Arial', 'DejaVu Sans', 'Liberation Sans', 'Bitstream Vera Sans', sans-serif; text-anchor: middle" x="95.853963" y="469.875625" transform="rotate(-0 95.853963 469.875625)">−800</text>
     </g>
    </g>
    <g id="xtick_2">
     <g id="line2d_2">
      <path d="M 168.741007 448.56 
L 168.741007 60.48 
" clip-path="url(#p1057e8005b)" style="fill: none; stroke: #cccccc; stroke-width: 0.8; stroke-linecap: round"/>
     </g>
     <g id="text_2">
      <text style="fill: #262626; font: 20px 'Arial', 'DejaVu Sans', 'Liberation Sans', 'Bitstream Vera Sans', sans-serif; text-anchor: middle" x="168.741007" y="469.875625" transform="rotate(-0 168.741007 469.875625)">−600</text>
     </g>
    </g>
    <g id="xtick_3">
     <g id="line2d_3">
      <path d="M 241.62805 448.56 
L 241.62805 60.48 
" clip-path="url(#p1057e8005b)" style="fill: none; stroke: #cccccc; stroke-width: 0.8; stroke-linecap: round"/>
     </g>
     <g id="text_3">
      <text style="fill: #262626; font: 20px 'Arial', 'DejaVu Sans', 'Liberation Sans', 'Bitstream Vera Sans', sans-serif; text-anchor: middle" x="241.62805" y="469.875625" transform="rotate(-0 241.62805 469.875625)">−400</text>
     </g>
    </g>
    <g id="xtick_4">
     <g id="line2d_4">
      <path d="M 314.515094 448.56 
L 314.515094 60.48 
" clip-path="url(#p1057e8005b)" style="fill: none; stroke: #cccccc; stroke-width: 0.8; stroke-linecap: round"/>
     </g>
     <g id="text_4">
      <text style="fill: #262626; font: 20px 'Arial', 'DejaVu Sans', 'Liberation Sans', 'Bitstream Vera Sans', sans-serif; text-anchor: middle" x="314.515094" y="469.875625" transform="rotate(-0 314.515094 469.875625)">−200</text>
     </g>
    </g>
    <g id="xtick_5">
     <g id="line2d_5">
      <path d="M 387.402137 448.56 
L 387.402137 60.48 
" clip-path="url(#p1057e8005b)" style="fill: none; stroke: #cccccc; stroke-width: 0.8; stroke-linecap: round"/>
     </g>
     <g id="text_5">
      <text style="fill: #262626; font: 20px 'Arial', 'DejaVu Sans', 'Liberation Sans', 'Bitstream Vera Sans', sans-serif; text-anchor: middle" x="387.402137" y="469.875625" transform="rotate(-0 387.402137 469.875625)">0</text>
     </g>
    </g>
    <g id="xtick_6">
     <g id="line2d_6">
      <path d="M 460.289181 448.56 
L 460.289181 60.48 
" clip-path="url(#p1057e8005b)" style="fill: none; stroke: #cccccc; stroke-width: 0.8; stroke-linecap: round"/>
     </g>
     <g id="text_6">
      <text style="fill: #262626; font: 20px 'Arial', 'DejaVu Sans', 'Liberation Sans', 'Bitstream Vera Sans', sans-serif; text-anchor: middle" x="460.289181" y="469.875625" transform="rotate(-0 460.289181 469.875625)">200</text>
     </g>
    </g>
    <g id="xtick_7">
     <g id="line2d_7">
      <path d="M 533.176224 448.56 
L 533.176224 60.48 
" clip-path="url(#p1057e8005b)" style="fill: none; stroke: #cccccc; stroke-width: 0.8; stroke-linecap: round"/>
     </g>
     <g id="text_7">
      <text style="fill: #262626; font: 20px 'Arial', 'DejaVu Sans', 'Liberation Sans', 'Bitstream Vera Sans', sans-serif; text-anchor: middle" x="533.176224" y="469.875625" transform="rotate(-0 533.176224 469.875625)">400</text>
     </g>
    </g>
    <g id="xtick_8">
     <g id="line2d_8">
      <path d="M 606.063267 448.56 
L 606.063267 60.48 
" clip-path="url(#p1057e8005b)" style="fill: none; stroke: #cccccc; stroke-width: 0.8; stroke-linecap: round"/>
     </g>
     <g id="text_8">
      <text style="fill: #262626; font: 20px 'Arial', 'DejaVu Sans', 'Liberation Sans', 'Bitstream Vera Sans', sans-serif; text-anchor: middle" x="606.063267" y="469.875625" transform="rotate(-0 606.063267 469.875625)">600</text>
     </g>
    </g>
    <g id="text_9">
     <!-- $x_{1}$ -->
     <g style="fill: #262626" transform="translate(358.3 492.16625)">
      <text>
       <tspan style="font: oblique 20px 'DejaVu Sans'" x="0" y="-0.0625">x</tspan>
       <tspan style="font: 14px 'DejaVu Sans'" x="11.835938" y="3.21875">1</tspan>
      </text>
     </g>
    </g>
   </g>
   <g id="matplotlib.axis_2">
    <g id="ytick_1">
     <g id="line2d_9">
      <path d="M 90 403.533159 
L 648 403.533159 
" clip-path="url(#p1057e8005b)" style="fill: none; stroke: #cccccc; stroke-width: 0.8; stroke-linecap: round"/>
     </g>
     <g id="text_10">
      <text style="fill: #262626; font: 20px 'Arial', 'DejaVu Sans', 'Liberation Sans', 'Bitstream Vera Sans', sans-serif; text-anchor: end" x="83" y="410.690972" transform="rotate(-0 83 410.690972)">7</text>
     </g>
    </g>
    <g id="ytick_2">
     <g id="line2d_10">
      <path d="M 90 350.086315 
L 648 350.086315 
" clip-path="url(#p1057e8005b)" style="fill: none; stroke: #cccccc; stroke-width: 0.8; stroke-linecap: round"/>
     </g>
     <g id="text_11">
      <text style="fill: #262626; font: 20px 'Arial', 'DejaVu Sans', 'Liberation Sans', 'Bitstream Vera Sans', sans-serif; text-anchor: end" x="83" y="357.244128" transform="rotate(-0 83 357.244128)">8</text>
     </g>
    </g>
    <g id="ytick_3">
     <g id="line2d_11">
      <path d="M 90 296.639471 
L 648 296.639471 
" clip-path="url(#p1057e8005b)" style="fill: none; stroke: #cccccc; stroke-width: 0.8; stroke-linecap: round"/>
     </g>
     <g id="text_12">
      <text style="fill: #262626; font: 20px 'Arial', 'DejaVu Sans', 'Liberation Sans', 'Bitstream Vera Sans', sans-serif; text-anchor: end" x="83" y="303.797283" transform="rotate(-0 83 303.797283)">9</text>
     </g>
    </g>
    <g id="ytick_4">
     <g id="line2d_12">
      <path d="M 90 243.192626 
L 648 243.192626 
" clip-path="url(#p1057e8005b)" style="fill: none; stroke: #cccccc; stroke-width: 0.8; stroke-linecap: round"/>
     </g>
     <g id="text_13">
      <text style="fill: #262626; font: 20px 'Arial', 'DejaVu Sans', 'Liberation Sans', 'Bitstream Vera Sans', sans-serif; text-anchor: end" x="83" y="250.350439" transform="rotate(-0 83 250.350439)">10</text>
     </g>
    </g>
    <g id="ytick_5">
     <g id="line2d_13">
      <path d="M 90 189.745782 
L 648 189.745782 
" clip-path="url(#p1057e8005b)" style="fill: none; stroke: #cccccc; stroke-width: 0.8; stroke-linecap: round"/>
     </g>
     <g id="text_14">
      <text style="fill: #262626; font: 20px 'Arial', 'DejaVu Sans', 'Liberation Sans', 'Bitstream Vera Sans', sans-serif; text-anchor: end" x="83" y="196.903595" transform="rotate(-0 83 196.903595)">11</text>
     </g>
    </g>
    <g id="ytick_6">
     <g id="line2d_14">
      <path d="M 90 136.298938 
L 648 136.298938 
" clip-path="url(#p1057e8005b)" style="fill: none; stroke: #cccccc; stroke-width: 0.8; stroke-linecap: round"/>
     </g>
     <g id="text_15">
      <text style="fill: #262626; font: 20px 'Arial', 'DejaVu Sans', 'Liberation Sans', 'Bitstream Vera Sans', sans-serif; text-anchor: end" x="83" y="143.45675" transform="rotate(-0 83 143.45675)">12</text>
     </g>
    </g>
    <g id="ytick_7">
     <g id="line2d_15">
      <path d="M 90 82.852093 
L 648 82.852093 
" clip-path="url(#p1057e8005b)" style="fill: none; stroke: #cccccc; stroke-width: 0.8; stroke-linecap: round"/>
     </g>
     <g id="text_16">
      <text style="fill: #262626; font: 20px 'Arial', 'DejaVu Sans', 'Liberation Sans', 'Bitstream Vera Sans', sans-serif; text-anchor: end" x="83" y="90.009906" transform="rotate(-0 83 90.009906)">13</text>
     </g>
    </g>
    <g id="text_17">
     <!-- $x_{2}$ -->
     <g style="fill: #262626" transform="translate(52.78125 265.22) rotate(-90)">
      <text>
       <tspan style="font: oblique 20px 'DejaVu Sans'" x="0" y="-0.0625">x</tspan>
       <tspan style="font: 14px 'DejaVu Sans'" x="11.835938" y="3.21875">2</tspan>
      </text>
     </g>
    </g>
   </g>
   <g id="line2d_16">
    <path d="M 389.224313 243.192626 
L 389.033714 247.992153 
L 388.865265 252.928641 
L 404.701435 257.976772 
L 329.758444 248.297802 
L 301.138944 309.196937 
L 622.636364 387.002953 
L 546.980459 227.876389 
L 115.363636 78.12 
L 394.668283 426.094745 
L 389.732452 425.838185 
L 398.660744 428.678695 
L 387.288319 425.938958 
L 399.459138 430.31192 
L 388.14003 427.09038 
L 398.946399 430.916476 
L 389.605062 428.017644 
L 397.901741 430.92 
L 390.988879 428.667257 
L 396.871334 430.702851 
L 391.975546 429.086343 
L 396.094603 430.506071 
L 392.724637 429.369581 
L 395.488557 430.322816 
L 393.252859 429.561176 
L 395.038374 430.185931 
L 393.643601 429.702992 
L 394.748585 430.084993 
L 393.857437 429.781563 
L 394.590903 430.030799 
L 393.963785 429.825088 
L 394.52437 430.008316 
L 394.005144 429.843847 
L 394.470359 430.001407 
L 394.078837 429.870426 
L 394.396398 429.982261 
L 394.138493 429.897137 
L 394.400403 429.971961 
L 394.111725 429.884351 
L 394.370077 429.975782 
L 394.153338 429.906979 
L 394.375063 429.972594 
L 394.136895 429.900697 
L 394.383139 429.976512 
L 394.118039 429.899608 
L 394.39819 429.987119 
L 394.132395 429.900884 
L 394.383454 429.97949 
L 394.193891 429.902392 
L 394.29676 429.942854 
" clip-path="url(#p1057e8005b)" style="fill: none; stroke: #ff0000; stroke-width: 3; stroke-linecap: round"/>
   </g>
   <g id="line2d_17">
    <defs>
     <path id="ma00c8a3e8c" d="M 0 3 
C 0.795609 3 1.55874 2.683901 2.12132 2.12132 
C 2.683901 1.55874 3 0.795609 3 0 
C 3 -0.795609 2.683901 -1.55874 2.12132 -2.12132 
C 1.55874 -2.683901 0.795609 -3 0 -3 
C -0.795609 -3 -1.55874 -2.683901 -2.12132 -2.12132 
C -2.683901 -1.55874 -3 -0.795609 -3 0 
C -3 0.795609 -2.683901 1.55874 -2.12132 2.12132 
C -1.55874 2.683901 -0.795609 3 0 3 
z
" style="stroke: #ff0000"/>
    </defs>
    <g clip-path="url(#p1057e8005b)">
     <use xlink:href="#ma00c8a3e8c" x="394.29676" y="429.942854" style="fill: #ff0000; stroke: #ff0000"/>
    </g>
   </g>
   <g id="patch_3">
    <path d="M 90 448.56 
L 90 60.48 
" style="fill: none; stroke: #cccccc; stroke-width: 0.8; stroke-linejoin: miter; stroke-linecap: square"/>
   </g>
   <g id="patch_4">
    <path d="M 648 448.56 
L 648 60.48 
" style="fill: none; stroke: #cccccc; stroke-width: 0.8; stroke-linejoin: miter; stroke-linecap: square"/>
   </g>
   <g id="patch_5">
    <path d="M 90 448.56 
L 648 448.56 
" style="fill: none; stroke: #cccccc; stroke-width: 0.8; stroke-linejoin: miter; stroke-linecap: square"/>
   </g>
   <g id="patch_6">
    <path d="M 90 60.48 
L 648 60.48 
" style="fill: none; stroke: #cccccc; stroke-width: 0.8; stroke-linejoin: miter; stroke-linecap: square"/>
   </g>
   <g id="line2d_18">
    <defs>
     <path id="m395b14a436" d="M 0 3 
C 0.795609 3 1.55874 2.683901 2.12132 2.12132 
C 2.683901 1.55874 3 0.795609 3 0 
C 3 -0.795609 2.683901 -1.55874 2.12132 -2.12132 
C 1.55874 -2.683901 0.795609 -3 0 -3 
C -0.795609 -3 -1.55874 -2.683901 -2.12132 -2.12132 
C -2.683901 -1.55874 -3 -0.795609 -3 0 
C -3 0.795609 -2.683901 1.55874 -2.12132 2.12132 
C -1.55874 2.683901 -0.795609 3 0 3 
z
" style="stroke: #0000ff"/>
    </defs>
    <g clip-path="url(#p1057e8005b)">
     <use xlink:href="#m395b14a436" x="389.224313" y="243.192626" style="fill: #0000ff; stroke: #0000ff"/>
    </g>
   </g>
   <g id="legend_1">
    <g id="patch_7">
     <path d="M 366.840625 133.06125 
L 634 133.06125 
Q 638 133.06125 638 129.06125 
L 638 74.48 
Q 638 70.48 634 70.48 
L 366.840625 70.48 
Q 362.840625 70.48 362.840625 74.48 
L 362.840625 129.06125 
Q 362.840625 133.06125 366.840625 133.06125 
z
" style="fill: #ffffff; opacity: 0.8; stroke: #cccccc; stroke-linejoin: miter"/>
    </g>
    <g id="line2d_19">
     <g>
      <use xlink:href="#m395b14a436" x="390.840625" y="85.795625" style="fill: #0000ff; stroke: #0000ff"/>
     </g>
    </g>
    <g id="text_18">
     <text style="fill: #262626; font: 20px 'Arial', 'DejaVu Sans', 'Liberation Sans', 'Bitstream Vera Sans', sans-serif; text-anchor: start" x="426.840625" y="92.795625" transform="rotate(-0 426.840625 92.795625)">Начальное состояние</text>
    </g>
    <g id="line2d_20">
     <g>
      <use xlink:href="#ma00c8a3e8c" x="390.840625" y="114.08625" style="fill: #ff0000; stroke: #ff0000"/>
     </g>
    </g>
    <g id="text_19">
     <text style="fill: #262626; font: 20px 'Arial', 'DejaVu Sans', 'Liberation Sans', 'Bitstream Vera Sans', sans-serif; text-anchor: start" x="426.840625" y="121.08625" transform="rotate(-0 426.840625 121.08625)">Конечное состояние</text>
    </g>
   </g>
  </g>
 </g>
 <defs>
  <clipPath id="p1057e8005b">
   <rect x="90" y="60.48" width="558" height="388.08"/>
  </clipPath>
 </defs>
</svg>
