<?xml version="1.0" encoding="utf-8" standalone="no"?>
<!DOCTYPE svg PUBLIC "-//W3C//DTD SVG 1.1//EN"
  "http://www.w3.org/Graphics/SVG/1.1/DTD/svg11.dtd">
<svg xmlns:xlink="http://www.w3.org/1999/xlink" width="720pt" height="504pt" viewBox="0 0 720 504" xmlns="http://www.w3.org/2000/svg" version="1.1">
 <metadata>
  <rdf:RDF xmlns:dc="http://purl.org/dc/elements/1.1/" xmlns:cc="http://creativecommons.org/ns#" xmlns:rdf="http://www.w3.org/1999/02/22-rdf-syntax-ns#">
   <cc:Work>
    <dc:type rdf:resource="http://purl.org/dc/dcmitype/StillImage"/>
    <dc:date>2024-10-02T01:56:00.890267</dc:date>
    <dc:format>image/svg+xml</dc:format>
    <dc:creator>
     <cc:Agent>
      <dc:title>Matplotlib v3.7.2, https://matplotlib.org/</dc:title>
     </cc:Agent>
    </dc:creator>
   </cc:Work>
  </rdf:RDF>
 </metadata>
 <defs>
  <style type="text/css">*{stroke-linejoin: round; stroke-linecap: butt}</style>
 </defs>
 <g id="figure_1">
  <g id="patch_1">
   <path d="M 0 504 
L 720 504 
L 720 0 
L 0 0 
z
" style="fill: #ffffff"/>
  </g>
  <g id="axes_1">
   <g id="patch_2">
    <path d="M 90 448.56 
L 648 448.56 
L 648 60.48 
L 90 60.48 
z
" style="fill: #ffffff"/>
   </g>
   <g id="matplotlib.axis_1">
    <g id="xtick_1">
     <g id="line2d_1">
      <path d="M 95.853963 448.56 
L 95.853963 60.48 
" clip-path="url(#p6d53d9bb84)" style="fill: none; stroke: #cccccc; stroke-width: 0.8; stroke-linecap: round"/>
     </g>
     <g id="text_1">
      <text style="fill: #262626; font: 20px 'Arial', 'DejaVu Sans', 'Liberation Sans', 'Bitstream Vera Sans', sans-serif; text-anchor: middle" x="95.853963" y="469.875625" transform="rotate(-0 95.853963 469.875625)">−800</text>
     </g>
    </g>
    <g id="xtick_2">
     <g id="line2d_2">
      <path d="M 168.741007 448.56 
L 168.741007 60.48 
" clip-path="url(#p6d53d9bb84)" style="fill: none; stroke: #cccccc; stroke-width: 0.8; stroke-linecap: round"/>
     </g>
     <g id="text_2">
      <text style="fill: #262626; font: 20px 'Arial', 'DejaVu Sans', 'Liberation Sans', 'Bitstream Vera Sans', sans-serif; text-anchor: middle" x="168.741007" y="469.875625" transform="rotate(-0 168.741007 469.875625)">−600</text>
     </g>
    </g>
    <g id="xtick_3">
     <g id="line2d_3">
      <path d="M 241.62805 448.56 
L 241.62805 60.48 
" clip-path="url(#p6d53d9bb84)" style="fill: none; stroke: #cccccc; stroke-width: 0.8; stroke-linecap: round"/>
     </g>
     <g id="text_3">
      <text style="fill: #262626; font: 20px 'Arial', 'DejaVu Sans', 'Liberation Sans', 'Bitstream Vera Sans', sans-serif; text-anchor: middle" x="241.62805" y="469.875625" transform="rotate(-0 241.62805 469.875625)">−400</text>
     </g>
    </g>
    <g id="xtick_4">
     <g id="line2d_4">
      <path d="M 314.515094 448.56 
L 314.515094 60.48 
" clip-path="url(#p6d53d9bb84)" style="fill: none; stroke: #cccccc; stroke-width: 0.8; stroke-linecap: round"/>
     </g>
     <g id="text_4">
      <text style="fill: #262626; font: 20px 'Arial', 'DejaVu Sans', 'Liberation Sans', 'Bitstream Vera Sans', sans-serif; text-anchor: middle" x="314.515094" y="469.875625" transform="rotate(-0 314.515094 469.875625)">−200</text>
     </g>
    </g>
    <g id="xtick_5">
     <g id="line2d_5">
      <path d="M 387.402137 448.56 
L 387.402137 60.48 
" clip-path="url(#p6d53d9bb84)" style="fill: none; stroke: #cccccc; stroke-width: 0.8; stroke-linecap: round"/>
     </g>
     <g id="text_5">
      <text style="fill: #262626; font: 20px 'Arial', 'DejaVu Sans', 'Liberation Sans', 'Bitstream Vera Sans', sans-serif; text-anchor: middle" x="387.402137" y="469.875625" transform="rotate(-0 387.402137 469.875625)">0</text>
     </g>
    </g>
    <g id="xtick_6">
     <g id="line2d_6">
      <path d="M 460.289181 448.56 
L 460.289181 60.48 
" clip-path="url(#p6d53d9bb84)" style="fill: none; stroke: #cccccc; stroke-width: 0.8; stroke-linecap: round"/>
     </g>
     <g id="text_6">
      <text style="fill: #262626; font: 20px 'Arial', 'DejaVu Sans', 'Liberation Sans', 'Bitstream Vera Sans', sans-serif; text-anchor: middle" x="460.289181" y="469.875625" transform="rotate(-0 460.289181 469.875625)">200</text>
     </g>
    </g>
    <g id="xtick_7">
     <g id="line2d_7">
      <path d="M 533.176224 448.56 
L 533.176224 60.48 
" clip-path="url(#p6d53d9bb84)" style="fill: none; stroke: #cccccc; stroke-width: 0.8; stroke-linecap: round"/>
     </g>
     <g id="text_7">
      <text style="fill: #262626; font: 20px 'Arial', 'DejaVu Sans', 'Liberation Sans', 'Bitstream Vera Sans', sans-serif; text-anchor: middle" x="533.176224" y="469.875625" transform="rotate(-0 533.176224 469.875625)">400</text>
     </g>
    </g>
    <g id="xtick_8">
     <g id="line2d_8">
      <path d="M 606.063267 448.56 
L 606.063267 60.48 
" clip-path="url(#p6d53d9bb84)" style="fill: none; stroke: #cccccc; stroke-width: 0.8; stroke-linecap: round"/>
     </g>
     <g id="text_8">
      <text style="fill: #262626; font: 20px 'Arial', 'DejaVu Sans', 'Liberation Sans', 'Bitstream Vera Sans', sans-serif; text-anchor: middle" x="606.063267" y="469.875625" transform="rotate(-0 606.063267 469.875625)">600</text>
     </g>
    </g>
    <g id="text_9">
     <!-- $x_{1}$ -->
     <g style="fill: #262626" transform="translate(358.3 492.16625)">
      <text>
       <tspan style="font: oblique 20px 'DejaVu Sans'" x="0" y="-0.0625">x</tspan>
       <tspan style="font: 14px 'DejaVu Sans'" x="11.835938" y="3.21875">1</tspan>
      </text>
     </g>
    </g>
   </g>
   <g id="matplotlib.axis_2">
    <g id="ytick_1">
     <g id="line2d_9">
      <path d="M 90 411.003783 
L 648 411.003783 
" clip-path="url(#p6d53d9bb84)" style="fill: none; stroke: #cccccc; stroke-width: 0.8; stroke-linecap: round"/>
     </g>
     <g id="text_10">
      <text style="fill: #262626; font: 20px 'Arial', 'DejaVu Sans', 'Liberation Sans', 'Bitstream Vera Sans', sans-serif; text-anchor: end" x="83" y="418.161595" transform="rotate(-0 83 418.161595)">−1000</text>
     </g>
    </g>
    <g id="ytick_2">
     <g id="line2d_10">
      <path d="M 90 352.966367 
L 648 352.966367 
" clip-path="url(#p6d53d9bb84)" style="fill: none; stroke: #cccccc; stroke-width: 0.8; stroke-linecap: round"/>
     </g>
     <g id="text_11">
      <text style="fill: #262626; font: 20px 'Arial', 'DejaVu Sans', 'Liberation Sans', 'Bitstream Vera Sans', sans-serif; text-anchor: end" x="83" y="360.12418" transform="rotate(-0 83 360.12418)">−800</text>
     </g>
    </g>
    <g id="ytick_3">
     <g id="line2d_11">
      <path d="M 90 294.928952 
L 648 294.928952 
" clip-path="url(#p6d53d9bb84)" style="fill: none; stroke: #cccccc; stroke-width: 0.8; stroke-linecap: round"/>
     </g>
     <g id="text_12">
      <text style="fill: #262626; font: 20px 'Arial', 'DejaVu Sans', 'Liberation Sans', 'Bitstream Vera Sans', sans-serif; text-anchor: end" x="83" y="302.086764" transform="rotate(-0 83 302.086764)">−600</text>
     </g>
    </g>
    <g id="ytick_4">
     <g id="line2d_12">
      <path d="M 90 236.891536 
L 648 236.891536 
" clip-path="url(#p6d53d9bb84)" style="fill: none; stroke: #cccccc; stroke-width: 0.8; stroke-linecap: round"/>
     </g>
     <g id="text_13">
      <text style="fill: #262626; font: 20px 'Arial', 'DejaVu Sans', 'Liberation Sans', 'Bitstream Vera Sans', sans-serif; text-anchor: end" x="83" y="244.049349" transform="rotate(-0 83 244.049349)">−400</text>
     </g>
    </g>
    <g id="ytick_5">
     <g id="line2d_13">
      <path d="M 90 178.854121 
L 648 178.854121 
" clip-path="url(#p6d53d9bb84)" style="fill: none; stroke: #cccccc; stroke-width: 0.8; stroke-linecap: round"/>
     </g>
     <g id="text_14">
      <text style="fill: #262626; font: 20px 'Arial', 'DejaVu Sans', 'Liberation Sans', 'Bitstream Vera Sans', sans-serif; text-anchor: end" x="83" y="186.011933" transform="rotate(-0 83 186.011933)">−200</text>
     </g>
    </g>
    <g id="ytick_6">
     <g id="line2d_14">
      <path d="M 90 120.816705 
L 648 120.816705 
" clip-path="url(#p6d53d9bb84)" style="fill: none; stroke: #cccccc; stroke-width: 0.8; stroke-linecap: round"/>
     </g>
     <g id="text_15">
      <text style="fill: #262626; font: 20px 'Arial', 'DejaVu Sans', 'Liberation Sans', 'Bitstream Vera Sans', sans-serif; text-anchor: end" x="83" y="127.974518" transform="rotate(-0 83 127.974518)">0</text>
     </g>
    </g>
    <g id="ytick_7">
     <g id="line2d_15">
      <path d="M 90 62.77929 
L 648 62.77929 
" clip-path="url(#p6d53d9bb84)" style="fill: none; stroke: #cccccc; stroke-width: 0.8; stroke-linecap: round"/>
     </g>
     <g id="text_16">
      <text style="fill: #262626; font: 20px 'Arial', 'DejaVu Sans', 'Liberation Sans', 'Bitstream Vera Sans', sans-serif; text-anchor: end" x="83" y="69.937103" transform="rotate(-0 83 69.937103)">200</text>
     </g>
    </g>
    <g id="text_17">
     <!-- $x_{3}$ -->
     <g style="fill: #262626" transform="translate(18.85625 265.22) rotate(-90)">
      <text>
       <tspan style="font: oblique 20px 'DejaVu Sans'" x="0" y="-0.0625">x</tspan>
       <tspan style="font: 14px 'DejaVu Sans'" x="11.835938" y="3.21875">3</tspan>
      </text>
     </g>
    </g>
   </g>
   <g id="line2d_16">
    <path d="M 389.224313 120.816705 
L 389.033714 120.815492 
L 388.865265 89.110296 
L 404.701435 133.092878 
L 329.758444 119.07532 
L 301.138944 131.365742 
L 622.636364 121.528141 
L 546.980459 128.353258 
L 115.363636 123.398801 
L 394.668283 122.58826 
L 389.732452 109.498766 
L 398.660744 123.549718 
L 387.288319 430.92 
L 399.459138 123.343714 
L 388.14003 78.12 
L 398.946399 122.967905 
L 389.605062 109.689082 
L 397.901741 122.530354 
L 390.988879 115.859277 
L 396.871334 122.119993 
L 391.975546 118.005163 
L 396.094603 121.74457 
L 392.724637 119.111992 
L 395.488557 121.421741 
L 393.252859 119.733423 
L 395.038374 121.149399 
L 393.643601 120.105348 
L 394.748585 120.971316 
L 393.857437 120.28942 
L 394.590903 120.872426 
L 393.963785 120.371245 
L 394.52437 120.830819 
L 394.005144 120.414722 
L 394.470359 120.780002 
L 394.078837 120.481168 
L 394.396398 120.726254 
L 394.138493 120.506378 
L 394.400403 120.738948 
L 394.111725 120.50746 
L 394.370077 120.709511 
L 394.153338 120.523904 
L 394.375063 120.718363 
L 394.136895 120.513103 
L 394.383139 120.729445 
L 394.118039 120.498154 
L 394.39819 120.729503 
L 394.132395 120.510957 
L 394.383454 120.698044 
L 394.193891 120.575254 
L 394.29676 120.663304 
" clip-path="url(#p6d53d9bb84)" style="fill: none; stroke: #ff0000; stroke-width: 3; stroke-linecap: round"/>
   </g>
   <g id="line2d_17">
    <defs>
     <path id="mfd65e095b1" d="M 0 3 
C 0.795609 3 1.55874 2.683901 2.12132 2.12132 
C 2.683901 1.55874 3 0.795609 3 0 
C 3 -0.795609 2.683901 -1.55874 2.12132 -2.12132 
C 1.55874 -2.683901 0.795609 -3 0 -3 
C -0.795609 -3 -1.55874 -2.683901 -2.12132 -2.12132 
C -2.683901 -1.55874 -3 -0.795609 -3 0 
C -3 0.795609 -2.683901 1.55874 -2.12132 2.12132 
C -1.55874 2.683901 -0.795609 3 0 3 
z
" style="stroke: #ff0000"/>
    </defs>
    <g clip-path="url(#p6d53d9bb84)">
     <use xlink:href="#mfd65e095b1" x="394.29676" y="120.663304" style="fill: #ff0000; stroke: #ff0000"/>
    </g>
   </g>
   <g id="patch_3">
    <path d="M 90 448.56 
L 90 60.48 
" style="fill: none; stroke: #cccccc; stroke-width: 0.8; stroke-linejoin: miter; stroke-linecap: square"/>
   </g>
   <g id="patch_4">
    <path d="M 648 448.56 
L 648 60.48 
" style="fill: none; stroke: #cccccc; stroke-width: 0.8; stroke-linejoin: miter; stroke-linecap: square"/>
   </g>
   <g id="patch_5">
    <path d="M 90 448.56 
L 648 448.56 
" style="fill: none; stroke: #cccccc; stroke-width: 0.8; stroke-linejoin: miter; stroke-linecap: square"/>
   </g>
   <g id="patch_6">
    <path d="M 90 60.48 
L 648 60.48 
" style="fill: none; stroke: #cccccc; stroke-width: 0.8; stroke-linejoin: miter; stroke-linecap: square"/>
   </g>
   <g id="line2d_18">
    <defs>
     <path id="m78c4fc76ad" d="M 0 3 
C 0.795609 3 1.55874 2.683901 2.12132 2.12132 
C 2.683901 1.55874 3 0.795609 3 0 
C 3 -0.795609 2.683901 -1.55874 2.12132 -2.12132 
C 1.55874 -2.683901 0.795609 -3 0 -3 
C -0.795609 -3 -1.55874 -2.683901 -2.12132 -2.12132 
C -2.683901 -1.55874 -3 -0.795609 -3 0 
C -3 0.795609 -2.683901 1.55874 -2.12132 2.12132 
C -1.55874 2.683901 -0.795609 3 0 3 
z
" style="stroke: #0000ff"/>
    </defs>
    <g clip-path="url(#p6d53d9bb84)">
     <use xlink:href="#m78c4fc76ad" x="389.224313" y="120.816705" style="fill: #0000ff; stroke: #0000ff"/>
    </g>
   </g>
   <g id="legend_1">
    <g id="patch_7">
     <path d="M 366.840625 133.06125 
L 634 133.06125 
Q 638 133.06125 638 129.06125 
L 638 74.48 
Q 638 70.48 634 70.48 
L 366.840625 70.48 
Q 362.840625 70.48 362.840625 74.48 
L 362.840625 129.06125 
Q 362.840625 133.06125 366.840625 133.06125 
z
" style="fill: #ffffff; opacity: 0.8; stroke: #cccccc; stroke-linejoin: miter"/>
    </g>
    <g id="line2d_19">
     <g>
      <use xlink:href="#m78c4fc76ad" x="390.840625" y="85.795625" style="fill: #0000ff; stroke: #0000ff"/>
     </g>
    </g>
    <g id="text_18">
     <text style="fill: #262626; font: 20px 'Arial', 'DejaVu Sans', 'Liberation Sans', 'Bitstream Vera Sans', sans-serif; text-anchor: start" x="426.840625" y="92.795625" transform="rotate(-0 426.840625 92.795625)">Начальное состояние</text>
    </g>
    <g id="line2d_20">
     <g>
      <use xlink:href="#mfd65e095b1" x="390.840625" y="114.08625" style="fill: #ff0000; stroke: #ff0000"/>
     </g>
    </g>
    <g id="text_19">
     <text style="fill: #262626; font: 20px 'Arial', 'DejaVu Sans', 'Liberation Sans', 'Bitstream Vera Sans', sans-serif; text-anchor: start" x="426.840625" y="121.08625" transform="rotate(-0 426.840625 121.08625)">Конечное состояние</text>
    </g>
   </g>
  </g>
 </g>
 <defs>
  <clipPath id="p6d53d9bb84">
   <rect x="90" y="60.48" width="558" height="388.08"/>
  </clipPath>
 </defs>
</svg>
