<?xml version="1.0" encoding="utf-8" standalone="no"?>
<!DOCTYPE svg PUBLIC "-//W3C//DTD SVG 1.1//EN"
  "http://www.w3.org/Graphics/SVG/1.1/DTD/svg11.dtd">
<svg xmlns:xlink="http://www.w3.org/1999/xlink" width="720pt" height="504pt" viewBox="0 0 720 504" xmlns="http://www.w3.org/2000/svg" version="1.1">
 <metadata>
  <rdf:RDF xmlns:dc="http://purl.org/dc/elements/1.1/" xmlns:cc="http://creativecommons.org/ns#" xmlns:rdf="http://www.w3.org/1999/02/22-rdf-syntax-ns#">
   <cc:Work>
    <dc:type rdf:resource="http://purl.org/dc/dcmitype/StillImage"/>
    <dc:date>2024-09-28T15:08:47.114603</dc:date>
    <dc:format>image/svg+xml</dc:format>
    <dc:creator>
     <cc:Agent>
      <dc:title>Matplotlib v3.7.2, https://matplotlib.org/</dc:title>
     </cc:Agent>
    </dc:creator>
   </cc:Work>
  </rdf:RDF>
 </metadata>
 <defs>
  <style type="text/css">*{stroke-linejoin: round; stroke-linecap: butt}</style>
 </defs>
 <g id="figure_1">
  <g id="patch_1">
   <path d="M 0 504 
L 720 504 
L 720 0 
L 0 0 
z
" style="fill: #ffffff"/>
  </g>
  <g id="axes_1">
   <g id="patch_2">
    <path d="M 90 448.56 
L 648 448.56 
L 648 60.48 
L 90 60.48 
z
" style="fill: #ffffff"/>
   </g>
   <g id="matplotlib.axis_1">
    <g id="xtick_1">
     <g id="line2d_1">
      <path d="M 90 448.56 
L 90 60.48 
" clip-path="url(#pf81f123e34)" style="fill: none; stroke: #cccccc; stroke-width: 0.8; stroke-linecap: round"/>
     </g>
     <g id="text_1">
      <text style="fill: #262626; font: 20px 'Arial', 'DejaVu Sans', 'Liberation Sans', 'Bitstream Vera Sans', sans-serif; text-anchor: middle" x="90" y="469.875625" transform="rotate(-0 90 469.875625)">0</text>
     </g>
    </g>
    <g id="xtick_2">
     <g id="line2d_2">
      <path d="M 201.6 448.56 
L 201.6 60.48 
" clip-path="url(#pf81f123e34)" style="fill: none; stroke: #cccccc; stroke-width: 0.8; stroke-linecap: round"/>
     </g>
     <g id="text_2">
      <text style="fill: #262626; font: 20px 'Arial', 'DejaVu Sans', 'Liberation Sans', 'Bitstream Vera Sans', sans-serif; text-anchor: middle" x="201.6" y="469.875625" transform="rotate(-0 201.6 469.875625)">20</text>
     </g>
    </g>
    <g id="xtick_3">
     <g id="line2d_3">
      <path d="M 313.2 448.56 
L 313.2 60.48 
" clip-path="url(#pf81f123e34)" style="fill: none; stroke: #cccccc; stroke-width: 0.8; stroke-linecap: round"/>
     </g>
     <g id="text_3">
      <text style="fill: #262626; font: 20px 'Arial', 'DejaVu Sans', 'Liberation Sans', 'Bitstream Vera Sans', sans-serif; text-anchor: middle" x="313.2" y="469.875625" transform="rotate(-0 313.2 469.875625)">40</text>
     </g>
    </g>
    <g id="xtick_4">
     <g id="line2d_4">
      <path d="M 424.8 448.56 
L 424.8 60.48 
" clip-path="url(#pf81f123e34)" style="fill: none; stroke: #cccccc; stroke-width: 0.8; stroke-linecap: round"/>
     </g>
     <g id="text_4">
      <text style="fill: #262626; font: 20px 'Arial', 'DejaVu Sans', 'Liberation Sans', 'Bitstream Vera Sans', sans-serif; text-anchor: middle" x="424.8" y="469.875625" transform="rotate(-0 424.8 469.875625)">60</text>
     </g>
    </g>
    <g id="xtick_5">
     <g id="line2d_5">
      <path d="M 536.4 448.56 
L 536.4 60.48 
" clip-path="url(#pf81f123e34)" style="fill: none; stroke: #cccccc; stroke-width: 0.8; stroke-linecap: round"/>
     </g>
     <g id="text_5">
      <text style="fill: #262626; font: 20px 'Arial', 'DejaVu Sans', 'Liberation Sans', 'Bitstream Vera Sans', sans-serif; text-anchor: middle" x="536.4" y="469.875625" transform="rotate(-0 536.4 469.875625)">80</text>
     </g>
    </g>
    <g id="xtick_6">
     <g id="line2d_6">
      <path d="M 648 448.56 
L 648 60.48 
" clip-path="url(#pf81f123e34)" style="fill: none; stroke: #cccccc; stroke-width: 0.8; stroke-linecap: round"/>
     </g>
     <g id="text_6">
      <text style="fill: #262626; font: 20px 'Arial', 'DejaVu Sans', 'Liberation Sans', 'Bitstream Vera Sans', sans-serif; text-anchor: middle" x="648" y="469.875625" transform="rotate(-0 648 469.875625)">100</text>
     </g>
    </g>
    <g id="text_7">
     <text style="fill: #262626; font: 20px 'Arial', 'DejaVu Sans', 'Liberation Sans', 'Bitstream Vera Sans', sans-serif; text-anchor: middle" x="369" y="492.16625" transform="rotate(-0 369 492.16625)">Время, дни</text>
    </g>
   </g>
   <g id="matplotlib.axis_2">
    <g id="ytick_1">
     <g id="line2d_7">
      <path d="M 90 375.318641 
L 648 375.318641 
" clip-path="url(#pf81f123e34)" style="fill: none; stroke: #cccccc; stroke-width: 0.8; stroke-linecap: round"/>
     </g>
     <g id="text_8">
      <text style="fill: #262626; font: 20px 'Arial', 'DejaVu Sans', 'Liberation Sans', 'Bitstream Vera Sans', sans-serif; text-anchor: end" x="83" y="382.476453" transform="rotate(-0 83 382.476453)">0.2</text>
     </g>
    </g>
    <g id="ytick_2">
     <g id="line2d_8">
      <path d="M 90 294.443936 
L 648 294.443936 
" clip-path="url(#pf81f123e34)" style="fill: none; stroke: #cccccc; stroke-width: 0.8; stroke-linecap: round"/>
     </g>
     <g id="text_9">
      <text style="fill: #262626; font: 20px 'Arial', 'DejaVu Sans', 'Liberation Sans', 'Bitstream Vera Sans', sans-serif; text-anchor: end" x="83" y="301.601749" transform="rotate(-0 83 301.601749)">0.4</text>
     </g>
    </g>
    <g id="ytick_3">
     <g id="line2d_9">
      <path d="M 90 213.569232 
L 648 213.569232 
" clip-path="url(#pf81f123e34)" style="fill: none; stroke: #cccccc; stroke-width: 0.8; stroke-linecap: round"/>
     </g>
     <g id="text_10">
      <text style="fill: #262626; font: 20px 'Arial', 'DejaVu Sans', 'Liberation Sans', 'Bitstream Vera Sans', sans-serif; text-anchor: end" x="83" y="220.727045" transform="rotate(-0 83 220.727045)">0.6</text>
     </g>
    </g>
    <g id="ytick_4">
     <g id="line2d_10">
      <path d="M 90 132.694528 
L 648 132.694528 
" clip-path="url(#pf81f123e34)" style="fill: none; stroke: #cccccc; stroke-width: 0.8; stroke-linecap: round"/>
     </g>
     <g id="text_11">
      <text style="fill: #262626; font: 20px 'Arial', 'DejaVu Sans', 'Liberation Sans', 'Bitstream Vera Sans', sans-serif; text-anchor: end" x="83" y="139.85234" transform="rotate(-0 83 139.85234)">0.8</text>
     </g>
    </g>
    <g id="text_12">
     <text style="fill: #262626; font: 20px 'Arial', 'DejaVu Sans', 'Liberation Sans', 'Bitstream Vera Sans', sans-serif; text-anchor: middle" x="47.225" y="254.52" transform="rotate(-90 47.225 254.52)">Управление</text>
    </g>
   </g>
   <g id="line2d_11">
    <path d="M 90 430.92 
L 90.0558 430.92 
L 92.1762 291.906634 
L 93.4038 225.905571 
L 94.464 180.205535 
L 95.4126 148.193803 
L 96.3054 125.052973 
L 97.1424 108.707345 
L 97.9236 97.401112 
L 98.649 89.753313 
L 99.3744 84.379411 
L 99.9882 81.30727 
L 100.5462 79.4958 
L 101.0484 78.544731 
L 101.439 78.190104 
L 101.8296 78.131411 
L 102.2202 78.3352 
L 102.6666 78.851137 
L 103.2246 79.862911 
L 103.95 81.685415 
L 104.8986 84.748404 
L 106.1262 89.540577 
L 107.856 97.299801 
L 110.646 110.997231 
L 117.9558 147.173143 
L 121.6386 164.114457 
L 125.154 179.258275 
L 128.6136 193.187621 
L 132.0174 205.98787 
L 135.4212 217.940121 
L 138.825 229.095904 
L 142.2288 239.505963 
L 145.6884 249.372474 
L 149.148 258.566669 
L 152.6076 267.133384 
L 156.0672 275.114394 
L 159.5268 282.548563 
L 163.0422 289.579706 
L 166.5576 296.118796 
L 170.1288 302.291584 
L 173.7 308.02236 
L 177.327 313.420842 
L 180.954 318.423055 
L 184.6368 323.124528 
L 188.3754 327.534884 
L 192.114 331.605693 
L 195.9084 335.414646 
L 199.8144 339.020587 
L 203.7762 342.375611 
L 207.8496 345.531647 
L 211.9788 348.450783 
L 216.2196 351.178715 
L 220.6278 353.748204 
L 225.1476 356.12529 
L 229.8348 358.339775 
L 234.7452 360.411697 
L 239.8788 362.333314 
L 245.2356 364.09992 
L 250.9272 365.739694 
L 256.9536 367.241165 
L 263.3706 368.608429 
L 270.2898 369.852111 
L 277.767 370.967551 
L 285.9696 371.963257 
L 295.065 372.839537 
L 305.3322 373.599996 
L 317.106 374.243148 
L 331.0002 374.772286 
L 348.0192 375.188877 
L 370.116 375.49526 
L 401.8662 375.694825 
L 458.3358 375.793652 
L 647.9442 375.813302 
L 647.9442 375.813302 
" clip-path="url(#pf81f123e34)" style="fill: none; stroke: #000000; stroke-width: 1.5; stroke-linecap: round"/>
   </g>
   <g id="patch_3">
    <path d="M 90 448.56 
L 90 60.48 
" style="fill: none; stroke: #cccccc; stroke-width: 0.8; stroke-linejoin: miter; stroke-linecap: square"/>
   </g>
   <g id="patch_4">
    <path d="M 648 448.56 
L 648 60.48 
" style="fill: none; stroke: #cccccc; stroke-width: 0.8; stroke-linejoin: miter; stroke-linecap: square"/>
   </g>
   <g id="patch_5">
    <path d="M 90 448.56 
L 648 448.56 
" style="fill: none; stroke: #cccccc; stroke-width: 0.8; stroke-linejoin: miter; stroke-linecap: square"/>
   </g>
   <g id="patch_6">
    <path d="M 90 60.48 
L 648 60.48 
" style="fill: none; stroke: #cccccc; stroke-width: 0.8; stroke-linejoin: miter; stroke-linecap: square"/>
   </g>
   <g id="legend_1">
    <g id="patch_7">
     <path d="M 533.8 104.770625 
L 634 104.770625 
Q 638 104.770625 638 100.770625 
L 638 74.48 
Q 638 70.48 634 70.48 
L 533.8 70.48 
Q 529.8 70.48 529.8 74.48 
L 529.8 100.770625 
Q 529.8 104.770625 533.8 104.770625 
z
" style="fill: #ffffff; opacity: 0.8; stroke: #cccccc; stroke-linejoin: miter"/>
    </g>
    <g id="line2d_12">
     <path d="M 537.8 85.795625 
L 557.8 85.795625 
L 577.8 85.795625 
" style="fill: none; stroke: #000000; stroke-width: 1.5; stroke-linecap: round"/>
    </g>
    <g id="text_13">
     <!-- $u(t)$ -->
     <g style="fill: #262626" transform="translate(593.8 92.795625)">
      <text>
       <tspan style="font: oblique 20px 'DejaVu Sans'" x="0 20.478516" y="-0.828125">ut</tspan>
       <tspan style="font: 20px 'DejaVu Sans'" x="12.675781 28.320312" y="-0.828125">()</tspan>
      </text>
     </g>
    </g>
   </g>
  </g>
 </g>
 <defs>
  <clipPath id="pf81f123e34">
   <rect x="90" y="60.48" width="558" height="388.08"/>
  </clipPath>
 </defs>
</svg>
