<?xml version="1.0" encoding="utf-8" standalone="no"?>
<!DOCTYPE svg PUBLIC "-//W3C//DTD SVG 1.1//EN"
  "http://www.w3.org/Graphics/SVG/1.1/DTD/svg11.dtd">
<svg xmlns:xlink="http://www.w3.org/1999/xlink" width="720pt" height="504pt" viewBox="0 0 720 504" xmlns="http://www.w3.org/2000/svg" version="1.1">
 <metadata>
  <rdf:RDF xmlns:dc="http://purl.org/dc/elements/1.1/" xmlns:cc="http://creativecommons.org/ns#" xmlns:rdf="http://www.w3.org/1999/02/22-rdf-syntax-ns#">
   <cc:Work>
    <dc:type rdf:resource="http://purl.org/dc/dcmitype/StillImage"/>
    <dc:date>2024-09-23T20:20:27.153319</dc:date>
    <dc:format>image/svg+xml</dc:format>
    <dc:creator>
     <cc:Agent>
      <dc:title>Matplotlib v3.7.2, https://matplotlib.org/</dc:title>
     </cc:Agent>
    </dc:creator>
   </cc:Work>
  </rdf:RDF>
 </metadata>
 <defs>
  <style type="text/css">*{stroke-linejoin: round; stroke-linecap: butt}</style>
 </defs>
 <g id="figure_1">
  <g id="patch_1">
   <path d="M 0 504 
L 720 504 
L 720 0 
L 0 0 
z
" style="fill: #ffffff"/>
  </g>
  <g id="axes_1">
   <g id="patch_2">
    <path d="M 90 448.56 
L 648 448.56 
L 648 60.48 
L 90 60.48 
z
" style="fill: #ffffff"/>
   </g>
   <g id="matplotlib.axis_1">
    <g id="xtick_1">
     <g id="line2d_1">
      <path d="M 90 448.56 
L 90 60.48 
" clip-path="url(#p9f6d15d427)" style="fill: none; stroke: #cccccc; stroke-width: 0.8; stroke-linecap: round"/>
     </g>
     <g id="text_1">
      <text style="fill: #262626; font: 20px 'Arial', 'DejaVu Sans', 'Liberation Sans', 'Bitstream Vera Sans', sans-serif; text-anchor: middle" x="90" y="469.875625" transform="rotate(-0 90 469.875625)">0</text>
     </g>
    </g>
    <g id="xtick_2">
     <g id="line2d_2">
      <path d="M 201.6 448.56 
L 201.6 60.48 
" clip-path="url(#p9f6d15d427)" style="fill: none; stroke: #cccccc; stroke-width: 0.8; stroke-linecap: round"/>
     </g>
     <g id="text_2">
      <text style="fill: #262626; font: 20px 'Arial', 'DejaVu Sans', 'Liberation Sans', 'Bitstream Vera Sans', sans-serif; text-anchor: middle" x="201.6" y="469.875625" transform="rotate(-0 201.6 469.875625)">20</text>
     </g>
    </g>
    <g id="xtick_3">
     <g id="line2d_3">
      <path d="M 313.2 448.56 
L 313.2 60.48 
" clip-path="url(#p9f6d15d427)" style="fill: none; stroke: #cccccc; stroke-width: 0.8; stroke-linecap: round"/>
     </g>
     <g id="text_3">
      <text style="fill: #262626; font: 20px 'Arial', 'DejaVu Sans', 'Liberation Sans', 'Bitstream Vera Sans', sans-serif; text-anchor: middle" x="313.2" y="469.875625" transform="rotate(-0 313.2 469.875625)">40</text>
     </g>
    </g>
    <g id="xtick_4">
     <g id="line2d_4">
      <path d="M 424.8 448.56 
L 424.8 60.48 
" clip-path="url(#p9f6d15d427)" style="fill: none; stroke: #cccccc; stroke-width: 0.8; stroke-linecap: round"/>
     </g>
     <g id="text_4">
      <text style="fill: #262626; font: 20px 'Arial', 'DejaVu Sans', 'Liberation Sans', 'Bitstream Vera Sans', sans-serif; text-anchor: middle" x="424.8" y="469.875625" transform="rotate(-0 424.8 469.875625)">60</text>
     </g>
    </g>
    <g id="xtick_5">
     <g id="line2d_5">
      <path d="M 536.4 448.56 
L 536.4 60.48 
" clip-path="url(#p9f6d15d427)" style="fill: none; stroke: #cccccc; stroke-width: 0.8; stroke-linecap: round"/>
     </g>
     <g id="text_5">
      <text style="fill: #262626; font: 20px 'Arial', 'DejaVu Sans', 'Liberation Sans', 'Bitstream Vera Sans', sans-serif; text-anchor: middle" x="536.4" y="469.875625" transform="rotate(-0 536.4 469.875625)">80</text>
     </g>
    </g>
    <g id="xtick_6">
     <g id="line2d_6">
      <path d="M 648 448.56 
L 648 60.48 
" clip-path="url(#p9f6d15d427)" style="fill: none; stroke: #cccccc; stroke-width: 0.8; stroke-linecap: round"/>
     </g>
     <g id="text_6">
      <text style="fill: #262626; font: 20px 'Arial', 'DejaVu Sans', 'Liberation Sans', 'Bitstream Vera Sans', sans-serif; text-anchor: middle" x="648" y="469.875625" transform="rotate(-0 648 469.875625)">100</text>
     </g>
    </g>
    <g id="text_7">
     <text style="fill: #262626; font: 20px 'Arial', 'DejaVu Sans', 'Liberation Sans', 'Bitstream Vera Sans', sans-serif; text-anchor: middle" x="369" y="492.16625" transform="rotate(-0 369 492.16625)">Время, дни</text>
    </g>
   </g>
   <g id="matplotlib.axis_2">
    <g id="ytick_1">
     <g id="line2d_7">
      <path d="M 90 404.149025 
L 648 404.149025 
" clip-path="url(#p9f6d15d427)" style="fill: none; stroke: #cccccc; stroke-width: 0.8; stroke-linecap: round"/>
     </g>
     <g id="text_8">
      <text style="fill: #262626; font: 20px 'Arial', 'DejaVu Sans', 'Liberation Sans', 'Bitstream Vera Sans', sans-serif; text-anchor: end" x="83" y="411.306837" transform="rotate(-0 83 411.306837)">6</text>
     </g>
    </g>
    <g id="ytick_2">
     <g id="line2d_8">
      <path d="M 90 353.268145 
L 648 353.268145 
" clip-path="url(#p9f6d15d427)" style="fill: none; stroke: #cccccc; stroke-width: 0.8; stroke-linecap: round"/>
     </g>
     <g id="text_9">
      <text style="fill: #262626; font: 20px 'Arial', 'DejaVu Sans', 'Liberation Sans', 'Bitstream Vera Sans', sans-serif; text-anchor: end" x="83" y="360.425957" transform="rotate(-0 83 360.425957)">8</text>
     </g>
    </g>
    <g id="ytick_3">
     <g id="line2d_9">
      <path d="M 90 302.387264 
L 648 302.387264 
" clip-path="url(#p9f6d15d427)" style="fill: none; stroke: #cccccc; stroke-width: 0.8; stroke-linecap: round"/>
     </g>
     <g id="text_10">
      <text style="fill: #262626; font: 20px 'Arial', 'DejaVu Sans', 'Liberation Sans', 'Bitstream Vera Sans', sans-serif; text-anchor: end" x="83" y="309.545077" transform="rotate(-0 83 309.545077)">10</text>
     </g>
    </g>
    <g id="ytick_4">
     <g id="line2d_10">
      <path d="M 90 251.506384 
L 648 251.506384 
" clip-path="url(#p9f6d15d427)" style="fill: none; stroke: #cccccc; stroke-width: 0.8; stroke-linecap: round"/>
     </g>
     <g id="text_11">
      <text style="fill: #262626; font: 20px 'Arial', 'DejaVu Sans', 'Liberation Sans', 'Bitstream Vera Sans', sans-serif; text-anchor: end" x="83" y="258.664197" transform="rotate(-0 83 258.664197)">12</text>
     </g>
    </g>
    <g id="ytick_5">
     <g id="line2d_11">
      <path d="M 90 200.625504 
L 648 200.625504 
" clip-path="url(#p9f6d15d427)" style="fill: none; stroke: #cccccc; stroke-width: 0.8; stroke-linecap: round"/>
     </g>
     <g id="text_12">
      <text style="fill: #262626; font: 20px 'Arial', 'DejaVu Sans', 'Liberation Sans', 'Bitstream Vera Sans', sans-serif; text-anchor: end" x="83" y="207.783316" transform="rotate(-0 83 207.783316)">14</text>
     </g>
    </g>
    <g id="ytick_6">
     <g id="line2d_12">
      <path d="M 90 149.744624 
L 648 149.744624 
" clip-path="url(#p9f6d15d427)" style="fill: none; stroke: #cccccc; stroke-width: 0.8; stroke-linecap: round"/>
     </g>
     <g id="text_13">
      <text style="fill: #262626; font: 20px 'Arial', 'DejaVu Sans', 'Liberation Sans', 'Bitstream Vera Sans', sans-serif; text-anchor: end" x="83" y="156.902436" transform="rotate(-0 83 156.902436)">16</text>
     </g>
    </g>
    <g id="ytick_7">
     <g id="line2d_13">
      <path d="M 90 98.863743 
L 648 98.863743 
" clip-path="url(#p9f6d15d427)" style="fill: none; stroke: #cccccc; stroke-width: 0.8; stroke-linecap: round"/>
     </g>
     <g id="text_14">
      <text style="fill: #262626; font: 20px 'Arial', 'DejaVu Sans', 'Liberation Sans', 'Bitstream Vera Sans', sans-serif; text-anchor: end" x="83" y="106.021556" transform="rotate(-0 83 106.021556)">18</text>
     </g>
    </g>
    <g id="text_15">
     <text style="fill: #262626; font: 20px 'Arial', 'DejaVu Sans', 'Liberation Sans', 'Bitstream Vera Sans', sans-serif; text-anchor: middle" x="52.546875" y="254.52" transform="rotate(-90 52.546875 254.52)">Популяция, ед/л</text>
    </g>
   </g>
   <g id="line2d_14">
    <path d="M 90 429.589465 
L 90.0558 430.92 
L 90.1116 430.223231 
L 92.6226 399.635553 
L 95.1336 371.728731 
L 97.6446 346.256832 
L 100.1556 323.002011 
L 102.6666 301.768417 
L 105.1776 282.378745 
L 107.6886 264.671902 
L 110.1996 248.501237 
L 112.7106 233.7331 
L 115.2216 220.245598 
L 117.7884 207.666266 
L 120.3552 196.200623 
L 122.922 185.749987 
L 125.4888 176.224446 
L 128.0556 167.542068 
L 130.6224 159.62819 
L 133.1892 152.414768 
L 135.8118 145.703511 
L 138.4344 139.598549 
L 141.057 134.045099 
L 143.7354 128.890957 
L 146.4138 124.211853 
L 149.148 119.879798 
L 151.938 115.878783 
L 154.728 112.261119 
L 157.5738 108.927955 
L 160.4754 105.864273 
L 163.4886 103.004811 
L 166.5576 100.395153 
L 169.7382 97.979008 
L 173.0304 95.753761 
L 176.49 93.68353 
L 180.117 91.773594 
L 183.9114 90.025883 
L 187.9848 88.397853 
L 192.2814 86.921246 
L 196.9128 85.566244 
L 201.9348 84.331651 
L 207.4032 83.218926 
L 213.4296 82.222066 
L 220.1814 81.334804 
L 227.826 80.559552 
L 236.6424 79.894579 
L 247.077 79.337621 
L 259.8552 78.887695 
L 276.2604 78.544624 
L 299.0268 78.306679 
L 335.9106 78.169303 
L 425.0232 78.121976 
L 647.9442 78.120001 
L 647.9442 78.120001 
" clip-path="url(#p9f6d15d427)" style="fill: none; stroke: #008000; stroke-width: 1.5; stroke-linecap: round"/>
   </g>
   <g id="line2d_15">
    <path d="M 90 302.387264 
L 92.232 311.076996 
L 94.4082 318.646691 
L 96.5844 325.435851 
L 98.8164 331.687289 
L 101.1042 337.43731 
L 103.392 342.601167 
L 105.7356 347.355225 
L 108.135 351.726728 
L 110.5902 355.741595 
L 113.1012 359.424421 
L 115.668 362.798489 
L 118.2906 365.885793 
L 121.0248 368.762577 
L 123.8706 371.430319 
L 126.7722 373.848933 
L 129.8412 376.116591 
L 133.0218 378.190991 
L 136.3698 380.110355 
L 139.941 381.898582 
L 143.7354 383.545922 
L 147.753 385.047201 
L 152.1054 386.434034 
L 156.7926 387.693093 
L 161.9262 388.840146 
L 167.6178 389.879716 
L 173.9232 390.802098 
L 181.0656 391.617966 
L 189.2682 392.325623 
L 198.8658 392.924537 
L 210.4722 393.417988 
L 225.036 393.804652 
L 244.566 394.086874 
L 273.8052 394.266339 
L 330.0516 394.349495 
L 602.9694 394.362058 
L 647.9442 394.362059 
L 647.9442 394.362059 
" clip-path="url(#p9f6d15d427)" style="fill: none; stroke: #0000ff; stroke-width: 1.5; stroke-linecap: round"/>
   </g>
   <g id="line2d_16">
    <path d="M 90 78.12 
L 647.9442 78.12 
L 647.9442 78.12 
" clip-path="url(#p9f6d15d427)" style="fill: none; stroke-dasharray: 5.55,2.4; stroke-dashoffset: 0; stroke: #000000; stroke-width: 1.5"/>
   </g>
   <g id="patch_3">
    <path d="M 90 448.56 
L 90 60.48 
" style="fill: none; stroke: #cccccc; stroke-width: 0.8; stroke-linejoin: miter; stroke-linecap: square"/>
   </g>
   <g id="patch_4">
    <path d="M 648 448.56 
L 648 60.48 
" style="fill: none; stroke: #cccccc; stroke-width: 0.8; stroke-linejoin: miter; stroke-linecap: square"/>
   </g>
   <g id="patch_5">
    <path d="M 90 448.56 
L 648 448.56 
" style="fill: none; stroke: #cccccc; stroke-width: 0.8; stroke-linejoin: miter; stroke-linecap: square"/>
   </g>
   <g id="patch_6">
    <path d="M 90 60.48 
L 648 60.48 
" style="fill: none; stroke: #cccccc; stroke-width: 0.8; stroke-linejoin: miter; stroke-linecap: square"/>
   </g>
   <g id="legend_1">
    <g id="patch_7">
     <path d="M 548.6 166.86125 
L 634 166.86125 
Q 638 166.86125 638 162.86125 
L 638 74.48 
Q 638 70.48 634 70.48 
L 548.6 70.48 
Q 544.6 70.48 544.6 74.48 
L 544.6 162.86125 
Q 544.6 166.86125 548.6 166.86125 
z
" style="fill: #ffffff; opacity: 0.8; stroke: #cccccc; stroke-linejoin: miter"/>
    </g>
    <g id="line2d_17">
     <path d="M 552.6 85.795625 
L 572.6 85.795625 
L 592.6 85.795625 
" style="fill: none; stroke: #008000; stroke-width: 1.5; stroke-linecap: round"/>
    </g>
    <g id="text_16">
     <!-- $x_{1}$ -->
     <g style="fill: #262626" transform="translate(608.6 92.795625)">
      <text>
       <tspan style="font: oblique 20px 'DejaVu Sans'" x="0" y="-0.0625">x</tspan>
       <tspan style="font: 14px 'DejaVu Sans'" x="11.835938" y="3.21875">1</tspan>
      </text>
     </g>
    </g>
    <g id="line2d_18">
     <path d="M 552.6 114.08625 
L 572.6 114.08625 
L 592.6 114.08625 
" style="fill: none; stroke: #0000ff; stroke-width: 1.5; stroke-linecap: round"/>
    </g>
    <g id="text_17">
     <!-- $x_{2}$ -->
     <g style="fill: #262626" transform="translate(608.6 121.08625)">
      <text>
       <tspan style="font: oblique 20px 'DejaVu Sans'" x="0" y="-0.0625">x</tspan>
       <tspan style="font: 14px 'DejaVu Sans'" x="11.835938" y="3.21875">2</tspan>
      </text>
     </g>
    </g>
    <g id="line2d_19">
     <path d="M 552.6 146.26125 
L 572.6 146.26125 
L 592.6 146.26125 
" style="fill: none; stroke-dasharray: 5.55,2.4; stroke-dashoffset: 0; stroke: #000000; stroke-width: 1.5"/>
    </g>
    <g id="text_18">
     <!-- $x_{1}^{*}$ -->
     <g style="fill: #262626" transform="translate(608.6 153.26125)">
      <text>
       <tspan style="font: oblique 20px 'DejaVu Sans'" x="0" y="-0.953125">x</tspan>
       <tspan style="font: 14px 'DejaVu Sans'" x="11.835938 12.729167" y="4.515625 -8.609375">1*</tspan>
      </text>
     </g>
    </g>
   </g>
  </g>
 </g>
 <defs>
  <clipPath id="p9f6d15d427">
   <rect x="90" y="60.48" width="558" height="388.08"/>
  </clipPath>
 </defs>
</svg>
