<?xml version="1.0" encoding="utf-8" standalone="no"?>
<!DOCTYPE svg PUBLIC "-//W3C//DTD SVG 1.1//EN"
  "http://www.w3.org/Graphics/SVG/1.1/DTD/svg11.dtd">
<svg xmlns:xlink="http://www.w3.org/1999/xlink" width="720pt" height="504pt" viewBox="0 0 720 504" xmlns="http://www.w3.org/2000/svg" version="1.1">
 <metadata>
  <rdf:RDF xmlns:dc="http://purl.org/dc/elements/1.1/" xmlns:cc="http://creativecommons.org/ns#" xmlns:rdf="http://www.w3.org/1999/02/22-rdf-syntax-ns#">
   <cc:Work>
    <dc:type rdf:resource="http://purl.org/dc/dcmitype/StillImage"/>
    <dc:date>2024-09-22T13:35:21.473188</dc:date>
    <dc:format>image/svg+xml</dc:format>
    <dc:creator>
     <cc:Agent>
      <dc:title>Matplotlib v3.7.2, https://matplotlib.org/</dc:title>
     </cc:Agent>
    </dc:creator>
   </cc:Work>
  </rdf:RDF>
 </metadata>
 <defs>
  <style type="text/css">*{stroke-linejoin: round; stroke-linecap: butt}</style>
 </defs>
 <g id="figure_1">
  <g id="patch_1">
   <path d="M 0 504 
L 720 504 
L 720 0 
L 0 0 
z
" style="fill: #ffffff"/>
  </g>
  <g id="axes_1">
   <g id="patch_2">
    <path d="M 90 448.56 
L 648 448.56 
L 648 60.48 
L 90 60.48 
z
" style="fill: #ffffff"/>
   </g>
   <g id="matplotlib.axis_1">
    <g id="xtick_1">
     <g id="line2d_1">
      <defs>
       <path id="mbb3bd65584" d="M 0 0 
L 0 3.5 
" style="stroke: #000000; stroke-width: 0.8"/>
      </defs>
      <g>
       <use xlink:href="#mbb3bd65584" x="90" y="448.56" style="stroke: #000000; stroke-width: 0.8"/>
      </g>
     </g>
     <g id="text_1">
      <!-- 0 -->
      <g transform="translate(84.439063 469.875625) scale(0.2 -0.2)">
       <defs>
        <path id="ArialMT-30" d="M 266 2259 
Q 266 3072 433 3567 
Q 600 4063 929 4331 
Q 1259 4600 1759 4600 
Q 2128 4600 2406 4451 
Q 2684 4303 2865 4023 
Q 3047 3744 3150 3342 
Q 3253 2941 3253 2259 
Q 3253 1453 3087 958 
Q 2922 463 2592 192 
Q 2263 -78 1759 -78 
Q 1097 -78 719 397 
Q 266 969 266 2259 
z
M 844 2259 
Q 844 1131 1108 757 
Q 1372 384 1759 384 
Q 2147 384 2411 759 
Q 2675 1134 2675 2259 
Q 2675 3391 2411 3762 
Q 2147 4134 1753 4134 
Q 1366 4134 1134 3806 
Q 844 3388 844 2259 
z
" transform="scale(0.015625)"/>
       </defs>
       <use xlink:href="#ArialMT-30"/>
      </g>
     </g>
    </g>
    <g id="xtick_2">
     <g id="line2d_2">
      <g>
       <use xlink:href="#mbb3bd65584" x="201.6" y="448.56" style="stroke: #000000; stroke-width: 0.8"/>
      </g>
     </g>
     <g id="text_2">
      <!-- 20 -->
      <g transform="translate(190.478125 469.875625) scale(0.2 -0.2)">
       <defs>
        <path id="ArialMT-32" d="M 3222 541 
L 3222 0 
L 194 0 
Q 188 203 259 391 
Q 375 700 629 1000 
Q 884 1300 1366 1694 
Q 2113 2306 2375 2664 
Q 2638 3022 2638 3341 
Q 2638 3675 2398 3904 
Q 2159 4134 1775 4134 
Q 1369 4134 1125 3890 
Q 881 3647 878 3216 
L 300 3275 
Q 359 3922 746 4261 
Q 1134 4600 1788 4600 
Q 2447 4600 2831 4234 
Q 3216 3869 3216 3328 
Q 3216 3053 3103 2787 
Q 2991 2522 2730 2228 
Q 2469 1934 1863 1422 
Q 1356 997 1212 845 
Q 1069 694 975 541 
L 3222 541 
z
" transform="scale(0.015625)"/>
       </defs>
       <use xlink:href="#ArialMT-32"/>
       <use xlink:href="#ArialMT-30" x="55.615234"/>
      </g>
     </g>
    </g>
    <g id="xtick_3">
     <g id="line2d_3">
      <g>
       <use xlink:href="#mbb3bd65584" x="313.2" y="448.56" style="stroke: #000000; stroke-width: 0.8"/>
      </g>
     </g>
     <g id="text_3">
      <!-- 40 -->
      <g transform="translate(302.078125 469.875625) scale(0.2 -0.2)">
       <defs>
        <path id="ArialMT-34" d="M 2069 0 
L 2069 1097 
L 81 1097 
L 81 1613 
L 2172 4581 
L 2631 4581 
L 2631 1613 
L 3250 1613 
L 3250 1097 
L 2631 1097 
L 2631 0 
L 2069 0 
z
M 2069 1613 
L 2069 3678 
L 634 1613 
L 2069 1613 
z
" transform="scale(0.015625)"/>
       </defs>
       <use xlink:href="#ArialMT-34"/>
       <use xlink:href="#ArialMT-30" x="55.615234"/>
      </g>
     </g>
    </g>
    <g id="xtick_4">
     <g id="line2d_4">
      <g>
       <use xlink:href="#mbb3bd65584" x="424.8" y="448.56" style="stroke: #000000; stroke-width: 0.8"/>
      </g>
     </g>
     <g id="text_4">
      <!-- 60 -->
      <g transform="translate(413.678125 469.875625) scale(0.2 -0.2)">
       <defs>
        <path id="ArialMT-36" d="M 3184 3459 
L 2625 3416 
Q 2550 3747 2413 3897 
Q 2184 4138 1850 4138 
Q 1581 4138 1378 3988 
Q 1113 3794 959 3422 
Q 806 3050 800 2363 
Q 1003 2672 1297 2822 
Q 1591 2972 1913 2972 
Q 2475 2972 2870 2558 
Q 3266 2144 3266 1488 
Q 3266 1056 3080 686 
Q 2894 316 2569 119 
Q 2244 -78 1831 -78 
Q 1128 -78 684 439 
Q 241 956 241 2144 
Q 241 3472 731 4075 
Q 1159 4600 1884 4600 
Q 2425 4600 2770 4297 
Q 3116 3994 3184 3459 
z
M 888 1484 
Q 888 1194 1011 928 
Q 1134 663 1356 523 
Q 1578 384 1822 384 
Q 2178 384 2434 671 
Q 2691 959 2691 1453 
Q 2691 1928 2437 2201 
Q 2184 2475 1800 2475 
Q 1419 2475 1153 2201 
Q 888 1928 888 1484 
z
" transform="scale(0.015625)"/>
       </defs>
       <use xlink:href="#ArialMT-36"/>
       <use xlink:href="#ArialMT-30" x="55.615234"/>
      </g>
     </g>
    </g>
    <g id="xtick_5">
     <g id="line2d_5">
      <g>
       <use xlink:href="#mbb3bd65584" x="536.4" y="448.56" style="stroke: #000000; stroke-width: 0.8"/>
      </g>
     </g>
     <g id="text_5">
      <!-- 80 -->
      <g transform="translate(525.278125 469.875625) scale(0.2 -0.2)">
       <defs>
        <path id="ArialMT-38" d="M 1131 2484 
Q 781 2613 612 2850 
Q 444 3088 444 3419 
Q 444 3919 803 4259 
Q 1163 4600 1759 4600 
Q 2359 4600 2725 4251 
Q 3091 3903 3091 3403 
Q 3091 3084 2923 2848 
Q 2756 2613 2416 2484 
Q 2838 2347 3058 2040 
Q 3278 1734 3278 1309 
Q 3278 722 2862 322 
Q 2447 -78 1769 -78 
Q 1091 -78 675 323 
Q 259 725 259 1325 
Q 259 1772 486 2073 
Q 713 2375 1131 2484 
z
M 1019 3438 
Q 1019 3113 1228 2906 
Q 1438 2700 1772 2700 
Q 2097 2700 2305 2904 
Q 2513 3109 2513 3406 
Q 2513 3716 2298 3927 
Q 2084 4138 1766 4138 
Q 1444 4138 1231 3931 
Q 1019 3725 1019 3438 
z
M 838 1322 
Q 838 1081 952 856 
Q 1066 631 1291 507 
Q 1516 384 1775 384 
Q 2178 384 2440 643 
Q 2703 903 2703 1303 
Q 2703 1709 2433 1975 
Q 2163 2241 1756 2241 
Q 1359 2241 1098 1978 
Q 838 1716 838 1322 
z
" transform="scale(0.015625)"/>
       </defs>
       <use xlink:href="#ArialMT-38"/>
       <use xlink:href="#ArialMT-30" x="55.615234"/>
      </g>
     </g>
    </g>
    <g id="xtick_6">
     <g id="line2d_6">
      <g>
       <use xlink:href="#mbb3bd65584" x="648" y="448.56" style="stroke: #000000; stroke-width: 0.8"/>
      </g>
     </g>
     <g id="text_6">
      <!-- 100 -->
      <g transform="translate(631.317188 469.875625) scale(0.2 -0.2)">
       <defs>
        <path id="ArialMT-31" d="M 2384 0 
L 1822 0 
L 1822 3584 
Q 1619 3391 1289 3197 
Q 959 3003 697 2906 
L 697 3450 
Q 1169 3672 1522 3987 
Q 1875 4303 2022 4600 
L 2384 4600 
L 2384 0 
z
" transform="scale(0.015625)"/>
       </defs>
       <use xlink:href="#ArialMT-31"/>
       <use xlink:href="#ArialMT-30" x="55.615234"/>
       <use xlink:href="#ArialMT-30" x="111.230469"/>
      </g>
     </g>
    </g>
    <g id="text_7">
     <!-- Время, дни -->
     <g transform="translate(316.41875 492.16625) scale(0.2 -0.2)">
      <defs>
       <path id="ArialMT-412" d="M 469 0 
L 469 4581 
L 2188 4581 
Q 2713 4581 3030 4442 
Q 3347 4303 3526 4014 
Q 3706 3725 3706 3409 
Q 3706 3116 3547 2856 
Q 3388 2597 3066 2438 
Q 3481 2316 3704 2022 
Q 3928 1728 3928 1328 
Q 3928 1006 3792 729 
Q 3656 453 3456 303 
Q 3256 153 2954 76 
Q 2653 0 2216 0 
L 469 0 
z
M 1075 2656 
L 2066 2656 
Q 2469 2656 2644 2709 
Q 2875 2778 2992 2937 
Q 3109 3097 3109 3338 
Q 3109 3566 3000 3739 
Q 2891 3913 2687 3977 
Q 2484 4041 1991 4041 
L 1075 4041 
L 1075 2656 
z
M 1075 541 
L 2216 541 
Q 2509 541 2628 563 
Q 2838 600 2978 687 
Q 3119 775 3209 942 
Q 3300 1109 3300 1328 
Q 3300 1584 3169 1773 
Q 3038 1963 2805 2039 
Q 2572 2116 2134 2116 
L 1075 2116 
L 1075 541 
z
" transform="scale(0.015625)"/>
       <path id="ArialMT-440" d="M 422 -1272 
L 422 3319 
L 934 3319 
L 934 2888 
Q 1116 3141 1344 3267 
Q 1572 3394 1897 3394 
Q 2322 3394 2647 3175 
Q 2972 2956 3137 2557 
Q 3303 2159 3303 1684 
Q 3303 1175 3120 767 
Q 2938 359 2589 142 
Q 2241 -75 1856 -75 
Q 1575 -75 1351 44 
Q 1128 163 984 344 
L 984 -1272 
L 422 -1272 
z
M 931 1641 
Q 931 1000 1190 694 
Q 1450 388 1819 388 
Q 2194 388 2461 705 
Q 2728 1022 2728 1688 
Q 2728 2322 2467 2637 
Q 2206 2953 1844 2953 
Q 1484 2953 1207 2617 
Q 931 2281 931 1641 
z
" transform="scale(0.015625)"/>
       <path id="ArialMT-435" d="M 2694 1069 
L 3275 997 
Q 3138 488 2766 206 
Q 2394 -75 1816 -75 
Q 1088 -75 661 373 
Q 234 822 234 1631 
Q 234 2469 665 2931 
Q 1097 3394 1784 3394 
Q 2450 3394 2872 2941 
Q 3294 2488 3294 1666 
Q 3294 1616 3291 1516 
L 816 1516 
Q 847 969 1125 678 
Q 1403 388 1819 388 
Q 2128 388 2347 550 
Q 2566 713 2694 1069 
z
M 847 1978 
L 2700 1978 
Q 2663 2397 2488 2606 
Q 2219 2931 1791 2931 
Q 1403 2931 1139 2672 
Q 875 2413 847 1978 
z
" transform="scale(0.015625)"/>
       <path id="ArialMT-43c" d="M 438 3319 
L 1313 3319 
L 2184 663 
L 3153 3319 
L 3963 3319 
L 3963 0 
L 3400 0 
L 3400 2672 
L 2419 0 
L 1916 0 
L 988 2800 
L 988 0 
L 438 0 
L 438 3319 
z
" transform="scale(0.015625)"/>
       <path id="ArialMT-44f" d="M 3034 3319 
L 3034 0 
L 2475 0 
L 2475 1294 
L 2150 1294 
Q 1853 1294 1708 1217 
Q 1563 1141 1284 725 
L 794 0 
L 97 0 
L 703 894 
Q 981 1303 1256 1356 
Q 775 1422 542 1703 
Q 309 1984 309 2350 
Q 309 2781 614 3050 
Q 919 3319 1497 3319 
L 3034 3319 
z
M 2475 2853 
L 1675 2853 
Q 1172 2853 1026 2697 
Q 881 2541 881 2331 
Q 881 2034 1095 1895 
Q 1309 1756 1853 1756 
L 2475 1756 
L 2475 2853 
z
" transform="scale(0.015625)"/>
       <path id="ArialMT-2c" d="M 569 0 
L 569 641 
L 1209 641 
L 1209 0 
Q 1209 -353 1084 -570 
Q 959 -788 688 -906 
L 531 -666 
Q 709 -588 793 -436 
Q 878 -284 888 0 
L 569 0 
z
" transform="scale(0.015625)"/>
       <path id="ArialMT-20" transform="scale(0.015625)"/>
       <path id="ArialMT-434" d="M 866 3319 
L 3178 3319 
L 3178 463 
L 3538 463 
L 3538 -941 
L 3075 -941 
L 3075 0 
L 463 0 
L 463 -941 
L 0 -941 
L 0 463 
L 297 463 
Q 891 1269 866 3319 
z
M 1334 2853 
Q 1272 1238 834 463 
L 2619 463 
L 2619 2853 
L 1334 2853 
z
" transform="scale(0.015625)"/>
       <path id="ArialMT-43d" d="M 425 3319 
L 988 3319 
L 988 1938 
L 2547 1938 
L 2547 3319 
L 3109 3319 
L 3109 0 
L 2547 0 
L 2547 1472 
L 988 1472 
L 988 0 
L 425 0 
L 425 3319 
z
" transform="scale(0.015625)"/>
       <path id="ArialMT-438" d="M 422 3319 
L 984 3319 
L 984 788 
L 2544 3319 
L 3150 3319 
L 3150 0 
L 2588 0 
L 2588 2516 
L 1028 0 
L 422 0 
L 422 3319 
z
" transform="scale(0.015625)"/>
      </defs>
      <use xlink:href="#ArialMT-412"/>
      <use xlink:href="#ArialMT-440" x="66.699219"/>
      <use xlink:href="#ArialMT-435" x="122.314453"/>
      <use xlink:href="#ArialMT-43c" x="177.929688"/>
      <use xlink:href="#ArialMT-44f" x="246.679688"/>
      <use xlink:href="#ArialMT-2c" x="300.830078"/>
      <use xlink:href="#ArialMT-20" x="328.613281"/>
      <use xlink:href="#ArialMT-434" x="356.396484"/>
      <use xlink:href="#ArialMT-43d" x="414.746094"/>
      <use xlink:href="#ArialMT-438" x="469.970703"/>
     </g>
    </g>
   </g>
   <g id="matplotlib.axis_2">
    <g id="ytick_1">
     <g id="line2d_7">
      <defs>
       <path id="md3623acfa9" d="M 0 0 
L -3.5 0 
" style="stroke: #000000; stroke-width: 0.8"/>
      </defs>
      <g>
       <use xlink:href="#md3623acfa9" x="90" y="404.149025" style="stroke: #000000; stroke-width: 0.8"/>
      </g>
     </g>
     <g id="text_8">
      <!-- 6 -->
      <g transform="translate(71.878125 411.306837) scale(0.2 -0.2)">
       <use xlink:href="#ArialMT-36"/>
      </g>
     </g>
    </g>
    <g id="ytick_2">
     <g id="line2d_8">
      <g>
       <use xlink:href="#md3623acfa9" x="90" y="353.268145" style="stroke: #000000; stroke-width: 0.8"/>
      </g>
     </g>
     <g id="text_9">
      <!-- 8 -->
      <g transform="translate(71.878125 360.425957) scale(0.2 -0.2)">
       <use xlink:href="#ArialMT-38"/>
      </g>
     </g>
    </g>
    <g id="ytick_3">
     <g id="line2d_9">
      <g>
       <use xlink:href="#md3623acfa9" x="90" y="302.387264" style="stroke: #000000; stroke-width: 0.8"/>
      </g>
     </g>
     <g id="text_10">
      <!-- 10 -->
      <g transform="translate(60.75625 309.545077) scale(0.2 -0.2)">
       <use xlink:href="#ArialMT-31"/>
       <use xlink:href="#ArialMT-30" x="55.615234"/>
      </g>
     </g>
    </g>
    <g id="ytick_4">
     <g id="line2d_10">
      <g>
       <use xlink:href="#md3623acfa9" x="90" y="251.506384" style="stroke: #000000; stroke-width: 0.8"/>
      </g>
     </g>
     <g id="text_11">
      <!-- 12 -->
      <g transform="translate(60.75625 258.664197) scale(0.2 -0.2)">
       <use xlink:href="#ArialMT-31"/>
       <use xlink:href="#ArialMT-32" x="55.615234"/>
      </g>
     </g>
    </g>
    <g id="ytick_5">
     <g id="line2d_11">
      <g>
       <use xlink:href="#md3623acfa9" x="90" y="200.625504" style="stroke: #000000; stroke-width: 0.8"/>
      </g>
     </g>
     <g id="text_12">
      <!-- 14 -->
      <g transform="translate(60.75625 207.783316) scale(0.2 -0.2)">
       <use xlink:href="#ArialMT-31"/>
       <use xlink:href="#ArialMT-34" x="55.615234"/>
      </g>
     </g>
    </g>
    <g id="ytick_6">
     <g id="line2d_12">
      <g>
       <use xlink:href="#md3623acfa9" x="90" y="149.744624" style="stroke: #000000; stroke-width: 0.8"/>
      </g>
     </g>
     <g id="text_13">
      <!-- 16 -->
      <g transform="translate(60.75625 156.902436) scale(0.2 -0.2)">
       <use xlink:href="#ArialMT-31"/>
       <use xlink:href="#ArialMT-36" x="55.615234"/>
      </g>
     </g>
    </g>
    <g id="ytick_7">
     <g id="line2d_13">
      <g>
       <use xlink:href="#md3623acfa9" x="90" y="98.863743" style="stroke: #000000; stroke-width: 0.8"/>
      </g>
     </g>
     <g id="text_14">
      <!-- 18 -->
      <g transform="translate(60.75625 106.021556) scale(0.2 -0.2)">
       <use xlink:href="#ArialMT-31"/>
       <use xlink:href="#ArialMT-38" x="55.615234"/>
      </g>
     </g>
    </g>
    <g id="text_15">
     <!-- Популяция, ед/л -->
     <g transform="translate(52.546875 330.777812) rotate(-90) scale(0.2 -0.2)">
      <defs>
       <path id="ArialMT-41f" d="M 500 4581 
L 4103 4581 
L 4103 0 
L 3494 0 
L 3494 4041 
L 1106 4041 
L 1106 0 
L 500 0 
L 500 4581 
z
" transform="scale(0.015625)"/>
       <path id="ArialMT-43e" d="M 213 1659 
Q 213 2581 725 3025 
Q 1153 3394 1769 3394 
Q 2453 3394 2887 2945 
Q 3322 2497 3322 1706 
Q 3322 1066 3130 698 
Q 2938 331 2570 128 
Q 2203 -75 1769 -75 
Q 1072 -75 642 372 
Q 213 819 213 1659 
z
M 791 1659 
Q 791 1022 1069 705 
Q 1347 388 1769 388 
Q 2188 388 2466 706 
Q 2744 1025 2744 1678 
Q 2744 2294 2464 2611 
Q 2184 2928 1769 2928 
Q 1347 2928 1069 2612 
Q 791 2297 791 1659 
z
" transform="scale(0.015625)"/>
       <path id="ArialMT-43f" d="M 425 3319 
L 3044 3319 
L 3044 0 
L 2481 0 
L 2481 2853 
L 988 2853 
L 988 0 
L 425 0 
L 425 3319 
z
" transform="scale(0.015625)"/>
       <path id="ArialMT-443" d="M 397 -1278 
L 334 -750 
Q 519 -800 656 -800 
Q 844 -800 956 -737 
Q 1069 -675 1141 -563 
Q 1194 -478 1313 -144 
Q 1328 -97 1363 -6 
L 103 3319 
L 709 3319 
L 1400 1397 
Q 1534 1031 1641 628 
Q 1738 1016 1872 1384 
L 2581 3319 
L 3144 3319 
L 1881 -56 
Q 1678 -603 1566 -809 
Q 1416 -1088 1222 -1217 
Q 1028 -1347 759 -1347 
Q 597 -1347 397 -1278 
z
" transform="scale(0.015625)"/>
       <path id="ArialMT-43b" d="M 697 3319 
L 3309 3319 
L 3309 0 
L 2750 0 
L 2750 2853 
L 1259 2853 
L 1259 1200 
Q 1259 622 1221 437 
Q 1184 253 1015 115 
Q 847 -22 528 -22 
Q 331 -22 75 3 
L 75 472 
L 322 472 
Q 497 472 572 508 
Q 647 544 672 622 
Q 697 700 697 1131 
L 697 3319 
z
" transform="scale(0.015625)"/>
       <path id="ArialMT-446" d="M 431 3319 
L 994 3319 
L 994 463 
L 2550 463 
L 2550 3319 
L 3113 3319 
L 3113 463 
L 3475 463 
L 3475 -941 
L 3013 -941 
L 3013 0 
L 431 0 
L 431 3319 
z
" transform="scale(0.015625)"/>
       <path id="ArialMT-2f" d="M 0 -78 
L 1328 4659 
L 1778 4659 
L 453 -78 
L 0 -78 
z
" transform="scale(0.015625)"/>
      </defs>
      <use xlink:href="#ArialMT-41f"/>
      <use xlink:href="#ArialMT-43e" x="71.875"/>
      <use xlink:href="#ArialMT-43f" x="127.490234"/>
      <use xlink:href="#ArialMT-443" x="181.640625"/>
      <use xlink:href="#ArialMT-43b" x="229.390625"/>
      <use xlink:href="#ArialMT-44f" x="287.740234"/>
      <use xlink:href="#ArialMT-446" x="341.890625"/>
      <use xlink:href="#ArialMT-438" x="399.166016"/>
      <use xlink:href="#ArialMT-44f" x="455.025391"/>
      <use xlink:href="#ArialMT-2c" x="509.175781"/>
      <use xlink:href="#ArialMT-20" x="536.958984"/>
      <use xlink:href="#ArialMT-435" x="564.742188"/>
      <use xlink:href="#ArialMT-434" x="618.107422"/>
      <use xlink:href="#ArialMT-2f" x="676.457031"/>
      <use xlink:href="#ArialMT-43b" x="704.240234"/>
     </g>
    </g>
   </g>
   <g id="line2d_14">
    <path d="M 90 429.589465 
L 90.0558 430.92 
L 90.1116 430.223231 
L 92.6226 399.635553 
L 95.1336 371.728731 
L 97.6446 346.256832 
L 100.1556 323.002011 
L 102.6666 301.768417 
L 105.1776 282.378745 
L 107.6886 264.671902 
L 110.1996 248.501237 
L 112.7106 233.7331 
L 115.2216 220.245598 
L 117.7884 207.666266 
L 120.3552 196.200623 
L 122.922 185.749987 
L 125.4888 176.224446 
L 128.0556 167.542068 
L 130.6224 159.62819 
L 133.1892 152.414768 
L 135.8118 145.703511 
L 138.4344 139.598549 
L 141.057 134.045099 
L 143.7354 128.890957 
L 146.4138 124.211853 
L 149.148 119.879798 
L 151.938 115.878783 
L 154.728 112.261119 
L 157.5738 108.927955 
L 160.4754 105.864273 
L 163.4886 103.004811 
L 166.5576 100.395153 
L 169.7382 97.979008 
L 173.0304 95.753761 
L 176.49 93.68353 
L 180.117 91.773594 
L 183.9114 90.025883 
L 187.9848 88.397853 
L 192.2814 86.921246 
L 196.9128 85.566244 
L 201.9348 84.331651 
L 207.4032 83.218926 
L 213.4296 82.222066 
L 220.1814 81.334804 
L 227.826 80.559552 
L 236.6424 79.894579 
L 247.077 79.337621 
L 259.8552 78.887695 
L 276.2604 78.544624 
L 299.0268 78.306679 
L 335.9106 78.169303 
L 425.0232 78.121976 
L 647.9442 78.120001 
L 647.9442 78.120001 
" clip-path="url(#pb93369a334)" style="fill: none; stroke: #008000; stroke-width: 1.5; stroke-linecap: square"/>
   </g>
   <g id="line2d_15">
    <path d="M 90 302.387264 
L 92.232 311.076996 
L 94.4082 318.646691 
L 96.5844 325.435851 
L 98.8164 331.687289 
L 101.1042 337.43731 
L 103.392 342.601167 
L 105.7356 347.355225 
L 108.135 351.726728 
L 110.5902 355.741595 
L 113.1012 359.424421 
L 115.668 362.798489 
L 118.2906 365.885793 
L 121.0248 368.762577 
L 123.8706 371.430319 
L 126.7722 373.848933 
L 129.8412 376.116591 
L 133.0218 378.190991 
L 136.3698 380.110355 
L 139.941 381.898582 
L 143.7354 383.545922 
L 147.753 385.047201 
L 152.1054 386.434034 
L 156.7926 387.693093 
L 161.9262 388.840146 
L 167.6178 389.879716 
L 173.9232 390.802098 
L 181.0656 391.617966 
L 189.2682 392.325623 
L 198.8658 392.924537 
L 210.4722 393.417988 
L 225.036 393.804652 
L 244.566 394.086874 
L 273.8052 394.266339 
L 330.0516 394.349495 
L 602.9694 394.362058 
L 647.9442 394.362059 
L 647.9442 394.362059 
" clip-path="url(#pb93369a334)" style="fill: none; stroke: #0000ff; stroke-width: 1.5; stroke-linecap: square"/>
   </g>
   <g id="line2d_16">
    <path d="M 90 78.12 
L 647.9442 78.12 
L 647.9442 78.12 
" clip-path="url(#pb93369a334)" style="fill: none; stroke-dasharray: 5.55,2.4; stroke-dashoffset: 0; stroke: #000000; stroke-width: 1.5"/>
   </g>
   <g id="patch_3">
    <path d="M 90 448.56 
L 90 60.48 
" style="fill: none; stroke: #000000; stroke-width: 0.8; stroke-linejoin: miter; stroke-linecap: square"/>
   </g>
   <g id="patch_4">
    <path d="M 648 448.56 
L 648 60.48 
" style="fill: none; stroke: #000000; stroke-width: 0.8; stroke-linejoin: miter; stroke-linecap: square"/>
   </g>
   <g id="patch_5">
    <path d="M 90 448.56 
L 648 448.56 
" style="fill: none; stroke: #000000; stroke-width: 0.8; stroke-linejoin: miter; stroke-linecap: square"/>
   </g>
   <g id="patch_6">
    <path d="M 90 60.48 
L 648 60.48 
" style="fill: none; stroke: #000000; stroke-width: 0.8; stroke-linejoin: miter; stroke-linecap: square"/>
   </g>
   <g id="legend_1">
    <g id="patch_7">
     <path d="M 548.6 166.86125 
L 634 166.86125 
Q 638 166.86125 638 162.86125 
L 638 74.48 
Q 638 70.48 634 70.48 
L 548.6 70.48 
Q 544.6 70.48 544.6 74.48 
L 544.6 162.86125 
Q 544.6 166.86125 548.6 166.86125 
z
" style="fill: #ffffff; opacity: 0.8; stroke: #cccccc; stroke-linejoin: miter"/>
    </g>
    <g id="line2d_17">
     <path d="M 552.6 85.795625 
L 572.6 85.795625 
L 592.6 85.795625 
" style="fill: none; stroke: #008000; stroke-width: 1.5; stroke-linecap: square"/>
    </g>
    <g id="text_16">
     <!-- $x_{1}$ -->
     <g style="fill: #262626" transform="translate(608.6 92.795625) scale(0.2 -0.2)">
      <defs>
       <path id="DejaVuSans-Oblique-78" d="M 3841 3500 
L 2234 1784 
L 3219 0 
L 2559 0 
L 1819 1388 
L 531 0 
L -166 0 
L 1556 1844 
L 641 3500 
L 1300 3500 
L 1972 2234 
L 3144 3500 
L 3841 3500 
z
" transform="scale(0.015625)"/>
       <path id="DejaVuSans-31" d="M 794 531 
L 1825 531 
L 1825 4091 
L 703 3866 
L 703 4441 
L 1819 4666 
L 2450 4666 
L 2450 531 
L 3481 531 
L 3481 0 
L 794 0 
L 794 531 
z
" transform="scale(0.015625)"/>
      </defs>
      <use xlink:href="#DejaVuSans-Oblique-78" transform="translate(0 0.3125)"/>
      <use xlink:href="#DejaVuSans-31" transform="translate(59.179688 -16.09375) scale(0.7)"/>
     </g>
    </g>
    <g id="line2d_18">
     <path d="M 552.6 114.08625 
L 572.6 114.08625 
L 592.6 114.08625 
" style="fill: none; stroke: #0000ff; stroke-width: 1.5; stroke-linecap: square"/>
    </g>
    <g id="text_17">
     <!-- $x_{2}$ -->
     <g style="fill: #262626" transform="translate(608.6 121.08625) scale(0.2 -0.2)">
      <defs>
       <path id="DejaVuSans-32" d="M 1228 531 
L 3431 531 
L 3431 0 
L 469 0 
L 469 531 
Q 828 903 1448 1529 
Q 2069 2156 2228 2338 
Q 2531 2678 2651 2914 
Q 2772 3150 2772 3378 
Q 2772 3750 2511 3984 
Q 2250 4219 1831 4219 
Q 1534 4219 1204 4116 
Q 875 4013 500 3803 
L 500 4441 
Q 881 4594 1212 4672 
Q 1544 4750 1819 4750 
Q 2544 4750 2975 4387 
Q 3406 4025 3406 3419 
Q 3406 3131 3298 2873 
Q 3191 2616 2906 2266 
Q 2828 2175 2409 1742 
Q 1991 1309 1228 531 
z
" transform="scale(0.015625)"/>
      </defs>
      <use xlink:href="#DejaVuSans-Oblique-78" transform="translate(0 0.3125)"/>
      <use xlink:href="#DejaVuSans-32" transform="translate(59.179688 -16.09375) scale(0.7)"/>
     </g>
    </g>
    <g id="line2d_19">
     <path d="M 552.6 146.26125 
L 572.6 146.26125 
L 592.6 146.26125 
" style="fill: none; stroke-dasharray: 5.55,2.4; stroke-dashoffset: 0; stroke: #000000; stroke-width: 1.5"/>
    </g>
    <g id="text_18">
     <!-- $x_{1}^{*}$ -->
     <g style="fill: #262626" transform="translate(608.6 153.26125) scale(0.2 -0.2)">
      <defs>
       <path id="DejaVuSans-2a" d="M 3009 3897 
L 1888 3291 
L 3009 2681 
L 2828 2375 
L 1778 3009 
L 1778 1831 
L 1422 1831 
L 1422 3009 
L 372 2375 
L 191 2681 
L 1313 3291 
L 191 3897 
L 372 4206 
L 1422 3572 
L 1422 4750 
L 1778 4750 
L 1778 3572 
L 2828 4206 
L 3009 3897 
z
" transform="scale(0.015625)"/>
      </defs>
      <use xlink:href="#DejaVuSans-Oblique-78" transform="translate(0 0.765625)"/>
      <use xlink:href="#DejaVuSans-2a" transform="translate(63.645833 39.046875) scale(0.7)"/>
      <use xlink:href="#DejaVuSans-31" transform="translate(59.179688 -26.578125) scale(0.7)"/>
     </g>
    </g>
   </g>
  </g>
 </g>
 <defs>
  <clipPath id="pb93369a334">
   <rect x="90" y="60.48" width="558" height="388.08"/>
  </clipPath>
 </defs>
</svg>
