<?xml version="1.0" encoding="utf-8" standalone="no"?>
<!DOCTYPE svg PUBLIC "-//W3C//DTD SVG 1.1//EN"
  "http://www.w3.org/Graphics/SVG/1.1/DTD/svg11.dtd">
<svg xmlns:xlink="http://www.w3.org/1999/xlink" width="720pt" height="504pt" viewBox="0 0 720 504" xmlns="http://www.w3.org/2000/svg" version="1.1">
 <metadata>
  <rdf:RDF xmlns:dc="http://purl.org/dc/elements/1.1/" xmlns:cc="http://creativecommons.org/ns#" xmlns:rdf="http://www.w3.org/1999/02/22-rdf-syntax-ns#">
   <cc:Work>
    <dc:type rdf:resource="http://purl.org/dc/dcmitype/StillImage"/>
    <dc:date>2024-09-29T05:27:32.905174</dc:date>
    <dc:format>image/svg+xml</dc:format>
    <dc:creator>
     <cc:Agent>
      <dc:title>Matplotlib v3.9.2, https://matplotlib.org/</dc:title>
     </cc:Agent>
    </dc:creator>
   </cc:Work>
  </rdf:RDF>
 </metadata>
 <defs>
  <style type="text/css">*{stroke-linejoin: round; stroke-linecap: butt}</style>
 </defs>
 <g id="figure_1">
  <g id="patch_1">
   <path d="M 0 504 
L 720 504 
L 720 0 
L 0 0 
z
" style="fill: #ffffff"/>
  </g>
  <g id="axes_1">
   <g id="patch_2">
    <path d="M 90 448.56 
L 648 448.56 
L 648 60.48 
L 90 60.48 
z
" style="fill: #ffffff"/>
   </g>
   <g id="matplotlib.axis_1">
    <g id="xtick_1">
     <g id="line2d_1">
      <path d="M 90 448.56 
L 90 60.48 
" clip-path="url(#p272ad5c242)" style="fill: none; stroke: #cccccc; stroke-width: 0.8; stroke-linecap: round"/>
     </g>
     <g id="text_1">
      <text style="fill: #262626; font: 20px 'Arial', 'DejaVu Sans', 'Liberation Sans', 'Bitstream Vera Sans', sans-serif; text-anchor: middle" x="90" y="469.875625" transform="rotate(-0 90 469.875625)">0</text>
     </g>
    </g>
    <g id="xtick_2">
     <g id="line2d_2">
      <path d="M 180 448.56 
L 180 60.48 
" clip-path="url(#p272ad5c242)" style="fill: none; stroke: #cccccc; stroke-width: 0.8; stroke-linecap: round"/>
     </g>
     <g id="text_2">
      <text style="fill: #262626; font: 20px 'Arial', 'DejaVu Sans', 'Liberation Sans', 'Bitstream Vera Sans', sans-serif; text-anchor: middle" x="180" y="469.875625" transform="rotate(-0 180 469.875625)">5</text>
     </g>
    </g>
    <g id="xtick_3">
     <g id="line2d_3">
      <path d="M 270 448.56 
L 270 60.48 
" clip-path="url(#p272ad5c242)" style="fill: none; stroke: #cccccc; stroke-width: 0.8; stroke-linecap: round"/>
     </g>
     <g id="text_3">
      <text style="fill: #262626; font: 20px 'Arial', 'DejaVu Sans', 'Liberation Sans', 'Bitstream Vera Sans', sans-serif; text-anchor: middle" x="270" y="469.875625" transform="rotate(-0 270 469.875625)">10</text>
     </g>
    </g>
    <g id="xtick_4">
     <g id="line2d_4">
      <path d="M 360 448.56 
L 360 60.48 
" clip-path="url(#p272ad5c242)" style="fill: none; stroke: #cccccc; stroke-width: 0.8; stroke-linecap: round"/>
     </g>
     <g id="text_4">
      <text style="fill: #262626; font: 20px 'Arial', 'DejaVu Sans', 'Liberation Sans', 'Bitstream Vera Sans', sans-serif; text-anchor: middle" x="360" y="469.875625" transform="rotate(-0 360 469.875625)">15</text>
     </g>
    </g>
    <g id="xtick_5">
     <g id="line2d_5">
      <path d="M 450 448.56 
L 450 60.48 
" clip-path="url(#p272ad5c242)" style="fill: none; stroke: #cccccc; stroke-width: 0.8; stroke-linecap: round"/>
     </g>
     <g id="text_5">
      <text style="fill: #262626; font: 20px 'Arial', 'DejaVu Sans', 'Liberation Sans', 'Bitstream Vera Sans', sans-serif; text-anchor: middle" x="450" y="469.875625" transform="rotate(-0 450 469.875625)">20</text>
     </g>
    </g>
    <g id="xtick_6">
     <g id="line2d_6">
      <path d="M 540 448.56 
L 540 60.48 
" clip-path="url(#p272ad5c242)" style="fill: none; stroke: #cccccc; stroke-width: 0.8; stroke-linecap: round"/>
     </g>
     <g id="text_6">
      <text style="fill: #262626; font: 20px 'Arial', 'DejaVu Sans', 'Liberation Sans', 'Bitstream Vera Sans', sans-serif; text-anchor: middle" x="540" y="469.875625" transform="rotate(-0 540 469.875625)">25</text>
     </g>
    </g>
    <g id="xtick_7">
     <g id="line2d_7">
      <path d="M 630 448.56 
L 630 60.48 
" clip-path="url(#p272ad5c242)" style="fill: none; stroke: #cccccc; stroke-width: 0.8; stroke-linecap: round"/>
     </g>
     <g id="text_7">
      <text style="fill: #262626; font: 20px 'Arial', 'DejaVu Sans', 'Liberation Sans', 'Bitstream Vera Sans', sans-serif; text-anchor: middle" x="630" y="469.875625" transform="rotate(-0 630 469.875625)">30</text>
     </g>
    </g>
    <g id="text_8">
     <!-- $x_{1}$ -->
     <g style="fill: #262626" transform="translate(358.3 492.16625)">
      <text>
       <tspan style="font: oblique 20px 'DejaVu Sans'" x="0" y="-0.0625">x</tspan>
       <tspan style="font: 14px 'DejaVu Sans'" x="11.835938" y="3.21875">1</tspan>
      </text>
     </g>
    </g>
   </g>
   <g id="matplotlib.axis_2">
    <g id="ytick_1">
     <g id="line2d_8">
      <path d="M 90 448.56 
L 648 448.56 
" clip-path="url(#p272ad5c242)" style="fill: none; stroke: #cccccc; stroke-width: 0.8; stroke-linecap: round"/>
     </g>
     <g id="text_9">
      <text style="fill: #262626; font: 20px 'Arial', 'DejaVu Sans', 'Liberation Sans', 'Bitstream Vera Sans', sans-serif; text-anchor: end" x="83" y="455.717813" transform="rotate(-0 83 455.717813)">0.0</text>
     </g>
    </g>
    <g id="ytick_2">
     <g id="line2d_9">
      <path d="M 90 400.05 
L 648 400.05 
" clip-path="url(#p272ad5c242)" style="fill: none; stroke: #cccccc; stroke-width: 0.8; stroke-linecap: round"/>
     </g>
     <g id="text_10">
      <text style="fill: #262626; font: 20px 'Arial', 'DejaVu Sans', 'Liberation Sans', 'Bitstream Vera Sans', sans-serif; text-anchor: end" x="83" y="407.207813" transform="rotate(-0 83 407.207813)">2.5</text>
     </g>
    </g>
    <g id="ytick_3">
     <g id="line2d_10">
      <path d="M 90 351.54 
L 648 351.54 
" clip-path="url(#p272ad5c242)" style="fill: none; stroke: #cccccc; stroke-width: 0.8; stroke-linecap: round"/>
     </g>
     <g id="text_11">
      <text style="fill: #262626; font: 20px 'Arial', 'DejaVu Sans', 'Liberation Sans', 'Bitstream Vera Sans', sans-serif; text-anchor: end" x="83" y="358.697813" transform="rotate(-0 83 358.697813)">5.0</text>
     </g>
    </g>
    <g id="ytick_4">
     <g id="line2d_11">
      <path d="M 90 303.03 
L 648 303.03 
" clip-path="url(#p272ad5c242)" style="fill: none; stroke: #cccccc; stroke-width: 0.8; stroke-linecap: round"/>
     </g>
     <g id="text_12">
      <text style="fill: #262626; font: 20px 'Arial', 'DejaVu Sans', 'Liberation Sans', 'Bitstream Vera Sans', sans-serif; text-anchor: end" x="83" y="310.187813" transform="rotate(-0 83 310.187813)">7.5</text>
     </g>
    </g>
    <g id="ytick_5">
     <g id="line2d_12">
      <path d="M 90 254.52 
L 648 254.52 
" clip-path="url(#p272ad5c242)" style="fill: none; stroke: #cccccc; stroke-width: 0.8; stroke-linecap: round"/>
     </g>
     <g id="text_13">
      <text style="fill: #262626; font: 20px 'Arial', 'DejaVu Sans', 'Liberation Sans', 'Bitstream Vera Sans', sans-serif; text-anchor: end" x="83" y="261.677813" transform="rotate(-0 83 261.677813)">10.0</text>
     </g>
    </g>
    <g id="ytick_6">
     <g id="line2d_13">
      <path d="M 90 206.01 
L 648 206.01 
" clip-path="url(#p272ad5c242)" style="fill: none; stroke: #cccccc; stroke-width: 0.8; stroke-linecap: round"/>
     </g>
     <g id="text_14">
      <text style="fill: #262626; font: 20px 'Arial', 'DejaVu Sans', 'Liberation Sans', 'Bitstream Vera Sans', sans-serif; text-anchor: end" x="83" y="213.167812" transform="rotate(-0 83 213.167812)">12.5</text>
     </g>
    </g>
    <g id="ytick_7">
     <g id="line2d_14">
      <path d="M 90 157.5 
L 648 157.5 
" clip-path="url(#p272ad5c242)" style="fill: none; stroke: #cccccc; stroke-width: 0.8; stroke-linecap: round"/>
     </g>
     <g id="text_15">
      <text style="fill: #262626; font: 20px 'Arial', 'DejaVu Sans', 'Liberation Sans', 'Bitstream Vera Sans', sans-serif; text-anchor: end" x="83" y="164.657812" transform="rotate(-0 83 164.657812)">15.0</text>
     </g>
    </g>
    <g id="ytick_8">
     <g id="line2d_15">
      <path d="M 90 108.99 
L 648 108.99 
" clip-path="url(#p272ad5c242)" style="fill: none; stroke: #cccccc; stroke-width: 0.8; stroke-linecap: round"/>
     </g>
     <g id="text_16">
      <text style="fill: #262626; font: 20px 'Arial', 'DejaVu Sans', 'Liberation Sans', 'Bitstream Vera Sans', sans-serif; text-anchor: end" x="83" y="116.147812" transform="rotate(-0 83 116.147812)">17.5</text>
     </g>
    </g>
    <g id="ytick_9">
     <g id="line2d_16">
      <path d="M 90 60.48 
L 648 60.48 
" clip-path="url(#p272ad5c242)" style="fill: none; stroke: #cccccc; stroke-width: 0.8; stroke-linecap: round"/>
     </g>
     <g id="text_17">
      <text style="fill: #262626; font: 20px 'Arial', 'DejaVu Sans', 'Liberation Sans', 'Bitstream Vera Sans', sans-serif; text-anchor: end" x="83" y="67.637812" transform="rotate(-0 83 67.637812)">20.0</text>
     </g>
    </g>
    <g id="text_18">
     <!-- $x_{2}$ -->
     <g style="fill: #262626" transform="translate(36.103125 265.22) rotate(-90)">
      <text>
       <tspan style="font: oblique 20px 'DejaVu Sans'" x="0" y="-0.0625">x</tspan>
       <tspan style="font: 14px 'DejaVu Sans'" x="11.835938" y="3.21875">2</tspan>
      </text>
     </g>
    </g>
   </g>
   <g id="line2d_17">
    <path d="M 180 254.52 
L 179.0586 254.694248 
L 199.053031 257.201218 
L 235.069368 261.54348 
L 267.416767 265.225632 
L 296.428824 268.311598 
L 323.103519 270.925973 
L 346.739488 273.019667 
L 367.57736 274.644781 
L 385.834299 275.848347 
L 401.709972 276.673277 
L 415.069904 277.150692 
L 426.253482 277.338618 
L 435.77235 277.281518 
L 443.574107 277.015277 
L 449.747078 276.59078 
L 454.699966 276.03356 
L 458.507541 275.388035 
L 461.380064 274.682218 
L 463.43922 273.960227 
L 464.90996 273.219752 
L 465.878664 272.497311 
L 466.48361 271.780276 
L 466.796552 271.075837 
L 466.876211 270.364902 
L 466.737697 269.602311 
L 466.344374 268.743332 
L 465.639705 267.770813 
L 464.535763 266.649166 
L 462.931837 265.353709 
L 460.705945 263.855123 
L 457.703221 262.114653 
L 453.795469 260.116496 
L 448.785139 257.812825 
L 442.452853 255.154813 
L 434.516551 252.073764 
L 428.676924 249.922745 
L 428.676924 249.922745 
" clip-path="url(#p272ad5c242)" style="fill: none; stroke: #ff0000; stroke-width: 3; stroke-linecap: round"/>
   </g>
   <g id="LineCollection_1">
    <path d="M 0 467.964 
L 0 467.964 
L 21.596829 467.733127 
L 43.193879 467.513774 
L 64.791159 467.30584 
L 86.388666 467.109244 
L 107.98639 466.923927 
L 129.584333 466.749852 
L 151.182496 466.587008 
L 172.780866 466.435405 
L 194.379434 466.295081 
L 215.97821 466.166098 
L 237.577172 466.048549 
L 259.176301 465.942556 
L 280.775602 465.84827 
L 302.37506 465.765878 
L 323.974645 465.695604 
L 345.574351 465.63771 
L 367.174167 465.592497 
L 388.774055 465.560316 
L 410.373986 465.541563 
L 431.973962 465.536691 
L 453.573929 465.546207 
L 475.173829 465.570687 
L 496.773659 465.610771 
L 518.373368 465.66718 
L 539.972877 465.740716 
L 561.572155 465.832276 
L 583.171161 465.942858 
L 604.76979 466.073571 
L 626.367965 466.225651 
L 647.965674 466.400469 
L 648 466.400766 
" clip-path="url(#p272ad5c242)" style="fill: none; stroke: #1f77b4; stroke-width: 1.5"/>
    <path d="M 0 454.374932 
L 0.046215 454.374778 
L 21.642199 454.304816 
L 43.23846 454.238233 
L 64.835005 454.175008 
L 86.431832 454.115127 
L 108.028929 454.058585 
L 129.626299 454.00538 
L 151.223943 453.955518 
L 172.821846 453.909013 
L 194.42 453.865888 
L 216.018414 453.826173 
L 237.617064 453.789906 
L 259.215927 453.757137 
L 280.815012 453.727925 
L 302.414297 453.702343 
L 324.013748 453.680472 
L 345.613357 453.662411 
L 367.213111 453.648272 
L 388.812959 453.638183 
L 410.412866 453.632292 
L 432.012834 453.630766 
L 453.612786 453.633795 
L 475.212643 453.641594 
L 496.8124 453.654407 
L 518.411977 453.67251 
L 540.011253 453.696213 
L 561.610175 453.725869 
L 583.208671 453.761876 
L 604.806552 453.804686 
L 626.403674 453.85481 
L 648 453.912828 
L 648 453.912828 
" clip-path="url(#p272ad5c242)" style="fill: none; stroke: #1f77b4; stroke-width: 1.5"/>
    <path d="M 0 439.131429 
L 0.061083 439.131761 
L 21.656098 439.246654 
L 43.251447 439.356213 
L 64.847142 439.46045 
L 86.443177 439.559369 
L 108.039543 439.652962 
L 129.636242 439.741211 
L 151.233277 439.824088 
L 172.830629 439.901551 
L 194.428291 439.973543 
L 216.026274 440.039994 
L 237.624551 440.100819 
L 259.223096 440.155913 
L 280.821918 440.205152 
L 302.420993 440.248391 
L 324.020281 440.285461 
L 345.619771 440.316166 
L 367.219448 440.340279 
L 388.819247 440.357542 
L 410.419124 440.367655 
L 432.019081 440.370277 
L 453.619016 440.365018 
L 475.218818 440.35143 
L 496.81848 440.329 
L 518.417886 440.29714 
L 540.016854 440.255173 
L 561.615303 440.20232 
L 583.21311 440.137677 
L 604.809967 440.0602 
L 626.405628 439.968669 
L 648 439.861655 
L 648 439.861655 
" clip-path="url(#p272ad5c242)" style="fill: none; stroke: #1f77b4; stroke-width: 1.5"/>
    <path d="M 0 423.986963 
L 0.077987 423.988083 
L 21.672013 424.291382 
L 43.26643 424.581175 
L 64.861251 424.857447 
L 86.456471 425.120156 
L 108.052079 425.369236 
L 129.648081 425.604593 
L 151.244478 425.8261 
L 172.841253 426.033597 
L 194.438396 426.226886 
L 216.035924 426.405727 
L 237.633805 426.569832 
L 259.232008 426.718863 
L 280.830548 426.852422 
L 302.429398 426.970045 
L 324.028507 427.071194 
L 345.627867 427.155247 
L 367.22746 427.221484 
L 388.827205 427.269072 
L 410.427048 427.297052 
L 432.026994 427.304315 
L 453.626908 427.289575 
L 475.226647 427.251341 
L 496.826199 427.187877 
L 518.425401 427.097156 
L 540.024003 426.976797 
L 561.621877 426.823988 
L 583.218835 426.635388 
L 604.814407 426.407002 
L 626.408193 426.133999 
L 648 425.810483 
L 648 425.810483 
" clip-path="url(#p272ad5c242)" style="fill: none; stroke: #1f77b4; stroke-width: 1.5"/>
    <path d="M 0 409.027014 
L 0.283995 409.033651 
L 21.865396 409.52745 
L 43.448252 410.000237 
L 65.032544 410.451907 
L 86.61822 410.882315 
L 108.205214 411.291275 
L 129.793495 411.678555 
L 151.383033 412.043871 
L 172.973749 412.386878 
L 194.565593 412.707168 
L 216.158567 413.004258 
L 237.752573 413.277581 
L 259.347519 413.526474 
L 280.943416 413.750167 
L 302.540178 413.947765 
L 324.137672 414.118228 
L 345.735868 414.260352 
L 367.33471 414.372738 
L 388.933976 414.453758 
L 410.533524 414.501518 
L 432.133366 414.513802 
L 453.733079 414.48801 
L 475.332203 414.421078 
L 496.930682 414.309371 
L 518.527812 414.148549 
L 540.12246 413.933397 
L 561.713945 413.657571 
L 583.300891 413.31328 
L 604.879745 412.89087 
L 626.446995 412.378135 
L 648 411.75931 
L 648 411.75931 
" clip-path="url(#p272ad5c242)" style="fill: none; stroke: #1f77b4; stroke-width: 1.5"/>
    <path d="M 0 394.400468 
L 0.595402 394.419747 
L 22.162935 395.104124 
L 43.732763 395.760726 
L 65.304885 396.38931 
L 86.879244 396.989577 
L 108.455759 397.56117 
L 130.034416 398.103668 
L 151.615186 398.616572 
L 173.197968 399.099296 
L 194.782708 399.551159 
L 216.369433 399.971366 
L 237.958002 400.358994 
L 259.548278 400.712968 
L 281.140309 401.032048 
L 302.733958 401.314786 
L 324.328999 401.559501 
L 345.925401 401.764236 
L 367.523065 401.926703 
L 389.12157 402.044214 
L 410.720644 402.113608 
L 432.320317 402.131137 
L 453.919684 402.092335 
L 475.51777 401.991836 
L 497.114431 401.823131 
L 518.708019 401.578254 
L 540.295886 401.247333 
L 561.876391 400.817918 
L 583.44602 400.274055 
L 604.99574 399.594985 
L 626.51632 398.752744 
L 648 397.708138 
L 648 397.708138 
" clip-path="url(#p272ad5c242)" style="fill: none; stroke: #1f77b4; stroke-width: 1.5"/>
    <path d="M 0 380.381475 
L 0.989769 380.422256 
L 22.543722 381.29342 
L 44.100742 382.130906 
L 65.660852 382.934294 
L 87.223994 383.703092 
L 108.790082 384.436733 
L 130.359119 385.134563 
L 151.931088 385.795826 
L 173.505868 386.419647 
L 195.083409 387.005019 
L 216.663773 387.550781 
L 238.246776 388.055585 
L 259.832249 388.517871 
L 281.420283 388.935832 
L 303.010694 389.307364 
L 324.603168 389.630005 
L 346.197684 389.900875 
L 367.7941 390.116576 
L 389.39179 390.273079 
L 410.990357 390.365578 
L 432.589839 390.388293 
L 454.188796 390.334199 
L 475.785674 390.194678 
L 497.380201 389.958996 
L 518.969519 389.613598 
L 540.549027 389.141065 
L 562.11566 388.518372 
L 583.662543 387.714317 
L 605.172213 386.685361 
L 626.625038 385.36711 
L 648 383.656966 
L 648 383.656966 
" clip-path="url(#p272ad5c242)" style="fill: none; stroke: #1f77b4; stroke-width: 1.5"/>
    <path d="M 0 356.915882 
L 2.542283 357.059113 
L 24.053066 358.249887 
L 45.569764 359.398632 
L 67.092387 360.504536 
L 88.620832 361.566686 
L 110.154965 362.584055 
L 131.69478 363.555491 
L 153.240215 364.479684 
L 174.791075 365.355141 
L 196.347279 366.180161 
L 217.908871 366.952797 
L 239.475544 367.670791 
L 261.047037 368.331531 
L 282.623477 368.931989 
L 304.204493 369.468595 
L 325.789542 369.937138 
L 347.378629 370.332624 
L 368.971404 370.64905 
L 390.566669 370.879132 
L 412.163761 371.01395 
L 433.762578 371.04241 
L 455.359593 370.950494 
L 476.951003 370.720177 
L 498.535652 370.327632 
L 520.098111 369.74082 
L 541.611622 368.915243 
L 563.050693 367.785304 
L 584.248202 366.258937 
L 604.666779 364.227703 
L 622.636604 361.713282 
L 636.317607 359.000122 
L 648 355.554621 
L 648 355.554621 
L 648 355.554621 
" clip-path="url(#p272ad5c242)" style="fill: none; stroke: #1f77b4; stroke-width: 1.5"/>
    <path d="M 648 327.452276 
L 648 327.452276 
L 633.257902 319.846972 
L 621.412106 314.560937 
L 607.759409 308.986101 
L 594.052519 303.754237 
L 579.937354 298.635982 
L 565.138191 293.48624 
L 548.984251 288.055585 
L 531.514154 282.351275 
L 514.145194 276.807312 
L 498.695468 271.951238 
L 487.764807 268.544798 
L 479.968908 266.125326 
L 471.412872 263.47457 
L 464.153 261.224995 
L 457.902949 259.284308 
L 452.502694 257.601245 
L 447.854212 256.14493 
L 443.890981 254.895134 
L 440.560376 253.836663 
L 437.812258 252.95563 
L 435.591963 252.23703 
L 433.83755 251.663563 
L 432.481129 251.21574 
L 431.468001 250.878032 
L 430.727847 250.629115 
L 430.189937 250.446746 
L 429.7967 250.312451 
L 429.50786 250.213163 
L 429.294879 250.139526 
L 429.13733 250.084777 
L 429.020474 250.043988 
L 428.933608 250.013548 
L 428.868914 249.990802 
L 428.820656 249.973785 
L 428.784611 249.961042 
L 428.757657 249.951494 
L 428.737483 249.944333 
L 428.722371 249.938961 
L 428.711044 249.934929 
L 428.702548 249.931901 
L 428.696173 249.929627 
L 428.691387 249.927918 
L 428.687793 249.926634 
L 428.685094 249.925669 
L 428.683065 249.924944 
L 428.681541 249.924399 
L 428.680396 249.923989 
L 428.679534 249.92368 
L 428.678887 249.923448 
L 428.6784 249.923274 
L 428.678034 249.923143 
L 428.677759 249.923044 
L 428.677552 249.92297 
L 428.677396 249.922914 
L 428.677279 249.922872 
L 428.677191 249.922841 
L 428.677124 249.922817 
L 428.677074 249.922799 
L 428.677037 249.922785 
L 428.677009 249.922775 
" clip-path="url(#p272ad5c242)" style="fill: none; stroke: #1f77b4; stroke-width: 1.5"/>
    <path d="M 648 285.298759 
L 648 285.298759 
L 627.265141 281.528562 
L 606.54695 277.772846 
L 585.843648 274.035855 
L 565.224171 270.335844 
L 544.816233 266.703129 
L 524.673828 263.157229 
L 504.794689 259.712469 
L 486.715402 256.649401 
" clip-path="url(#p272ad5c242)" style="fill: none; stroke: #1f77b4; stroke-width: 1.5"/>
    <path d="M 648 257.196414 
L 648 257.196414 
L 626.93142 254.247224 
L 605.848418 251.347673 
L 584.745462 248.508399 
L 563.623372 245.744429 
L 542.473626 243.074893 
L 521.272002 240.525715 
L 500.014035 238.140362 
L 478.70733 235.991886 
L 457.338766 234.214816 
L 435.862675 233.13527 
L 435.862675 233.13527 
L 427.062535 233.051021 
L 419.894196 233.318659 
L 415.368688 233.776059 
L 411.702497 234.522519 
L 409.24512 235.558361 
L 408.098961 236.906283 
L 408.381583 238.584206 
L 409.988748 240.4411 
L 412.3271 242.199273 
" clip-path="url(#p272ad5c242)" style="fill: none; stroke: #1f77b4; stroke-width: 1.5"/>
    <path d="M 648 243.145241 
L 648 243.145241 
L 626.835878 240.433766 
L 605.65218 237.784342 
L 584.446784 235.20951 
L 563.216095 232.725401 
L 541.955908 230.353635 
L 520.66002 228.124231 
L 499.320962 226.081323 
" clip-path="url(#p272ad5c242)" style="fill: none; stroke: #1f77b4; stroke-width: 1.5"/>
    <path d="M 648 229.094069 
L 648 229.094069 
L 626.781504 226.563434 
L 605.542966 224.10402 
L 584.281122 221.728875 
L 562.992728 219.454792 
L 541.674306 217.303913 
L 520.320189 215.306248 
L 498.92416 213.504621 
L 477.487107 211.964202 
L 456.0058 210.790536 
L 434.459731 210.178129 
L 434.459731 210.178129 
L 417.907298 210.333359 
L 403.744475 211.27693 
L 394.41657 212.711458 
L 388.244957 214.51185 
L 384.467503 216.596802 
L 382.589701 218.958292 
L 382.38348 221.628625 
L 383.818915 224.664524 
L 386.611221 227.792648 
L 390.100178 230.692459 
" clip-path="url(#p272ad5c242)" style="fill: none; stroke: #1f77b4; stroke-width: 1.5"/>
    <path d="M 648 200.991724 
L 648 200.991724 
L 626.706861 198.714346 
L 605.391973 196.519511 
L 584.052506 194.420534 
L 562.686486 192.434217 
L 541.291986 190.582048 
L 519.864683 188.892038 
L 498.400664 187.402293 
L 476.904382 186.167126 
L 455.377104 185.266641 
L 433.807644 184.828928 
L 412.4569 185.07744 
L 391.795659 186.409304 
L 391.795659 186.409304 
L 376.752948 188.664134 
L 376.752948 188.664134 
L 367.112897 191.383832 
L 367.112897 191.383832 
L 360.702295 194.729337 
L 360.702295 194.729337 
L 357.664776 197.908936 
L 356.530998 200.947105 
L 356.704039 204.102766 
L 358.362767 207.971044 
L 361.793456 212.438602 
L 366.772533 217.145554 
" clip-path="url(#p272ad5c242)" style="fill: none; stroke: #1f77b4; stroke-width: 1.5"/>
    <path d="M 648 186.940552 
L 648 186.940552 
L 626.682557 184.755456 
L 605.344013 182.656574 
L 583.981435 180.657053 
L 562.592867 178.773334 
L 541.176885 177.026247 
L 519.729721 175.44253 
L 498.248163 174.057894 
L 476.737095 172.921986 
L 455.198579 172.105702 
L 433.623821 171.717299 
L 412.179142 171.934584 
L 391.147111 173.056611 
L 370.894043 175.70485 
L 370.894043 175.70485 
L 359.71407 178.471027 
L 359.71407 178.471027 
" clip-path="url(#p272ad5c242)" style="fill: none; stroke: #1f77b4; stroke-width: 1.5"/>
    <path d="M 648 172.889379 
L 648 172.889379 
L 626.663163 170.781188 
L 605.305335 168.761947 
L 583.923698 166.844595 
L 562.516608 165.045189 
L 541.083105 163.383861 
L 519.619889 161.886126 
L 498.124322 160.585514 
L 476.601633 159.5277 
L 455.054484 158.776208 
L 433.475794 158.424569 
L 411.964351 158.61974 
L 390.682123 159.600742 
L 369.814167 161.826085 
L 369.814167 161.826085 
L 356.233704 164.469675 
L 356.233704 164.469675 
" clip-path="url(#p272ad5c242)" style="fill: none; stroke: #1f77b4; stroke-width: 1.5"/>
    <path d="M 648 158.838207 
L 648 158.838207 
L 626.646771 156.795021 
L 605.272693 154.842894 
L 583.875058 152.994526 
L 562.452496 151.265568 
L 541.004535 149.675475 
L 519.528365 148.24862 
L 498.021805 147.01659 
L 476.490249 146.021675 
L 454.936672 145.32142 
L 433.355133 144.998119 
L 411.809256 145.176459 
L 390.394952 146.052644 
L 369.19031 147.981744 
L 369.19031 147.981744 
L 352.406425 150.776874 
L 352.406425 150.776874 
L 341.129079 153.80803 
L 332.121285 157.621833 
L 326.214186 161.686039 
L 322.633864 166.046816 
L 321.010542 170.79809 
L 321.248397 176.059311 
L 323.455566 181.976491 
L 327.925329 188.724171 
L 335.029282 196.400998 
L 343.35641 203.67092 
" clip-path="url(#p272ad5c242)" style="fill: none; stroke: #1f77b4; stroke-width: 1.5"/>
    <path d="M 648 144.787034 
L 648 144.787034 
L 626.633364 142.79957 
L 605.246284 140.904827 
L 583.836189 139.115252 
L 562.401942 137.446084 
L 540.943281 135.916111 
L 519.457618 134.548641 
L 497.943105 133.373539 
L 476.405163 132.430201 
L 454.846941 131.771276 
L 433.263368 131.470269 
L 411.707081 131.63509 
L 390.254577 132.428843 
L 368.959618 134.127982 
L 348.688442 137.134077 
L 348.688442 137.134077 
L 335.314603 140.403961 
L 324.060492 144.812106 
L 316.559213 149.70767 
L 312.183729 154.857142 
L 310.263931 159.99813 
L 310.208664 165.468011 
" clip-path="url(#p272ad5c242)" style="fill: none; stroke: #1f77b4; stroke-width: 1.5"/>
    <path d="M 648 130.735862 
L 648 130.735862 
L 626.622296 128.79669 
L 605.224404 126.951539 
L 583.803855 125.212599 
L 562.359698 123.594715 
L 540.891919 122.116057 
L 519.398205 120.798978 
L 497.876996 119.671823 
L 476.333728 118.771518 
L 454.771682 118.146647 
L 433.186465 117.863703 
L 411.621952 118.017825 
L 390.140108 118.74839 
L 368.779353 120.280318 
L 348.101832 122.943889 
L 348.101832 122.943889 
L 332.094721 126.327699 
L 318.174613 131.104316 
L 308.862993 136.396417 
" clip-path="url(#p272ad5c242)" style="fill: none; stroke: #1f77b4; stroke-width: 1.5"/>
    <path d="M 648 102.633517 
L 648 102.633517 
L 626.60424 100.773793 
L 605.18885 99.009962 
L 583.751544 97.35373 
L 562.291675 95.819212 
L 540.809615 94.423481 
L 519.303475 93.18724 
L 497.772117 92.136306 
L 476.220915 91.303618 
L 454.653254 90.731465 
L 433.065667 90.475929 
L 411.491233 90.614149 
L 389.974495 91.2539 
L 368.537234 92.557341 
L 347.422642 94.763636 
L 327.164622 98.212723 
L 327.164622 98.212723 
L 311.286537 102.440749 
L 311.286537 102.440749 
L 299.418939 107.227279 
L 299.418939 107.227279 
L 290.784545 112.518785 
L 284.593563 118.681194 
L 281.331048 124.515745 
L 279.935137 130.763812 
L 280.40149 137.962845 
L 283.077913 146.251659 
L 288.042037 155.273377 
L 294.690303 164.24591 
L 300.741134 171.114271 
" clip-path="url(#p272ad5c242)" style="fill: none; stroke: #1f77b4; stroke-width: 1.5"/>
    <path d="M 648 88.582345 
L 648 88.582345 
L 626.597136 86.755716 
L 605.174886 85.025653 
L 583.731045 83.403635 
L 562.265084 81.903445 
L 540.777514 80.541673 
L 519.266619 79.338314 
L 497.731422 78.318127 
L 476.177246 77.512435 
L 454.607494 76.96105 
L 433.019037 76.716114 
L 411.441647 76.848236 
L 389.914763 77.454253 
L 368.456135 78.676076 
L 347.25444 80.718744 
L 326.716315 83.870955 
L 307.331662 88.59933 
L 307.331662 88.59933 
L 294.358771 93.438864 
L 294.358771 93.438864 
" clip-path="url(#p272ad5c242)" style="fill: none; stroke: #1f77b4; stroke-width: 1.5"/>
    <path d="M 648 74.531172 
L 648 74.531172 
L 626.590784 72.734133 
L 605.162412 71.034207 
L 583.712752 69.442661 
L 562.241378 67.972969 
L 540.74893 66.641276 
L 519.233839 65.466937 
L 497.695269 64.473766 
L 476.138496 63.691668 
L 454.566929 63.158311 
L 432.977725 62.922498 
L 411.397822 63.049436 
L 389.86242 63.627158 
L 368.386209 64.781875 
L 347.114501 66.693309 
L 326.356359 69.613814 
L 306.476692 73.943599 
L 306.476692 73.943599 
L 291.739527 78.774832 
L 291.739527 78.774832 
" clip-path="url(#p272ad5c242)" style="fill: none; stroke: #1f77b4; stroke-width: 1.5"/>
    <path d="M 648 65.708276 
L 645.271028 65.476898 
L 623.855836 63.708745 
L 602.421378 62.039322 
L 580.965517 60.48 
L 580.965517 60.48 
" clip-path="url(#p272ad5c242)" style="fill: none; stroke: #1f77b4; stroke-width: 1.5"/>
    <path d="M 290.482759 60.48 
L 290.482759 60.48 
L 290.482759 60.48 
L 278.131154 65.412078 
L 267.855906 71.313509 
L 260.626328 77.442425 
L 255.59313 84.096337 
L 252.56461 91.356836 
L 251.481789 99.349551 
L 252.403165 108.164133 
L 255.38728 117.741083 
L 260.321249 127.809811 
L 266.776927 137.862853 
L 274.922933 148.324436 
" clip-path="url(#p272ad5c242)" style="fill: none; stroke: #1f77b4; stroke-width: 1.5"/>
    <path d="M 201.103448 60.48 
L 201.103448 60.48 
L 208.216298 72.537191 
L 216.017131 84.565563 
L 224.224586 96.196403 
L 232.538024 107.126376 
" clip-path="url(#p272ad5c242)" style="fill: none; stroke: #1f77b4; stroke-width: 1.5"/>
    <path d="M 156.413793 60.48 
L 156.413793 60.48 
L 170.324884 70.302482 
L 183.614794 80.200878 
L 196.501688 90.273195 
L 209.250909 100.659838 
L 221.708103 111.140753 
L 233.394624 121.176845 
L 244.411902 130.721622 
L 255.306432 140.140506 
" clip-path="url(#p272ad5c242)" style="fill: none; stroke: #1f77b4; stroke-width: 1.5"/>
    <path d="M 111.724138 60.48 
L 111.724138 60.48 
L 128.717372 68.740398 
L 145.382469 77.24829 
L 161.558729 85.93995 
L 177.188319 94.78704 
" clip-path="url(#p272ad5c242)" style="fill: none; stroke: #1f77b4; stroke-width: 1.5"/>
    <path d="M 67.034483 60.48 
L 67.034483 60.48 
L 85.339187 67.649176 
L 103.41499 74.981521 
L 121.255656 82.497765 
L 138.872984 90.228742 
L 156.190675 98.166885 
L 173.159178 106.311613 
L 189.758478 114.670654 
L 205.978689 123.2485 
L 221.684571 131.965461 
" clip-path="url(#p272ad5c242)" style="fill: none; stroke: #1f77b4; stroke-width: 1.5"/>
    <path d="M 0 60.48 
L 0 60.48 
L 19.220549 66.663682 
L 38.342589 72.945452 
L 57.364117 79.337254 
L 76.277207 85.850768 
L 95.055258 92.492828 
L 113.685708 99.27672 
L 132.184559 106.2286 
L 150.50256 113.35234 
" clip-path="url(#p272ad5c242)" style="fill: none; stroke: #1f77b4; stroke-width: 1.5"/>
    <path d="M 0 88.582345 
L 0 88.582345 
L 19.618761 94.242621 
L 39.183848 99.97103 
L 58.69833 105.776472 
L 78.150021 111.664415 
L 97.514025 117.637446 
L 116.780188 123.703748 
L 135.951092 129.877098 
L 155.002869 136.164478 
L 173.90724 142.57269 
L 192.69179 149.129488 
L 211.36401 155.858833 
L 229.718742 162.70638 
L 247.575812 169.616659 
L 264.998103 176.620632 
L 282.162719 183.795978 
L 298.628034 190.947229 
L 314.075337 197.891149 
" clip-path="url(#p272ad5c242)" style="fill: none; stroke: #1f77b4; stroke-width: 1.5"/>
    <path d="M 0 116.68469 
L 0 116.68469 
L 19.978878 121.827363 
L 39.927019 127.006549 
L 59.845525 132.226514 
L 79.732675 137.491334 
L 99.583393 142.804817 
L 119.399264 148.173298 
L 139.1817 153.604014 
L 158.904195 159.09751 
L 178.539711 164.655029 
L 198.087123 170.286338 
L 217.543426 176.002408 
L 236.816265 181.789117 
L 255.882687 187.653529 
L 274.90431 193.663488 
L 293.717606 199.788186 
" clip-path="url(#p272ad5c242)" style="fill: none; stroke: #1f77b4; stroke-width: 1.5"/>
    <path d="M 0 144.787034 
L 0 144.787034 
L 20.300089 149.419871 
L 40.593622 154.0635 
L 60.877281 158.718185 
L 81.148295 163.384444 
L 101.403885 168.062941 
L 121.643744 172.755094 
L 141.870455 177.463225 
L 162.079137 182.188199 
L 182.267783 186.931885 
L 202.44826 191.69987 
L 222.631686 196.498201 
L 242.784078 201.322924 
L 262.866943 206.169736 
L 282.877988 211.044202 
L 302.465899 215.867247 
L 321.241841 220.548111 
L 339.228097 225.097269 
L 356.599213 229.567233 
L 356.599213 229.567233 
" clip-path="url(#p272ad5c242)" style="fill: none; stroke: #1f77b4; stroke-width: 1.5"/>
    <path d="M 0 158.838207 
L 0 158.838207 
L 20.437811 163.21787 
L 40.872361 167.595622 
L 61.304884 171.971632 
L 81.735625 176.345843 
L 102.16411 180.718031 
L 122.592156 185.088444 
L 143.023977 189.457821 
" clip-path="url(#p272ad5c242)" style="fill: none; stroke: #1f77b4; stroke-width: 1.5"/>
    <path d="M 0 172.889379 
L 0 172.889379 
L 20.566146 177.018805 
L 41.137047 181.136158 
L 61.71461 185.240834 
L 82.300362 189.332026 
" clip-path="url(#p272ad5c242)" style="fill: none; stroke: #1f77b4; stroke-width: 1.5"/>
    <path d="M 0 186.940552 
L 0 186.940552 
L 20.692216 190.82418 
L 41.396527 194.686849 
L 62.11282 198.526864 
L 82.838293 202.341843 
L 103.571599 206.129445 
L 124.313645 209.887461 
L 145.065839 213.613423 
L 165.828374 217.304208 
L 186.602108 220.956271 
L 207.390155 224.565753 
L 228.193499 228.127496 
L 249.013441 231.635151 
L 269.857876 235.081714 
L 290.734887 238.457598 
L 311.666791 241.751453 
L 332.648633 244.941073 
L 353.656095 247.990434 
L 373.729727 250.720425 
L 391.540081 252.923617 
L 406.039208 254.477281 
" clip-path="url(#p272ad5c242)" style="fill: none; stroke: #1f77b4; stroke-width: 1.5"/>
    <path d="M 0 200.991724 
L 0 200.991724 
L 20.80482 204.631931 
L 41.620001 208.242107 
L 62.446573 211.820296 
L 83.285441 215.36427 
L 104.137505 218.8715 
L 125.004213 222.339192 
L 145.887447 225.764174 
L 166.788725 229.142668 
L 187.710407 232.470338 
" clip-path="url(#p272ad5c242)" style="fill: none; stroke: #1f77b4; stroke-width: 1.5"/>
    <path d="M 0 229.094069 
L 0 229.094069 
L 20.99924 232.25722 
L 42.015426 235.378295 
L 63.049915 238.454876 
L 84.104224 241.484272 
L 105.176833 244.463017 
L 126.265848 247.387207 
L 147.372172 250.252845 
L 168.49688 253.055348 
L 189.6412 255.789382 
L 210.806622 258.448666 
L 231.994676 261.025655 
L 253.207089 263.511135 
L 274.446201 265.89366 
L 295.714533 268.158556 
L 317.014253 270.286374 
L 338.348885 272.250542 
L 359.724745 274.012857 
L 380.839242 275.49454 
L 401.349712 276.598478 
L 421.091065 277.194765 
L 438.823973 277.057232 
L 438.823973 277.057232 
L 448.74075 276.486986 
L 456.296109 275.53885 
" clip-path="url(#p272ad5c242)" style="fill: none; stroke: #1f77b4; stroke-width: 1.5"/>
    <path d="M 0 243.145241 
L 0 243.145241 
L 21.088948 246.076181 
L 42.192228 248.960174 
L 63.310514 251.794685 
L 84.444531 254.576902 
L 105.595056 257.303686 
L 126.762968 259.971512 
" clip-path="url(#p272ad5c242)" style="fill: none; stroke: #1f77b4; stroke-width: 1.5"/>
    <path d="M 0 257.196414 
L 0 257.196414 
L 21.160657 259.897674 
L 42.336416 262.548948 
L 63.527926 265.147754 
L 84.735865 267.691347 
L 105.960949 270.176671 
L 127.204004 272.600303 
L 148.465953 274.958372 
L 169.747698 277.246442 
L 191.050295 279.459397 
L 212.375113 281.591273 
L 233.723333 283.634962 
L 255.09626 285.581909 
L 276.495062 287.421604 
L 297.918903 289.14074 
L 319.366861 290.722359 
L 340.841062 292.144383 
L 362.344728 293.376594 
L 383.872707 294.375166 
L 405.420709 295.073706 
L 426.995331 295.361749 
L 448.103461 295.042158 
L 467.770677 293.793237 
L 467.770677 293.793237 
L 480.658646 291.94455 
L 480.658646 291.94455 
L 488.672047 289.694524 
L 488.672047 289.694524 
L 493.040917 287.170193 
L 493.040917 287.170193 
L 494.584417 284.546196 
L 494.291224 282.190495 
L 492.582379 279.582878 
" clip-path="url(#p272ad5c242)" style="fill: none; stroke: #1f77b4; stroke-width: 1.5"/>
    <path d="M 0 271.247586 
L 0 271.247586 
L 21.230855 273.724006 
L 42.477229 276.14854 
L 63.739724 278.518838 
L 85.018949 280.832302 
L 106.315534 283.086047 
L 127.630225 285.276851 
L 148.963326 287.401028 
L 170.313615 289.454241 
" clip-path="url(#p272ad5c242)" style="fill: none; stroke: #1f77b4; stroke-width: 1.5"/>
    <path d="M 0 299.349931 
L 0 299.349931 
L 21.349101 301.388933 
L 42.710109 303.375206 
L 64.083289 305.306834 
L 85.468844 307.181703 
L 106.866939 308.997471 
L 128.277847 310.751536 
L 149.701863 312.440977 
L 171.1391 314.062468 
L 192.589777 315.612221 
L 214.054391 317.085887 
L 235.53294 318.478357 
L 257.025403 319.783619 
L 278.532426 320.994545 
L 300.054007 322.102466 
L 321.589508 323.09671 
L 343.139268 323.963988 
L 364.703586 324.687301 
L 386.278869 325.244253 
L 407.862355 325.604694 
L 429.455495 325.726243 
L 450.98924 325.546886 
L 472.3501 324.974387 
L 493.418207 323.856224 
L 513.392489 321.972475 
L 513.392489 321.972475 
L 526.916534 319.891455 
L 537.850163 317.196122 
L 544.665322 314.404354 
L 548.613255 311.471354 
L 550.277133 308.302123 
" clip-path="url(#p272ad5c242)" style="fill: none; stroke: #1f77b4; stroke-width: 1.5"/>
    <path d="M 0 327.452276 
L 0 327.452276 
L 21.443855 329.070909 
L 42.897731 330.640261 
L 64.3617 332.158954 
L 85.834906 333.625408 
L 107.31645 335.037881 
L 128.806448 336.394514 
L 150.305018 337.693212 
L 171.812067 338.931596 
L 193.327622 340.106965 
L 214.851985 341.216232 
L 236.384937 342.255799 
L 257.926258 343.221477 
L 279.476347 344.108367 
L 301.034992 344.910616 
L 322.601529 345.621183 
L 344.176069 346.231538 
L 365.758567 346.731143 
L 387.346788 347.106738 
L 408.939115 347.341411 
L 430.536149 347.413024 
L 452.128631 347.29172 
L 473.704383 346.936037 
L 495.257923 346.285124 
L 516.732735 345.24612 
L 538.002617 343.667709 
L 558.901658 341.260687 
L 578.71722 337.404016 
L 578.71722 337.404016 
L 588.144512 334.306283 
L 588.144512 334.306283 
L 594.130549 331.030618 
L 597.337726 327.512759 
L 598.111898 324.474241 
L 597.184727 320.971359 
" clip-path="url(#p272ad5c242)" style="fill: none; stroke: #1f77b4; stroke-width: 1.5"/>
    <path d="M 0 341.503448 
L 0 341.503448 
L 21.478147 342.917988 
L 42.963457 344.286235 
L 64.456002 345.607103 
L 85.955754 346.879384 
" clip-path="url(#p272ad5c242)" style="fill: none; stroke: #1f77b4; stroke-width: 1.5"/>
    <path d="M 0 369.605793 
L 0 369.605793 
L 21.535785 370.62537 
L 43.076371 371.607256 
L 64.621722 372.550865 
L 86.171718 373.455528 
" clip-path="url(#p272ad5c242)" style="fill: none; stroke: #1f77b4; stroke-width: 1.5"/>
    <path d="M 107.936905 349.670646 
L 129.45386 350.819098 
L 150.977851 351.914991 
L 172.508725 352.956441 
L 194.046433 353.941311 
L 215.591148 354.867158 
L 237.142591 355.731145 
L 258.700491 356.529983 
L 280.265091 357.259845 
L 301.836102 357.916199 
L 323.412915 358.493653 
L 344.995541 358.985754 
L 366.583785 359.384658 
L 388.175981 359.680697 
L 409.770998 359.861834 
L 431.369178 359.912776 
L 452.964507 359.813674 
L 474.549666 359.538216 
L 496.122128 359.050155 
L 517.651361 358.298443 
L 539.076423 357.2082 
L 560.3332 355.658793 
L 580.78345 353.503432 
L 597.108188 351.012292 
L 609.583565 348.255244 
L 618.671184 345.280525 
L 625.655172 341.503448 
L 625.655172 341.503448 
L 625.655172 341.503448 
L 628.940569 337.899442 
L 629.562942 333.230114 
L 627.410737 328.891613 
L 623.539339 324.823493 
" clip-path="url(#p272ad5c242)" style="fill: none; stroke: #1f77b4; stroke-width: 1.5"/>
    <path d="M 648 118.670349 
L 647.042109 118.58326 
L 625.655172 116.68469 
L 604.248161 114.881535 
L 582.818667 113.185869 
" clip-path="url(#p272ad5c242)" style="fill: none; stroke: #1f77b4; stroke-width: 1.5"/>
    <path d="M 0 311.46406 
L 0.95387 311.547866 
L 22.344828 313.401103 
L 43.746983 315.202572 
L 65.16053 316.95058 
" clip-path="url(#p272ad5c242)" style="fill: none; stroke: #1f77b4; stroke-width: 1.5"/>
    <path d="M 276.352939 81.981858 
L 268.137931 88.582345 
L 268.137931 88.582345 
L 268.137931 88.582345 
L 263.117748 95.183758 
L 260.289584 102.167311 
L 259.409895 109.848389 
L 260.489769 118.153526 
" clip-path="url(#p272ad5c242)" style="fill: none; stroke: #1f77b4; stroke-width: 1.5"/>
    <path d="M 648 300.628044 
L 639.82223 298.756417 
L 620.365672 294.305306 
L 600.904703 289.856025 
L 580.965517 285.298759 
" clip-path="url(#p272ad5c242)" style="fill: none; stroke: #1f77b4; stroke-width: 1.5"/>
    <path d="M 536.275862 102.633517 
L 514.767279 101.412016 
L 493.233959 100.383732 
L 471.681439 99.584541 
L 450.111173 99.061065 
L 428.525406 98.876306 
L 406.96343 99.11804 
L 385.47019 99.912167 
L 364.071338 101.455487 
" clip-path="url(#p272ad5c242)" style="fill: none; stroke: #1f77b4; stroke-width: 1.5"/>
    <path d="M 0 128.226068 
L 6.770405 129.884385 
L 26.875825 134.82404 
L 46.963005 139.790455 
L 67.034483 144.787034 
" clip-path="url(#p272ad5c242)" style="fill: none; stroke: #1f77b4; stroke-width: 1.5"/>
    <path d="M 558.62069 200.991724 
L 537.239148 199.085345 
L 515.821473 197.346025 
L 494.365361 195.816456 
L 472.875386 194.558958 
" clip-path="url(#p272ad5c242)" style="fill: none; stroke: #1f77b4; stroke-width: 1.5"/>
    <path d="M 201.103448 130.735862 
L 218.004369 138.801214 
L 234.396941 146.989251 
L 250.238211 155.257519 
L 265.608189 163.609805 
" clip-path="url(#p272ad5c242)" style="fill: none; stroke: #1f77b4; stroke-width: 1.5"/>
    <path d="M 90.358384 297.382338 
L 111.724138 299.349931 
L 133.103677 301.253884 
L 154.497353 303.090884 
L 175.905431 304.857147 
" clip-path="url(#p272ad5c242)" style="fill: none; stroke: #1f77b4; stroke-width: 1.5"/>
    <path d="M 111.724138 327.452276 
L 133.196283 328.913024 
L 154.679487 330.312921 
L 176.173628 331.649214 
L 197.678294 332.918749 
L 219.193008 334.117903 
" clip-path="url(#p272ad5c242)" style="fill: none; stroke: #1f77b4; stroke-width: 1.5"/>
    <path d="M 289.847268 313.817889 
L 311.358424 314.984182 
L 332.885858 316.022103 
L 354.431217 316.914229 
L 375.992148 317.637435 
L 397.564542 318.160317 
L 419.148683 318.438487 
L 440.683987 318.405804 
L 461.975021 317.964093 
L 482.786552 316.957459 
L 498.844928 315.575336 
L 513.931034 313.401103 
L 513.931034 313.401103 
L 513.931034 313.401103 
L 522.968064 311.306359 
" clip-path="url(#p272ad5c242)" style="fill: none; stroke: #1f77b4; stroke-width: 1.5"/>
    <path d="M 487.012999 306.046862 
L 498.618632 304.326872 
L 507.618432 302.122534 
L 513.931034 299.349931 
L 513.931034 299.349931 
L 513.931034 299.349931 
L 516.891477 296.568219 
L 517.552976 293.380179 
L 515.646552 289.541395 
L 510.966997 285.20188 
L 504.976832 281.217209 
" clip-path="url(#p272ad5c242)" style="fill: none; stroke: #1f77b4; stroke-width: 1.5"/>
    <path d="M 135.835997 196.87645 
L 156.413793 200.991724 
L 176.989591 205.088689 
L 197.563726 209.165462 
L 218.13693 213.219831 
L 238.701695 217.247444 
L 259.253425 221.243845 
L 279.799047 225.205811 
L 300.225743 229.105846 
L 320.40691 232.912725 
" clip-path="url(#p272ad5c242)" style="fill: none; stroke: #1f77b4; stroke-width: 1.5"/>
    <path d="M 358.270422 285.216327 
L 379.762304 286.430533 
L 401.285103 287.330532 
L 422.8447 287.785906 
L 443.075359 287.576764 
L 456.7677 286.844975 
L 469.241379 285.298759 
L 469.241379 285.298759 
L 469.241379 285.298759 
L 475.884697 283.689079 
L 480.253853 281.65341 
" clip-path="url(#p272ad5c242)" style="fill: none; stroke: #1f77b4; stroke-width: 1.5"/>
    <path d="M 446.896552 200.991724 
L 425.548517 200.753442 
L 405.466824 201.496602 
L 405.466824 201.496602 
L 392.395279 202.914736 
L 392.395279 202.914736 
L 383.417231 204.825093 
L 377.004931 207.419359 
" clip-path="url(#p272ad5c242)" style="fill: none; stroke: #1f77b4; stroke-width: 1.5"/>
    <path d="M 159.043267 236.970692 
L 180.060524 240.088871 
L 201.103448 243.145241 
L 222.168881 246.132437 
L 243.255731 249.042034 
L 264.366024 251.864009 
L 285.502418 254.585578 
L 306.667192 257.189742 
L 327.863131 259.653151 
L 349.095383 261.942175 
" clip-path="url(#p272ad5c242)" style="fill: none; stroke: #1f77b4; stroke-width: 1.5"/>
    <path d="M 201.103448 299.349931 
L 222.519821 301.077412 
L 243.953111 302.71539 
L 265.40395 304.255995 
L 286.873605 305.689695 
" clip-path="url(#p272ad5c242)" style="fill: none; stroke: #1f77b4; stroke-width: 1.5"/>
   </g>
   <g id="patch_3">
    <path d="M 325.975887 465.69024 
Q 329.376327 465.681126 331.099722 465.676507 
" clip-path="url(#p272ad5c242)" style="fill: none; stroke: #1f77b4; stroke-width: 1.5; stroke-linecap: round"/>
    <path d="M 327.094375 463.687235 
L 331.099722 465.676507 
L 327.105097 467.687221 
z
" clip-path="url(#p272ad5c242)" style="fill: #1f77b4; stroke: #1f77b4; stroke-width: 1.5; stroke-linecap: round"/>
   </g>
   <g id="patch_4">
    <path d="M 304.415515 453.700316 
Q 307.815915 453.696873 309.539264 453.695128 
" clip-path="url(#p272ad5c242)" style="fill: none; stroke: #1f77b4; stroke-width: 1.5; stroke-linecap: round"/>
    <path d="M 305.537241 451.69918 
L 309.539264 453.695128 
L 305.541291 455.699178 
z
" clip-path="url(#p272ad5c242)" style="fill: #1f77b4; stroke: #1f77b4; stroke-width: 1.5; stroke-linecap: round"/>
   </g>
   <g id="patch_5">
    <path d="M 304.422197 440.251826 
Q 307.822571 440.257662 309.545896 440.26062 
" clip-path="url(#p272ad5c242)" style="fill: none; stroke: #1f77b4; stroke-width: 1.5; stroke-linecap: round"/>
    <path d="M 305.549334 438.253757 
L 309.545896 440.26062 
L 305.542469 442.253752 
z
" clip-path="url(#p272ad5c242)" style="fill: #1f77b4; stroke: #1f77b4; stroke-width: 1.5; stroke-linecap: round"/>
   </g>
   <g id="patch_6">
    <path d="M 304.430585 426.979416 
Q 307.83093 426.99534 309.554244 427.003411 
" clip-path="url(#p272ad5c242)" style="fill: none; stroke: #1f77b4; stroke-width: 1.5; stroke-linecap: round"/>
    <path d="M 305.563653 424.984701 
L 309.554244 427.003411 
L 305.544921 428.984657 
z
" clip-path="url(#p272ad5c242)" style="fill: #1f77b4; stroke: #1f77b4; stroke-width: 1.5; stroke-linecap: round"/>
   </g>
   <g id="patch_7">
    <path d="M 304.541215 413.963558 
Q 307.941307 413.990394 309.664399 414.003994 
" clip-path="url(#p272ad5c242)" style="fill: none; stroke: #1f77b4; stroke-width: 1.5; stroke-linecap: round"/>
    <path d="M 305.680309 411.972487 
L 309.664399 414.003994 
L 305.648739 415.972362 
z
" clip-path="url(#p272ad5c242)" style="fill: #1f77b4; stroke: #1f77b4; stroke-width: 1.5; stroke-linecap: round"/>
   </g>
   <g id="patch_8">
    <path d="M 304.734768 401.337459 
Q 308.134473 401.375985 309.857235 401.395507 
" clip-path="url(#p272ad5c242)" style="fill: none; stroke: #1f77b4; stroke-width: 1.5; stroke-linecap: round"/>
    <path d="M 305.880154 399.35031 
L 309.857235 401.395507 
L 305.834829 403.350054 
z
" clip-path="url(#p272ad5c242)" style="fill: #1f77b4; stroke: #1f77b4; stroke-width: 1.5; stroke-linecap: round"/>
   </g>
   <g id="patch_9">
    <path d="M 305.011266 389.337257 
Q 308.410567 389.388051 310.133005 389.413788 
" clip-path="url(#p272ad5c242)" style="fill: none; stroke: #1f77b4; stroke-width: 1.5; stroke-linecap: round"/>
    <path d="M 306.163332 387.354249 
L 310.133005 389.413788 
L 306.10357 391.353802 
z
" clip-path="url(#p272ad5c242)" style="fill: #1f77b4; stroke: #1f77b4; stroke-width: 1.5; stroke-linecap: round"/>
   </g>
   <g id="patch_10">
    <path d="M 306.204378 369.512006 
Q 309.60251 369.585769 311.323986 369.623137 
" clip-path="url(#p272ad5c242)" style="fill: none; stroke: #1f77b4; stroke-width: 1.5; stroke-linecap: round"/>
    <path d="M 307.368331 367.536801 
L 311.323986 369.623137 
L 307.281525 371.535859 
z
" clip-path="url(#p272ad5c242)" style="fill: #1f77b4; stroke: #1f77b4; stroke-width: 1.5; stroke-linecap: round"/>
   </g>
   <g id="patch_11">
    <path d="M 547.086255 287.435854 
Q 544.617505 286.629761 543.742974 286.344211 
" clip-path="url(#p272ad5c242)" style="fill: none; stroke: #1f77b4; stroke-width: 1.5; stroke-linecap: round"/>
    <path d="M 546.924627 289.486994 
L 543.742974 286.344211 
L 548.166192 285.684559 
z
" clip-path="url(#p272ad5c242)" style="fill: #1f77b4; stroke: #1f77b4; stroke-width: 1.5; stroke-linecap: round"/>
   </g>
   <g id="patch_12">
    <path d="M 583.872816 273.682204 
Q 580.686686 273.110477 579.151242 272.834953 
" clip-path="url(#p272ad5c242)" style="fill: none; stroke: #1f77b4; stroke-width: 1.5; stroke-linecap: round"/>
    <path d="M 582.735114 275.509997 
L 579.151242 272.834953 
L 583.4416 271.572881 
z
" clip-path="url(#p272ad5c242)" style="fill: #1f77b4; stroke: #1f77b4; stroke-width: 1.5; stroke-linecap: round"/>
   </g>
   <g id="patch_13">
    <path d="M 540.488562 242.836219 
Q 537.175621 242.437887 535.52774 242.239754 
" clip-path="url(#p272ad5c242)" style="fill: none; stroke: #1f77b4; stroke-width: 1.5; stroke-linecap: round"/>
    <path d="M 539.260386 244.702953 
L 535.52774 242.239754 
L 539.737887 240.731557 
z
" clip-path="url(#p272ad5c242)" style="fill: #1f77b4; stroke: #1f77b4; stroke-width: 1.5; stroke-linecap: round"/>
   </g>
   <g id="patch_14">
    <path d="M 582.458998 234.976928 
Q 579.137304 234.588271 577.481297 234.394509 
" clip-path="url(#p272ad5c242)" style="fill: none; stroke: #1f77b4; stroke-width: 1.5; stroke-linecap: round"/>
    <path d="M 581.221769 236.845809 
L 577.481297 234.394509 
L 581.68662 232.872912 
z
" clip-path="url(#p272ad5c242)" style="fill: #1f77b4; stroke: #1f77b4; stroke-width: 1.5; stroke-linecap: round"/>
   </g>
   <g id="patch_15">
    <path d="M 518.32737 215.138445 
Q 514.971534 214.855871 513.286835 214.714013 
" clip-path="url(#p272ad5c242)" style="fill: none; stroke: #1f77b4; stroke-width: 1.5; stroke-linecap: round"/>
    <path d="M 517.104916 217.042587 
L 513.286835 214.714013 
L 517.440543 213.056693 
z
" clip-path="url(#p272ad5c242)" style="fill: #1f77b4; stroke: #1f77b4; stroke-width: 1.5; stroke-linecap: round"/>
   </g>
   <g id="patch_16">
    <path d="M 496.403756 187.287551 
Q 493.0259 187.093461 491.322333 186.995575 
" clip-path="url(#p272ad5c242)" style="fill: none; stroke: #1f77b4; stroke-width: 1.5; stroke-linecap: round"/>
    <path d="M 495.201016 189.221741 
L 491.322333 186.995575 
L 495.430476 185.228328 
z
" clip-path="url(#p272ad5c242)" style="fill: #1f77b4; stroke: #1f77b4; stroke-width: 1.5; stroke-linecap: round"/>
   </g>
   <g id="patch_17">
    <path d="M 517.734181 175.313904 
Q 514.358638 175.096326 512.656674 174.986623 
" clip-path="url(#p272ad5c242)" style="fill: none; stroke: #1f77b4; stroke-width: 1.5; stroke-linecap: round"/>
    <path d="M 516.519743 177.239775 
L 512.656674 174.986623 
L 516.777037 173.248059 
z
" clip-path="url(#p272ad5c242)" style="fill: #1f77b4; stroke: #1f77b4; stroke-width: 1.5; stroke-linecap: round"/>
   </g>
   <g id="patch_18">
    <path d="M 517.623047 161.765305 
Q 514.245303 161.560931 512.541549 161.457844 
" clip-path="url(#p272ad5c242)" style="fill: none; stroke: #1f77b4; stroke-width: 1.5; stroke-linecap: round"/>
    <path d="M 516.413456 163.695775 
L 512.541549 161.457844 
L 516.655038 159.703077 
z
" clip-path="url(#p272ad5c242)" style="fill: #1f77b4; stroke: #1f77b4; stroke-width: 1.5; stroke-linecap: round"/>
   </g>
   <g id="patch_19">
    <path d="M 474.493281 145.956795 
Q 471.10439 145.846694 469.391666 145.791049 
" clip-path="url(#p272ad5c242)" style="fill: none; stroke: #1f77b4; stroke-width: 1.5; stroke-linecap: round"/>
    <path d="M 473.324613 147.919882 
L 469.391666 145.791049 
L 473.454501 143.921991 
z
" clip-path="url(#p272ad5c242)" style="fill: #1f77b4; stroke: #1f77b4; stroke-width: 1.5; stroke-linecap: round"/>
   </g>
   <g id="patch_20">
    <path d="M 474.407764 132.369151 
Q 471.018143 132.265547 469.304791 132.213179 
" clip-path="url(#p272ad5c242)" style="fill: none; stroke: #1f77b4; stroke-width: 1.5; stroke-linecap: round"/>
    <path d="M 473.241822 134.334448 
L 469.304791 132.213179 
L 473.364025 130.336315 
z
" clip-path="url(#p272ad5c242)" style="fill: #1f77b4; stroke: #1f77b4; stroke-width: 1.5; stroke-linecap: round"/>
   </g>
   <g id="patch_21">
    <path d="M 495.880983 119.588409 
Q 492.493713 119.446853 490.782032 119.375321 
" clip-path="url(#p272ad5c242)" style="fill: none; stroke: #1f77b4; stroke-width: 1.5; stroke-linecap: round"/>
    <path d="M 494.695035 121.540593 
L 490.782032 119.375321 
L 494.862052 117.544081 
z
" clip-path="url(#p272ad5c242)" style="fill: #1f77b4; stroke: #1f77b4; stroke-width: 1.5; stroke-linecap: round"/>
   </g>
   <g id="patch_22">
    <path d="M 452.653134 90.707789 
Q 449.254603 90.66756 447.533004 90.647181 
" clip-path="url(#p272ad5c242)" style="fill: none; stroke: #1f77b4; stroke-width: 1.5; stroke-linecap: round"/>
    <path d="M 451.509051 92.694387 
L 447.533004 90.647181 
L 451.556397 88.694667 
z
" clip-path="url(#p272ad5c242)" style="fill: #1f77b4; stroke: #1f77b4; stroke-width: 1.5; stroke-linecap: round"/>
   </g>
   <g id="patch_23">
    <path d="M 474.178779 77.461349 
Q 470.787345 77.374654 469.072415 77.330815 
" clip-path="url(#p272ad5c242)" style="fill: none; stroke: #1f77b4; stroke-width: 1.5; stroke-linecap: round"/>
    <path d="M 473.02 79.43238 
L 469.072415 77.330815 
L 473.122218 75.433687 
z
" clip-path="url(#p272ad5c242)" style="fill: #1f77b4; stroke: #1f77b4; stroke-width: 1.5; stroke-linecap: round"/>
   </g>
   <g id="patch_24">
    <path d="M 474.13986 63.642251 
Q 470.743851 63.558285 469.02438 63.515771 
" clip-path="url(#p272ad5c242)" style="fill: none; stroke: #1f77b4; stroke-width: 1.5; stroke-linecap: round"/>
    <path d="M 472.973723 65.61403 
L 469.02438 63.515771 
L 473.072592 61.615252 
z
" clip-path="url(#p272ad5c242)" style="fill: #1f77b4; stroke: #1f77b4; stroke-width: 1.5; stroke-linecap: round"/>
   </g>
   <g id="patch_25">
    <path d="M 621.859438 63.553255 
Q 618.497575 63.291417 616.807699 63.159801 
" clip-path="url(#p272ad5c242)" style="fill: none; stroke: #1f77b4; stroke-width: 1.5; stroke-linecap: round"/>
    <path d="M 620.640322 65.464361 
L 616.807699 63.159801 
L 620.950921 61.476439 
z
" clip-path="url(#p272ad5c242)" style="fill: #1f77b4; stroke: #1f77b4; stroke-width: 1.5; stroke-linecap: round"/>
   </g>
   <g id="patch_26">
    <path d="M 252.296548 93.335501 
Q 252.294146 93.353235 252.516887 91.709099 
" clip-path="url(#p272ad5c242)" style="fill: none; stroke: #1f77b4; stroke-width: 1.5; stroke-linecap: round"/>
    <path d="M 255.035781 88.013808 
L 252.516887 91.709099 
L 251.071991 87.476809 
z
" clip-path="url(#p272ad5c242)" style="fill: #1f77b4; stroke: #1f77b4; stroke-width: 1.5; stroke-linecap: round"/>
   </g>
   <g id="patch_27">
    <path d="M 209.303768 74.213998 
Q 210.165645 75.542955 210.114997 75.46486 
" clip-path="url(#p272ad5c242)" style="fill: none; stroke: #1f77b4; stroke-width: 1.5; stroke-linecap: round"/>
    <path d="M 209.616507 71.020593 
L 210.114997 75.46486 
L 206.26049 73.197092 
z
" clip-path="url(#p272ad5c242)" style="fill: #1f77b4; stroke: #1f77b4; stroke-width: 1.5; stroke-linecap: round"/>
   </g>
   <g id="patch_28">
    <path d="M 198.054876 91.53856 
Q 199.689875 92.870575 200.024685 93.14334 
" clip-path="url(#p272ad5c242)" style="fill: none; stroke: #1f77b4; stroke-width: 1.5; stroke-linecap: round"/>
    <path d="M 198.186781 89.066318 
L 200.024685 93.14334 
L 195.660325 92.16745 
z
" clip-path="url(#p272ad5c242)" style="fill: #1f77b4; stroke: #1f77b4; stroke-width: 1.5; stroke-linecap: round"/>
   </g>
   <g id="patch_29">
    <path d="M 130.495362 69.6481 
Q 132.881311 70.866179 133.773599 71.321711 
" clip-path="url(#p272ad5c242)" style="fill: none; stroke: #1f77b4; stroke-width: 1.5; stroke-linecap: round"/>
    <path d="M 131.120399 67.721637 
L 133.773599 71.321711 
L 129.30162 71.284226 
z
" clip-path="url(#p272ad5c242)" style="fill: #1f77b4; stroke: #1f77b4; stroke-width: 1.5; stroke-linecap: round"/>
   </g>
   <g id="patch_30">
    <path d="M 140.695231 91.06403 
Q 143.203876 92.213951 144.188001 92.665058 
" clip-path="url(#p272ad5c242)" style="fill: none; stroke: #1f77b4; stroke-width: 1.5; stroke-linecap: round"/>
    <path d="M 141.385195 89.180193 
L 144.188001 92.665058 
L 139.718426 92.816383 
z
" clip-path="url(#p272ad5c242)" style="fill: #1f77b4; stroke: #1f77b4; stroke-width: 1.5; stroke-linecap: round"/>
   </g>
   <g id="patch_31">
    <path d="M 59.252656 79.987651 
Q 62.092506 80.965672 63.346704 81.397608 
" clip-path="url(#p272ad5c242)" style="fill: none; stroke: #1f77b4; stroke-width: 1.5; stroke-linecap: round"/>
    <path d="M 60.21595 78.204118 
L 63.346704 81.397608 
L 58.91346 81.986118 
z
" clip-path="url(#p272ad5c242)" style="fill: #1f77b4; stroke: #1f77b4; stroke-width: 1.5; stroke-linecap: round"/>
   </g>
   <g id="patch_32">
    <path d="M 156.899768 136.80749 
Q 159.731156 137.767275 160.974265 138.188665 
" clip-path="url(#p272ad5c242)" style="fill: none; stroke: #1f77b4; stroke-width: 1.5; stroke-linecap: round"/>
    <path d="M 157.828072 135.010383 
L 160.974265 138.188665 
L 156.543924 138.79865 
z
" clip-path="url(#p272ad5c242)" style="fill: #1f77b4; stroke: #1f77b4; stroke-width: 1.5; stroke-linecap: round"/>
   </g>
   <g id="patch_33">
    <path d="M 141.11254 154.141829 
Q 144.115485 154.978268 145.502879 155.364713 
" clip-path="url(#p272ad5c242)" style="fill: none; stroke: #1f77b4; stroke-width: 1.5; stroke-linecap: round"/>
    <path d="M 142.186215 152.364755 
L 145.502879 155.364713 
L 141.112915 156.218069 
z
" clip-path="url(#p272ad5c242)" style="fill: #1f77b4; stroke: #1f77b4; stroke-width: 1.5; stroke-linecap: round"/>
   </g>
   <g id="patch_34">
    <path d="M 164.028505 182.646238 
Q 167.128599 183.374661 168.596104 183.719477 
" clip-path="url(#p272ad5c242)" style="fill: none; stroke: #1f77b4; stroke-width: 1.5; stroke-linecap: round"/>
    <path d="M 165.15963 180.857548 
L 168.596104 183.719477 
L 164.244676 184.751499 
z
" clip-path="url(#p272ad5c242)" style="fill: #1f77b4; stroke: #1f77b4; stroke-width: 1.5; stroke-linecap: round"/>
   </g>
   <g id="patch_35">
    <path d="M 63.262664 172.390792 
Q 66.413693 173.065426 67.924835 173.38896 
" clip-path="url(#p272ad5c242)" style="fill: none; stroke: #1f77b4; stroke-width: 1.5; stroke-linecap: round"/>
    <path d="M 64.432186 170.595861 
L 67.924835 173.38896 
L 63.594766 174.50722 
z
" clip-path="url(#p272ad5c242)" style="fill: #1f77b4; stroke: #1f77b4; stroke-width: 1.5; stroke-linecap: round"/>
   </g>
   <g id="patch_36">
    <path d="M 43.098849 181.527485 
Q 46.280422 182.162124 47.817345 182.4687 
" clip-path="url(#p272ad5c242)" style="fill: none; stroke: #1f77b4; stroke-width: 1.5; stroke-linecap: round"/>
    <path d="M 44.285865 179.724862 
L 47.817345 182.4687 
L 43.503386 183.647581 
z
" clip-path="url(#p272ad5c242)" style="fill: #1f77b4; stroke: #1f77b4; stroke-width: 1.5; stroke-linecap: round"/>
   </g>
   <g id="patch_37">
    <path d="M 188.573826 221.298625 
Q 191.800046 221.858802 193.373938 222.132081 
" clip-path="url(#p272ad5c242)" style="fill: none; stroke: #1f77b4; stroke-width: 1.5; stroke-linecap: round"/>
    <path d="M 189.77505 219.477272 
L 193.373938 222.132081 
L 189.090758 223.418306 
z
" clip-path="url(#p272ad5c242)" style="fill: #1f77b4; stroke: #1f77b4; stroke-width: 1.5; stroke-linecap: round"/>
   </g>
   <g id="patch_38">
    <path d="M 85.25814 215.696069 
Q 88.500373 216.2414 90.088785 216.508564 
" clip-path="url(#p272ad5c242)" style="fill: none; stroke: #1f77b4; stroke-width: 1.5; stroke-linecap: round"/>
    <path d="M 86.475924 213.872803 
L 90.088785 216.508564 
L 85.81246 217.817396 
z
" clip-path="url(#p272ad5c242)" style="fill: #1f77b4; stroke: #1f77b4; stroke-width: 1.5; stroke-linecap: round"/>
   </g>
   <g id="patch_39">
    <path d="M 212.790415 258.689944 
Q 216.101235 259.092621 217.747272 259.29282 
" clip-path="url(#p272ad5c242)" style="fill: none; stroke: #1f77b4; stroke-width: 1.5; stroke-linecap: round"/>
    <path d="M 214.018003 256.824511 
L 217.747272 259.29282 
L 213.535063 260.79525 
z
" clip-path="url(#p272ad5c242)" style="fill: #1f77b4; stroke: #1f77b4; stroke-width: 1.5; stroke-linecap: round"/>
   </g>
   <g id="patch_40">
    <path d="M 65.294408 252.055858 
Q 68.5948 252.490342 70.232487 252.705938 
" clip-path="url(#p272ad5c242)" style="fill: none; stroke: #1f77b4; stroke-width: 1.5; stroke-linecap: round"/>
    <path d="M 66.527745 250.200966 
L 70.232487 252.705938 
L 66.005664 254.166748 
z
" clip-path="url(#p272ad5c242)" style="fill: #1f77b4; stroke: #1f77b4; stroke-width: 1.5; stroke-linecap: round"/>
   </g>
   <g id="patch_41">
    <path d="M 235.714 283.8163 
Q 239.066212 284.121667 240.748289 284.274894 
" clip-path="url(#p272ad5c242)" style="fill: none; stroke: #1f77b4; stroke-width: 1.5; stroke-linecap: round"/>
    <path d="M 236.94622 281.920267 
L 240.748289 284.274894 
L 236.583346 285.903774 
z
" clip-path="url(#p272ad5c242)" style="fill: #1f77b4; stroke: #1f77b4; stroke-width: 1.5; stroke-linecap: round"/>
   </g>
   <g id="patch_42">
    <path d="M 87.007705 281.042765 
Q 90.341711 281.395592 92.007979 281.571927 
" clip-path="url(#p272ad5c242)" style="fill: none; stroke: #1f77b4; stroke-width: 1.5; stroke-linecap: round"/>
    <path d="M 88.240669 279.162077 
L 92.007979 281.571927 
L 87.819713 283.139865 
z
" clip-path="url(#p272ad5c242)" style="fill: #1f77b4; stroke: #1f77b4; stroke-width: 1.5; stroke-linecap: round"/>
   </g>
   <g id="patch_43">
    <path d="M 259.023309 319.896109 
Q 262.402853 320.08639 264.107998 320.182396 
" clip-path="url(#p272ad5c242)" style="fill: none; stroke: #1f77b4; stroke-width: 1.5; stroke-linecap: round"/>
    <path d="M 260.226753 317.9607 
L 264.107998 320.182396 
L 260.001894 321.954374 
z
" clip-path="url(#p272ad5c242)" style="fill: #1f77b4; stroke: #1f77b4; stroke-width: 1.5; stroke-linecap: round"/>
   </g>
   <g id="patch_44">
    <path d="M 303.033161 344.976451 
Q 306.428379 345.088315 308.147455 345.144955 
" clip-path="url(#p272ad5c242)" style="fill: none; stroke: #1f77b4; stroke-width: 1.5; stroke-linecap: round"/>
    <path d="M 304.215484 343.01432 
L 308.147455 345.144955 
L 304.083765 347.012151 
z
" clip-path="url(#p272ad5c242)" style="fill: #1f77b4; stroke: #1f77b4; stroke-width: 1.5; stroke-linecap: round"/>
   </g>
   <g id="patch_45">
    <path d="M 44.960018 344.408937 
Q 48.337287 344.616494 50.040663 344.721179 
" clip-path="url(#p272ad5c242)" style="fill: none; stroke: #1f77b4; stroke-width: 1.5; stroke-linecap: round"/>
    <path d="M 46.170878 342.47958 
L 50.040663 344.721179 
L 45.925513 346.472047 
z
" clip-path="url(#p272ad5c242)" style="fill: #1f77b4; stroke: #1f77b4; stroke-width: 1.5; stroke-linecap: round"/>
   </g>
   <g id="patch_46">
    <path d="M 45.072577 371.694683 
Q 48.460175 371.843047 50.172327 371.918033 
" clip-path="url(#p272ad5c242)" style="fill: none; stroke: #1f77b4; stroke-width: 1.5; stroke-linecap: round"/>
    <path d="M 46.263667 369.744931 
L 50.172327 371.918033 
L 46.088649 373.7411 
z
" clip-path="url(#p272ad5c242)" style="fill: #1f77b4; stroke: #1f77b4; stroke-width: 1.5; stroke-linecap: round"/>
   </g>
   <g id="patch_47">
    <path d="M 368.584331 359.412086 
Q 371.983589 359.458692 373.705953 359.482306 
" clip-path="url(#p272ad5c242)" style="fill: none; stroke: #1f77b4; stroke-width: 1.5; stroke-linecap: round"/>
    <path d="M 369.733747 357.427657 
L 373.705953 359.482306 
L 369.67891 361.427281 
z
" clip-path="url(#p272ad5c242)" style="fill: #1f77b4; stroke: #1f77b4; stroke-width: 1.5; stroke-linecap: round"/>
   </g>
   <g id="patch_48">
    <path d="M 623.661331 116.516744 
Q 620.303772 116.233931 618.617347 116.09188 
" clip-path="url(#p272ad5c242)" style="fill: none; stroke: #1f77b4; stroke-width: 1.5; stroke-linecap: round"/>
    <path d="M 622.435362 118.420561 
L 618.617347 116.09188 
L 622.771101 114.434676 
z
" clip-path="url(#p272ad5c242)" style="fill: #1f77b4; stroke: #1f77b4; stroke-width: 1.5; stroke-linecap: round"/>
   </g>
   <g id="patch_49">
    <path d="M 24.338217 313.568892 
Q 27.695014 313.851441 29.380669 313.993326 
" clip-path="url(#p272ad5c242)" style="fill: none; stroke: #1f77b4; stroke-width: 1.5; stroke-linecap: round"/>
    <path d="M 25.562516 311.664871 
L 29.380669 313.993326 
L 25.227013 315.650776 
z
" clip-path="url(#p272ad5c242)" style="fill: #1f77b4; stroke: #1f77b4; stroke-width: 1.5; stroke-linecap: round"/>
   </g>
   <g id="patch_50">
    <path d="M 262.367898 97.035354 
Q 262.035782 97.855444 262.333168 97.121112 
" clip-path="url(#p272ad5c242)" style="fill: none; stroke: #1f77b4; stroke-width: 1.5; stroke-linecap: round"/>
    <path d="M 265.688374 94.164325 
L 262.333168 97.121112 
L 261.980861 92.662875 
z
" clip-path="url(#p272ad5c242)" style="fill: #1f77b4; stroke: #1f77b4; stroke-width: 1.5; stroke-linecap: round"/>
   </g>
   <g id="patch_51">
    <path d="M 618.412923 293.858857 
Q 615.498171 293.192469 614.218287 292.899855 
" clip-path="url(#p272ad5c242)" style="fill: none; stroke: #1f77b4; stroke-width: 1.5; stroke-linecap: round"/>
    <path d="M 617.671925 295.741049 
L 614.218287 292.899855 
L 618.563426 291.841661 
z
" clip-path="url(#p272ad5c242)" style="fill: #1f77b4; stroke: #1f77b4; stroke-width: 1.5; stroke-linecap: round"/>
   </g>
   <g id="patch_52">
    <path d="M 469.682925 99.53604 
Q 466.29141 99.453734 464.576453 99.412114 
" clip-path="url(#p272ad5c242)" style="fill: none; stroke: #1f77b4; stroke-width: 1.5; stroke-linecap: round"/>
    <path d="M 468.526753 101.508571 
L 464.576453 99.412114 
L 468.623798 97.509748 
z
" clip-path="url(#p272ad5c242)" style="fill: #1f77b4; stroke: #1f77b4; stroke-width: 1.5; stroke-linecap: round"/>
   </g>
   <g id="patch_53">
    <path d="M 28.815395 135.303585 
Q 31.895952 136.065231 33.348479 136.424358 
" clip-path="url(#p272ad5c242)" style="fill: none; stroke: #1f77b4; stroke-width: 1.5; stroke-linecap: round"/>
    <path d="M 29.945435 133.522757 
L 33.348479 136.424358 
L 28.985371 137.405833 
z
" clip-path="url(#p272ad5c242)" style="fill: #1f77b4; stroke: #1f77b4; stroke-width: 1.5; stroke-linecap: round"/>
   </g>
   <g id="patch_54">
    <path d="M 513.828296 197.203935 
Q 510.456752 196.963583 508.758014 196.842483 
" clip-path="url(#p272ad5c242)" style="fill: none; stroke: #1f77b4; stroke-width: 1.5; stroke-linecap: round"/>
    <path d="M 512.605673 199.121852 
L 508.758014 196.842483 
L 512.890104 195.131977 
z
" clip-path="url(#p272ad5c242)" style="fill: #1f77b4; stroke: #1f77b4; stroke-width: 1.5; stroke-linecap: round"/>
   </g>
   <g id="patch_55">
    <path d="M 219.793304 139.694781 
Q 222.103767 140.84885 222.913929 141.253523 
" clip-path="url(#p272ad5c242)" style="fill: none; stroke: #1f77b4; stroke-width: 1.5; stroke-linecap: round"/>
    <path d="M 220.229207 137.676895 
L 222.913929 141.253523 
L 218.441793 141.255324 
z
" clip-path="url(#p272ad5c242)" style="fill: #1f77b4; stroke: #1f77b4; stroke-width: 1.5; stroke-linecap: round"/>
   </g>
   <g id="patch_56">
    <path d="M 135.096276 301.424982 
Q 138.451743 301.713104 140.136308 301.857751 
" clip-path="url(#p272ad5c242)" style="fill: none; stroke: #1f77b4; stroke-width: 1.5; stroke-linecap: round"/>
    <path d="M 136.322076 299.522877 
L 140.136308 301.857751 
L 135.97987 303.508212 
z
" clip-path="url(#p272ad5c242)" style="fill: #1f77b4; stroke: #1f77b4; stroke-width: 1.5; stroke-linecap: round"/>
   </g>
   <g id="patch_57">
    <path d="M 156.676196 330.437057 
Q 160.053716 330.647038 161.757417 330.752957 
" clip-path="url(#p272ad5c242)" style="fill: none; stroke: #1f77b4; stroke-width: 1.5; stroke-linecap: round"/>
    <path d="M 157.889225 328.50861 
L 161.757417 330.752957 
L 157.641024 332.500902 
z
" clip-path="url(#p272ad5c242)" style="fill: #1f77b4; stroke: #1f77b4; stroke-width: 1.5; stroke-linecap: round"/>
   </g>
   <g id="patch_58">
    <path d="M 399.564342 318.18609 
Q 402.962331 318.229882 404.683409 318.252063 
" clip-path="url(#p272ad5c242)" style="fill: none; stroke: #1f77b4; stroke-width: 1.5; stroke-linecap: round"/>
    <path d="M 400.709514 316.200682 
L 404.683409 318.252063 
L 400.657968 320.20035 
z
" clip-path="url(#p272ad5c242)" style="fill: #1f77b4; stroke: #1f77b4; stroke-width: 1.5; stroke-linecap: round"/>
   </g>
   <g id="patch_59">
    <path d="M 509.452416 301.317017 
Q 510.113574 301.026625 509.23926 301.410639 
" clip-path="url(#p272ad5c242)" style="fill: none; stroke: #1f77b4; stroke-width: 1.5; stroke-linecap: round"/>
    <path d="M 504.772668 301.188033 
L 509.23926 301.410639 
L 506.38122 304.850349 
z
" clip-path="url(#p272ad5c242)" style="fill: #1f77b4; stroke: #1f77b4; stroke-width: 1.5; stroke-linecap: round"/>
   </g>
   <g id="patch_60">
    <path d="M 220.097511 213.603811 
Q 223.277106 214.226535 224.810916 214.526932 
" clip-path="url(#p272ad5c242)" style="fill: none; stroke: #1f77b4; stroke-width: 1.5; stroke-linecap: round"/>
    <path d="M 221.26989 211.795425 
L 224.810916 214.526932 
L 220.501094 215.720849 
z
" clip-path="url(#p272ad5c242)" style="fill: #1f77b4; stroke: #1f77b4; stroke-width: 1.5; stroke-linecap: round"/>
   </g>
   <g id="patch_61">
    <path d="M 403.282629 287.372723 
Q 406.672466 287.444322 408.385626 287.480507 
" clip-path="url(#p272ad5c242)" style="fill: none; stroke: #1f77b4; stroke-width: 1.5; stroke-linecap: round"/>
    <path d="M 404.428752 285.396485 
L 408.385626 287.480507 
L 404.344284 289.395593 
z
" clip-path="url(#p272ad5c242)" style="fill: #1f77b4; stroke: #1f77b4; stroke-width: 1.5; stroke-linecap: round"/>
   </g>
   <g id="patch_62">
    <path d="M 423.553095 200.827286 
Q 420.530168 200.939155 419.183145 200.989004 
" clip-path="url(#p272ad5c242)" style="fill: none; stroke: #1f77b4; stroke-width: 1.5; stroke-linecap: round"/>
    <path d="M 423.254372 202.83971 
L 419.183145 200.989004 
L 423.106446 198.842446 
z
" clip-path="url(#p272ad5c242)" style="fill: #1f77b4; stroke: #1f77b4; stroke-width: 1.5; stroke-linecap: round"/>
   </g>
   <g id="patch_63">
    <path d="M 245.237398 249.306938 
Q 248.534085 249.747632 250.168507 249.966118 
" clip-path="url(#p272ad5c242)" style="fill: none; stroke: #1f77b4; stroke-width: 1.5; stroke-linecap: round"/>
    <path d="M 246.468773 247.453755 
L 250.168507 249.966118 
L 245.938777 251.418487 
z
" clip-path="url(#p272ad5c242)" style="fill: #1f77b4; stroke: #1f77b4; stroke-width: 1.5; stroke-linecap: round"/>
   </g>
   <g id="patch_64">
    <path d="M 245.945798 302.858505 
Q 249.316513 303.100591 251.014486 303.22254 
" clip-path="url(#p272ad5c242)" style="fill: none; stroke: #1f77b4; stroke-width: 1.5; stroke-linecap: round"/>
    <path d="M 247.168034 300.941135 
L 251.014486 303.22254 
L 246.881491 304.930859 
z
" clip-path="url(#p272ad5c242)" style="fill: #1f77b4; stroke: #1f77b4; stroke-width: 1.5; stroke-linecap: round"/>
   </g>
   <g id="line2d_18">
    <defs>
     <path id="m6632abba30" d="M 0 3 
C 0.795609 3 1.55874 2.683901 2.12132 2.12132 
C 2.683901 1.55874 3 0.795609 3 0 
C 3 -0.795609 2.683901 -1.55874 2.12132 -2.12132 
C 1.55874 -2.683901 0.795609 -3 0 -3 
C -0.795609 -3 -1.55874 -2.683901 -2.12132 -2.12132 
C -2.683901 -1.55874 -3 -0.795609 -3 0 
C -3 0.795609 -2.683901 1.55874 -2.12132 2.12132 
C -1.55874 2.683901 -0.795609 3 0 3 
z
" style="stroke: #ff0000"/>
    </defs>
    <g clip-path="url(#p272ad5c242)">
     <use xlink:href="#m6632abba30" x="428.676924" y="249.922745" style="fill: #ff0000; stroke: #ff0000"/>
    </g>
   </g>
   <g id="patch_65">
    <path d="M 90 448.56 
L 90 60.48 
" style="fill: none; stroke: #cccccc; stroke-width: 0.8; stroke-linejoin: miter; stroke-linecap: square"/>
   </g>
   <g id="patch_66">
    <path d="M 648 448.56 
L 648 60.48 
" style="fill: none; stroke: #cccccc; stroke-width: 0.8; stroke-linejoin: miter; stroke-linecap: square"/>
   </g>
   <g id="patch_67">
    <path d="M 90 448.56 
L 648 448.56 
" style="fill: none; stroke: #cccccc; stroke-width: 0.8; stroke-linejoin: miter; stroke-linecap: square"/>
   </g>
   <g id="patch_68">
    <path d="M 90 60.48 
L 648 60.48 
" style="fill: none; stroke: #cccccc; stroke-width: 0.8; stroke-linejoin: miter; stroke-linecap: square"/>
   </g>
   <g id="line2d_19">
    <defs>
     <path id="m532fdaa1d0" d="M 0 3 
C 0.795609 3 1.55874 2.683901 2.12132 2.12132 
C 2.683901 1.55874 3 0.795609 3 0 
C 3 -0.795609 2.683901 -1.55874 2.12132 -2.12132 
C 1.55874 -2.683901 0.795609 -3 0 -3 
C -0.795609 -3 -1.55874 -2.683901 -2.12132 -2.12132 
C -2.683901 -1.55874 -3 -0.795609 -3 0 
C -3 0.795609 -2.683901 1.55874 -2.12132 2.12132 
C -1.55874 2.683901 -0.795609 3 0 3 
z
" style="stroke: #0000ff"/>
    </defs>
    <g clip-path="url(#p272ad5c242)">
     <use xlink:href="#m532fdaa1d0" x="180" y="254.52" style="fill: #0000ff; stroke: #0000ff"/>
    </g>
   </g>
   <g id="legend_1">
    <g id="patch_69">
     <path d="M 366.840625 438.56 
L 634 438.56 
Q 638 438.56 638 434.56 
L 638 379.97875 
Q 638 375.97875 634 375.97875 
L 366.840625 375.97875 
Q 362.840625 375.97875 362.840625 379.97875 
L 362.840625 434.56 
Q 362.840625 438.56 366.840625 438.56 
z
" style="fill: #ffffff; opacity: 0.8; stroke: #cccccc; stroke-linejoin: miter"/>
    </g>
    <g id="line2d_20">
     <g>
      <use xlink:href="#m532fdaa1d0" x="390.840625" y="391.294375" style="fill: #0000ff; stroke: #0000ff"/>
     </g>
    </g>
    <g id="text_19">
     <text style="fill: #262626; font: 20px 'Arial', 'DejaVu Sans', 'Liberation Sans', 'Bitstream Vera Sans', sans-serif; text-anchor: start" x="426.840625" y="398.294375" transform="rotate(-0 426.840625 398.294375)"> </text>
    </g>
    <g id="line2d_21">
     <g>
      <use xlink:href="#m6632abba30" x="390.840625" y="419.585" style="fill: #ff0000; stroke: #ff0000"/>
     </g>
    </g>
    <g id="text_20">
     <text style="fill: #262626; font: 20px 'Arial', 'DejaVu Sans', 'Liberation Sans', 'Bitstream Vera Sans', sans-serif; text-anchor: start" x="426.840625" y="426.585" transform="rotate(-0 426.840625 426.585)"> </text>
    </g>
   </g>
  </g>
 </g>
 <defs>
  <clipPath id="p272ad5c242">
   <rect x="90" y="60.48" width="558" height="388.08"/>
  </clipPath>
 </defs>
</svg>
