<?xml version="1.0" encoding="utf-8" standalone="no"?>
<!DOCTYPE svg PUBLIC "-//W3C//DTD SVG 1.1//EN"
  "http://www.w3.org/Graphics/SVG/1.1/DTD/svg11.dtd">
<svg xmlns:xlink="http://www.w3.org/1999/xlink" width="720pt" height="504pt" viewBox="0 0 720 504" xmlns="http://www.w3.org/2000/svg" version="1.1">
 <metadata>
  <rdf:RDF xmlns:dc="http://purl.org/dc/elements/1.1/" xmlns:cc="http://creativecommons.org/ns#" xmlns:rdf="http://www.w3.org/1999/02/22-rdf-syntax-ns#">
   <cc:Work>
    <dc:type rdf:resource="http://purl.org/dc/dcmitype/StillImage"/>
    <dc:date>2024-09-23T20:20:05.413697</dc:date>
    <dc:format>image/svg+xml</dc:format>
    <dc:creator>
     <cc:Agent>
      <dc:title>Matplotlib v3.7.2, https://matplotlib.org/</dc:title>
     </cc:Agent>
    </dc:creator>
   </cc:Work>
  </rdf:RDF>
 </metadata>
 <defs>
  <style type="text/css">*{stroke-linejoin: round; stroke-linecap: butt}</style>
 </defs>
 <g id="figure_1">
  <g id="patch_1">
   <path d="M 0 504 
L 720 504 
L 720 0 
L 0 0 
z
" style="fill: #ffffff"/>
  </g>
  <g id="axes_1">
   <g id="patch_2">
    <path d="M 90 448.56 
L 648 448.56 
L 648 60.48 
L 90 60.48 
z
" style="fill: #ffffff"/>
   </g>
   <g id="matplotlib.axis_1">
    <g id="xtick_1">
     <g id="line2d_1">
      <path d="M 90 448.56 
L 90 60.48 
" clip-path="url(#p00b0e128a4)" style="fill: none; stroke: #cccccc; stroke-width: 0.8; stroke-linecap: round"/>
     </g>
     <g id="text_1">
      <text style="fill: #262626; font: 20px 'Arial', 'DejaVu Sans', 'Liberation Sans', 'Bitstream Vera Sans', sans-serif; text-anchor: middle" x="90" y="469.875625" transform="rotate(-0 90 469.875625)">0</text>
     </g>
    </g>
    <g id="xtick_2">
     <g id="line2d_2">
      <path d="M 201.6 448.56 
L 201.6 60.48 
" clip-path="url(#p00b0e128a4)" style="fill: none; stroke: #cccccc; stroke-width: 0.8; stroke-linecap: round"/>
     </g>
     <g id="text_2">
      <text style="fill: #262626; font: 20px 'Arial', 'DejaVu Sans', 'Liberation Sans', 'Bitstream Vera Sans', sans-serif; text-anchor: middle" x="201.6" y="469.875625" transform="rotate(-0 201.6 469.875625)">20</text>
     </g>
    </g>
    <g id="xtick_3">
     <g id="line2d_3">
      <path d="M 313.2 448.56 
L 313.2 60.48 
" clip-path="url(#p00b0e128a4)" style="fill: none; stroke: #cccccc; stroke-width: 0.8; stroke-linecap: round"/>
     </g>
     <g id="text_3">
      <text style="fill: #262626; font: 20px 'Arial', 'DejaVu Sans', 'Liberation Sans', 'Bitstream Vera Sans', sans-serif; text-anchor: middle" x="313.2" y="469.875625" transform="rotate(-0 313.2 469.875625)">40</text>
     </g>
    </g>
    <g id="xtick_4">
     <g id="line2d_4">
      <path d="M 424.8 448.56 
L 424.8 60.48 
" clip-path="url(#p00b0e128a4)" style="fill: none; stroke: #cccccc; stroke-width: 0.8; stroke-linecap: round"/>
     </g>
     <g id="text_4">
      <text style="fill: #262626; font: 20px 'Arial', 'DejaVu Sans', 'Liberation Sans', 'Bitstream Vera Sans', sans-serif; text-anchor: middle" x="424.8" y="469.875625" transform="rotate(-0 424.8 469.875625)">60</text>
     </g>
    </g>
    <g id="xtick_5">
     <g id="line2d_5">
      <path d="M 536.4 448.56 
L 536.4 60.48 
" clip-path="url(#p00b0e128a4)" style="fill: none; stroke: #cccccc; stroke-width: 0.8; stroke-linecap: round"/>
     </g>
     <g id="text_5">
      <text style="fill: #262626; font: 20px 'Arial', 'DejaVu Sans', 'Liberation Sans', 'Bitstream Vera Sans', sans-serif; text-anchor: middle" x="536.4" y="469.875625" transform="rotate(-0 536.4 469.875625)">80</text>
     </g>
    </g>
    <g id="xtick_6">
     <g id="line2d_6">
      <path d="M 648 448.56 
L 648 60.48 
" clip-path="url(#p00b0e128a4)" style="fill: none; stroke: #cccccc; stroke-width: 0.8; stroke-linecap: round"/>
     </g>
     <g id="text_6">
      <text style="fill: #262626; font: 20px 'Arial', 'DejaVu Sans', 'Liberation Sans', 'Bitstream Vera Sans', sans-serif; text-anchor: middle" x="648" y="469.875625" transform="rotate(-0 648 469.875625)">100</text>
     </g>
    </g>
    <g id="text_7">
     <text style="fill: #262626; font: 20px 'Arial', 'DejaVu Sans', 'Liberation Sans', 'Bitstream Vera Sans', sans-serif; text-anchor: middle" x="369" y="492.16625" transform="rotate(-0 369 492.16625)">Время, дни</text>
    </g>
   </g>
   <g id="matplotlib.axis_2">
    <g id="ytick_1">
     <g id="line2d_7">
      <path d="M 90 407.702221 
L 648 407.702221 
" clip-path="url(#p00b0e128a4)" style="fill: none; stroke: #cccccc; stroke-width: 0.8; stroke-linecap: round"/>
     </g>
     <g id="text_8">
      <text style="fill: #262626; font: 20px 'Arial', 'DejaVu Sans', 'Liberation Sans', 'Bitstream Vera Sans', sans-serif; text-anchor: end" x="83" y="414.860033" transform="rotate(-0 83 414.860033)">6</text>
     </g>
    </g>
    <g id="ytick_2">
     <g id="line2d_8">
      <path d="M 90 363.57454 
L 648 363.57454 
" clip-path="url(#p00b0e128a4)" style="fill: none; stroke: #cccccc; stroke-width: 0.8; stroke-linecap: round"/>
     </g>
     <g id="text_9">
      <text style="fill: #262626; font: 20px 'Arial', 'DejaVu Sans', 'Liberation Sans', 'Bitstream Vera Sans', sans-serif; text-anchor: end" x="83" y="370.732352" transform="rotate(-0 83 370.732352)">8</text>
     </g>
    </g>
    <g id="ytick_3">
     <g id="line2d_9">
      <path d="M 90 319.446859 
L 648 319.446859 
" clip-path="url(#p00b0e128a4)" style="fill: none; stroke: #cccccc; stroke-width: 0.8; stroke-linecap: round"/>
     </g>
     <g id="text_10">
      <text style="fill: #262626; font: 20px 'Arial', 'DejaVu Sans', 'Liberation Sans', 'Bitstream Vera Sans', sans-serif; text-anchor: end" x="83" y="326.604672" transform="rotate(-0 83 326.604672)">10</text>
     </g>
    </g>
    <g id="ytick_4">
     <g id="line2d_10">
      <path d="M 90 275.319178 
L 648 275.319178 
" clip-path="url(#p00b0e128a4)" style="fill: none; stroke: #cccccc; stroke-width: 0.8; stroke-linecap: round"/>
     </g>
     <g id="text_11">
      <text style="fill: #262626; font: 20px 'Arial', 'DejaVu Sans', 'Liberation Sans', 'Bitstream Vera Sans', sans-serif; text-anchor: end" x="83" y="282.476991" transform="rotate(-0 83 282.476991)">12</text>
     </g>
    </g>
    <g id="ytick_5">
     <g id="line2d_11">
      <path d="M 90 231.191497 
L 648 231.191497 
" clip-path="url(#p00b0e128a4)" style="fill: none; stroke: #cccccc; stroke-width: 0.8; stroke-linecap: round"/>
     </g>
     <g id="text_12">
      <text style="fill: #262626; font: 20px 'Arial', 'DejaVu Sans', 'Liberation Sans', 'Bitstream Vera Sans', sans-serif; text-anchor: end" x="83" y="238.34931" transform="rotate(-0 83 238.34931)">14</text>
     </g>
    </g>
    <g id="ytick_6">
     <g id="line2d_12">
      <path d="M 90 187.063817 
L 648 187.063817 
" clip-path="url(#p00b0e128a4)" style="fill: none; stroke: #cccccc; stroke-width: 0.8; stroke-linecap: round"/>
     </g>
     <g id="text_13">
      <text style="fill: #262626; font: 20px 'Arial', 'DejaVu Sans', 'Liberation Sans', 'Bitstream Vera Sans', sans-serif; text-anchor: end" x="83" y="194.221629" transform="rotate(-0 83 194.221629)">16</text>
     </g>
    </g>
    <g id="ytick_7">
     <g id="line2d_13">
      <path d="M 90 142.936136 
L 648 142.936136 
" clip-path="url(#p00b0e128a4)" style="fill: none; stroke: #cccccc; stroke-width: 0.8; stroke-linecap: round"/>
     </g>
     <g id="text_14">
      <text style="fill: #262626; font: 20px 'Arial', 'DejaVu Sans', 'Liberation Sans', 'Bitstream Vera Sans', sans-serif; text-anchor: end" x="83" y="150.093948" transform="rotate(-0 83 150.093948)">18</text>
     </g>
    </g>
    <g id="ytick_8">
     <g id="line2d_14">
      <path d="M 90 98.808455 
L 648 98.808455 
" clip-path="url(#p00b0e128a4)" style="fill: none; stroke: #cccccc; stroke-width: 0.8; stroke-linecap: round"/>
     </g>
     <g id="text_15">
      <text style="fill: #262626; font: 20px 'Arial', 'DejaVu Sans', 'Liberation Sans', 'Bitstream Vera Sans', sans-serif; text-anchor: end" x="83" y="105.966267" transform="rotate(-0 83 105.966267)">20</text>
     </g>
    </g>
    <g id="text_16">
     <text style="fill: #262626; font: 20px 'Arial', 'DejaVu Sans', 'Liberation Sans', 'Bitstream Vera Sans', sans-serif; text-anchor: middle" x="52.546875" y="254.52" transform="rotate(-90 52.546875 254.52)">Популяция, ед/л</text>
    </g>
   </g>
   <g id="line2d_15">
    <path d="M 90 429.766061 
L 90.0558 430.92 
L 92.1204 373.437864 
L 93.7944 333.55953 
L 95.5242 297.630007 
L 97.254 266.28749 
L 98.9838 238.905274 
L 100.7136 214.970726 
L 102.4434 194.056559 
L 104.1732 175.801446 
L 105.903 159.896216 
L 107.577 146.489525 
L 109.251 134.821687 
L 110.925 124.706296 
L 112.5432 116.248266 
L 114.1614 108.953111 
L 115.7238 102.900576 
L 117.2862 97.723253 
L 118.7928 93.47718 
L 120.2994 89.891045 
L 121.7502 87.000158 
L 123.1452 84.6902 
L 124.5402 82.796357 
L 125.9352 81.278308 
L 127.2744 80.140037 
L 128.6136 79.283577 
L 129.9528 78.680958 
L 131.3478 78.29535 
L 132.7986 78.127945 
L 134.3052 78.176947 
L 135.9234 78.450619 
L 137.709 78.981078 
L 139.7178 79.818316 
L 142.0056 81.023066 
L 144.684 82.694536 
L 148.032 85.060437 
L 152.8866 88.793665 
L 164.2698 97.622212 
L 169.236 101.139841 
L 173.7558 104.072947 
L 178.164 106.669144 
L 182.5164 108.974822 
L 186.9246 111.057527 
L 191.4444 112.944439 
L 196.0758 114.637335 
L 200.9304 116.175337 
L 206.064 117.567745 
L 211.5882 118.831783 
L 217.503 119.954889 
L 223.9758 120.95551 
L 231.174 121.839361 
L 239.265 122.60482 
L 248.5836 123.258112 
L 259.632 123.802273 
L 273.1356 124.236017 
L 290.601 124.563145 
L 315.2646 124.785968 
L 356.6124 124.908738 
L 469.3842 124.944941 
L 647.9442 124.945618 
L 647.9442 124.945618 
" clip-path="url(#p00b0e128a4)" style="fill: none; stroke: #008000; stroke-width: 1.5; stroke-linecap: round"/>
   </g>
   <g id="line2d_16">
    <path d="M 90 319.446859 
L 91.5624 324.585873 
L 93.0132 328.595912 
L 94.464 331.981775 
L 95.9148 334.831272 
L 97.3656 337.216932 
L 98.8722 339.268296 
L 100.3788 340.941932 
L 101.8854 342.286258 
L 103.392 343.34264 
L 104.9544 344.172042 
L 106.5726 344.781571 
L 108.3024 345.189273 
L 110.088 345.382008 
L 112.041 345.366254 
L 114.1614 345.123514 
L 116.505 344.630093 
L 119.1834 343.835193 
L 122.364 342.648832 
L 126.27 340.943288 
L 131.9058 338.216549 
L 145.4652 331.58566 
L 151.3242 329.015163 
L 156.7926 326.856485 
L 162.1494 324.979408 
L 167.562 323.3179 
L 173.142 321.83828 
L 179.001 320.517092 
L 185.1948 319.349667 
L 191.8908 318.315748 
L 199.2564 317.407183 
L 207.459 316.623214 
L 216.8334 315.955471 
L 227.826 315.401542 
L 241.218 314.957711 
L 258.4044 314.621985 
L 282.3984 314.391678 
L 321.9048 314.261923 
L 423.1818 314.2206 
L 647.9442 314.219426 
L 647.9442 314.219426 
" clip-path="url(#p00b0e128a4)" style="fill: none; stroke: #0000ff; stroke-width: 1.5; stroke-linecap: round"/>
   </g>
   <g id="line2d_17">
    <path d="M 90 124.94562 
L 647.9442 124.94562 
L 647.9442 124.94562 
" clip-path="url(#p00b0e128a4)" style="fill: none; stroke-dasharray: 5.55,2.4; stroke-dashoffset: 0; stroke: #000000; stroke-width: 1.5"/>
   </g>
   <g id="line2d_18">
    <path d="M 90 314.219426 
L 647.9442 314.219426 
L 647.9442 314.219426 
" clip-path="url(#p00b0e128a4)" style="fill: none; stroke-dasharray: 5.55,2.4; stroke-dashoffset: 0; stroke: #000000; stroke-width: 1.5"/>
   </g>
   <g id="patch_3">
    <path d="M 90 448.56 
L 90 60.48 
" style="fill: none; stroke: #cccccc; stroke-width: 0.8; stroke-linejoin: miter; stroke-linecap: square"/>
   </g>
   <g id="patch_4">
    <path d="M 648 448.56 
L 648 60.48 
" style="fill: none; stroke: #cccccc; stroke-width: 0.8; stroke-linejoin: miter; stroke-linecap: square"/>
   </g>
   <g id="patch_5">
    <path d="M 90 448.56 
L 648 448.56 
" style="fill: none; stroke: #cccccc; stroke-width: 0.8; stroke-linejoin: miter; stroke-linecap: square"/>
   </g>
   <g id="patch_6">
    <path d="M 90 60.48 
L 648 60.48 
" style="fill: none; stroke: #cccccc; stroke-width: 0.8; stroke-linejoin: miter; stroke-linecap: square"/>
   </g>
   <g id="legend_1">
    <g id="patch_7">
     <path d="M 536.2 189.6425 
L 634 189.6425 
Q 638 189.6425 638 185.6425 
L 638 74.48 
Q 638 70.48 634 70.48 
L 536.2 70.48 
Q 532.2 70.48 532.2 74.48 
L 532.2 185.6425 
Q 532.2 189.6425 536.2 189.6425 
z
" style="fill: #ffffff; opacity: 0.8; stroke: #cccccc; stroke-linejoin: miter"/>
    </g>
    <g id="line2d_19">
     <path d="M 540.2 85.795625 
L 560.2 85.795625 
L 580.2 85.795625 
" style="fill: none; stroke: #008000; stroke-width: 1.5; stroke-linecap: round"/>
    </g>
    <g id="text_17">
     <!-- $x_{1}$ -->
     <g style="fill: #262626" transform="translate(596.2 92.795625)">
      <text>
       <tspan style="font: oblique 20px 'DejaVu Sans'" x="0" y="-0.0625">x</tspan>
       <tspan style="font: 14px 'DejaVu Sans'" x="11.835938" y="3.21875">1</tspan>
      </text>
     </g>
    </g>
    <g id="line2d_20">
     <path d="M 540.2 114.08625 
L 560.2 114.08625 
L 580.2 114.08625 
" style="fill: none; stroke: #0000ff; stroke-width: 1.5; stroke-linecap: round"/>
    </g>
    <g id="text_18">
     <!-- $x_{2}$ -->
     <g style="fill: #262626" transform="translate(596.2 121.08625)">
      <text>
       <tspan style="font: oblique 20px 'DejaVu Sans'" x="0" y="-0.0625">x</tspan>
       <tspan style="font: 14px 'DejaVu Sans'" x="11.835938" y="3.21875">2</tspan>
      </text>
     </g>
    </g>
    <g id="line2d_21">
     <path d="M 540.2 142.376875 
L 560.2 142.376875 
L 580.2 142.376875 
" style="fill: none; stroke-dasharray: 5.55,2.4; stroke-dashoffset: 0; stroke: #000000; stroke-width: 1.5"/>
    </g>
    <g id="text_19">
     <!-- $x_{1*}$ -->
     <g style="fill: #262626" transform="translate(596.2 149.376875)">
      <text>
       <tspan style="font: oblique 20px 'DejaVu Sans'" x="0" y="-0.0625">x</tspan>
       <tspan style="font: 14px 'DejaVu Sans'" x="11.835938 23.470703" y="3.21875">1*</tspan>
      </text>
     </g>
    </g>
    <g id="line2d_22">
     <path d="M 540.2 170.6675 
L 560.2 170.6675 
L 580.2 170.6675 
" style="fill: none; stroke-dasharray: 5.55,2.4; stroke-dashoffset: 0; stroke: #000000; stroke-width: 1.5"/>
    </g>
    <g id="text_20">
     <!-- $x_{2*}$ -->
     <g style="fill: #262626" transform="translate(596.2 177.6675)">
      <text>
       <tspan style="font: oblique 20px 'DejaVu Sans'" x="0" y="-0.0625">x</tspan>
       <tspan style="font: 14px 'DejaVu Sans'" x="11.835938 23.470703" y="3.21875">2*</tspan>
      </text>
     </g>
    </g>
   </g>
  </g>
 </g>
 <defs>
  <clipPath id="p00b0e128a4">
   <rect x="90" y="60.48" width="558" height="388.08"/>
  </clipPath>
 </defs>
</svg>
