<?xml version="1.0" encoding="utf-8" standalone="no"?>
<!DOCTYPE svg PUBLIC "-//W3C//DTD SVG 1.1//EN"
  "http://www.w3.org/Graphics/SVG/1.1/DTD/svg11.dtd">
<svg xmlns:xlink="http://www.w3.org/1999/xlink" width="720pt" height="504pt" viewBox="0 0 720 504" xmlns="http://www.w3.org/2000/svg" version="1.1">
 <metadata>
  <rdf:RDF xmlns:dc="http://purl.org/dc/elements/1.1/" xmlns:cc="http://creativecommons.org/ns#" xmlns:rdf="http://www.w3.org/1999/02/22-rdf-syntax-ns#">
   <cc:Work>
    <dc:type rdf:resource="http://purl.org/dc/dcmitype/StillImage"/>
    <dc:date>2024-10-01T23:20:13.874380</dc:date>
    <dc:format>image/svg+xml</dc:format>
    <dc:creator>
     <cc:Agent>
      <dc:title>Matplotlib v3.5.3, https://matplotlib.org/</dc:title>
     </cc:Agent>
    </dc:creator>
   </cc:Work>
  </rdf:RDF>
 </metadata>
 <defs>
  <style type="text/css">*{stroke-linejoin: round; stroke-linecap: butt}</style>
 </defs>
 <g id="figure_1">
  <g id="patch_1">
   <path d="M 0 504 
L 720 504 
L 720 0 
L 0 0 
z
" style="fill: #ffffff"/>
  </g>
  <g id="axes_1">
   <g id="patch_2">
    <path d="M 90 448.56 
L 648 448.56 
L 648 60.48 
L 90 60.48 
z
" style="fill: #ffffff"/>
   </g>
   <g id="matplotlib.axis_1">
    <g id="xtick_1">
     <g id="line2d_1">
      <path d="M 90 448.56 
L 90 60.48 
" clip-path="url(#p1a87aa22f9)" style="fill: none; stroke: #cccccc; stroke-width: 0.8; stroke-linecap: round"/>
     </g>
     <g id="text_1">
      <text style="fill: #262626; font: 20px 'sans-serif'; text-anchor: middle" x="90" y="469.875625" transform="rotate(-0, 90, 469.875625)">0</text>
     </g>
    </g>
    <g id="xtick_2">
     <g id="line2d_2">
      <path d="M 201.6 448.56 
L 201.6 60.48 
" clip-path="url(#p1a87aa22f9)" style="fill: none; stroke: #cccccc; stroke-width: 0.8; stroke-linecap: round"/>
     </g>
     <g id="text_2">
      <text style="fill: #262626; font: 20px 'sans-serif'; text-anchor: middle" x="201.6" y="469.875625" transform="rotate(-0, 201.6, 469.875625)">200</text>
     </g>
    </g>
    <g id="xtick_3">
     <g id="line2d_3">
      <path d="M 313.2 448.56 
L 313.2 60.48 
" clip-path="url(#p1a87aa22f9)" style="fill: none; stroke: #cccccc; stroke-width: 0.8; stroke-linecap: round"/>
     </g>
     <g id="text_3">
      <text style="fill: #262626; font: 20px 'sans-serif'; text-anchor: middle" x="313.2" y="469.875625" transform="rotate(-0, 313.2, 469.875625)">400</text>
     </g>
    </g>
    <g id="xtick_4">
     <g id="line2d_4">
      <path d="M 424.8 448.56 
L 424.8 60.48 
" clip-path="url(#p1a87aa22f9)" style="fill: none; stroke: #cccccc; stroke-width: 0.8; stroke-linecap: round"/>
     </g>
     <g id="text_4">
      <text style="fill: #262626; font: 20px 'sans-serif'; text-anchor: middle" x="424.8" y="469.875625" transform="rotate(-0, 424.8, 469.875625)">600</text>
     </g>
    </g>
    <g id="xtick_5">
     <g id="line2d_5">
      <path d="M 536.4 448.56 
L 536.4 60.48 
" clip-path="url(#p1a87aa22f9)" style="fill: none; stroke: #cccccc; stroke-width: 0.8; stroke-linecap: round"/>
     </g>
     <g id="text_5">
      <text style="fill: #262626; font: 20px 'sans-serif'; text-anchor: middle" x="536.4" y="469.875625" transform="rotate(-0, 536.4, 469.875625)">800</text>
     </g>
    </g>
    <g id="xtick_6">
     <g id="line2d_6">
      <path d="M 648 448.56 
L 648 60.48 
" clip-path="url(#p1a87aa22f9)" style="fill: none; stroke: #cccccc; stroke-width: 0.8; stroke-linecap: round"/>
     </g>
     <g id="text_6">
      <text style="fill: #262626; font: 20px 'sans-serif'; text-anchor: middle" x="648" y="469.875625" transform="rotate(-0, 648, 469.875625)">1000</text>
     </g>
    </g>
    <g id="text_7">
     <text style="fill: #262626; font: 20px 'sans-serif'; text-anchor: middle" x="369" y="492.16625" transform="rotate(-0, 369, 492.16625)">Время, дни</text>
    </g>
   </g>
   <g id="matplotlib.axis_2">
    <g id="ytick_1">
     <g id="line2d_7">
      <path d="M 90 411.882704 
L 648 411.882704 
" clip-path="url(#p1a87aa22f9)" style="fill: none; stroke: #cccccc; stroke-width: 0.8; stroke-linecap: round"/>
     </g>
     <g id="text_8">
      <text style="fill: #262626; font: 20px 'sans-serif'; text-anchor: end" x="83" y="419.040516" transform="rotate(-0, 83, 419.040516)">−50</text>
     </g>
    </g>
    <g id="ytick_2">
     <g id="line2d_8">
      <path d="M 90 347.709672 
L 648 347.709672 
" clip-path="url(#p1a87aa22f9)" style="fill: none; stroke: #cccccc; stroke-width: 0.8; stroke-linecap: round"/>
     </g>
     <g id="text_9">
      <text style="fill: #262626; font: 20px 'sans-serif'; text-anchor: end" x="83" y="354.867484" transform="rotate(-0, 83, 354.867484)">−40</text>
     </g>
    </g>
    <g id="ytick_3">
     <g id="line2d_9">
      <path d="M 90 283.53664 
L 648 283.53664 
" clip-path="url(#p1a87aa22f9)" style="fill: none; stroke: #cccccc; stroke-width: 0.8; stroke-linecap: round"/>
     </g>
     <g id="text_10">
      <text style="fill: #262626; font: 20px 'sans-serif'; text-anchor: end" x="83" y="290.694452" transform="rotate(-0, 83, 290.694452)">−30</text>
     </g>
    </g>
    <g id="ytick_4">
     <g id="line2d_10">
      <path d="M 90 219.363607 
L 648 219.363607 
" clip-path="url(#p1a87aa22f9)" style="fill: none; stroke: #cccccc; stroke-width: 0.8; stroke-linecap: round"/>
     </g>
     <g id="text_11">
      <text style="fill: #262626; font: 20px 'sans-serif'; text-anchor: end" x="83" y="226.52142" transform="rotate(-0, 83, 226.52142)">−20</text>
     </g>
    </g>
    <g id="ytick_5">
     <g id="line2d_11">
      <path d="M 90 155.190575 
L 648 155.190575 
" clip-path="url(#p1a87aa22f9)" style="fill: none; stroke: #cccccc; stroke-width: 0.8; stroke-linecap: round"/>
     </g>
     <g id="text_12">
      <text style="fill: #262626; font: 20px 'sans-serif'; text-anchor: end" x="83" y="162.348388" transform="rotate(-0, 83, 162.348388)">−10</text>
     </g>
    </g>
    <g id="ytick_6">
     <g id="line2d_12">
      <path d="M 90 91.017543 
L 648 91.017543 
" clip-path="url(#p1a87aa22f9)" style="fill: none; stroke: #cccccc; stroke-width: 0.8; stroke-linecap: round"/>
     </g>
     <g id="text_13">
      <text style="fill: #262626; font: 20px 'sans-serif'; text-anchor: end" x="83" y="98.175355" transform="rotate(-0, 83, 98.175355)">0</text>
     </g>
    </g>
    <g id="text_14">
     <text style="fill: #262626; font: 20px 'sans-serif'; text-anchor: middle" x="41.1" y="254.52" transform="rotate(-90, 41.1, 254.52)">Управление</text>
    </g>
   </g>
   <g id="line2d_13">
    <path d="M 369 448.56 
L 369 60.48 
" clip-path="url(#p1a87aa22f9)" style="fill: none; stroke-dasharray: 5.55,2.4; stroke-dashoffset: 0; stroke: #800080; stroke-width: 1.5"/>
   </g>
   <g id="line2d_14">
    <path d="M 90 91.017543 
L 90.00558 78.12 
L 90.1116 79.51882 
L 91.62378 98.737126 
L 93.1248 115.051771 
L 94.63698 129.121717 
L 96.16032 141.263417 
L 97.7004 151.792093 
L 99.25164 160.898989 
L 100.81404 168.778706 
L 102.3876 175.596018 
L 103.97232 181.492688 
L 105.56262 186.573809 
L 107.16408 190.964317 
L 108.7767 194.751071 
L 110.3949 197.996278 
L 112.0131 200.75487 
L 113.62014 203.065638 
L 115.19928 204.956441 
L 116.7282 206.448795 
L 118.18458 207.567345 
L 119.55168 208.345052 
L 120.84066 208.828808 
L 122.06826 209.056351 
L 123.27354 209.054524 
L 124.50114 208.828512 
L 125.84034 208.348755 
L 127.48644 207.50623 
L 132.21828 204.935564 
L 133.73604 204.456668 
L 135.2259 204.220149 
L 136.81062 204.197473 
L 138.65202 204.402129 
L 141.10722 204.916436 
L 148.60116 206.621039 
L 151.45812 206.954706 
L 154.6443 207.093951 
L 159.68304 207.054611 
L 167.6457 207.033638 
L 190.14984 207.221317 
L 340.62012 207.23761 
L 369.00558 207.23761 
L 369.01674 159.107836 
L 369.11718 162.894473 
L 370.2834 202.318368 
L 371.50542 236.333666 
L 372.76092 265.278841 
L 374.04432 289.868602 
L 375.34446 310.627246 
L 376.66134 328.196351 
L 377.99496 343.097915 
L 379.34532 355.761357 
L 380.71242 366.541927 
L 382.09626 375.734396 
L 383.49684 383.583808 
L 384.91416 390.294189 
L 386.34822 396.035777 
L 387.79902 400.951112 
L 389.27214 405.17488 
L 390.76758 408.802031 
L 392.29092 411.925376 
L 393.85332 414.629658 
L 395.46036 416.973807 
L 397.13436 419.027004 
L 398.89206 420.8341 
L 400.76136 422.438635 
L 402.77574 423.874139 
L 404.9631 425.158443 
L 407.35692 426.304086 
L 409.9851 427.312699 
L 412.86438 428.176837 
L 416.03382 428.892663 
L 419.59944 429.4652 
L 423.8793 429.918028 
L 429.77736 430.300523 
L 439.0011 430.658993 
L 448.79958 430.822191 
L 477.252 430.913108 
L 647.99442 430.918388 
L 647.99442 430.918388 
" clip-path="url(#p1a87aa22f9)" style="fill: none; stroke: #000000; stroke-width: 1.5; stroke-linecap: round"/>
   </g>
   <g id="patch_3">
    <path d="M 90 448.56 
L 90 60.48 
" style="fill: none; stroke: #cccccc; stroke-width: 0.8; stroke-linejoin: miter; stroke-linecap: square"/>
   </g>
   <g id="patch_4">
    <path d="M 648 448.56 
L 648 60.48 
" style="fill: none; stroke: #cccccc; stroke-width: 0.8; stroke-linejoin: miter; stroke-linecap: square"/>
   </g>
   <g id="patch_5">
    <path d="M 90 448.56 
L 648 448.56 
" style="fill: none; stroke: #cccccc; stroke-width: 0.8; stroke-linejoin: miter; stroke-linecap: square"/>
   </g>
   <g id="patch_6">
    <path d="M 90 60.48 
L 648 60.48 
" style="fill: none; stroke: #cccccc; stroke-width: 0.8; stroke-linejoin: miter; stroke-linecap: square"/>
   </g>
   <g id="legend_1">
    <g id="patch_7">
     <path d="M 400.353125 154.215 
L 634 154.215 
Q 638 154.215 638 150.215 
L 638 74.48 
Q 638 70.48 634 70.48 
L 400.353125 70.48 
Q 396.353125 70.48 396.353125 74.48 
L 396.353125 150.215 
Q 396.353125 154.215 400.353125 154.215 
z
" style="fill: #ffffff; opacity: 0.8; stroke: #cccccc; stroke-linejoin: miter"/>
    </g>
    <g id="line2d_15">
     <path d="M 404.353125 85.795625 
L 424.353125 85.795625 
L 444.353125 85.795625 
" style="fill: none; stroke: #000000; stroke-width: 1.5; stroke-linecap: round"/>
    </g>
    <g id="text_15">
     <!-- $u(t)$ -->
     <g style="fill: #262626" transform="translate(460.353125 92.795625)">
      <text>
       <tspan style="font: oblique 20px 'DejaVu Sans'" x="0 20.478516" y="-0.828125">ut</tspan>
       <tspan style="font: 20px 'DejaVu Sans'" x="12.675781 28.320312" y="-0.828125">()</tspan>
      </text>
     </g>
    </g>
    <g id="line2d_16">
     <path d="M 404.353125 126.650625 
L 424.353125 126.650625 
L 444.353125 126.650625 
" style="fill: none; stroke-dasharray: 5.55,2.4; stroke-dashoffset: 0; stroke: #800080; stroke-width: 1.5"/>
    </g>
    <g id="text_16">
     <text style="fill: #262626; font: 20px 'sans-serif'" transform="translate(460.353125 121.08625)">Инициация смены</text>
     <text style="fill: #262626; font: 20px 'sans-serif'" transform="translate(460.353125 142.24)">состояния</text>
    </g>
   </g>
  </g>
 </g>
 <defs>
  <clipPath id="p1a87aa22f9">
   <rect x="90" y="60.48" width="558" height="388.08"/>
  </clipPath>
 </defs>
</svg>
