<?xml version="1.0" encoding="utf-8" standalone="no"?>
<!DOCTYPE svg PUBLIC "-//W3C//DTD SVG 1.1//EN"
  "http://www.w3.org/Graphics/SVG/1.1/DTD/svg11.dtd">
<svg xmlns:xlink="http://www.w3.org/1999/xlink" width="720pt" height="504pt" viewBox="0 0 720 504" xmlns="http://www.w3.org/2000/svg" version="1.1">
 <metadata>
  <rdf:RDF xmlns:dc="http://purl.org/dc/elements/1.1/" xmlns:cc="http://creativecommons.org/ns#" xmlns:rdf="http://www.w3.org/1999/02/22-rdf-syntax-ns#">
   <cc:Work>
    <dc:type rdf:resource="http://purl.org/dc/dcmitype/StillImage"/>
    <dc:date>2024-10-01T23:25:19.837758</dc:date>
    <dc:format>image/svg+xml</dc:format>
    <dc:creator>
     <cc:Agent>
      <dc:title>Matplotlib v3.5.3, https://matplotlib.org/</dc:title>
     </cc:Agent>
    </dc:creator>
   </cc:Work>
  </rdf:RDF>
 </metadata>
 <defs>
  <style type="text/css">*{stroke-linejoin: round; stroke-linecap: butt}</style>
 </defs>
 <g id="figure_1">
  <g id="patch_1">
   <path d="M 0 504 
L 720 504 
L 720 0 
L 0 0 
z
" style="fill: #ffffff"/>
  </g>
  <g id="axes_1">
   <g id="patch_2">
    <path d="M 90 448.56 
L 648 448.56 
L 648 60.48 
L 90 60.48 
z
" style="fill: #ffffff"/>
   </g>
   <g id="matplotlib.axis_1">
    <g id="xtick_1">
     <g id="line2d_1">
      <path d="M 90 448.56 
L 90 60.48 
" clip-path="url(#p866cf12f71)" style="fill: none; stroke: #cccccc; stroke-width: 0.8; stroke-linecap: round"/>
     </g>
     <g id="text_1">
      <text style="fill: #262626; font: 20px 'sans-serif'; text-anchor: middle" x="90" y="469.875625" transform="rotate(-0, 90, 469.875625)">0</text>
     </g>
    </g>
    <g id="xtick_2">
     <g id="line2d_2">
      <path d="M 183 448.56 
L 183 60.48 
" clip-path="url(#p866cf12f71)" style="fill: none; stroke: #cccccc; stroke-width: 0.8; stroke-linecap: round"/>
     </g>
     <g id="text_2">
      <text style="fill: #262626; font: 20px 'sans-serif'; text-anchor: middle" x="183" y="469.875625" transform="rotate(-0, 183, 469.875625)">50</text>
     </g>
    </g>
    <g id="xtick_3">
     <g id="line2d_3">
      <path d="M 276 448.56 
L 276 60.48 
" clip-path="url(#p866cf12f71)" style="fill: none; stroke: #cccccc; stroke-width: 0.8; stroke-linecap: round"/>
     </g>
     <g id="text_3">
      <text style="fill: #262626; font: 20px 'sans-serif'; text-anchor: middle" x="276" y="469.875625" transform="rotate(-0, 276, 469.875625)">100</text>
     </g>
    </g>
    <g id="xtick_4">
     <g id="line2d_4">
      <path d="M 369 448.56 
L 369 60.48 
" clip-path="url(#p866cf12f71)" style="fill: none; stroke: #cccccc; stroke-width: 0.8; stroke-linecap: round"/>
     </g>
     <g id="text_4">
      <text style="fill: #262626; font: 20px 'sans-serif'; text-anchor: middle" x="369" y="469.875625" transform="rotate(-0, 369, 469.875625)">150</text>
     </g>
    </g>
    <g id="xtick_5">
     <g id="line2d_5">
      <path d="M 462 448.56 
L 462 60.48 
" clip-path="url(#p866cf12f71)" style="fill: none; stroke: #cccccc; stroke-width: 0.8; stroke-linecap: round"/>
     </g>
     <g id="text_5">
      <text style="fill: #262626; font: 20px 'sans-serif'; text-anchor: middle" x="462" y="469.875625" transform="rotate(-0, 462, 469.875625)">200</text>
     </g>
    </g>
    <g id="xtick_6">
     <g id="line2d_6">
      <path d="M 555 448.56 
L 555 60.48 
" clip-path="url(#p866cf12f71)" style="fill: none; stroke: #cccccc; stroke-width: 0.8; stroke-linecap: round"/>
     </g>
     <g id="text_6">
      <text style="fill: #262626; font: 20px 'sans-serif'; text-anchor: middle" x="555" y="469.875625" transform="rotate(-0, 555, 469.875625)">250</text>
     </g>
    </g>
    <g id="xtick_7">
     <g id="line2d_7">
      <path d="M 648 448.56 
L 648 60.48 
" clip-path="url(#p866cf12f71)" style="fill: none; stroke: #cccccc; stroke-width: 0.8; stroke-linecap: round"/>
     </g>
     <g id="text_7">
      <text style="fill: #262626; font: 20px 'sans-serif'; text-anchor: middle" x="648" y="469.875625" transform="rotate(-0, 648, 469.875625)">300</text>
     </g>
    </g>
    <g id="text_8">
     <text style="fill: #262626; font: 20px 'sans-serif'; text-anchor: middle" x="369" y="492.16625" transform="rotate(-0, 369, 492.16625)">Время, дни</text>
    </g>
   </g>
   <g id="matplotlib.axis_2">
    <g id="ytick_1">
     <g id="line2d_8">
      <path d="M 90 439.56928 
L 648 439.56928 
" clip-path="url(#p866cf12f71)" style="fill: none; stroke: #cccccc; stroke-width: 0.8; stroke-linecap: round"/>
     </g>
     <g id="text_9">
      <text style="fill: #262626; font: 20px 'sans-serif'; text-anchor: end" x="83" y="446.727092" transform="rotate(-0, 83, 446.727092)">−60</text>
     </g>
    </g>
    <g id="ytick_2">
     <g id="line2d_9">
      <path d="M 90 388.869572 
L 648 388.869572 
" clip-path="url(#p866cf12f71)" style="fill: none; stroke: #cccccc; stroke-width: 0.8; stroke-linecap: round"/>
     </g>
     <g id="text_10">
      <text style="fill: #262626; font: 20px 'sans-serif'; text-anchor: end" x="83" y="396.027384" transform="rotate(-0, 83, 396.027384)">−50</text>
     </g>
    </g>
    <g id="ytick_3">
     <g id="line2d_10">
      <path d="M 90 338.169864 
L 648 338.169864 
" clip-path="url(#p866cf12f71)" style="fill: none; stroke: #cccccc; stroke-width: 0.8; stroke-linecap: round"/>
     </g>
     <g id="text_11">
      <text style="fill: #262626; font: 20px 'sans-serif'; text-anchor: end" x="83" y="345.327677" transform="rotate(-0, 83, 345.327677)">−40</text>
     </g>
    </g>
    <g id="ytick_4">
     <g id="line2d_11">
      <path d="M 90 287.470157 
L 648 287.470157 
" clip-path="url(#p866cf12f71)" style="fill: none; stroke: #cccccc; stroke-width: 0.8; stroke-linecap: round"/>
     </g>
     <g id="text_12">
      <text style="fill: #262626; font: 20px 'sans-serif'; text-anchor: end" x="83" y="294.627969" transform="rotate(-0, 83, 294.627969)">−30</text>
     </g>
    </g>
    <g id="ytick_5">
     <g id="line2d_12">
      <path d="M 90 236.770449 
L 648 236.770449 
" clip-path="url(#p866cf12f71)" style="fill: none; stroke: #cccccc; stroke-width: 0.8; stroke-linecap: round"/>
     </g>
     <g id="text_13">
      <text style="fill: #262626; font: 20px 'sans-serif'; text-anchor: end" x="83" y="243.928261" transform="rotate(-0, 83, 243.928261)">−20</text>
     </g>
    </g>
    <g id="ytick_6">
     <g id="line2d_13">
      <path d="M 90 186.070741 
L 648 186.070741 
" clip-path="url(#p866cf12f71)" style="fill: none; stroke: #cccccc; stroke-width: 0.8; stroke-linecap: round"/>
     </g>
     <g id="text_14">
      <text style="fill: #262626; font: 20px 'sans-serif'; text-anchor: end" x="83" y="193.228554" transform="rotate(-0, 83, 193.228554)">−10</text>
     </g>
    </g>
    <g id="ytick_7">
     <g id="line2d_14">
      <path d="M 90 135.371034 
L 648 135.371034 
" clip-path="url(#p866cf12f71)" style="fill: none; stroke: #cccccc; stroke-width: 0.8; stroke-linecap: round"/>
     </g>
     <g id="text_15">
      <text style="fill: #262626; font: 20px 'sans-serif'; text-anchor: end" x="83" y="142.528846" transform="rotate(-0, 83, 142.528846)">0</text>
     </g>
    </g>
    <g id="ytick_8">
     <g id="line2d_15">
      <path d="M 90 84.671326 
L 648 84.671326 
" clip-path="url(#p866cf12f71)" style="fill: none; stroke: #cccccc; stroke-width: 0.8; stroke-linecap: round"/>
     </g>
     <g id="text_16">
      <text style="fill: #262626; font: 20px 'sans-serif'; text-anchor: end" x="83" y="91.829138" transform="rotate(-0, 83, 91.829138)">10</text>
     </g>
    </g>
    <g id="text_17">
     <text style="fill: #262626; font: 20px 'sans-serif'; text-anchor: middle" x="41.1" y="254.52" transform="rotate(-90, 41.1, 254.52)">Управление</text>
    </g>
   </g>
   <g id="line2d_16">
    <path d="M 90 135.371034 
L 90.0372 149.575948 
L 90.1116 149.502891 
L 93.4596 146.359138 
L 96.4728 143.824705 
L 98.9652 142.004957 
L 100.8996 140.852973 
L 102.3876 140.210341 
L 103.578 139.928119 
L 104.5452 139.91683 
L 105.3822 140.122317 
L 106.1448 140.537573 
L 106.8702 141.190526 
L 107.577 142.130842 
L 108.3024 143.484526 
L 109.0278 145.324228 
L 109.7904 147.901101 
L 110.5716 151.369934 
L 111.39 156.081851 
L 112.2456 162.39178 
L 113.1384 170.695816 
L 114.1056 181.862937 
L 115.1844 197.068058 
L 116.4306 218.005363 
L 118.0674 249.635293 
L 122.1594 330.322047 
L 123.6102 353.657652 
L 124.8936 370.86772 
L 126.084 383.994234 
L 127.2372 394.333274 
L 128.3532 402.391501 
L 129.432 408.634093 
L 130.5108 413.609882 
L 131.571 417.486261 
L 132.6312 420.547261 
L 133.6914 422.952383 
L 134.7702 424.863034 
L 135.8676 426.36775 
L 137.0208 427.576456 
L 138.2484 428.54037 
L 139.5876 429.30604 
L 141.0942 429.906728 
L 142.8612 430.364994 
L 145.0374 430.689763 
L 147.9018 430.878477 
L 152.0682 430.910771 
L 159.1734 430.715777 
L 169.794 430.201709 
L 178.0896 429.593113 
L 184.4136 428.914041 
L 189.5658 428.143897 
L 193.9554 427.268336 
L 197.8056 426.277212 
L 201.2466 425.164216 
L 204.3714 423.921592 
L 207.2544 422.536548 
L 209.9328 421.004524 
L 212.4624 419.302273 
L 214.8804 417.405634 
L 217.2054 415.29625 
L 219.456 412.950316 
L 221.6508 410.336933 
L 223.8084 407.416235 
L 225.9288 404.16756 
L 228.0306 400.537951 
L 230.1324 396.460549 
L 232.2528 391.85203 
L 234.3918 386.657569 
L 236.5494 380.822008 
L 238.7442 374.233141 
L 240.9948 366.758767 
L 243.3198 358.246922 
L 245.7378 348.528528 
L 248.286 337.338868 
L 251.0016 324.387605 
L 253.9962 308.988399 
L 257.4744 289.882634 
L 262.1616 262.778154 
L 270.699 213.291083 
L 274.2702 194.035527 
L 277.3206 178.768681 
L 280.092 166.001607 
L 282.6774 155.110539 
L 285.1512 145.634685 
L 287.532 137.38296 
L 289.8384 130.178223 
L 292.089 123.863122 
L 294.3024 118.302011 
L 296.4972 113.380555 
L 298.6734 109.039047 
L 300.8496 105.188282 
L 303.0258 101.783579 
L 305.2206 98.757616 
L 307.4526 96.057011 
L 309.7218 93.658183 
L 312.0468 91.52115 
L 314.4462 89.614691 
L 316.9572 87.902767 
L 319.5984 86.371704 
L 322.407 85.002279 
L 325.4202 83.782672 
L 328.6938 82.700309 
L 332.3022 81.74525 
L 336.3384 80.91167 
L 340.9326 80.195095 
L 346.2894 79.590748 
L 352.7436 79.094674 
L 360.8346 78.706057 
L 371.6784 78.421481 
L 387.972 78.237018 
L 419.22 78.14462 
L 544.9374 78.120463 
L 647.9814 78.12 
L 647.9814 78.12 
" clip-path="url(#p866cf12f71)" style="fill: none; stroke: #000000; stroke-width: 1.5; stroke-linecap: round"/>
   </g>
   <g id="patch_3">
    <path d="M 90 448.56 
L 90 60.48 
" style="fill: none; stroke: #cccccc; stroke-width: 0.8; stroke-linejoin: miter; stroke-linecap: square"/>
   </g>
   <g id="patch_4">
    <path d="M 648 448.56 
L 648 60.48 
" style="fill: none; stroke: #cccccc; stroke-width: 0.8; stroke-linejoin: miter; stroke-linecap: square"/>
   </g>
   <g id="patch_5">
    <path d="M 90 448.56 
L 648 448.56 
" style="fill: none; stroke: #cccccc; stroke-width: 0.8; stroke-linejoin: miter; stroke-linecap: square"/>
   </g>
   <g id="patch_6">
    <path d="M 90 60.48 
L 648 60.48 
" style="fill: none; stroke: #cccccc; stroke-width: 0.8; stroke-linejoin: miter; stroke-linecap: square"/>
   </g>
   <g id="legend_1">
    <g id="patch_7">
     <path d="M 104 104.770625 
L 204.2 104.770625 
Q 208.2 104.770625 208.2 100.770625 
L 208.2 74.48 
Q 208.2 70.48 204.2 70.48 
L 104 70.48 
Q 100 70.48 100 74.48 
L 100 100.770625 
Q 100 104.770625 104 104.770625 
z
" style="fill: #ffffff; opacity: 0.8; stroke: #cccccc; stroke-linejoin: miter"/>
    </g>
    <g id="line2d_17">
     <path d="M 108 85.795625 
L 128 85.795625 
L 148 85.795625 
" style="fill: none; stroke: #000000; stroke-width: 1.5; stroke-linecap: round"/>
    </g>
    <g id="text_18">
     <!-- $u(t)$ -->
     <g style="fill: #262626" transform="translate(164 92.795625)">
      <text>
       <tspan style="font: oblique 20px 'DejaVu Sans'" x="0 20.478516" y="-0.828125">ut</tspan>
       <tspan style="font: 20px 'DejaVu Sans'" x="12.675781 28.320312" y="-0.828125">()</tspan>
      </text>
     </g>
    </g>
   </g>
  </g>
 </g>
 <defs>
  <clipPath id="p866cf12f71">
   <rect x="90" y="60.48" width="558" height="388.08"/>
  </clipPath>
 </defs>
</svg>
