<?xml version="1.0" encoding="utf-8" standalone="no"?>
<!DOCTYPE svg PUBLIC "-//W3C//DTD SVG 1.1//EN"
  "http://www.w3.org/Graphics/SVG/1.1/DTD/svg11.dtd">
<svg xmlns:xlink="http://www.w3.org/1999/xlink" width="720pt" height="504pt" viewBox="0 0 720 504" xmlns="http://www.w3.org/2000/svg" version="1.1">
 <metadata>
  <rdf:RDF xmlns:dc="http://purl.org/dc/elements/1.1/" xmlns:cc="http://creativecommons.org/ns#" xmlns:rdf="http://www.w3.org/1999/02/22-rdf-syntax-ns#">
   <cc:Work>
    <dc:type rdf:resource="http://purl.org/dc/dcmitype/StillImage"/>
    <dc:date>2024-10-01T23:28:31.820014</dc:date>
    <dc:format>image/svg+xml</dc:format>
    <dc:creator>
     <cc:Agent>
      <dc:title>Matplotlib v3.5.3, https://matplotlib.org/</dc:title>
     </cc:Agent>
    </dc:creator>
   </cc:Work>
  </rdf:RDF>
 </metadata>
 <defs>
  <style type="text/css">*{stroke-linejoin: round; stroke-linecap: butt}</style>
 </defs>
 <g id="figure_1">
  <g id="patch_1">
   <path d="M 0 504 
L 720 504 
L 720 0 
L 0 0 
z
" style="fill: #ffffff"/>
  </g>
  <g id="axes_1">
   <g id="patch_2">
    <path d="M 90 448.56 
L 648 448.56 
L 648 60.48 
L 90 60.48 
z
" style="fill: #ffffff"/>
   </g>
   <g id="matplotlib.axis_1">
    <g id="xtick_1">
     <g id="line2d_1">
      <path d="M 90 448.56 
L 90 60.48 
" clip-path="url(#p76e984e38f)" style="fill: none; stroke: #cccccc; stroke-width: 0.8; stroke-linecap: round"/>
     </g>
     <g id="text_1">
      <text style="fill: #262626; font: 20px 'sans-serif'; text-anchor: middle" x="90" y="469.875625" transform="rotate(-0, 90, 469.875625)">0</text>
     </g>
    </g>
    <g id="xtick_2">
     <g id="line2d_2">
      <path d="M 201.6 448.56 
L 201.6 60.48 
" clip-path="url(#p76e984e38f)" style="fill: none; stroke: #cccccc; stroke-width: 0.8; stroke-linecap: round"/>
     </g>
     <g id="text_2">
      <text style="fill: #262626; font: 20px 'sans-serif'; text-anchor: middle" x="201.6" y="469.875625" transform="rotate(-0, 201.6, 469.875625)">200</text>
     </g>
    </g>
    <g id="xtick_3">
     <g id="line2d_3">
      <path d="M 313.2 448.56 
L 313.2 60.48 
" clip-path="url(#p76e984e38f)" style="fill: none; stroke: #cccccc; stroke-width: 0.8; stroke-linecap: round"/>
     </g>
     <g id="text_3">
      <text style="fill: #262626; font: 20px 'sans-serif'; text-anchor: middle" x="313.2" y="469.875625" transform="rotate(-0, 313.2, 469.875625)">400</text>
     </g>
    </g>
    <g id="xtick_4">
     <g id="line2d_4">
      <path d="M 424.8 448.56 
L 424.8 60.48 
" clip-path="url(#p76e984e38f)" style="fill: none; stroke: #cccccc; stroke-width: 0.8; stroke-linecap: round"/>
     </g>
     <g id="text_4">
      <text style="fill: #262626; font: 20px 'sans-serif'; text-anchor: middle" x="424.8" y="469.875625" transform="rotate(-0, 424.8, 469.875625)">600</text>
     </g>
    </g>
    <g id="xtick_5">
     <g id="line2d_5">
      <path d="M 536.4 448.56 
L 536.4 60.48 
" clip-path="url(#p76e984e38f)" style="fill: none; stroke: #cccccc; stroke-width: 0.8; stroke-linecap: round"/>
     </g>
     <g id="text_5">
      <text style="fill: #262626; font: 20px 'sans-serif'; text-anchor: middle" x="536.4" y="469.875625" transform="rotate(-0, 536.4, 469.875625)">800</text>
     </g>
    </g>
    <g id="xtick_6">
     <g id="line2d_6">
      <path d="M 648 448.56 
L 648 60.48 
" clip-path="url(#p76e984e38f)" style="fill: none; stroke: #cccccc; stroke-width: 0.8; stroke-linecap: round"/>
     </g>
     <g id="text_6">
      <text style="fill: #262626; font: 20px 'sans-serif'; text-anchor: middle" x="648" y="469.875625" transform="rotate(-0, 648, 469.875625)">1000</text>
     </g>
    </g>
    <g id="text_7">
     <text style="fill: #262626; font: 20px 'sans-serif'; text-anchor: middle" x="369" y="492.16625" transform="rotate(-0, 369, 492.16625)">Время, дни</text>
    </g>
   </g>
   <g id="matplotlib.axis_2">
    <g id="ytick_1">
     <g id="line2d_7">
      <path d="M 90 430.92 
L 648 430.92 
" clip-path="url(#p76e984e38f)" style="fill: none; stroke: #cccccc; stroke-width: 0.8; stroke-linecap: round"/>
     </g>
     <g id="text_8">
      <text style="fill: #262626; font: 20px 'sans-serif'; text-anchor: end" x="83" y="438.077812" transform="rotate(-0, 83, 438.077812)">0</text>
     </g>
    </g>
    <g id="ytick_2">
     <g id="line2d_8">
      <path d="M 90 368.434326 
L 648 368.434326 
" clip-path="url(#p76e984e38f)" style="fill: none; stroke: #cccccc; stroke-width: 0.8; stroke-linecap: round"/>
     </g>
     <g id="text_9">
      <text style="fill: #262626; font: 20px 'sans-serif'; text-anchor: end" x="83" y="375.592138" transform="rotate(-0, 83, 375.592138)">2</text>
     </g>
    </g>
    <g id="ytick_3">
     <g id="line2d_9">
      <path d="M 90 305.948652 
L 648 305.948652 
" clip-path="url(#p76e984e38f)" style="fill: none; stroke: #cccccc; stroke-width: 0.8; stroke-linecap: round"/>
     </g>
     <g id="text_10">
      <text style="fill: #262626; font: 20px 'sans-serif'; text-anchor: end" x="83" y="313.106464" transform="rotate(-0, 83, 313.106464)">4</text>
     </g>
    </g>
    <g id="ytick_4">
     <g id="line2d_10">
      <path d="M 90 243.462977 
L 648 243.462977 
" clip-path="url(#p76e984e38f)" style="fill: none; stroke: #cccccc; stroke-width: 0.8; stroke-linecap: round"/>
     </g>
     <g id="text_11">
      <text style="fill: #262626; font: 20px 'sans-serif'; text-anchor: end" x="83" y="250.62079" transform="rotate(-0, 83, 250.62079)">6</text>
     </g>
    </g>
    <g id="ytick_5">
     <g id="line2d_11">
      <path d="M 90 180.977303 
L 648 180.977303 
" clip-path="url(#p76e984e38f)" style="fill: none; stroke: #cccccc; stroke-width: 0.8; stroke-linecap: round"/>
     </g>
     <g id="text_12">
      <text style="fill: #262626; font: 20px 'sans-serif'; text-anchor: end" x="83" y="188.135116" transform="rotate(-0, 83, 188.135116)">8</text>
     </g>
    </g>
    <g id="ytick_6">
     <g id="line2d_12">
      <path d="M 90 118.491629 
L 648 118.491629 
" clip-path="url(#p76e984e38f)" style="fill: none; stroke: #cccccc; stroke-width: 0.8; stroke-linecap: round"/>
     </g>
     <g id="text_13">
      <text style="fill: #262626; font: 20px 'sans-serif'; text-anchor: end" x="83" y="125.649441" transform="rotate(-0, 83, 125.649441)">10</text>
     </g>
    </g>
    <g id="text_14">
     <text style="fill: #262626; font: 20px 'sans-serif'; text-anchor: middle" x="52.78125" y="254.52" transform="rotate(-90, 52.78125, 254.52)">Управление</text>
    </g>
   </g>
   <g id="line2d_13">
    <path d="M 257.4 448.56 
L 257.4 60.48 
" clip-path="url(#p76e984e38f)" style="fill: none; stroke-dasharray: 5.55,2.4; stroke-dashoffset: 0; stroke: #800080; stroke-width: 1.5"/>
   </g>
   <g id="line2d_14">
    <path d="M 90 430.92 
L 257.39442 430.92 
L 257.40558 353.530173 
L 257.50602 355.182688 
L 258.11424 363.112522 
L 258.64434 367.409734 
L 259.07958 369.354667 
L 259.4088 369.982228 
L 259.632 370.030406 
L 259.83846 369.82218 
L 260.12304 369.163082 
L 260.50806 367.640651 
L 261.02142 364.607564 
L 261.69102 359.186497 
L 262.5615 350.16245 
L 263.72772 335.557312 
L 265.49658 310.276755 
L 270.36234 239.611379 
L 272.3544 214.533659 
L 274.1679 194.423757 
L 275.89212 177.704753 
L 277.56612 163.582922 
L 279.20664 151.585412 
L 280.82484 141.35042 
L 282.43188 132.575022 
L 284.03334 125.035678 
L 285.6348 118.542937 
L 287.23626 112.955934 
L 288.84888 108.119044 
L 290.47266 103.936355 
L 292.11318 100.311299 
L 293.7816 97.154209 
L 295.4835 94.403042 
L 297.22446 92.005654 
L 299.02122 89.905964 
L 300.88494 88.067018 
L 302.83794 86.45051 
L 304.90812 85.025703 
L 307.12338 83.772142 
L 309.52278 82.671608 
L 312.16212 81.708317 
L 315.11394 80.871511 
L 318.47868 80.153784 
L 322.40142 79.550402 
L 327.1221 79.056945 
L 333.04806 78.671132 
L 340.98282 78.390946 
L 352.89612 78.213348 
L 375.96942 78.131859 
L 491.96088 78.12 
L 647.99442 78.12 
L 647.99442 78.12 
" clip-path="url(#p76e984e38f)" style="fill: none; stroke: #000000; stroke-width: 1.5; stroke-linecap: round"/>
   </g>
   <g id="patch_3">
    <path d="M 90 448.56 
L 90 60.48 
" style="fill: none; stroke: #cccccc; stroke-width: 0.8; stroke-linejoin: miter; stroke-linecap: square"/>
   </g>
   <g id="patch_4">
    <path d="M 648 448.56 
L 648 60.48 
" style="fill: none; stroke: #cccccc; stroke-width: 0.8; stroke-linejoin: miter; stroke-linecap: square"/>
   </g>
   <g id="patch_5">
    <path d="M 90 448.56 
L 648 448.56 
" style="fill: none; stroke: #cccccc; stroke-width: 0.8; stroke-linejoin: miter; stroke-linecap: square"/>
   </g>
   <g id="patch_6">
    <path d="M 90 60.48 
L 648 60.48 
" style="fill: none; stroke: #cccccc; stroke-width: 0.8; stroke-linejoin: miter; stroke-linecap: square"/>
   </g>
   <g id="legend_1">
    <g id="patch_7">
     <path d="M 400.353125 438.56 
L 634 438.56 
Q 638 438.56 638 434.56 
L 638 358.825 
Q 638 354.825 634 354.825 
L 400.353125 354.825 
Q 396.353125 354.825 396.353125 358.825 
L 396.353125 434.56 
Q 396.353125 438.56 400.353125 438.56 
z
" style="fill: #ffffff; opacity: 0.8; stroke: #cccccc; stroke-linejoin: miter"/>
    </g>
    <g id="line2d_15">
     <path d="M 404.353125 370.140625 
L 424.353125 370.140625 
L 444.353125 370.140625 
" style="fill: none; stroke: #000000; stroke-width: 1.5; stroke-linecap: round"/>
    </g>
    <g id="text_15">
     <!-- $u(t)$ -->
     <g style="fill: #262626" transform="translate(460.353125 377.140625)">
      <text>
       <tspan style="font: oblique 20px 'DejaVu Sans'" x="0 20.478516" y="-0.828125">ut</tspan>
       <tspan style="font: 20px 'DejaVu Sans'" x="12.675781 28.320312" y="-0.828125">()</tspan>
      </text>
     </g>
    </g>
    <g id="line2d_16">
     <path d="M 404.353125 410.995625 
L 424.353125 410.995625 
L 444.353125 410.995625 
" style="fill: none; stroke-dasharray: 5.55,2.4; stroke-dashoffset: 0; stroke: #800080; stroke-width: 1.5"/>
    </g>
    <g id="text_16">
     <text style="fill: #262626; font: 20px 'sans-serif'" transform="translate(460.353125 405.43125)">Инициация смены</text>
     <text style="fill: #262626; font: 20px 'sans-serif'" transform="translate(460.353125 426.585)">состояния</text>
    </g>
   </g>
  </g>
 </g>
 <defs>
  <clipPath id="p76e984e38f">
   <rect x="90" y="60.48" width="558" height="388.08"/>
  </clipPath>
 </defs>
</svg>
