<?xml version="1.0" encoding="utf-8" standalone="no"?>
<!DOCTYPE svg PUBLIC "-//W3C//DTD SVG 1.1//EN"
  "http://www.w3.org/Graphics/SVG/1.1/DTD/svg11.dtd">
<svg xmlns:xlink="http://www.w3.org/1999/xlink" width="720pt" height="504pt" viewBox="0 0 720 504" xmlns="http://www.w3.org/2000/svg" version="1.1">
 <metadata>
  <rdf:RDF xmlns:dc="http://purl.org/dc/elements/1.1/" xmlns:cc="http://creativecommons.org/ns#" xmlns:rdf="http://www.w3.org/1999/02/22-rdf-syntax-ns#">
   <cc:Work>
    <dc:type rdf:resource="http://purl.org/dc/dcmitype/StillImage"/>
    <dc:date>2024-10-01T23:32:41.941264</dc:date>
    <dc:format>image/svg+xml</dc:format>
    <dc:creator>
     <cc:Agent>
      <dc:title>Matplotlib v3.5.3, https://matplotlib.org/</dc:title>
     </cc:Agent>
    </dc:creator>
   </cc:Work>
  </rdf:RDF>
 </metadata>
 <defs>
  <style type="text/css">*{stroke-linejoin: round; stroke-linecap: butt}</style>
 </defs>
 <g id="figure_1">
  <g id="patch_1">
   <path d="M 0 504 
L 720 504 
L 720 0 
L 0 0 
z
" style="fill: #ffffff"/>
  </g>
  <g id="axes_1">
   <g id="patch_2">
    <path d="M 90 448.56 
L 648 448.56 
L 648 60.48 
L 90 60.48 
z
" style="fill: #ffffff"/>
   </g>
   <g id="matplotlib.axis_1">
    <g id="xtick_1">
     <g id="line2d_1">
      <path d="M 90 448.56 
L 90 60.48 
" clip-path="url(#p4884de11a7)" style="fill: none; stroke: #cccccc; stroke-width: 0.8; stroke-linecap: round"/>
     </g>
     <g id="text_1">
      <text style="fill: #262626; font: 20px 'sans-serif'; text-anchor: middle" x="90" y="469.875625" transform="rotate(-0, 90, 469.875625)">0</text>
     </g>
    </g>
    <g id="xtick_2">
     <g id="line2d_2">
      <path d="M 201.6 448.56 
L 201.6 60.48 
" clip-path="url(#p4884de11a7)" style="fill: none; stroke: #cccccc; stroke-width: 0.8; stroke-linecap: round"/>
     </g>
     <g id="text_2">
      <text style="fill: #262626; font: 20px 'sans-serif'; text-anchor: middle" x="201.6" y="469.875625" transform="rotate(-0, 201.6, 469.875625)">200</text>
     </g>
    </g>
    <g id="xtick_3">
     <g id="line2d_3">
      <path d="M 313.2 448.56 
L 313.2 60.48 
" clip-path="url(#p4884de11a7)" style="fill: none; stroke: #cccccc; stroke-width: 0.8; stroke-linecap: round"/>
     </g>
     <g id="text_3">
      <text style="fill: #262626; font: 20px 'sans-serif'; text-anchor: middle" x="313.2" y="469.875625" transform="rotate(-0, 313.2, 469.875625)">400</text>
     </g>
    </g>
    <g id="xtick_4">
     <g id="line2d_4">
      <path d="M 424.8 448.56 
L 424.8 60.48 
" clip-path="url(#p4884de11a7)" style="fill: none; stroke: #cccccc; stroke-width: 0.8; stroke-linecap: round"/>
     </g>
     <g id="text_4">
      <text style="fill: #262626; font: 20px 'sans-serif'; text-anchor: middle" x="424.8" y="469.875625" transform="rotate(-0, 424.8, 469.875625)">600</text>
     </g>
    </g>
    <g id="xtick_5">
     <g id="line2d_5">
      <path d="M 536.4 448.56 
L 536.4 60.48 
" clip-path="url(#p4884de11a7)" style="fill: none; stroke: #cccccc; stroke-width: 0.8; stroke-linecap: round"/>
     </g>
     <g id="text_5">
      <text style="fill: #262626; font: 20px 'sans-serif'; text-anchor: middle" x="536.4" y="469.875625" transform="rotate(-0, 536.4, 469.875625)">800</text>
     </g>
    </g>
    <g id="xtick_6">
     <g id="line2d_6">
      <path d="M 648 448.56 
L 648 60.48 
" clip-path="url(#p4884de11a7)" style="fill: none; stroke: #cccccc; stroke-width: 0.8; stroke-linecap: round"/>
     </g>
     <g id="text_6">
      <text style="fill: #262626; font: 20px 'sans-serif'; text-anchor: middle" x="648" y="469.875625" transform="rotate(-0, 648, 469.875625)">1000</text>
     </g>
    </g>
    <g id="text_7">
     <text style="fill: #262626; font: 20px 'sans-serif'; text-anchor: middle" x="369" y="492.16625" transform="rotate(-0, 369, 492.16625)">Время, дни</text>
    </g>
   </g>
   <g id="matplotlib.axis_2">
    <g id="ytick_1">
     <g id="line2d_7">
      <path d="M 90 430.92 
L 648 430.92 
" clip-path="url(#p4884de11a7)" style="fill: none; stroke: #cccccc; stroke-width: 0.8; stroke-linecap: round"/>
     </g>
     <g id="text_8">
      <text style="fill: #262626; font: 20px 'sans-serif'; text-anchor: end" x="83" y="438.077813" transform="rotate(-0, 83, 438.077813)">0</text>
     </g>
    </g>
    <g id="ytick_2">
     <g id="line2d_8">
      <path d="M 90 355.834263 
L 648 355.834263 
" clip-path="url(#p4884de11a7)" style="fill: none; stroke: #cccccc; stroke-width: 0.8; stroke-linecap: round"/>
     </g>
     <g id="text_9">
      <text style="fill: #262626; font: 20px 'sans-serif'; text-anchor: end" x="83" y="362.992076" transform="rotate(-0, 83, 362.992076)">1000</text>
     </g>
    </g>
    <g id="ytick_3">
     <g id="line2d_9">
      <path d="M 90 280.748526 
L 648 280.748526 
" clip-path="url(#p4884de11a7)" style="fill: none; stroke: #cccccc; stroke-width: 0.8; stroke-linecap: round"/>
     </g>
     <g id="text_10">
      <text style="fill: #262626; font: 20px 'sans-serif'; text-anchor: end" x="83" y="287.906339" transform="rotate(-0, 83, 287.906339)">2000</text>
     </g>
    </g>
    <g id="ytick_4">
     <g id="line2d_10">
      <path d="M 90 205.66279 
L 648 205.66279 
" clip-path="url(#p4884de11a7)" style="fill: none; stroke: #cccccc; stroke-width: 0.8; stroke-linecap: round"/>
     </g>
     <g id="text_11">
      <text style="fill: #262626; font: 20px 'sans-serif'; text-anchor: end" x="83" y="212.820602" transform="rotate(-0, 83, 212.820602)">3000</text>
     </g>
    </g>
    <g id="ytick_5">
     <g id="line2d_11">
      <path d="M 90 130.577053 
L 648 130.577053 
" clip-path="url(#p4884de11a7)" style="fill: none; stroke: #cccccc; stroke-width: 0.8; stroke-linecap: round"/>
     </g>
     <g id="text_12">
      <text style="fill: #262626; font: 20px 'sans-serif'; text-anchor: end" x="83" y="137.734865" transform="rotate(-0, 83, 137.734865)">4000</text>
     </g>
    </g>
    <g id="text_13">
     <text style="fill: #262626; font: 20px 'sans-serif'; text-anchor: middle" x="30.5375" y="254.52" transform="rotate(-90, 30.5375, 254.52)">Управление</text>
    </g>
   </g>
   <g id="line2d_12">
    <path d="M 257.4 448.56 
L 257.4 60.48 
" clip-path="url(#p4884de11a7)" style="fill: none; stroke-dasharray: 5.55,2.4; stroke-dashoffset: 0; stroke: #800080; stroke-width: 1.5"/>
   </g>
   <g id="line2d_13">
    <path d="M 90 430.92 
L 90.1116 430.809778 
L 93.2922 430.653914 
L 93.88368 430.382237 
L 94.31334 429.932977 
L 94.69278 429.190264 
L 95.06106 427.935654 
L 95.43492 425.788923 
L 95.81994 422.141799 
L 96.2217 416.005133 
L 96.65136 405.696263 
L 97.12008 388.650539 
L 97.66692 359.945969 
L 98.40906 307.816263 
L 100.08864 186.969606 
L 100.80288 152.88294 
L 101.45016 131.844991 
L 102.06954 118.425274 
L 102.67776 109.742197 
L 103.28598 104.051708 
L 103.89978 100.287275 
L 104.52474 97.756765 
L 105.18318 95.978218 
L 105.89184 94.68295 
L 106.70094 93.661986 
L 107.69418 92.773008 
L 109.05012 91.873744 
L 111.30444 90.679216 
L 115.29972 88.562962 
L 117.22482 87.261062 
L 119.2113 85.63453 
L 123.5358 81.989602 
L 125.12052 81.023393 
L 126.72198 80.308713 
L 128.51874 79.755909 
L 130.73958 79.315212 
L 133.78068 78.953427 
L 138.41766 78.645413 
L 145.9395 78.3886 
L 158.1876 78.213193 
L 182.15928 78.131804 
L 257.40558 78.12 
L 257.52276 78.708291 
L 259.19118 82.337705 
L 260.89866 85.528481 
L 262.6452 88.327639 
L 264.43638 90.782896 
L 266.27778 92.93404 
L 268.19172 94.830295 
L 270.18936 96.498139 
L 272.2986 97.970173 
L 274.55292 99.271193 
L 276.9858 100.416517 
L 279.64746 101.421138 
L 282.60486 102.296376 
L 285.95286 103.050937 
L 289.82538 103.690235 
L 294.43446 104.218562 
L 300.12606 104.63808 
L 307.5642 104.951302 
L 318.24432 105.160814 
L 336.79782 105.27134 
L 394.42248 105.299081 
L 647.99442 105.299275 
L 647.99442 105.299275 
" clip-path="url(#p4884de11a7)" style="fill: none; stroke: #000000; stroke-width: 1.5; stroke-linecap: round"/>
   </g>
   <g id="patch_3">
    <path d="M 90 448.56 
L 90 60.48 
" style="fill: none; stroke: #cccccc; stroke-width: 0.8; stroke-linejoin: miter; stroke-linecap: square"/>
   </g>
   <g id="patch_4">
    <path d="M 648 448.56 
L 648 60.48 
" style="fill: none; stroke: #cccccc; stroke-width: 0.8; stroke-linejoin: miter; stroke-linecap: square"/>
   </g>
   <g id="patch_5">
    <path d="M 90 448.56 
L 648 448.56 
" style="fill: none; stroke: #cccccc; stroke-width: 0.8; stroke-linejoin: miter; stroke-linecap: square"/>
   </g>
   <g id="patch_6">
    <path d="M 90 60.48 
L 648 60.48 
" style="fill: none; stroke: #cccccc; stroke-width: 0.8; stroke-linejoin: miter; stroke-linecap: square"/>
   </g>
   <g id="legend_1">
    <g id="patch_7">
     <path d="M 400.353125 438.56 
L 634 438.56 
Q 638 438.56 638 434.56 
L 638 358.825 
Q 638 354.825 634 354.825 
L 400.353125 354.825 
Q 396.353125 354.825 396.353125 358.825 
L 396.353125 434.56 
Q 396.353125 438.56 400.353125 438.56 
z
" style="fill: #ffffff; opacity: 0.8; stroke: #cccccc; stroke-linejoin: miter"/>
    </g>
    <g id="line2d_14">
     <path d="M 404.353125 370.140625 
L 424.353125 370.140625 
L 444.353125 370.140625 
" style="fill: none; stroke: #000000; stroke-width: 1.5; stroke-linecap: round"/>
    </g>
    <g id="text_14">
     <!-- $u(t)$ -->
     <g style="fill: #262626" transform="translate(460.353125 377.140625)">
      <text>
       <tspan style="font: oblique 20px 'DejaVu Sans'" x="0 20.478516" y="-0.828125">ut</tspan>
       <tspan style="font: 20px 'DejaVu Sans'" x="12.675781 28.320312" y="-0.828125">()</tspan>
      </text>
     </g>
    </g>
    <g id="line2d_15">
     <path d="M 404.353125 410.995625 
L 424.353125 410.995625 
L 444.353125 410.995625 
" style="fill: none; stroke-dasharray: 5.55,2.4; stroke-dashoffset: 0; stroke: #800080; stroke-width: 1.5"/>
    </g>
    <g id="text_15">
     <text style="fill: #262626; font: 20px 'sans-serif'" transform="translate(460.353125 405.43125)">Инициация смены</text>
     <text style="fill: #262626; font: 20px 'sans-serif'" transform="translate(460.353125 426.585)">состояния</text>
    </g>
   </g>
  </g>
 </g>
 <defs>
  <clipPath id="p4884de11a7">
   <rect x="90" y="60.48" width="558" height="388.08"/>
  </clipPath>
 </defs>
</svg>
