<?xml version="1.0" encoding="utf-8" standalone="no"?>
<!DOCTYPE svg PUBLIC "-//W3C//DTD SVG 1.1//EN"
  "http://www.w3.org/Graphics/SVG/1.1/DTD/svg11.dtd">
<svg xmlns:xlink="http://www.w3.org/1999/xlink" width="720pt" height="504pt" viewBox="0 0 720 504" xmlns="http://www.w3.org/2000/svg" version="1.1">
 <metadata>
  <rdf:RDF xmlns:dc="http://purl.org/dc/elements/1.1/" xmlns:cc="http://creativecommons.org/ns#" xmlns:rdf="http://www.w3.org/1999/02/22-rdf-syntax-ns#">
   <cc:Work>
    <dc:type rdf:resource="http://purl.org/dc/dcmitype/StillImage"/>
    <dc:date>2024-09-30T11:34:35.127955</dc:date>
    <dc:format>image/svg+xml</dc:format>
    <dc:creator>
     <cc:Agent>
      <dc:title>Matplotlib v3.9.2, https://matplotlib.org/</dc:title>
     </cc:Agent>
    </dc:creator>
   </cc:Work>
  </rdf:RDF>
 </metadata>
 <defs>
  <style type="text/css">*{stroke-linejoin: round; stroke-linecap: butt}</style>
 </defs>
 <g id="figure_1">
  <g id="patch_1">
   <path d="M 0 504 
L 720 504 
L 720 0 
L 0 0 
z
" style="fill: #ffffff"/>
  </g>
  <g id="axes_1">
   <g id="patch_2">
    <path d="M 90 448.56 
L 648 448.56 
L 648 60.48 
L 90 60.48 
z
" style="fill: #ffffff"/>
   </g>
   <g id="matplotlib.axis_1">
    <g id="xtick_1">
     <g id="line2d_1">
      <path d="M 90 448.56 
L 90 60.48 
" clip-path="url(#pe4d99bd058)" style="fill: none; stroke: #b0b0b0; stroke-width: 0.8; stroke-linecap: square"/>
     </g>
     <g id="line2d_2">
      <defs>
       <path id="m4af4a40d48" d="M 0 0 
L 0 3.5 
" style="stroke: #000000; stroke-width: 0.8"/>
      </defs>
      <g>
       <use xlink:href="#m4af4a40d48" x="90" y="448.56" style="stroke: #000000; stroke-width: 0.8"/>
      </g>
     </g>
     <g id="text_1">
      <text style="font: 20px 'Arial', 'DejaVu Sans', 'Liberation Sans', 'Bitstream Vera Sans', sans-serif; text-anchor: middle" x="90" y="469.875625" transform="rotate(-0 90 469.875625)">0</text>
     </g>
    </g>
    <g id="xtick_2">
     <g id="line2d_3">
      <path d="M 183 448.56 
L 183 60.48 
" clip-path="url(#pe4d99bd058)" style="fill: none; stroke: #b0b0b0; stroke-width: 0.8; stroke-linecap: square"/>
     </g>
     <g id="line2d_4">
      <g>
       <use xlink:href="#m4af4a40d48" x="183" y="448.56" style="stroke: #000000; stroke-width: 0.8"/>
      </g>
     </g>
     <g id="text_2">
      <text style="font: 20px 'Arial', 'DejaVu Sans', 'Liberation Sans', 'Bitstream Vera Sans', sans-serif; text-anchor: middle" x="183" y="469.875625" transform="rotate(-0 183 469.875625)">50</text>
     </g>
    </g>
    <g id="xtick_3">
     <g id="line2d_5">
      <path d="M 276 448.56 
L 276 60.48 
" clip-path="url(#pe4d99bd058)" style="fill: none; stroke: #b0b0b0; stroke-width: 0.8; stroke-linecap: square"/>
     </g>
     <g id="line2d_6">
      <g>
       <use xlink:href="#m4af4a40d48" x="276" y="448.56" style="stroke: #000000; stroke-width: 0.8"/>
      </g>
     </g>
     <g id="text_3">
      <text style="font: 20px 'Arial', 'DejaVu Sans', 'Liberation Sans', 'Bitstream Vera Sans', sans-serif; text-anchor: middle" x="276" y="469.875625" transform="rotate(-0 276 469.875625)">100</text>
     </g>
    </g>
    <g id="xtick_4">
     <g id="line2d_7">
      <path d="M 369 448.56 
L 369 60.48 
" clip-path="url(#pe4d99bd058)" style="fill: none; stroke: #b0b0b0; stroke-width: 0.8; stroke-linecap: square"/>
     </g>
     <g id="line2d_8">
      <g>
       <use xlink:href="#m4af4a40d48" x="369" y="448.56" style="stroke: #000000; stroke-width: 0.8"/>
      </g>
     </g>
     <g id="text_4">
      <text style="font: 20px 'Arial', 'DejaVu Sans', 'Liberation Sans', 'Bitstream Vera Sans', sans-serif; text-anchor: middle" x="369" y="469.875625" transform="rotate(-0 369 469.875625)">150</text>
     </g>
    </g>
    <g id="xtick_5">
     <g id="line2d_9">
      <path d="M 462 448.56 
L 462 60.48 
" clip-path="url(#pe4d99bd058)" style="fill: none; stroke: #b0b0b0; stroke-width: 0.8; stroke-linecap: square"/>
     </g>
     <g id="line2d_10">
      <g>
       <use xlink:href="#m4af4a40d48" x="462" y="448.56" style="stroke: #000000; stroke-width: 0.8"/>
      </g>
     </g>
     <g id="text_5">
      <text style="font: 20px 'Arial', 'DejaVu Sans', 'Liberation Sans', 'Bitstream Vera Sans', sans-serif; text-anchor: middle" x="462" y="469.875625" transform="rotate(-0 462 469.875625)">200</text>
     </g>
    </g>
    <g id="xtick_6">
     <g id="line2d_11">
      <path d="M 555 448.56 
L 555 60.48 
" clip-path="url(#pe4d99bd058)" style="fill: none; stroke: #b0b0b0; stroke-width: 0.8; stroke-linecap: square"/>
     </g>
     <g id="line2d_12">
      <g>
       <use xlink:href="#m4af4a40d48" x="555" y="448.56" style="stroke: #000000; stroke-width: 0.8"/>
      </g>
     </g>
     <g id="text_6">
      <text style="font: 20px 'Arial', 'DejaVu Sans', 'Liberation Sans', 'Bitstream Vera Sans', sans-serif; text-anchor: middle" x="555" y="469.875625" transform="rotate(-0 555 469.875625)">250</text>
     </g>
    </g>
    <g id="xtick_7">
     <g id="line2d_13">
      <path d="M 648 448.56 
L 648 60.48 
" clip-path="url(#pe4d99bd058)" style="fill: none; stroke: #b0b0b0; stroke-width: 0.8; stroke-linecap: square"/>
     </g>
     <g id="line2d_14">
      <g>
       <use xlink:href="#m4af4a40d48" x="648" y="448.56" style="stroke: #000000; stroke-width: 0.8"/>
      </g>
     </g>
     <g id="text_7">
      <text style="font: 20px 'Arial', 'DejaVu Sans', 'Liberation Sans', 'Bitstream Vera Sans', sans-serif; text-anchor: middle" x="648" y="469.875625" transform="rotate(-0 648 469.875625)">300</text>
     </g>
    </g>
    <g id="text_8">
     <text style="font: 20px 'Arial', 'DejaVu Sans', 'Liberation Sans', 'Bitstream Vera Sans', sans-serif; text-anchor: middle" x="369" y="492.16625" transform="rotate(-0 369 492.16625)">Время, дни</text>
    </g>
   </g>
   <g id="matplotlib.axis_2">
    <g id="ytick_1">
     <g id="line2d_15">
      <path d="M 90 448.56 
L 648 448.56 
" clip-path="url(#pe4d99bd058)" style="fill: none; stroke: #b0b0b0; stroke-width: 0.8; stroke-linecap: square"/>
     </g>
     <g id="line2d_16">
      <defs>
       <path id="mb09ee5630d" d="M 0 0 
L -3.5 0 
" style="stroke: #000000; stroke-width: 0.8"/>
      </defs>
      <g>
       <use xlink:href="#mb09ee5630d" x="90" y="448.56" style="stroke: #000000; stroke-width: 0.8"/>
      </g>
     </g>
     <g id="text_9">
      <text style="font: 20px 'Arial', 'DejaVu Sans', 'Liberation Sans', 'Bitstream Vera Sans', sans-serif; text-anchor: end" x="83" y="455.717813" transform="rotate(-0 83 455.717813)">0</text>
     </g>
    </g>
    <g id="ytick_2">
     <g id="line2d_17">
      <path d="M 90 375.198689 
L 648 375.198689 
" clip-path="url(#pe4d99bd058)" style="fill: none; stroke: #b0b0b0; stroke-width: 0.8; stroke-linecap: square"/>
     </g>
     <g id="line2d_18">
      <g>
       <use xlink:href="#mb09ee5630d" x="90" y="375.198689" style="stroke: #000000; stroke-width: 0.8"/>
      </g>
     </g>
     <g id="text_10">
      <text style="font: 20px 'Arial', 'DejaVu Sans', 'Liberation Sans', 'Bitstream Vera Sans', sans-serif; text-anchor: end" x="83" y="382.356502" transform="rotate(-0 83 382.356502)">100</text>
     </g>
    </g>
    <g id="ytick_3">
     <g id="line2d_19">
      <path d="M 90 301.837379 
L 648 301.837379 
" clip-path="url(#pe4d99bd058)" style="fill: none; stroke: #b0b0b0; stroke-width: 0.8; stroke-linecap: square"/>
     </g>
     <g id="line2d_20">
      <g>
       <use xlink:href="#mb09ee5630d" x="90" y="301.837379" style="stroke: #000000; stroke-width: 0.8"/>
      </g>
     </g>
     <g id="text_11">
      <text style="font: 20px 'Arial', 'DejaVu Sans', 'Liberation Sans', 'Bitstream Vera Sans', sans-serif; text-anchor: end" x="83" y="308.995191" transform="rotate(-0 83 308.995191)">200</text>
     </g>
    </g>
    <g id="ytick_4">
     <g id="line2d_21">
      <path d="M 90 228.476068 
L 648 228.476068 
" clip-path="url(#pe4d99bd058)" style="fill: none; stroke: #b0b0b0; stroke-width: 0.8; stroke-linecap: square"/>
     </g>
     <g id="line2d_22">
      <g>
       <use xlink:href="#mb09ee5630d" x="90" y="228.476068" style="stroke: #000000; stroke-width: 0.8"/>
      </g>
     </g>
     <g id="text_12">
      <text style="font: 20px 'Arial', 'DejaVu Sans', 'Liberation Sans', 'Bitstream Vera Sans', sans-serif; text-anchor: end" x="83" y="235.633881" transform="rotate(-0 83 235.633881)">300</text>
     </g>
    </g>
    <g id="ytick_5">
     <g id="line2d_23">
      <path d="M 90 155.114757 
L 648 155.114757 
" clip-path="url(#pe4d99bd058)" style="fill: none; stroke: #b0b0b0; stroke-width: 0.8; stroke-linecap: square"/>
     </g>
     <g id="line2d_24">
      <g>
       <use xlink:href="#mb09ee5630d" x="90" y="155.114757" style="stroke: #000000; stroke-width: 0.8"/>
      </g>
     </g>
     <g id="text_13">
      <text style="font: 20px 'Arial', 'DejaVu Sans', 'Liberation Sans', 'Bitstream Vera Sans', sans-serif; text-anchor: end" x="83" y="162.27257" transform="rotate(-0 83 162.27257)">400</text>
     </g>
    </g>
    <g id="ytick_6">
     <g id="line2d_25">
      <path d="M 90 81.753447 
L 648 81.753447 
" clip-path="url(#pe4d99bd058)" style="fill: none; stroke: #b0b0b0; stroke-width: 0.8; stroke-linecap: square"/>
     </g>
     <g id="line2d_26">
      <g>
       <use xlink:href="#mb09ee5630d" x="90" y="81.753447" style="stroke: #000000; stroke-width: 0.8"/>
      </g>
     </g>
     <g id="text_14">
      <text style="font: 20px 'Arial', 'DejaVu Sans', 'Liberation Sans', 'Bitstream Vera Sans', sans-serif; text-anchor: end" x="83" y="88.911259" transform="rotate(-0 83 88.911259)">500</text>
     </g>
    </g>
    <g id="text_15">
     <text style="font: 20px 'Arial', 'DejaVu Sans', 'Liberation Sans', 'Bitstream Vera Sans', sans-serif; text-anchor: middle" x="41.425" y="254.52" transform="rotate(-90 41.425 254.52)">Популяция, ед/л</text>
    </g>
   </g>
   <g id="line2d_27">
    <path d="M 90 447.826387 
L 92.046 447.343561 
L 93.7014 446.729206 
L 95.0964 445.97752 
L 96.324 445.066661 
L 97.4586 443.944808 
L 98.5188 442.578111 
L 99.5418 440.884785 
L 100.5276 438.812892 
L 101.5134 436.200566 
L 102.4806 432.987288 
L 103.4478 428.984026 
L 104.4336 423.916472 
L 105.4194 417.652236 
L 106.4424 409.652286 
L 107.484 399.682065 
L 108.5628 387.15345 
L 109.716 371.04782 
L 110.9622 350.376565 
L 112.3758 323.057936 
L 114.2358 282.393207 
L 118.179 195.084437 
L 119.667 167.689919 
L 120.969 147.606115 
L 122.178 132.252681 
L 123.3312 120.357615 
L 124.4286 111.241961 
L 125.5074 104.072399 
L 126.5676 98.473182 
L 127.6092 94.119991 
L 128.6508 90.689757 
L 129.6924 88.000597 
L 130.734 85.901133 
L 131.8128 84.216609 
L 132.9288 82.882869 
L 134.1006 81.826199 
L 135.3654 80.983814 
L 136.779 80.311571 
L 138.4158 79.784308 
L 140.406 79.385582 
L 142.9542 79.112959 
L 146.5068 78.972346 
L 151.9194 79.00037 
L 159.2664 79.263406 
L 165.7206 79.704341 
L 170.817 80.267849 
L 174.9834 80.945683 
L 178.536 81.743479 
L 181.6608 82.669985 
L 184.4508 83.726169 
L 186.999 84.926127 
L 189.3612 86.282357 
L 191.5932 87.820592 
L 193.7136 89.552506 
L 195.7596 91.512136 
L 197.7498 93.728043 
L 199.7028 96.236851 
L 201.6558 99.114427 
L 203.6088 102.398127 
L 205.5618 106.123866 
L 207.552 110.409189 
L 209.5794 115.311649 
L 211.6812 120.989929 
L 213.8574 127.521603 
L 216.1638 135.165125 
L 218.6376 144.157857 
L 221.3346 154.824739 
L 224.4036 167.905164 
L 228.1236 184.787599 
L 233.7036 211.281041 
L 242.1852 251.443801 
L 246.7794 272.071357 
L 250.7598 288.947442 
L 254.3496 303.227811 
L 257.6232 315.362356 
L 260.5806 325.496922 
L 263.259 333.905073 
L 265.677 340.784955 
L 267.8532 346.331377 
L 269.8248 350.772925 
L 271.629 354.307471 
L 273.2658 357.042464 
L 274.7538 359.114516 
L 276.1116 360.642573 
L 277.3578 361.726868 
L 278.511 362.448823 
L 279.5898 362.871579 
L 280.6128 363.040841 
L 281.6172 362.982598 
L 282.6216 362.697533 
L 283.6446 362.169982 
L 284.7048 361.366959 
L 285.8208 360.23664 
L 287.0112 358.706433 
L 288.2946 356.680982 
L 289.671 354.079001 
L 291.159 350.776623 
L 292.7958 346.58216 
L 294.6186 341.272537 
L 296.7204 334.431304 
L 299.3802 324.962711 
L 306.7644 298.230795 
L 308.8104 291.907975 
L 310.5588 287.201698 
L 312.1026 283.656496 
L 313.5162 280.947654 
L 314.7996 278.946558 
L 315.99 277.482238 
L 317.106 276.447811 
L 318.1662 275.761253 
L 319.1706 275.36842 
L 320.1564 275.217018 
L 321.1608 275.290423 
L 322.2024 275.596385 
L 323.2998 276.15628 
L 324.4902 277.019311 
L 325.8108 278.261324 
L 327.2802 279.958723 
L 328.9542 282.246067 
L 330.8886 285.284155 
L 333.1764 289.312523 
L 336.0408 294.835676 
L 340.2816 303.554859 
L 347.4426 318.272578 
L 350.7534 324.538435 
L 353.5062 329.287818 
L 355.9056 333.00011 
L 358.0632 335.942639 
L 360.0348 338.265223 
L 361.839 340.056787 
L 363.513 341.414112 
L 365.0754 342.401964 
L 366.5448 343.075054 
L 367.9584 343.481034 
L 369.3162 343.64278 
L 370.6554 343.579825 
L 371.9946 343.294025 
L 373.3524 342.776473 
L 374.766 341.995708 
L 376.254 340.91184 
L 377.835 339.47484 
L 379.5276 337.626474 
L 381.3876 335.253572 
L 383.4708 332.220517 
L 385.926 328.232211 
L 389.2368 322.390646 
L 395.6352 311.038937 
L 398.1276 307.120933 
L 400.2294 304.217292 
L 402.0894 302.013988 
L 403.8006 300.323036 
L 405.3816 299.063411 
L 406.8882 298.140779 
L 408.339 297.509809 
L 409.7526 297.135327 
L 411.1476 296.992608 
L 412.5612 297.069444 
L 414.0306 297.374098 
L 415.5744 297.925653 
L 417.2298 298.759998 
L 419.0154 299.914236 
L 421.0056 301.473195 
L 423.2748 303.544763 
L 425.9532 306.304515 
L 429.45 310.249629 
L 440.3124 322.727117 
L 443.2512 325.641732 
L 445.7994 327.866166 
L 448.1058 329.591886 
L 450.2262 330.907864 
L 452.2164 331.887226 
L 454.1136 332.5765 
L 455.9364 333.005029 
L 457.722 333.197227 
L 459.489 333.163287 
L 461.256 332.906995 
L 463.0602 332.419804 
L 464.9388 331.678546 
L 466.9104 330.657866 
L 469.0308 329.305664 
L 471.393 327.527399 
L 474.1458 325.164273 
L 477.8286 321.68442 
L 485.2128 314.652614 
L 488.0586 312.293002 
L 490.4766 310.567344 
L 492.6714 309.266635 
L 494.736 308.298024 
L 496.7076 307.616433 
L 498.6234 307.186864 
L 500.5206 306.98673 
L 502.455 307.00769 
L 504.4266 307.25221 
L 506.4912 307.733508 
L 508.7046 308.481765 
L 511.1226 309.539449 
L 513.8568 310.985426 
L 517.149 312.989518 
L 522.0036 316.236708 
L 528.8856 320.808272 
L 532.4196 322.878398 
L 535.4142 324.380565 
L 538.1112 325.48979 
L 540.6408 326.292207 
L 543.0402 326.823061 
L 545.3838 327.114995 
L 547.6902 327.17945 
L 550.0152 327.021877 
L 552.396 326.636066 
L 554.8884 326.003422 
L 557.5668 325.088348 
L 560.5428 323.830045 
L 564.1512 322.050825 
L 571.1262 318.291032 
L 575.5902 316.037704 
L 578.8824 314.619834 
L 581.784 313.608716 
L 584.481 312.902428 
L 587.0664 312.453306 
L 589.6146 312.234906 
L 592.1814 312.237311 
L 594.8412 312.464217 
L 597.6498 312.930887 
L 600.7002 313.667655 
L 604.197 314.748843 
L 608.661 316.378003 
L 621.1974 321.086268 
L 624.9546 322.177857 
L 628.3026 322.923116 
L 631.446 323.398217 
L 634.4964 323.636002 
L 637.5282 323.649729 
L 640.6158 323.440815 
L 643.8522 322.997163 
L 647.3862 322.284037 
L 647.9814 322.1438 
L 647.9814 322.1438 
" clip-path="url(#pe4d99bd058)" style="fill: none; stroke: #008000; stroke-width: 1.5; stroke-linecap: square"/>
   </g>
   <g id="line2d_28">
    <path d="M 90 448.413277 
L 90.0186 448.41328 
L 94.1664 408.622572 
L 97.0494 384.168313 
L 99.951 361.428385 
L 102.8712 340.280117 
L 105.7914 320.737186 
L 108.7116 302.675315 
L 111.6318 285.980962 
L 114.5706 270.455372 
L 117.5094 256.111252 
L 120.4482 242.858362 
L 123.4056 230.539005 
L 126.363 219.162171 
L 129.3204 208.655637 
L 132.2964 198.894129 
L 135.2724 189.883721 
L 138.267 181.516654 
L 141.2802 173.75114 
L 144.312 166.547779 
L 147.3624 159.869447 
L 150.4314 153.681182 
L 153.519 147.950085 
L 156.6438 142.614767 
L 159.8058 137.653554 
L 163.005 133.045459 
L 166.2414 128.770197 
L 169.5336 124.786683 
L 172.8816 121.081633 
L 176.304 117.623755 
L 179.8008 114.404529 
L 183.3906 111.399994 
L 187.092 108.591285 
L 190.9236 105.963775 
L 194.8854 103.517195 
L 198.996 101.239753 
L 203.2926 99.113619 
L 207.7938 97.134654 
L 212.5368 95.293013 
L 217.5588 93.582852 
L 222.897 92.001244 
L 228.6258 90.538372 
L 234.7824 89.198188 
L 241.4598 87.974688 
L 248.7696 86.864548 
L 256.842 85.8672 
L 265.863 84.980984 
L 276.093 84.204587 
L 287.8854 83.538339 
L 301.8354 82.980048 
L 318.873 82.529413 
L 340.7466 82.184435 
L 371.0832 81.943877 
L 419.8524 81.804888 
L 535.9908 81.755698 
L 647.9814 81.753534 
L 647.9814 81.753534 
" clip-path="url(#pe4d99bd058)" style="fill: none; stroke: #0000ff; stroke-width: 1.5; stroke-linecap: square"/>
   </g>
   <g id="line2d_29">
    <path d="M 90 448.486639 
L 104.6196 448.549194 
L 139.4946 448.456204 
L 153.0168 448.223168 
L 161.2566 447.870629 
L 167.2644 447.399907 
L 172.026 446.810838 
L 176.0064 446.099345 
L 179.4288 445.266889 
L 182.4792 444.299322 
L 185.232 443.196242 
L 187.7802 441.93778 
L 190.1796 440.504535 
L 192.4674 438.876735 
L 194.6622 437.041394 
L 196.8198 434.944243 
L 198.9588 432.549638 
L 201.0978 429.815946 
L 203.274 426.667512 
L 205.5246 423.011645 
L 207.9054 418.706898 
L 210.4908 413.556384 
L 213.4668 407.109735 
L 217.596 397.576021 
L 223.6968 383.528916 
L 226.5798 377.477125 
L 228.9978 372.903975 
L 231.1554 369.286729 
L 233.1456 366.37477 
L 235.0056 364.037981 
L 236.7726 362.166729 
L 238.4652 360.690377 
L 240.102 359.550329 
L 241.7016 358.700478 
L 243.2826 358.106761 
L 244.8822 357.743417 
L 246.5004 357.605901 
L 248.1558 357.690705 
L 249.867 358.002935 
L 251.6712 358.56244 
L 253.5684 359.386783 
L 255.5958 360.513155 
L 257.7906 361.99195 
L 260.19 363.883523 
L 262.8684 366.28737 
L 265.9746 369.385587 
L 270.141 373.883071 
L 277.3206 381.655962 
L 280.2036 384.417265 
L 282.5844 386.399711 
L 284.6862 387.870008 
L 286.6206 388.957902 
L 288.4248 389.723163 
L 290.1546 390.218966 
L 291.8286 390.471163 
L 293.5026 390.498227 
L 295.1766 390.303126 
L 296.9064 389.875606 
L 298.7106 389.198009 
L 300.645 388.229461 
L 302.7654 386.912783 
L 305.1834 385.140139 
L 308.1408 382.681502 
L 313.0326 378.2731 
L 317.8686 374.02262 
L 320.9562 371.601642 
L 323.616 369.791179 
L 326.0526 368.395946 
L 328.359 367.327716 
L 330.591 366.537407 
L 332.7672 366.000075 
L 334.9434 365.690664 
L 337.1382 365.603051 
L 339.3888 365.737039 
L 341.7138 366.099211 
L 344.169 366.709167 
L 346.8102 367.599564 
L 349.7118 368.81916 
L 353.0412 370.468739 
L 357.3378 372.864323 
L 367.3818 378.555648 
L 370.6554 380.094191 
L 373.4826 381.181876 
L 376.068 381.941438 
L 378.5046 382.428792 
L 380.8854 382.678511 
L 383.2476 382.701172 
L 385.6284 382.501056 
L 388.1022 382.068444 
L 390.7434 381.377419 
L 393.6822 380.37197 
L 397.179 378.929381 
L 402.4986 376.459898 
L 408.9342 373.528265 
L 412.6728 372.075151 
L 415.9278 371.04563 
L 418.941 370.322586 
L 421.8612 369.849535 
L 424.7442 369.607878 
L 427.6458 369.587691 
L 430.6404 369.790333 
L 433.8024 370.230136 
L 437.2434 370.938237 
L 441.1866 371.984714 
L 446.376 373.61005 
L 456.8106 376.924335 
L 460.8468 377.934503 
L 464.3808 378.592505 
L 467.673 378.980974 
L 470.8722 379.13517 
L 474.09 379.066307 
L 477.4194 378.77051 
L 481.0278 378.221991 
L 485.1942 377.355764 
L 491.0718 375.882759 
L 500.037 373.649321 
L 504.5754 372.76345 
L 508.593 372.202307 
L 512.4246 371.890462 
L 516.219 371.80462 
L 520.125 371.940507 
L 524.2914 372.311376 
L 529.0158 372.961516 
L 535.284 374.06683 
L 547.0764 376.176608 
L 552.0426 376.80654 
L 556.4694 377.146597 
L 560.7474 377.252276 
L 565.0812 377.135715 
L 569.7498 376.78383 
L 575.2926 376.132695 
L 596.2176 373.438099 
L 601.3326 373.154002 
L 606.336 373.099342 
L 611.544 373.267412 
L 617.4216 373.686444 
L 625.587 374.514848 
L 637.4352 375.697801 
L 643.6662 376.080877 
L 647.9814 376.19897 
L 647.9814 376.19897 
" clip-path="url(#pe4d99bd058)" style="fill: none; stroke: #ff0000; stroke-width: 1.5; stroke-linecap: square"/>
   </g>
   <g id="line2d_30">
    <path d="M 90 81.753447 
L 647.9814 81.753447 
L 647.9814 81.753447 
" clip-path="url(#pe4d99bd058)" style="fill: none; stroke-dasharray: 5.55,2.4; stroke-dashoffset: 0; stroke: #000000; stroke-width: 1.5"/>
   </g>
   <g id="patch_3">
    <path d="M 90 448.56 
L 90 60.48 
" style="fill: none; stroke: #000000; stroke-width: 0.8; stroke-linejoin: miter; stroke-linecap: square"/>
   </g>
   <g id="patch_4">
    <path d="M 648 448.56 
L 648 60.48 
" style="fill: none; stroke: #000000; stroke-width: 0.8; stroke-linejoin: miter; stroke-linecap: square"/>
   </g>
   <g id="patch_5">
    <path d="M 90 448.56 
L 648 448.56 
" style="fill: none; stroke: #000000; stroke-width: 0.8; stroke-linejoin: miter; stroke-linecap: square"/>
   </g>
   <g id="patch_6">
    <path d="M 90 60.48 
L 648 60.48 
" style="fill: none; stroke: #000000; stroke-width: 0.8; stroke-linejoin: miter; stroke-linecap: square"/>
   </g>
   <g id="legend_1">
    <g id="patch_7">
     <path d="M 104 438.56 
L 194.6 438.56 
Q 198.6 438.56 198.6 434.56 
L 198.6 317.888125 
Q 198.6 313.888125 194.6 313.888125 
L 104 313.888125 
Q 100 313.888125 100 317.888125 
L 100 434.56 
Q 100 438.56 104 438.56 
z
" style="fill: #ffffff; opacity: 0.8; stroke: #cccccc; stroke-linejoin: miter"/>
    </g>
    <g id="line2d_31">
     <path d="M 108 329.20375 
L 128 329.20375 
L 148 329.20375 
" style="fill: none; stroke: #008000; stroke-width: 1.5; stroke-linecap: square"/>
    </g>
    <g id="text_16">
     <!-- $P_{1}$ -->
     <g style="fill: #262626" transform="translate(164 336.20375)">
      <text>
       <tspan style="font: oblique 20px 'DejaVu Sans'" x="0" y="-0.421875">P</tspan>
       <tspan style="font: 14px 'DejaVu Sans'" x="12.060547" y="2.859375">1</tspan>
      </text>
     </g>
    </g>
    <g id="line2d_32">
     <path d="M 108 357.494375 
L 128 357.494375 
L 148 357.494375 
" style="fill: none; stroke: #0000ff; stroke-width: 1.5; stroke-linecap: square"/>
    </g>
    <g id="text_17">
     <!-- $P_{2}$ -->
     <g style="fill: #262626" transform="translate(164 364.494375)">
      <text>
       <tspan style="font: oblique 20px 'DejaVu Sans'" x="0" y="-0.421875">P</tspan>
       <tspan style="font: 14px 'DejaVu Sans'" x="12.060547" y="2.859375">2</tspan>
      </text>
     </g>
    </g>
    <g id="line2d_33">
     <path d="M 108 385.785 
L 128 385.785 
L 148 385.785 
" style="fill: none; stroke: #ff0000; stroke-width: 1.5; stroke-linecap: square"/>
    </g>
    <g id="text_18">
     <!-- $Z$ -->
     <g style="fill: #262626" transform="translate(164 392.785)">
      <text>
       <tspan style="font: oblique 20px 'DejaVu Sans'" x="0" y="-0.421875">Z</tspan>
      </text>
     </g>
    </g>
    <g id="line2d_34">
     <path d="M 108 417.96 
L 128 417.96 
L 148 417.96 
" style="fill: none; stroke-dasharray: 5.55,2.4; stroke-dashoffset: 0; stroke: #000000; stroke-width: 1.5"/>
    </g>
    <g id="text_19">
     <!-- $P_2^*$ -->
     <g style="fill: #262626" transform="translate(164 424.96)">
      <text>
       <tspan style="font: oblique 20px 'DejaVu Sans'" x="0" y="-0.953125">P</tspan>
       <tspan style="font: 14px 'DejaVu Sans'" x="12.060547 16.191003" y="4.515625 -8.609375">2*</tspan>
      </text>
     </g>
    </g>
   </g>
  </g>
 </g>
 <defs>
  <clipPath id="pe4d99bd058">
   <rect x="90" y="60.48" width="558" height="388.08"/>
  </clipPath>
 </defs>
</svg>
