<?xml version="1.0" encoding="utf-8" standalone="no"?>
<!DOCTYPE svg PUBLIC "-//W3C//DTD SVG 1.1//EN"
  "http://www.w3.org/Graphics/SVG/1.1/DTD/svg11.dtd">
<svg xmlns:xlink="http://www.w3.org/1999/xlink" width="720pt" height="504pt" viewBox="0 0 720 504" xmlns="http://www.w3.org/2000/svg" version="1.1">
 <metadata>
  <rdf:RDF xmlns:dc="http://purl.org/dc/elements/1.1/" xmlns:cc="http://creativecommons.org/ns#" xmlns:rdf="http://www.w3.org/1999/02/22-rdf-syntax-ns#">
   <cc:Work>
    <dc:type rdf:resource="http://purl.org/dc/dcmitype/StillImage"/>
    <dc:date>2024-09-30T11:41:06.538381</dc:date>
    <dc:format>image/svg+xml</dc:format>
    <dc:creator>
     <cc:Agent>
      <dc:title>Matplotlib v3.9.2, https://matplotlib.org/</dc:title>
     </cc:Agent>
    </dc:creator>
   </cc:Work>
  </rdf:RDF>
 </metadata>
 <defs>
  <style type="text/css">*{stroke-linejoin: round; stroke-linecap: butt}</style>
 </defs>
 <g id="figure_1">
  <g id="patch_1">
   <path d="M 0 504 
L 720 504 
L 720 0 
L 0 0 
z
" style="fill: #ffffff"/>
  </g>
  <g id="axes_1">
   <g id="patch_2">
    <path d="M 90 448.56 
L 648 448.56 
L 648 60.48 
L 90 60.48 
z
" style="fill: #ffffff"/>
   </g>
   <g id="matplotlib.axis_1">
    <g id="xtick_1">
     <g id="line2d_1">
      <path d="M 90 448.56 
L 90 60.48 
" clip-path="url(#pa2ac3c0e0c)" style="fill: none; stroke: #cccccc; stroke-width: 0.8; stroke-linecap: round"/>
     </g>
     <g id="text_1">
      <text style="fill: #262626; font: 20px 'Arial', 'DejaVu Sans', 'Liberation Sans', 'Bitstream Vera Sans', sans-serif; text-anchor: middle" x="90" y="469.875625" transform="rotate(-0 90 469.875625)">0</text>
     </g>
    </g>
    <g id="xtick_2">
     <g id="line2d_2">
      <path d="M 183 448.56 
L 183 60.48 
" clip-path="url(#pa2ac3c0e0c)" style="fill: none; stroke: #cccccc; stroke-width: 0.8; stroke-linecap: round"/>
     </g>
     <g id="text_2">
      <text style="fill: #262626; font: 20px 'Arial', 'DejaVu Sans', 'Liberation Sans', 'Bitstream Vera Sans', sans-serif; text-anchor: middle" x="183" y="469.875625" transform="rotate(-0 183 469.875625)">50</text>
     </g>
    </g>
    <g id="xtick_3">
     <g id="line2d_3">
      <path d="M 276 448.56 
L 276 60.48 
" clip-path="url(#pa2ac3c0e0c)" style="fill: none; stroke: #cccccc; stroke-width: 0.8; stroke-linecap: round"/>
     </g>
     <g id="text_3">
      <text style="fill: #262626; font: 20px 'Arial', 'DejaVu Sans', 'Liberation Sans', 'Bitstream Vera Sans', sans-serif; text-anchor: middle" x="276" y="469.875625" transform="rotate(-0 276 469.875625)">100</text>
     </g>
    </g>
    <g id="xtick_4">
     <g id="line2d_4">
      <path d="M 369 448.56 
L 369 60.48 
" clip-path="url(#pa2ac3c0e0c)" style="fill: none; stroke: #cccccc; stroke-width: 0.8; stroke-linecap: round"/>
     </g>
     <g id="text_4">
      <text style="fill: #262626; font: 20px 'Arial', 'DejaVu Sans', 'Liberation Sans', 'Bitstream Vera Sans', sans-serif; text-anchor: middle" x="369" y="469.875625" transform="rotate(-0 369 469.875625)">150</text>
     </g>
    </g>
    <g id="xtick_5">
     <g id="line2d_5">
      <path d="M 462 448.56 
L 462 60.48 
" clip-path="url(#pa2ac3c0e0c)" style="fill: none; stroke: #cccccc; stroke-width: 0.8; stroke-linecap: round"/>
     </g>
     <g id="text_5">
      <text style="fill: #262626; font: 20px 'Arial', 'DejaVu Sans', 'Liberation Sans', 'Bitstream Vera Sans', sans-serif; text-anchor: middle" x="462" y="469.875625" transform="rotate(-0 462 469.875625)">200</text>
     </g>
    </g>
    <g id="xtick_6">
     <g id="line2d_6">
      <path d="M 555 448.56 
L 555 60.48 
" clip-path="url(#pa2ac3c0e0c)" style="fill: none; stroke: #cccccc; stroke-width: 0.8; stroke-linecap: round"/>
     </g>
     <g id="text_6">
      <text style="fill: #262626; font: 20px 'Arial', 'DejaVu Sans', 'Liberation Sans', 'Bitstream Vera Sans', sans-serif; text-anchor: middle" x="555" y="469.875625" transform="rotate(-0 555 469.875625)">250</text>
     </g>
    </g>
    <g id="xtick_7">
     <g id="line2d_7">
      <path d="M 648 448.56 
L 648 60.48 
" clip-path="url(#pa2ac3c0e0c)" style="fill: none; stroke: #cccccc; stroke-width: 0.8; stroke-linecap: round"/>
     </g>
     <g id="text_7">
      <text style="fill: #262626; font: 20px 'Arial', 'DejaVu Sans', 'Liberation Sans', 'Bitstream Vera Sans', sans-serif; text-anchor: middle" x="648" y="469.875625" transform="rotate(-0 648 469.875625)">300</text>
     </g>
    </g>
    <g id="text_8">
     <text style="fill: #262626; font: 20px 'Arial', 'DejaVu Sans', 'Liberation Sans', 'Bitstream Vera Sans', sans-serif; text-anchor: middle" x="369" y="492.16625" transform="rotate(-0 369 492.16625)">Время, дни</text>
    </g>
   </g>
   <g id="matplotlib.axis_2">
    <g id="ytick_1">
     <g id="line2d_8">
      <path d="M 90 448.56 
L 648 448.56 
" clip-path="url(#pa2ac3c0e0c)" style="fill: none; stroke: #cccccc; stroke-width: 0.8; stroke-linecap: round"/>
     </g>
     <g id="text_9">
      <text style="fill: #262626; font: 20px 'Arial', 'DejaVu Sans', 'Liberation Sans', 'Bitstream Vera Sans', sans-serif; text-anchor: end" x="83" y="455.717813" transform="rotate(-0 83 455.717813)">0</text>
     </g>
    </g>
    <g id="ytick_2">
     <g id="line2d_9">
      <path d="M 90 375.198864 
L 648 375.198864 
" clip-path="url(#pa2ac3c0e0c)" style="fill: none; stroke: #cccccc; stroke-width: 0.8; stroke-linecap: round"/>
     </g>
     <g id="text_10">
      <text style="fill: #262626; font: 20px 'Arial', 'DejaVu Sans', 'Liberation Sans', 'Bitstream Vera Sans', sans-serif; text-anchor: end" x="83" y="382.356676" transform="rotate(-0 83 382.356676)">100</text>
     </g>
    </g>
    <g id="ytick_3">
     <g id="line2d_10">
      <path d="M 90 301.837728 
L 648 301.837728 
" clip-path="url(#pa2ac3c0e0c)" style="fill: none; stroke: #cccccc; stroke-width: 0.8; stroke-linecap: round"/>
     </g>
     <g id="text_11">
      <text style="fill: #262626; font: 20px 'Arial', 'DejaVu Sans', 'Liberation Sans', 'Bitstream Vera Sans', sans-serif; text-anchor: end" x="83" y="308.99554" transform="rotate(-0 83 308.99554)">200</text>
     </g>
    </g>
    <g id="ytick_4">
     <g id="line2d_11">
      <path d="M 90 228.476592 
L 648 228.476592 
" clip-path="url(#pa2ac3c0e0c)" style="fill: none; stroke: #cccccc; stroke-width: 0.8; stroke-linecap: round"/>
     </g>
     <g id="text_12">
      <text style="fill: #262626; font: 20px 'Arial', 'DejaVu Sans', 'Liberation Sans', 'Bitstream Vera Sans', sans-serif; text-anchor: end" x="83" y="235.634404" transform="rotate(-0 83 235.634404)">300</text>
     </g>
    </g>
    <g id="ytick_5">
     <g id="line2d_12">
      <path d="M 90 155.115455 
L 648 155.115455 
" clip-path="url(#pa2ac3c0e0c)" style="fill: none; stroke: #cccccc; stroke-width: 0.8; stroke-linecap: round"/>
     </g>
     <g id="text_13">
      <text style="fill: #262626; font: 20px 'Arial', 'DejaVu Sans', 'Liberation Sans', 'Bitstream Vera Sans', sans-serif; text-anchor: end" x="83" y="162.273268" transform="rotate(-0 83 162.273268)">400</text>
     </g>
    </g>
    <g id="ytick_6">
     <g id="line2d_13">
      <path d="M 90 81.754319 
L 648 81.754319 
" clip-path="url(#pa2ac3c0e0c)" style="fill: none; stroke: #cccccc; stroke-width: 0.8; stroke-linecap: round"/>
     </g>
     <g id="text_14">
      <text style="fill: #262626; font: 20px 'Arial', 'DejaVu Sans', 'Liberation Sans', 'Bitstream Vera Sans', sans-serif; text-anchor: end" x="83" y="88.912132" transform="rotate(-0 83 88.912132)">500</text>
     </g>
    </g>
    <g id="text_15">
     <text style="fill: #262626; font: 20px 'Arial', 'DejaVu Sans', 'Liberation Sans', 'Bitstream Vera Sans', sans-serif; text-anchor: middle" x="41.425" y="254.52" transform="rotate(-90 41.425 254.52)">Популяция, ед/л</text>
    </g>
   </g>
   <g id="line2d_14">
    <path d="M 90 447.826389 
L 92.046 447.343562 
L 93.7014 446.729204 
L 95.0964 445.977512 
L 96.324 445.066644 
L 97.4586 443.944778 
L 98.5188 442.578064 
L 99.5418 440.884714 
L 100.5276 438.812792 
L 101.5134 436.200427 
L 102.4806 432.987098 
L 103.4478 428.983772 
L 104.4336 423.916134 
L 105.4194 417.651792 
L 106.4424 409.651709 
L 107.484 399.681323 
L 108.5628 387.152507 
L 109.716 371.046635 
L 110.9622 350.375099 
L 112.3758 323.056162 
L 114.2358 282.391125 
L 118.179 195.082418 
L 119.667 167.688153 
L 120.969 147.604617 
L 122.178 132.251439 
L 123.3312 120.356605 
L 124.4286 111.241152 
L 125.5074 104.071762 
L 126.5676 98.472691 
L 127.6092 94.119621 
L 128.6508 90.689488 
L 129.6924 88.00041 
L 130.734 85.901013 
L 131.8128 84.216546 
L 132.9288 82.882851 
L 134.1006 81.826218 
L 135.3654 80.983861 
L 136.779 80.311641 
L 138.4158 79.784392 
L 140.406 79.385672 
L 142.9542 79.113037 
L 146.5068 78.972381 
L 151.9194 79.000271 
L 159.2664 79.262941 
L 165.7206 79.703265 
L 170.817 80.265968 
L 175.002 80.946405 
L 178.5546 81.744285 
L 181.6794 82.670882 
L 184.4694 83.727165 
L 187.0176 84.927231 
L 189.3798 86.283577 
L 191.6118 87.821938 
L 193.7322 89.55399 
L 195.7782 91.513767 
L 197.7684 93.729835 
L 199.7214 96.238816 
L 201.6744 99.11658 
L 203.6274 102.400483 
L 205.5804 106.126437 
L 207.5706 110.411988 
L 209.598 115.314688 
L 211.6998 120.993217 
L 213.876 127.525143 
L 216.1824 135.168916 
L 218.6562 144.161888 
L 221.3532 154.828983 
L 224.4222 167.909576 
L 228.1422 184.792095 
L 233.7222 211.285425 
L 242.2038 251.4476 
L 246.798 272.074712 
L 250.7784 288.950369 
L 254.3682 303.230324 
L 257.6418 315.364468 
L 260.5992 325.498652 
L 263.2776 333.906439 
L 265.6956 340.785978 
L 267.8718 346.332082 
L 269.8434 350.773334 
L 271.6476 354.307604 
L 273.2844 357.042345 
L 274.7724 359.114167 
L 276.1302 360.642016 
L 277.3764 361.726121 
L 278.5296 362.447902 
L 279.6084 362.870499 
L 280.6314 363.039613 
L 281.6358 362.981227 
L 282.6402 362.696024 
L 283.6632 362.168337 
L 284.7234 361.36518 
L 285.8394 360.234727 
L 287.0298 358.704388 
L 288.3132 356.678808 
L 289.6896 354.07671 
L 291.1776 350.774233 
L 292.8144 346.579699 
L 294.6372 341.270054 
L 296.739 334.428879 
L 299.3988 324.960501 
L 306.783 298.229938 
L 308.829 291.907609 
L 310.5774 287.201754 
L 312.1212 283.656915 
L 313.5348 280.948387 
L 314.8182 278.947557 
L 316.0086 277.483464 
L 317.1246 276.449231 
L 318.1848 275.76284 
L 319.1892 275.37015 
L 320.175 275.218872 
L 321.1794 275.292388 
L 322.221 275.598449 
L 323.3184 276.158432 
L 324.5088 277.021539 
L 325.8294 278.263615 
L 327.2988 279.961059 
L 328.9728 282.248426 
L 330.9072 285.286509 
L 333.195 289.31483 
L 336.0594 294.837877 
L 340.3002 303.556826 
L 347.4612 318.274015 
L 350.772 324.539587 
L 353.5248 329.288723 
L 355.9242 333.000792 
L 358.0818 335.943118 
L 360.0534 338.265516 
L 361.8576 340.056912 
L 363.5316 341.414083 
L 365.094 342.401794 
L 366.5634 343.074755 
L 367.977 343.480616 
L 369.3348 343.642254 
L 370.674 343.579198 
L 372.0132 343.293302 
L 373.371 342.775663 
L 374.7846 341.994817 
L 376.2726 340.910875 
L 377.8536 339.473812 
L 379.5462 337.625397 
L 381.4062 335.252468 
L 383.4894 332.219417 
L 385.9446 328.231163 
L 389.2554 322.389754 
L 395.6538 311.038576 
L 398.1462 307.12083 
L 400.248 304.217415 
L 402.108 302.014307 
L 403.8192 300.32353 
L 405.4002 299.064058 
L 406.9068 298.141561 
L 408.3576 297.51071 
L 409.7712 297.136333 
L 411.1662 296.993705 
L 412.5798 297.070623 
L 414.0492 297.375347 
L 415.593 297.926962 
L 417.2484 298.761355 
L 419.034 299.915627 
L 421.0242 301.474604 
L 423.2934 303.546166 
L 425.9718 306.305883 
L 429.4686 310.25091 
L 440.331 322.727918 
L 443.2698 325.642371 
L 445.818 327.86666 
L 448.1244 329.592248 
L 450.2448 330.908106 
L 452.235 331.887358 
L 454.1322 332.576531 
L 455.955 333.004968 
L 457.7406 333.197081 
L 459.5076 333.163065 
L 461.2746 332.906705 
L 463.0788 332.419455 
L 464.9574 331.678146 
L 466.929 330.657426 
L 469.0494 329.305199 
L 471.4116 327.526929 
L 474.1644 325.163828 
L 477.8472 321.684058 
L 485.2314 314.652562 
L 488.0772 312.2931 
L 490.4952 310.567573 
L 492.69 309.266982 
L 494.7546 308.298477 
L 496.7262 307.61698 
L 498.642 307.187495 
L 500.5392 306.987434 
L 502.4736 307.008459 
L 504.4452 307.253032 
L 506.5098 307.734374 
L 508.7232 308.482662 
L 511.1412 309.540363 
L 513.8754 310.986339 
L 517.1676 312.990404 
L 522.0222 316.237509 
L 528.9042 320.808886 
L 532.4382 322.878897 
L 535.4328 324.380963 
L 538.1298 325.490096 
L 540.6594 326.292429 
L 543.0588 326.823208 
L 545.4024 327.115074 
L 547.7088 327.179469 
L 550.0338 327.021843 
L 552.4146 326.635989 
L 554.907 326.003313 
L 557.5854 325.088218 
L 560.5614 323.829913 
L 564.1698 322.050718 
L 571.1634 318.281137 
L 575.6088 316.037838 
L 578.901 314.620064 
L 581.8026 313.60903 
L 584.4996 312.902818 
L 587.085 312.453762 
L 589.6332 312.23542 
L 592.2 312.237874 
L 594.8598 312.46482 
L 597.6684 312.931519 
L 600.7188 313.668303 
L 604.2156 314.74949 
L 608.6796 316.378622 
L 621.1974 321.080708 
L 624.9546 322.173429 
L 628.3026 322.91992 
L 631.446 323.396308 
L 634.4964 323.635406 
L 637.5282 323.650445 
L 640.6158 323.442816 
L 643.8522 323.00039 
L 647.3862 322.288391 
L 647.9814 322.148317 
L 647.9814 322.148317 
" clip-path="url(#pa2ac3c0e0c)" style="fill: none; stroke: #008000; stroke-width: 1.5; stroke-linecap: round"/>
   </g>
   <g id="line2d_15">
    <path d="M 90 448.413278 
L 90.0186 448.412631 
L 93.1062 419.073853 
L 96.0078 393.661016 
L 98.9094 370.175975 
L 101.811 348.470557 
L 104.7312 328.284688 
L 107.6514 309.63491 
L 110.5716 292.403128 
L 113.4918 276.4805 
L 116.4306 261.676624 
L 119.3694 248.002689 
L 122.3082 235.371764 
L 125.2656 223.632779 
L 128.223 212.793641 
L 131.199 202.724508 
L 134.175 193.431151 
L 137.1696 184.802017 
L 140.1642 176.841159 
L 143.1774 169.452802 
L 146.2092 162.599272 
L 149.2596 156.245102 
L 152.3472 150.322701 
L 155.4534 144.840385 
L 158.5968 139.739124 
L 161.7774 134.997739 
L 164.9952 130.59576 
L 168.2688 126.491125 
L 171.5982 122.670523 
L 175.002 119.101932 
L 178.4802 115.776916 
L 182.0514 112.670978 
L 185.7156 109.778835 
L 189.4914 107.081546 
L 193.3974 104.564287 
L 197.4522 102.215602 
L 201.6744 100.026733 
L 206.1012 97.982922 
L 210.7512 96.081883 
L 215.6616 94.315682 
L 220.8882 92.674376 
L 226.4682 91.158113 
L 232.4574 89.764101 
L 238.9302 88.488891 
L 245.9796 87.329859 
L 253.7358 86.283653 
L 262.3476 85.350309 
L 272.0568 84.526521 
L 283.161 83.813069 
L 296.1438 83.208395 
L 311.7678 82.711481 
L 331.3722 82.320619 
L 357.5052 82.035284 
L 396.3048 81.853772 
L 470.7234 81.767772 
L 647.9814 81.754405 
L 647.9814 81.754405 
" clip-path="url(#pa2ac3c0e0c)" style="fill: none; stroke: #0000ff; stroke-width: 1.5; stroke-linecap: round"/>
   </g>
   <g id="line2d_16">
    <path d="M 90 448.486639 
L 104.6196 448.549209 
L 139.5132 448.456191 
L 153.0354 448.223129 
L 161.2752 447.870554 
L 167.283 447.399787 
L 172.0446 446.810665 
L 176.025 446.099108 
L 179.4474 445.26658 
L 182.4978 444.298934 
L 185.2506 443.195765 
L 187.7988 441.937207 
L 190.1982 440.503857 
L 192.486 438.875942 
L 194.6808 437.04048 
L 196.8384 434.943198 
L 198.9774 432.548454 
L 201.1164 429.814616 
L 203.2926 426.666033 
L 205.5432 423.010014 
L 207.924 418.705119 
L 210.5094 413.55447 
L 213.4854 407.107717 
L 217.6146 397.573982 
L 223.7154 383.527146 
L 226.5984 377.47559 
L 229.0164 372.902674 
L 231.174 369.285651 
L 233.1642 366.373905 
L 235.0242 364.037313 
L 236.7912 362.166243 
L 238.4838 360.690058 
L 240.1206 359.550163 
L 241.7202 358.700453 
L 243.3012 358.106863 
L 244.9008 357.743638 
L 246.519 357.606231 
L 248.1744 357.691135 
L 249.8856 358.003456 
L 251.6898 358.563045 
L 253.587 359.387461 
L 255.6144 360.513897 
L 257.8092 361.992744 
L 260.2086 363.884353 
L 262.887 366.288215 
L 265.9932 369.386414 
L 270.1596 373.883815 
L 277.3392 381.656402 
L 280.2222 384.417538 
L 282.603 386.399835 
L 284.7048 387.869996 
L 286.6392 388.957767 
L 288.4434 389.722916 
L 290.1732 390.218619 
L 291.8472 390.470725 
L 293.5212 390.497708 
L 295.1952 390.302536 
L 296.925 389.874954 
L 298.7292 389.197307 
L 300.6636 388.228722 
L 302.784 386.912025 
L 305.202 385.139385 
L 308.1594 382.68079 
L 313.0698 378.255613 
L 317.9058 374.006814 
L 320.9934 371.587815 
L 323.6532 369.779454 
L 326.0898 368.386361 
L 328.3962 367.320268 
L 330.6282 366.532066 
L 332.8044 365.996781 
L 334.9806 365.689369 
L 337.1754 365.603692 
L 339.426 365.739558 
L 341.751 366.103528 
L 344.2062 366.715207 
L 346.8474 367.60723 
L 349.749 368.828314 
L 353.0784 370.479174 
L 357.375 372.87566 
L 367.3818 378.546518 
L 370.6554 380.086454 
L 373.4826 381.17569 
L 376.068 381.936889 
L 378.5046 382.425922 
L 380.8854 382.67735 
L 383.2476 382.701714 
L 385.6284 382.503264 
L 388.1022 382.07227 
L 390.7434 381.382781 
L 393.6822 380.378741 
L 397.179 378.937339 
L 402.48 376.477376 
L 408.9528 373.528227 
L 412.6914 372.075205 
L 415.9464 371.045764 
L 418.9596 370.32279 
L 421.8798 369.849801 
L 424.7628 369.608197 
L 427.6644 369.588056 
L 430.659 369.790734 
L 433.821 370.230564 
L 437.262 370.938679 
L 441.2052 371.985153 
L 446.3946 373.610457 
L 456.8292 376.9246 
L 460.8654 377.934696 
L 464.3994 378.592636 
L 467.6916 378.98105 
L 470.8908 379.135199 
L 474.1086 379.066298 
L 477.438 378.770473 
L 481.0464 378.221937 
L 485.2128 377.355712 
L 491.0904 375.882741 
L 500.0556 373.649406 
L 504.594 372.763596 
L 508.6116 372.202505 
L 512.4432 371.890706 
L 516.2376 371.804901 
L 520.1436 371.940816 
L 524.31 372.311703 
L 529.0344 372.961847 
L 535.3026 374.067142 
L 547.095 376.176825 
L 552.0612 376.806708 
L 556.488 377.146722 
L 560.766 377.252367 
L 565.0998 377.13578 
L 569.7684 376.78388 
L 575.3112 376.132747 
L 596.2362 373.438276 
L 601.3512 373.154215 
L 606.3546 373.099582 
L 611.5626 373.267671 
L 617.4402 373.68671 
L 625.6056 374.515099 
L 637.4538 375.697993 
L 643.6848 376.081035 
L 647.9814 376.198873 
L 647.9814 376.198873 
" clip-path="url(#pa2ac3c0e0c)" style="fill: none; stroke: #ff0000; stroke-width: 1.5; stroke-linecap: round"/>
   </g>
   <g id="line2d_17">
    <path d="M 90 81.754319 
L 647.9814 81.754319 
L 647.9814 81.754319 
" clip-path="url(#pa2ac3c0e0c)" style="fill: none; stroke-dasharray: 5.55,2.4; stroke-dashoffset: 0; stroke: #000000; stroke-width: 1.5"/>
   </g>
   <g id="patch_3">
    <path d="M 90 448.56 
L 90 60.48 
" style="fill: none; stroke: #cccccc; stroke-width: 0.8; stroke-linejoin: miter; stroke-linecap: square"/>
   </g>
   <g id="patch_4">
    <path d="M 648 448.56 
L 648 60.48 
" style="fill: none; stroke: #cccccc; stroke-width: 0.8; stroke-linejoin: miter; stroke-linecap: square"/>
   </g>
   <g id="patch_5">
    <path d="M 90 448.56 
L 648 448.56 
" style="fill: none; stroke: #cccccc; stroke-width: 0.8; stroke-linejoin: miter; stroke-linecap: square"/>
   </g>
   <g id="patch_6">
    <path d="M 90 60.48 
L 648 60.48 
" style="fill: none; stroke: #cccccc; stroke-width: 0.8; stroke-linejoin: miter; stroke-linecap: square"/>
   </g>
   <g id="legend_1">
    <g id="patch_7">
     <path d="M 104 438.56 
L 194.6 438.56 
Q 198.6 438.56 198.6 434.56 
L 198.6 317.888125 
Q 198.6 313.888125 194.6 313.888125 
L 104 313.888125 
Q 100 313.888125 100 317.888125 
L 100 434.56 
Q 100 438.56 104 438.56 
z
" style="fill: #ffffff; opacity: 0.8; stroke: #cccccc; stroke-linejoin: miter"/>
    </g>
    <g id="line2d_18">
     <path d="M 108 329.20375 
L 128 329.20375 
L 148 329.20375 
" style="fill: none; stroke: #008000; stroke-width: 1.5; stroke-linecap: round"/>
    </g>
    <g id="text_16">
     <!-- $P_{1}$ -->
     <g style="fill: #262626" transform="translate(164 336.20375)">
      <text>
       <tspan style="font: oblique 20px 'DejaVu Sans'" x="0" y="-0.421875">P</tspan>
       <tspan style="font: 14px 'DejaVu Sans'" x="12.060547" y="2.859375">1</tspan>
      </text>
     </g>
    </g>
    <g id="line2d_19">
     <path d="M 108 357.494375 
L 128 357.494375 
L 148 357.494375 
" style="fill: none; stroke: #0000ff; stroke-width: 1.5; stroke-linecap: round"/>
    </g>
    <g id="text_17">
     <!-- $P_{2}$ -->
     <g style="fill: #262626" transform="translate(164 364.494375)">
      <text>
       <tspan style="font: oblique 20px 'DejaVu Sans'" x="0" y="-0.421875">P</tspan>
       <tspan style="font: 14px 'DejaVu Sans'" x="12.060547" y="2.859375">2</tspan>
      </text>
     </g>
    </g>
    <g id="line2d_20">
     <path d="M 108 385.785 
L 128 385.785 
L 148 385.785 
" style="fill: none; stroke: #ff0000; stroke-width: 1.5; stroke-linecap: round"/>
    </g>
    <g id="text_18">
     <!-- $Z$ -->
     <g style="fill: #262626" transform="translate(164 392.785)">
      <text>
       <tspan style="font: oblique 20px 'DejaVu Sans'" x="0" y="-0.421875">Z</tspan>
      </text>
     </g>
    </g>
    <g id="line2d_21">
     <path d="M 108 417.96 
L 128 417.96 
L 148 417.96 
" style="fill: none; stroke-dasharray: 5.55,2.4; stroke-dashoffset: 0; stroke: #000000; stroke-width: 1.5"/>
    </g>
    <g id="text_19">
     <!-- $P_2^*$ -->
     <g style="fill: #262626" transform="translate(164 424.96)">
      <text>
       <tspan style="font: oblique 20px 'DejaVu Sans'" x="0" y="-0.953125">P</tspan>
       <tspan style="font: 14px 'DejaVu Sans'" x="12.060547 16.191003" y="4.515625 -8.609375">2*</tspan>
      </text>
     </g>
    </g>
   </g>
  </g>
 </g>
 <defs>
  <clipPath id="pa2ac3c0e0c">
   <rect x="90" y="60.48" width="558" height="388.08"/>
  </clipPath>
 </defs>
</svg>
