<?xml version="1.0" encoding="utf-8" standalone="no"?>
<!DOCTYPE svg PUBLIC "-//W3C//DTD SVG 1.1//EN"
  "http://www.w3.org/Graphics/SVG/1.1/DTD/svg11.dtd">
<svg xmlns:xlink="http://www.w3.org/1999/xlink" width="720pt" height="504pt" viewBox="0 0 720 504" xmlns="http://www.w3.org/2000/svg" version="1.1">
 <metadata>
  <rdf:RDF xmlns:dc="http://purl.org/dc/elements/1.1/" xmlns:cc="http://creativecommons.org/ns#" xmlns:rdf="http://www.w3.org/1999/02/22-rdf-syntax-ns#">
   <cc:Work>
    <dc:type rdf:resource="http://purl.org/dc/dcmitype/StillImage"/>
    <dc:date>2024-09-30T11:41:07.572604</dc:date>
    <dc:format>image/svg+xml</dc:format>
    <dc:creator>
     <cc:Agent>
      <dc:title>Matplotlib v3.9.2, https://matplotlib.org/</dc:title>
     </cc:Agent>
    </dc:creator>
   </cc:Work>
  </rdf:RDF>
 </metadata>
 <defs>
  <style type="text/css">*{stroke-linejoin: round; stroke-linecap: butt}</style>
 </defs>
 <g id="figure_1">
  <g id="patch_1">
   <path d="M 0 504 
L 720 504 
L 720 0 
L 0 0 
z
" style="fill: #ffffff"/>
  </g>
  <g id="axes_1">
   <g id="patch_2">
    <path d="M 90 448.56 
L 648 448.56 
L 648 60.48 
L 90 60.48 
z
" style="fill: #ffffff"/>
   </g>
   <g id="matplotlib.axis_1">
    <g id="xtick_1">
     <g id="line2d_1">
      <path d="M 90 448.56 
L 90 60.48 
" clip-path="url(#p160b048c47)" style="fill: none; stroke: #cccccc; stroke-width: 0.8; stroke-linecap: round"/>
     </g>
     <g id="text_1">
      <text style="fill: #262626; font: 20px 'Arial', 'DejaVu Sans', 'Liberation Sans', 'Bitstream Vera Sans', sans-serif; text-anchor: middle" x="90" y="469.875625" transform="rotate(-0 90 469.875625)">0</text>
     </g>
    </g>
    <g id="xtick_2">
     <g id="line2d_2">
      <path d="M 183 448.56 
L 183 60.48 
" clip-path="url(#p160b048c47)" style="fill: none; stroke: #cccccc; stroke-width: 0.8; stroke-linecap: round"/>
     </g>
     <g id="text_2">
      <text style="fill: #262626; font: 20px 'Arial', 'DejaVu Sans', 'Liberation Sans', 'Bitstream Vera Sans', sans-serif; text-anchor: middle" x="183" y="469.875625" transform="rotate(-0 183 469.875625)">50</text>
     </g>
    </g>
    <g id="xtick_3">
     <g id="line2d_3">
      <path d="M 276 448.56 
L 276 60.48 
" clip-path="url(#p160b048c47)" style="fill: none; stroke: #cccccc; stroke-width: 0.8; stroke-linecap: round"/>
     </g>
     <g id="text_3">
      <text style="fill: #262626; font: 20px 'Arial', 'DejaVu Sans', 'Liberation Sans', 'Bitstream Vera Sans', sans-serif; text-anchor: middle" x="276" y="469.875625" transform="rotate(-0 276 469.875625)">100</text>
     </g>
    </g>
    <g id="xtick_4">
     <g id="line2d_4">
      <path d="M 369 448.56 
L 369 60.48 
" clip-path="url(#p160b048c47)" style="fill: none; stroke: #cccccc; stroke-width: 0.8; stroke-linecap: round"/>
     </g>
     <g id="text_4">
      <text style="fill: #262626; font: 20px 'Arial', 'DejaVu Sans', 'Liberation Sans', 'Bitstream Vera Sans', sans-serif; text-anchor: middle" x="369" y="469.875625" transform="rotate(-0 369 469.875625)">150</text>
     </g>
    </g>
    <g id="xtick_5">
     <g id="line2d_5">
      <path d="M 462 448.56 
L 462 60.48 
" clip-path="url(#p160b048c47)" style="fill: none; stroke: #cccccc; stroke-width: 0.8; stroke-linecap: round"/>
     </g>
     <g id="text_5">
      <text style="fill: #262626; font: 20px 'Arial', 'DejaVu Sans', 'Liberation Sans', 'Bitstream Vera Sans', sans-serif; text-anchor: middle" x="462" y="469.875625" transform="rotate(-0 462 469.875625)">200</text>
     </g>
    </g>
    <g id="xtick_6">
     <g id="line2d_6">
      <path d="M 555 448.56 
L 555 60.48 
" clip-path="url(#p160b048c47)" style="fill: none; stroke: #cccccc; stroke-width: 0.8; stroke-linecap: round"/>
     </g>
     <g id="text_6">
      <text style="fill: #262626; font: 20px 'Arial', 'DejaVu Sans', 'Liberation Sans', 'Bitstream Vera Sans', sans-serif; text-anchor: middle" x="555" y="469.875625" transform="rotate(-0 555 469.875625)">250</text>
     </g>
    </g>
    <g id="xtick_7">
     <g id="line2d_7">
      <path d="M 648 448.56 
L 648 60.48 
" clip-path="url(#p160b048c47)" style="fill: none; stroke: #cccccc; stroke-width: 0.8; stroke-linecap: round"/>
     </g>
     <g id="text_7">
      <text style="fill: #262626; font: 20px 'Arial', 'DejaVu Sans', 'Liberation Sans', 'Bitstream Vera Sans', sans-serif; text-anchor: middle" x="648" y="469.875625" transform="rotate(-0 648 469.875625)">300</text>
     </g>
    </g>
    <g id="text_8">
     <text style="fill: #262626; font: 20px 'Arial', 'DejaVu Sans', 'Liberation Sans', 'Bitstream Vera Sans', sans-serif; text-anchor: middle" x="369" y="492.16625" transform="rotate(-0 369 492.16625)">Время, дни</text>
    </g>
   </g>
   <g id="matplotlib.axis_2">
    <g id="ytick_1">
     <g id="line2d_8">
      <path d="M 90 409.934212 
L 648 409.934212 
" clip-path="url(#p160b048c47)" style="fill: none; stroke: #cccccc; stroke-width: 0.8; stroke-linecap: round"/>
     </g>
     <g id="text_9">
      <text style="fill: #262626; font: 20px 'Arial', 'DejaVu Sans', 'Liberation Sans', 'Bitstream Vera Sans', sans-serif; text-anchor: end" x="83" y="417.092024" transform="rotate(-0 83 417.092024)">−40</text>
     </g>
    </g>
    <g id="ytick_2">
     <g id="line2d_9">
      <path d="M 90 358.808652 
L 648 358.808652 
" clip-path="url(#p160b048c47)" style="fill: none; stroke: #cccccc; stroke-width: 0.8; stroke-linecap: round"/>
     </g>
     <g id="text_10">
      <text style="fill: #262626; font: 20px 'Arial', 'DejaVu Sans', 'Liberation Sans', 'Bitstream Vera Sans', sans-serif; text-anchor: end" x="83" y="365.966465" transform="rotate(-0 83 365.966465)">−30</text>
     </g>
    </g>
    <g id="ytick_3">
     <g id="line2d_10">
      <path d="M 90 307.683093 
L 648 307.683093 
" clip-path="url(#p160b048c47)" style="fill: none; stroke: #cccccc; stroke-width: 0.8; stroke-linecap: round"/>
     </g>
     <g id="text_11">
      <text style="fill: #262626; font: 20px 'Arial', 'DejaVu Sans', 'Liberation Sans', 'Bitstream Vera Sans', sans-serif; text-anchor: end" x="83" y="314.840905" transform="rotate(-0 83 314.840905)">−20</text>
     </g>
    </g>
    <g id="ytick_4">
     <g id="line2d_11">
      <path d="M 90 256.557533 
L 648 256.557533 
" clip-path="url(#p160b048c47)" style="fill: none; stroke: #cccccc; stroke-width: 0.8; stroke-linecap: round"/>
     </g>
     <g id="text_12">
      <text style="fill: #262626; font: 20px 'Arial', 'DejaVu Sans', 'Liberation Sans', 'Bitstream Vera Sans', sans-serif; text-anchor: end" x="83" y="263.715346" transform="rotate(-0 83 263.715346)">−10</text>
     </g>
    </g>
    <g id="ytick_5">
     <g id="line2d_12">
      <path d="M 90 205.431974 
L 648 205.431974 
" clip-path="url(#p160b048c47)" style="fill: none; stroke: #cccccc; stroke-width: 0.8; stroke-linecap: round"/>
     </g>
     <g id="text_13">
      <text style="fill: #262626; font: 20px 'Arial', 'DejaVu Sans', 'Liberation Sans', 'Bitstream Vera Sans', sans-serif; text-anchor: end" x="83" y="212.589786" transform="rotate(-0 83 212.589786)">0</text>
     </g>
    </g>
    <g id="ytick_6">
     <g id="line2d_13">
      <path d="M 90 154.306414 
L 648 154.306414 
" clip-path="url(#p160b048c47)" style="fill: none; stroke: #cccccc; stroke-width: 0.8; stroke-linecap: round"/>
     </g>
     <g id="text_14">
      <text style="fill: #262626; font: 20px 'Arial', 'DejaVu Sans', 'Liberation Sans', 'Bitstream Vera Sans', sans-serif; text-anchor: end" x="83" y="161.464227" transform="rotate(-0 83 161.464227)">10</text>
     </g>
    </g>
    <g id="ytick_7">
     <g id="line2d_14">
      <path d="M 90 103.180855 
L 648 103.180855 
" clip-path="url(#p160b048c47)" style="fill: none; stroke: #cccccc; stroke-width: 0.8; stroke-linecap: round"/>
     </g>
     <g id="text_15">
      <text style="fill: #262626; font: 20px 'Arial', 'DejaVu Sans', 'Liberation Sans', 'Bitstream Vera Sans', sans-serif; text-anchor: end" x="83" y="110.338667" transform="rotate(-0 83 110.338667)">20</text>
     </g>
    </g>
    <g id="text_16">
     <text style="fill: #262626; font: 20px 'Arial', 'DejaVu Sans', 'Liberation Sans', 'Bitstream Vera Sans', sans-serif; text-anchor: middle" x="41.1" y="254.52" transform="rotate(-90 41.1 254.52)">Управление</text>
    </g>
   </g>
   <g id="line2d_15">
    <path d="M 90 205.431974 
L 90.0186 78.12 
L 90.1116 80.633124 
L 91.8972 137.051443 
L 93.627 184.770422 
L 95.3382 225.943921 
L 97.0122 261.013958 
L 98.6676 291.144715 
L 100.2858 316.66623 
L 101.8854 338.456164 
L 103.4478 356.766253 
L 104.973 372.084171 
L 106.4424 384.682964 
L 107.8746 395.116475 
L 109.2696 403.688906 
L 110.6088 410.576344 
L 111.8922 416.052984 
L 113.1198 420.351905 
L 114.2916 423.671467 
L 115.389 426.143605 
L 116.4306 427.966357 
L 117.4164 429.258239 
L 118.3464 430.11975 
L 119.2206 430.636024 
L 120.0576 430.882091 
L 120.8946 430.901579 
L 121.7688 430.696353 
L 122.6988 430.242838 
L 123.7218 429.485231 
L 124.8564 428.354556 
L 126.1212 426.768066 
L 127.5534 424.60122 
L 129.1902 421.703189 
L 131.0688 417.904189 
L 133.2636 412.938918 
L 135.8676 406.473024 
L 139.1412 397.713583 
L 143.7912 384.573094 
L 155.9742 349.893189 
L 160.6614 337.3726 
L 164.865 326.764326 
L 168.8268 317.359254 
L 172.6398 308.873601 
L 176.3412 301.172304 
L 179.9682 294.132088 
L 183.558 287.644739 
L 187.1106 281.678131 
L 190.6632 276.142272 
L 194.2158 271.014655 
L 197.787 266.247706 
L 201.3768 261.822869 
L 205.0224 257.680785 
L 208.7052 253.831682 
L 212.4252 250.26274 
L 216.201 246.946966 
L 220.014 243.892913 
L 223.8828 241.0786 
L 227.8074 238.498556 
L 231.8064 236.135158 
L 235.917 233.963568 
L 240.195 231.956279 
L 244.659 230.108797 
L 249.3648 228.403907 
L 254.3496 226.836535 
L 259.6692 225.398768 
L 265.4352 224.07349 
L 271.8336 222.835861 
L 279.255 221.634042 
L 288.6852 220.344412 
L 301.1286 218.875026 
L 311.712 217.832882 
L 320.9376 217.148969 
L 330.6282 216.658935 
L 341.8998 216.319646 
L 356.9844 216.105182 
L 394.11 215.656259 
L 416.9694 215.364696 
L 437.0202 215.364575 
L 477.438 215.412218 
L 521.892 215.29023 
L 575.4228 215.333282 
L 617.2728 215.312384 
L 647.9814 215.350634 
L 647.9814 215.350634 
" clip-path="url(#p160b048c47)" style="fill: none; stroke: #000000; stroke-width: 1.5; stroke-linecap: round"/>
   </g>
   <g id="patch_3">
    <path d="M 90 448.56 
L 90 60.48 
" style="fill: none; stroke: #cccccc; stroke-width: 0.8; stroke-linejoin: miter; stroke-linecap: square"/>
   </g>
   <g id="patch_4">
    <path d="M 648 448.56 
L 648 60.48 
" style="fill: none; stroke: #cccccc; stroke-width: 0.8; stroke-linejoin: miter; stroke-linecap: square"/>
   </g>
   <g id="patch_5">
    <path d="M 90 448.56 
L 648 448.56 
" style="fill: none; stroke: #cccccc; stroke-width: 0.8; stroke-linejoin: miter; stroke-linecap: square"/>
   </g>
   <g id="patch_6">
    <path d="M 90 60.48 
L 648 60.48 
" style="fill: none; stroke: #cccccc; stroke-width: 0.8; stroke-linejoin: miter; stroke-linecap: square"/>
   </g>
   <g id="legend_1">
    <g id="patch_7">
     <path d="M 533.8 104.770625 
L 634 104.770625 
Q 638 104.770625 638 100.770625 
L 638 74.48 
Q 638 70.48 634 70.48 
L 533.8 70.48 
Q 529.8 70.48 529.8 74.48 
L 529.8 100.770625 
Q 529.8 104.770625 533.8 104.770625 
z
" style="fill: #ffffff; opacity: 0.8; stroke: #cccccc; stroke-linejoin: miter"/>
    </g>
    <g id="line2d_16">
     <path d="M 537.8 85.795625 
L 557.8 85.795625 
L 577.8 85.795625 
" style="fill: none; stroke: #000000; stroke-width: 1.5; stroke-linecap: round"/>
    </g>
    <g id="text_17">
     <!-- $u(t)$ -->
     <g style="fill: #262626" transform="translate(593.8 92.795625)">
      <text>
       <tspan style="font: oblique 20px 'DejaVu Sans'" x="0 20.478516" y="-0.828125">ut</tspan>
       <tspan style="font: 20px 'DejaVu Sans'" x="12.675781 28.320312" y="-0.828125">()</tspan>
      </text>
     </g>
    </g>
   </g>
  </g>
 </g>
 <defs>
  <clipPath id="p160b048c47">
   <rect x="90" y="60.48" width="558" height="388.08"/>
  </clipPath>
 </defs>
</svg>
