<?xml version="1.0" encoding="utf-8" standalone="no"?>
<!DOCTYPE svg PUBLIC "-//W3C//DTD SVG 1.1//EN"
  "http://www.w3.org/Graphics/SVG/1.1/DTD/svg11.dtd">
<svg xmlns:xlink="http://www.w3.org/1999/xlink" width="720pt" height="504pt" viewBox="0 0 720 504" xmlns="http://www.w3.org/2000/svg" version="1.1">
 <metadata>
  <rdf:RDF xmlns:dc="http://purl.org/dc/elements/1.1/" xmlns:cc="http://creativecommons.org/ns#" xmlns:rdf="http://www.w3.org/1999/02/22-rdf-syntax-ns#">
   <cc:Work>
    <dc:type rdf:resource="http://purl.org/dc/dcmitype/StillImage"/>
    <dc:date>2024-10-01T23:08:52.351379</dc:date>
    <dc:format>image/svg+xml</dc:format>
    <dc:creator>
     <cc:Agent>
      <dc:title>Matplotlib v3.5.3, https://matplotlib.org/</dc:title>
     </cc:Agent>
    </dc:creator>
   </cc:Work>
  </rdf:RDF>
 </metadata>
 <defs>
  <style type="text/css">*{stroke-linejoin: round; stroke-linecap: butt}</style>
 </defs>
 <g id="figure_1">
  <g id="patch_1">
   <path d="M 0 504 
L 720 504 
L 720 0 
L 0 0 
z
" style="fill: #ffffff"/>
  </g>
  <g id="axes_1">
   <g id="patch_2">
    <path d="M 90 448.56 
L 648 448.56 
L 648 60.48 
L 90 60.48 
z
" style="fill: #ffffff"/>
   </g>
   <g id="matplotlib.axis_1">
    <g id="xtick_1">
     <g id="line2d_1">
      <path d="M 90 448.56 
L 90 60.48 
" clip-path="url(#pe7116de492)" style="fill: none; stroke: #cccccc; stroke-width: 0.8; stroke-linecap: round"/>
     </g>
     <g id="text_1">
      <text style="fill: #262626; font: 20px 'sans-serif'; text-anchor: middle" x="90" y="469.875625" transform="rotate(-0, 90, 469.875625)">0</text>
     </g>
    </g>
    <g id="xtick_2">
     <g id="line2d_2">
      <path d="M 183 448.56 
L 183 60.48 
" clip-path="url(#pe7116de492)" style="fill: none; stroke: #cccccc; stroke-width: 0.8; stroke-linecap: round"/>
     </g>
     <g id="text_2">
      <text style="fill: #262626; font: 20px 'sans-serif'; text-anchor: middle" x="183" y="469.875625" transform="rotate(-0, 183, 469.875625)">50</text>
     </g>
    </g>
    <g id="xtick_3">
     <g id="line2d_3">
      <path d="M 276 448.56 
L 276 60.48 
" clip-path="url(#pe7116de492)" style="fill: none; stroke: #cccccc; stroke-width: 0.8; stroke-linecap: round"/>
     </g>
     <g id="text_3">
      <text style="fill: #262626; font: 20px 'sans-serif'; text-anchor: middle" x="276" y="469.875625" transform="rotate(-0, 276, 469.875625)">100</text>
     </g>
    </g>
    <g id="xtick_4">
     <g id="line2d_4">
      <path d="M 369 448.56 
L 369 60.48 
" clip-path="url(#pe7116de492)" style="fill: none; stroke: #cccccc; stroke-width: 0.8; stroke-linecap: round"/>
     </g>
     <g id="text_4">
      <text style="fill: #262626; font: 20px 'sans-serif'; text-anchor: middle" x="369" y="469.875625" transform="rotate(-0, 369, 469.875625)">150</text>
     </g>
    </g>
    <g id="xtick_5">
     <g id="line2d_5">
      <path d="M 462 448.56 
L 462 60.48 
" clip-path="url(#pe7116de492)" style="fill: none; stroke: #cccccc; stroke-width: 0.8; stroke-linecap: round"/>
     </g>
     <g id="text_5">
      <text style="fill: #262626; font: 20px 'sans-serif'; text-anchor: middle" x="462" y="469.875625" transform="rotate(-0, 462, 469.875625)">200</text>
     </g>
    </g>
    <g id="xtick_6">
     <g id="line2d_6">
      <path d="M 555 448.56 
L 555 60.48 
" clip-path="url(#pe7116de492)" style="fill: none; stroke: #cccccc; stroke-width: 0.8; stroke-linecap: round"/>
     </g>
     <g id="text_6">
      <text style="fill: #262626; font: 20px 'sans-serif'; text-anchor: middle" x="555" y="469.875625" transform="rotate(-0, 555, 469.875625)">250</text>
     </g>
    </g>
    <g id="xtick_7">
     <g id="line2d_7">
      <path d="M 648 448.56 
L 648 60.48 
" clip-path="url(#pe7116de492)" style="fill: none; stroke: #cccccc; stroke-width: 0.8; stroke-linecap: round"/>
     </g>
     <g id="text_7">
      <text style="fill: #262626; font: 20px 'sans-serif'; text-anchor: middle" x="648" y="469.875625" transform="rotate(-0, 648, 469.875625)">300</text>
     </g>
    </g>
    <g id="text_8">
     <text style="fill: #262626; font: 20px 'sans-serif'; text-anchor: middle" x="369" y="492.16625" transform="rotate(-0, 369, 492.16625)">Время, дни</text>
    </g>
   </g>
   <g id="matplotlib.axis_2">
    <g id="ytick_1">
     <g id="line2d_8">
      <path d="M 90 388.927349 
L 648 388.927349 
" clip-path="url(#pe7116de492)" style="fill: none; stroke: #cccccc; stroke-width: 0.8; stroke-linecap: round"/>
     </g>
     <g id="text_9">
      <text style="fill: #262626; font: 20px 'sans-serif'; text-anchor: end" x="83" y="396.085161" transform="rotate(-0, 83, 396.085161)">−4</text>
     </g>
    </g>
    <g id="ytick_2">
     <g id="line2d_9">
      <path d="M 90 312.000259 
L 648 312.000259 
" clip-path="url(#pe7116de492)" style="fill: none; stroke: #cccccc; stroke-width: 0.8; stroke-linecap: round"/>
     </g>
     <g id="text_10">
      <text style="fill: #262626; font: 20px 'sans-serif'; text-anchor: end" x="83" y="319.158071" transform="rotate(-0, 83, 319.158071)">−3</text>
     </g>
    </g>
    <g id="ytick_3">
     <g id="line2d_10">
      <path d="M 90 235.073169 
L 648 235.073169 
" clip-path="url(#pe7116de492)" style="fill: none; stroke: #cccccc; stroke-width: 0.8; stroke-linecap: round"/>
     </g>
     <g id="text_11">
      <text style="fill: #262626; font: 20px 'sans-serif'; text-anchor: end" x="83" y="242.230981" transform="rotate(-0, 83, 242.230981)">−2</text>
     </g>
    </g>
    <g id="ytick_4">
     <g id="line2d_11">
      <path d="M 90 158.146079 
L 648 158.146079 
" clip-path="url(#pe7116de492)" style="fill: none; stroke: #cccccc; stroke-width: 0.8; stroke-linecap: round"/>
     </g>
     <g id="text_12">
      <text style="fill: #262626; font: 20px 'sans-serif'; text-anchor: end" x="83" y="165.303891" transform="rotate(-0, 83, 165.303891)">−1</text>
     </g>
    </g>
    <g id="ytick_5">
     <g id="line2d_12">
      <path d="M 90 81.218989 
L 648 81.218989 
" clip-path="url(#pe7116de492)" style="fill: none; stroke: #cccccc; stroke-width: 0.8; stroke-linecap: round"/>
     </g>
     <g id="text_13">
      <text style="fill: #262626; font: 20px 'sans-serif'; text-anchor: end" x="83" y="88.376801" transform="rotate(-0, 83, 88.376801)">0</text>
     </g>
    </g>
    <g id="text_14">
     <text style="fill: #262626; font: 20px 'sans-serif'; text-anchor: middle" x="52.221875" y="254.52" transform="rotate(-90, 52.221875, 254.52)">Управление</text>
    </g>
   </g>
   <g id="line2d_13">
    <path d="M 90 81.218989 
L 90.0372 430.92 
L 90.1116 376.044667 
L 90.4092 262.736485 
L 90.7626 206.578041 
L 91.1718 173.858887 
L 91.6554 152.238841 
L 92.1948 137.72366 
L 92.79 127.439946 
L 93.441 119.856678 
L 94.1478 114.088067 
L 94.929 109.495263 
L 95.766 105.866689 
L 96.6774 102.891599 
L 97.6446 100.471117 
L 98.7048 98.407878 
L 99.858 96.646867 
L 101.1228 95.119518 
L 102.5364 93.764461 
L 104.1174 92.559821 
L 105.9216 91.468102 
L 108.0048 90.471098 
L 110.46 89.548073 
L 113.3988 88.68841 
L 116.97 87.883931 
L 121.3968 87.123827 
L 126.9768 86.400675 
L 134.1936 85.700037 
L 143.8842 84.995099 
L 157.5738 84.23734 
L 179.3172 83.281568 
L 201.7674 82.244593 
L 212.9088 81.493952 
L 230.4672 80.02031 
L 240.474 79.336352 
L 249.7182 78.932614 
L 260.3016 78.702255 
L 275.7768 78.613893 
L 308.9964 78.449202 
L 349.284 78.177688 
L 424.3536 78.131521 
L 647.9814 78.12 
L 647.9814 78.12 
" clip-path="url(#pe7116de492)" style="fill: none; stroke: #000000; stroke-width: 1.5; stroke-linecap: round"/>
   </g>
   <g id="patch_3">
    <path d="M 90 448.56 
L 90 60.48 
" style="fill: none; stroke: #cccccc; stroke-width: 0.8; stroke-linejoin: miter; stroke-linecap: square"/>
   </g>
   <g id="patch_4">
    <path d="M 648 448.56 
L 648 60.48 
" style="fill: none; stroke: #cccccc; stroke-width: 0.8; stroke-linejoin: miter; stroke-linecap: square"/>
   </g>
   <g id="patch_5">
    <path d="M 90 448.56 
L 648 448.56 
" style="fill: none; stroke: #cccccc; stroke-width: 0.8; stroke-linejoin: miter; stroke-linecap: square"/>
   </g>
   <g id="patch_6">
    <path d="M 90 60.48 
L 648 60.48 
" style="fill: none; stroke: #cccccc; stroke-width: 0.8; stroke-linejoin: miter; stroke-linecap: square"/>
   </g>
   <g id="legend_1">
    <g id="patch_7">
     <path d="M 104 438.56 
L 204.2 438.56 
Q 208.2 438.56 208.2 434.56 
L 208.2 408.269375 
Q 208.2 404.269375 204.2 404.269375 
L 104 404.269375 
Q 100 404.269375 100 408.269375 
L 100 434.56 
Q 100 438.56 104 438.56 
z
" style="fill: #ffffff; opacity: 0.8; stroke: #cccccc; stroke-linejoin: miter"/>
    </g>
    <g id="line2d_14">
     <path d="M 108 419.585 
L 128 419.585 
L 148 419.585 
" style="fill: none; stroke: #000000; stroke-width: 1.5; stroke-linecap: round"/>
    </g>
    <g id="text_15">
     <!-- $u(t)$ -->
     <g style="fill: #262626" transform="translate(164 426.585)">
      <text>
       <tspan style="font: oblique 20px 'DejaVu Sans'" x="0 20.478516" y="-0.828125">ut</tspan>
       <tspan style="font: 20px 'DejaVu Sans'" x="12.675781 28.320312" y="-0.828125">()</tspan>
      </text>
     </g>
    </g>
   </g>
  </g>
 </g>
 <defs>
  <clipPath id="pe7116de492">
   <rect x="90" y="60.48" width="558" height="388.08"/>
  </clipPath>
 </defs>
</svg>
