<?xml version="1.0" encoding="utf-8" standalone="no"?>
<!DOCTYPE svg PUBLIC "-//W3C//DTD SVG 1.1//EN"
  "http://www.w3.org/Graphics/SVG/1.1/DTD/svg11.dtd">
<svg xmlns:xlink="http://www.w3.org/1999/xlink" width="720pt" height="504pt" viewBox="0 0 720 504" xmlns="http://www.w3.org/2000/svg" version="1.1">
 <metadata>
  <rdf:RDF xmlns:dc="http://purl.org/dc/elements/1.1/" xmlns:cc="http://creativecommons.org/ns#" xmlns:rdf="http://www.w3.org/1999/02/22-rdf-syntax-ns#">
   <cc:Work>
    <dc:type rdf:resource="http://purl.org/dc/dcmitype/StillImage"/>
    <dc:date>2024-09-28T15:59:38.538110</dc:date>
    <dc:format>image/svg+xml</dc:format>
    <dc:creator>
     <cc:Agent>
      <dc:title>Matplotlib v3.7.2, https://matplotlib.org/</dc:title>
     </cc:Agent>
    </dc:creator>
   </cc:Work>
  </rdf:RDF>
 </metadata>
 <defs>
  <style type="text/css">*{stroke-linejoin: round; stroke-linecap: butt}</style>
 </defs>
 <g id="figure_1">
  <g id="patch_1">
   <path d="M 0 504 
L 720 504 
L 720 0 
L 0 0 
z
" style="fill: #ffffff"/>
  </g>
  <g id="axes_1">
   <g id="patch_2">
    <path d="M 90 448.56 
L 648 448.56 
L 648 60.48 
L 90 60.48 
z
" style="fill: #ffffff"/>
   </g>
   <g id="matplotlib.axis_1">
    <g id="xtick_1">
     <g id="line2d_1">
      <path d="M 90 448.56 
L 90 60.48 
" clip-path="url(#p4ae6ac3a03)" style="fill: none; stroke: #b0b0b0; stroke-width: 0.8; stroke-linecap: square"/>
     </g>
     <g id="line2d_2">
      <defs>
       <path id="mac1f2e6969" d="M 0 0 
L 0 3.5 
" style="stroke: #000000; stroke-width: 0.8"/>
      </defs>
      <g>
       <use xlink:href="#mac1f2e6969" x="90" y="448.56" style="stroke: #000000; stroke-width: 0.8"/>
      </g>
     </g>
     <g id="text_1">
      <text style="font: 20px 'Arial', 'DejaVu Sans', 'Liberation Sans', 'Bitstream Vera Sans', sans-serif; text-anchor: middle" x="90" y="469.875625" transform="rotate(-0 90 469.875625)">0</text>
     </g>
    </g>
    <g id="xtick_2">
     <g id="line2d_3">
      <path d="M 201.6 448.56 
L 201.6 60.48 
" clip-path="url(#p4ae6ac3a03)" style="fill: none; stroke: #b0b0b0; stroke-width: 0.8; stroke-linecap: square"/>
     </g>
     <g id="line2d_4">
      <g>
       <use xlink:href="#mac1f2e6969" x="201.6" y="448.56" style="stroke: #000000; stroke-width: 0.8"/>
      </g>
     </g>
     <g id="text_2">
      <text style="font: 20px 'Arial', 'DejaVu Sans', 'Liberation Sans', 'Bitstream Vera Sans', sans-serif; text-anchor: middle" x="201.6" y="469.875625" transform="rotate(-0 201.6 469.875625)">20</text>
     </g>
    </g>
    <g id="xtick_3">
     <g id="line2d_5">
      <path d="M 313.2 448.56 
L 313.2 60.48 
" clip-path="url(#p4ae6ac3a03)" style="fill: none; stroke: #b0b0b0; stroke-width: 0.8; stroke-linecap: square"/>
     </g>
     <g id="line2d_6">
      <g>
       <use xlink:href="#mac1f2e6969" x="313.2" y="448.56" style="stroke: #000000; stroke-width: 0.8"/>
      </g>
     </g>
     <g id="text_3">
      <text style="font: 20px 'Arial', 'DejaVu Sans', 'Liberation Sans', 'Bitstream Vera Sans', sans-serif; text-anchor: middle" x="313.2" y="469.875625" transform="rotate(-0 313.2 469.875625)">40</text>
     </g>
    </g>
    <g id="xtick_4">
     <g id="line2d_7">
      <path d="M 424.8 448.56 
L 424.8 60.48 
" clip-path="url(#p4ae6ac3a03)" style="fill: none; stroke: #b0b0b0; stroke-width: 0.8; stroke-linecap: square"/>
     </g>
     <g id="line2d_8">
      <g>
       <use xlink:href="#mac1f2e6969" x="424.8" y="448.56" style="stroke: #000000; stroke-width: 0.8"/>
      </g>
     </g>
     <g id="text_4">
      <text style="font: 20px 'Arial', 'DejaVu Sans', 'Liberation Sans', 'Bitstream Vera Sans', sans-serif; text-anchor: middle" x="424.8" y="469.875625" transform="rotate(-0 424.8 469.875625)">60</text>
     </g>
    </g>
    <g id="xtick_5">
     <g id="line2d_9">
      <path d="M 536.4 448.56 
L 536.4 60.48 
" clip-path="url(#p4ae6ac3a03)" style="fill: none; stroke: #b0b0b0; stroke-width: 0.8; stroke-linecap: square"/>
     </g>
     <g id="line2d_10">
      <g>
       <use xlink:href="#mac1f2e6969" x="536.4" y="448.56" style="stroke: #000000; stroke-width: 0.8"/>
      </g>
     </g>
     <g id="text_5">
      <text style="font: 20px 'Arial', 'DejaVu Sans', 'Liberation Sans', 'Bitstream Vera Sans', sans-serif; text-anchor: middle" x="536.4" y="469.875625" transform="rotate(-0 536.4 469.875625)">80</text>
     </g>
    </g>
    <g id="xtick_6">
     <g id="line2d_11">
      <path d="M 648 448.56 
L 648 60.48 
" clip-path="url(#p4ae6ac3a03)" style="fill: none; stroke: #b0b0b0; stroke-width: 0.8; stroke-linecap: square"/>
     </g>
     <g id="line2d_12">
      <g>
       <use xlink:href="#mac1f2e6969" x="648" y="448.56" style="stroke: #000000; stroke-width: 0.8"/>
      </g>
     </g>
     <g id="text_6">
      <text style="font: 20px 'Arial', 'DejaVu Sans', 'Liberation Sans', 'Bitstream Vera Sans', sans-serif; text-anchor: middle" x="648" y="469.875625" transform="rotate(-0 648 469.875625)">100</text>
     </g>
    </g>
    <g id="text_7">
     <text style="font: 20px 'Arial', 'DejaVu Sans', 'Liberation Sans', 'Bitstream Vera Sans', sans-serif; text-anchor: middle" x="369" y="492.16625" transform="rotate(-0 369 492.16625)">Время, дни</text>
    </g>
   </g>
   <g id="matplotlib.axis_2">
    <g id="ytick_1">
     <g id="line2d_13">
      <path d="M 90 448.56 
L 648 448.56 
" clip-path="url(#p4ae6ac3a03)" style="fill: none; stroke: #b0b0b0; stroke-width: 0.8; stroke-linecap: square"/>
     </g>
     <g id="line2d_14">
      <defs>
       <path id="m467b0bb951" d="M 0 0 
L -3.5 0 
" style="stroke: #000000; stroke-width: 0.8"/>
      </defs>
      <g>
       <use xlink:href="#m467b0bb951" x="90" y="448.56" style="stroke: #000000; stroke-width: 0.8"/>
      </g>
     </g>
     <g id="text_8">
      <text style="font: 20px 'Arial', 'DejaVu Sans', 'Liberation Sans', 'Bitstream Vera Sans', sans-serif; text-anchor: end" x="83" y="455.717813" transform="rotate(-0 83 455.717813)">0</text>
     </g>
    </g>
    <g id="ytick_2">
     <g id="line2d_15">
      <path d="M 90 373.87444 
L 648 373.87444 
" clip-path="url(#p4ae6ac3a03)" style="fill: none; stroke: #b0b0b0; stroke-width: 0.8; stroke-linecap: square"/>
     </g>
     <g id="line2d_16">
      <g>
       <use xlink:href="#m467b0bb951" x="90" y="373.87444" style="stroke: #000000; stroke-width: 0.8"/>
      </g>
     </g>
     <g id="text_9">
      <text style="font: 20px 'Arial', 'DejaVu Sans', 'Liberation Sans', 'Bitstream Vera Sans', sans-serif; text-anchor: end" x="83" y="381.032252" transform="rotate(-0 83 381.032252)">100</text>
     </g>
    </g>
    <g id="ytick_3">
     <g id="line2d_17">
      <path d="M 90 299.188879 
L 648 299.188879 
" clip-path="url(#p4ae6ac3a03)" style="fill: none; stroke: #b0b0b0; stroke-width: 0.8; stroke-linecap: square"/>
     </g>
     <g id="line2d_18">
      <g>
       <use xlink:href="#m467b0bb951" x="90" y="299.188879" style="stroke: #000000; stroke-width: 0.8"/>
      </g>
     </g>
     <g id="text_10">
      <text style="font: 20px 'Arial', 'DejaVu Sans', 'Liberation Sans', 'Bitstream Vera Sans', sans-serif; text-anchor: end" x="83" y="306.346692" transform="rotate(-0 83 306.346692)">200</text>
     </g>
    </g>
    <g id="ytick_4">
     <g id="line2d_19">
      <path d="M 90 224.503319 
L 648 224.503319 
" clip-path="url(#p4ae6ac3a03)" style="fill: none; stroke: #b0b0b0; stroke-width: 0.8; stroke-linecap: square"/>
     </g>
     <g id="line2d_20">
      <g>
       <use xlink:href="#m467b0bb951" x="90" y="224.503319" style="stroke: #000000; stroke-width: 0.8"/>
      </g>
     </g>
     <g id="text_11">
      <text style="font: 20px 'Arial', 'DejaVu Sans', 'Liberation Sans', 'Bitstream Vera Sans', sans-serif; text-anchor: end" x="83" y="231.661131" transform="rotate(-0 83 231.661131)">300</text>
     </g>
    </g>
    <g id="ytick_5">
     <g id="line2d_21">
      <path d="M 90 149.817758 
L 648 149.817758 
" clip-path="url(#p4ae6ac3a03)" style="fill: none; stroke: #b0b0b0; stroke-width: 0.8; stroke-linecap: square"/>
     </g>
     <g id="line2d_22">
      <g>
       <use xlink:href="#m467b0bb951" x="90" y="149.817758" style="stroke: #000000; stroke-width: 0.8"/>
      </g>
     </g>
     <g id="text_12">
      <text style="font: 20px 'Arial', 'DejaVu Sans', 'Liberation Sans', 'Bitstream Vera Sans', sans-serif; text-anchor: end" x="83" y="156.975571" transform="rotate(-0 83 156.975571)">400</text>
     </g>
    </g>
    <g id="ytick_6">
     <g id="line2d_23">
      <path d="M 90 75.132198 
L 648 75.132198 
" clip-path="url(#p4ae6ac3a03)" style="fill: none; stroke: #b0b0b0; stroke-width: 0.8; stroke-linecap: square"/>
     </g>
     <g id="line2d_24">
      <g>
       <use xlink:href="#m467b0bb951" x="90" y="75.132198" style="stroke: #000000; stroke-width: 0.8"/>
      </g>
     </g>
     <g id="text_13">
      <text style="font: 20px 'Arial', 'DejaVu Sans', 'Liberation Sans', 'Bitstream Vera Sans', sans-serif; text-anchor: end" x="83" y="82.29001" transform="rotate(-0 83 82.29001)">500</text>
     </g>
    </g>
    <g id="text_14">
     <text style="font: 20px 'Arial', 'DejaVu Sans', 'Liberation Sans', 'Bitstream Vera Sans', sans-serif; text-anchor: middle" x="41.425" y="254.52" transform="rotate(-90 41.425 254.52)">Популяция, ед/л</text>
    </g>
   </g>
   <g id="line2d_25">
    <path d="M 90 447.813144 
L 97.1424 447.398942 
L 102.7224 446.861418 
L 107.298 446.202231 
L 111.1482 445.427608 
L 114.4962 444.531568 
L 117.4536 443.515648 
L 120.132 442.366235 
L 122.5872 441.076874 
L 124.875 439.630418 
L 127.0512 437.993732 
L 129.1158 436.165022 
L 131.1246 434.08595 
L 133.0776 431.738006 
L 134.9748 429.104621 
L 136.8162 426.171918 
L 138.6576 422.821352 
L 140.499 419.003409 
L 142.3404 414.665962 
L 144.1818 409.755223 
L 146.079 404.038911 
L 147.9762 397.599128 
L 149.9292 390.158225 
L 151.938 381.594075 
L 154.0026 371.788565 
L 156.1788 360.329112 
L 158.4666 347.049201 
L 160.9218 331.462092 
L 163.7118 312.261491 
L 167.1156 287.185508 
L 178.9452 198.534603 
L 181.6794 180.526271 
L 184.1346 165.768407 
L 186.4224 153.320067 
L 188.5986 142.674358 
L 190.6632 133.639807 
L 192.672 125.809518 
L 194.625 119.056384 
L 196.578 113.094026 
L 198.4752 108.00038 
L 200.3724 103.535198 
L 202.2696 99.639277 
L 204.1668 96.255095 
L 206.064 93.327999 
L 207.9612 90.806983 
L 209.8584 88.645122 
L 211.8114 86.749876 
L 213.8202 85.10641 
L 215.8848 83.69856 
L 218.061 82.481329 
L 220.3488 81.454857 
L 222.804 80.59867 
L 225.4266 79.920486 
L 228.2724 79.414999 
L 231.3972 79.088249 
L 234.8568 78.954951 
L 238.6512 79.034243 
L 242.8362 79.346319 
L 247.4118 79.913049 
L 252.3222 80.748107 
L 257.4558 81.849305 
L 262.6452 83.189652 
L 267.8346 84.759172 
L 272.9682 86.54546 
L 277.9902 88.530244 
L 282.8448 90.686189 
L 287.6436 93.061506 
L 292.3308 95.63034 
L 296.9622 98.423569 
L 301.5378 101.444153 
L 306.1134 104.734673 
L 310.689 108.303612 
L 315.2646 112.156941 
L 319.896 116.349913 
L 324.639 120.948558 
L 329.4936 125.969674 
L 334.5156 131.487877 
L 339.7608 137.585087 
L 345.3408 144.417591 
L 351.3672 152.154335 
L 358.119 161.195528 
L 366.0426 172.19356 
L 376.8678 187.633851 
L 398.4624 218.497641 
L 407.3904 230.815824 
L 415.1466 241.14766 
L 422.289 250.297191 
L 428.985 258.518431 
L 435.3462 265.981918 
L 441.4284 272.781905 
L 447.2874 279.005532 
L 452.979 284.730651 
L 458.5032 289.973143 
L 463.8042 294.702083 
L 468.9936 299.035283 
L 474.0156 302.940469 
L 478.8702 306.437467 
L 483.6132 309.582185 
L 488.2446 312.386228 
L 492.7086 314.832934 
L 497.1168 316.996481 
L 501.4134 318.858448 
L 505.5984 320.433331 
L 509.7276 321.752586 
L 513.801 322.822693 
L 517.8186 323.650942 
L 521.8362 324.252261 
L 525.798 324.622657 
L 529.7598 324.772729 
L 533.7774 324.701817 
L 537.795 324.409521 
L 541.8684 323.892069 
L 546.0534 323.135632 
L 550.35 322.131713 
L 554.814 320.858075 
L 559.5012 319.286133 
L 564.4674 317.383734 
L 569.88 315.06941 
L 576.0738 312.171352 
L 583.83 308.281083 
L 606.7638 296.61476 
L 613.125 293.728457 
L 618.7608 291.411489 
L 624.006 289.491963 
L 629.028 287.889246 
L 633.8826 286.571177 
L 638.6814 285.498118 
L 643.4244 284.663612 
L 647.9442 284.075161 
L 647.9442 284.075161 
" clip-path="url(#p4ae6ac3a03)" style="fill: none; stroke: #008000; stroke-width: 1.5; stroke-linecap: square"/>
   </g>
   <g id="line2d_26">
    <path d="M 90 448.410629 
L 90.0558 448.410185 
L 91.2834 433.441834 
L 92.3994 422.4535 
L 93.5712 413.092805 
L 94.743 405.537339 
L 95.9148 399.438395 
L 97.0866 394.514845 
L 98.2584 390.539951 
L 99.4302 387.33079 
L 100.602 384.739758 
L 101.8296 382.558847 
L 103.0572 380.815766 
L 104.3406 379.366382 
L 105.7356 378.132069 
L 107.1864 377.14175 
L 108.8046 376.306355 
L 110.646 375.612321 
L 112.7664 375.054713 
L 115.389 374.605826 
L 118.737 374.271468 
L 123.4242 374.043233 
L 131.1804 373.915424 
L 151.4358 373.875471 
L 647.9442 373.874492 
L 647.9442 373.874492 
" clip-path="url(#p4ae6ac3a03)" style="fill: none; stroke: #0000ff; stroke-width: 1.5; stroke-linecap: square"/>
   </g>
   <g id="line2d_27">
    <path d="M 90 441.091444 
L 94.6872 442.920838 
L 98.1468 443.916398 
L 102.1086 444.820611 
L 106.6284 445.617715 
L 111.8178 446.299799 
L 117.8442 446.861354 
L 125.0424 447.301575 
L 133.8588 447.609235 
L 144.9072 447.762375 
L 158.5224 447.721836 
L 173.7558 447.45353 
L 188.2638 446.980932 
L 201.042 446.347673 
L 212.1462 445.579788 
L 221.967 444.681259 
L 230.7276 443.660441 
L 238.707 442.51036 
L 246.0726 441.226588 
L 252.936 439.806811 
L 259.4088 438.242432 
L 265.5468 436.532718 
L 271.4616 434.655962 
L 277.209 432.599231 
L 282.8448 430.345165 
L 288.4248 427.871567 
L 293.949 425.179835 
L 299.5848 422.184306 
L 305.388 418.843438 
L 311.4702 415.080235 
L 318.0546 410.739062 
L 325.6992 405.421383 
L 336.7476 397.431122 
L 350.1954 387.76012 
L 357.4494 382.82256 
L 363.6432 378.870748 
L 369.2232 375.568963 
L 374.4684 372.719048 
L 379.4904 370.23969 
L 384.4008 368.062416 
L 389.1996 366.175981 
L 393.9984 364.5291 
L 398.7972 363.119063 
L 403.596 361.940093 
L 408.5064 360.964279 
L 413.4726 360.203542 
L 418.6062 359.642638 
L 423.9072 359.287894 
L 429.4314 359.142065 
L 435.2346 359.213064 
L 441.3726 359.512669 
L 447.957 360.060439 
L 455.0994 360.882881 
L 462.9672 362.017604 
L 472.0068 363.553482 
L 483.2226 365.697272 
L 522.2268 373.355646 
L 531.5454 374.834948 
L 539.9712 375.95056 
L 547.9506 376.784217 
L 555.651 377.366942 
L 563.2956 377.722962 
L 570.996 377.858777 
L 578.9196 377.774973 
L 587.2338 377.463226 
L 596.2734 376.898391 
L 606.5964 376.02414 
L 619.8768 374.661639 
L 647.9442 371.610815 
L 647.9442 371.610815 
" clip-path="url(#p4ae6ac3a03)" style="fill: none; stroke: #ff0000; stroke-width: 1.5; stroke-linecap: square"/>
   </g>
   <g id="line2d_28">
    <path d="M 90 373.87444 
L 647.9442 373.87444 
L 647.9442 373.87444 
" clip-path="url(#p4ae6ac3a03)" style="fill: none; stroke-dasharray: 5.55,2.4; stroke-dashoffset: 0; stroke: #000000; stroke-width: 1.5"/>
   </g>
   <g id="patch_3">
    <path d="M 90 448.56 
L 90 60.48 
" style="fill: none; stroke: #000000; stroke-width: 0.8; stroke-linejoin: miter; stroke-linecap: square"/>
   </g>
   <g id="patch_4">
    <path d="M 648 448.56 
L 648 60.48 
" style="fill: none; stroke: #000000; stroke-width: 0.8; stroke-linejoin: miter; stroke-linecap: square"/>
   </g>
   <g id="patch_5">
    <path d="M 90 448.56 
L 648 448.56 
" style="fill: none; stroke: #000000; stroke-width: 0.8; stroke-linejoin: miter; stroke-linecap: square"/>
   </g>
   <g id="patch_6">
    <path d="M 90 60.48 
L 648 60.48 
" style="fill: none; stroke: #000000; stroke-width: 0.8; stroke-linejoin: miter; stroke-linecap: square"/>
   </g>
   <g id="legend_1">
    <g id="patch_7">
     <path d="M 548.4 195.151875 
L 634 195.151875 
Q 638 195.151875 638 191.151875 
L 638 74.48 
Q 638 70.48 634 70.48 
L 548.4 70.48 
Q 544.4 70.48 544.4 74.48 
L 544.4 191.151875 
Q 544.4 195.151875 548.4 195.151875 
z
" style="fill: #ffffff; opacity: 0.8; stroke: #cccccc; stroke-linejoin: miter"/>
    </g>
    <g id="line2d_29">
     <path d="M 552.4 85.795625 
L 572.4 85.795625 
L 592.4 85.795625 
" style="fill: none; stroke: #008000; stroke-width: 1.5; stroke-linecap: square"/>
    </g>
    <g id="text_15">
     <!-- $P_{1}$ -->
     <g style="fill: #262626" transform="translate(608.4 92.795625)">
      <text>
       <tspan style="font: oblique 20px 'DejaVu Sans'" x="0" y="-0.421875">P</tspan>
       <tspan style="font: 14px 'DejaVu Sans'" x="12.060547" y="2.859375">1</tspan>
      </text>
     </g>
    </g>
    <g id="line2d_30">
     <path d="M 552.4 114.08625 
L 572.4 114.08625 
L 592.4 114.08625 
" style="fill: none; stroke: #0000ff; stroke-width: 1.5; stroke-linecap: square"/>
    </g>
    <g id="text_16">
     <!-- $P_{2}$ -->
     <g style="fill: #262626" transform="translate(608.4 121.08625)">
      <text>
       <tspan style="font: oblique 20px 'DejaVu Sans'" x="0" y="-0.421875">P</tspan>
       <tspan style="font: 14px 'DejaVu Sans'" x="12.060547" y="2.859375">2</tspan>
      </text>
     </g>
    </g>
    <g id="line2d_31">
     <path d="M 552.4 142.376875 
L 572.4 142.376875 
L 592.4 142.376875 
" style="fill: none; stroke: #ff0000; stroke-width: 1.5; stroke-linecap: square"/>
    </g>
    <g id="text_17">
     <!-- $Z$ -->
     <g style="fill: #262626" transform="translate(608.4 149.376875)">
      <text>
       <tspan style="font: oblique 20px 'DejaVu Sans'" x="0" y="-0.421875">Z</tspan>
      </text>
     </g>
    </g>
    <g id="line2d_32">
     <path d="M 552.4 174.551875 
L 572.4 174.551875 
L 592.4 174.551875 
" style="fill: none; stroke-dasharray: 5.55,2.4; stroke-dashoffset: 0; stroke: #000000; stroke-width: 1.5"/>
    </g>
    <g id="text_18">
     <!-- $P_{2}^{*}$ -->
     <g style="fill: #262626" transform="translate(608.4 181.551875)">
      <text>
       <tspan style="font: oblique 20px 'DejaVu Sans'" x="0" y="-0.953125">P</tspan>
       <tspan style="font: 14px 'DejaVu Sans'" x="12.060547 13.463464" y="4.515625 -8.609375">2*</tspan>
      </text>
     </g>
    </g>
   </g>
  </g>
 </g>
 <defs>
  <clipPath id="p4ae6ac3a03">
   <rect x="90" y="60.48" width="558" height="388.08"/>
  </clipPath>
 </defs>
</svg>
