<?xml version="1.0" encoding="utf-8" standalone="no"?>
<!DOCTYPE svg PUBLIC "-//W3C//DTD SVG 1.1//EN"
  "http://www.w3.org/Graphics/SVG/1.1/DTD/svg11.dtd">
<svg xmlns:xlink="http://www.w3.org/1999/xlink" width="720pt" height="504pt" viewBox="0 0 720 504" xmlns="http://www.w3.org/2000/svg" version="1.1">
 <metadata>
  <rdf:RDF xmlns:dc="http://purl.org/dc/elements/1.1/" xmlns:cc="http://creativecommons.org/ns#" xmlns:rdf="http://www.w3.org/1999/02/22-rdf-syntax-ns#">
   <cc:Work>
    <dc:type rdf:resource="http://purl.org/dc/dcmitype/StillImage"/>
    <dc:date>2024-09-28T16:00:06.163314</dc:date>
    <dc:format>image/svg+xml</dc:format>
    <dc:creator>
     <cc:Agent>
      <dc:title>Matplotlib v3.7.2, https://matplotlib.org/</dc:title>
     </cc:Agent>
    </dc:creator>
   </cc:Work>
  </rdf:RDF>
 </metadata>
 <defs>
  <style type="text/css">*{stroke-linejoin: round; stroke-linecap: butt}</style>
 </defs>
 <g id="figure_1">
  <g id="patch_1">
   <path d="M 0 504 
L 720 504 
L 720 0 
L 0 0 
z
" style="fill: #ffffff"/>
  </g>
  <g id="axes_1">
   <g id="patch_2">
    <path d="M 90 448.56 
L 648 448.56 
L 648 60.48 
L 90 60.48 
z
" style="fill: #ffffff"/>
   </g>
   <g id="matplotlib.axis_1">
    <g id="xtick_1">
     <g id="line2d_1">
      <path d="M 90 448.56 
L 90 60.48 
" clip-path="url(#p8213d7ad5d)" style="fill: none; stroke: #cccccc; stroke-width: 0.8; stroke-linecap: round"/>
     </g>
     <g id="text_1">
      <text style="fill: #262626; font: 20px 'Arial', 'DejaVu Sans', 'Liberation Sans', 'Bitstream Vera Sans', sans-serif; text-anchor: middle" x="90" y="469.875625" transform="rotate(-0 90 469.875625)">0</text>
     </g>
    </g>
    <g id="xtick_2">
     <g id="line2d_2">
      <path d="M 201.6 448.56 
L 201.6 60.48 
" clip-path="url(#p8213d7ad5d)" style="fill: none; stroke: #cccccc; stroke-width: 0.8; stroke-linecap: round"/>
     </g>
     <g id="text_2">
      <text style="fill: #262626; font: 20px 'Arial', 'DejaVu Sans', 'Liberation Sans', 'Bitstream Vera Sans', sans-serif; text-anchor: middle" x="201.6" y="469.875625" transform="rotate(-0 201.6 469.875625)">20</text>
     </g>
    </g>
    <g id="xtick_3">
     <g id="line2d_3">
      <path d="M 313.2 448.56 
L 313.2 60.48 
" clip-path="url(#p8213d7ad5d)" style="fill: none; stroke: #cccccc; stroke-width: 0.8; stroke-linecap: round"/>
     </g>
     <g id="text_3">
      <text style="fill: #262626; font: 20px 'Arial', 'DejaVu Sans', 'Liberation Sans', 'Bitstream Vera Sans', sans-serif; text-anchor: middle" x="313.2" y="469.875625" transform="rotate(-0 313.2 469.875625)">40</text>
     </g>
    </g>
    <g id="xtick_4">
     <g id="line2d_4">
      <path d="M 424.8 448.56 
L 424.8 60.48 
" clip-path="url(#p8213d7ad5d)" style="fill: none; stroke: #cccccc; stroke-width: 0.8; stroke-linecap: round"/>
     </g>
     <g id="text_4">
      <text style="fill: #262626; font: 20px 'Arial', 'DejaVu Sans', 'Liberation Sans', 'Bitstream Vera Sans', sans-serif; text-anchor: middle" x="424.8" y="469.875625" transform="rotate(-0 424.8 469.875625)">60</text>
     </g>
    </g>
    <g id="xtick_5">
     <g id="line2d_5">
      <path d="M 536.4 448.56 
L 536.4 60.48 
" clip-path="url(#p8213d7ad5d)" style="fill: none; stroke: #cccccc; stroke-width: 0.8; stroke-linecap: round"/>
     </g>
     <g id="text_5">
      <text style="fill: #262626; font: 20px 'Arial', 'DejaVu Sans', 'Liberation Sans', 'Bitstream Vera Sans', sans-serif; text-anchor: middle" x="536.4" y="469.875625" transform="rotate(-0 536.4 469.875625)">80</text>
     </g>
    </g>
    <g id="xtick_6">
     <g id="line2d_6">
      <path d="M 648 448.56 
L 648 60.48 
" clip-path="url(#p8213d7ad5d)" style="fill: none; stroke: #cccccc; stroke-width: 0.8; stroke-linecap: round"/>
     </g>
     <g id="text_6">
      <text style="fill: #262626; font: 20px 'Arial', 'DejaVu Sans', 'Liberation Sans', 'Bitstream Vera Sans', sans-serif; text-anchor: middle" x="648" y="469.875625" transform="rotate(-0 648 469.875625)">100</text>
     </g>
    </g>
    <g id="text_7">
     <text style="fill: #262626; font: 20px 'Arial', 'DejaVu Sans', 'Liberation Sans', 'Bitstream Vera Sans', sans-serif; text-anchor: middle" x="369" y="492.16625" transform="rotate(-0 369 492.16625)">Время, дни</text>
    </g>
   </g>
   <g id="matplotlib.axis_2">
    <g id="ytick_1">
     <g id="line2d_7">
      <path d="M 90 444.277404 
L 648 444.277404 
" clip-path="url(#p8213d7ad5d)" style="fill: none; stroke: #cccccc; stroke-width: 0.8; stroke-linecap: round"/>
     </g>
     <g id="text_8">
      <text style="fill: #262626; font: 20px 'Arial', 'DejaVu Sans', 'Liberation Sans', 'Bitstream Vera Sans', sans-serif; text-anchor: end" x="83" y="451.435217" transform="rotate(-0 83 451.435217)">−140</text>
     </g>
    </g>
    <g id="ytick_2">
     <g id="line2d_8">
      <path d="M 90 392.420351 
L 648 392.420351 
" clip-path="url(#p8213d7ad5d)" style="fill: none; stroke: #cccccc; stroke-width: 0.8; stroke-linecap: round"/>
     </g>
     <g id="text_9">
      <text style="fill: #262626; font: 20px 'Arial', 'DejaVu Sans', 'Liberation Sans', 'Bitstream Vera Sans', sans-serif; text-anchor: end" x="83" y="399.578164" transform="rotate(-0 83 399.578164)">−120</text>
     </g>
    </g>
    <g id="ytick_3">
     <g id="line2d_9">
      <path d="M 90 340.563298 
L 648 340.563298 
" clip-path="url(#p8213d7ad5d)" style="fill: none; stroke: #cccccc; stroke-width: 0.8; stroke-linecap: round"/>
     </g>
     <g id="text_10">
      <text style="fill: #262626; font: 20px 'Arial', 'DejaVu Sans', 'Liberation Sans', 'Bitstream Vera Sans', sans-serif; text-anchor: end" x="83" y="347.721111" transform="rotate(-0 83 347.721111)">−100</text>
     </g>
    </g>
    <g id="ytick_4">
     <g id="line2d_10">
      <path d="M 90 288.706245 
L 648 288.706245 
" clip-path="url(#p8213d7ad5d)" style="fill: none; stroke: #cccccc; stroke-width: 0.8; stroke-linecap: round"/>
     </g>
     <g id="text_11">
      <text style="fill: #262626; font: 20px 'Arial', 'DejaVu Sans', 'Liberation Sans', 'Bitstream Vera Sans', sans-serif; text-anchor: end" x="83" y="295.864058" transform="rotate(-0 83 295.864058)">−80</text>
     </g>
    </g>
    <g id="ytick_5">
     <g id="line2d_11">
      <path d="M 90 236.849192 
L 648 236.849192 
" clip-path="url(#p8213d7ad5d)" style="fill: none; stroke: #cccccc; stroke-width: 0.8; stroke-linecap: round"/>
     </g>
     <g id="text_12">
      <text style="fill: #262626; font: 20px 'Arial', 'DejaVu Sans', 'Liberation Sans', 'Bitstream Vera Sans', sans-serif; text-anchor: end" x="83" y="244.007005" transform="rotate(-0 83 244.007005)">−60</text>
     </g>
    </g>
    <g id="ytick_6">
     <g id="line2d_12">
      <path d="M 90 184.992139 
L 648 184.992139 
" clip-path="url(#p8213d7ad5d)" style="fill: none; stroke: #cccccc; stroke-width: 0.8; stroke-linecap: round"/>
     </g>
     <g id="text_13">
      <text style="fill: #262626; font: 20px 'Arial', 'DejaVu Sans', 'Liberation Sans', 'Bitstream Vera Sans', sans-serif; text-anchor: end" x="83" y="192.149952" transform="rotate(-0 83 192.149952)">−40</text>
     </g>
    </g>
    <g id="ytick_7">
     <g id="line2d_13">
      <path d="M 90 133.135086 
L 648 133.135086 
" clip-path="url(#p8213d7ad5d)" style="fill: none; stroke: #cccccc; stroke-width: 0.8; stroke-linecap: round"/>
     </g>
     <g id="text_14">
      <text style="fill: #262626; font: 20px 'Arial', 'DejaVu Sans', 'Liberation Sans', 'Bitstream Vera Sans', sans-serif; text-anchor: end" x="83" y="140.292899" transform="rotate(-0 83 140.292899)">−20</text>
     </g>
    </g>
    <g id="ytick_8">
     <g id="line2d_14">
      <path d="M 90 81.278033 
L 648 81.278033 
" clip-path="url(#p8213d7ad5d)" style="fill: none; stroke: #cccccc; stroke-width: 0.8; stroke-linecap: round"/>
     </g>
     <g id="text_15">
      <text style="fill: #262626; font: 20px 'Arial', 'DejaVu Sans', 'Liberation Sans', 'Bitstream Vera Sans', sans-serif; text-anchor: end" x="83" y="88.435846" transform="rotate(-0 83 88.435846)">0</text>
     </g>
    </g>
    <g id="text_16">
     <text style="fill: #262626; font: 20px 'Arial', 'DejaVu Sans', 'Liberation Sans', 'Bitstream Vera Sans', sans-serif; text-anchor: middle" x="29.978125" y="254.52" transform="rotate(-90 29.978125 254.52)">Управление</text>
    </g>
   </g>
   <g id="line2d_15">
    <path d="M 90 81.278033 
L 90.1116 430.92 
L 91.4508 359.123882 
L 92.6784 305.68318 
L 93.8502 263.939156 
L 95.022 229.741188 
L 96.1938 201.804617 
L 97.3656 179.034464 
L 98.5374 160.509896 
L 99.7092 145.46448 
L 100.881 133.265179 
L 102.0528 123.391558 
L 103.2246 115.416065 
L 104.3964 108.986391 
L 105.5682 103.8111 
L 106.74 99.649106 
L 107.9118 96.302246 
L 109.0836 93.60938 
L 110.3112 91.348799 
L 111.5388 89.545308 
L 112.8222 88.047258 
L 114.1614 86.817163 
L 115.6122 85.783824 
L 117.2304 84.912201 
L 119.016 84.206767 
L 121.0806 83.632236 
L 123.5916 83.171382 
L 126.7722 82.82348 
L 131.1804 82.581013 
L 138.267 82.441287 
L 155.4534 82.390655 
L 231.1182 82.22379 
L 267.5556 81.926532 
L 294.9534 81.486149 
L 320.2866 80.854602 
L 354.9942 79.733322 
L 385.9074 78.819064 
L 408.3948 78.383062 
L 431.5518 78.161808 
L 459.0054 78.132189 
L 500.0742 78.337372 
L 571.3308 78.689086 
L 621.9972 78.67528 
L 647.9442 78.617986 
L 647.9442 78.617986 
" clip-path="url(#p8213d7ad5d)" style="fill: none; stroke: #000000; stroke-width: 1.5; stroke-linecap: round"/>
   </g>
   <g id="patch_3">
    <path d="M 90 448.56 
L 90 60.48 
" style="fill: none; stroke: #cccccc; stroke-width: 0.8; stroke-linejoin: miter; stroke-linecap: square"/>
   </g>
   <g id="patch_4">
    <path d="M 648 448.56 
L 648 60.48 
" style="fill: none; stroke: #cccccc; stroke-width: 0.8; stroke-linejoin: miter; stroke-linecap: square"/>
   </g>
   <g id="patch_5">
    <path d="M 90 448.56 
L 648 448.56 
" style="fill: none; stroke: #cccccc; stroke-width: 0.8; stroke-linejoin: miter; stroke-linecap: square"/>
   </g>
   <g id="patch_6">
    <path d="M 90 60.48 
L 648 60.48 
" style="fill: none; stroke: #cccccc; stroke-width: 0.8; stroke-linejoin: miter; stroke-linecap: square"/>
   </g>
   <g id="legend_1">
    <g id="patch_7">
     <path d="M 104 438.56 
L 204.2 438.56 
Q 208.2 438.56 208.2 434.56 
L 208.2 408.269375 
Q 208.2 404.269375 204.2 404.269375 
L 104 404.269375 
Q 100 404.269375 100 408.269375 
L 100 434.56 
Q 100 438.56 104 438.56 
z
" style="fill: #ffffff; opacity: 0.8; stroke: #cccccc; stroke-linejoin: miter"/>
    </g>
    <g id="line2d_16">
     <path d="M 108 419.585 
L 128 419.585 
L 148 419.585 
" style="fill: none; stroke: #000000; stroke-width: 1.5; stroke-linecap: round"/>
    </g>
    <g id="text_17">
     <!-- $u(t)$ -->
     <g style="fill: #262626" transform="translate(164 426.585)">
      <text>
       <tspan style="font: oblique 20px 'DejaVu Sans'" x="0 20.478516" y="-0.828125">ut</tspan>
       <tspan style="font: 20px 'DejaVu Sans'" x="12.675781 28.320312" y="-0.828125">()</tspan>
      </text>
     </g>
    </g>
   </g>
  </g>
 </g>
 <defs>
  <clipPath id="p8213d7ad5d">
   <rect x="90" y="60.48" width="558" height="388.08"/>
  </clipPath>
 </defs>
</svg>
