<?xml version="1.0" encoding="utf-8" standalone="no"?>
<!DOCTYPE svg PUBLIC "-//W3C//DTD SVG 1.1//EN"
  "http://www.w3.org/Graphics/SVG/1.1/DTD/svg11.dtd">
<svg xmlns:xlink="http://www.w3.org/1999/xlink" width="720pt" height="504pt" viewBox="0 0 720 504" xmlns="http://www.w3.org/2000/svg" version="1.1">
 <metadata>
  <rdf:RDF xmlns:dc="http://purl.org/dc/elements/1.1/" xmlns:cc="http://creativecommons.org/ns#" xmlns:rdf="http://www.w3.org/1999/02/22-rdf-syntax-ns#">
   <cc:Work>
    <dc:type rdf:resource="http://purl.org/dc/dcmitype/StillImage"/>
    <dc:date>2024-09-28T16:00:37.732578</dc:date>
    <dc:format>image/svg+xml</dc:format>
    <dc:creator>
     <cc:Agent>
      <dc:title>Matplotlib v3.7.2, https://matplotlib.org/</dc:title>
     </cc:Agent>
    </dc:creator>
   </cc:Work>
  </rdf:RDF>
 </metadata>
 <defs>
  <style type="text/css">*{stroke-linejoin: round; stroke-linecap: butt}</style>
 </defs>
 <g id="figure_1">
  <g id="patch_1">
   <path d="M 0 504 
L 720 504 
L 720 0 
L 0 0 
z
" style="fill: #ffffff"/>
  </g>
  <g id="axes_1">
   <g id="patch_2">
    <path d="M 90 448.56 
L 648 448.56 
L 648 60.48 
L 90 60.48 
z
" style="fill: #ffffff"/>
   </g>
   <g id="matplotlib.axis_1">
    <g id="xtick_1">
     <g id="line2d_1">
      <path d="M 90 448.56 
L 90 60.48 
" clip-path="url(#p92917dc641)" style="fill: none; stroke: #cccccc; stroke-width: 0.8; stroke-linecap: round"/>
     </g>
     <g id="text_1">
      <text style="fill: #262626; font: 20px 'Arial', 'DejaVu Sans', 'Liberation Sans', 'Bitstream Vera Sans', sans-serif; text-anchor: middle" x="90" y="469.875625" transform="rotate(-0 90 469.875625)">0</text>
     </g>
    </g>
    <g id="xtick_2">
     <g id="line2d_2">
      <path d="M 201.6 448.56 
L 201.6 60.48 
" clip-path="url(#p92917dc641)" style="fill: none; stroke: #cccccc; stroke-width: 0.8; stroke-linecap: round"/>
     </g>
     <g id="text_2">
      <text style="fill: #262626; font: 20px 'Arial', 'DejaVu Sans', 'Liberation Sans', 'Bitstream Vera Sans', sans-serif; text-anchor: middle" x="201.6" y="469.875625" transform="rotate(-0 201.6 469.875625)">20</text>
     </g>
    </g>
    <g id="xtick_3">
     <g id="line2d_3">
      <path d="M 313.2 448.56 
L 313.2 60.48 
" clip-path="url(#p92917dc641)" style="fill: none; stroke: #cccccc; stroke-width: 0.8; stroke-linecap: round"/>
     </g>
     <g id="text_3">
      <text style="fill: #262626; font: 20px 'Arial', 'DejaVu Sans', 'Liberation Sans', 'Bitstream Vera Sans', sans-serif; text-anchor: middle" x="313.2" y="469.875625" transform="rotate(-0 313.2 469.875625)">40</text>
     </g>
    </g>
    <g id="xtick_4">
     <g id="line2d_4">
      <path d="M 424.8 448.56 
L 424.8 60.48 
" clip-path="url(#p92917dc641)" style="fill: none; stroke: #cccccc; stroke-width: 0.8; stroke-linecap: round"/>
     </g>
     <g id="text_4">
      <text style="fill: #262626; font: 20px 'Arial', 'DejaVu Sans', 'Liberation Sans', 'Bitstream Vera Sans', sans-serif; text-anchor: middle" x="424.8" y="469.875625" transform="rotate(-0 424.8 469.875625)">60</text>
     </g>
    </g>
    <g id="xtick_5">
     <g id="line2d_5">
      <path d="M 536.4 448.56 
L 536.4 60.48 
" clip-path="url(#p92917dc641)" style="fill: none; stroke: #cccccc; stroke-width: 0.8; stroke-linecap: round"/>
     </g>
     <g id="text_5">
      <text style="fill: #262626; font: 20px 'Arial', 'DejaVu Sans', 'Liberation Sans', 'Bitstream Vera Sans', sans-serif; text-anchor: middle" x="536.4" y="469.875625" transform="rotate(-0 536.4 469.875625)">80</text>
     </g>
    </g>
    <g id="xtick_6">
     <g id="line2d_6">
      <path d="M 648 448.56 
L 648 60.48 
" clip-path="url(#p92917dc641)" style="fill: none; stroke: #cccccc; stroke-width: 0.8; stroke-linecap: round"/>
     </g>
     <g id="text_6">
      <text style="fill: #262626; font: 20px 'Arial', 'DejaVu Sans', 'Liberation Sans', 'Bitstream Vera Sans', sans-serif; text-anchor: middle" x="648" y="469.875625" transform="rotate(-0 648 469.875625)">100</text>
     </g>
    </g>
    <g id="text_7">
     <text style="fill: #262626; font: 20px 'Arial', 'DejaVu Sans', 'Liberation Sans', 'Bitstream Vera Sans', sans-serif; text-anchor: middle" x="369" y="492.16625" transform="rotate(-0 369 492.16625)">Время, дни</text>
    </g>
   </g>
   <g id="matplotlib.axis_2">
    <g id="ytick_1">
     <g id="line2d_7">
      <path d="M 90 430.894591 
L 648 430.894591 
" clip-path="url(#p92917dc641)" style="fill: none; stroke: #cccccc; stroke-width: 0.8; stroke-linecap: round"/>
     </g>
     <g id="text_8">
      <text style="fill: #262626; font: 20px 'Arial', 'DejaVu Sans', 'Liberation Sans', 'Bitstream Vera Sans', sans-serif; text-anchor: end" x="83" y="438.052403" transform="rotate(-0 83 438.052403)">0</text>
     </g>
    </g>
    <g id="ytick_2">
     <g id="line2d_8">
      <path d="M 90 347.973865 
L 648 347.973865 
" clip-path="url(#p92917dc641)" style="fill: none; stroke: #cccccc; stroke-width: 0.8; stroke-linecap: round"/>
     </g>
     <g id="text_9">
      <text style="fill: #262626; font: 20px 'Arial', 'DejaVu Sans', 'Liberation Sans', 'Bitstream Vera Sans', sans-serif; text-anchor: end" x="83" y="355.131678" transform="rotate(-0 83 355.131678)">20000</text>
     </g>
    </g>
    <g id="ytick_3">
     <g id="line2d_9">
      <path d="M 90 265.05314 
L 648 265.05314 
" clip-path="url(#p92917dc641)" style="fill: none; stroke: #cccccc; stroke-width: 0.8; stroke-linecap: round"/>
     </g>
     <g id="text_10">
      <text style="fill: #262626; font: 20px 'Arial', 'DejaVu Sans', 'Liberation Sans', 'Bitstream Vera Sans', sans-serif; text-anchor: end" x="83" y="272.210952" transform="rotate(-0 83 272.210952)">40000</text>
     </g>
    </g>
    <g id="ytick_4">
     <g id="line2d_10">
      <path d="M 90 182.132414 
L 648 182.132414 
" clip-path="url(#p92917dc641)" style="fill: none; stroke: #cccccc; stroke-width: 0.8; stroke-linecap: round"/>
     </g>
     <g id="text_11">
      <text style="fill: #262626; font: 20px 'Arial', 'DejaVu Sans', 'Liberation Sans', 'Bitstream Vera Sans', sans-serif; text-anchor: end" x="83" y="189.290227" transform="rotate(-0 83 189.290227)">60000</text>
     </g>
    </g>
    <g id="ytick_5">
     <g id="line2d_11">
      <path d="M 90 99.211688 
L 648 99.211688 
" clip-path="url(#p92917dc641)" style="fill: none; stroke: #cccccc; stroke-width: 0.8; stroke-linecap: round"/>
     </g>
     <g id="text_12">
      <text style="fill: #262626; font: 20px 'Arial', 'DejaVu Sans', 'Liberation Sans', 'Bitstream Vera Sans', sans-serif; text-anchor: end" x="83" y="106.369501" transform="rotate(-0 83 106.369501)">80000</text>
     </g>
    </g>
    <g id="text_13">
     <text style="fill: #262626; font: 20px 'Arial', 'DejaVu Sans', 'Liberation Sans', 'Bitstream Vera Sans', sans-serif; text-anchor: middle" x="19.415625" y="254.52" transform="rotate(-90 19.415625 254.52)">Управление</text>
    </g>
   </g>
   <g id="line2d_12">
    <path d="M 90 430.894591 
L 90.279 430.918785 
L 112.2642 430.879214 
L 145.521 430.764828 
L 152.3844 430.517168 
L 156.7926 430.147366 
L 160.0848 429.659659 
L 162.7632 429.048418 
L 165.051 428.30652 
L 167.0598 427.430037 
L 168.9012 426.388582 
L 170.631 425.1518 
L 172.2492 423.719278 
L 173.8116 422.034973 
L 175.3182 420.082619 
L 176.8248 417.757941 
L 178.3314 415.008253 
L 179.838 411.778847 
L 181.3446 408.014562 
L 182.907 403.488574 
L 184.4694 398.274327 
L 186.0876 392.097489 
L 187.8174 384.576188 
L 189.603 375.787821 
L 191.5002 365.308679 
L 193.5648 352.616086 
L 195.8526 337.118265 
L 198.531 317.379723 
L 202.1022 289.257682 
L 210.1932 225.021681 
L 213.2064 203.215661 
L 215.829 185.828161 
L 218.2284 171.37297 
L 220.5162 158.933561 
L 222.6924 148.313351 
L 224.8128 139.066746 
L 226.8774 131.054995 
L 228.8862 124.137824 
L 230.8392 118.18046 
L 232.7922 112.916457 
L 234.7452 108.282541 
L 236.6982 104.21686 
L 238.6512 100.660267 
L 240.6042 97.557171 
L 242.613 94.784304 
L 244.6218 92.385436 
L 246.6864 90.260884 
L 248.8068 88.391761 
L 251.0388 86.719633 
L 253.3824 85.242438 
L 255.8934 83.926988 
L 258.5718 82.777634 
L 261.4734 81.774773 
L 264.7098 80.894921 
L 268.3368 80.143011 
L 272.5218 79.507983 
L 277.488 78.988122 
L 283.5702 78.586014 
L 291.3822 78.30438 
L 302.3748 78.147415 
L 320.9562 78.134912 
L 443.3256 78.373643 
L 647.9442 78.380005 
L 647.9442 78.380005 
" clip-path="url(#p92917dc641)" style="fill: none; stroke: #000000; stroke-width: 1.5; stroke-linecap: round"/>
   </g>
   <g id="patch_3">
    <path d="M 90 448.56 
L 90 60.48 
" style="fill: none; stroke: #cccccc; stroke-width: 0.8; stroke-linejoin: miter; stroke-linecap: square"/>
   </g>
   <g id="patch_4">
    <path d="M 648 448.56 
L 648 60.48 
" style="fill: none; stroke: #cccccc; stroke-width: 0.8; stroke-linejoin: miter; stroke-linecap: square"/>
   </g>
   <g id="patch_5">
    <path d="M 90 448.56 
L 648 448.56 
" style="fill: none; stroke: #cccccc; stroke-width: 0.8; stroke-linejoin: miter; stroke-linecap: square"/>
   </g>
   <g id="patch_6">
    <path d="M 90 60.48 
L 648 60.48 
" style="fill: none; stroke: #cccccc; stroke-width: 0.8; stroke-linejoin: miter; stroke-linecap: square"/>
   </g>
   <g id="legend_1">
    <g id="patch_7">
     <path d="M 104 104.770625 
L 204.2 104.770625 
Q 208.2 104.770625 208.2 100.770625 
L 208.2 74.48 
Q 208.2 70.48 204.2 70.48 
L 104 70.48 
Q 100 70.48 100 74.48 
L 100 100.770625 
Q 100 104.770625 104 104.770625 
z
" style="fill: #ffffff; opacity: 0.8; stroke: #cccccc; stroke-linejoin: miter"/>
    </g>
    <g id="line2d_13">
     <path d="M 108 85.795625 
L 128 85.795625 
L 148 85.795625 
" style="fill: none; stroke: #000000; stroke-width: 1.5; stroke-linecap: round"/>
    </g>
    <g id="text_14">
     <!-- $u(t)$ -->
     <g style="fill: #262626" transform="translate(164 92.795625)">
      <text>
       <tspan style="font: oblique 20px 'DejaVu Sans'" x="0 20.478516" y="-0.828125">ut</tspan>
       <tspan style="font: 20px 'DejaVu Sans'" x="12.675781 28.320312" y="-0.828125">()</tspan>
      </text>
     </g>
    </g>
   </g>
  </g>
 </g>
 <defs>
  <clipPath id="p92917dc641">
   <rect x="90" y="60.48" width="558" height="388.08"/>
  </clipPath>
 </defs>
</svg>
