<?xml version="1.0" encoding="utf-8" standalone="no"?>
<!DOCTYPE svg PUBLIC "-//W3C//DTD SVG 1.1//EN"
  "http://www.w3.org/Graphics/SVG/1.1/DTD/svg11.dtd">
<svg xmlns:xlink="http://www.w3.org/1999/xlink" width="720pt" height="504pt" viewBox="0 0 720 504" xmlns="http://www.w3.org/2000/svg" version="1.1">
 <metadata>
  <rdf:RDF xmlns:dc="http://purl.org/dc/elements/1.1/" xmlns:cc="http://creativecommons.org/ns#" xmlns:rdf="http://www.w3.org/1999/02/22-rdf-syntax-ns#">
   <cc:Work>
    <dc:type rdf:resource="http://purl.org/dc/dcmitype/StillImage"/>
    <dc:date>2024-09-28T16:01:10.123465</dc:date>
    <dc:format>image/svg+xml</dc:format>
    <dc:creator>
     <cc:Agent>
      <dc:title>Matplotlib v3.7.2, https://matplotlib.org/</dc:title>
     </cc:Agent>
    </dc:creator>
   </cc:Work>
  </rdf:RDF>
 </metadata>
 <defs>
  <style type="text/css">*{stroke-linejoin: round; stroke-linecap: butt}</style>
 </defs>
 <g id="figure_1">
  <g id="patch_1">
   <path d="M 0 504 
L 720 504 
L 720 0 
L 0 0 
z
" style="fill: #ffffff"/>
  </g>
  <g id="axes_1">
   <g id="patch_2">
    <path d="M 90 448.56 
L 648 448.56 
L 648 60.48 
L 90 60.48 
z
" style="fill: #ffffff"/>
   </g>
   <g id="matplotlib.axis_1">
    <g id="xtick_1">
     <g id="line2d_1">
      <path d="M 90 448.56 
L 90 60.48 
" clip-path="url(#p2593e5ee6e)" style="fill: none; stroke: #cccccc; stroke-width: 0.8; stroke-linecap: round"/>
     </g>
     <g id="text_1">
      <text style="fill: #262626; font: 20px 'Arial', 'DejaVu Sans', 'Liberation Sans', 'Bitstream Vera Sans', sans-serif; text-anchor: middle" x="90" y="469.875625" transform="rotate(-0 90 469.875625)">0</text>
     </g>
    </g>
    <g id="xtick_2">
     <g id="line2d_2">
      <path d="M 201.6 448.56 
L 201.6 60.48 
" clip-path="url(#p2593e5ee6e)" style="fill: none; stroke: #cccccc; stroke-width: 0.8; stroke-linecap: round"/>
     </g>
     <g id="text_2">
      <text style="fill: #262626; font: 20px 'Arial', 'DejaVu Sans', 'Liberation Sans', 'Bitstream Vera Sans', sans-serif; text-anchor: middle" x="201.6" y="469.875625" transform="rotate(-0 201.6 469.875625)">20</text>
     </g>
    </g>
    <g id="xtick_3">
     <g id="line2d_3">
      <path d="M 313.2 448.56 
L 313.2 60.48 
" clip-path="url(#p2593e5ee6e)" style="fill: none; stroke: #cccccc; stroke-width: 0.8; stroke-linecap: round"/>
     </g>
     <g id="text_3">
      <text style="fill: #262626; font: 20px 'Arial', 'DejaVu Sans', 'Liberation Sans', 'Bitstream Vera Sans', sans-serif; text-anchor: middle" x="313.2" y="469.875625" transform="rotate(-0 313.2 469.875625)">40</text>
     </g>
    </g>
    <g id="xtick_4">
     <g id="line2d_4">
      <path d="M 424.8 448.56 
L 424.8 60.48 
" clip-path="url(#p2593e5ee6e)" style="fill: none; stroke: #cccccc; stroke-width: 0.8; stroke-linecap: round"/>
     </g>
     <g id="text_4">
      <text style="fill: #262626; font: 20px 'Arial', 'DejaVu Sans', 'Liberation Sans', 'Bitstream Vera Sans', sans-serif; text-anchor: middle" x="424.8" y="469.875625" transform="rotate(-0 424.8 469.875625)">60</text>
     </g>
    </g>
    <g id="xtick_5">
     <g id="line2d_5">
      <path d="M 536.4 448.56 
L 536.4 60.48 
" clip-path="url(#p2593e5ee6e)" style="fill: none; stroke: #cccccc; stroke-width: 0.8; stroke-linecap: round"/>
     </g>
     <g id="text_5">
      <text style="fill: #262626; font: 20px 'Arial', 'DejaVu Sans', 'Liberation Sans', 'Bitstream Vera Sans', sans-serif; text-anchor: middle" x="536.4" y="469.875625" transform="rotate(-0 536.4 469.875625)">80</text>
     </g>
    </g>
    <g id="xtick_6">
     <g id="line2d_6">
      <path d="M 648 448.56 
L 648 60.48 
" clip-path="url(#p2593e5ee6e)" style="fill: none; stroke: #cccccc; stroke-width: 0.8; stroke-linecap: round"/>
     </g>
     <g id="text_6">
      <text style="fill: #262626; font: 20px 'Arial', 'DejaVu Sans', 'Liberation Sans', 'Bitstream Vera Sans', sans-serif; text-anchor: middle" x="648" y="469.875625" transform="rotate(-0 648 469.875625)">100</text>
     </g>
    </g>
    <g id="text_7">
     <text style="fill: #262626; font: 20px 'Arial', 'DejaVu Sans', 'Liberation Sans', 'Bitstream Vera Sans', sans-serif; text-anchor: middle" x="369" y="492.16625" transform="rotate(-0 369 492.16625)">Время, дни</text>
    </g>
   </g>
   <g id="matplotlib.axis_2">
    <g id="ytick_1">
     <g id="line2d_7">
      <path d="M 90 448.56 
L 648 448.56 
" clip-path="url(#p2593e5ee6e)" style="fill: none; stroke: #cccccc; stroke-width: 0.8; stroke-linecap: round"/>
     </g>
     <g id="text_8">
      <text style="fill: #262626; font: 20px 'Arial', 'DejaVu Sans', 'Liberation Sans', 'Bitstream Vera Sans', sans-serif; text-anchor: end" x="83" y="455.717813" transform="rotate(-0 83 455.717813)">0</text>
     </g>
    </g>
    <g id="ytick_2">
     <g id="line2d_8">
      <path d="M 90 375.425416 
L 648 375.425416 
" clip-path="url(#p2593e5ee6e)" style="fill: none; stroke: #cccccc; stroke-width: 0.8; stroke-linecap: round"/>
     </g>
     <g id="text_9">
      <text style="fill: #262626; font: 20px 'Arial', 'DejaVu Sans', 'Liberation Sans', 'Bitstream Vera Sans', sans-serif; text-anchor: end" x="83" y="382.583229" transform="rotate(-0 83 382.583229)">100</text>
     </g>
    </g>
    <g id="ytick_3">
     <g id="line2d_9">
      <path d="M 90 302.290833 
L 648 302.290833 
" clip-path="url(#p2593e5ee6e)" style="fill: none; stroke: #cccccc; stroke-width: 0.8; stroke-linecap: round"/>
     </g>
     <g id="text_10">
      <text style="fill: #262626; font: 20px 'Arial', 'DejaVu Sans', 'Liberation Sans', 'Bitstream Vera Sans', sans-serif; text-anchor: end" x="83" y="309.448645" transform="rotate(-0 83 309.448645)">200</text>
     </g>
    </g>
    <g id="ytick_4">
     <g id="line2d_10">
      <path d="M 90 229.156249 
L 648 229.156249 
" clip-path="url(#p2593e5ee6e)" style="fill: none; stroke: #cccccc; stroke-width: 0.8; stroke-linecap: round"/>
     </g>
     <g id="text_11">
      <text style="fill: #262626; font: 20px 'Arial', 'DejaVu Sans', 'Liberation Sans', 'Bitstream Vera Sans', sans-serif; text-anchor: end" x="83" y="236.314061" transform="rotate(-0 83 236.314061)">300</text>
     </g>
    </g>
    <g id="ytick_5">
     <g id="line2d_11">
      <path d="M 90 156.021665 
L 648 156.021665 
" clip-path="url(#p2593e5ee6e)" style="fill: none; stroke: #cccccc; stroke-width: 0.8; stroke-linecap: round"/>
     </g>
     <g id="text_12">
      <text style="fill: #262626; font: 20px 'Arial', 'DejaVu Sans', 'Liberation Sans', 'Bitstream Vera Sans', sans-serif; text-anchor: end" x="83" y="163.179478" transform="rotate(-0 83 163.179478)">400</text>
     </g>
    </g>
    <g id="ytick_6">
     <g id="line2d_12">
      <path d="M 90 82.887081 
L 648 82.887081 
" clip-path="url(#p2593e5ee6e)" style="fill: none; stroke: #cccccc; stroke-width: 0.8; stroke-linecap: round"/>
     </g>
     <g id="text_13">
      <text style="fill: #262626; font: 20px 'Arial', 'DejaVu Sans', 'Liberation Sans', 'Bitstream Vera Sans', sans-serif; text-anchor: end" x="83" y="90.044894" transform="rotate(-0 83 90.044894)">500</text>
     </g>
    </g>
    <g id="text_14">
     <text style="fill: #262626; font: 20px 'Arial', 'DejaVu Sans', 'Liberation Sans', 'Bitstream Vera Sans', sans-serif; text-anchor: middle" x="41.425" y="254.52" transform="rotate(-90 41.425 254.52)">Популяция, ед/л</text>
    </g>
   </g>
   <g id="line2d_13">
    <path d="M 90 447.828654 
L 90.1116 447.906384 
L 91.395 449.562249 
L 92.7342 450.922001 
L 94.1292 452.025101 
L 95.6358 452.938688 
L 97.3098 453.697158 
L 99.2628 454.331313 
L 101.5506 454.833141 
L 104.3964 455.218992 
L 108.135 455.486259 
L 113.436 455.624244 
L 121.4712 455.59348 
L 130.8456 455.342481 
L 138.267 454.933834 
L 144.0702 454.40001 
L 148.869 453.740095 
L 152.9424 452.960991 
L 156.5694 452.042972 
L 159.8058 450.998462 
L 162.819 449.793374 
L 165.609 448.441738 
L 168.2874 446.899388 
L 170.91 445.129271 
L 173.4768 443.125189 
L 176.0436 440.83592 
L 178.6662 438.194143 
L 181.4004 435.118522 
L 184.3578 431.448357 
L 187.7616 426.853617 
L 192.4488 420.111186 
L 199.7586 409.603156 
L 203.2182 405.040755 
L 206.2314 401.426768 
L 209.0214 398.424146 
L 211.6998 395.867907 
L 214.3224 393.672726 
L 216.945 391.768843 
L 219.5676 390.135367 
L 222.3018 388.692784 
L 225.1476 387.440587 
L 228.2166 386.335386 
L 231.5088 385.386823 
L 235.1916 384.561668 
L 239.3208 383.868316 
L 244.1196 383.292379 
L 249.9228 382.82757 
L 257.2884 382.472218 
L 267.3882 382.223771 
L 283.4028 382.077781 
L 319.9518 382.023967 
L 647.9442 382.020914 
L 647.9442 382.020914 
" clip-path="url(#p2593e5ee6e)" style="fill: none; stroke: #008000; stroke-width: 1.5; stroke-linecap: round"/>
   </g>
   <g id="line2d_14">
    <path d="M 90 448.413731 
L 104.8986 448.187423 
L 113.9382 447.840135 
L 120.5226 447.374127 
L 125.712 446.791603 
L 130.0086 446.092324 
L 133.6914 445.273648 
L 136.9278 444.331813 
L 139.8294 443.260789 
L 142.5078 442.035214 
L 144.963 440.668287 
L 147.2508 439.14367 
L 149.427 437.428585 
L 151.4916 435.523458 
L 153.5004 433.370177 
L 155.4534 430.952736 
L 157.4064 428.172432 
L 159.3036 425.079559 
L 161.2008 421.553552 
L 163.098 417.545274 
L 164.9952 413.003586 
L 166.8924 407.876461 
L 168.8454 401.932813 
L 170.7984 395.261121 
L 172.8072 387.589272 
L 174.8718 378.805492 
L 176.9922 368.80536 
L 179.2242 357.198069 
L 181.6236 343.512696 
L 184.2462 327.222669 
L 187.2594 307.037899 
L 191.1654 279.227518 
L 200.205 214.319393 
L 203.274 194.215827 
L 205.9524 178.095032 
L 208.4076 164.641896 
L 210.6954 153.306403 
L 212.8716 143.606057 
L 214.992 135.146385 
L 217.0566 127.808993 
L 219.0654 121.471167 
L 221.0742 115.866561 
L 223.0272 111.062901 
L 224.9802 106.837784 
L 226.9332 103.134782 
L 228.8862 99.899523 
L 230.8392 97.080649 
L 232.848 94.565389 
L 234.9126 92.336672 
L 237.033 90.375258 
L 239.2092 88.6605 
L 241.497 87.136928 
L 243.9522 85.771551 
L 246.5748 84.57082 
L 249.4206 83.515499 
L 252.5454 82.596089 
L 256.0608 81.797348 
L 260.0784 81.117236 
L 264.8214 80.547492 
L 270.5688 80.089911 
L 277.9344 79.738945 
L 288.09 79.494255 
L 304.3278 79.35124 
L 342.1044 79.299638 
L 647.9442 79.297215 
L 647.9442 79.297215 
" clip-path="url(#p2593e5ee6e)" style="fill: none; stroke: #0000ff; stroke-width: 1.5; stroke-linecap: round"/>
   </g>
   <g id="line2d_15">
    <path d="M 90 441.246542 
L 96.6402 443.832327 
L 100.2114 444.955542 
L 103.7826 445.846027 
L 107.6886 446.586093 
L 112.0968 447.190004 
L 117.342 447.677774 
L 123.9264 448.056393 
L 132.7428 448.326166 
L 145.9116 448.485977 
L 173.7558 448.548354 
L 381.7782 448.54296 
L 647.9442 448.472254 
L 647.9442 448.472254 
" clip-path="url(#p2593e5ee6e)" style="fill: none; stroke: #ff0000; stroke-width: 1.5; stroke-linecap: round"/>
   </g>
   <g id="patch_3">
    <path d="M 90 448.56 
L 90 60.48 
" style="fill: none; stroke: #cccccc; stroke-width: 0.8; stroke-linejoin: miter; stroke-linecap: square"/>
   </g>
   <g id="patch_4">
    <path d="M 648 448.56 
L 648 60.48 
" style="fill: none; stroke: #cccccc; stroke-width: 0.8; stroke-linejoin: miter; stroke-linecap: square"/>
   </g>
   <g id="patch_5">
    <path d="M 90 448.56 
L 648 448.56 
" style="fill: none; stroke: #cccccc; stroke-width: 0.8; stroke-linejoin: miter; stroke-linecap: square"/>
   </g>
   <g id="patch_6">
    <path d="M 90 60.48 
L 648 60.48 
" style="fill: none; stroke: #cccccc; stroke-width: 0.8; stroke-linejoin: miter; stroke-linecap: square"/>
   </g>
   <g id="legend_1">
    <g id="patch_7">
     <path d="M 104 161.351875 
L 189.6 161.351875 
Q 193.6 161.351875 193.6 157.351875 
L 193.6 74.48 
Q 193.6 70.48 189.6 70.48 
L 104 70.48 
Q 100 70.48 100 74.48 
L 100 157.351875 
Q 100 161.351875 104 161.351875 
z
" style="fill: #ffffff; opacity: 0.8; stroke: #cccccc; stroke-linejoin: miter"/>
    </g>
    <g id="line2d_16">
     <path d="M 108 85.795625 
L 128 85.795625 
L 148 85.795625 
" style="fill: none; stroke: #008000; stroke-width: 1.5; stroke-linecap: round"/>
    </g>
    <g id="text_15">
     <!-- $P_{1}$ -->
     <g style="fill: #262626" transform="translate(164 92.795625)">
      <text>
       <tspan style="font: oblique 20px 'DejaVu Sans'" x="0" y="-0.421875">P</tspan>
       <tspan style="font: 14px 'DejaVu Sans'" x="12.060547" y="2.859375">1</tspan>
      </text>
     </g>
    </g>
    <g id="line2d_17">
     <path d="M 108 114.08625 
L 128 114.08625 
L 148 114.08625 
" style="fill: none; stroke: #0000ff; stroke-width: 1.5; stroke-linecap: round"/>
    </g>
    <g id="text_16">
     <!-- $P_{2}$ -->
     <g style="fill: #262626" transform="translate(164 121.08625)">
      <text>
       <tspan style="font: oblique 20px 'DejaVu Sans'" x="0" y="-0.421875">P</tspan>
       <tspan style="font: 14px 'DejaVu Sans'" x="12.060547" y="2.859375">2</tspan>
      </text>
     </g>
    </g>
    <g id="line2d_18">
     <path d="M 108 142.376875 
L 128 142.376875 
L 148 142.376875 
" style="fill: none; stroke: #ff0000; stroke-width: 1.5; stroke-linecap: round"/>
    </g>
    <g id="text_17">
     <!-- $Z$ -->
     <g style="fill: #262626" transform="translate(164 149.376875)">
      <text>
       <tspan style="font: oblique 20px 'DejaVu Sans'" x="0" y="-0.421875">Z</tspan>
      </text>
     </g>
    </g>
   </g>
  </g>
 </g>
 <defs>
  <clipPath id="p2593e5ee6e">
   <rect x="90" y="60.48" width="558" height="388.08"/>
  </clipPath>
 </defs>
</svg>
