<?xml version="1.0" encoding="utf-8" standalone="no"?>
<!DOCTYPE svg PUBLIC "-//W3C//DTD SVG 1.1//EN"
  "http://www.w3.org/Graphics/SVG/1.1/DTD/svg11.dtd">
<svg xmlns:xlink="http://www.w3.org/1999/xlink" width="720pt" height="504pt" viewBox="0 0 720 504" xmlns="http://www.w3.org/2000/svg" version="1.1">
 <metadata>
  <rdf:RDF xmlns:dc="http://purl.org/dc/elements/1.1/" xmlns:cc="http://creativecommons.org/ns#" xmlns:rdf="http://www.w3.org/1999/02/22-rdf-syntax-ns#">
   <cc:Work>
    <dc:type rdf:resource="http://purl.org/dc/dcmitype/StillImage"/>
    <dc:date>2024-09-28T16:16:54.345602</dc:date>
    <dc:format>image/svg+xml</dc:format>
    <dc:creator>
     <cc:Agent>
      <dc:title>Matplotlib v3.7.2, https://matplotlib.org/</dc:title>
     </cc:Agent>
    </dc:creator>
   </cc:Work>
  </rdf:RDF>
 </metadata>
 <defs>
  <style type="text/css">*{stroke-linejoin: round; stroke-linecap: butt}</style>
 </defs>
 <g id="figure_1">
  <g id="patch_1">
   <path d="M 0 504 
L 720 504 
L 720 0 
L 0 0 
z
" style="fill: #ffffff"/>
  </g>
  <g id="axes_1">
   <g id="patch_2">
    <path d="M 90 448.56 
L 648 448.56 
L 648 60.48 
L 90 60.48 
z
" style="fill: #ffffff"/>
   </g>
   <g id="matplotlib.axis_1">
    <g id="xtick_1">
     <g id="line2d_1">
      <path d="M 90 448.56 
L 90 60.48 
" clip-path="url(#p8b8ad01e66)" style="fill: none; stroke: #cccccc; stroke-width: 0.8; stroke-linecap: round"/>
     </g>
     <g id="text_1">
      <text style="fill: #262626; font: 20px 'Arial', 'DejaVu Sans', 'Liberation Sans', 'Bitstream Vera Sans', sans-serif; text-anchor: middle" x="90" y="469.875625" transform="rotate(-0 90 469.875625)">0</text>
     </g>
    </g>
    <g id="xtick_2">
     <g id="line2d_2">
      <path d="M 201.6 448.56 
L 201.6 60.48 
" clip-path="url(#p8b8ad01e66)" style="fill: none; stroke: #cccccc; stroke-width: 0.8; stroke-linecap: round"/>
     </g>
     <g id="text_2">
      <text style="fill: #262626; font: 20px 'Arial', 'DejaVu Sans', 'Liberation Sans', 'Bitstream Vera Sans', sans-serif; text-anchor: middle" x="201.6" y="469.875625" transform="rotate(-0 201.6 469.875625)">20</text>
     </g>
    </g>
    <g id="xtick_3">
     <g id="line2d_3">
      <path d="M 313.2 448.56 
L 313.2 60.48 
" clip-path="url(#p8b8ad01e66)" style="fill: none; stroke: #cccccc; stroke-width: 0.8; stroke-linecap: round"/>
     </g>
     <g id="text_3">
      <text style="fill: #262626; font: 20px 'Arial', 'DejaVu Sans', 'Liberation Sans', 'Bitstream Vera Sans', sans-serif; text-anchor: middle" x="313.2" y="469.875625" transform="rotate(-0 313.2 469.875625)">40</text>
     </g>
    </g>
    <g id="xtick_4">
     <g id="line2d_4">
      <path d="M 424.8 448.56 
L 424.8 60.48 
" clip-path="url(#p8b8ad01e66)" style="fill: none; stroke: #cccccc; stroke-width: 0.8; stroke-linecap: round"/>
     </g>
     <g id="text_4">
      <text style="fill: #262626; font: 20px 'Arial', 'DejaVu Sans', 'Liberation Sans', 'Bitstream Vera Sans', sans-serif; text-anchor: middle" x="424.8" y="469.875625" transform="rotate(-0 424.8 469.875625)">60</text>
     </g>
    </g>
    <g id="xtick_5">
     <g id="line2d_5">
      <path d="M 536.4 448.56 
L 536.4 60.48 
" clip-path="url(#p8b8ad01e66)" style="fill: none; stroke: #cccccc; stroke-width: 0.8; stroke-linecap: round"/>
     </g>
     <g id="text_5">
      <text style="fill: #262626; font: 20px 'Arial', 'DejaVu Sans', 'Liberation Sans', 'Bitstream Vera Sans', sans-serif; text-anchor: middle" x="536.4" y="469.875625" transform="rotate(-0 536.4 469.875625)">80</text>
     </g>
    </g>
    <g id="xtick_6">
     <g id="line2d_6">
      <path d="M 648 448.56 
L 648 60.48 
" clip-path="url(#p8b8ad01e66)" style="fill: none; stroke: #cccccc; stroke-width: 0.8; stroke-linecap: round"/>
     </g>
     <g id="text_6">
      <text style="fill: #262626; font: 20px 'Arial', 'DejaVu Sans', 'Liberation Sans', 'Bitstream Vera Sans', sans-serif; text-anchor: middle" x="648" y="469.875625" transform="rotate(-0 648 469.875625)">100</text>
     </g>
    </g>
    <g id="text_7">
     <text style="fill: #262626; font: 20px 'Arial', 'DejaVu Sans', 'Liberation Sans', 'Bitstream Vera Sans', sans-serif; text-anchor: middle" x="369" y="492.16625" transform="rotate(-0 369 492.16625)">Время, дни</text>
    </g>
   </g>
   <g id="matplotlib.axis_2">
    <g id="ytick_1">
     <g id="line2d_7">
      <path d="M 90 402.501773 
L 648 402.501773 
" clip-path="url(#p8b8ad01e66)" style="fill: none; stroke: #cccccc; stroke-width: 0.8; stroke-linecap: round"/>
     </g>
     <g id="text_8">
      <text style="fill: #262626; font: 20px 'Arial', 'DejaVu Sans', 'Liberation Sans', 'Bitstream Vera Sans', sans-serif; text-anchor: end" x="83" y="409.659585" transform="rotate(-0 83 409.659585)">−1.0</text>
     </g>
    </g>
    <g id="ytick_2">
     <g id="line2d_8">
      <path d="M 90 341.609387 
L 648 341.609387 
" clip-path="url(#p8b8ad01e66)" style="fill: none; stroke: #cccccc; stroke-width: 0.8; stroke-linecap: round"/>
     </g>
     <g id="text_9">
      <text style="fill: #262626; font: 20px 'Arial', 'DejaVu Sans', 'Liberation Sans', 'Bitstream Vera Sans', sans-serif; text-anchor: end" x="83" y="348.7672" transform="rotate(-0 83 348.7672)">−0.5</text>
     </g>
    </g>
    <g id="ytick_3">
     <g id="line2d_9">
      <path d="M 90 280.717001 
L 648 280.717001 
" clip-path="url(#p8b8ad01e66)" style="fill: none; stroke: #cccccc; stroke-width: 0.8; stroke-linecap: round"/>
     </g>
     <g id="text_10">
      <text style="fill: #262626; font: 20px 'Arial', 'DejaVu Sans', 'Liberation Sans', 'Bitstream Vera Sans', sans-serif; text-anchor: end" x="83" y="287.874814" transform="rotate(-0 83 287.874814)">0.0</text>
     </g>
    </g>
    <g id="ytick_4">
     <g id="line2d_10">
      <path d="M 90 219.824615 
L 648 219.824615 
" clip-path="url(#p8b8ad01e66)" style="fill: none; stroke: #cccccc; stroke-width: 0.8; stroke-linecap: round"/>
     </g>
     <g id="text_11">
      <text style="fill: #262626; font: 20px 'Arial', 'DejaVu Sans', 'Liberation Sans', 'Bitstream Vera Sans', sans-serif; text-anchor: end" x="83" y="226.982428" transform="rotate(-0 83 226.982428)">0.5</text>
     </g>
    </g>
    <g id="ytick_5">
     <g id="line2d_11">
      <path d="M 90 158.93223 
L 648 158.93223 
" clip-path="url(#p8b8ad01e66)" style="fill: none; stroke: #cccccc; stroke-width: 0.8; stroke-linecap: round"/>
     </g>
     <g id="text_12">
      <text style="fill: #262626; font: 20px 'Arial', 'DejaVu Sans', 'Liberation Sans', 'Bitstream Vera Sans', sans-serif; text-anchor: end" x="83" y="166.090042" transform="rotate(-0 83 166.090042)">1.0</text>
     </g>
    </g>
    <g id="ytick_6">
     <g id="line2d_12">
      <path d="M 90 98.039844 
L 648 98.039844 
" clip-path="url(#p8b8ad01e66)" style="fill: none; stroke: #cccccc; stroke-width: 0.8; stroke-linecap: round"/>
     </g>
     <g id="text_13">
      <text style="fill: #262626; font: 20px 'Arial', 'DejaVu Sans', 'Liberation Sans', 'Bitstream Vera Sans', sans-serif; text-anchor: end" x="83" y="105.197656" transform="rotate(-0 83 105.197656)">1.5</text>
     </g>
    </g>
    <g id="text_14">
     <text style="fill: #262626; font: 20px 'Arial', 'DejaVu Sans', 'Liberation Sans', 'Bitstream Vera Sans', sans-serif; text-anchor: middle" x="35.54375" y="254.52" transform="rotate(-90 35.54375 254.52)">Управление</text>
    </g>
   </g>
   <g id="line2d_13">
    <path d="M 90 280.717001 
L 90.1116 430.92 
L 91.116 424.737503 
L 92.1762 419.572562 
L 93.2922 415.199459 
L 94.5198 411.257279 
L 95.9706 407.354023 
L 97.9794 402.643785 
L 101.6064 394.203923 
L 103.5594 388.996375 
L 105.4008 383.451636 
L 107.2422 377.18619 
L 109.0278 370.292369 
L 110.8134 362.492773 
L 112.8222 352.678289 
L 115.7796 336.95309 
L 119.016 320.060937 
L 120.9132 311.308098 
L 122.5314 304.830046 
L 124.038 299.685896 
L 125.433 295.673885 
L 126.7722 292.455588 
L 128.1114 289.794596 
L 129.4506 287.620362 
L 130.7898 285.861396 
L 132.1848 284.397897 
L 133.6356 283.202261 
L 135.198 282.211545 
L 136.872 281.415348 
L 138.7692 280.761467 
L 141.0012 280.233097 
L 143.7912 279.813841 
L 147.5298 279.494747 
L 153.5004 279.23713 
L 176.3784 278.400755 
L 187.0362 277.727389 
L 196.7454 276.894259 
L 205.506 275.923143 
L 213.4854 274.817958 
L 220.7952 273.583256 
L 227.547 272.218897 
L 233.7966 270.732227 
L 239.6556 269.113493 
L 245.2356 267.34166 
L 250.5366 265.42448 
L 255.5586 263.374167 
L 260.4132 261.15357 
L 265.1004 258.766344 
L 269.676 256.186169 
L 274.14 253.413214 
L 278.5482 250.410477 
L 282.9006 247.172816 
L 287.1972 243.697337 
L 291.4938 239.932934 
L 295.7904 235.870537 
L 300.1428 231.445228 
L 304.551 226.642214 
L 309.0708 221.384043 
L 313.758 215.582538 
L 318.6126 209.216476 
L 323.802 202.039364 
L 329.4936 193.778216 
L 336.0222 183.89719 
L 344.7828 170.20027 
L 360.5184 145.557535 
L 366.9912 135.883087 
L 372.4596 128.102026 
L 377.37 121.494788 
L 381.8898 115.776522 
L 386.1864 110.693803 
L 390.2598 106.212578 
L 394.2216 102.18171 
L 398.0718 98.581055 
L 401.8104 95.38651 
L 405.4932 92.530219 
L 409.1202 89.996479 
L 412.6914 87.767964 
L 416.2626 85.797442 
L 419.8338 84.077307 
L 423.4608 82.577517 
L 427.0878 81.316674 
L 430.7706 80.269572 
L 434.565 79.423645 
L 438.4152 78.79288 
L 442.377 78.367749 
L 446.5062 78.149117 
L 450.8028 78.145509 
L 455.3226 78.36617 
L 460.1214 78.82692 
L 465.255 79.548143 
L 470.7792 80.552269 
L 476.8614 81.886951 
L 483.7806 83.638011 
L 492.1506 85.995889 
L 504.3708 89.696902 
L 522.8406 95.274526 
L 532.215 97.858473 
L 540.306 99.86161 
L 547.7832 101.485574 
L 554.8698 102.7994 
L 561.789 103.856628 
L 568.5966 104.67271 
L 575.4042 105.266128 
L 582.3234 105.646539 
L 589.4658 105.815304 
L 596.943 105.767092 
L 604.9224 105.490048 
L 613.683 104.959373 
L 623.8386 104.113915 
L 637.0632 102.773752 
L 647.9442 101.582086 
L 647.9442 101.582086 
" clip-path="url(#p8b8ad01e66)" style="fill: none; stroke: #000000; stroke-width: 1.5; stroke-linecap: round"/>
   </g>
   <g id="patch_3">
    <path d="M 90 448.56 
L 90 60.48 
" style="fill: none; stroke: #cccccc; stroke-width: 0.8; stroke-linejoin: miter; stroke-linecap: square"/>
   </g>
   <g id="patch_4">
    <path d="M 648 448.56 
L 648 60.48 
" style="fill: none; stroke: #cccccc; stroke-width: 0.8; stroke-linejoin: miter; stroke-linecap: square"/>
   </g>
   <g id="patch_5">
    <path d="M 90 448.56 
L 648 448.56 
" style="fill: none; stroke: #cccccc; stroke-width: 0.8; stroke-linejoin: miter; stroke-linecap: square"/>
   </g>
   <g id="patch_6">
    <path d="M 90 60.48 
L 648 60.48 
" style="fill: none; stroke: #cccccc; stroke-width: 0.8; stroke-linejoin: miter; stroke-linecap: square"/>
   </g>
   <g id="legend_1">
    <g id="patch_7">
     <path d="M 104 104.770625 
L 204.2 104.770625 
Q 208.2 104.770625 208.2 100.770625 
L 208.2 74.48 
Q 208.2 70.48 204.2 70.48 
L 104 70.48 
Q 100 70.48 100 74.48 
L 100 100.770625 
Q 100 104.770625 104 104.770625 
z
" style="fill: #ffffff; opacity: 0.8; stroke: #cccccc; stroke-linejoin: miter"/>
    </g>
    <g id="line2d_14">
     <path d="M 108 85.795625 
L 128 85.795625 
L 148 85.795625 
" style="fill: none; stroke: #000000; stroke-width: 1.5; stroke-linecap: round"/>
    </g>
    <g id="text_15">
     <!-- $u(t)$ -->
     <g style="fill: #262626" transform="translate(164 92.795625)">
      <text>
       <tspan style="font: oblique 20px 'DejaVu Sans'" x="0 20.478516" y="-0.828125">ut</tspan>
       <tspan style="font: 20px 'DejaVu Sans'" x="12.675781 28.320312" y="-0.828125">()</tspan>
      </text>
     </g>
    </g>
   </g>
  </g>
 </g>
 <defs>
  <clipPath id="p8b8ad01e66">
   <rect x="90" y="60.48" width="558" height="388.08"/>
  </clipPath>
 </defs>
</svg>
