<?xml version="1.0" encoding="utf-8" standalone="no"?>
<!DOCTYPE svg PUBLIC "-//W3C//DTD SVG 1.1//EN"
  "http://www.w3.org/Graphics/SVG/1.1/DTD/svg11.dtd">
<svg xmlns:xlink="http://www.w3.org/1999/xlink" width="720pt" height="504pt" viewBox="0 0 720 504" xmlns="http://www.w3.org/2000/svg" version="1.1">
 <metadata>
  <rdf:RDF xmlns:dc="http://purl.org/dc/elements/1.1/" xmlns:cc="http://creativecommons.org/ns#" xmlns:rdf="http://www.w3.org/1999/02/22-rdf-syntax-ns#">
   <cc:Work>
    <dc:type rdf:resource="http://purl.org/dc/dcmitype/StillImage"/>
    <dc:date>2024-09-29T05:49:16.853969</dc:date>
    <dc:format>image/svg+xml</dc:format>
    <dc:creator>
     <cc:Agent>
      <dc:title>Matplotlib v3.9.2, https://matplotlib.org/</dc:title>
     </cc:Agent>
    </dc:creator>
   </cc:Work>
  </rdf:RDF>
 </metadata>
 <defs>
  <style type="text/css">*{stroke-linejoin: round; stroke-linecap: butt}</style>
 </defs>
 <g id="figure_1">
  <g id="patch_1">
   <path d="M 0 504 
L 720 504 
L 720 0 
L 0 0 
z
" style="fill: #ffffff"/>
  </g>
  <g id="axes_1">
   <g id="patch_2">
    <path d="M 90 448.56 
L 648 448.56 
L 648 60.48 
L 90 60.48 
z
" style="fill: #ffffff"/>
   </g>
   <g id="matplotlib.axis_1">
    <g id="xtick_1">
     <g id="line2d_1">
      <path d="M 90 448.56 
L 90 60.48 
" clip-path="url(#p52ced2194a)" style="fill: none; stroke: #cccccc; stroke-width: 0.8; stroke-linecap: round"/>
     </g>
     <g id="text_1">
      <text style="fill: #262626; font: 20px 'Arial', 'DejaVu Sans', 'Liberation Sans', 'Bitstream Vera Sans', sans-serif; text-anchor: middle" x="90" y="469.875625" transform="rotate(-0 90 469.875625)">0.00</text>
     </g>
    </g>
    <g id="xtick_2">
     <g id="line2d_2">
      <path d="M 165.941537 448.56 
L 165.941537 60.48 
" clip-path="url(#p52ced2194a)" style="fill: none; stroke: #cccccc; stroke-width: 0.8; stroke-linecap: round"/>
     </g>
     <g id="text_2">
      <text style="fill: #262626; font: 20px 'Arial', 'DejaVu Sans', 'Liberation Sans', 'Bitstream Vera Sans', sans-serif; text-anchor: middle" x="165.941537" y="469.875625" transform="rotate(-0 165.941537 469.875625)">0.05</text>
     </g>
    </g>
    <g id="xtick_3">
     <g id="line2d_3">
      <path d="M 241.883073 448.56 
L 241.883073 60.48 
" clip-path="url(#p52ced2194a)" style="fill: none; stroke: #cccccc; stroke-width: 0.8; stroke-linecap: round"/>
     </g>
     <g id="text_3">
      <text style="fill: #262626; font: 20px 'Arial', 'DejaVu Sans', 'Liberation Sans', 'Bitstream Vera Sans', sans-serif; text-anchor: middle" x="241.883073" y="469.875625" transform="rotate(-0 241.883073 469.875625)">0.10</text>
     </g>
    </g>
    <g id="xtick_4">
     <g id="line2d_4">
      <path d="M 317.82461 448.56 
L 317.82461 60.48 
" clip-path="url(#p52ced2194a)" style="fill: none; stroke: #cccccc; stroke-width: 0.8; stroke-linecap: round"/>
     </g>
     <g id="text_4">
      <text style="fill: #262626; font: 20px 'Arial', 'DejaVu Sans', 'Liberation Sans', 'Bitstream Vera Sans', sans-serif; text-anchor: middle" x="317.82461" y="469.875625" transform="rotate(-0 317.82461 469.875625)">0.15</text>
     </g>
    </g>
    <g id="xtick_5">
     <g id="line2d_5">
      <path d="M 393.766146 448.56 
L 393.766146 60.48 
" clip-path="url(#p52ced2194a)" style="fill: none; stroke: #cccccc; stroke-width: 0.8; stroke-linecap: round"/>
     </g>
     <g id="text_5">
      <text style="fill: #262626; font: 20px 'Arial', 'DejaVu Sans', 'Liberation Sans', 'Bitstream Vera Sans', sans-serif; text-anchor: middle" x="393.766146" y="469.875625" transform="rotate(-0 393.766146 469.875625)">0.20</text>
     </g>
    </g>
    <g id="xtick_6">
     <g id="line2d_6">
      <path d="M 469.707683 448.56 
L 469.707683 60.48 
" clip-path="url(#p52ced2194a)" style="fill: none; stroke: #cccccc; stroke-width: 0.8; stroke-linecap: round"/>
     </g>
     <g id="text_6">
      <text style="fill: #262626; font: 20px 'Arial', 'DejaVu Sans', 'Liberation Sans', 'Bitstream Vera Sans', sans-serif; text-anchor: middle" x="469.707683" y="469.875625" transform="rotate(-0 469.707683 469.875625)">0.25</text>
     </g>
    </g>
    <g id="xtick_7">
     <g id="line2d_7">
      <path d="M 545.64922 448.56 
L 545.64922 60.48 
" clip-path="url(#p52ced2194a)" style="fill: none; stroke: #cccccc; stroke-width: 0.8; stroke-linecap: round"/>
     </g>
     <g id="text_7">
      <text style="fill: #262626; font: 20px 'Arial', 'DejaVu Sans', 'Liberation Sans', 'Bitstream Vera Sans', sans-serif; text-anchor: middle" x="545.64922" y="469.875625" transform="rotate(-0 545.64922 469.875625)">0.30</text>
     </g>
    </g>
    <g id="xtick_8">
     <g id="line2d_8">
      <path d="M 621.590756 448.56 
L 621.590756 60.48 
" clip-path="url(#p52ced2194a)" style="fill: none; stroke: #cccccc; stroke-width: 0.8; stroke-linecap: round"/>
     </g>
     <g id="text_8">
      <text style="fill: #262626; font: 20px 'Arial', 'DejaVu Sans', 'Liberation Sans', 'Bitstream Vera Sans', sans-serif; text-anchor: middle" x="621.590756" y="469.875625" transform="rotate(-0 621.590756 469.875625)">0.35</text>
     </g>
    </g>
    <g id="text_9">
     <!-- $x_{1}$ -->
     <g style="fill: #262626" transform="translate(358.3 492.16625)">
      <text>
       <tspan style="font: oblique 20px 'DejaVu Sans'" x="0" y="-0.0625">x</tspan>
       <tspan style="font: 14px 'DejaVu Sans'" x="11.835938" y="3.21875">1</tspan>
      </text>
     </g>
    </g>
   </g>
   <g id="matplotlib.axis_2">
    <g id="ytick_1">
     <g id="line2d_9">
      <path d="M 90 448.56 
L 648 448.56 
" clip-path="url(#p52ced2194a)" style="fill: none; stroke: #cccccc; stroke-width: 0.8; stroke-linecap: round"/>
     </g>
     <g id="text_10">
      <text style="fill: #262626; font: 20px 'Arial', 'DejaVu Sans', 'Liberation Sans', 'Bitstream Vera Sans', sans-serif; text-anchor: end" x="83" y="455.717813" transform="rotate(-0 83 455.717813)">0.0</text>
     </g>
    </g>
    <g id="ytick_2">
     <g id="line2d_10">
      <path d="M 90 384.033171 
L 648 384.033171 
" clip-path="url(#p52ced2194a)" style="fill: none; stroke: #cccccc; stroke-width: 0.8; stroke-linecap: round"/>
     </g>
     <g id="text_11">
      <text style="fill: #262626; font: 20px 'Arial', 'DejaVu Sans', 'Liberation Sans', 'Bitstream Vera Sans', sans-serif; text-anchor: end" x="83" y="391.190983" transform="rotate(-0 83 391.190983)">0.1</text>
     </g>
    </g>
    <g id="ytick_3">
     <g id="line2d_11">
      <path d="M 90 319.506341 
L 648 319.506341 
" clip-path="url(#p52ced2194a)" style="fill: none; stroke: #cccccc; stroke-width: 0.8; stroke-linecap: round"/>
     </g>
     <g id="text_12">
      <text style="fill: #262626; font: 20px 'Arial', 'DejaVu Sans', 'Liberation Sans', 'Bitstream Vera Sans', sans-serif; text-anchor: end" x="83" y="326.664154" transform="rotate(-0 83 326.664154)">0.2</text>
     </g>
    </g>
    <g id="ytick_4">
     <g id="line2d_12">
      <path d="M 90 254.979512 
L 648 254.979512 
" clip-path="url(#p52ced2194a)" style="fill: none; stroke: #cccccc; stroke-width: 0.8; stroke-linecap: round"/>
     </g>
     <g id="text_13">
      <text style="fill: #262626; font: 20px 'Arial', 'DejaVu Sans', 'Liberation Sans', 'Bitstream Vera Sans', sans-serif; text-anchor: end" x="83" y="262.137325" transform="rotate(-0 83 262.137325)">0.3</text>
     </g>
    </g>
    <g id="ytick_5">
     <g id="line2d_13">
      <path d="M 90 190.452683 
L 648 190.452683 
" clip-path="url(#p52ced2194a)" style="fill: none; stroke: #cccccc; stroke-width: 0.8; stroke-linecap: round"/>
     </g>
     <g id="text_14">
      <text style="fill: #262626; font: 20px 'Arial', 'DejaVu Sans', 'Liberation Sans', 'Bitstream Vera Sans', sans-serif; text-anchor: end" x="83" y="197.610495" transform="rotate(-0 83 197.610495)">0.4</text>
     </g>
    </g>
    <g id="ytick_6">
     <g id="line2d_14">
      <path d="M 90 125.925853 
L 648 125.925853 
" clip-path="url(#p52ced2194a)" style="fill: none; stroke: #cccccc; stroke-width: 0.8; stroke-linecap: round"/>
     </g>
     <g id="text_15">
      <text style="fill: #262626; font: 20px 'Arial', 'DejaVu Sans', 'Liberation Sans', 'Bitstream Vera Sans', sans-serif; text-anchor: end" x="83" y="133.083666" transform="rotate(-0 83 133.083666)">0.5</text>
     </g>
    </g>
    <g id="ytick_7">
     <g id="line2d_15">
      <path d="M 90 61.399024 
L 648 61.399024 
" clip-path="url(#p52ced2194a)" style="fill: none; stroke: #cccccc; stroke-width: 0.8; stroke-linecap: round"/>
     </g>
     <g id="text_16">
      <text style="fill: #262626; font: 20px 'Arial', 'DejaVu Sans', 'Liberation Sans', 'Bitstream Vera Sans', sans-serif; text-anchor: end" x="83" y="68.556837" transform="rotate(-0 83 68.556837)">0.6</text>
     </g>
    </g>
    <g id="text_17">
     <!-- $x_{3}$ -->
     <g style="fill: #262626" transform="translate(47.225 265.22) rotate(-90)">
      <text>
       <tspan style="font: oblique 20px 'DejaVu Sans'" x="0" y="-0.0625">x</tspan>
       <tspan style="font: 14px 'DejaVu Sans'" x="11.835938" y="3.21875">3</tspan>
      </text>
     </g>
    </g>
   </g>
   <g id="line2d_16">
    <path d="M 621.590756 287.242927 
L 503.901404 288.310411 
L 449.460384 288.557045 
L 404.974741 288.447678 
L 367.807723 287.995611 
L 336.231373 287.214229 
L 322.152237 286.704233 
L 309.052942 286.116933 
L 296.835394 285.453996 
L 285.414968 284.71709 
L 274.718165 283.907875 
L 264.680761 283.028008 
L 255.24633 282.07914 
L 246.365051 281.062922 
L 237.992734 279.980999 
L 230.090022 278.835017 
L 222.621733 277.626619 
L 215.556305 276.357449 
L 208.865337 275.029154 
L 202.523195 273.643381 
L 196.506684 272.201785 
L 190.794758 270.706021 
L 185.36828 269.157755 
L 180.209812 267.558655 
L 175.303429 265.910401 
L 170.63456 264.214677 
L 166.189851 262.473181 
L 161.957042 260.687614 
L 157.924856 258.859692 
L 154.082907 256.991136 
L 150.421615 255.083679 
L 143.606259 251.159029 
L 137.415576 247.099758 
L 131.795175 242.919989 
L 126.697994 238.633914 
L 122.083096 234.255748 
L 117.914664 229.799683 
L 114.161181 225.279823 
L 110.79474 220.710122 
L 107.790467 216.104318 
L 105.126036 211.475866 
L 102.781255 206.837863 
L 100.737723 202.202987 
L 98.97853 197.583432 
L 97.488007 192.990846 
L 96.251511 188.436279 
L 95.255248 183.930136 
L 94.48612 179.482134 
L 93.931594 175.101274 
L 93.579603 170.795812 
L 93.418456 166.573247 
L 93.436773 162.44031 
L 93.623431 158.402962 
L 93.96752 154.466406 
L 94.458326 150.635096 
L 95.446608 145.093424 
L 96.706432 139.806417 
L 98.20378 134.780397 
L 99.905581 130.01864 
L 101.779852 125.521677 
L 103.795863 121.287607 
L 105.92432 117.31242 
L 108.137553 113.590315 
L 110.409684 110.114001 
L 113.48974 105.846446 
L 116.581208 101.978061 
L 119.639929 98.48429 
L 123.361229 94.604741 
L 126.915934 91.219587 
L 130.903403 87.739579 
L 135.116264 84.378296 
L 139.316044 81.311406 
L 143.657931 78.410169 
L 148.218743 75.640992 
L 152.499969 73.310016 
L 155.85732 71.725377 
L 156.959191 71.344201 
L 156.957267 71.348221 
" clip-path="url(#p52ced2194a)" style="fill: none; stroke: #ff0000; stroke-width: 3; stroke-linecap: round"/>
   </g>
   <g id="line2d_17">
    <defs>
     <path id="me0d39f9b34" d="M 0 3 
C 0.795609 3 1.55874 2.683901 2.12132 2.12132 
C 2.683901 1.55874 3 0.795609 3 0 
C 3 -0.795609 2.683901 -1.55874 2.12132 -2.12132 
C 1.55874 -2.683901 0.795609 -3 0 -3 
C -0.795609 -3 -1.55874 -2.683901 -2.12132 -2.12132 
C -2.683901 -1.55874 -3 -0.795609 -3 0 
C -3 0.795609 -2.683901 1.55874 -2.12132 2.12132 
C -1.55874 2.683901 -0.795609 3 0 3 
z
" style="stroke: #ff0000"/>
    </defs>
    <g clip-path="url(#p52ced2194a)">
     <use xlink:href="#me0d39f9b34" x="156.957267" y="71.348221" style="fill: #ff0000; stroke: #ff0000"/>
    </g>
   </g>
   <g id="patch_3">
    <path d="M 90 448.56 
L 90 60.48 
" style="fill: none; stroke: #cccccc; stroke-width: 0.8; stroke-linejoin: miter; stroke-linecap: square"/>
   </g>
   <g id="patch_4">
    <path d="M 648 448.56 
L 648 60.48 
" style="fill: none; stroke: #cccccc; stroke-width: 0.8; stroke-linejoin: miter; stroke-linecap: square"/>
   </g>
   <g id="patch_5">
    <path d="M 90 448.56 
L 648 448.56 
" style="fill: none; stroke: #cccccc; stroke-width: 0.8; stroke-linejoin: miter; stroke-linecap: square"/>
   </g>
   <g id="patch_6">
    <path d="M 90 60.48 
L 648 60.48 
" style="fill: none; stroke: #cccccc; stroke-width: 0.8; stroke-linejoin: miter; stroke-linecap: square"/>
   </g>
   <g id="line2d_18">
    <defs>
     <path id="mff966ab1fc" d="M 0 3 
C 0.795609 3 1.55874 2.683901 2.12132 2.12132 
C 2.683901 1.55874 3 0.795609 3 0 
C 3 -0.795609 2.683901 -1.55874 2.12132 -2.12132 
C 1.55874 -2.683901 0.795609 -3 0 -3 
C -0.795609 -3 -1.55874 -2.683901 -2.12132 -2.12132 
C -2.683901 -1.55874 -3 -0.795609 -3 0 
C -3 0.795609 -2.683901 1.55874 -2.12132 2.12132 
C -1.55874 2.683901 -0.795609 3 0 3 
z
" style="stroke: #0000ff"/>
    </defs>
    <g clip-path="url(#p52ced2194a)">
     <use xlink:href="#mff966ab1fc" x="621.590756" y="287.242927" style="fill: #0000ff; stroke: #0000ff"/>
    </g>
   </g>
   <g id="legend_1">
    <g id="patch_7">
     <path d="M 366.840625 438.56 
L 634 438.56 
Q 638 438.56 638 434.56 
L 638 379.97875 
Q 638 375.97875 634 375.97875 
L 366.840625 375.97875 
Q 362.840625 375.97875 362.840625 379.97875 
L 362.840625 434.56 
Q 362.840625 438.56 366.840625 438.56 
z
" style="fill: #ffffff; opacity: 0.8; stroke: #cccccc; stroke-linejoin: miter"/>
    </g>
    <g id="line2d_19">
     <g>
      <use xlink:href="#mff966ab1fc" x="390.840625" y="391.294375" style="fill: #0000ff; stroke: #0000ff"/>
     </g>
    </g>
    <g id="text_18">
     <text style="fill: #262626; font: 20px 'Arial', 'DejaVu Sans', 'Liberation Sans', 'Bitstream Vera Sans', sans-serif; text-anchor: start" x="426.840625" y="398.294375" transform="rotate(-0 426.840625 398.294375)">Начальное состояние</text>
    </g>
    <g id="line2d_20">
     <g>
      <use xlink:href="#me0d39f9b34" x="390.840625" y="419.585" style="fill: #ff0000; stroke: #ff0000"/>
     </g>
    </g>
    <g id="text_19">
     <text style="fill: #262626; font: 20px 'Arial', 'DejaVu Sans', 'Liberation Sans', 'Bitstream Vera Sans', sans-serif; text-anchor: start" x="426.840625" y="426.585" transform="rotate(-0 426.840625 426.585)">Конечное состояние</text>
    </g>
   </g>
  </g>
 </g>
 <defs>
  <clipPath id="p52ced2194a">
   <rect x="90" y="60.48" width="558" height="388.08"/>
  </clipPath>
 </defs>
</svg>
