<?xml version="1.0" encoding="utf-8" standalone="no"?>
<!DOCTYPE svg PUBLIC "-//W3C//DTD SVG 1.1//EN"
  "http://www.w3.org/Graphics/SVG/1.1/DTD/svg11.dtd">
<svg xmlns:xlink="http://www.w3.org/1999/xlink" width="720pt" height="504pt" viewBox="0 0 720 504" xmlns="http://www.w3.org/2000/svg" version="1.1">
 <metadata>
  <rdf:RDF xmlns:dc="http://purl.org/dc/elements/1.1/" xmlns:cc="http://creativecommons.org/ns#" xmlns:rdf="http://www.w3.org/1999/02/22-rdf-syntax-ns#">
   <cc:Work>
    <dc:type rdf:resource="http://purl.org/dc/dcmitype/StillImage"/>
    <dc:date>2024-09-29T05:49:27.174117</dc:date>
    <dc:format>image/svg+xml</dc:format>
    <dc:creator>
     <cc:Agent>
      <dc:title>Matplotlib v3.9.2, https://matplotlib.org/</dc:title>
     </cc:Agent>
    </dc:creator>
   </cc:Work>
  </rdf:RDF>
 </metadata>
 <defs>
  <style type="text/css">*{stroke-linejoin: round; stroke-linecap: butt}</style>
 </defs>
 <g id="figure_1">
  <g id="patch_1">
   <path d="M 0 504 
L 720 504 
L 720 0 
L 0 0 
z
" style="fill: #ffffff"/>
  </g>
  <g id="axes_1">
   <g id="patch_2">
    <path d="M 90 448.56 
L 648 448.56 
L 648 60.48 
L 90 60.48 
z
" style="fill: #ffffff"/>
   </g>
   <g id="matplotlib.axis_1">
    <g id="xtick_1">
     <g id="line2d_1">
      <path d="M 90 448.56 
L 90 60.48 
" clip-path="url(#p5cc4290f93)" style="fill: none; stroke: #cccccc; stroke-width: 0.8; stroke-linecap: round"/>
     </g>
     <g id="text_1">
      <text style="fill: #262626; font: 20px 'Arial', 'DejaVu Sans', 'Liberation Sans', 'Bitstream Vera Sans', sans-serif; text-anchor: middle" x="90" y="469.875625" transform="rotate(-0 90 469.875625)">0</text>
     </g>
    </g>
    <g id="xtick_2">
     <g id="line2d_2">
      <path d="M 164.4 448.56 
L 164.4 60.48 
" clip-path="url(#p5cc4290f93)" style="fill: none; stroke: #cccccc; stroke-width: 0.8; stroke-linecap: round"/>
     </g>
     <g id="text_2">
      <text style="fill: #262626; font: 20px 'Arial', 'DejaVu Sans', 'Liberation Sans', 'Bitstream Vera Sans', sans-serif; text-anchor: middle" x="164.4" y="469.875625" transform="rotate(-0 164.4 469.875625)">2</text>
     </g>
    </g>
    <g id="xtick_3">
     <g id="line2d_3">
      <path d="M 238.8 448.56 
L 238.8 60.48 
" clip-path="url(#p5cc4290f93)" style="fill: none; stroke: #cccccc; stroke-width: 0.8; stroke-linecap: round"/>
     </g>
     <g id="text_3">
      <text style="fill: #262626; font: 20px 'Arial', 'DejaVu Sans', 'Liberation Sans', 'Bitstream Vera Sans', sans-serif; text-anchor: middle" x="238.8" y="469.875625" transform="rotate(-0 238.8 469.875625)">4</text>
     </g>
    </g>
    <g id="xtick_4">
     <g id="line2d_4">
      <path d="M 313.2 448.56 
L 313.2 60.48 
" clip-path="url(#p5cc4290f93)" style="fill: none; stroke: #cccccc; stroke-width: 0.8; stroke-linecap: round"/>
     </g>
     <g id="text_4">
      <text style="fill: #262626; font: 20px 'Arial', 'DejaVu Sans', 'Liberation Sans', 'Bitstream Vera Sans', sans-serif; text-anchor: middle" x="313.2" y="469.875625" transform="rotate(-0 313.2 469.875625)">6</text>
     </g>
    </g>
    <g id="xtick_5">
     <g id="line2d_5">
      <path d="M 387.6 448.56 
L 387.6 60.48 
" clip-path="url(#p5cc4290f93)" style="fill: none; stroke: #cccccc; stroke-width: 0.8; stroke-linecap: round"/>
     </g>
     <g id="text_5">
      <text style="fill: #262626; font: 20px 'Arial', 'DejaVu Sans', 'Liberation Sans', 'Bitstream Vera Sans', sans-serif; text-anchor: middle" x="387.6" y="469.875625" transform="rotate(-0 387.6 469.875625)">8</text>
     </g>
    </g>
    <g id="xtick_6">
     <g id="line2d_6">
      <path d="M 462 448.56 
L 462 60.48 
" clip-path="url(#p5cc4290f93)" style="fill: none; stroke: #cccccc; stroke-width: 0.8; stroke-linecap: round"/>
     </g>
     <g id="text_6">
      <text style="fill: #262626; font: 20px 'Arial', 'DejaVu Sans', 'Liberation Sans', 'Bitstream Vera Sans', sans-serif; text-anchor: middle" x="462" y="469.875625" transform="rotate(-0 462 469.875625)">10</text>
     </g>
    </g>
    <g id="xtick_7">
     <g id="line2d_7">
      <path d="M 536.4 448.56 
L 536.4 60.48 
" clip-path="url(#p5cc4290f93)" style="fill: none; stroke: #cccccc; stroke-width: 0.8; stroke-linecap: round"/>
     </g>
     <g id="text_7">
      <text style="fill: #262626; font: 20px 'Arial', 'DejaVu Sans', 'Liberation Sans', 'Bitstream Vera Sans', sans-serif; text-anchor: middle" x="536.4" y="469.875625" transform="rotate(-0 536.4 469.875625)">12</text>
     </g>
    </g>
    <g id="xtick_8">
     <g id="line2d_8">
      <path d="M 610.8 448.56 
L 610.8 60.48 
" clip-path="url(#p5cc4290f93)" style="fill: none; stroke: #cccccc; stroke-width: 0.8; stroke-linecap: round"/>
     </g>
     <g id="text_8">
      <text style="fill: #262626; font: 20px 'Arial', 'DejaVu Sans', 'Liberation Sans', 'Bitstream Vera Sans', sans-serif; text-anchor: middle" x="610.8" y="469.875625" transform="rotate(-0 610.8 469.875625)">14</text>
     </g>
    </g>
    <g id="text_9">
     <text style="fill: #262626; font: 20px 'Arial', 'DejaVu Sans', 'Liberation Sans', 'Bitstream Vera Sans', sans-serif; text-anchor: middle" x="369" y="492.16625" transform="rotate(-0 369 492.16625)">Время, дни</text>
    </g>
   </g>
   <g id="matplotlib.axis_2">
    <g id="ytick_1">
     <g id="line2d_9">
      <path d="M 90 448.56 
L 648 448.56 
" clip-path="url(#p5cc4290f93)" style="fill: none; stroke: #cccccc; stroke-width: 0.8; stroke-linecap: round"/>
     </g>
     <g id="text_10">
      <text style="fill: #262626; font: 20px 'Arial', 'DejaVu Sans', 'Liberation Sans', 'Bitstream Vera Sans', sans-serif; text-anchor: end" x="83" y="455.717813" transform="rotate(-0 83 455.717813)">−0.2</text>
     </g>
    </g>
    <g id="ytick_2">
     <g id="line2d_10">
      <path d="M 90 399.588054 
L 648 399.588054 
" clip-path="url(#p5cc4290f93)" style="fill: none; stroke: #cccccc; stroke-width: 0.8; stroke-linecap: round"/>
     </g>
     <g id="text_11">
      <text style="fill: #262626; font: 20px 'Arial', 'DejaVu Sans', 'Liberation Sans', 'Bitstream Vera Sans', sans-serif; text-anchor: end" x="83" y="406.745866" transform="rotate(-0 83 406.745866)">0.0</text>
     </g>
    </g>
    <g id="ytick_3">
     <g id="line2d_11">
      <path d="M 90 350.616108 
L 648 350.616108 
" clip-path="url(#p5cc4290f93)" style="fill: none; stroke: #cccccc; stroke-width: 0.8; stroke-linecap: round"/>
     </g>
     <g id="text_12">
      <text style="fill: #262626; font: 20px 'Arial', 'DejaVu Sans', 'Liberation Sans', 'Bitstream Vera Sans', sans-serif; text-anchor: end" x="83" y="357.77392" transform="rotate(-0 83 357.77392)">0.2</text>
     </g>
    </g>
    <g id="ytick_4">
     <g id="line2d_12">
      <path d="M 90 301.644161 
L 648 301.644161 
" clip-path="url(#p5cc4290f93)" style="fill: none; stroke: #cccccc; stroke-width: 0.8; stroke-linecap: round"/>
     </g>
     <g id="text_13">
      <text style="fill: #262626; font: 20px 'Arial', 'DejaVu Sans', 'Liberation Sans', 'Bitstream Vera Sans', sans-serif; text-anchor: end" x="83" y="308.801974" transform="rotate(-0 83 308.801974)">0.4</text>
     </g>
    </g>
    <g id="ytick_5">
     <g id="line2d_13">
      <path d="M 90 252.672215 
L 648 252.672215 
" clip-path="url(#p5cc4290f93)" style="fill: none; stroke: #cccccc; stroke-width: 0.8; stroke-linecap: round"/>
     </g>
     <g id="text_14">
      <text style="fill: #262626; font: 20px 'Arial', 'DejaVu Sans', 'Liberation Sans', 'Bitstream Vera Sans', sans-serif; text-anchor: end" x="83" y="259.830028" transform="rotate(-0 83 259.830028)">0.6</text>
     </g>
    </g>
    <g id="ytick_6">
     <g id="line2d_14">
      <path d="M 90 203.700269 
L 648 203.700269 
" clip-path="url(#p5cc4290f93)" style="fill: none; stroke: #cccccc; stroke-width: 0.8; stroke-linecap: round"/>
     </g>
     <g id="text_15">
      <text style="fill: #262626; font: 20px 'Arial', 'DejaVu Sans', 'Liberation Sans', 'Bitstream Vera Sans', sans-serif; text-anchor: end" x="83" y="210.858081" transform="rotate(-0 83 210.858081)">0.8</text>
     </g>
    </g>
    <g id="ytick_7">
     <g id="line2d_15">
      <path d="M 90 154.728323 
L 648 154.728323 
" clip-path="url(#p5cc4290f93)" style="fill: none; stroke: #cccccc; stroke-width: 0.8; stroke-linecap: round"/>
     </g>
     <g id="text_16">
      <text style="fill: #262626; font: 20px 'Arial', 'DejaVu Sans', 'Liberation Sans', 'Bitstream Vera Sans', sans-serif; text-anchor: end" x="83" y="161.886135" transform="rotate(-0 83 161.886135)">1.0</text>
     </g>
    </g>
    <g id="ytick_8">
     <g id="line2d_16">
      <path d="M 90 105.756376 
L 648 105.756376 
" clip-path="url(#p5cc4290f93)" style="fill: none; stroke: #cccccc; stroke-width: 0.8; stroke-linecap: round"/>
     </g>
     <g id="text_17">
      <text style="fill: #262626; font: 20px 'Arial', 'DejaVu Sans', 'Liberation Sans', 'Bitstream Vera Sans', sans-serif; text-anchor: end" x="83" y="112.914189" transform="rotate(-0 83 112.914189)">1.2</text>
     </g>
    </g>
    <g id="text_18">
     <text style="fill: #262626; font: 20px 'Arial', 'DejaVu Sans', 'Liberation Sans', 'Bitstream Vera Sans', sans-serif; text-anchor: middle" x="35.309375" y="254.52" transform="rotate(-90 35.309375 254.52)">Популяция, ед/л</text>
    </g>
   </g>
   <g id="line2d_17">
    <path d="M 90 313.887148 
L 90.372 321.797146 
L 92.232 336.890471 
L 93.72 346.940351 
L 95.58 358.063626 
L 98.184 372.240303 
L 103.764 400.963911 
L 107.484 419.404286 
L 109.344 427.569309 
L 110.832 433.038806 
L 111.948 436.284455 
L 112.692 437.961939 
L 113.436 439.209594 
L 114.18 440.000698 
L 114.924 440.317516 
L 115.296 440.295285 
L 115.668 440.152502 
L 116.412 439.509192 
L 117.156 438.402796 
L 117.9 436.860444 
L 119.016 433.81755 
L 120.132 430.059937 
L 121.992 422.815425 
L 124.968 411.086258 
L 126.456 406.092108 
L 127.944 401.969537 
L 129.06 399.462203 
L 130.176 397.419851 
L 131.292 395.789031 
L 132.408 394.509224 
L 133.524 393.520627 
L 134.64 392.768663 
L 136.128 392.053522 
L 137.616 391.584982 
L 139.476 391.242955 
L 141.708 391.068091 
L 144.684 391.068641 
L 149.52 391.334481 
L 164.028 392.49974 
L 178.536 393.517 
L 194.532 394.40751 
L 213.504 395.231417 
L 236.568 395.999692 
L 264.84 396.708935 
L 299.436 397.34482 
L 340.728 397.873354 
L 389.46 398.26845 
L 450.468 398.529431 
L 539.748 398.666025 
L 647.628 398.700211 
L 647.628 398.700211 
" clip-path="url(#p5cc4290f93)" style="fill: none; stroke: #008000; stroke-width: 1.5; stroke-linecap: round"/>
   </g>
   <g id="line2d_18">
    <path d="M 90 301.644161 
L 92.976 234.739987 
L 96.696 148.304905 
L 98.184 119.269352 
L 99.3 101.674968 
L 100.044 92.417834 
L 100.788 85.390593 
L 101.532 80.763051 
L 101.904 79.388734 
L 102.276 78.654901 
L 102.648 78.567501 
L 103.02 79.128537 
L 103.392 80.335936 
L 103.764 82.183455 
L 104.508 87.752811 
L 105.252 95.702716 
L 105.996 105.834725 
L 107.112 124.548138 
L 108.6 154.360881 
L 113.808 264.417838 
L 115.296 289.051028 
L 116.412 304.541751 
L 117.528 317.547 
L 118.644 328.26485 
L 119.76 336.957673 
L 120.876 343.910006 
L 121.992 349.400001 
L 123.108 353.682724 
L 124.224 356.982291 
L 125.34 359.489808 
L 126.456 361.364698 
L 127.572 362.737739 
L 128.688 363.71478 
L 129.804 364.380557 
L 130.92 364.802293 
L 132.408 365.074792 
L 133.896 365.101078 
L 135.756 364.889399 
L 137.988 364.392864 
L 140.964 363.47524 
L 145.056 361.947335 
L 151.008 359.45655 
L 159.936 355.456204 
L 172.956 349.358315 
L 191.928 340.20136 
L 225.408 324.022917 
L 239.916 317.278858 
L 252.564 311.639815 
L 264.096 306.740498 
L 274.884 302.396703 
L 285.3 298.442862 
L 295.344 294.867169 
L 305.388 291.532616 
L 315.06 288.553506 
L 324.732 285.802465 
L 334.404 283.276959 
L 344.448 280.887442 
L 354.492 278.727121 
L 364.908 276.717549 
L 375.696 274.869424 
L 386.856 273.189613 
L 398.388 271.681035 
L 410.664 270.304243 
L 423.684 269.073149 
L 437.448 267.994967 
L 452.7 267.028121 
L 469.44 266.194951 
L 488.412 265.480551 
L 510.36 264.885874 
L 536.4 264.410811 
L 569.136 264.04577 
L 613.776 263.785885 
L 647.628 263.686014 
L 647.628 263.686014 
" clip-path="url(#p5cc4290f93)" style="fill: none; stroke: #0000ff; stroke-width: 1.5; stroke-linecap: round"/>
   </g>
   <g id="line2d_19">
    <path d="M 90 338.373121 
L 91.116 338.778199 
L 92.232 338.854112 
L 92.976 338.714116 
L 93.72 338.416225 
L 94.836 337.664916 
L 95.952 336.540124 
L 97.068 335.038526 
L 98.184 333.165327 
L 99.672 330.11996 
L 101.16 326.523363 
L 103.392 320.400664 
L 106.74 311.023622 
L 108.228 307.446577 
L 109.344 305.211138 
L 110.46 303.436226 
L 111.576 302.159597 
L 112.32 301.590142 
L 113.064 301.241203 
L 113.808 301.103353 
L 114.552 301.163465 
L 115.296 301.405735 
L 116.412 302.072193 
L 117.528 303.047438 
L 119.016 304.724649 
L 120.876 307.249987 
L 123.48 311.240284 
L 133.152 326.460481 
L 136.872 331.733765 
L 140.592 336.591135 
L 144.312 341.048098 
L 148.032 345.131842 
L 151.752 348.872404 
L 155.472 352.299276 
L 159.192 355.440155 
L 163.284 358.595192 
L 167.376 361.465887 
L 171.468 364.080048 
L 175.932 366.668571 
L 180.396 369.010464 
L 185.232 371.299002 
L 190.44 373.506783 
L 195.648 375.47914 
L 201.228 377.362503 
L 207.18 379.141783 
L 213.504 380.806308 
L 220.572 382.429223 
L 228.012 383.906286 
L 236.196 385.299634 
L 245.124 386.588446 
L 254.796 387.759744 
L 265.584 388.841252 
L 277.86 389.840667 
L 291.624 390.731241 
L 307.248 391.515857 
L 325.476 392.203713 
L 347.052 392.78897 
L 373.464 393.272542 
L 406.572 393.645544 
L 451.212 393.911799 
L 519.288 394.073129 
L 647.628 394.138163 
L 647.628 394.138163 
" clip-path="url(#p5cc4290f93)" style="fill: none; stroke: #ff0000; stroke-width: 1.5; stroke-linecap: round"/>
   </g>
   <g id="line2d_20">
    <path d="M 90 398.706665 
L 647.628 398.706665 
L 647.628 398.706665 
" clip-path="url(#p5cc4290f93)" style="fill: none; stroke-dasharray: 5.55,2.4; stroke-dashoffset: 0; stroke: #000000; stroke-width: 1.5"/>
   </g>
   <g id="line2d_21">
    <path d="M 90 263.55487 
L 647.628 263.55487 
L 647.628 263.55487 
" clip-path="url(#p5cc4290f93)" style="fill: none; stroke-dasharray: 9.6,2.4,1.5,2.4; stroke-dashoffset: 0; stroke: #000000; stroke-width: 1.5"/>
   </g>
   <g id="line2d_22">
    <path d="M 90 394.146726 
L 647.628 394.146726 
L 647.628 394.146726 
" clip-path="url(#p5cc4290f93)" style="fill: none; stroke-dasharray: 1.5,2.475; stroke-dashoffset: 0; stroke: #000000; stroke-width: 1.5"/>
   </g>
   <g id="patch_3">
    <path d="M 90 448.56 
L 90 60.48 
" style="fill: none; stroke: #cccccc; stroke-width: 0.8; stroke-linejoin: miter; stroke-linecap: square"/>
   </g>
   <g id="patch_4">
    <path d="M 648 448.56 
L 648 60.48 
" style="fill: none; stroke: #cccccc; stroke-width: 0.8; stroke-linejoin: miter; stroke-linecap: square"/>
   </g>
   <g id="patch_5">
    <path d="M 90 448.56 
L 648 448.56 
" style="fill: none; stroke: #cccccc; stroke-width: 0.8; stroke-linejoin: miter; stroke-linecap: square"/>
   </g>
   <g id="patch_6">
    <path d="M 90 60.48 
L 648 60.48 
" style="fill: none; stroke: #cccccc; stroke-width: 0.8; stroke-linejoin: miter; stroke-linecap: square"/>
   </g>
   <g id="legend_1">
    <g id="patch_7">
     <path d="M 548.6 262.951875 
L 634 262.951875 
Q 638 262.951875 638 258.951875 
L 638 74.48 
Q 638 70.48 634 70.48 
L 548.6 70.48 
Q 544.6 70.48 544.6 74.48 
L 544.6 258.951875 
Q 544.6 262.951875 548.6 262.951875 
z
" style="fill: #ffffff; opacity: 0.8; stroke: #cccccc; stroke-linejoin: miter"/>
    </g>
    <g id="line2d_23">
     <path d="M 552.6 85.795625 
L 572.6 85.795625 
L 592.6 85.795625 
" style="fill: none; stroke: #008000; stroke-width: 1.5; stroke-linecap: round"/>
    </g>
    <g id="text_19">
     <!-- $x_{1}$ -->
     <g style="fill: #262626" transform="translate(608.6 92.795625)">
      <text>
       <tspan style="font: oblique 20px 'DejaVu Sans'" x="0" y="-0.0625">x</tspan>
       <tspan style="font: 14px 'DejaVu Sans'" x="11.835938" y="3.21875">1</tspan>
      </text>
     </g>
    </g>
    <g id="line2d_24">
     <path d="M 552.6 114.08625 
L 572.6 114.08625 
L 592.6 114.08625 
" style="fill: none; stroke: #0000ff; stroke-width: 1.5; stroke-linecap: round"/>
    </g>
    <g id="text_20">
     <!-- $x_{2}$ -->
     <g style="fill: #262626" transform="translate(608.6 121.08625)">
      <text>
       <tspan style="font: oblique 20px 'DejaVu Sans'" x="0" y="-0.0625">x</tspan>
       <tspan style="font: 14px 'DejaVu Sans'" x="11.835938" y="3.21875">2</tspan>
      </text>
     </g>
    </g>
    <g id="line2d_25">
     <path d="M 552.6 142.376875 
L 572.6 142.376875 
L 592.6 142.376875 
" style="fill: none; stroke: #ff0000; stroke-width: 1.5; stroke-linecap: round"/>
    </g>
    <g id="text_21">
     <!-- $x_{3}$ -->
     <g style="fill: #262626" transform="translate(608.6 149.376875)">
      <text>
       <tspan style="font: oblique 20px 'DejaVu Sans'" x="0" y="-0.0625">x</tspan>
       <tspan style="font: 14px 'DejaVu Sans'" x="11.835938" y="3.21875">3</tspan>
      </text>
     </g>
    </g>
    <g id="line2d_26">
     <path d="M 552.6 174.551875 
L 572.6 174.551875 
L 592.6 174.551875 
" style="fill: none; stroke-dasharray: 5.55,2.4; stroke-dashoffset: 0; stroke: #000000; stroke-width: 1.5"/>
    </g>
    <g id="text_22">
     <!-- $x_{1}^{*}$ -->
     <g style="fill: #262626" transform="translate(608.6 181.551875)">
      <text>
       <tspan style="font: oblique 20px 'DejaVu Sans'" x="0" y="-0.953125">x</tspan>
       <tspan style="font: 14px 'DejaVu Sans'" x="11.835938 12.729167" y="4.515625 -8.609375">1*</tspan>
      </text>
     </g>
    </g>
    <g id="line2d_27">
     <path d="M 552.6 208.351875 
L 572.6 208.351875 
L 592.6 208.351875 
" style="fill: none; stroke-dasharray: 9.6,2.4,1.5,2.4; stroke-dashoffset: 0; stroke: #000000; stroke-width: 1.5"/>
    </g>
    <g id="text_23">
     <!-- $x_{2}^{*}$ -->
     <g style="fill: #262626" transform="translate(608.6 215.351875)">
      <text>
       <tspan style="font: oblique 20px 'DejaVu Sans'" x="0" y="-0.953125">x</tspan>
       <tspan style="font: 14px 'DejaVu Sans'" x="11.835938 12.729167" y="4.515625 -8.609375">2*</tspan>
      </text>
     </g>
    </g>
    <g id="line2d_28">
     <path d="M 552.6 242.151875 
L 572.6 242.151875 
L 592.6 242.151875 
" style="fill: none; stroke-dasharray: 1.5,2.475; stroke-dashoffset: 0; stroke: #000000; stroke-width: 1.5"/>
    </g>
    <g id="text_24">
     <!-- $x_{3}^{*}$ -->
     <g style="fill: #262626" transform="translate(608.6 249.151875)">
      <text>
       <tspan style="font: oblique 20px 'DejaVu Sans'" x="0" y="-0.953125">x</tspan>
       <tspan style="font: 14px 'DejaVu Sans'" x="11.835938 12.729167" y="4.515625 -8.609375">3*</tspan>
      </text>
     </g>
    </g>
   </g>
  </g>
 </g>
 <defs>
  <clipPath id="p5cc4290f93">
   <rect x="90" y="60.48" width="558" height="388.08"/>
  </clipPath>
 </defs>
</svg>
