<?xml version="1.0" encoding="utf-8" standalone="no"?>
<!DOCTYPE svg PUBLIC "-//W3C//DTD SVG 1.1//EN"
  "http://www.w3.org/Graphics/SVG/1.1/DTD/svg11.dtd">
<svg xmlns:xlink="http://www.w3.org/1999/xlink" width="720pt" height="504pt" viewBox="0 0 720 504" xmlns="http://www.w3.org/2000/svg" version="1.1">
 <metadata>
  <rdf:RDF xmlns:dc="http://purl.org/dc/elements/1.1/" xmlns:cc="http://creativecommons.org/ns#" xmlns:rdf="http://www.w3.org/1999/02/22-rdf-syntax-ns#">
   <cc:Work>
    <dc:type rdf:resource="http://purl.org/dc/dcmitype/StillImage"/>
    <dc:date>2024-09-29T05:49:29.622921</dc:date>
    <dc:format>image/svg+xml</dc:format>
    <dc:creator>
     <cc:Agent>
      <dc:title>Matplotlib v3.9.2, https://matplotlib.org/</dc:title>
     </cc:Agent>
    </dc:creator>
   </cc:Work>
  </rdf:RDF>
 </metadata>
 <defs>
  <style type="text/css">*{stroke-linejoin: round; stroke-linecap: butt}</style>
 </defs>
 <g id="figure_1">
  <g id="patch_1">
   <path d="M 0 504 
L 720 504 
L 720 0 
L 0 0 
z
" style="fill: #ffffff"/>
  </g>
  <g id="axes_1">
   <g id="patch_2">
    <path d="M 90 448.56 
L 648 448.56 
L 648 60.48 
L 90 60.48 
z
" style="fill: #ffffff"/>
   </g>
   <g id="matplotlib.axis_1">
    <g id="xtick_1">
     <g id="line2d_1">
      <path d="M 90 448.56 
L 90 60.48 
" clip-path="url(#pa69ac6e0ec)" style="fill: none; stroke: #cccccc; stroke-width: 0.8; stroke-linecap: round"/>
     </g>
     <g id="text_1">
      <text style="fill: #262626; font: 20px 'Arial', 'DejaVu Sans', 'Liberation Sans', 'Bitstream Vera Sans', sans-serif; text-anchor: middle" x="90" y="469.875625" transform="rotate(-0 90 469.875625)">−0.2</text>
     </g>
    </g>
    <g id="xtick_2">
     <g id="line2d_2">
      <path d="M 186.905805 448.56 
L 186.905805 60.48 
" clip-path="url(#pa69ac6e0ec)" style="fill: none; stroke: #cccccc; stroke-width: 0.8; stroke-linecap: round"/>
     </g>
     <g id="text_2">
      <text style="fill: #262626; font: 20px 'Arial', 'DejaVu Sans', 'Liberation Sans', 'Bitstream Vera Sans', sans-serif; text-anchor: middle" x="186.905805" y="469.875625" transform="rotate(-0 186.905805 469.875625)">−0.1</text>
     </g>
    </g>
    <g id="xtick_3">
     <g id="line2d_3">
      <path d="M 283.81161 448.56 
L 283.81161 60.48 
" clip-path="url(#pa69ac6e0ec)" style="fill: none; stroke: #cccccc; stroke-width: 0.8; stroke-linecap: round"/>
     </g>
     <g id="text_3">
      <text style="fill: #262626; font: 20px 'Arial', 'DejaVu Sans', 'Liberation Sans', 'Bitstream Vera Sans', sans-serif; text-anchor: middle" x="283.81161" y="469.875625" transform="rotate(-0 283.81161 469.875625)">0.0</text>
     </g>
    </g>
    <g id="xtick_4">
     <g id="line2d_4">
      <path d="M 380.717415 448.56 
L 380.717415 60.48 
" clip-path="url(#pa69ac6e0ec)" style="fill: none; stroke: #cccccc; stroke-width: 0.8; stroke-linecap: round"/>
     </g>
     <g id="text_4">
      <text style="fill: #262626; font: 20px 'Arial', 'DejaVu Sans', 'Liberation Sans', 'Bitstream Vera Sans', sans-serif; text-anchor: middle" x="380.717415" y="469.875625" transform="rotate(-0 380.717415 469.875625)">0.1</text>
     </g>
    </g>
    <g id="xtick_5">
     <g id="line2d_5">
      <path d="M 477.623221 448.56 
L 477.623221 60.48 
" clip-path="url(#pa69ac6e0ec)" style="fill: none; stroke: #cccccc; stroke-width: 0.8; stroke-linecap: round"/>
     </g>
     <g id="text_5">
      <text style="fill: #262626; font: 20px 'Arial', 'DejaVu Sans', 'Liberation Sans', 'Bitstream Vera Sans', sans-serif; text-anchor: middle" x="477.623221" y="469.875625" transform="rotate(-0 477.623221 469.875625)">0.2</text>
     </g>
    </g>
    <g id="xtick_6">
     <g id="line2d_6">
      <path d="M 574.529026 448.56 
L 574.529026 60.48 
" clip-path="url(#pa69ac6e0ec)" style="fill: none; stroke: #cccccc; stroke-width: 0.8; stroke-linecap: round"/>
     </g>
     <g id="text_6">
      <text style="fill: #262626; font: 20px 'Arial', 'DejaVu Sans', 'Liberation Sans', 'Bitstream Vera Sans', sans-serif; text-anchor: middle" x="574.529026" y="469.875625" transform="rotate(-0 574.529026 469.875625)">0.3</text>
     </g>
    </g>
    <g id="text_7">
     <!-- $x_{1}$ -->
     <g style="fill: #262626" transform="translate(358.3 492.16625)">
      <text>
       <tspan style="font: oblique 20px 'DejaVu Sans'" x="0" y="-0.0625">x</tspan>
       <tspan style="font: 14px 'DejaVu Sans'" x="11.835938" y="3.21875">1</tspan>
      </text>
     </g>
    </g>
   </g>
   <g id="matplotlib.axis_2">
    <g id="ytick_1">
     <g id="line2d_7">
      <path d="M 90 448.56 
L 648 448.56 
" clip-path="url(#pa69ac6e0ec)" style="fill: none; stroke: #cccccc; stroke-width: 0.8; stroke-linecap: round"/>
     </g>
     <g id="text_8">
      <text style="fill: #262626; font: 20px 'Arial', 'DejaVu Sans', 'Liberation Sans', 'Bitstream Vera Sans', sans-serif; text-anchor: end" x="83" y="455.717813" transform="rotate(-0 83 455.717813)">0.00</text>
     </g>
    </g>
    <g id="ytick_2">
     <g id="line2d_8">
      <path d="M 90 402.492304 
L 648 402.492304 
" clip-path="url(#pa69ac6e0ec)" style="fill: none; stroke: #cccccc; stroke-width: 0.8; stroke-linecap: round"/>
     </g>
     <g id="text_9">
      <text style="fill: #262626; font: 20px 'Arial', 'DejaVu Sans', 'Liberation Sans', 'Bitstream Vera Sans', sans-serif; text-anchor: end" x="83" y="409.650117" transform="rotate(-0 83 409.650117)">0.05</text>
     </g>
    </g>
    <g id="ytick_3">
     <g id="line2d_9">
      <path d="M 90 356.424608 
L 648 356.424608 
" clip-path="url(#pa69ac6e0ec)" style="fill: none; stroke: #cccccc; stroke-width: 0.8; stroke-linecap: round"/>
     </g>
     <g id="text_10">
      <text style="fill: #262626; font: 20px 'Arial', 'DejaVu Sans', 'Liberation Sans', 'Bitstream Vera Sans', sans-serif; text-anchor: end" x="83" y="363.582421" transform="rotate(-0 83 363.582421)">0.10</text>
     </g>
    </g>
    <g id="ytick_4">
     <g id="line2d_10">
      <path d="M 90 310.356912 
L 648 310.356912 
" clip-path="url(#pa69ac6e0ec)" style="fill: none; stroke: #cccccc; stroke-width: 0.8; stroke-linecap: round"/>
     </g>
     <g id="text_11">
      <text style="fill: #262626; font: 20px 'Arial', 'DejaVu Sans', 'Liberation Sans', 'Bitstream Vera Sans', sans-serif; text-anchor: end" x="83" y="317.514725" transform="rotate(-0 83 317.514725)">0.15</text>
     </g>
    </g>
    <g id="ytick_5">
     <g id="line2d_11">
      <path d="M 90 264.289216 
L 648 264.289216 
" clip-path="url(#pa69ac6e0ec)" style="fill: none; stroke: #cccccc; stroke-width: 0.8; stroke-linecap: round"/>
     </g>
     <g id="text_12">
      <text style="fill: #262626; font: 20px 'Arial', 'DejaVu Sans', 'Liberation Sans', 'Bitstream Vera Sans', sans-serif; text-anchor: end" x="83" y="271.447029" transform="rotate(-0 83 271.447029)">0.20</text>
     </g>
    </g>
    <g id="ytick_6">
     <g id="line2d_12">
      <path d="M 90 218.22152 
L 648 218.22152 
" clip-path="url(#pa69ac6e0ec)" style="fill: none; stroke: #cccccc; stroke-width: 0.8; stroke-linecap: round"/>
     </g>
     <g id="text_13">
      <text style="fill: #262626; font: 20px 'Arial', 'DejaVu Sans', 'Liberation Sans', 'Bitstream Vera Sans', sans-serif; text-anchor: end" x="83" y="225.379333" transform="rotate(-0 83 225.379333)">0.25</text>
     </g>
    </g>
    <g id="ytick_7">
     <g id="line2d_13">
      <path d="M 90 172.153824 
L 648 172.153824 
" clip-path="url(#pa69ac6e0ec)" style="fill: none; stroke: #cccccc; stroke-width: 0.8; stroke-linecap: round"/>
     </g>
     <g id="text_14">
      <text style="fill: #262626; font: 20px 'Arial', 'DejaVu Sans', 'Liberation Sans', 'Bitstream Vera Sans', sans-serif; text-anchor: end" x="83" y="179.311637" transform="rotate(-0 83 179.311637)">0.30</text>
     </g>
    </g>
    <g id="ytick_8">
     <g id="line2d_14">
      <path d="M 90 126.086129 
L 648 126.086129 
" clip-path="url(#pa69ac6e0ec)" style="fill: none; stroke: #cccccc; stroke-width: 0.8; stroke-linecap: round"/>
     </g>
     <g id="text_15">
      <text style="fill: #262626; font: 20px 'Arial', 'DejaVu Sans', 'Liberation Sans', 'Bitstream Vera Sans', sans-serif; text-anchor: end" x="83" y="133.243941" transform="rotate(-0 83 133.243941)">0.35</text>
     </g>
    </g>
    <g id="ytick_9">
     <g id="line2d_15">
      <path d="M 90 80.018433 
L 648 80.018433 
" clip-path="url(#pa69ac6e0ec)" style="fill: none; stroke: #cccccc; stroke-width: 0.8; stroke-linecap: round"/>
     </g>
     <g id="text_16">
      <text style="fill: #262626; font: 20px 'Arial', 'DejaVu Sans', 'Liberation Sans', 'Bitstream Vera Sans', sans-serif; text-anchor: end" x="83" y="87.176245" transform="rotate(-0 83 87.176245)">0.40</text>
     </g>
    </g>
    <g id="text_17">
     <!-- $x_{3}$ -->
     <g style="fill: #262626" transform="translate(36.103125 265.22) rotate(-90)">
      <text>
       <tspan style="font: oblique 20px 'DejaVu Sans'" x="0" y="-0.0625">x</tspan>
       <tspan style="font: 14px 'DejaVu Sans'" x="11.835938" y="3.21875">3</tspan>
      </text>
     </g>
    </g>
   </g>
   <g id="line2d_16">
    <path d="M 622.981928 218.22152 
L 591.677283 218.866468 
L 579.105143 219.373155 
L 566.305629 219.745741 
L 554.284842 219.981267 
L 542.857349 220.077286 
L 531.943867 220.031384 
L 521.472903 219.841233 
L 511.385463 219.504611 
L 501.631952 219.01942 
L 492.170413 218.383711 
L 482.965073 217.595705 
L 473.985204 216.653821 
L 465.204211 215.5567 
L 456.598898 214.303241 
L 448.148886 212.892623 
L 439.836127 211.32435 
L 431.64453 209.598277 
L 423.559644 207.714654 
L 415.568416 205.674165 
L 407.658987 203.477969 
L 399.820544 201.127743 
L 392.043201 198.625725 
L 384.317907 195.974762 
L 376.636389 193.178349 
L 368.991113 190.240677 
L 361.375263 187.166669 
L 353.78274 183.962022 
L 346.208173 180.633238 
L 331.095221 173.633456 
L 316.009194 166.236344 
L 300.937067 158.524783 
L 278.366511 146.581874 
L 233.813635 122.769034 
L 219.400225 115.311304 
L 205.386795 108.301113 
L 191.914524 101.85166 
L 179.142603 96.061806 
L 167.243693 91.012044 
L 156.397992 86.761583 
L 146.786195 83.346817 
L 138.581754 80.781246 
L 131.942938 79.056807 
L 127.005211 78.146359 
L 125.208636 77.983488 
L 123.874336 78.006997 
L 123.009927 78.209676 
L 122.620494 78.583809 
L 122.708475 79.121285 
L 123.273556 79.813709 
L 124.312587 80.652508 
L 125.819523 81.629021 
L 127.785376 82.734587 
L 133.043087 85.298658 
L 139.954927 88.277996 
L 148.344789 91.609636 
L 157.995385 95.235442 
L 174.277932 101.111934 
L 203.885308 111.709961 
L 215.774541 116.126555 
L 227.314911 120.601843 
L 238.306261 125.113114 
L 248.594038 129.641226 
L 258.071134 134.17015 
L 266.675825 138.686564 
L 274.38664 143.179468 
L 281.215318 147.639848 
L 287.198986 152.060378 
L 292.392501 156.435159 
L 296.86162 160.759487 
L 300.677351 165.029668 
L 303.91161 169.242842 
L 306.634102 173.396848 
L 308.910262 177.490104 
L 310.800065 181.521507 
L 312.357466 185.490346 
L 313.630311 189.396239 
L 314.660542 193.239068 
L 315.484604 197.018931 
L 316.401664 202.571316 
L 317.012344 207.984205 
L 317.385811 213.25965 
L 317.606554 220.084017 
L 317.596909 226.674851 
L 317.363904 234.595611 
L 316.87766 243.653117 
L 316.036121 255.010953 
L 314.729845 269.383239 
L 312.796173 287.97707 
L 310.212233 310.593376 
L 307.294181 334.198745 
L 304.533911 354.764204 
L 302.110654 371.230608 
L 299.928454 384.588653 
L 297.97025 395.232353 
L 296.216807 403.583743 
L 294.59187 410.27523 
L 293.089544 415.550229 
L 291.681557 419.709526 
L 290.360536 422.94483 
L 289.116623 425.424207 
L 287.973123 427.229071 
L 287.325341 428.053248 
L 287.325341 428.053248 
" clip-path="url(#pa69ac6e0ec)" style="fill: none; stroke: #ff0000; stroke-width: 3; stroke-linecap: round"/>
   </g>
   <g id="line2d_17">
    <defs>
     <path id="m25d2883248" d="M 0 3 
C 0.795609 3 1.55874 2.683901 2.12132 2.12132 
C 2.683901 1.55874 3 0.795609 3 0 
C 3 -0.795609 2.683901 -1.55874 2.12132 -2.12132 
C 1.55874 -2.683901 0.795609 -3 0 -3 
C -0.795609 -3 -1.55874 -2.683901 -2.12132 -2.12132 
C -2.683901 -1.55874 -3 -0.795609 -3 0 
C -3 0.795609 -2.683901 1.55874 -2.12132 2.12132 
C -1.55874 2.683901 -0.795609 3 0 3 
z
" style="stroke: #ff0000"/>
    </defs>
    <g clip-path="url(#pa69ac6e0ec)">
     <use xlink:href="#m25d2883248" x="287.325341" y="428.053248" style="fill: #ff0000; stroke: #ff0000"/>
    </g>
   </g>
   <g id="patch_3">
    <path d="M 90 448.56 
L 90 60.48 
" style="fill: none; stroke: #cccccc; stroke-width: 0.8; stroke-linejoin: miter; stroke-linecap: square"/>
   </g>
   <g id="patch_4">
    <path d="M 648 448.56 
L 648 60.48 
" style="fill: none; stroke: #cccccc; stroke-width: 0.8; stroke-linejoin: miter; stroke-linecap: square"/>
   </g>
   <g id="patch_5">
    <path d="M 90 448.56 
L 648 448.56 
" style="fill: none; stroke: #cccccc; stroke-width: 0.8; stroke-linejoin: miter; stroke-linecap: square"/>
   </g>
   <g id="patch_6">
    <path d="M 90 60.48 
L 648 60.48 
" style="fill: none; stroke: #cccccc; stroke-width: 0.8; stroke-linejoin: miter; stroke-linecap: square"/>
   </g>
   <g id="line2d_18">
    <defs>
     <path id="m293b4bb050" d="M 0 3 
C 0.795609 3 1.55874 2.683901 2.12132 2.12132 
C 2.683901 1.55874 3 0.795609 3 0 
C 3 -0.795609 2.683901 -1.55874 2.12132 -2.12132 
C 1.55874 -2.683901 0.795609 -3 0 -3 
C -0.795609 -3 -1.55874 -2.683901 -2.12132 -2.12132 
C -2.683901 -1.55874 -3 -0.795609 -3 0 
C -3 0.795609 -2.683901 1.55874 -2.12132 2.12132 
C -1.55874 2.683901 -0.795609 3 0 3 
z
" style="stroke: #0000ff"/>
    </defs>
    <g clip-path="url(#pa69ac6e0ec)">
     <use xlink:href="#m293b4bb050" x="622.981928" y="218.22152" style="fill: #0000ff; stroke: #0000ff"/>
    </g>
   </g>
   <g id="legend_1">
    <g id="patch_7">
     <path d="M 366.840625 438.56 
L 634 438.56 
Q 638 438.56 638 434.56 
L 638 379.97875 
Q 638 375.97875 634 375.97875 
L 366.840625 375.97875 
Q 362.840625 375.97875 362.840625 379.97875 
L 362.840625 434.56 
Q 362.840625 438.56 366.840625 438.56 
z
" style="fill: #ffffff; opacity: 0.8; stroke: #cccccc; stroke-linejoin: miter"/>
    </g>
    <g id="line2d_19">
     <g>
      <use xlink:href="#m293b4bb050" x="390.840625" y="391.294375" style="fill: #0000ff; stroke: #0000ff"/>
     </g>
    </g>
    <g id="text_18">
     <text style="fill: #262626; font: 20px 'Arial', 'DejaVu Sans', 'Liberation Sans', 'Bitstream Vera Sans', sans-serif; text-anchor: start" x="426.840625" y="398.294375" transform="rotate(-0 426.840625 398.294375)">Начальное состояние</text>
    </g>
    <g id="line2d_20">
     <g>
      <use xlink:href="#m25d2883248" x="390.840625" y="419.585" style="fill: #ff0000; stroke: #ff0000"/>
     </g>
    </g>
    <g id="text_19">
     <text style="fill: #262626; font: 20px 'Arial', 'DejaVu Sans', 'Liberation Sans', 'Bitstream Vera Sans', sans-serif; text-anchor: start" x="426.840625" y="426.585" transform="rotate(-0 426.840625 426.585)">Конечное состояние</text>
    </g>
   </g>
  </g>
 </g>
 <defs>
  <clipPath id="pa69ac6e0ec">
   <rect x="90" y="60.48" width="558" height="388.08"/>
  </clipPath>
 </defs>
</svg>
