<?xml version="1.0" encoding="utf-8" standalone="no"?>
<!DOCTYPE svg PUBLIC "-//W3C//DTD SVG 1.1//EN"
  "http://www.w3.org/Graphics/SVG/1.1/DTD/svg11.dtd">
<svg xmlns:xlink="http://www.w3.org/1999/xlink" width="720pt" height="504pt" viewBox="0 0 720 504" xmlns="http://www.w3.org/2000/svg" version="1.1">
 <metadata>
  <rdf:RDF xmlns:dc="http://purl.org/dc/elements/1.1/" xmlns:cc="http://creativecommons.org/ns#" xmlns:rdf="http://www.w3.org/1999/02/22-rdf-syntax-ns#">
   <cc:Work>
    <dc:type rdf:resource="http://purl.org/dc/dcmitype/StillImage"/>
    <dc:date>2024-09-28T18:21:15.864115</dc:date>
    <dc:format>image/svg+xml</dc:format>
    <dc:creator>
     <cc:Agent>
      <dc:title>Matplotlib v3.7.2, https://matplotlib.org/</dc:title>
     </cc:Agent>
    </dc:creator>
   </cc:Work>
  </rdf:RDF>
 </metadata>
 <defs>
  <style type="text/css">*{stroke-linejoin: round; stroke-linecap: butt}</style>
 </defs>
 <g id="figure_1">
  <g id="patch_1">
   <path d="M 0 504 
L 720 504 
L 720 0 
L 0 0 
z
" style="fill: #ffffff"/>
  </g>
  <g id="axes_1">
   <g id="patch_2">
    <path d="M 90 448.56 
L 648 448.56 
L 648 60.48 
L 90 60.48 
z
" style="fill: #ffffff"/>
   </g>
   <g id="matplotlib.axis_1">
    <g id="xtick_1">
     <g id="line2d_1">
      <path d="M 116.887637 448.56 
L 116.887637 60.48 
" clip-path="url(#p7f5c0f9b0b)" style="fill: none; stroke: #cccccc; stroke-width: 0.8; stroke-linecap: round"/>
     </g>
     <g id="text_1">
      <text style="fill: #262626; font: 20px 'Arial', 'DejaVu Sans', 'Liberation Sans', 'Bitstream Vera Sans', sans-serif; text-anchor: middle" x="116.887637" y="469.875625" transform="rotate(-0 116.887637 469.875625)">0.2</text>
     </g>
    </g>
    <g id="xtick_2">
     <g id="line2d_2">
      <path d="M 207.710934 448.56 
L 207.710934 60.48 
" clip-path="url(#p7f5c0f9b0b)" style="fill: none; stroke: #cccccc; stroke-width: 0.8; stroke-linecap: round"/>
     </g>
     <g id="text_2">
      <text style="fill: #262626; font: 20px 'Arial', 'DejaVu Sans', 'Liberation Sans', 'Bitstream Vera Sans', sans-serif; text-anchor: middle" x="207.710934" y="469.875625" transform="rotate(-0 207.710934 469.875625)">0.4</text>
     </g>
    </g>
    <g id="xtick_3">
     <g id="line2d_3">
      <path d="M 298.534232 448.56 
L 298.534232 60.48 
" clip-path="url(#p7f5c0f9b0b)" style="fill: none; stroke: #cccccc; stroke-width: 0.8; stroke-linecap: round"/>
     </g>
     <g id="text_3">
      <text style="fill: #262626; font: 20px 'Arial', 'DejaVu Sans', 'Liberation Sans', 'Bitstream Vera Sans', sans-serif; text-anchor: middle" x="298.534232" y="469.875625" transform="rotate(-0 298.534232 469.875625)">0.6</text>
     </g>
    </g>
    <g id="xtick_4">
     <g id="line2d_4">
      <path d="M 389.357529 448.56 
L 389.357529 60.48 
" clip-path="url(#p7f5c0f9b0b)" style="fill: none; stroke: #cccccc; stroke-width: 0.8; stroke-linecap: round"/>
     </g>
     <g id="text_4">
      <text style="fill: #262626; font: 20px 'Arial', 'DejaVu Sans', 'Liberation Sans', 'Bitstream Vera Sans', sans-serif; text-anchor: middle" x="389.357529" y="469.875625" transform="rotate(-0 389.357529 469.875625)">0.8</text>
     </g>
    </g>
    <g id="xtick_5">
     <g id="line2d_5">
      <path d="M 480.180826 448.56 
L 480.180826 60.48 
" clip-path="url(#p7f5c0f9b0b)" style="fill: none; stroke: #cccccc; stroke-width: 0.8; stroke-linecap: round"/>
     </g>
     <g id="text_5">
      <text style="fill: #262626; font: 20px 'Arial', 'DejaVu Sans', 'Liberation Sans', 'Bitstream Vera Sans', sans-serif; text-anchor: middle" x="480.180826" y="469.875625" transform="rotate(-0 480.180826 469.875625)">1.0</text>
     </g>
    </g>
    <g id="xtick_6">
     <g id="line2d_6">
      <path d="M 571.004124 448.56 
L 571.004124 60.48 
" clip-path="url(#p7f5c0f9b0b)" style="fill: none; stroke: #cccccc; stroke-width: 0.8; stroke-linecap: round"/>
     </g>
     <g id="text_6">
      <text style="fill: #262626; font: 20px 'Arial', 'DejaVu Sans', 'Liberation Sans', 'Bitstream Vera Sans', sans-serif; text-anchor: middle" x="571.004124" y="469.875625" transform="rotate(-0 571.004124 469.875625)">1.2</text>
     </g>
    </g>
    <g id="text_7">
     <!-- $x_{2}$ -->
     <g style="fill: #262626" transform="translate(358.3 492.16625)">
      <text>
       <tspan style="font: oblique 20px 'DejaVu Sans'" x="0" y="-0.0625">x</tspan>
       <tspan style="font: 14px 'DejaVu Sans'" x="11.835938" y="3.21875">2</tspan>
      </text>
     </g>
    </g>
   </g>
   <g id="matplotlib.axis_2">
    <g id="ytick_1">
     <g id="line2d_7">
      <path d="M 90 448.56 
L 648 448.56 
" clip-path="url(#p7f5c0f9b0b)" style="fill: none; stroke: #cccccc; stroke-width: 0.8; stroke-linecap: round"/>
     </g>
     <g id="text_8">
      <text style="fill: #262626; font: 20px 'Arial', 'DejaVu Sans', 'Liberation Sans', 'Bitstream Vera Sans', sans-serif; text-anchor: end" x="83" y="455.717813" transform="rotate(-0 83 455.717813)">0.00</text>
     </g>
    </g>
    <g id="ytick_2">
     <g id="line2d_8">
      <path d="M 90 402.492304 
L 648 402.492304 
" clip-path="url(#p7f5c0f9b0b)" style="fill: none; stroke: #cccccc; stroke-width: 0.8; stroke-linecap: round"/>
     </g>
     <g id="text_9">
      <text style="fill: #262626; font: 20px 'Arial', 'DejaVu Sans', 'Liberation Sans', 'Bitstream Vera Sans', sans-serif; text-anchor: end" x="83" y="409.650117" transform="rotate(-0 83 409.650117)">0.05</text>
     </g>
    </g>
    <g id="ytick_3">
     <g id="line2d_9">
      <path d="M 90 356.424608 
L 648 356.424608 
" clip-path="url(#p7f5c0f9b0b)" style="fill: none; stroke: #cccccc; stroke-width: 0.8; stroke-linecap: round"/>
     </g>
     <g id="text_10">
      <text style="fill: #262626; font: 20px 'Arial', 'DejaVu Sans', 'Liberation Sans', 'Bitstream Vera Sans', sans-serif; text-anchor: end" x="83" y="363.582421" transform="rotate(-0 83 363.582421)">0.10</text>
     </g>
    </g>
    <g id="ytick_4">
     <g id="line2d_10">
      <path d="M 90 310.356912 
L 648 310.356912 
" clip-path="url(#p7f5c0f9b0b)" style="fill: none; stroke: #cccccc; stroke-width: 0.8; stroke-linecap: round"/>
     </g>
     <g id="text_11">
      <text style="fill: #262626; font: 20px 'Arial', 'DejaVu Sans', 'Liberation Sans', 'Bitstream Vera Sans', sans-serif; text-anchor: end" x="83" y="317.514725" transform="rotate(-0 83 317.514725)">0.15</text>
     </g>
    </g>
    <g id="ytick_5">
     <g id="line2d_11">
      <path d="M 90 264.289216 
L 648 264.289216 
" clip-path="url(#p7f5c0f9b0b)" style="fill: none; stroke: #cccccc; stroke-width: 0.8; stroke-linecap: round"/>
     </g>
     <g id="text_12">
      <text style="fill: #262626; font: 20px 'Arial', 'DejaVu Sans', 'Liberation Sans', 'Bitstream Vera Sans', sans-serif; text-anchor: end" x="83" y="271.447029" transform="rotate(-0 83 271.447029)">0.20</text>
     </g>
    </g>
    <g id="ytick_6">
     <g id="line2d_12">
      <path d="M 90 218.22152 
L 648 218.22152 
" clip-path="url(#p7f5c0f9b0b)" style="fill: none; stroke: #cccccc; stroke-width: 0.8; stroke-linecap: round"/>
     </g>
     <g id="text_13">
      <text style="fill: #262626; font: 20px 'Arial', 'DejaVu Sans', 'Liberation Sans', 'Bitstream Vera Sans', sans-serif; text-anchor: end" x="83" y="225.379333" transform="rotate(-0 83 225.379333)">0.25</text>
     </g>
    </g>
    <g id="ytick_7">
     <g id="line2d_13">
      <path d="M 90 172.153824 
L 648 172.153824 
" clip-path="url(#p7f5c0f9b0b)" style="fill: none; stroke: #cccccc; stroke-width: 0.8; stroke-linecap: round"/>
     </g>
     <g id="text_14">
      <text style="fill: #262626; font: 20px 'Arial', 'DejaVu Sans', 'Liberation Sans', 'Bitstream Vera Sans', sans-serif; text-anchor: end" x="83" y="179.311637" transform="rotate(-0 83 179.311637)">0.30</text>
     </g>
    </g>
    <g id="ytick_8">
     <g id="line2d_14">
      <path d="M 90 126.086129 
L 648 126.086129 
" clip-path="url(#p7f5c0f9b0b)" style="fill: none; stroke: #cccccc; stroke-width: 0.8; stroke-linecap: round"/>
     </g>
     <g id="text_15">
      <text style="fill: #262626; font: 20px 'Arial', 'DejaVu Sans', 'Liberation Sans', 'Bitstream Vera Sans', sans-serif; text-anchor: end" x="83" y="133.243941" transform="rotate(-0 83 133.243941)">0.35</text>
     </g>
    </g>
    <g id="ytick_9">
     <g id="line2d_15">
      <path d="M 90 80.018433 
L 648 80.018433 
" clip-path="url(#p7f5c0f9b0b)" style="fill: none; stroke: #cccccc; stroke-width: 0.8; stroke-linecap: round"/>
     </g>
     <g id="text_16">
      <text style="fill: #262626; font: 20px 'Arial', 'DejaVu Sans', 'Liberation Sans', 'Bitstream Vera Sans', sans-serif; text-anchor: end" x="83" y="87.176245" transform="rotate(-0 83 87.176245)">0.40</text>
     </g>
    </g>
    <g id="text_17">
     <!-- $x_{3}$ -->
     <g style="fill: #262626" transform="translate(36.103125 265.22) rotate(-90)">
      <text>
       <tspan style="font: oblique 20px 'DejaVu Sans'" x="0" y="-0.0625">x</tspan>
       <tspan style="font: 14px 'DejaVu Sans'" x="11.835938" y="3.21875">3</tspan>
      </text>
     </g>
    </g>
   </g>
   <g id="line2d_16">
    <defs>
     <path id="m0a4aebba10" d="M 0 3 
C 0.795609 3 1.55874 2.683901 2.12132 2.12132 
C 2.683901 1.55874 3 0.795609 3 0 
C 3 -0.795609 2.683901 -1.55874 2.12132 -2.12132 
C 1.55874 -2.683901 0.795609 -3 0 -3 
C -0.795609 -3 -1.55874 -2.683901 -2.12132 -2.12132 
C -2.683901 -1.55874 -3 -0.795609 -3 0 
C -3 0.795609 -2.683901 1.55874 -2.12132 2.12132 
C -1.55874 2.683901 -0.795609 3 0 3 
z
" style="stroke: #0000ff"/>
    </defs>
    <g clip-path="url(#p7f5c0f9b0b)">
     <use xlink:href="#m0a4aebba10" x="207.710934" y="218.22152" style="fill: #0000ff; stroke: #0000ff"/>
    </g>
   </g>
   <g id="line2d_17">
    <defs>
     <path id="m40f011e16c" d="M 0 3 
C 0.795609 3 1.55874 2.683901 2.12132 2.12132 
C 2.683901 1.55874 3 0.795609 3 0 
C 3 -0.795609 2.683901 -1.55874 2.12132 -2.12132 
C 1.55874 -2.683901 0.795609 -3 0 -3 
C -0.795609 -3 -1.55874 -2.683901 -2.12132 -2.12132 
C -2.683901 -1.55874 -3 -0.795609 -3 0 
C -3 0.795609 -2.683901 1.55874 -2.12132 2.12132 
C -1.55874 2.683901 -0.795609 3 0 3 
z
" style="stroke: #ff0000"/>
    </defs>
    <g clip-path="url(#p7f5c0f9b0b)">
     <use xlink:href="#m40f011e16c" x="278.108058" y="428.053248" style="fill: #ff0000; stroke: #ff0000"/>
    </g>
   </g>
   <g id="line2d_18">
    <path d="M 207.710934 218.22152 
L 222.698686 218.866468 
L 237.337342 219.373155 
L 252.382557 219.745741 
L 267.753418 219.981267 
L 283.419731 220.077286 
L 299.343219 220.031384 
L 315.482199 219.841233 
L 331.791315 219.504611 
L 348.221749 219.01942 
L 364.721416 218.383711 
L 381.235195 217.595705 
L 397.705193 216.653821 
L 414.071036 215.5567 
L 430.270187 214.303241 
L 446.238295 212.892623 
L 461.909573 211.32435 
L 477.217188 209.598277 
L 492.093688 207.714654 
L 506.47144 205.674165 
L 520.283094 203.477969 
L 533.462056 201.127743 
L 545.94298 198.625725 
L 557.662278 195.974762 
L 568.558628 193.178349 
L 578.573498 190.240677 
L 587.651671 187.166669 
L 595.741765 183.962022 
L 602.796754 180.633238 
L 608.774476 177.187652 
L 613.638122 173.633456 
L 617.356708 169.97971 
L 619.905513 166.236344 
L 621.26648 162.414155 
L 621.428571 158.524783 
L 620.388074 154.580683 
L 618.148834 150.595073 
L 614.722428 146.581874 
L 610.12825 142.555636 
L 604.39351 138.53144 
L 597.553145 134.524796 
L 589.649627 130.551517 
L 580.732667 126.627592 
L 570.858819 122.769034 
L 560.090982 118.991735 
L 548.497795 115.311304 
L 536.152951 111.742908 
L 523.134417 108.301113 
L 509.523588 104.999727 
L 495.40438 101.85166 
L 480.862283 98.868782 
L 465.983393 96.061806 
L 450.853442 93.440189 
L 435.556841 91.012044 
L 420.175765 88.784083 
L 404.789297 86.761583 
L 389.472641 84.948367 
L 374.296435 83.346817 
L 359.326155 81.957905 
L 344.621646 80.781246 
L 330.23676 79.81517 
L 316.219122 79.056807 
L 302.610008 78.502189 
L 289.444347 78.146359 
L 276.750818 77.983488 
L 264.552049 78.006997 
L 252.864896 78.209676 
L 241.70079 78.583809 
L 231.066139 79.121285 
L 220.962769 79.813709 
L 211.388389 80.652508 
L 202.337069 81.629021 
L 193.799719 82.734587 
L 185.764557 83.960615 
L 178.217554 85.298658 
L 171.142864 86.740457 
L 164.523209 88.277996 
L 158.340246 89.903534 
L 152.574884 91.609636 
L 147.207571 93.389195 
L 142.218549 95.235442 
L 137.588063 97.141963 
L 133.296544 99.102696 
L 129.324763 101.111934 
L 125.653951 103.164318 
L 122.265898 105.254834 
L 119.143027 107.378801 
L 116.26845 109.53186 
L 113.626008 111.709961 
L 111.200294 113.90935 
L 108.976666 116.126555 
L 106.941247 118.35837 
L 105.080922 120.601843 
L 103.383326 122.854255 
L 101.836822 125.113114 
L 100.430485 127.376135 
L 97.998001 131.906478 
L 96.011666 136.430659 
L 94.406877 140.936561 
L 93.127693 145.414217 
L 92.125899 149.855494 
L 91.36011 154.253807 
L 90.794932 158.603882 
L 90.258553 165.029668 
L 90.023245 171.327352 
L 90.023833 177.490104 
L 90.305547 185.490346 
L 90.82756 193.239068 
L 91.721735 202.571316 
L 92.80516 211.516296 
L 94.275615 221.753354 
L 96.148216 233.039107 
L 98.132719 243.653117 
L 100.492166 255.010953 
L 102.919472 265.599579 
L 105.396231 275.473561 
L 108.227868 285.791324 
L 111.097798 295.337317 
L 113.999234 304.173977 
L 116.927217 312.358588 
L 119.877793 319.943636 
L 122.847573 326.977172 
L 125.833492 333.503179 
L 128.832678 339.561913 
L 132.177311 345.790516 
L 135.531233 351.533723 
L 138.890832 356.833315 
L 142.252549 361.727202 
L 145.612866 366.249798 
L 149.303452 370.833025 
L 152.983574 375.042376 
L 156.648738 378.911738 
L 160.624855 382.780911 
L 164.572314 386.31736 
L 168.810063 389.809882 
L 173.001066 392.985284 
L 177.454777 396.086942 
L 182.149425 399.083275 
L 187.059241 401.948591 
L 192.154312 404.66297 
L 197.40057 407.211958 
L 203.036715 409.702883 
L 208.985961 412.085263 
L 215.159696 414.32014 
L 221.692858 416.452436 
L 228.638943 418.488016 
L 236.142455 420.451188 
L 244.12671 422.304117 
L 252.526078 424.0227 
L 261.430084 425.616431 
L 270.820272 427.069256 
L 278.108058 428.053248 
L 278.108058 428.053248 
" clip-path="url(#p7f5c0f9b0b)" style="fill: none; stroke: #ff0000; stroke-width: 3; stroke-linecap: round"/>
   </g>
   <g id="patch_3">
    <path d="M 90 448.56 
L 90 60.48 
" style="fill: none; stroke: #cccccc; stroke-width: 0.8; stroke-linejoin: miter; stroke-linecap: square"/>
   </g>
   <g id="patch_4">
    <path d="M 648 448.56 
L 648 60.48 
" style="fill: none; stroke: #cccccc; stroke-width: 0.8; stroke-linejoin: miter; stroke-linecap: square"/>
   </g>
   <g id="patch_5">
    <path d="M 90 448.56 
L 648 448.56 
" style="fill: none; stroke: #cccccc; stroke-width: 0.8; stroke-linejoin: miter; stroke-linecap: square"/>
   </g>
   <g id="patch_6">
    <path d="M 90 60.48 
L 648 60.48 
" style="fill: none; stroke: #cccccc; stroke-width: 0.8; stroke-linejoin: miter; stroke-linecap: square"/>
   </g>
   <g id="legend_1">
    <g id="patch_7">
     <path d="M 366.840625 438.56 
L 634 438.56 
Q 638 438.56 638 434.56 
L 638 379.97875 
Q 638 375.97875 634 375.97875 
L 366.840625 375.97875 
Q 362.840625 375.97875 362.840625 379.97875 
L 362.840625 434.56 
Q 362.840625 438.56 366.840625 438.56 
z
" style="fill: #ffffff; opacity: 0.8; stroke: #cccccc; stroke-linejoin: miter"/>
    </g>
    <g id="line2d_19">
     <g>
      <use xlink:href="#m0a4aebba10" x="390.840625" y="391.294375" style="fill: #0000ff; stroke: #0000ff"/>
     </g>
    </g>
    <g id="text_18">
     <text style="fill: #262626; font: 20px 'Arial', 'DejaVu Sans', 'Liberation Sans', 'Bitstream Vera Sans', sans-serif; text-anchor: start" x="426.840625" y="398.294375" transform="rotate(-0 426.840625 398.294375)">Начальное состояние</text>
    </g>
    <g id="line2d_20">
     <g>
      <use xlink:href="#m40f011e16c" x="390.840625" y="419.585" style="fill: #ff0000; stroke: #ff0000"/>
     </g>
    </g>
    <g id="text_19">
     <text style="fill: #262626; font: 20px 'Arial', 'DejaVu Sans', 'Liberation Sans', 'Bitstream Vera Sans', sans-serif; text-anchor: start" x="426.840625" y="426.585" transform="rotate(-0 426.840625 426.585)">Конечное состояние</text>
    </g>
   </g>
  </g>
 </g>
 <defs>
  <clipPath id="p7f5c0f9b0b">
   <rect x="90" y="60.48" width="558" height="388.08"/>
  </clipPath>
 </defs>
</svg>
