<?xml version="1.0" encoding="utf-8" standalone="no"?>
<!DOCTYPE svg PUBLIC "-//W3C//DTD SVG 1.1//EN"
  "http://www.w3.org/Graphics/SVG/1.1/DTD/svg11.dtd">
<svg xmlns:xlink="http://www.w3.org/1999/xlink" width="720pt" height="504pt" viewBox="0 0 720 504" xmlns="http://www.w3.org/2000/svg" version="1.1">
 <metadata>
  <rdf:RDF xmlns:dc="http://purl.org/dc/elements/1.1/" xmlns:cc="http://creativecommons.org/ns#" xmlns:rdf="http://www.w3.org/1999/02/22-rdf-syntax-ns#">
   <cc:Work>
    <dc:type rdf:resource="http://purl.org/dc/dcmitype/StillImage"/>
    <dc:date>2024-09-29T05:49:28.447088</dc:date>
    <dc:format>image/svg+xml</dc:format>
    <dc:creator>
     <cc:Agent>
      <dc:title>Matplotlib v3.9.2, https://matplotlib.org/</dc:title>
     </cc:Agent>
    </dc:creator>
   </cc:Work>
  </rdf:RDF>
 </metadata>
 <defs>
  <style type="text/css">*{stroke-linejoin: round; stroke-linecap: butt}</style>
 </defs>
 <g id="figure_1">
  <g id="patch_1">
   <path d="M 0 504 
L 720 504 
L 720 0 
L 0 0 
z
" style="fill: #ffffff"/>
  </g>
  <g id="axes_1">
   <g id="patch_2">
    <path d="M 90 448.56 
L 648 448.56 
L 648 60.48 
L 90 60.48 
z
" style="fill: #ffffff"/>
   </g>
   <g id="matplotlib.axis_1">
    <g id="xtick_1">
     <g id="line2d_1">
      <path d="M 90 448.56 
L 90 60.48 
" clip-path="url(#pb7b7784d0e)" style="fill: none; stroke: #cccccc; stroke-width: 0.8; stroke-linecap: round"/>
     </g>
     <g id="text_1">
      <text style="fill: #262626; font: 20px 'Arial', 'DejaVu Sans', 'Liberation Sans', 'Bitstream Vera Sans', sans-serif; text-anchor: middle" x="90" y="469.875625" transform="rotate(-0 90 469.875625)">−0.2</text>
     </g>
    </g>
    <g id="xtick_2">
     <g id="line2d_2">
      <path d="M 186.905805 448.56 
L 186.905805 60.48 
" clip-path="url(#pb7b7784d0e)" style="fill: none; stroke: #cccccc; stroke-width: 0.8; stroke-linecap: round"/>
     </g>
     <g id="text_2">
      <text style="fill: #262626; font: 20px 'Arial', 'DejaVu Sans', 'Liberation Sans', 'Bitstream Vera Sans', sans-serif; text-anchor: middle" x="186.905805" y="469.875625" transform="rotate(-0 186.905805 469.875625)">−0.1</text>
     </g>
    </g>
    <g id="xtick_3">
     <g id="line2d_3">
      <path d="M 283.81161 448.56 
L 283.81161 60.48 
" clip-path="url(#pb7b7784d0e)" style="fill: none; stroke: #cccccc; stroke-width: 0.8; stroke-linecap: round"/>
     </g>
     <g id="text_3">
      <text style="fill: #262626; font: 20px 'Arial', 'DejaVu Sans', 'Liberation Sans', 'Bitstream Vera Sans', sans-serif; text-anchor: middle" x="283.81161" y="469.875625" transform="rotate(-0 283.81161 469.875625)">0.0</text>
     </g>
    </g>
    <g id="xtick_4">
     <g id="line2d_4">
      <path d="M 380.717415 448.56 
L 380.717415 60.48 
" clip-path="url(#pb7b7784d0e)" style="fill: none; stroke: #cccccc; stroke-width: 0.8; stroke-linecap: round"/>
     </g>
     <g id="text_4">
      <text style="fill: #262626; font: 20px 'Arial', 'DejaVu Sans', 'Liberation Sans', 'Bitstream Vera Sans', sans-serif; text-anchor: middle" x="380.717415" y="469.875625" transform="rotate(-0 380.717415 469.875625)">0.1</text>
     </g>
    </g>
    <g id="xtick_5">
     <g id="line2d_5">
      <path d="M 477.623221 448.56 
L 477.623221 60.48 
" clip-path="url(#pb7b7784d0e)" style="fill: none; stroke: #cccccc; stroke-width: 0.8; stroke-linecap: round"/>
     </g>
     <g id="text_5">
      <text style="fill: #262626; font: 20px 'Arial', 'DejaVu Sans', 'Liberation Sans', 'Bitstream Vera Sans', sans-serif; text-anchor: middle" x="477.623221" y="469.875625" transform="rotate(-0 477.623221 469.875625)">0.2</text>
     </g>
    </g>
    <g id="xtick_6">
     <g id="line2d_6">
      <path d="M 574.529026 448.56 
L 574.529026 60.48 
" clip-path="url(#pb7b7784d0e)" style="fill: none; stroke: #cccccc; stroke-width: 0.8; stroke-linecap: round"/>
     </g>
     <g id="text_6">
      <text style="fill: #262626; font: 20px 'Arial', 'DejaVu Sans', 'Liberation Sans', 'Bitstream Vera Sans', sans-serif; text-anchor: middle" x="574.529026" y="469.875625" transform="rotate(-0 574.529026 469.875625)">0.3</text>
     </g>
    </g>
    <g id="text_7">
     <!-- $x_{1}$ -->
     <g style="fill: #262626" transform="translate(358.3 492.16625)">
      <text>
       <tspan style="font: oblique 20px 'DejaVu Sans'" x="0" y="-0.0625">x</tspan>
       <tspan style="font: 14px 'DejaVu Sans'" x="11.835938" y="3.21875">1</tspan>
      </text>
     </g>
    </g>
   </g>
   <g id="matplotlib.axis_2">
    <g id="ytick_1">
     <g id="line2d_7">
      <path d="M 90 448.56 
L 648 448.56 
" clip-path="url(#pb7b7784d0e)" style="fill: none; stroke: #cccccc; stroke-width: 0.8; stroke-linecap: round"/>
     </g>
     <g id="text_8">
      <text style="fill: #262626; font: 20px 'Arial', 'DejaVu Sans', 'Liberation Sans', 'Bitstream Vera Sans', sans-serif; text-anchor: end" x="83" y="455.717813" transform="rotate(-0 83 455.717813)">0.0</text>
     </g>
    </g>
    <g id="ytick_2">
     <g id="line2d_8">
      <path d="M 90 391.887409 
L 648 391.887409 
" clip-path="url(#pb7b7784d0e)" style="fill: none; stroke: #cccccc; stroke-width: 0.8; stroke-linecap: round"/>
     </g>
     <g id="text_9">
      <text style="fill: #262626; font: 20px 'Arial', 'DejaVu Sans', 'Liberation Sans', 'Bitstream Vera Sans', sans-serif; text-anchor: end" x="83" y="399.045222" transform="rotate(-0 83 399.045222)">0.2</text>
     </g>
    </g>
    <g id="ytick_3">
     <g id="line2d_9">
      <path d="M 90 335.214818 
L 648 335.214818 
" clip-path="url(#pb7b7784d0e)" style="fill: none; stroke: #cccccc; stroke-width: 0.8; stroke-linecap: round"/>
     </g>
     <g id="text_10">
      <text style="fill: #262626; font: 20px 'Arial', 'DejaVu Sans', 'Liberation Sans', 'Bitstream Vera Sans', sans-serif; text-anchor: end" x="83" y="342.372631" transform="rotate(-0 83 342.372631)">0.4</text>
     </g>
    </g>
    <g id="ytick_4">
     <g id="line2d_10">
      <path d="M 90 278.542227 
L 648 278.542227 
" clip-path="url(#pb7b7784d0e)" style="fill: none; stroke: #cccccc; stroke-width: 0.8; stroke-linecap: round"/>
     </g>
     <g id="text_11">
      <text style="fill: #262626; font: 20px 'Arial', 'DejaVu Sans', 'Liberation Sans', 'Bitstream Vera Sans', sans-serif; text-anchor: end" x="83" y="285.70004" transform="rotate(-0 83 285.70004)">0.6</text>
     </g>
    </g>
    <g id="ytick_5">
     <g id="line2d_11">
      <path d="M 90 221.869636 
L 648 221.869636 
" clip-path="url(#pb7b7784d0e)" style="fill: none; stroke: #cccccc; stroke-width: 0.8; stroke-linecap: round"/>
     </g>
     <g id="text_12">
      <text style="fill: #262626; font: 20px 'Arial', 'DejaVu Sans', 'Liberation Sans', 'Bitstream Vera Sans', sans-serif; text-anchor: end" x="83" y="229.027449" transform="rotate(-0 83 229.027449)">0.8</text>
     </g>
    </g>
    <g id="ytick_6">
     <g id="line2d_12">
      <path d="M 90 165.197046 
L 648 165.197046 
" clip-path="url(#pb7b7784d0e)" style="fill: none; stroke: #cccccc; stroke-width: 0.8; stroke-linecap: round"/>
     </g>
     <g id="text_13">
      <text style="fill: #262626; font: 20px 'Arial', 'DejaVu Sans', 'Liberation Sans', 'Bitstream Vera Sans', sans-serif; text-anchor: end" x="83" y="172.354858" transform="rotate(-0 83 172.354858)">1.0</text>
     </g>
    </g>
    <g id="ytick_7">
     <g id="line2d_13">
      <path d="M 90 108.524455 
L 648 108.524455 
" clip-path="url(#pb7b7784d0e)" style="fill: none; stroke: #cccccc; stroke-width: 0.8; stroke-linecap: round"/>
     </g>
     <g id="text_14">
      <text style="fill: #262626; font: 20px 'Arial', 'DejaVu Sans', 'Liberation Sans', 'Bitstream Vera Sans', sans-serif; text-anchor: end" x="83" y="115.682267" transform="rotate(-0 83 115.682267)">1.2</text>
     </g>
    </g>
    <g id="text_15">
     <!-- $x_{2}$ -->
     <g style="fill: #262626" transform="translate(47.225 265.22) rotate(-90)">
      <text>
       <tspan style="font: oblique 20px 'DejaVu Sans'" x="0" y="-0.0625">x</tspan>
       <tspan style="font: 14px 'DejaVu Sans'" x="11.835938" y="3.21875">2</tspan>
      </text>
     </g>
    </g>
   </g>
   <g id="line2d_14">
    <path d="M 622.981928 335.214818 
L 591.677283 325.862651 
L 566.305629 307.34029 
L 554.284842 297.749066 
L 542.857349 287.973485 
L 531.943867 278.03743 
L 521.472903 267.96691 
L 511.385463 257.790227 
L 501.631952 247.537844 
L 492.170413 237.24226 
L 482.965073 226.93787 
L 465.204211 206.44872 
L 431.64453 167.046319 
L 423.559644 157.763571 
L 415.568416 148.792034 
L 407.658987 140.173737 
L 399.820544 131.950231 
L 392.043201 124.162292 
L 384.317907 116.849598 
L 376.636389 110.050413 
L 368.991113 103.80126 
L 361.375263 98.136595 
L 353.78274 93.088479 
L 346.208173 88.686255 
L 338.646943 84.956232 
L 331.095221 81.921378 
L 323.550009 79.601027 
L 316.009194 78.010605 
L 308.471602 77.161379 
L 300.937067 77.060236 
L 293.406486 77.709493 
L 285.881891 79.106751 
L 278.366511 81.244784 
L 270.864835 84.111494 
L 263.382665 87.689899 
L 255.927169 91.958201 
L 248.506919 96.889896 
L 241.131923 102.453967 
L 233.813635 108.615123 
L 226.564959 115.334118 
L 219.400225 122.56812 
L 212.335154 130.271147 
L 205.386795 138.394547 
L 198.573441 146.887533 
L 191.914524 155.69774 
L 185.430481 164.771825 
L 179.142603 174.056064 
L 173.072858 183.496963 
L 167.243693 193.041849 
L 161.677821 202.639446 
L 156.397992 212.240408 
L 151.426752 221.797808 
L 146.786195 231.267569 
L 142.497716 240.608835 
L 138.581754 249.784262 
L 135.057557 258.76025 
L 131.942938 267.507079 
L 129.254058 275.998994 
L 127.005211 284.214201 
L 125.208636 292.134802 
L 123.874336 299.74668 
L 123.009927 307.039316 
L 122.620494 314.005577 
L 122.708475 320.641465 
L 123.273556 326.945841 
L 124.312587 332.920133 
L 125.819523 338.568042 
L 127.785376 343.895241 
L 130.198198 348.909081 
L 133.043087 353.618315 
L 136.302221 358.032832 
L 139.954927 362.163413 
L 143.977787 366.021504 
L 148.344789 369.619018 
L 153.027515 372.968153 
L 157.995385 376.081239 
L 163.21594 378.970605 
L 168.655179 381.648458 
L 174.277932 384.126799 
L 180.048271 386.417339 
L 185.929949 388.531442 
L 191.886853 390.480074 
L 197.883464 392.273774 
L 203.885308 393.922624 
L 215.774541 396.823755 
L 227.314911 399.25465 
L 238.306261 401.278927 
L 248.594038 402.95293 
L 262.48474 404.913751 
L 274.38664 406.337626 
L 287.198986 407.594288 
L 296.86162 408.304316 
L 303.91161 408.619664 
L 308.910262 408.650084 
L 312.357466 408.474297 
L 314.660542 408.148568 
L 316.133935 407.713073 
L 317.012344 407.196539 
L 317.467313 406.619575 
L 317.622647 405.997025 
L 317.528078 405.170824 
L 317.142399 404.127786 
L 316.25985 402.490602 
L 309.793794 391.454713 
L 307.838441 387.341541 
L 306.011926 382.97366 
L 304.241684 378.157693 
L 302.484248 372.706474 
L 300.775581 366.662382 
L 299.045602 359.690895 
L 297.310571 351.74651 
L 295.497449 342.367209 
L 293.514418 330.879811 
L 291.065627 315.276237 
L 287.325341 291.287902 
L 287.325341 291.287902 
" clip-path="url(#pb7b7784d0e)" style="fill: none; stroke: #ff0000; stroke-width: 3; stroke-linecap: round"/>
   </g>
   <g id="line2d_15">
    <defs>
     <path id="m99c7f8bbce" d="M 0 3 
C 0.795609 3 1.55874 2.683901 2.12132 2.12132 
C 2.683901 1.55874 3 0.795609 3 0 
C 3 -0.795609 2.683901 -1.55874 2.12132 -2.12132 
C 1.55874 -2.683901 0.795609 -3 0 -3 
C -0.795609 -3 -1.55874 -2.683901 -2.12132 -2.12132 
C -2.683901 -1.55874 -3 -0.795609 -3 0 
C -3 0.795609 -2.683901 1.55874 -2.12132 2.12132 
C -1.55874 2.683901 -0.795609 3 0 3 
z
" style="stroke: #ff0000"/>
    </defs>
    <g clip-path="url(#pb7b7784d0e)">
     <use xlink:href="#m99c7f8bbce" x="287.325341" y="291.287902" style="fill: #ff0000; stroke: #ff0000"/>
    </g>
   </g>
   <g id="patch_3">
    <path d="M 90 448.56 
L 90 60.48 
" style="fill: none; stroke: #cccccc; stroke-width: 0.8; stroke-linejoin: miter; stroke-linecap: square"/>
   </g>
   <g id="patch_4">
    <path d="M 648 448.56 
L 648 60.48 
" style="fill: none; stroke: #cccccc; stroke-width: 0.8; stroke-linejoin: miter; stroke-linecap: square"/>
   </g>
   <g id="patch_5">
    <path d="M 90 448.56 
L 648 448.56 
" style="fill: none; stroke: #cccccc; stroke-width: 0.8; stroke-linejoin: miter; stroke-linecap: square"/>
   </g>
   <g id="patch_6">
    <path d="M 90 60.48 
L 648 60.48 
" style="fill: none; stroke: #cccccc; stroke-width: 0.8; stroke-linejoin: miter; stroke-linecap: square"/>
   </g>
   <g id="line2d_16">
    <defs>
     <path id="m4b3e199771" d="M 0 3 
C 0.795609 3 1.55874 2.683901 2.12132 2.12132 
C 2.683901 1.55874 3 0.795609 3 0 
C 3 -0.795609 2.683901 -1.55874 2.12132 -2.12132 
C 1.55874 -2.683901 0.795609 -3 0 -3 
C -0.795609 -3 -1.55874 -2.683901 -2.12132 -2.12132 
C -2.683901 -1.55874 -3 -0.795609 -3 0 
C -3 0.795609 -2.683901 1.55874 -2.12132 2.12132 
C -1.55874 2.683901 -0.795609 3 0 3 
z
" style="stroke: #0000ff"/>
    </defs>
    <g clip-path="url(#pb7b7784d0e)">
     <use xlink:href="#m4b3e199771" x="622.981928" y="335.214818" style="fill: #0000ff; stroke: #0000ff"/>
    </g>
   </g>
   <g id="legend_1">
    <g id="patch_7">
     <path d="M 366.840625 438.56 
L 634 438.56 
Q 638 438.56 638 434.56 
L 638 379.97875 
Q 638 375.97875 634 375.97875 
L 366.840625 375.97875 
Q 362.840625 375.97875 362.840625 379.97875 
L 362.840625 434.56 
Q 362.840625 438.56 366.840625 438.56 
z
" style="fill: #ffffff; opacity: 0.8; stroke: #cccccc; stroke-linejoin: miter"/>
    </g>
    <g id="line2d_17">
     <g>
      <use xlink:href="#m4b3e199771" x="390.840625" y="391.294375" style="fill: #0000ff; stroke: #0000ff"/>
     </g>
    </g>
    <g id="text_16">
     <text style="fill: #262626; font: 20px 'Arial', 'DejaVu Sans', 'Liberation Sans', 'Bitstream Vera Sans', sans-serif; text-anchor: start" x="426.840625" y="398.294375" transform="rotate(-0 426.840625 398.294375)">Начальное состояние</text>
    </g>
    <g id="line2d_18">
     <g>
      <use xlink:href="#m99c7f8bbce" x="390.840625" y="419.585" style="fill: #ff0000; stroke: #ff0000"/>
     </g>
    </g>
    <g id="text_17">
     <text style="fill: #262626; font: 20px 'Arial', 'DejaVu Sans', 'Liberation Sans', 'Bitstream Vera Sans', sans-serif; text-anchor: start" x="426.840625" y="426.585" transform="rotate(-0 426.840625 426.585)">Конечное состояние</text>
    </g>
   </g>
  </g>
 </g>
 <defs>
  <clipPath id="pb7b7784d0e">
   <rect x="90" y="60.48" width="558" height="388.08"/>
  </clipPath>
 </defs>
</svg>
