<?xml version="1.0" encoding="utf-8" standalone="no"?>
<!DOCTYPE svg PUBLIC "-//W3C//DTD SVG 1.1//EN"
  "http://www.w3.org/Graphics/SVG/1.1/DTD/svg11.dtd">
<svg xmlns:xlink="http://www.w3.org/1999/xlink" width="720pt" height="504pt" viewBox="0 0 720 504" xmlns="http://www.w3.org/2000/svg" version="1.1">
 <metadata>
  <rdf:RDF xmlns:dc="http://purl.org/dc/elements/1.1/" xmlns:cc="http://creativecommons.org/ns#" xmlns:rdf="http://www.w3.org/1999/02/22-rdf-syntax-ns#">
   <cc:Work>
    <dc:type rdf:resource="http://purl.org/dc/dcmitype/StillImage"/>
    <dc:date>2024-09-28T18:21:16.588177</dc:date>
    <dc:format>image/svg+xml</dc:format>
    <dc:creator>
     <cc:Agent>
      <dc:title>Matplotlib v3.7.2, https://matplotlib.org/</dc:title>
     </cc:Agent>
    </dc:creator>
   </cc:Work>
  </rdf:RDF>
 </metadata>
 <defs>
  <style type="text/css">*{stroke-linejoin: round; stroke-linecap: butt}</style>
 </defs>
 <g id="figure_1">
  <g id="patch_1">
   <path d="M 0 504 
L 720 504 
L 720 0 
L 0 0 
z
" style="fill: #ffffff"/>
  </g>
  <g id="axes_1">
   <g id="patch_2">
    <path d="M 90 448.56 
L 648 448.56 
L 648 60.48 
L 90 60.48 
z
" style="fill: #ffffff"/>
   </g>
   <g id="matplotlib.axis_1">
    <g id="xtick_1">
     <g id="line2d_1">
      <path d="M 158.276747 448.56 
L 158.276747 60.48 
" clip-path="url(#p47e337d06e)" style="fill: none; stroke: #cccccc; stroke-width: 0.8; stroke-linecap: round"/>
     </g>
     <g id="text_1">
      <text style="fill: #262626; font: 20px 'Arial', 'DejaVu Sans', 'Liberation Sans', 'Bitstream Vera Sans', sans-serif; text-anchor: middle" x="158.276747" y="469.875625" transform="rotate(-0 158.276747 469.875625)">−0.1</text>
     </g>
    </g>
    <g id="xtick_2">
     <g id="line2d_2">
      <path d="M 261.199374 448.56 
L 261.199374 60.48 
" clip-path="url(#p47e337d06e)" style="fill: none; stroke: #cccccc; stroke-width: 0.8; stroke-linecap: round"/>
     </g>
     <g id="text_2">
      <text style="fill: #262626; font: 20px 'Arial', 'DejaVu Sans', 'Liberation Sans', 'Bitstream Vera Sans', sans-serif; text-anchor: middle" x="261.199374" y="469.875625" transform="rotate(-0 261.199374 469.875625)">0.0</text>
     </g>
    </g>
    <g id="xtick_3">
     <g id="line2d_3">
      <path d="M 364.122002 448.56 
L 364.122002 60.48 
" clip-path="url(#p47e337d06e)" style="fill: none; stroke: #cccccc; stroke-width: 0.8; stroke-linecap: round"/>
     </g>
     <g id="text_3">
      <text style="fill: #262626; font: 20px 'Arial', 'DejaVu Sans', 'Liberation Sans', 'Bitstream Vera Sans', sans-serif; text-anchor: middle" x="364.122002" y="469.875625" transform="rotate(-0 364.122002 469.875625)">0.1</text>
     </g>
    </g>
    <g id="xtick_4">
     <g id="line2d_4">
      <path d="M 467.04463 448.56 
L 467.04463 60.48 
" clip-path="url(#p47e337d06e)" style="fill: none; stroke: #cccccc; stroke-width: 0.8; stroke-linecap: round"/>
     </g>
     <g id="text_4">
      <text style="fill: #262626; font: 20px 'Arial', 'DejaVu Sans', 'Liberation Sans', 'Bitstream Vera Sans', sans-serif; text-anchor: middle" x="467.04463" y="469.875625" transform="rotate(-0 467.04463 469.875625)">0.2</text>
     </g>
    </g>
    <g id="xtick_5">
     <g id="line2d_5">
      <path d="M 569.967258 448.56 
L 569.967258 60.48 
" clip-path="url(#p47e337d06e)" style="fill: none; stroke: #cccccc; stroke-width: 0.8; stroke-linecap: round"/>
     </g>
     <g id="text_5">
      <text style="fill: #262626; font: 20px 'Arial', 'DejaVu Sans', 'Liberation Sans', 'Bitstream Vera Sans', sans-serif; text-anchor: middle" x="569.967258" y="469.875625" transform="rotate(-0 569.967258 469.875625)">0.3</text>
     </g>
    </g>
    <g id="text_6">
     <!-- $x_{1}$ -->
     <g style="fill: #262626" transform="translate(358.3 492.16625)">
      <text>
       <tspan style="font: oblique 20px 'DejaVu Sans'" x="0" y="-0.0625">x</tspan>
       <tspan style="font: 14px 'DejaVu Sans'" x="11.835938" y="3.21875">1</tspan>
      </text>
     </g>
    </g>
   </g>
   <g id="matplotlib.axis_2">
    <g id="ytick_1">
     <g id="line2d_6">
      <path d="M 90 448.56 
L 648 448.56 
" clip-path="url(#p47e337d06e)" style="fill: none; stroke: #cccccc; stroke-width: 0.8; stroke-linecap: round"/>
     </g>
     <g id="text_7">
      <text style="fill: #262626; font: 20px 'Arial', 'DejaVu Sans', 'Liberation Sans', 'Bitstream Vera Sans', sans-serif; text-anchor: end" x="83" y="455.717813" transform="rotate(-0 83 455.717813)">0.00</text>
     </g>
    </g>
    <g id="ytick_2">
     <g id="line2d_7">
      <path d="M 90 402.492304 
L 648 402.492304 
" clip-path="url(#p47e337d06e)" style="fill: none; stroke: #cccccc; stroke-width: 0.8; stroke-linecap: round"/>
     </g>
     <g id="text_8">
      <text style="fill: #262626; font: 20px 'Arial', 'DejaVu Sans', 'Liberation Sans', 'Bitstream Vera Sans', sans-serif; text-anchor: end" x="83" y="409.650117" transform="rotate(-0 83 409.650117)">0.05</text>
     </g>
    </g>
    <g id="ytick_3">
     <g id="line2d_8">
      <path d="M 90 356.424608 
L 648 356.424608 
" clip-path="url(#p47e337d06e)" style="fill: none; stroke: #cccccc; stroke-width: 0.8; stroke-linecap: round"/>
     </g>
     <g id="text_9">
      <text style="fill: #262626; font: 20px 'Arial', 'DejaVu Sans', 'Liberation Sans', 'Bitstream Vera Sans', sans-serif; text-anchor: end" x="83" y="363.582421" transform="rotate(-0 83 363.582421)">0.10</text>
     </g>
    </g>
    <g id="ytick_4">
     <g id="line2d_9">
      <path d="M 90 310.356912 
L 648 310.356912 
" clip-path="url(#p47e337d06e)" style="fill: none; stroke: #cccccc; stroke-width: 0.8; stroke-linecap: round"/>
     </g>
     <g id="text_10">
      <text style="fill: #262626; font: 20px 'Arial', 'DejaVu Sans', 'Liberation Sans', 'Bitstream Vera Sans', sans-serif; text-anchor: end" x="83" y="317.514725" transform="rotate(-0 83 317.514725)">0.15</text>
     </g>
    </g>
    <g id="ytick_5">
     <g id="line2d_10">
      <path d="M 90 264.289216 
L 648 264.289216 
" clip-path="url(#p47e337d06e)" style="fill: none; stroke: #cccccc; stroke-width: 0.8; stroke-linecap: round"/>
     </g>
     <g id="text_11">
      <text style="fill: #262626; font: 20px 'Arial', 'DejaVu Sans', 'Liberation Sans', 'Bitstream Vera Sans', sans-serif; text-anchor: end" x="83" y="271.447029" transform="rotate(-0 83 271.447029)">0.20</text>
     </g>
    </g>
    <g id="ytick_6">
     <g id="line2d_11">
      <path d="M 90 218.22152 
L 648 218.22152 
" clip-path="url(#p47e337d06e)" style="fill: none; stroke: #cccccc; stroke-width: 0.8; stroke-linecap: round"/>
     </g>
     <g id="text_12">
      <text style="fill: #262626; font: 20px 'Arial', 'DejaVu Sans', 'Liberation Sans', 'Bitstream Vera Sans', sans-serif; text-anchor: end" x="83" y="225.379333" transform="rotate(-0 83 225.379333)">0.25</text>
     </g>
    </g>
    <g id="ytick_7">
     <g id="line2d_12">
      <path d="M 90 172.153824 
L 648 172.153824 
" clip-path="url(#p47e337d06e)" style="fill: none; stroke: #cccccc; stroke-width: 0.8; stroke-linecap: round"/>
     </g>
     <g id="text_13">
      <text style="fill: #262626; font: 20px 'Arial', 'DejaVu Sans', 'Liberation Sans', 'Bitstream Vera Sans', sans-serif; text-anchor: end" x="83" y="179.311637" transform="rotate(-0 83 179.311637)">0.30</text>
     </g>
    </g>
    <g id="ytick_8">
     <g id="line2d_13">
      <path d="M 90 126.086129 
L 648 126.086129 
" clip-path="url(#p47e337d06e)" style="fill: none; stroke: #cccccc; stroke-width: 0.8; stroke-linecap: round"/>
     </g>
     <g id="text_14">
      <text style="fill: #262626; font: 20px 'Arial', 'DejaVu Sans', 'Liberation Sans', 'Bitstream Vera Sans', sans-serif; text-anchor: end" x="83" y="133.243941" transform="rotate(-0 83 133.243941)">0.35</text>
     </g>
    </g>
    <g id="ytick_9">
     <g id="line2d_14">
      <path d="M 90 80.018433 
L 648 80.018433 
" clip-path="url(#p47e337d06e)" style="fill: none; stroke: #cccccc; stroke-width: 0.8; stroke-linecap: round"/>
     </g>
     <g id="text_15">
      <text style="fill: #262626; font: 20px 'Arial', 'DejaVu Sans', 'Liberation Sans', 'Bitstream Vera Sans', sans-serif; text-anchor: end" x="83" y="87.176245" transform="rotate(-0 83 87.176245)">0.40</text>
     </g>
    </g>
    <g id="text_16">
     <!-- $x_{3}$ -->
     <g style="fill: #262626" transform="translate(36.103125 265.22) rotate(-90)">
      <text>
       <tspan style="font: oblique 20px 'DejaVu Sans'" x="0" y="-0.0625">x</tspan>
       <tspan style="font: 14px 'DejaVu Sans'" x="11.835938" y="3.21875">3</tspan>
      </text>
     </g>
    </g>
   </g>
   <g id="line2d_15">
    <defs>
     <path id="m776063c9b2" d="M 0 3 
C 0.795609 3 1.55874 2.683901 2.12132 2.12132 
C 2.683901 1.55874 3 0.795609 3 0 
C 3 -0.795609 2.683901 -1.55874 2.12132 -2.12132 
C 1.55874 -2.683901 0.795609 -3 0 -3 
C -0.795609 -3 -1.55874 -2.683901 -2.12132 -2.12132 
C -2.683901 -1.55874 -3 -0.795609 -3 0 
C -3 0.795609 -2.683901 1.55874 -2.12132 2.12132 
C -1.55874 2.683901 -0.795609 3 0 3 
z
" style="stroke: #0000ff"/>
    </defs>
    <g clip-path="url(#p47e337d06e)">
     <use xlink:href="#m776063c9b2" x="621.428571" y="218.22152" style="fill: #0000ff; stroke: #0000ff"/>
    </g>
   </g>
   <g id="line2d_16">
    <defs>
     <path id="m609a84df23" d="M 0 3 
C 0.795609 3 1.55874 2.683901 2.12132 2.12132 
C 2.683901 1.55874 3 0.795609 3 0 
C 3 -0.795609 2.683901 -1.55874 2.12132 -2.12132 
C 1.55874 -2.683901 0.795609 -3 0 -3 
C -0.795609 -3 -1.55874 -2.683901 -2.12132 -2.12132 
C -2.683901 -1.55874 -3 -0.795609 -3 0 
C -3 0.795609 -2.683901 1.55874 -2.12132 2.12132 
C -1.55874 2.683901 -0.795609 3 0 3 
z
" style="stroke: #ff0000"/>
    </defs>
    <g clip-path="url(#p47e337d06e)">
     <use xlink:href="#m609a84df23" x="264.931271" y="428.053248" style="fill: #ff0000; stroke: #ff0000"/>
    </g>
   </g>
   <g id="line2d_17">
    <path d="M 621.428571 218.22152 
L 588.18024 218.866468 
L 574.827503 219.373155 
L 561.233275 219.745741 
L 548.466124 219.981267 
L 536.329106 220.077286 
L 524.738012 220.031384 
L 513.616912 219.841233 
L 502.903149 219.504611 
L 492.544049 219.01942 
L 482.495049 218.383711 
L 472.718155 217.595705 
L 463.180731 216.653821 
L 453.854531 215.5567 
L 444.71492 214.303241 
L 435.740251 212.892623 
L 426.911358 211.32435 
L 418.21115 209.598277 
L 409.624279 207.714654 
L 401.13688 205.674165 
L 392.736359 203.477969 
L 384.411233 201.127743 
L 376.150999 198.625725 
L 367.946046 195.974762 
L 359.787587 193.178349 
L 351.667621 190.240677 
L 343.578907 187.166669 
L 335.514969 183.962022 
L 327.470102 180.633238 
L 311.418796 173.633456 
L 295.396086 166.236344 
L 279.38814 158.524783 
L 255.416193 146.581874 
L 208.097056 122.769034 
L 192.788726 115.311304 
L 177.90521 108.301113 
L 163.596454 101.85166 
L 150.031532 96.061806 
L 137.393826 91.012044 
L 125.874722 86.761583 
L 115.666135 83.346817 
L 106.952285 80.781246 
L 99.901269 79.056807 
L 94.656961 78.146359 
L 92.748837 77.983488 
L 91.331692 78.006997 
L 90.413612 78.209676 
L 90 78.583809 
L 90.093444 79.121285 
L 90.69361 79.813709 
L 91.797154 80.652508 
L 93.397654 81.629021 
L 95.485566 82.734587 
L 101.069725 85.298658 
L 108.410717 88.277996 
L 117.321501 91.609636 
L 127.571296 95.235442 
L 144.864816 101.111934 
L 176.310496 111.709961 
L 188.937924 116.126555 
L 201.194829 120.601843 
L 212.868626 125.113114 
L 223.795164 129.641226 
L 233.860688 134.17015 
L 242.999639 138.686564 
L 251.189213 143.179468 
L 258.44188 147.639848 
L 261.728369 149.855494 
L 264.79707 152.060378 
L 267.65579 154.253807 
L 270.313048 156.435159 
L 275.059651 160.759487 
L 279.112299 165.029668 
L 282.547371 169.242842 
L 285.4389 173.396848 
L 287.856386 177.490104 
L 289.863526 181.521507 
L 291.517625 185.490346 
L 292.8695 189.396239 
L 293.963698 193.239068 
L 294.838926 197.018931 
L 295.528573 200.736108 
L 296.27658 206.195291 
L 296.750113 211.516296 
L 297.011591 216.701444 
L 297.112939 223.408199 
L 296.95901 231.468893 
L 296.510393 240.686809 
L 295.778209 250.844931 
L 294.679058 263.021499 
L 293.002983 279.002642 
L 290.63201 299.348773 
L 287.726706 322.347175 
L 284.778094 343.974911 
L 282.07752 362.195631 
L 279.692212 376.841415 
L 277.530405 388.770626 
L 275.578952 398.315157 
L 273.82295 405.834541 
L 272.189857 411.882703 
L 270.677107 416.667385 
L 269.240054 420.498215 
L 267.88937 423.486688 
L 266.616406 425.780614 
L 265.448659 427.445873 
L 264.931271 428.053248 
L 264.931271 428.053248 
" clip-path="url(#p47e337d06e)" style="fill: none; stroke: #ff0000; stroke-width: 3; stroke-linecap: round"/>
   </g>
   <g id="patch_3">
    <path d="M 90 448.56 
L 90 60.48 
" style="fill: none; stroke: #cccccc; stroke-width: 0.8; stroke-linejoin: miter; stroke-linecap: square"/>
   </g>
   <g id="patch_4">
    <path d="M 648 448.56 
L 648 60.48 
" style="fill: none; stroke: #cccccc; stroke-width: 0.8; stroke-linejoin: miter; stroke-linecap: square"/>
   </g>
   <g id="patch_5">
    <path d="M 90 448.56 
L 648 448.56 
" style="fill: none; stroke: #cccccc; stroke-width: 0.8; stroke-linejoin: miter; stroke-linecap: square"/>
   </g>
   <g id="patch_6">
    <path d="M 90 60.48 
L 648 60.48 
" style="fill: none; stroke: #cccccc; stroke-width: 0.8; stroke-linejoin: miter; stroke-linecap: square"/>
   </g>
   <g id="legend_1">
    <g id="patch_7">
     <path d="M 366.840625 438.56 
L 634 438.56 
Q 638 438.56 638 434.56 
L 638 379.97875 
Q 638 375.97875 634 375.97875 
L 366.840625 375.97875 
Q 362.840625 375.97875 362.840625 379.97875 
L 362.840625 434.56 
Q 362.840625 438.56 366.840625 438.56 
z
" style="fill: #ffffff; opacity: 0.8; stroke: #cccccc; stroke-linejoin: miter"/>
    </g>
    <g id="line2d_18">
     <g>
      <use xlink:href="#m776063c9b2" x="390.840625" y="391.294375" style="fill: #0000ff; stroke: #0000ff"/>
     </g>
    </g>
    <g id="text_17">
     <text style="fill: #262626; font: 20px 'Arial', 'DejaVu Sans', 'Liberation Sans', 'Bitstream Vera Sans', sans-serif; text-anchor: start" x="426.840625" y="398.294375" transform="rotate(-0 426.840625 398.294375)">Начальное состояние</text>
    </g>
    <g id="line2d_19">
     <g>
      <use xlink:href="#m609a84df23" x="390.840625" y="419.585" style="fill: #ff0000; stroke: #ff0000"/>
     </g>
    </g>
    <g id="text_18">
     <text style="fill: #262626; font: 20px 'Arial', 'DejaVu Sans', 'Liberation Sans', 'Bitstream Vera Sans', sans-serif; text-anchor: start" x="426.840625" y="426.585" transform="rotate(-0 426.840625 426.585)">Конечное состояние</text>
    </g>
   </g>
  </g>
 </g>
 <defs>
  <clipPath id="p47e337d06e">
   <rect x="90" y="60.48" width="558" height="388.08"/>
  </clipPath>
 </defs>
</svg>
